<?xml version="1.0" standalone="no"?>
<!DOCTYPE svg PUBLIC "-//W3C//DTD SVG 1.1//EN" "http://www.w3.org/Graphics/SVG/1.1/DTD/svg11.dtd">
<svg xmlns="http://www.w3.org/2000/svg"><metadata>This SVG WebFont was generated by YouWorkForThem.
Copyright (c) 2011-2013 by Greg Shutters &amp; Typetanic Fonts. All rights reserved.</metadata><defs><font horiz-adv-x="1067" id="ywftsvg"><font-face ascent="1485" bbox="-430 -541 2093 1898" cap-height="1438" descent="-563" font-family="" font-stretch="normal" font-weight="300" panose-1="2 11 3 3 4 6 3 2 2 2" underline-position="0" underline-thickness="0" unicode-range="U+0020-FB04" units-per-em="2048" x-height="807"/><missing-glyph horiz-adv-x="526"/><glyph d="M799 807h225v-74h-225v-733h-84v733h-416v-733h-84v733h-123v10l10 64h113v330q0 158 90 234.5t236 37.5l-9 -72q-92 29 -163.5 -20t-69.5 -170v-340h416v371q0 158 90 234.5t235 37.5l-8 -72q-92 29 -163.5 -20t-69.5 -170v-381z" glyph-name="uniFB00" horiz-adv-x="1081" unicode="ff"/><glyph d="M299 807h225v-74h-225v-733h-84v733h-123v10l10 64h113v371q0 158 90 234.5t236 37.5l-9 -72q-92 29 -163.5 -20t-69.5 -170v-381zM709 0v807h84v-807h-84zM664 1132.5q0 36.5 25.5 62.5t61.5 26t61.5 -26t25.5 -62.5t-26 -61t-62 -24.5t-61 24.5t-25 61z" glyph-name="uniFB01" horiz-adv-x="960" unicode="fi"/><glyph d="M299 807h225v-74h-225v-733h-84v733h-123v10l10 64h113v371q0 158 90 234.5t236 37.5l-9 -72q-92 29 -163.5 -20t-69.5 -170v-381zM829 1462v-1462h-84v1438l76 24h8z" glyph-name="uniFB02" horiz-adv-x="993" unicode="fl"/><glyph d="M1208 0v807h84v-807h-84zM1163 1132.5q0 36.5 25.5 62.5t61.5 26t61.5 -26t25.5 -62.5t-25.5 -61t-61.5 -24.5t-61.5 24.5t-25.5 61zM799 807h225v-74h-225v-733h-84v733h-416v-733h-84v733h-123v10l10 64h113v330q0 158 90 234.5t236 37.5l-9 -72q-92 29 -163.5 -20 t-69.5 -170v-340h416v371q0 158 90 234.5t235 37.5l-8 -72q-92 29 -163.5 -20t-69.5 -170v-381z" glyph-name="uniFB03" horiz-adv-x="1460" unicode="ffi"/><glyph d="M1329 1462v-1462h-84v1438l76 24h8zM799 807h225v-74h-225v-733h-84v733h-416v-733h-84v733h-123v10l10 64h113v330q0 158 90 234.5t236 37.5l-9 -72q-92 29 -163.5 -20t-69.5 -170v-340h416v371q0 158 90 234.5t235 37.5l-8 -72q-92 29 -163.5 -20t-69.5 -170v-381z" glyph-name="uniFB04" horiz-adv-x="1492" unicode="ffl"/><glyph d="M1034 733h-215v-536q0 -82 68.5 -121t154.5 -8l19 -68q-131 -47 -229.5 12.5t-98.5 184.5v536h-434v-733h-84v733h-123v10l10 64h113v371q0 158 90 234.5t236 37.5l-9 -72q-92 29 -163.5 -20t-69.5 -170v-381h434v289l78 24h8v-313h215v-74z" glyph-name="f_t.liga" horiz-adv-x="1132" unicode="ft"/><glyph d="M799 807h434v289l78 24h8v-313h215v-74h-215v-536q0 -82 68.5 -121t154.5 -8l19 -68q-131 -47 -229.5 12.5t-98.5 184.5v536h-434v-733h-84v733h-416v-733h-84v733h-123v10l10 64h113v330q0 158 90 234.5t236 37.5l-9 -72q-92 29 -163.5 -20t-69.5 -170v-340h416v371 q0 158 90 234.5t235 37.5l-8 -72q-92 29 -163.5 -20t-69.5 -170v-381z" glyph-name="f_f_t.liga" horiz-adv-x="1632" unicode="fft"/><glyph d="M1024 733h-215v-536q0 -82 68.5 -121t154.5 -8l19 -68q-131 -47 -229.5 12.5t-98.5 184.5v536h-434v-536q0 -82 68.5 -121t154.5 -8l18 -68q-131 -47 -229 12.5t-98 184.5v536h-142v10l11 64h131v289l78 24h8v-313h434v289l78 24h8v-313h215v-74z" glyph-name="t_t.liga" horiz-adv-x="1122" unicode="tt"/><glyph glyph-name=".notdef" horiz-adv-x="526"/><glyph glyph-name="glyph1" horiz-adv-x="0"/><glyph glyph-name="glyph2" horiz-adv-x="681"/><glyph glyph-name="space" horiz-adv-x="471" unicode=" "/><glyph d="M250 354l-47 979h127l-45 -979h-35zM164 83q0 46 28.5 75.5t73.5 29.5t76 -30.5t31 -75.5t-31 -73.5t-76 -28.5t-73.5 28.5t-28.5 74.5z" glyph-name="exclam" horiz-adv-x="536" unicode="!"/><glyph d="M143 940l-51 498h148l-54 -498h-43zM412 940l-52 498h148l-53 -498h-43z" glyph-name="quotedbl" horiz-adv-x="600" unicode="&quot;"/><glyph d="M977 395h-227l-99 -395h-94l102 395h-264l-104 -395h-94l104 395h-219v74h237l107 403h-211v76h231l103 385h96l-102 -385h262l102 385h97l-105 -385h209v-76h-229l-111 -403h209v-74zM522 872l-106 -403h264l106 403h-264z" glyph-name="numbersign" horiz-adv-x="1189" unicode="#"/><glyph d="M432 1612h94v-252q121 -12 252 -88l-30 -84q-4 2 -33 20.5t-35 21.5t-30.5 16.5t-37 16.5t-42.5 11t-83 8q-125 0 -187 -65.5t-62 -176.5q0 -51 60 -129t220 -178q158 -106 238 -204.5t74 -234.5t-92.5 -221t-211.5 -100v-249h-94v249q-149 7 -206.5 44.5t-102.5 76.5 l47 76q72 -61 134 -90t182 -29t188.5 76t68.5 173t-71.5 179t-197.5 167t-181 129t-101.5 116t-46.5 153q0 121 73 211.5t214 102.5v254z" glyph-name="dollar" horiz-adv-x="956" unicode="$"/><glyph d="M172 0l1088 1374l57 -45l-1081 -1374zM1118 -20q-123 0 -213 82.5t-90 222t90 221.5t214 82t212 -82t88 -221.5t-89 -222t-212 -82.5zM1120.5 49q96.5 0 155.5 72t59 165t-59.5 163.5t-155.5 70.5t-159.5 -71.5t-63.5 -162.5t63.5 -164t160 -73zM396 741q-124 0 -214 82 t-90 221.5t91 222.5t215 83t212 -83t88 -222.5t-89 -221.5t-213 -82zM399.5 811q96.5 0 155.5 70.5t59 163.5t-59 165t-155 72t-160 -72t-64 -164t63.5 -163.5t160 -71.5z" glyph-name="percent" horiz-adv-x="1511" unicode="%"/><glyph d="M567 1286q-90 0 -145.5 -55t-59.5 -121t7.5 -106.5t21.5 -57t35 -45.5l469 -608l209 188l57 -61l-209 -195l174 -225h-118l-117 158l-94 -80q-63 -61 -177 -89t-236 -2.5t-189 111.5q-104 133 -89 279.5t140 253.5l164 139l-62 80q-96 123 -80 254q33 258 299 258 q111 0 188.5 -61.5t110.5 -151.5l-78 -37q-70 174 -221 174zM264 162q88 -109 229.5 -108t243.5 96l94 79l-370 469l-156 -137q-88 -76 -102.5 -183t61.5 -216z" glyph-name="ampersand" horiz-adv-x="1263" unicode="&amp;"/><glyph d="M143 940l-51 498h148l-54 -498h-43z" glyph-name="quotesingle" horiz-adv-x="331" unicode="'"/><glyph d="M164 601q0 251 102.5 476.5t272.5 388.5l43 -32q-324 -381 -324 -832q0 -262 94.5 -484t229.5 -382l-43 -33q-168 174 -271.5 410.5t-103.5 487.5z" glyph-name="parenleft" horiz-adv-x="729" unicode="("/><glyph d="M471 602q0 451 -324 832l43 32q170 -164 272.5 -389t102.5 -476t-103.5 -487.5t-271.5 -410.5l-43 33q135 160 229.5 382t94.5 484z" glyph-name="parenright" horiz-adv-x="729" unicode=")"/><glyph d="M350 872l17 242l-203 -137l-41 70l225 106l-225 109l41 71l203 -137l-17 242h80l-16 -242l202 137l41 -71l-225 -109l225 -106l-41 -70l-202 137l16 -242h-80z" glyph-name="asterisk" horiz-adv-x="780" unicode="*"/><glyph d="M500 657v-313h-84v313h-314v76h314v314h84v-314h311v-76h-311z" glyph-name="plus" horiz-adv-x="913" unicode="+"/><glyph d="M92 -293l74 475h160l4 -20l-195 -465z" glyph-name="comma" horiz-adv-x="442" unicode=","/><glyph d="M563 494l-461 -60v86l461 60v-86z" glyph-name="hyphen" horiz-adv-x="665" unicode="-"/><glyph d="M113 83q0 46 28.5 75.5t73.5 29.5t76 -30.5t31 -75.5t-31 -73.5t-76 -28.5t-73.5 28.5t-28.5 74.5z" glyph-name="period" horiz-adv-x="434" unicode="."/><glyph d="M-10 -262l585 1730l87 -28l-590 -1729z" glyph-name="slash" horiz-adv-x="684" unicode="/"/><glyph d="M577.5 1362q227.5 0 360.5 -196.5t133 -495.5t-133 -499t-360.5 -200t-361.5 200t-134 499t134 495.5t361.5 196.5zM577.5 47q180.5 0 290 182.5t109.5 440.5t-109.5 440t-290 182t-292 -182t-111.5 -439t111.5 -440.5t292 -183.5z" glyph-name="zero" horiz-adv-x="1153" unicode="0"/><glyph d="M317 0v1219l-139 -78l-35 76l246 135h21v-1352h-93z" glyph-name="one" horiz-adv-x="634" unicode="1"/><glyph d="M498 1362q156 0 276.5 -106t121.5 -296t-122 -362t-487 -522h635v-76h-830l-10 18q342 313 428 402q297 307 297 526q0 162 -91.5 248t-199.5 88t-189 -44t-130 -110h-19l-49 58q156 176 369 176z" glyph-name="two" horiz-adv-x="1044" unicode="2"/><glyph d="M152 1333h706l10 -18l-364 -531q168 14 297 -92t129 -294t-120 -307.5t-318 -119.5q-106 0 -191.5 20.5t-108 33t-79.5 47.5l30 67l19 2q129 -98 323 -98q133 0 244 92t111 260t-128 264.5t-333 47.5l-17 14l369 532h-579v80z" glyph-name="three" horiz-adv-x="1042" unicode="3"/><glyph d="M823 348h234v-76h-234v-272h-92v272h-672l-18 27l764 1061l18 -8v-1004zM731 348v770l-549 -770h549z" glyph-name="four" horiz-adv-x="1107" unicode="4"/><glyph d="M854 1333v-78h-522l-53 -497q51 37 160.5 54t193.5 -1q123 -29 209 -142.5t88 -280.5t-118 -292t-339 -125q-131 0 -226 33t-134 72l28 69l19 2q43 -39 125 -69.5t188 -30.5q152 0 258.5 97.5t106.5 257.5t-95.5 253t-236.5 93q-96 0 -183 -43t-128 -89l-19 11l74 706 h604z" glyph-name="five" horiz-adv-x="1044" unicode="5"/><glyph d="M542 -29q-188 0 -307.5 135.5t-121.5 352.5q0 217 70.5 394t181 282.5t234.5 164t243 62.5l14 -70l-16 -14q-215 -8 -402.5 -196.5t-212.5 -446.5q51 88 144.5 133t191.5 45q182 0 302 -114.5t120 -302.5t-126.5 -306.5t-314.5 -118.5zM552 47q146 0 241.5 102.5 t95.5 246t-92 243.5t-241 100t-246 -100t-97 -243.5t96.5 -246t242.5 -102.5z" glyph-name="six" horiz-adv-x="1095" unicode="6"/><glyph d="M123 1257v76h770l14 -20l-551 -1313h-102l541 1257h-672z" glyph-name="seven" horiz-adv-x="978" unicode="7"/><glyph d="M563 -29q-195 0 -322.5 118t-127.5 300q0 135 79.5 242.5t206.5 136.5q-178 82 -178 279q0 137 97.5 225t245.5 88t244.5 -89t96.5 -224q0 -197 -178 -277q127 -29 207 -137.5t80 -243.5q0 -182 -128 -300t-323 -118zM565.5 47q159.5 0 257 99.5t97.5 242.5t-99.5 240.5 t-260.5 97.5t-257 -97.5t-96 -240.5t99.5 -242.5t259 -99.5zM565.5 797q110.5 0 180 74.5t69.5 171t-70.5 171t-181.5 74.5t-181.5 -74t-70.5 -170t72 -171.5t182.5 -75.5z" glyph-name="eight" horiz-adv-x="1126" unicode="8"/><glyph d="M554 1362q188 0 307.5 -135t120.5 -353t-69.5 -394.5t-181 -282t-234.5 -164t-243 -62.5l-14 70l16 14q215 8 402.5 196.5t211.5 446.5q-51 -88 -144 -133t-191 -45q-182 0 -302 115t-120 302t126.5 306t314.5 119zM544 1286q-146 0 -241.5 -102.5t-95.5 -245.5 t92 -243.5t241 -100.5t246 100.5t97 243.5t-96.5 245.5t-242.5 102.5z" glyph-name="nine" horiz-adv-x="1095" unicode="9"/><glyph d="M113 81q0 46 28.5 75.5t73.5 29.5t76 -30.5t31 -75.5t-31 -74t-76 -29t-73.5 29t-28.5 75zM113 722q0 46 28.5 75.5t73.5 29.5t76 -30.5t31 -75.5t-31 -74t-76 -29t-73.5 29t-28.5 75z" glyph-name="colon" horiz-adv-x="434" unicode=":"/><glyph d="M72 -293l73 475h160l4 -20l-194 -465zM117 722q0 46 28.5 75.5t73.5 29.5t76 -30.5t31 -75.5t-31 -74t-76 -29t-73.5 29t-28.5 75z" glyph-name="semicolon" horiz-adv-x="438" unicode=";"/><glyph d="M918 281l-836 405v19l836 405v-88l-676 -326l676 -327v-88z" glyph-name="less" horiz-adv-x="1060" unicode="&lt;"/><glyph d="M879 508h-777v74h777v-74zM879 807h-777v76h777v-76z" glyph-name="equal" horiz-adv-x="980" unicode="="/><glyph d="M979 686l-836 -405v88l676 327l-676 326v88l836 -405v-19z" glyph-name="greater" horiz-adv-x="1060" unicode=">"/><glyph d="M401.5 1284q-98.5 0 -167 -55t-95.5 -150l-78 27q27 104 114 180t225 76t233.5 -89t95.5 -238t-86 -231.5t-171 -170t-81 -279.5h-61q-26 200 53.5 291.5t164.5 177.5t85 206t-66.5 187.5t-165 67.5zM262 83q0 46 28.5 75.5t74 29.5t76 -30.5t30.5 -75.5t-30.5 -73.5 t-76 -28.5t-74 28.5t-28.5 74.5z" glyph-name="question" horiz-adv-x="811" unicode="?"/><glyph d="M1371 371q93 0 168 84t75 257t-90 325.5t-259 247.5t-378 95q-319 0 -516 -213t-197 -534.5t196.5 -528t530.5 -206.5q254 0 479 133l29 -76q-219 -133 -508 -133q-367 0 -593 233.5t-226 577.5t226.5 583.5t572.5 239.5t580.5 -221t234.5 -522q0 -211 -98.5 -317.5 t-229.5 -106.5q-86 0 -160.5 43t-87.5 112q-78 -149 -260 -155q-135 -4 -225 90t-85 236t97 239.5t227 101.5q174 6 259 -147l47 94h47l-53 -350q-12 -72 46 -127t151 -55zM702.5 432q63.5 -74 160.5 -71t164 82t71 190q2 111 -62 181.5t-162 67.5t-162.5 -79t-68.5 -186.5 t59.5 -184.5z" glyph-name="at" horiz-adv-x="1777" unicode="@"/><glyph d="M119 0h-99l621 1458h29l612 -1458h-98l-176 414h-713zM653 1270l-325 -781h645z" glyph-name="A" horiz-adv-x="1302" unicode="A"/><glyph d="M860 1130q0 -112 -48 -190t-114 -115q152 -23 250.5 -135t98.5 -268q0 -215 -137.5 -317t-330.5 -117t-395 12v1438q233 37 388 1t221.5 -116.5t66.5 -192.5zM279 834h210q121 0 200 82t79 188t-53 167.5t-185 93.5t-251 1v-532zM279 760v-682q221 -44 385.5 10.5 t227 134.5t62.5 195q0 164 -111.5 253t-273.5 89h-290z" glyph-name="B" horiz-adv-x="1128" unicode="B"/><glyph d="M815 -29q-315 0 -524 217.5t-209 537.5t216 530t527 210q174 0 298 -54t235 -144l-51 -66q-207 186 -477 186t-458 -193.5t-188 -473.5t188.5 -476t452.5 -196q133 0 267.5 50t230.5 132l53 -63q-109 -92 -234.5 -144.5t-326.5 -52.5z" glyph-name="C" horiz-adv-x="1458" unicode="C"/><glyph d="M1292 708q0 -157 -91.5 -340.5t-331 -302.5t-685.5 -65v1438q325 55 575 -20.5t391.5 -258t141.5 -451.5zM1190 713q0 292 -162 442t-342 193t-407 12v-1290q391 -49 651 134t260 509z" glyph-name="D" horiz-adv-x="1374" unicode="D"/><glyph d="M276 76h668v-76h-760v1438h723v-76h-631v-490h508v-75h-508v-721z" glyph-name="E" unicode="E"/><glyph d="M276 0h-92v1438h723v-76h-631v-490h508v-75h-508v-797z" glyph-name="F" horiz-adv-x="1009" unicode="F"/><glyph d="M1026 508v74h342v-426q-220 -184 -540 -184t-533 218t-213 531t217 529t522 216t537 -198l-58 -66q-219 186 -480 186t-446.5 -193t-185.5 -477t186.5 -476.5t469.5 -192.5q123 0 239.5 41t190.5 105v313h-248z" glyph-name="G" horiz-adv-x="1490" unicode="G"/><glyph d="M1014 0v797h-738v-797h-92v1438h92v-566h738v566h92v-1438h-92z" glyph-name="H" horiz-adv-x="1290" unicode="H"/><glyph d="M184 0v1438h92v-1438h-92z" glyph-name="I" horiz-adv-x="460" unicode="I"/><glyph d="M481 412v1026h92v-1026q0 -172 -110.5 -301t-319.5 -129v84q141 0 239.5 98t98.5 248z" glyph-name="J" horiz-adv-x="798" unicode="J"/><glyph d="M184 0v1438h95v-668l639 668h114l-655 -695l717 -743h-129l-686 709v-709h-95z" glyph-name="K" horiz-adv-x="1165" unicode="K"/><glyph d="M868 76v-76h-684v1438h92v-1362h592z" glyph-name="L" horiz-adv-x="950" unicode="L"/><glyph d="M276 0h-92v1448l21 10l540 -616l537 616l21 -10v-1448h-93v1233l-454 -518h-25l-455 518v-1233z" glyph-name="M" horiz-adv-x="1486" unicode="M"/><glyph d="M1040 1438h88v-1438h-88v698l-768 586v-1284h-88v1444l15 14l841 -647v627z" glyph-name="N" horiz-adv-x="1312" unicode="N"/><glyph d="M82 718q0 320 211 534t525 214t527.5 -215t213.5 -534.5t-213.5 -532.5t-527.5 -213t-525 213.5t-211 533.5zM182 717q0 -287 184.5 -477.5t452.5 -190.5t453.5 190.5t185.5 477.5t-185.5 479.5t-453.5 192.5t-452.5 -192.5t-184.5 -479.5z" glyph-name="O" horiz-adv-x="1640" unicode="O"/><glyph d="M954 985q0 -264 -195.5 -404.5t-482.5 -109.5v-471h-92v1432q328 74 549 -54.5t221 -392.5zM860 977q0 209 -163 320.5t-421 66.5v-807q264 -27 424 92t160 328z" glyph-name="P" horiz-adv-x="1036" unicode="P"/><glyph d="M82 718q0 320 211 534t525 214t527.5 -215t213.5 -534q0 -215 -101.5 -387t-275.5 -269l151 -200l-63 -54l-166 218q-139 -53 -285 -54q-315 0 -526 213.5t-211 533.5zM182 717q0 -287 184.5 -477.5t452.5 -190.5q127 0 234 43l-148 199l64 55l161 -217q150 84 239 239.5 t89 348.5q0 287 -185.5 479.5t-453.5 192.5t-452.5 -192.5t-184.5 -479.5z" glyph-name="Q" horiz-adv-x="1640" unicode="Q"/><glyph d="M934 1001q0 -123 -64.5 -240.5t-199.5 -180.5l426 -580h-121l-397 547q-129 -35 -302 -15v-532h-92v1432q334 72 542 -51.5t208 -379.5zM840 995q0 196 -155 305t-409 64v-743q250 -39 407 69.5t157 304.5z" glyph-name="R" horiz-adv-x="1136" unicode="R"/><glyph d="M524 1386q-136 0 -211 -71.5t-75 -179.5q0 -180 303 -347q365 -197 356 -464q-4 -174 -115.5 -263.5t-281.5 -87.5q-242 2 -387 133l51 74q145 -127 332 -127q139 0 225 82t86 176q0 125 -75.5 211t-247.5 190t-256.5 193.5t-84.5 223t95.5 235.5t281.5 102t324 -94 l-39 -72q-145 86 -281 86z" glyph-name="S" horiz-adv-x="1011" unicode="S"/><glyph d="M920 1438v-76h-390v-1362h-92v1362h-387v76h869z" glyph-name="T" horiz-adv-x="970" unicode="T"/><glyph d="M184 492v946h95v-942q0 -186 102 -317.5t280.5 -131.5t282 131t103.5 318v942h94v-946q0 -294 -160 -407.5t-322 -113.5q-236 0 -355.5 155t-119.5 366z" glyph-name="U" horiz-adv-x="1325" unicode="U"/><glyph d="M1120 1438h92l-569 -1458h-29l-563 1458h101l479 -1256z" glyph-name="V" horiz-adv-x="1263" unicode="V"/><glyph d="M1790 1438h90l-475 -1458h-29l-411 1245l-418 -1245h-27l-469 1458h101l383 -1213l419 1233h29l410 -1245z" glyph-name="W" horiz-adv-x="1931" unicode="W"/><glyph d="M176 0h-104l448 715l-446 723h112l392 -633l397 633h100l-448 -715l448 -723h-106l-396 633z" glyph-name="X" horiz-adv-x="1146" unicode="X"/><glyph d="M606 0h-94v754l-461 684h111l403 -598l410 598h100l-469 -684v-754z" glyph-name="Y" horiz-adv-x="1126" unicode="Y"/><glyph d="M1012 76v-76h-906l-14 16l811 1346h-745v76h870l12 -17l-809 -1345h781z" glyph-name="Z" horiz-adv-x="1132" unicode="Z"/><glyph d="M279 -193h290v-75h-385v1706h385v-76l-290 -2v-1553z" glyph-name="bracketleft" horiz-adv-x="692" unicode="["/><glyph d="M86 1468l586 -1730l-82 -27l-590 1729z" glyph-name="backslash" horiz-adv-x="684" unicode="\"/><glyph d="M123 -193h291v1553l-291 2v76h385v-1706h-385v75z" glyph-name="bracketright" horiz-adv-x="692" unicode="]"/><glyph d="M72 1042l286 396h27l287 -396l-68 -49l-233 330l-236 -330z" glyph-name="asciicircum" horiz-adv-x="743" unicode="^"/><glyph d="M1284 -262h-1284v74h1284v-74z" glyph-name="underscore" horiz-adv-x="1284" unicode="_"/><glyph d="M61 1184h142l110 -242h-45l-207 221v21z" glyph-name="grave" horiz-adv-x="374" unicode="`"/><glyph d="M399 -25q-158 0 -248 82t-90 192t91.5 192.5t248.5 82.5q86 0 180.5 -42t129.5 -85v70q-2 117 -62.5 202t-196.5 85t-243 -90l-47 51q35 47 121 81.5t163 32.5q328 -4 351 -358l-2 -471h-50l-26 139q-104 -164 -320 -164zM711 311v8q-123 135 -312 134 q-117 0 -184.5 -60.5t-67.5 -145.5t73.5 -145.5t191.5 -60.5t208.5 78.5t90.5 191.5z" glyph-name="a" horiz-adv-x="899" unicode="a"/><glyph d="M557 -25q-104 0 -199.5 52.5t-140.5 136.5l-37 -164h-47v1438l76 24h8v-817q43 84 139.5 135t202.5 51q182 0 301 -119.5t119 -308t-120 -308.5t-302 -120zM560 45q148 0 241.5 104.5t93.5 254.5t-96.5 254t-242.5 104t-240.5 -94.5t-98.5 -239.5v-33q0 -147 97.5 -248.5 t245.5 -101.5z" glyph-name="b" horiz-adv-x="1050" unicode="b"/><glyph d="M506 45q82 0 165 36t126 81l51 -56q-128 -131 -332 -131t-324 118.5t-120 310.5t114.5 309.5t309 117.5t325.5 -141l-59 -59q-111 131 -264 131t-247.5 -103.5t-94.5 -254.5t97 -255t253 -104z" glyph-name="c" horiz-adv-x="899" unicode="c"/><glyph d="M496 -25q-182 0 -303 120t-121 308.5t119.5 308t300.5 119.5q106 0 201 -51t138 -135v793l78 24h9v-1462h-48l-39 164q-43 -84 -137 -136.5t-198 -52.5zM491.5 45q147.5 0 243.5 100.5t96 249.5v33q-4 145 -96 239.5t-238 94.5t-243.5 -104.5t-97.5 -254t94 -254 t241.5 -104.5z" glyph-name="d" horiz-adv-x="1050" unicode="d"/><glyph d="M526 45q154 0 287 82l39 -61q-123 -90 -325 -90t-328.5 120t-126.5 310t114.5 307.5t275.5 117.5t269.5 -102.5t114.5 -290.5h-688q-8 -180 103 -286.5t265 -106.5zM465 762q-117 0 -199 -82t-92 -168h574q-10 111 -88 180.5t-195 69.5z" glyph-name="e" horiz-adv-x="923" unicode="e"/><glyph d="M299 807h225v-74h-225v-733h-84v733h-123v10l10 64h113v371q0 158 90 234.5t236 37.5l-9 -72q-92 29 -163.5 -20t-69.5 -170v-381z" glyph-name="f" horiz-adv-x="581" unicode="f"/><glyph d="M450 -541q-96 0 -189 26t-161.5 93.5t-68.5 167.5q0 203 241 266q-43 8 -73.5 51t-30.5 97t40 100.5t95 48.5q-74 39 -112.5 104.5t-38.5 139.5q0 113 79 195.5t215 82.5t209 -67l195 43h18v-96h-170q50 -69 50 -171t-83 -180.5t-214 -78.5q-197 0 -197 -121t202 -121 t327.5 -70.5t125.5 -222.5q0 -78 -40 -135t-107.5 -89t-141.5 -47.5t-170 -15.5zM469 -471q139 0 246.5 54.5t107.5 163t-101 165.5t-259 57t-251 -56t-93 -166t105.5 -164t244.5 -54zM452 348q103 0 158.5 63.5t55.5 142.5t-55.5 143.5t-160.5 64.5t-159.5 -64.5 t-54.5 -143.5t56.5 -142.5t159.5 -63.5z" glyph-name="g" horiz-adv-x="960" unicode="g"/><glyph d="M217 1462v-790q47 72 129 115.5t170 43.5q158 0 258 -101t100 -263v-467h-86v467q0 143 -84 217t-188 74t-198.5 -72t-100.5 -203v-483h-84v1438l76 24h8z" glyph-name="h" horiz-adv-x="976" unicode="h"/><glyph d="M168 0v807h84v-807h-84zM123 1132.5q0 36.5 25.5 62.5t61.5 26t61.5 -26t25.5 -62.5t-25.5 -61t-61.5 -24.5t-61.5 24.5t-25.5 61z" glyph-name="i" horiz-adv-x="419" unicode="i"/><glyph d="M125 1132.5q0 36.5 25.5 62.5t61.5 26t62.5 -26t26.5 -62.5t-25.5 -61t-62.5 -24.5t-62.5 24.5t-25.5 61zM170 -266v1073h84v-1063q0 -145 -89 -221t-237 -43l11 71q100 -20 165.5 32.5t65.5 150.5z" glyph-name="j" horiz-adv-x="423" unicode="j"/><glyph d="M217 1462v-999l406 344h116l-440 -379l489 -428h-116l-455 387v-387h-84v1438l76 24h8z" glyph-name="k" horiz-adv-x="839" unicode="k"/><glyph d="M217 1462v-1462h-84v1438l76 24h8z" glyph-name="l" horiz-adv-x="350" unicode="l"/><glyph d="M449 831q201 0 274 -178q25 80 99.5 129t164.5 49q141 0 221 -89t80 -236v-506h-84v506q0 131 -65.5 191.5t-152.5 60.5t-158.5 -61.5t-75.5 -190.5v-506h-84v506q0 131 -65 191.5t-155 60.5t-160.5 -62.5t-70.5 -189.5v-506h-84v807h47l37 -117q70 141 232 141z" glyph-name="m" horiz-adv-x="1390" unicode="m"/><glyph d="M514 831q158 0 259 -101t101 -263v-467h-86v467q0 143 -85 217t-190 74t-200.5 -76t-95.5 -215v-467h-84v807h47l37 -135q47 72 129 115.5t168 43.5z" glyph-name="n" horiz-adv-x="976" unicode="n"/><glyph d="M494 -25q-174 0 -298 117t-124 313.5t125 311t299 114.5t298 -114.5t124 -311t-125 -313.5t-299 -117zM497 45q142 0 238 103.5t96 258.5t-98 255t-242 100t-239.5 -101t-95.5 -255t99.5 -257.5t241.5 -103.5z" glyph-name="o" horiz-adv-x="989" unicode="o"/><glyph d="M555 831q182 0 303 -119.5t121 -308t-120 -308.5t-302 -120q-106 0 -202.5 51.5t-137.5 137.5v-662l-76 -26h-8v1331h47l37 -162q47 84 140.5 135t197.5 51zM560 762q-148 0 -245.5 -100.5t-97.5 -247.5v-35q4 -143 97.5 -238.5t239.5 -95.5t243.5 104.5t97.5 254.5 t-93.5 254t-241.5 104z" glyph-name="p" horiz-adv-x="1050" unicode="p"/><glyph d="M496 831q104 0 198 -51t137 -135l39 162h48v-1305l-76 -26h-11v688q-39 -86 -135 -137.5t-204 -51.5q-180 0 -300 120t-120 308.5t121 308t303 119.5zM491.5 762q-147.5 0 -241.5 -103.5t-94 -254.5t97 -255t243 -104t238.5 95.5t96.5 238.5v35q0 147 -96 247.5 t-243.5 100.5z" glyph-name="q" horiz-adv-x="1050" unicode="q"/><glyph d="M133 0v807h47l37 -98q25 53 80 87.5t115 34.5t120 -24l-18 -74l-10 -2q-43 25 -92 25q-135 0 -195 -148v-608h-84z" glyph-name="r" horiz-adv-x="583" unicode="r"/><glyph d="M188 614q0 -106 193 -163q127 -37 201.5 -95t74.5 -164t-82.5 -161.5t-208.5 -55.5t-185.5 33t-73 43t-15.5 10l41 68q96 -82 223 -82q84 0 150.5 38.5t66.5 106.5t-53 110t-166 73q-252 72 -252 239q0 96 74 156.5t197 60.5q20 0 40.5 -2t34 -3t34 -6t27.5 -6t28.5 -9 t24.5 -9t28 -14l24 -10l-34 -70q-109 60 -197 60t-141.5 -36t-53.5 -112z" glyph-name="s" horiz-adv-x="749" unicode="s"/><glyph d="M504 733h-215v-536q0 -82 68.5 -121t154.5 -8l18 -68q-131 -47 -229 12.5t-98 184.5v536h-142v10l11 64h131v289l78 24h8v-313h215v-74z" glyph-name="t" horiz-adv-x="602" unicode="t"/><glyph d="M483 -25q-158 0 -259 101.5t-101 263.5v467h86v-467q0 -143 85 -217t190 -74t200.5 76t95.5 215v467h84v-807h-47l-37 135q-45 -76 -126 -118t-171 -42z" glyph-name="u" horiz-adv-x="997" unicode="u"/><glyph d="M764 807h86l-387 -827h-27l-385 827h92l308 -672z" glyph-name="v" horiz-adv-x="901" unicode="v"/><glyph d="M1184 807h80l-303 -827h-27l-275 690l-282 -690h-29l-297 827h86l232 -651l276 680h29l274 -680z" glyph-name="w" horiz-adv-x="1314" unicode="w"/><glyph d="M838 807l-340 -406l342 -401h-103l-295 340l-274 -340h-102l323 399l-328 408h111l274 -344l291 344h101z" glyph-name="x" horiz-adv-x="901" unicode="x"/><glyph d="M760 807h90l-639 -1327h-84l-12 20l280 551l-344 756h94l304 -657z" glyph-name="y" horiz-adv-x="901" unicode="y"/><glyph d="M748 76v-76h-654l-12 23l536 710h-505l-2 74h630l9 -25l-521 -706h519z" glyph-name="z" horiz-adv-x="831" unicode="z"/><glyph d="M434 858q0 -199 -112 -272q115 -70 114 -271v-225q0 -117 44 -205.5t220 -70.5l9 -80q-221 -12 -294 87.5t-73 256.5v235q0 174 -62.5 206t-125.5 32h-52v72h50q127 0 157.5 70.5t30.5 166.5v232q0 155 72 255.5t297 88.5l-11 -80q-179 12 -221.5 -75t-42.5 -202v-221z " glyph-name="braceleft" horiz-adv-x="831" unicode="{"/><glyph d="M205 -268v1732h92v-1732h-92z" glyph-name="bar" horiz-adv-x="501" unicode="|"/><glyph d="M397 858v221q0 117 -42 203t-222 74l-10 80q224 12 296.5 -88.5t72.5 -255.5v-232q0 -174 62 -205.5t126 -31.5h49v-72h-51q-125 0 -157 -72t-32 -166v-235q0 -270 -128 -310t-238 -34l8 80q178 -16 221 70.5t43 205.5v225q0 201 115 271q-113 73 -113 272z" glyph-name="braceright" horiz-adv-x="831" unicode="}"/><glyph d="M264 580q52 0 120 -29t102 -29t57.5 10.5t44.5 47.5l69 -19q-25 -80 -67 -108.5t-94 -28.5t-119.5 29.5t-97.5 29.5q-78 0 -107 -57l-70 18q25 80 67.5 108t94.5 28z" glyph-name="asciitilde" horiz-adv-x="759" unicode="~"/><glyph d="M287 522l47 -979h-127l45 979h35zM373 794q0 -46 -29 -76t-74 -30t-75.5 31t-30.5 76t30.5 73.5t75.5 28.5t74 -28.5t29 -74.5z" glyph-name="exclamdown" horiz-adv-x="536" unicode="¡"/><glyph d="M506 332q80 0 161 37t128 82l53 -54q-119 -125 -318 -135v-262h-84v264q-168 18 -271 137t-103 296t100 295t274 134v269h84v-269q176 -16 291 -141l-55 -63q-121 137 -270 137t-243.5 -106.5t-94.5 -257.5t97 -257t251 -106z" glyph-name="cent" horiz-adv-x="899" unicode="¢"/><glyph d="M698 469h-213q29 -61 19 -166.5t-72 -179.5q96 -76 246 -76q92 0 173 44t107 104l64 -48q-41 -94 -138.5 -135t-185.5 -41t-144 11.5t-79.5 20.5t-61.5 30.5t-42 23.5q-103 -57 -265 -57l-14 80q190 -4 279.5 109.5t19.5 279.5h-207v76h178q-20 43 -75.5 126t-87 155.5 t-31.5 156.5q0 170 102.5 274.5t276.5 104.5q96 0 180 -36t129 -87l-51 -59q-102 106 -260 106q-123 0 -203 -84t-80 -219q0 -82 35 -154.5t88 -150.5t74 -133h239v-76z" glyph-name="sterling" horiz-adv-x="1073" unicode="£"/><glyph d="M594 260q-164 0 -291 98l-106 -104l-64 70l107 102q-106 115 -106 296t106 294l-107 104l64 70l106 -107q125 101 290 101t294 -101l106 107l64 -70l-107 -104q106 -115 106 -293t-106 -297l107 -102l-64 -70l-106 104q-129 -98 -293 -98zM225 720.5q0 -153.5 107.5 -270 t262.5 -116.5t262.5 116.5t107.5 270t-107.5 270.5t-263.5 117t-262.5 -117t-106.5 -270.5z" glyph-name="currency" horiz-adv-x="1189" unicode="¤"/><glyph d="M944 670h-340v-150h340v-76h-340v-444h-94v444h-342v76h342v150h-342v75h295l-412 588h109l403 -575l410 575h100l-420 -588h291v-75z" glyph-name="yen" horiz-adv-x="1124" unicode="¥"/><glyph d="M205 -268v684h92v-684h-92zM205 780v684h92v-684h-92z" glyph-name="brokenbar" horiz-adv-x="501" unicode="¦"/><glyph d="M429 1288q-99 0 -160.5 -56t-61.5 -151q0 -168 215 -250q301 -115 301 -309q0 -168 -182 -266q182 -92 182 -268q0 -135 -93 -211t-256 -76t-282 104l49 70q35 -35 103.5 -66.5t152.5 -31.5t158 56.5t74 144.5t-58.5 143t-185.5 102q-281 109 -281 307q0 86 48.5 160 t138.5 107q-174 102 -174 284q0 123 81 203t204 80t179 -30.5t101 -59.5l-39 -70q-115 84 -214 84zM197 539q0 -89 70.5 -150t164.5 -84q76 12 138.5 72.5t62.5 132.5t-61.5 138.5t-198.5 103.5q-70 -16 -123 -70t-53 -143z" glyph-name="section" horiz-adv-x="815" unicode="§"/><glyph d="M61 1062q0 40 23.5 64.5t63.5 24.5t65 -24.5t25 -64.5t-25 -63.5t-65 -23.5t-63.5 23.5t-23.5 63.5zM354 1061q0 39 24.5 64.5t63.5 25.5t64.5 -25.5t25.5 -64.5t-25.5 -62.5t-64.5 -23.5t-63.5 23.5t-24.5 62.5z" glyph-name="dieresis" horiz-adv-x="593" unicode="¨"/><glyph d="M836 1012q-129 0 -202 -89t-73 -206t76 -206t208 -89t222 84l47 -53q-100 -105 -272 -105t-273.5 110.5t-101.5 260.5t103.5 258t261.5 108t270 -90l-41 -65q-96 82 -225 82zM82 716.5q0 313.5 207 531.5t530.5 218t530 -218t206.5 -530t-206.5 -529.5t-530 -217.5 t-530.5 216t-207 529.5zM166 716.5q0 -278.5 185.5 -475t468 -196.5t469 197.5t186.5 475.5t-186.5 476.5t-469 198.5t-468 -199t-185.5 -477.5z" glyph-name="copyright" horiz-adv-x="1638" unicode="©"/><glyph d="M340 920q-96 0 -167 62t-71 152t68 154t186 64q62 0 102 -15.5t74 -33.5l35 -21v78q-2 72 -44 131t-129 59t-165 -43l-34 52q33 25 88 42t102 15q117 -4 186.5 -68.5t77.5 -195.5l-2 -414h-37l-37 92q-14 -37 -75.5 -73.5t-157.5 -36.5zM184 1136.5q0 -71.5 54 -115.5 t128 -44t130.5 47t70.5 100v86q-4 2 -23.5 16.5t-43 29t-59 25.5t-97.5 11t-111 -42t-49 -113.5z" glyph-name="ordfeminine" horiz-adv-x="772" unicode="ª"/><glyph d="M485 -37l-413 424v12l417 437l56 -54l-361 -385l361 -377zM823 -37l-413 424v12l417 437l56 -54l-361 -385l361 -377z" glyph-name="guillemotleft" horiz-adv-x="1015" unicode="«"/><glyph d="M737 469h-635v76h719v-207h-84v131z" glyph-name="logicalnot" horiz-adv-x="923" unicode="¬"/><glyph d="M1073 866q0 -131 -127 -202l187 -302h-105l-166 275q-74 -18 -166 -2v-273h-84v719q201 39 331 -22.5t130 -192.5zM985 865q0 83 -81 125t-208 24v-303q131 -23 210 24t79 130zM82 716.5q0 313.5 207 531.5t530.5 218t530 -218t206.5 -530t-206.5 -529.5t-530 -217.5 t-530.5 216t-207 529.5zM166 716.5q0 -278.5 185.5 -475t468 -196.5t469 197.5t186.5 475.5t-186.5 476.5t-469 198.5t-468 -199t-185.5 -477.5z" glyph-name="registered" horiz-adv-x="1638" unicode="®"/><glyph d="M473 1024h-412v76h412v-76z" glyph-name="macron" horiz-adv-x="534" unicode="¯"/><glyph d="M82 1185q0 122 82 201.5t198 79.5t197.5 -79.5t81.5 -201.5t-77 -200t-204 -78t-202.5 78t-75.5 200zM158 1186q0 -92 56 -153.5t147 -61.5t147.5 60.5t56.5 154.5t-55.5 153.5t-147.5 59.5t-148 -60.5t-56 -152.5z" glyph-name="degree" horiz-adv-x="722" unicode="°"/><glyph d="M416 834v233h84v-233h317v-74h-317v-238h-84v238h-314v74h314zM817 307h-715v76h715v-76z" glyph-name="plusminus" horiz-adv-x="919" unicode="±"/><glyph d="M324 1616q80 0 144 -57t64 -165t-106.5 -214.5t-198.5 -180.5h332v-59h-489l-9 18q233 186 293 250q100 106 100 188t-39 118t-95 37t-101 -24.5t-65 -64.5h-11l-49 29q27 55 88.5 90t141.5 35z" glyph-name="uni00B2" horiz-adv-x="641" unicode="²"/><glyph d="M117 1599h413l9 -18l-172 -242q80 -4 138 -56t58 -142t-63.5 -155.5t-190.5 -65.5q-74 0 -139.5 29.5t-87.5 58.5l37 47h18q72 -72 158 -72t139 43t53 117t-63.5 117t-163.5 20l-12 14l178 246h-309v59z" glyph-name="uni00B3" horiz-adv-x="665" unicode="³"/><glyph d="M313 1184v-21l-207 -221h-45l111 242h141z" glyph-name="acute" horiz-adv-x="374" unicode="´"/><glyph d="M491.5 -25q-90.5 0 -168 36t-106.5 102v-611l-76 -26h-8v1331h84v-467q0 -143 85.5 -216t191.5 -73t200 75t94 214v467h86v-807h-47l-39 137q-41 -74 -123.5 -118t-173 -44z" glyph-name="uni00B5" horiz-adv-x="1007" unicode="µ"/><glyph d="M702 -268v1628h-104l-2 -1628h-92v858q-182 29 -302 140.5t-120 292.5t132 297t333 116h377v-76h-127v-1628h-95z" glyph-name="paragraph" horiz-adv-x="1005" unicode="¶"/><glyph d="M113 497q0 46 28.5 75.5t73.5 29.5t76 -30.5t31 -75.5t-31 -74t-76 -29t-73.5 29t-28.5 75z" glyph-name="periodcentered" horiz-adv-x="434" unicode="·"/><glyph d="M387 -139q0 -129 -105.5 -184.5t-220.5 -8.5l9 70q70 -39 151.5 -4t81.5 127q0 51 -26.5 90t-65.5 49v10l53 19q41 -8 82 -52.5t41 -115.5z" glyph-name="cedilla" horiz-adv-x="448" unicode="¸"/><glyph d="M233 940v567l-106 -59l-35 55l197 115h18v-678h-74z" glyph-name="uni00B9" horiz-adv-x="471" unicode="¹"/><glyph d="M376 920q-130 0 -212 99t-82 248.5t82 250t213 100.5t212 -100.5t81 -248.5t-82 -248.5t-212 -100.5zM377 979q72 0 141.5 69.5t69.5 220.5t-69.5 221.5t-141.5 70.5q-106 0 -160.5 -93.5t-54.5 -198.5t55.5 -197.5t159.5 -92.5z" glyph-name="ordmasculine" horiz-adv-x="751" unicode="º"/><glyph d="M193 836l413 -424v-13l-418 -436l-55 53l361 385l-361 377zM530 836l414 -424v-13l-418 -436l-55 53l360 385l-360 377z" glyph-name="guillemotright" horiz-adv-x="1015" unicode="»"/><glyph d="M295 735v568l-107 -60l-34 55l196 115h19v-678h-74zM190 0l1102 1436l45 -35l-1095 -1432zM1321 172v-55h-78v-117h-72v117h-354l-18 20l426 541l18 -10l2 -496h76zM1171 172v340l-264 -340h264z" glyph-name="onequarter" horiz-adv-x="1470" unicode="¼"/><glyph d="M295 735v568l-107 -60l-34 55l196 115h19v-678h-74zM1152 676q81 0 144.5 -56.5t63.5 -164.5t-102.5 -211t-202.5 -185h331v-59h-489l-8 18q233 186 293 250q100 106 100 188t-40 118t-95 37t-100.5 -24.5t-65.5 -64.5h-10l-49 29q27 55 88 90t142 35zM172 0l1102 1436 l45 -35l-1096 -1432z" glyph-name="onehalf" horiz-adv-x="1519" unicode="½"/><glyph d="M299 0l1102 1436l45 -35l-1096 -1432zM1411 172v-55h-78v-117h-71v117h-355l-18 20l426 541l18 -10l2 -496h76zM1262 172v340l-265 -340h265zM168 1395h414l8 -19l-172 -241q80 -4 138 -56.5t58 -142.5t-63.5 -155.5t-190.5 -65.5q-74 0 -139 29.5t-88 58.5l37 47h18 q72 -72 158 -72t139.5 43t53.5 117t-63.5 117t-164.5 20l-12 15l178 245h-309v60z" glyph-name="threequarters" horiz-adv-x="1579" unicode="¾"/><glyph d="M307.5 -408q98.5 0 167 55.5t94.5 149.5l78 -26q-27 -104 -114 -180t-225 -76t-233 89t-95 238t86 231.5t170.5 168.5t80.5 280h62q26 -199 -53.5 -291t-164.5 -176t-85 -206t66.5 -189.5t165 -67.5zM446 794q0 -46 -28.5 -76t-73.5 -30t-75.5 31t-30.5 76t30.5 73.5 t75.5 28.5t73.5 -28.5t28.5 -74.5z" glyph-name="questiondown" horiz-adv-x="667" unicode="¿"/><glyph d="M119 0h-99l621 1458h29l612 -1458h-98l-176 414h-713zM653 1270l-325 -781h645zM430 1772h141l111 -242h-45l-207 221v21z" glyph-name="Agrave" horiz-adv-x="1302" unicode="À"/><glyph d="M119 0h-99l621 1458h29l612 -1458h-98l-176 414h-713zM653 1270l-325 -781h645zM877 1772v-21l-207 -221h-45l110 242h142z" glyph-name="Aacute" horiz-adv-x="1302" unicode="Á"/><glyph d="M119 0h-99l621 1458h29l612 -1458h-98l-176 414h-713zM653 1270l-325 -781h645zM705 1772l159 -242h-55l-158 139l-157 -139h-56l160 242h107z" glyph-name="Acircumflex" horiz-adv-x="1302" unicode="Â"/><glyph d="M119 0h-99l621 1458h29l612 -1458h-98l-176 414h-713zM653 1270l-325 -781h645zM549 1720q37 0 106.5 -28.5t96.5 -28.5q55 0 88 49l55 -26q-31 -123 -143 -123q-37 0 -107.5 28.5t-100.5 28.5t-47.5 -10t-35.5 -41l-55 28q31 123 143 123z" glyph-name="Atilde" horiz-adv-x="1302" unicode="Ã"/><glyph d="M119 0h-99l621 1458h29l612 -1458h-98l-176 414h-713zM653 1270l-325 -781h645zM416 1650q0 40 23.5 64.5t62.5 24.5t64.5 -25.5t25.5 -64.5t-24.5 -62.5t-64.5 -23.5t-63.5 23.5t-23.5 63.5zM709 1649q0 39 24.5 64.5t63.5 25.5t64.5 -25.5t25.5 -64.5t-25.5 -62.5 t-64.5 -23.5t-63.5 23.5t-24.5 62.5z" glyph-name="Adieresis" horiz-adv-x="1302" unicode="Ä"/><glyph d="M432 1580q0 85 63.5 148.5t158 63.5t157.5 -63.5t63 -148.5t-46 -144.5t-117 -77.5l571 -1358h-98l-176 414h-713l-176 -414h-99l578 1358q-74 16 -120 76.5t-46 145.5zM653 1270l-325 -781h645zM508 1572q0 -62 41 -106.5t104.5 -44.5t104.5 44.5t41 106.5t-41 105 t-104.5 43t-104.5 -43t-41 -105z" glyph-name="Aring" horiz-adv-x="1302" unicode="Å"/><glyph d="M1151 76h668v-76h-760v414h-645l-324 -414h-110l1136 1438h666v-76h-631v-479h508v-76h-508v-731zM1059 489v758l-588 -758h588z" glyph-name="AE" horiz-adv-x="1941" unicode="Æ"/><glyph d="M903 -139q0 -129 -105.5 -184.5t-219.5 -8.5l8 70q70 -39 151.5 -4t81.5 127q0 68 -45 112q-301 14 -496.5 228.5t-195.5 530.5t216 525t517 209t543 -194l-51 -70q-209 188 -479 188t-457 -194t-187 -476t188.5 -477.5t452.5 -195.5q133 0 267.5 50t230.5 134l53 -63 q-100 -86 -216 -137t-296 -58q39 -45 39 -112z" glyph-name="Ccedilla" horiz-adv-x="1458" unicode="Ç"/><glyph d="M276 76h668v-76h-760v1438h723v-76h-631v-490h508v-75h-508v-721zM389 1772h141l111 -242h-45l-207 221v21z" glyph-name="Egrave" unicode="È"/><glyph d="M276 76h668v-76h-760v1438h723v-76h-631v-490h508v-75h-508v-721zM680 1772v-21l-207 -221h-45l111 242h141z" glyph-name="Eacute" unicode="É"/><glyph d="M276 76h668v-76h-760v1438h723v-76h-631v-490h508v-75h-508v-721zM610 1772l160 -242h-55l-158 139l-158 -139h-55l160 242h106z" glyph-name="Ecircumflex" unicode="Ê"/><glyph d="M276 76h668v-76h-760v1438h723v-76h-631v-490h508v-75h-508v-721zM311 1650q0 40 23.5 64.5t63.5 24.5t64.5 -25.5t24.5 -64.5t-24.5 -62.5t-64.5 -23.5t-63.5 23.5t-23.5 63.5zM604 1649q0 39 24.5 64.5t63.5 25.5t64.5 -25.5t25.5 -64.5t-25.5 -62.5t-64.5 -23.5 t-63.5 23.5t-24.5 62.5z" glyph-name="Edieresis" unicode="Ë"/><glyph d="M184 0v1438h92v-1438h-92zM25 1772h141l110 -242h-45l-206 221v21z" glyph-name="Igrave" horiz-adv-x="460" unicode="Ì"/><glyph d="M184 0v1438h92v-1438h-92zM436 1772v-21l-207 -221h-45l111 242h141z" glyph-name="Iacute" horiz-adv-x="460" unicode="Í"/><glyph d="M184 0v1438h92v-1438h-92zM283 1772l159 -242h-55l-158 139l-157 -139h-56l160 242h107z" glyph-name="Icircumflex" horiz-adv-x="460" unicode="Î"/><glyph d="M184 0v1438h92v-1438h-92zM-6 1650q0 40 23.5 64.5t62.5 24.5t64.5 -25.5t25.5 -64.5t-24.5 -62.5t-64.5 -23.5t-63.5 23.5t-23.5 63.5zM287 1649q0 39 24.5 64.5t63.5 25.5t64.5 -25.5t25.5 -64.5t-25.5 -62.5t-64.5 -23.5t-63.5 23.5t-24.5 62.5z" glyph-name="Idieresis" horiz-adv-x="460" unicode="Ï"/><glyph d="M236 676h-216v76h216v686q325 54 574.5 -21t391 -257t141.5 -452q0 -160 -91.5 -342t-330.5 -301t-685 -65v676zM330 752h409v-76h-409v-604q391 -49 651 133t260 508q0 293 -161.5 441.5t-342 191.5t-407.5 12v-606z" glyph-name="Eth" horiz-adv-x="1425" unicode="Ð"/><glyph d="M1040 1438h88v-1438h-88v698l-768 586v-1284h-88v1444l15 14l841 -647v627zM565 1720q37 0 106.5 -28.5t96.5 -28.5q55 0 88 49l55 -26q-31 -123 -143 -123q-37 0 -106.5 28.5t-100.5 28.5t-48.5 -10t-35.5 -41l-55 28q31 123 143 123z" glyph-name="Ntilde" horiz-adv-x="1312" unicode="Ñ"/><glyph d="M82 718q0 320 211 534t525 214t527.5 -215t213.5 -534.5t-213.5 -532.5t-527.5 -213t-525 213.5t-211 533.5zM182 717q0 -287 184.5 -477.5t452.5 -190.5t453.5 190.5t185.5 477.5t-185.5 479.5t-453.5 192.5t-452.5 -192.5t-184.5 -479.5zM600 1772h141l111 -242h-45 l-207 221v21z" glyph-name="Ograve" horiz-adv-x="1640" unicode="Ò"/><glyph d="M82 718q0 320 211 534t525 214t527.5 -215t213.5 -534.5t-213.5 -532.5t-527.5 -213t-525 213.5t-211 533.5zM182 717q0 -287 184.5 -477.5t452.5 -190.5t453.5 190.5t185.5 477.5t-185.5 479.5t-453.5 192.5t-452.5 -192.5t-184.5 -479.5zM1061 1772v-21l-207 -221h-45 l111 242h141z" glyph-name="Oacute" horiz-adv-x="1640" unicode="Ó"/><glyph d="M82 718q0 320 211 534t525 214t527.5 -215t213.5 -534.5t-213.5 -532.5t-527.5 -213t-525 213.5t-211 533.5zM182 717q0 -287 184.5 -477.5t452.5 -190.5t453.5 190.5t185.5 477.5t-185.5 479.5t-453.5 192.5t-452.5 -192.5t-184.5 -479.5zM872 1772l160 -242h-55 l-158 139l-157 -139h-56l160 242h106z" glyph-name="Ocircumflex" horiz-adv-x="1640" unicode="Ô"/><glyph d="M82 718q0 320 211 534t525 214t527.5 -215t213.5 -534.5t-213.5 -532.5t-527.5 -213t-525 213.5t-211 533.5zM182 717q0 -287 184.5 -477.5t452.5 -190.5t453.5 190.5t185.5 477.5t-185.5 479.5t-453.5 192.5t-452.5 -192.5t-184.5 -479.5zM719 1720q37 0 106.5 -28.5 t96.5 -28.5q55 0 88 49l55 -26q-31 -123 -143 -123q-37 0 -107.5 28.5t-100.5 28.5t-47.5 -10t-35.5 -41l-56 28q31 123 144 123z" glyph-name="Otilde" horiz-adv-x="1640" unicode="Õ"/><glyph d="M82 718q0 320 211 534t525 214t527.5 -215t213.5 -534.5t-213.5 -532.5t-527.5 -213t-525 213.5t-211 533.5zM182 717q0 -287 184.5 -477.5t452.5 -190.5t453.5 190.5t185.5 477.5t-185.5 479.5t-453.5 192.5t-452.5 -192.5t-184.5 -479.5zM586 1650q0 40 23.5 64.5 t63.5 24.5t64.5 -25.5t24.5 -64.5t-24.5 -62.5t-64.5 -23.5t-63.5 23.5t-23.5 63.5zM879 1649q0 39 24.5 64.5t63.5 25.5t64.5 -25.5t25.5 -64.5t-25.5 -62.5t-64.5 -23.5t-63.5 23.5t-24.5 62.5z" glyph-name="Odieresis" horiz-adv-x="1640" unicode="Ö"/><glyph d="M391 694l-248 248l66 66l250 -248l250 248l51 -54l-248 -247l248 -248l-66 -68l-250 250l-245 -248l-54 51z" glyph-name="multiply" horiz-adv-x="903" unicode="×"/><glyph d="M82 717q0 322 211 535.5t526 213.5q180 0 344 -82l129 232l76 -35l-133 -238q150 -102 237 -266t87 -360q0 -319 -213 -532.5t-527 -213.5q-164 0 -309 64l-154 -279l-71 45l151 273q-164 96 -259 265t-95 378zM182 717q0 -184 79 -332.5t216 -237.5l645 1164 q-143 78 -303 78q-268 0 -452.5 -192.5t-184.5 -479.5zM1458 717q0 170 -71.5 314.5t-194.5 234.5l-641 -1160q125 -57 268 -57q268 0 453.5 190.5t185.5 477.5z" glyph-name="Oslash" horiz-adv-x="1640" unicode="Ø"/><glyph d="M184 492v946h95v-942q0 -186 102 -317.5t280.5 -131.5t282 131t103.5 318v942h94v-946q0 -294 -160 -407.5t-322 -113.5q-236 0 -355.5 155t-119.5 366zM465 1772h141l111 -242h-45l-207 221v21z" glyph-name="Ugrave" horiz-adv-x="1325" unicode="Ù"/><glyph d="M184 492v946h95v-942q0 -186 102 -317.5t280.5 -131.5t282 131t103.5 318v942h94v-946q0 -294 -160 -407.5t-322 -113.5q-236 0 -355.5 155t-119.5 366zM854 1772v-21l-207 -221h-45l111 242h141z" glyph-name="Uacute" horiz-adv-x="1325" unicode="Ú"/><glyph d="M184 492v946h95v-942q0 -186 102 -317.5t280.5 -131.5t282 131t103.5 318v942h94v-946q0 -294 -160 -407.5t-322 -113.5q-236 0 -355.5 155t-119.5 366zM715 1772l159 -242h-55l-157 139l-158 -139h-55l159 242h107z" glyph-name="Ucircumflex" horiz-adv-x="1325" unicode="Û"/><glyph d="M184 492v946h95v-942q0 -186 102 -317.5t280.5 -131.5t282 131t103.5 318v942h94v-946q0 -294 -160 -407.5t-322 -113.5q-236 0 -355.5 155t-119.5 366zM424 1650q0 40 23.5 64.5t62.5 24.5t64.5 -25.5t25.5 -64.5t-24.5 -62.5t-64.5 -23.5t-63.5 23.5t-23.5 63.5z M717 1649q0 39 24.5 64.5t63.5 25.5t64.5 -25.5t25.5 -64.5t-25.5 -62.5t-64.5 -23.5t-63.5 23.5t-24.5 62.5z" glyph-name="Udieresis" horiz-adv-x="1325" unicode="Ü"/><glyph d="M606 0h-94v754l-461 684h111l403 -598l410 598h100l-469 -684v-754zM750 1772v-21l-207 -221h-45l110 242h142z" glyph-name="Yacute" horiz-adv-x="1126" unicode="Ý"/><glyph d="M184 0v1438h95v-230q307 43 496.5 -91t189.5 -387t-191.5 -391t-492.5 -97v-242h-97zM870 730q0 206 -163.5 325.5t-425.5 74.5v-811q266 -43 427.5 81t161.5 330z" glyph-name="Thorn" horiz-adv-x="1046" unicode="Þ"/><glyph d="M776 390q0 183 -126 275.5t-294 49.5l-18 22l248 469q0 84 -54.5 133.5t-131.5 49.5t-130 -52.5t-53 -148.5v-1188h-84v1190q0 125 72.5 198.5t190.5 73.5t197 -71.5t79 -192.5l-215 -403q170 4 286.5 -110t116.5 -288q0 -233 -165 -345.5t-380 -59.5l17 71 q184 -49 314 47.5t130 279.5z" glyph-name="germandbls" horiz-adv-x="931" unicode="ß"/><glyph d="M399 -25q-158 0 -248 82t-90 192t91.5 192.5t248.5 82.5q86 0 180.5 -42t129.5 -85v70q-2 117 -62.5 202t-196.5 85t-243 -90l-47 51q35 47 121 81.5t163 32.5q328 -4 351 -358l-2 -471h-50l-26 139q-104 -164 -320 -164zM711 311v8q-123 135 -312 134 q-117 0 -184.5 -60.5t-67.5 -145.5t73.5 -145.5t191.5 -60.5t208.5 78.5t90.5 191.5zM276 1184h142l110 -242h-45l-207 221v21z" glyph-name="agrave" horiz-adv-x="899" unicode="à"/><glyph d="M399 -25q-158 0 -248 82t-90 192t91.5 192.5t248.5 82.5q86 0 180.5 -42t129.5 -85v70q-2 117 -62.5 202t-196.5 85t-243 -90l-47 51q35 47 121 81.5t163 32.5q328 -4 351 -358l-2 -471h-50l-26 139q-104 -164 -320 -164zM711 311v8q-123 135 -312 134 q-117 0 -184.5 -60.5t-67.5 -145.5t73.5 -145.5t191.5 -60.5t208.5 78.5t90.5 191.5zM625 1184v-21l-207 -221h-45l110 242h142z" glyph-name="aacute" horiz-adv-x="899" unicode="á"/><glyph d="M399 -25q-158 0 -248 82t-90 192t91.5 192.5t248.5 82.5q86 0 180.5 -42t129.5 -85v70q-2 117 -62.5 202t-196.5 85t-243 -90l-47 51q35 47 121 81.5t163 32.5q328 -4 351 -358l-2 -471h-50l-26 139q-104 -164 -320 -164zM711 311v8q-123 135 -312 134 q-117 0 -184.5 -60.5t-67.5 -145.5t73.5 -145.5t191.5 -60.5t208.5 78.5t90.5 191.5zM518 1184l160 -242h-55l-158 139l-158 -139h-55l160 242h106z" glyph-name="acircumflex" horiz-adv-x="899" unicode="â"/><glyph d="M399 -25q-158 0 -248 82t-90 192t91.5 192.5t248.5 82.5q86 0 180.5 -42t129.5 -85v70q-2 117 -62.5 202t-196.5 85t-243 -90l-47 51q35 47 121 81.5t163 32.5q328 -4 351 -358l-2 -471h-50l-26 139q-104 -164 -320 -164zM711 311v8q-123 135 -312 134 q-117 0 -184.5 -60.5t-67.5 -145.5t73.5 -145.5t191.5 -60.5t208.5 78.5t90.5 191.5zM354 1133q37 0 106.5 -29t96.5 -29q55 0 88 49l55 -26q-31 -123 -143 -123q-37 0 -106.5 28.5t-100.5 28.5t-48.5 -10t-35.5 -41l-55 29q31 123 143 123z" glyph-name="atilde" horiz-adv-x="899" unicode="ã"/><glyph d="M399 -25q-158 0 -248 82t-90 192t91.5 192.5t248.5 82.5q86 0 180.5 -42t129.5 -85v70q-2 117 -62.5 202t-196.5 85t-243 -90l-47 51q35 47 121 81.5t163 32.5q328 -4 351 -358l-2 -471h-50l-26 139q-104 -164 -320 -164zM711 311v8q-123 135 -312 134 q-117 0 -184.5 -60.5t-67.5 -145.5t73.5 -145.5t191.5 -60.5t208.5 78.5t90.5 191.5zM219 1062q0 40 23.5 64.5t62.5 24.5t64.5 -24.5t25.5 -64.5t-24.5 -63.5t-64.5 -23.5t-63.5 23.5t-23.5 63.5zM512 1061q0 39 24.5 64.5t63.5 25.5t64.5 -25.5t25.5 -64.5t-25.5 -62.5 t-64.5 -23.5t-63.5 23.5t-24.5 62.5z" glyph-name="adieresis" horiz-adv-x="899" unicode="ä"/><glyph d="M231 981q0 96 63.5 159.5t158 63.5t158 -64t63.5 -168t-92 -169q197 -80 215 -352l-2 -451h-50l-26 139q-98 -164 -340 -164q-150 0 -228.5 74.5t-78.5 176.5t84 172.5t238 70.5t317 -72v49q-2 115 -75 213.5t-215 98.5t-253 -64l-31 72q61 37 162 55q-68 64 -68 160z M711 311v8q-158 76 -320 74q-115 0 -174 -48t-59 -126t69 -128t181 -50t207.5 79.5t95.5 190.5zM307 984q0 -62 41 -106t104.5 -44t104.5 44t41 106t-41 105.5t-104.5 43.5t-104.5 -43.5t-41 -105.5z" glyph-name="aring" horiz-adv-x="899" unicode="å"/><glyph d="M1170 45q154 0 286 82l39 -61q-123 -90 -328 -91q-135 0 -240.5 58.5t-160.5 159.5v2q-104 -219 -367 -220q-158 0 -248 82t-90 192t91.5 192.5t248.5 82.5q86 0 180.5 -42t129.5 -85v70q-2 74 -22.5 134.5t-83 108.5t-176.5 48t-220 -90l-47 51q35 47 121 82t163 33 q242 -4 320 -209q49 98 141 152t207 54q152 0 260.5 -102.5t114.5 -290.5h-688q-8 -180 103.5 -286.5t265.5 -106.5zM711 311v8q-123 135 -312 134q-117 0 -184.5 -60.5t-67.5 -145.5t73.5 -145.5t191.5 -60.5t208.5 78.5t90.5 191.5zM1108 762q-117 0 -199 -82t-92 -168 h574q-10 111 -88 180.5t-195 69.5z" glyph-name="ae" horiz-adv-x="1566" unicode="æ"/><glyph d="M506 41q80 0 161 37t126 82l55 -56q-106 -106 -270 -127q41 -51 40 -116q0 -129 -105 -184.5t-222 -8.5l10 70q72 -39 153 -4t81 127q0 66 -46 110q-186 6 -301.5 125.5t-115.5 309.5t114.5 310t309 120t325.5 -142l-57 -63q-115 135 -267 135t-246.5 -105.5 t-94.5 -256.5t98 -257t252 -106z" glyph-name="ccedilla" horiz-adv-x="899" unicode="ç"/><glyph d="M526 45q154 0 287 82l39 -61q-123 -90 -325 -90t-328.5 120t-126.5 310t114.5 307.5t275.5 117.5t269.5 -102.5t114.5 -290.5h-688q-8 -180 103 -286.5t265 -106.5zM465 762q-117 0 -199 -82t-92 -168h574q-10 111 -88 180.5t-195 69.5zM299 1184h141l111 -242h-45 l-207 221v21z" glyph-name="egrave" horiz-adv-x="923" unicode="è"/><glyph d="M526 45q154 0 287 82l39 -61q-123 -90 -325 -90t-328.5 120t-126.5 310t114.5 307.5t275.5 117.5t269.5 -102.5t114.5 -290.5h-688q-8 -180 103 -286.5t265 -106.5zM465 762q-117 0 -199 -82t-92 -168h574q-10 111 -88 180.5t-195 69.5zM627 1184v-21l-207 -221h-45 l110 242h142z" glyph-name="eacute" horiz-adv-x="923" unicode="é"/><glyph d="M526 45q154 0 287 82l39 -61q-123 -90 -325 -90t-328.5 120t-126.5 310t114.5 307.5t275.5 117.5t269.5 -102.5t114.5 -290.5h-688q-8 -180 103 -286.5t265 -106.5zM465 762q-117 0 -199 -82t-92 -168h574q-10 111 -88 180.5t-195 69.5zM522 1184l160 -242h-55l-158 139 l-158 -139h-55l160 242h106z" glyph-name="ecircumflex" horiz-adv-x="923" unicode="ê"/><glyph d="M526 45q154 0 287 82l39 -61q-123 -90 -325 -90t-328.5 120t-126.5 310t114.5 307.5t275.5 117.5t269.5 -102.5t114.5 -290.5h-688q-8 -180 103 -286.5t265 -106.5zM465 762q-117 0 -199 -82t-92 -168h574q-10 111 -88 180.5t-195 69.5zM244 1062q0 40 23.5 64.5 t62.5 24.5t64.5 -24.5t25.5 -64.5t-24.5 -63.5t-64.5 -23.5t-63.5 23.5t-23.5 63.5zM537 1061q0 39 24.5 64.5t63.5 25.5t64.5 -25.5t25.5 -64.5t-25.5 -62.5t-64.5 -23.5t-63.5 23.5t-24.5 62.5z" glyph-name="edieresis" horiz-adv-x="923" unicode="ë"/><glyph d="M168 0v807h84v-807h-84zM0 1184h141l111 -242h-45l-207 221v21z" glyph-name="igrave" horiz-adv-x="419" unicode="ì"/><glyph d="M168 0v807h84v-807h-84zM420 1184v-21l-207 -221h-45l111 242h141z" glyph-name="iacute" horiz-adv-x="419" unicode="í"/><glyph d="M168 0v807h84v-807h-84zM264 1184l160 -242h-55l-158 139l-158 -139h-55l160 242h106z" glyph-name="icircumflex" horiz-adv-x="419" unicode="î"/><glyph d="M168 0v807h84v-807h-84zM-27 1062q0 40 23.5 64.5t62.5 24.5t65 -24.5t26 -64.5t-25 -63.5t-65 -23.5t-63.5 23.5t-23.5 63.5zM266 1061q0 39 24.5 64.5t63.5 25.5t64.5 -25.5t25.5 -64.5t-25.5 -62.5t-64.5 -23.5t-63.5 23.5t-24.5 62.5z" glyph-name="idieresis" horiz-adv-x="419" unicode="ï"/><glyph d="M502 -25q-180 0 -305 118t-125 306t116.5 310t300.5 122q106 0 212 -52t155 -161q-56 375 -283 588l-120 -157l-60 45l123 161q-145 113 -328 142l-14 14l21 55q197 -27 366 -151l117 151l59 -47l-116 -153q317 -289 317 -828q-2 -211 -129 -337t-307 -126zM499 47 q140 0 241.5 101.5t101.5 249.5t-98 256t-252 108t-245 -104t-91 -256t101.5 -253.5t241.5 -101.5z" glyph-name="eth" horiz-adv-x="1009" unicode="ð"/><glyph d="M514 831q158 0 259 -101t101 -263v-467h-86v467q0 143 -85 217t-190 74t-200.5 -76t-95.5 -215v-467h-84v807h47l37 -135q47 72 129 115.5t168 43.5zM408 1133q37 0 106.5 -29t95.5 -29q55 0 88 49l56 -26q-31 -123 -144 -123q-37 0 -106.5 28.5t-99.5 28.5t-48.5 -10 t-36.5 -41l-55 29q31 123 144 123z" glyph-name="ntilde" horiz-adv-x="976" unicode="ñ"/><glyph d="M494 -25q-174 0 -298 117t-124 313.5t125 311t299 114.5t298 -114.5t124 -311t-125 -313.5t-299 -117zM497 45q142 0 238 103.5t96 258.5t-98 255t-242 100t-239.5 -101t-95.5 -255t99.5 -257.5t241.5 -103.5zM295 1184h141l111 -242h-45l-207 221v21z" glyph-name="ograve" horiz-adv-x="989" unicode="ò"/><glyph d="M494 -25q-174 0 -298 117t-124 313.5t125 311t299 114.5t298 -114.5t124 -311t-125 -313.5t-299 -117zM497 45q142 0 238 103.5t96 258.5t-98 255t-242 100t-239.5 -101t-95.5 -255t99.5 -257.5t241.5 -103.5zM684 1184v-21l-207 -221h-45l111 242h141z" glyph-name="oacute" horiz-adv-x="989" unicode="ó"/><glyph d="M494 -25q-174 0 -298 117t-124 313.5t125 311t299 114.5t298 -114.5t124 -311t-125 -313.5t-299 -117zM497 45q142 0 238 103.5t96 258.5t-98 255t-242 100t-239.5 -101t-95.5 -255t99.5 -257.5t241.5 -103.5zM547 1184l160 -242h-56l-157 139l-158 -139h-55l159 242h107 z" glyph-name="ocircumflex" horiz-adv-x="989" unicode="ô"/><glyph d="M494 -25q-174 0 -298 117t-124 313.5t125 311t299 114.5t298 -114.5t124 -311t-125 -313.5t-299 -117zM497 45q142 0 238 103.5t96 258.5t-98 255t-242 100t-239.5 -101t-95.5 -255t99.5 -257.5t241.5 -103.5zM391 1133q37 0 106.5 -29t96.5 -29q55 0 88 49l55 -26 q-31 -123 -143 -123q-37 0 -106.5 28.5t-100.5 28.5t-48.5 -10t-35.5 -41l-55 29q31 123 143 123z" glyph-name="otilde" horiz-adv-x="989" unicode="õ"/><glyph d="M494 -25q-174 0 -298 117t-124 313.5t125 311t299 114.5t298 -114.5t124 -311t-125 -313.5t-299 -117zM497 45q142 0 238 103.5t96 258.5t-98 255t-242 100t-239.5 -101t-95.5 -255t99.5 -257.5t241.5 -103.5zM260 1062q0 40 23.5 64.5t62.5 24.5t64.5 -24.5t25.5 -64.5 t-24.5 -63.5t-64.5 -23.5t-63.5 23.5t-23.5 63.5zM553 1061q0 39 24.5 64.5t63.5 25.5t64.5 -25.5t25.5 -64.5t-25.5 -62.5t-64.5 -23.5t-63.5 23.5t-24.5 62.5z" glyph-name="odieresis" horiz-adv-x="989" unicode="ö"/><glyph d="M352 400q0 48 30 79t77 31t78.5 -31t31.5 -79t-31.5 -77.5t-78.5 -29.5t-77 29.5t-30 77.5zM352 1009q0 48 30 78.5t77 30.5t78.5 -30.5t31.5 -78.5t-31.5 -78t-78.5 -30t-77 30t-30 78zM102 657v76h719v-76h-719z" glyph-name="divide" horiz-adv-x="923" unicode="÷"/><glyph d="M492 -25q-90 0 -173 35l-118 -213l-72 45l117 207q-174 121 -174 357q0 197 125 311t299 114q90 0 172 -34l100 180l76 -37l-103 -182q176 -121 177 -352q0 -197 -125 -314t-301 -117zM156 395q0 -167 129 -276l346 612q-63 31 -139 31q-145 0 -240.5 -100t-95.5 -267z M496 45q143 0 239 103.5t96 269.5t-129 270l-346 -612q66 -31 140 -31z" glyph-name="oslash" horiz-adv-x="989" unicode="ø"/><glyph d="M483 -25q-158 0 -259 101.5t-101 263.5v467h86v-467q0 -143 85 -217t190 -74t200.5 76t95.5 215v467h84v-807h-47l-37 135q-47 -72 -129 -116t-168 -44zM305 1184h141l111 -242h-45l-207 221v21z" glyph-name="ugrave" horiz-adv-x="997" unicode="ù"/><glyph d="M483 -25q-158 0 -259 101.5t-101 263.5v467h86v-467q0 -143 85 -217t190 -74t200.5 76t95.5 215v467h84v-807h-47l-37 135q-47 -72 -129 -116t-168 -44zM694 1184v-21l-207 -221h-45l111 242h141z" glyph-name="uacute" horiz-adv-x="997" unicode="ú"/><glyph d="M483 -25q-158 0 -259 101.5t-101 263.5v467h86v-467q0 -143 85 -217t190 -74t200.5 76t95.5 215v467h84v-807h-47l-37 135q-47 -72 -129 -116t-168 -44zM549 1184l160 -242h-56l-157 139l-158 -139h-55l159 242h107z" glyph-name="ucircumflex" horiz-adv-x="997" unicode="û"/><glyph d="M483 -25q-158 0 -259 101.5t-101 263.5v467h86v-467q0 -143 85 -217t190 -74t200.5 76t95.5 215v467h84v-807h-47l-37 135q-47 -72 -129 -116t-168 -44zM250 1062q0 40 23.5 64.5t63.5 24.5t64.5 -24.5t24.5 -64.5t-24.5 -63.5t-64.5 -23.5t-63.5 23.5t-23.5 63.5z M543 1061q0 39 24.5 64.5t63.5 25.5t64.5 -25.5t25.5 -64.5t-25.5 -62.5t-64.5 -23.5t-63.5 23.5t-24.5 62.5z" glyph-name="udieresis" horiz-adv-x="997" unicode="ü"/><glyph d="M657 1184v-21l-206 -221h-45l110 242h141zM760 807h90l-639 -1327h-84l-12 20l280 551l-344 756h94l304 -657z" glyph-name="yacute" horiz-adv-x="901" unicode="ý"/><glyph d="M557 -25q-104 0 -199.5 52.5t-140.5 136.5v-662l-76 -26h-8v1962l76 24h8v-817q43 84 139.5 135t202.5 51q182 0 301 -119.5t119 -308t-120 -308.5t-302 -120zM560 45q148 0 241.5 104.5t93.5 254.5t-96.5 254t-242.5 104t-240.5 -94.5t-98.5 -239.5v-33 q0 -147 97.5 -248.5t245.5 -101.5z" glyph-name="thorn" horiz-adv-x="1050" unicode="þ"/><glyph d="M760 807h90l-639 -1327h-84l-12 20l280 551l-344 756h94l304 -657zM215 1062q0 40 23.5 64.5t62.5 24.5t64.5 -24.5t25.5 -64.5t-24.5 -63.5t-64.5 -23.5t-63.5 23.5t-23.5 63.5zM508 1061q0 39 24.5 64.5t63.5 25.5t64.5 -25.5t25.5 -64.5t-25.5 -62.5t-64.5 -23.5 t-63.5 23.5t-24.5 62.5z" glyph-name="ydieresis" horiz-adv-x="901" unicode="ÿ"/><glyph d="M119 0h-99l621 1458h29l612 -1458h-98l-176 414h-713zM653 1270l-325 -781h645zM864 1612h-411v76h411v-76z" glyph-name="Amacron" horiz-adv-x="1302" unicode="Ā"/><glyph d="M399 -25q-158 0 -248 82t-90 192t91.5 192.5t248.5 82.5q86 0 180.5 -42t129.5 -85v70q-2 117 -62.5 202t-196.5 85t-243 -90l-47 51q35 47 121 81.5t163 32.5q328 -4 351 -358l-2 -471h-50l-26 139q-104 -164 -320 -164zM711 311v8q-123 135 -312 134 q-117 0 -184.5 -60.5t-67.5 -145.5t73.5 -145.5t191.5 -60.5t208.5 78.5t90.5 191.5zM676 1024h-412v76h412v-76z" glyph-name="amacron" horiz-adv-x="899" unicode="ā"/><glyph d="M119 0h-99l621 1458h29l612 -1458h-98l-176 414h-713zM653 1270l-325 -781h645zM650 1530q-103 0 -151 76.5t-28 165.5h78q-12 -49 13.5 -109.5t89 -60.5t88 60t14.5 110h77q18 -88 -30 -165t-151 -77z" glyph-name="Abreve" horiz-adv-x="1302" unicode="Ă"/><glyph d="M399 -25q-158 0 -248 82t-90 192t91.5 192.5t248.5 82.5q86 0 180.5 -42t129.5 -85v70q-2 117 -62.5 202t-196.5 85t-243 -90l-47 51q35 47 121 81.5t163 32.5q328 -4 351 -358l-2 -471h-50l-26 139q-104 -164 -320 -164zM711 311v8q-123 135 -312 134 q-117 0 -184.5 -60.5t-67.5 -145.5t73.5 -145.5t191.5 -60.5t208.5 78.5t90.5 191.5zM470 942q-103 0 -151.5 77t-27.5 165h78q-12 -49 13.5 -109.5t89 -60.5t88 60.5t13.5 109.5h78q18 -88 -30 -165t-151 -77z" glyph-name="abreve" horiz-adv-x="899" unicode="ă"/><glyph d="M1153 -139q0 -92 81 -127t152 4l9 -70q-115 -47 -220.5 8.5t-105.5 184.5q0 63 33 105t72 57l-166 391h-713l-176 -414h-99l621 1458h29l612 -1458h-37q-39 -10 -65.5 -49t-26.5 -90zM653 1270l-325 -781h645z" glyph-name="Aogonek" horiz-adv-x="1302" unicode="Ą"/><glyph d="M702 -139q0 -92 81 -127t153 4l8 -70q-115 -47 -220.5 8.5t-105.5 184.5q0 72 40 114.5t81 53.5l-20 110q-104 -164 -320 -164q-158 0 -248 82t-90 192t91.5 192.5t248.5 82.5q86 0 180.5 -42t129.5 -85v70q-2 74 -22.5 134.5t-83 108.5t-176.5 48t-220 -90l-47 51 q35 47 121 82t163 33q150 -2 244.5 -89.5t106.5 -273.5l-2 -471q-39 -10 -66 -49t-27 -90zM711 311v8q-123 135 -312 134q-117 0 -184.5 -60.5t-67.5 -145.5t73.5 -145.5t191.5 -60.5t208.5 78.5t90.5 191.5z" glyph-name="aogonek" horiz-adv-x="899" unicode="ą"/><glyph d="M815 -29q-315 0 -524 217.5t-209 537.5t216 530t527 210q174 0 298 -54t235 -144l-51 -66q-207 186 -477 186t-458 -193.5t-188 -473.5t188.5 -476t452.5 -196q133 0 267.5 50t230.5 132l53 -63q-109 -92 -234.5 -144.5t-326.5 -52.5zM1061 1772v-21l-207 -221h-45 l111 242h141z" glyph-name="Cacute" horiz-adv-x="1458" unicode="Ć"/><glyph d="M506 45q82 0 165 36t126 81l51 -56q-128 -131 -332 -131t-324 118.5t-120 310.5t114.5 309.5t309 117.5t325.5 -141l-59 -59q-111 131 -264 131t-247.5 -103.5t-94.5 -254.5t97 -255t253 -104zM698 1184v-21l-206 -221h-46l111 242h141z" glyph-name="cacute" horiz-adv-x="899" unicode="ć"/><glyph d="M815 -29q-315 0 -524 217.5t-209 537.5t216 530t527 210q174 0 298 -54t235 -144l-51 -66q-207 186 -477 186t-458 -193.5t-188 -473.5t188.5 -476t452.5 -196q133 0 267.5 50.5t230.5 131.5l53 -63q-109 -92 -234.5 -144.5t-326.5 -52.5zM885 1772l159 -242h-55 l-158 139l-157 -139h-56l160 242h107z" glyph-name="Ccircumflex" horiz-adv-x="1458" unicode="Ĉ"/><glyph d="M506 45q82 0 165 36t126 81l51 -56q-128 -131 -332 -131t-324 118.5t-120 310.5t114.5 309.5t309 117.5t325.5 -141l-59 -59q-111 131 -264 131t-247.5 -103.5t-94.5 -254.5t97 -255t253 -104zM543 1184l159 -242h-55l-158 139l-157 -139h-56l160 242h107z" glyph-name="ccircumflex" horiz-adv-x="899" unicode="ĉ"/><glyph d="M815 -29q-315 0 -524 217.5t-209 537.5t216 530t527 210q174 0 298 -54t235 -144l-51 -66q-207 186 -477 186t-458 -193.5t-188 -473.5t188.5 -476t452.5 -196q133 0 267.5 50.5t230.5 131.5l53 -63q-109 -92 -234.5 -144.5t-326.5 -52.5zM743 1650q0 40 24 64.5 t62.5 24.5t64.5 -25.5t26 -64.5t-25 -62.5t-65 -23.5t-63.5 23.5t-23.5 63.5z" glyph-name="Cdotaccent" horiz-adv-x="1458" unicode="Ċ"/><glyph d="M506 45q82 0 165 36t126 81l51 -56q-128 -131 -332 -131t-324 118.5t-120 310.5t114.5 309.5t309 117.5t325.5 -141l-59 -59q-111 131 -264 131t-247.5 -103.5t-94.5 -254.5t97 -255t253 -104zM401 1062q0 40 23.5 64.5t63.5 24.5t65 -24.5t25 -64.5t-25 -63.5t-65 -23.5 t-63.5 23.5t-23.5 63.5z" glyph-name="cdotaccent" horiz-adv-x="899" unicode="ċ"/><glyph d="M815 -29q-315 0 -524 217.5t-209 537.5t216 530t527 210q174 0 298 -54t235 -144l-51 -66q-207 186 -477 186t-458 -193.5t-188 -473.5t188.5 -476t452.5 -196q133 0 267.5 50t230.5 132l53 -63q-109 -92 -234.5 -144.5t-326.5 -52.5zM629 1772h49l153 -146l154 146h49 v-21l-149 -221h-107l-149 221v21z" glyph-name="Ccaron" horiz-adv-x="1458" unicode="Č"/><glyph d="M506 45q82 0 165 36t126 81l51 -56q-128 -131 -332 -131t-324 118.5t-120 310.5t114.5 309.5t309 117.5t325.5 -141l-59 -59q-111 131 -264 131t-247.5 -103.5t-94.5 -254.5t97 -255t253 -104zM287 1184h49l153 -146l154 146h49v-21l-149 -221h-107l-149 221v21z" glyph-name="ccaron" horiz-adv-x="899" unicode="č"/><glyph d="M1292 708q0 -157 -91.5 -340.5t-331 -302.5t-685.5 -65v1438q325 55 575 -20.5t391.5 -258t141.5 -451.5zM1190 713q0 292 -162 442t-342 193t-407 12v-1290q391 -49 651 134t260 509zM299 1772h49l154 -146l153 146h50v-21l-150 -221h-106l-150 221v21z" glyph-name="Dcaron" horiz-adv-x="1374" unicode="Ď"/><glyph d="M496 -25q-182 0 -303 120t-121 308.5t119.5 308t300.5 119.5q106 0 201 -51t138 -135v793l78 24h9v-1462h-48l-39 164q-43 -84 -137 -136.5t-198 -52.5zM491.5 45q147.5 0 243.5 100.5t96 249.5v33q-4 145 -96 239.5t-238 94.5t-243.5 -104.5t-97.5 -254t94 -254 t241.5 -104.5zM1163 967l74 475h160l4 -21l-195 -465z" glyph-name="dcaron" horiz-adv-x="1492" unicode="ď"/><glyph d="M236 676h-216v76h216v686q325 54 574.5 -21t391 -257t141.5 -452q0 -160 -91.5 -342t-330.5 -301t-685 -65v676zM330 752h409v-76h-409v-604q391 -49 651 133t260 508q0 293 -161.5 441.5t-342 191.5t-407.5 12v-606z" glyph-name="Dcroat" horiz-adv-x="1425" unicode="Đ"/><glyph d="M831 1024h-292v76h292v338l78 24h9v-362h94v-76h-94v-1024h-48l-39 164q-43 -84 -137 -136.5t-198 -52.5q-182 0 -303 120t-121 308.5t119.5 308t300.5 119.5q106 0 201 -51t138 -135v379zM491.5 45q147.5 0 243.5 100.5t96 249.5v33q-4 145 -96 239.5t-238 94.5 t-243.5 -104.5t-97.5 -254t94 -254t241.5 -104.5z" glyph-name="dcroat" horiz-adv-x="1050" unicode="đ"/><glyph d="M276 76h668v-76h-760v1438h723v-76h-631v-490h508v-75h-508v-721zM739 1612h-411v76h411v-76z" glyph-name="Emacron" unicode="Ē"/><glyph d="M526 45q154 0 287 82l39 -61q-123 -90 -325 -90t-328.5 120t-126.5 310t114.5 307.5t275.5 117.5t269.5 -102.5t114.5 -290.5h-688q-8 -180 103 -286.5t265 -106.5zM465 762q-117 0 -199 -82t-92 -168h574q-10 111 -88 180.5t-195 69.5zM678 1024h-412v76h412v-76z" glyph-name="emacron" horiz-adv-x="923" unicode="ē"/><glyph d="M276 76h668v-76h-760v1438h723v-76h-631v-490h508v-75h-508v-721zM534 1530q-103 0 -151.5 76.5t-28.5 165.5h78q-12 -49 13.5 -109.5t89 -60.5t88 60t14.5 110h78q18 -88 -30 -165t-151 -77z" glyph-name="Ebreve" unicode="Ĕ"/><glyph d="M526 45q154 0 287 82l39 -61q-123 -90 -325 -90t-328.5 120t-126.5 310t114.5 307.5t275.5 117.5t269.5 -102.5t114.5 -290.5h-688q-8 -180 103 -286.5t265 -106.5zM465 762q-117 0 -199 -82t-92 -168h574q-10 111 -88 180.5t-195 69.5zM462 942q-103 0 -151.5 77 t-27.5 165h77q-12 -49 13.5 -109.5t89 -60.5t88 60.5t14.5 109.5h78q18 -88 -30 -165t-151 -77z" glyph-name="ebreve" horiz-adv-x="923" unicode="ĕ"/><glyph d="M276 76h668v-76h-760v1438h723v-76h-631v-490h508v-75h-508v-721zM444 1650q0 40 24 64.5t62.5 24.5t64.5 -25.5t26 -64.5t-25 -62.5t-65 -23.5t-63.5 23.5t-23.5 63.5z" glyph-name="Edotaccent" unicode="Ė"/><glyph d="M526 45q154 0 287 82l39 -61q-123 -90 -325 -90t-328.5 120t-126.5 310t114.5 307.5t275.5 117.5t269.5 -102.5t114.5 -290.5h-688q-8 -180 103 -286.5t265 -106.5zM465 762q-117 0 -199 -82t-92 -168h574q-10 111 -88 180.5t-195 69.5zM373 1062q0 40 23.5 64.5 t63.5 24.5t64.5 -24.5t24.5 -64.5t-24.5 -63.5t-64.5 -23.5t-63.5 23.5t-23.5 63.5z" glyph-name="edotaccent" horiz-adv-x="923" unicode="ė"/><glyph d="M276 76h668v-76h-334q-39 -10 -65.5 -49t-26.5 -90q0 -92 81 -127t153 4l8 -70q-115 -47 -220.5 8.5t-105.5 184.5q0 90 66 139h-316v1438h723v-76h-631v-490h508v-75h-508v-721z" glyph-name="Eogonek" unicode="Ę"/><glyph d="M526 45q154 0 287 82l39 -61q-68 -51 -154 -72q-76 -39 -76 -132t82 -128t152 4l8 -70q-115 -47 -220 8.5t-105 184.5q0 66 41 116q-209 -23 -358.5 100t-149.5 321t114.5 315.5t275.5 117.5t269.5 -102.5t114.5 -290.5h-688q-8 -180 103 -286.5t265 -106.5zM465 762 q-117 0 -199 -82t-92 -168h574q-10 111 -88 180.5t-195 69.5z" glyph-name="eogonek" horiz-adv-x="923" unicode="ę"/><glyph d="M276 76h668v-76h-760v1438h723v-76h-631v-490h508v-75h-508v-721zM330 1772h49l153 -146l154 146h49v-21l-149 -221h-107l-149 221v21z" glyph-name="Ecaron" unicode="Ě"/><glyph d="M526 45q154 0 287 82l39 -61q-123 -90 -325 -90t-328.5 120t-126.5 310t114.5 307.5t275.5 117.5t269.5 -102.5t114.5 -290.5h-688q-8 -180 103 -286.5t265 -106.5zM465 762q-117 0 -199 -82t-92 -168h574q-10 111 -88 180.5t-195 69.5zM258 1184h49l154 -146l153 146h50 v-21l-150 -221h-106l-150 221v21z" glyph-name="ecaron" horiz-adv-x="923" unicode="ě"/><glyph d="M1026 582h342v-426q-220 -184 -540 -184t-533 218t-213 531t217 529t522 216t537 -198l-58 -66q-219 186 -480 186t-446.5 -193t-185.5 -477t186.5 -476.5t469.5 -192.5q123 0 239.5 41t190.5 105v313h-248v74zM881 1772l159 -242h-55l-158 139l-157 -139h-56l160 242 h107z" glyph-name="Gcircumflex" horiz-adv-x="1490" unicode="Ĝ"/><glyph d="M450 -541q-96 0 -189 26t-161.5 93.5t-68.5 167.5q0 203 241 266q-43 8 -73.5 51t-30.5 97t40 100.5t95 48.5q-74 39 -112.5 104.5t-38.5 139.5q0 113 79 195.5t215 82.5t209 -67l195 43h18v-96h-170q50 -69 50 -171t-83 -180.5t-214 -78.5q-197 0 -197 -121t202 -121 t327.5 -70.5t125.5 -222.5q0 -78 -40 -135t-107.5 -89t-141.5 -47.5t-170 -15.5zM469 -471q139 0 246.5 54.5t107.5 163t-101 165.5t-259 57t-251 -56t-93 -166t105.5 -164t244.5 -54zM452 348q103 0 158.5 63.5t55.5 142.5t-55.5 143.5t-160.5 64.5t-159.5 -64.5 t-54.5 -143.5t56.5 -142.5t159.5 -63.5zM512 1184l160 -242h-56l-157 139l-158 -139h-55l160 242h106z" glyph-name="gcircumflex" horiz-adv-x="960" unicode="ĝ"/><glyph d="M1026 582h342v-426q-220 -184 -540 -184t-533 218t-213 531t217 529t522 216t537 -198l-58 -66q-219 186 -480 186t-446.5 -193t-185.5 -477t186.5 -476.5t469.5 -192.5q123 0 239.5 41t190.5 105v313h-248v74zM826 1530q-103 0 -151 76.5t-28 165.5h78 q-12 -49 13.5 -109.5t89 -60.5t88 60t14.5 110h78q18 -88 -30.5 -165t-151.5 -77z" glyph-name="Gbreve" horiz-adv-x="1490" unicode="Ğ"/><glyph d="M450 -541q-96 0 -189 26t-161.5 93.5t-68.5 167.5q0 203 241 266q-43 8 -73.5 51t-30.5 97t40 100.5t95 48.5q-74 39 -112.5 104.5t-38.5 139.5q0 113 79 195.5t215 82.5t209 -67l195 43h18v-96h-170q50 -69 50 -171t-83 -180.5t-214 -78.5q-197 0 -197 -121t202 -121 t327.5 -70.5t125.5 -222.5q0 -78 -40 -135t-107.5 -89t-141.5 -47.5t-170 -15.5zM469 -471q139 0 246.5 54.5t107.5 163t-101 165.5t-259 57t-251 -56t-93 -166t105.5 -164t244.5 -54zM452 348q103 0 158.5 63.5t55.5 142.5t-55.5 143.5t-160.5 64.5t-159.5 -64.5 t-54.5 -143.5t56.5 -142.5t159.5 -63.5zM460 942q-103 0 -151.5 77t-27.5 165h77q-12 -49 13.5 -109.5t89 -60.5t88 60.5t14.5 109.5h78q18 -88 -30 -165t-151 -77z" glyph-name="gbreve" horiz-adv-x="960" unicode="ğ"/><glyph d="M1026 582h342v-426q-220 -184 -540 -184t-533 218t-213 531t217 529t522 216t537 -198l-58 -66q-219 186 -480 186t-446.5 -193t-185.5 -477t186.5 -476.5t469.5 -192.5q123 0 239.5 41t190.5 105v313h-248v74zM739 1650q0 40 23.5 64.5t62.5 24.5t64.5 -25.5t25.5 -64.5 t-24.5 -62.5t-64.5 -23.5t-63.5 23.5t-23.5 63.5z" glyph-name="Gdotaccent" horiz-adv-x="1490" unicode="Ġ"/><glyph d="M450 -541q-96 0 -189 26t-161.5 93.5t-68.5 167.5q0 203 241 266q-43 8 -73.5 51t-30.5 97t40 100.5t95 48.5q-74 39 -112.5 104.5t-38.5 139.5q0 113 79 195.5t215 82.5t209 -67l195 43h18v-96h-170q50 -69 50 -171t-83 -180.5t-214 -78.5q-197 0 -197 -121t202 -121 t327.5 -70.5t125.5 -222.5q0 -78 -40 -135t-107.5 -89t-141.5 -47.5t-170 -15.5zM469 -471q139 0 246.5 54.5t107.5 163t-101 165.5t-259 57t-251 -56t-93 -166t105.5 -164t244.5 -54zM452 348q103 0 158.5 63.5t55.5 142.5t-55.5 143.5t-160.5 64.5t-159.5 -64.5 t-54.5 -143.5t56.5 -142.5t159.5 -63.5zM360 1062q0 40 24 64.5t64 24.5t64.5 -24.5t24.5 -64.5t-25 -63.5t-65 -23.5t-63.5 23.5t-23.5 63.5z" glyph-name="gdotaccent" horiz-adv-x="960" unicode="ġ"/><glyph d="M1026 508v74h342v-426q-220 -184 -540 -184t-533 218t-213 531t217 529t522 216t537 -198l-58 -66q-219 186 -480 186t-446.5 -193t-185.5 -477t186.5 -476.5t469.5 -192.5q123 0 239.5 41t190.5 105v313h-248zM686 -457l74 322h149l4 -21l-184 -311z" glyph-name="Gcommaaccent" horiz-adv-x="1490" unicode="Ģ"/><glyph d="M450 -541q-96 0 -189 26t-161.5 93.5t-68.5 167.5q0 203 241 266q-43 8 -73.5 51t-30.5 97t40 100.5t95 48.5q-74 39 -112.5 104.5t-38.5 139.5q0 113 79 195.5t215 82.5t209 -67l195 43h18v-96h-170q50 -69 50 -171t-83 -180.5t-214 -78.5q-197 0 -197 -121t202 -121 t327.5 -70.5t125.5 -222.5q0 -78 -40 -135t-107.5 -89t-141.5 -47.5t-170 -15.5zM469 -471q139 0 246.5 54.5t107.5 163t-101 165.5t-259 57t-251 -56t-93 -166t105.5 -164t244.5 -54zM452 348q103 0 158.5 63.5t55.5 142.5t-55.5 143.5t-160.5 64.5t-159.5 -64.5 t-54.5 -143.5t56.5 -142.5t159.5 -63.5zM594 1286l-74 -321h-149l-4 20l184 311z" glyph-name="gcommaaccent" horiz-adv-x="960" unicode="ģ"/><glyph d="M1014 0v797h-738v-797h-92v1438h92v-566h738v566h92v-1438h-92zM698 1772l160 -242h-55l-158 139l-158 -139h-55l160 242h106z" glyph-name="Hcircumflex" horiz-adv-x="1290" unicode="Ĥ"/><glyph d="M217 1462v-790q47 72 129 115.5t170 43.5q158 0 258 -101t100 -263v-467h-86v467q0 143 -84 217t-188 74t-198.5 -72t-100.5 -203v-483h-84v1438l76 24h8zM227 1796l160 -242h-55l-158 140l-158 -140h-55l160 242h106z" glyph-name="hcircumflex" horiz-adv-x="976" unicode="ĥ"/><glyph d="M1014 0v797h-738v-797h-92v1106h-92v76h92v256h92v-256h738v256h92v-256h92v-76h-92v-1106h-92zM276 872h738v234h-738v-234z" glyph-name="Hbar" horiz-adv-x="1290" unicode="Ħ"/><glyph d="M217 1462v-362h297v-76h-297v-352q47 72 129 115.5t170 43.5q158 0 258 -101t100 -263v-467h-86v467q0 143 -84 217t-188 74t-198.5 -72t-100.5 -203v-483h-84v1024h-92v76h92v338l76 24h8z" glyph-name="hbar" horiz-adv-x="976" unicode="ħ"/><glyph d="M184 0v1438h92v-1438h-92zM129 1720q37 0 106.5 -28.5t96.5 -28.5q55 0 88 49l55 -26q-31 -123 -143 -123q-37 0 -106.5 28.5t-100.5 28.5t-48.5 -10t-35.5 -41l-55 28q31 123 143 123z" glyph-name="Itilde" horiz-adv-x="460" unicode="Ĩ"/><glyph d="M168 0v807h84v-807h-84zM109 1133q37 0 106.5 -29t95.5 -29q55 0 88 49l56 -26q-31 -123 -144 -123q-37 0 -107 28.5t-100 28.5t-48 -10t-36 -41l-55 29q31 123 144 123z" glyph-name="itilde" horiz-adv-x="419" unicode="ĩ"/><glyph d="M184 0v1438h92v-1438h-92zM436 1612h-411v76h411v-76z" glyph-name="Imacron" horiz-adv-x="460" unicode="Ī"/><glyph d="M168 0v807h84v-807h-84zM416 1024h-412v76h412v-76z" glyph-name="imacron" horiz-adv-x="419" unicode="ī"/><glyph d="M184 0v1438h92v-1438h-92zM230 1530q-103 0 -151 76.5t-28 165.5h78q-12 -49 13.5 -109.5t89 -60.5t88 60t14.5 110h78q18 -88 -30.5 -165t-151.5 -77z" glyph-name="Ibreve" horiz-adv-x="460" unicode="Ĭ"/><glyph d="M168 0v807h84v-807h-84zM210 942q-103 0 -151.5 77t-27.5 165h78q-12 -49 13 -109.5t88.5 -60.5t88.5 60.5t14 109.5h78q18 -88 -30 -165t-151 -77z" glyph-name="ibreve" horiz-adv-x="419" unicode="ĭ"/><glyph d="M184 1438h92v-1438h-38q-39 -10 -66 -49t-27 -90q0 -92 81 -127t153 4l8 -70q-115 -47 -220.5 8.5t-105.5 184.5q0 72 41 116t82 52v1409z" glyph-name="Iogonek" horiz-adv-x="460" unicode="Į"/><glyph d="M168 807h84v-807h-31q-39 -10 -65.5 -49t-26.5 -90q0 -92 81 -127t152 4l9 -70q-115 -47 -220.5 8.5t-105.5 184.5q0 72 41 116t82 52v778zM123 1132.5q0 36.5 25.5 62.5t61.5 26t61.5 -26t25.5 -62.5t-25.5 -61t-61.5 -24.5t-61.5 24.5t-25.5 61z" glyph-name="iogonek" horiz-adv-x="419" unicode="į"/><glyph d="M184 0v1438h92v-1438h-92zM141 1650q0 40 23.5 64.5t62.5 24.5t64.5 -25.5t25.5 -64.5t-24.5 -62.5t-64.5 -23.5t-63.5 23.5t-23.5 63.5z" glyph-name="Idotaccent" horiz-adv-x="460" unicode="İ"/><glyph d="M168 0v807h84v-807h-84z" glyph-name="dotlessi" horiz-adv-x="419" unicode="ı"/><glyph d="M184 0v1438h92v-1438h-92zM942 412v1026h92v-1026q0 -172 -110.5 -301t-319.5 -129v84q141 0 239.5 98t98.5 248z" glyph-name="IJ" horiz-adv-x="1259" unicode="Ĳ"/><glyph d="M168 0v807h84v-807h-84zM123 1132.5q0 36.5 25.5 62.5t61.5 26t61.5 -26t25.5 -62.5t-25.5 -61t-61.5 -24.5t-61.5 24.5t-25.5 61zM545 1132.5q0 36.5 25.5 62.5t61.5 26t62.5 -26t26.5 -62.5t-25.5 -61t-62.5 -24.5t-62.5 24.5t-25.5 61zM590 -266v1073h84v-1063 q0 -145 -89 -221t-237 -43l10 71q100 -20 166 32.5t66 150.5z" glyph-name="ij" horiz-adv-x="843" unicode="ĳ"/><glyph d="M481 412v1026h92v-1026q0 -172 -110.5 -301t-319.5 -129v84q141 0 239.5 98t98.5 248zM582 1772l159 -242h-55l-158 139l-157 -139h-56l160 242h107z" glyph-name="Jcircumflex" horiz-adv-x="798" unicode="Ĵ"/><glyph d="M170 -266v1073h84v-1063q0 -145 -89 -221t-237 -43l11 71q100 -20 165.5 32.5t65.5 150.5zM266 1184l160 -242h-55l-158 139l-158 -139h-55l160 242h106z" glyph-name="jcircumflex" horiz-adv-x="423" unicode="ĵ"/><glyph d="M184 0v1438h95v-668l639 668h114l-655 -695l717 -743h-129l-686 709v-709h-95zM444 -457l74 322h150l4 -21l-185 -311z" glyph-name="Kcommaaccent" horiz-adv-x="1165" unicode="Ķ"/><glyph d="M217 1462v-999l406 344h116l-440 -379l489 -428h-116l-455 387v-387h-84v1438l76 24h8zM256 -457l74 322h149l4 -21l-184 -311z" glyph-name="kcommaaccent" horiz-adv-x="839" unicode="ķ"/><glyph d="M133 807h84v-344l406 344h116l-440 -379l489 -428h-116l-455 387v-387h-84v807z" glyph-name="kgreenlandic" horiz-adv-x="839" unicode="ĸ"/><glyph d="M868 76v-76h-684v1438h92v-1362h592zM477 1772v-21l-207 -221h-45l111 242h141z" glyph-name="Lacute" horiz-adv-x="950" unicode="Ĺ"/><glyph d="M217 1462v-1462h-84v1438l76 24h8zM385 1796v-20l-207 -222h-45l111 242h141z" glyph-name="lacute" horiz-adv-x="350" unicode="ĺ"/><glyph d="M868 76v-76h-684v1438h92v-1362h592zM399 -457l74 322h150l4 -21l-185 -311z" glyph-name="Lcommaaccent" horiz-adv-x="950" unicode="Ļ"/><glyph d="M217 1462v-1462h-84v1438l76 24h8zM31 -457l73 322h150l4 -21l-184 -311z" glyph-name="lcommaaccent" horiz-adv-x="350" unicode="ļ"/><glyph d="M868 76v-76h-684v1438h92v-1362h592zM631 967l74 475h159l4 -21l-194 -465z" glyph-name="Lcaron" horiz-adv-x="950" unicode="Ľ"/><glyph d="M217 1462v-1462h-84v1438l76 24h8zM463 967l74 475h159l4 -21l-194 -465z" glyph-name="lcaron" horiz-adv-x="792" unicode="ľ"/><glyph d="M868 76v-76h-684v1438h92v-1362h592zM659 497q0 46 29 75.5t74 29.5t75.5 -30.5t30.5 -75.5t-30.5 -74t-75.5 -29t-74 29t-29 75z" glyph-name="Ldot" horiz-adv-x="950" unicode="Ŀ"/><glyph d="M217 1462v-1462h-84v1438l76 24h8zM463 497q0 46 28.5 75.5t73.5 29.5t76 -30.5t31 -75.5t-31 -74t-76 -29t-73.5 29t-28.5 75z" glyph-name="ldot" horiz-adv-x="784" unicode="ŀ"/><glyph d="M279 76h591v-76h-686v700l-147 -65l-31 74l178 79v650h95v-607l217 99l30 -76l-247 -113v-665z" glyph-name="Lslash" horiz-adv-x="952" unicode="Ł"/><glyph d="M248 0h-84v688l-121 -53l-31 74l152 67v662l74 24h10v-649l119 55l30 -77l-149 -66v-725z" glyph-name="lslash" horiz-adv-x="411" unicode="ł"/><glyph d="M1040 1438h88v-1438h-88v698l-768 586v-1284h-88v1444l15 14l841 -647v627zM844 1772v-21l-207 -221h-45l110 242h142z" glyph-name="Nacute" horiz-adv-x="1312" unicode="Ń"/><glyph d="M514 831q158 0 259 -101t101 -263v-467h-86v467q0 143 -85 217t-190 74t-200.5 -76t-95.5 -215v-467h-84v807h47l37 -135q47 72 129 115.5t168 43.5zM696 1184v-21l-207 -221h-45l111 242h141z" glyph-name="nacute" horiz-adv-x="976" unicode="ń"/><glyph d="M1040 1438h88v-1438h-88v698l-768 586v-1284h-88v1444l15 14l841 -647v627zM502 -457l73 322h150l4 -21l-184 -311z" glyph-name="Ncommaaccent" horiz-adv-x="1312" unicode="Ņ"/><glyph d="M514 831q158 0 259 -101t101 -263v-467h-86v467q0 143 -85 217t-190 74t-200.5 -76t-95.5 -215v-467h-84v807h47l37 -135q47 72 129 115.5t168 43.5zM348 -457l74 322h149l4 -21l-184 -311z" glyph-name="ncommaaccent" horiz-adv-x="976" unicode="ņ"/><glyph d="M1040 1438h88v-1438h-88v698l-768 586v-1284h-88v1444l15 14l841 -647v627zM453 1772h49l153 -146l154 146h49v-21l-149 -221h-107l-149 221v21z" glyph-name="Ncaron" horiz-adv-x="1312" unicode="Ň"/><glyph d="M514 831q158 0 259 -101t101 -263v-467h-86v467q0 143 -85 217t-190 74t-200.5 -76t-95.5 -215v-467h-84v807h47l37 -135q47 72 129 115.5t168 43.5zM285 1184h49l153 -146l154 146h49v-21l-149 -221h-107l-149 221v21z" glyph-name="ncaron" horiz-adv-x="976" unicode="ň"/><glyph d="M813 831q158 0 259.5 -101t101.5 -263v-467h-87v467q0 143 -84.5 217t-190.5 74t-201 -76t-95 -215v-467h-84v807h47l37 -135q47 72 129 115.5t168 43.5zM113 967l73 475h160l4 -21l-194 -465z" glyph-name="napostrophe" horiz-adv-x="1275" unicode="ŉ"/><glyph d="M1040 1438h88v-1694q0 -145 -91 -221t-238 -43l10 80q100 -20 165.5 29t65.5 145v964l-768 586v-1284h-88v1444l15 14l841 -647v627z" glyph-name="Eng" horiz-adv-x="1312" unicode="Ŋ"/><glyph d="M788 -266v733q0 143 -85 217t-190 74t-200.5 -76t-95.5 -215v-467h-84v807h47l37 -135q47 72 129 115.5t168 43.5q158 0 259 -101t101 -263v-723q0 -145 -90 -221t-237 -43l10 74q100 -20 165.5 31t65.5 149z" glyph-name="eng" horiz-adv-x="976" unicode="ŋ"/><glyph d="M82 718q0 320 211 534t525 214t527.5 -215t213.5 -534.5t-213.5 -532.5t-527.5 -213t-525 213.5t-211 533.5zM182 717q0 -287 184.5 -477.5t452.5 -190.5t453.5 190.5t185.5 477.5t-185.5 479.5t-453.5 192.5t-452.5 -192.5t-184.5 -479.5zM1026 1612h-412v76h412v-76z " glyph-name="Omacron" horiz-adv-x="1640" unicode="Ō"/><glyph d="M494 -25q-174 0 -298 117t-124 313.5t125 311t299 114.5t298 -114.5t124 -311t-125 -313.5t-299 -117zM497 45q142 0 238 103.5t96 258.5t-98 255t-242 100t-239.5 -101t-95.5 -255t99.5 -257.5t241.5 -103.5zM700 1024h-411v76h411v-76z" glyph-name="omacron" horiz-adv-x="989" unicode="ō"/><glyph d="M82 718q0 320 211 534t525 214t527.5 -215t213.5 -534.5t-213.5 -532.5t-527.5 -213t-525 213.5t-211 533.5zM182 717q0 -287 184.5 -477.5t452.5 -190.5t453.5 190.5t185.5 477.5t-185.5 479.5t-453.5 192.5t-452.5 -192.5t-184.5 -479.5zM820 1530q-103 0 -151 76.5 t-28 165.5h78q-12 -49 13.5 -109.5t89 -60.5t88 60t14.5 110h77q18 -88 -30 -165t-151 -77z" glyph-name="Obreve" horiz-adv-x="1640" unicode="Ŏ"/><glyph d="M494 -25q-174 0 -298 117t-124 313.5t125 311t299 114.5t298 -114.5t124 -311t-125 -313.5t-299 -117zM497 45q142 0 238 103.5t96 258.5t-98 255t-242 100t-239.5 -101t-95.5 -255t99.5 -257.5t241.5 -103.5zM495 942q-103 0 -151.5 77t-28.5 165h78 q-12 -49 13.5 -109.5t89 -60.5t88 60.5t14.5 109.5h78q18 -88 -30 -165t-151 -77z" glyph-name="obreve" horiz-adv-x="989" unicode="ŏ"/><glyph d="M82 718q0 320 211 534t525 214t527.5 -215t213.5 -534.5t-213.5 -532.5t-527.5 -213t-525 213.5t-211 533.5zM182 717q0 -287 184.5 -477.5t452.5 -190.5t453.5 190.5t185.5 477.5t-185.5 479.5t-453.5 192.5t-452.5 -192.5t-184.5 -479.5zM920 1772v-21l-187 -221h-45 l90 242h142zM1114 1772v-21l-186 -221h-45l90 242h141z" glyph-name="Ohungarumlaut" horiz-adv-x="1640" unicode="Ő"/><glyph d="M494 -25q-174 0 -298 117t-124 313.5t125 311t299 114.5t298 -114.5t124 -311t-125 -313.5t-299 -117zM497 45q142 0 238 103.5t96 258.5t-98 255t-242 100t-239.5 -101t-95.5 -255t99.5 -257.5t241.5 -103.5zM594 1184v-21l-186 -221h-46l91 242h141zM788 1184v-21 l-186 -221h-45l90 242h141z" glyph-name="ohungarumlaut" horiz-adv-x="989" unicode="ő"/><glyph d="M1759 1438v-76h-631v-490h508v-75h-508v-721h668v-76h-668q-418 -55 -684.5 87.5t-314 346t-47.5 282.5t19.5 164t87 229.5t293.5 263.5t646 65h631zM184 713q0 -322 251 -505t599 -134v1284q-199 31 -363.5 -13.5t-269 -139.5t-161 -223t-56.5 -269z" glyph-name="OE" horiz-adv-x="1918" unicode="Œ"/><glyph d="M1284 41q156 0 297 88l39 -63q-133 -94 -326 -95q-299 0 -417 238q-51 -106 -155 -171t-230 -65q-172 0 -296 118t-124 314.5t125 312.5t299 116q123 0 223 -60.5t153 -163.5q49 104 141.5 165t228.5 61t248 -106t116 -288h-686q-14 -178 97 -289.5t267 -111.5zM497 45 q142 0 238 103.5t96 258.5t-98 256t-242 101t-239.5 -102t-95.5 -256t99.5 -257.5t241.5 -103.5zM1218 766q-114 0 -192 -82t-92 -168h575q-14 106 -95.5 178t-195.5 72z" glyph-name="oe" horiz-adv-x="1691" unicode="œ"/><glyph d="M934 1001q0 -123 -64.5 -240.5t-199.5 -180.5l426 -580h-121l-397 547q-129 -35 -302 -15v-532h-92v1432q334 72 542 -51.5t208 -379.5zM840 995q0 196 -155 305t-409 64v-743q250 -39 407 69.5t157 304.5zM653 1772v-21l-207 -221h-45l111 242h141z" glyph-name="Racute" horiz-adv-x="1136" unicode="Ŕ"/><glyph d="M133 0v807h47l37 -98q25 53 80 87.5t115 34.5t120 -24l-18 -74l-10 -2q-43 25 -92 25q-135 0 -195 -148v-608h-84zM520 1184v-21l-207 -221h-45l111 242h141z" glyph-name="racute" horiz-adv-x="583" unicode="ŕ"/><glyph d="M934 1001q0 -123 -64.5 -240.5t-199.5 -180.5l426 -580h-121l-397 547q-129 -35 -302 -15v-532h-92v1432q334 72 542 -51.5t208 -379.5zM840 995q0 196 -155 305t-409 64v-743q250 -39 407 69.5t157 304.5zM420 -457l74 322h149l4 -21l-184 -311z" glyph-name="Rcommaaccent" horiz-adv-x="1136" unicode="Ŗ"/><glyph d="M133 0v807h47l37 -98q25 53 80 87.5t115 34.5t120 -24l-18 -74l-10 -2q-43 25 -92 25q-135 0 -195 -148v-608h-84zM31 -457l73 322h150l4 -21l-184 -311z" glyph-name="rcommaaccent" horiz-adv-x="583" unicode="ŗ"/><glyph d="M934 1001q0 -123 -64.5 -240.5t-199.5 -180.5l426 -580h-121l-397 547q-129 -35 -302 -15v-532h-92v1432q334 72 542 -51.5t208 -379.5zM840 995q0 196 -155 305t-409 64v-743q250 -39 407 69.5t157 304.5zM262 1772h49l154 -146l153 146h50v-21l-150 -221h-106l-150 221 v21z" glyph-name="Rcaron" horiz-adv-x="1136" unicode="Ř"/><glyph d="M133 0v807h47l37 -98q25 53 80 87.5t115 34.5t120 -24l-18 -74l-10 -2q-43 25 -92 25q-135 0 -195 -148v-608h-84zM111 1184h49l153 -146l154 146h49v-21l-149 -221h-107l-149 221v21z" glyph-name="rcaron" horiz-adv-x="583" unicode="ř"/><glyph d="M524 1386q-136 0 -211 -71.5t-75 -179.5q0 -180 303 -347q365 -197 356 -464q-4 -174 -115.5 -263.5t-281.5 -87.5q-242 2 -387 133l51 74q145 -127 332 -127q139 0 225 82t86 176q0 125 -75.5 211t-247.5 190t-256.5 193.5t-84.5 223t95.5 235.5t281.5 102t324 -94 l-39 -72q-145 86 -281 86zM713 1772v-21l-207 -221h-45l110 242h142z" glyph-name="Sacute" horiz-adv-x="1011" unicode="Ś"/><glyph d="M188 614q0 -106 193 -163q127 -37 201.5 -95t74.5 -164t-82.5 -161.5t-208.5 -55.5t-185.5 33t-73 43t-15.5 10l41 68q96 -82 223 -82q84 0 150.5 38.5t66.5 106.5t-53 110t-166 73q-252 72 -252 239q0 96 74 156.5t197 60.5q20 0 40.5 -2t34 -3t34 -6t27.5 -6t28.5 -9 t24.5 -9t28 -14l24 -10l-34 -70q-109 60 -197 60t-141.5 -36t-53.5 -112zM582 1184v-21l-207 -221h-45l110 242h142z" glyph-name="sacute" horiz-adv-x="749" unicode="ś"/><glyph d="M524 1386q-136 0 -211 -71.5t-75 -179.5q0 -180 303 -347q365 -197 356 -464q-4 -174 -115.5 -263.5t-281.5 -87.5q-242 2 -387 133l51 74q145 -127 332 -127q139 0 225 82t86 176q0 125 -75.5 211t-247.5 190t-256.5 193.5t-84.5 223t95.5 235.5t280.5 102t325 -94 l-39 -72q-145 86 -281 86zM559 1772l160 -242h-55l-158 139l-158 -139h-55l160 242h106z" glyph-name="Scircumflex" horiz-adv-x="1011" unicode="Ŝ"/><glyph d="M188 614q0 -106 193 -163q127 -37 201.5 -95t74.5 -164t-82.5 -161.5t-208.5 -55.5t-185.5 33t-73 43t-15.5 10l41 68q96 -82 223 -82q84 0 150.5 38.5t66.5 106.5t-53 110t-166 73q-252 72 -252 239q0 96 74 156.5t197 60.5q20 0 40.5 -2t34 -3t34 -6t27.5 -6t28.5 -9 t24.5 -9t28 -14l24 -10l-34 -70q-109 60 -197 60t-141.5 -36t-53.5 -112zM428 1184l160 -242h-56l-157 139l-158 -139h-55l160 242h106z" glyph-name="scircumflex" horiz-adv-x="749" unicode="ŝ"/><glyph d="M524 1386q-136 0 -211 -71.5t-75 -179.5q0 -180 303 -347q365 -197 356 -464q-4 -145 -85 -232.5t-212 -109.5q47 -47 47 -121q0 -129 -105.5 -184.5t-219.5 -8.5l8 70q72 -39 152.5 -4t80.5 117t-47 122q-258 2 -403 133l51 74q145 -127 332 -127q139 0 225 82t86 176 q0 125 -75.5 211t-247.5 190t-256.5 193.5t-84.5 223t95.5 235.5t281.5 102t324 -94l-39 -72q-145 86 -281 86z" glyph-name="Scedilla" horiz-adv-x="1011" unicode="Ş"/><glyph d="M188 614q0 -106 193 -163q127 -37 201.5 -94.5t74.5 -157.5q0 -176 -198 -213q51 -47 51 -125q0 -129 -105.5 -184.5t-220.5 -8.5l9 70q70 -39 151.5 -4t81.5 117t-49 124q-95 0 -138.5 15.5t-66 23.5t-50 27.5t-30.5 19.5l41 68q96 -82 223 -82q84 0 150.5 38.5 t66.5 106.5t-53 110t-166 73q-252 72 -252 239q0 96 74 156.5t197 60.5q20 0 40.5 -2t34 -3t34 -6t27.5 -6t28.5 -9t24.5 -9t28 -14l24 -10l-34 -70q-109 60 -197 60t-141.5 -36t-53.5 -112z" glyph-name="scedilla" horiz-adv-x="749" unicode="ş"/><glyph d="M524 1386q-136 0 -211 -71.5t-75 -179.5q0 -180 303 -347q365 -197 356 -464q-4 -174 -115.5 -263.5t-281.5 -87.5q-242 2 -387 133l51 74q145 -127 332 -127q139 0 225 82t86 176q0 125 -75.5 211t-247.5 190t-256.5 193.5t-84.5 223t95.5 235.5t281.5 102t324 -94 l-39 -72q-145 86 -281 86zM315 1772h50l153 -146l154 146h49v-21l-150 -221h-106l-150 221v21z" glyph-name="Scaron" horiz-adv-x="1011" unicode="Š"/><glyph d="M188 614q0 -106 193 -163q127 -37 201.5 -95t74.5 -164t-82.5 -161.5t-208.5 -55.5t-185.5 33t-73 43t-15.5 10l41 68q96 -82 223 -82q84 0 150.5 38.5t66.5 106.5t-53 110t-166 73q-252 72 -252 239q0 96 74 156.5t197 60.5q20 0 40.5 -2t34 -3t34 -6t27.5 -6t28.5 -9 t24.5 -9t28 -14l24 -10l-34 -70q-109 60 -197 60t-141.5 -36t-53.5 -112zM180 1184h49l154 -146l154 146h49v-21l-150 -221h-106l-150 221v21z" glyph-name="scaron" horiz-adv-x="749" unicode="š"/><glyph d="M920 1438v-76h-390v-1362h-4q29 -8 60.5 -45t31.5 -94q0 -129 -105 -184.5t-220 -8.5l8 70q72 -39 153 -4t81 127q0 51 -27 90t-66 49h-4v1362h-387v76h869z" glyph-name="Tcommaaccent" horiz-adv-x="970" unicode="Ţ"/><glyph d="M504 733h-215v-536q0 -82 68.5 -121t154.5 -8l18 -68q-45 -14 -77 -16q47 -55 47 -123q0 -129 -105.5 -184.5t-220.5 -8.5l8 70q72 -39 153 -4t81 127q0 45 -21.5 83t-54.5 50q-137 53 -137 203v536h-142v10l11 64h131v289l78 24h8v-313h215v-74z" glyph-name="tcommaaccent" horiz-adv-x="602" unicode="ţ"/><glyph d="M920 1438v-76h-390v-1362h-92v1362h-387v76h869zM283 1772h49l153 -146l154 146h49v-21l-149 -221h-107l-149 221v21z" glyph-name="Tcaron" horiz-adv-x="970" unicode="Ť"/><glyph d="M504 733h-215v-536q0 -82 68.5 -121t154.5 -8l18 -68q-131 -47 -229 12.5t-98 184.5v536h-142v10l11 64h131v289l78 24h8v-313h215v-74zM633 967l74 475h159l4 -21l-194 -465z" glyph-name="tcaron" horiz-adv-x="962" unicode="ť"/><glyph d="M690 705h-160v-705h-92v705h-159v75h159v582h-387v76h869v-76h-390v-582h160v-75z" glyph-name="Tbar" horiz-adv-x="970" unicode="Ŧ"/><glyph d="M391 401h-102v-204q0 -82 68.5 -121t154.5 -8l18 -68q-131 -47 -229 12.5t-98 184.5v204h-101v76h101v256h-142v10l11 64h131v289l78 24h8v-313h215v-74h-215v-256h102v-76z" glyph-name="tbar" horiz-adv-x="602" unicode="ŧ"/><glyph d="M184 492v946h95v-942q0 -186 102 -317.5t280.5 -131.5t282 131t103.5 318v942h94v-946q0 -294 -160 -407.5t-322 -113.5q-236 0 -355.5 155t-119.5 366zM561 1720q37 0 106.5 -28.5t96.5 -28.5q55 0 88 49l55 -26q-31 -123 -143 -123q-37 0 -106.5 28.5t-100.5 28.5 t-48.5 -10t-35.5 -41l-55 28q31 123 143 123z" glyph-name="Utilde" horiz-adv-x="1325" unicode="Ũ"/><glyph d="M483 -25q-158 0 -259 101.5t-101 263.5v467h86v-467q0 -143 85 -217t190 -74t200.5 76t95.5 215v467h84v-807h-47l-37 135q-45 -76 -126 -118t-171 -42zM397 1133q37 0 106.5 -29t96.5 -29q55 0 88 49l55 -26q-31 -123 -143 -123q-37 0 -106.5 28.5t-100.5 28.5 t-48.5 -10t-35.5 -41l-55 29q31 123 143 123z" glyph-name="utilde" horiz-adv-x="997" unicode="ũ"/><glyph d="M184 492v946h95v-942q0 -186 102 -317.5t280.5 -131.5t282 131t103.5 318v942h94v-946q0 -294 -160 -407.5t-322 -113.5q-236 0 -355.5 155t-119.5 366zM868 1612h-411v76h411v-76z" glyph-name="Umacron" horiz-adv-x="1325" unicode="Ū"/><glyph d="M483 -25q-158 0 -259 101.5t-101 263.5v467h86v-467q0 -143 85 -217t190 -74t200.5 76t95.5 215v467h84v-807h-47l-37 135q-45 -76 -126 -118t-171 -42zM705 1024h-412v76h412v-76z" glyph-name="umacron" horiz-adv-x="997" unicode="ū"/><glyph d="M184 492v946h95v-942q0 -186 102 -317.5t280.5 -131.5t282 131t103.5 318v942h94v-946q0 -294 -160 -407.5t-322 -113.5q-236 0 -355.5 155t-119.5 366zM663 1530q-103 0 -151.5 76.5t-28.5 165.5h78q-12 -49 13.5 -109.5t89 -60.5t88 60t14.5 110h78q18 -88 -30 -165 t-151 -77z" glyph-name="Ubreve" horiz-adv-x="1325" unicode="Ŭ"/><glyph d="M483 -25q-158 0 -259 101.5t-101 263.5v467h86v-467q0 -143 85 -217t190 -74t200.5 76t95.5 215v467h84v-807h-47l-37 135q-45 -76 -126 -118t-171 -42zM499 942q-103 0 -151.5 77t-28.5 165h78q-12 -49 13.5 -109.5t89 -60.5t88 60.5t14.5 109.5h78q18 -88 -30 -165 t-151 -77z" glyph-name="ubreve" horiz-adv-x="997" unicode="ŭ"/><glyph d="M184 492v946h95v-942q0 -186 102 -317.5t280.5 -131.5t282 131t103.5 318v942h94v-946q0 -294 -160 -407.5t-322 -113.5q-236 0 -355.5 155t-119.5 366zM440 1573q0 92 63.5 155.5t158 63.5t158 -63.5t63.5 -155.5t-63.5 -156.5t-158 -64.5t-158 64.5t-63.5 156.5z M516 1572q0 -62 41 -106.5t104.5 -44.5t104.5 44.5t41 106.5t-41 105t-104.5 43t-104.5 -43t-41 -105z" glyph-name="Uring" horiz-adv-x="1325" unicode="Ů"/><glyph d="M483 -25q-158 0 -259 101.5t-101 263.5v467h86v-467q0 -143 85 -217t190 -74t200.5 76t95.5 215v467h84v-807h-47l-37 135q-45 -76 -126 -118t-171 -42zM276 985q0 92 63.5 155.5t158 63.5t158 -63.5t63.5 -155.5t-63.5 -156.5t-158 -64.5t-158 64.5t-63.5 156.5z M352 984q0 -62 41 -106t104.5 -44t104.5 44t41 106t-41 105.5t-104.5 43.5t-104.5 -43.5t-41 -105.5z" glyph-name="uring" horiz-adv-x="997" unicode="ů"/><glyph d="M184 492v946h95v-942q0 -186 102 -317.5t280.5 -131.5t282 131t103.5 318v942h94v-946q0 -294 -160 -407.5t-322 -113.5q-236 0 -355.5 155t-119.5 366zM741 1772v-21l-186 -221h-45l90 242h141zM936 1772v-21l-186 -221h-45l90 242h141z" glyph-name="Uhungarumlaut" horiz-adv-x="1325" unicode="Ű"/><glyph d="M483 -25q-158 0 -259 101.5t-101 263.5v467h86v-467q0 -143 85 -217t190 -74t200.5 76t95.5 215v467h84v-807h-47l-37 135q-45 -76 -126 -118t-171 -42zM578 1184v-21l-187 -221h-45l90 242h142zM772 1184v-21l-186 -221h-45l90 242h141z" glyph-name="uhungarumlaut" horiz-adv-x="997" unicode="ű"/><glyph d="M184 492v946h95v-942q0 -186 102 -317.5t280.5 -131.5t282 131t103.5 318v942h94v-946q0 -176 -87 -317.5t-257 -184.5q-66 -43 -66 -132t81 -124t153 4l8 -70q-115 -47 -220.5 8.5t-105.5 184.5q0 68 37 110q-174 -4 -337 107.5t-163 413.5z" glyph-name="Uogonek" horiz-adv-x="1325" unicode="Ų"/><glyph d="M864 807v-807q-39 -10 -65.5 -49t-26.5 -90q0 -92 81 -127t153 4l8 -70q-115 -47 -220.5 8.5t-105.5 184.5q0 72 39 114.5t82 53.5l-29 106q-45 -76 -126 -118t-171 -42q-158 0 -259 101.5t-101 263.5v467h86v-467q0 -143 85 -217t190 -74t200.5 76t95.5 215v467h84z" glyph-name="uogonek" horiz-adv-x="997" unicode="ų"/><glyph d="M1790 1438h90l-475 -1458h-29l-411 1245l-418 -1245h-27l-469 1458h101l383 -1213l419 1233h29l410 -1245zM1018 1772l160 -242h-56l-157 139l-158 -139h-55l159 242h107z" glyph-name="Wcircumflex" horiz-adv-x="1931" unicode="Ŵ"/><glyph d="M1184 807h80l-303 -827h-27l-275 690l-282 -690h-29l-297 827h86l232 -651l276 680h29l274 -680zM711 1184l159 -242h-55l-158 139l-157 -139h-56l160 242h107z" glyph-name="wcircumflex" horiz-adv-x="1314" unicode="ŵ"/><glyph d="M606 0h-94v754l-461 684h111l403 -598l410 598h100l-469 -684v-754zM616 1772l160 -242h-55l-158 139l-157 -139h-56l160 242h106z" glyph-name="Ycircumflex" horiz-adv-x="1126" unicode="Ŷ"/><glyph d="M760 807h90l-639 -1327h-84l-12 20l280 551l-344 756h94l304 -657zM504 1184l160 -242h-56l-157 139l-158 -139h-55l159 242h107z" glyph-name="ycircumflex" horiz-adv-x="901" unicode="ŷ"/><glyph d="M606 0h-94v754l-461 684h111l403 -598l410 598h100l-469 -684v-754zM326 1650q0 40 23.5 64.5t62.5 24.5t64.5 -25.5t25.5 -64.5t-24.5 -62.5t-64.5 -23.5t-63.5 23.5t-23.5 63.5zM618 1649q0 39 25 64.5t64 25.5t64.5 -25.5t25.5 -64.5t-26.5 -62.5t-64.5 -23.5 t-63 23.5t-25 62.5z" glyph-name="Ydieresis" horiz-adv-x="1126" unicode="Ÿ"/><glyph d="M1012 76v-76h-906l-14 16l811 1346h-745v76h870l12 -17l-809 -1345h781zM733 1772v-21l-207 -221h-45l111 242h141z" glyph-name="Zacute" horiz-adv-x="1132" unicode="Ź"/><glyph d="M748 76v-76h-654l-12 23l536 710h-505l-2 74h630l9 -25l-521 -706h519zM602 1184v-21l-207 -221h-45l111 242h141z" glyph-name="zacute" horiz-adv-x="831" unicode="ź"/><glyph d="M1012 76v-76h-906l-14 16l811 1346h-745v76h870l12 -17l-809 -1345h781zM498 1650q0 40 23.5 64.5t62.5 24.5t64.5 -25.5t25.5 -64.5t-24.5 -62.5t-64.5 -23.5t-63.5 23.5t-23.5 63.5z" glyph-name="Zdotaccent" horiz-adv-x="1132" unicode="Ż"/><glyph d="M748 76v-76h-654l-12 23l536 710h-505l-2 74h630l9 -25l-521 -706h519zM328 1062q0 40 23.5 64.5t63.5 24.5t64.5 -24.5t24.5 -64.5t-24.5 -63.5t-64.5 -23.5t-63.5 23.5t-23.5 63.5z" glyph-name="zdotaccent" horiz-adv-x="831" unicode="ż"/><glyph d="M1012 76v-76h-906l-14 16l811 1346h-745v76h870l12 -17l-809 -1345h781zM387 1772h49l154 -146l153 146h50v-21l-150 -221h-106l-150 221v21z" glyph-name="Zcaron" horiz-adv-x="1132" unicode="Ž"/><glyph d="M748 76v-76h-654l-12 23l536 710h-505l-2 74h630l9 -25l-521 -706h519zM231 1184h50l153 -146l154 146h49v-21l-150 -221h-106l-150 221v21z" glyph-name="zcaron" horiz-adv-x="831" unicode="ž"/><glyph d="M698 733h-262l-164 -774q-33 -156 -130 -217t-251 -25l25 72q104 -33 174 12t92 158l164 774h-223v10l10 66h229l84 395q70 319 379 242l-24 -72q-104 33 -173 -12t-91 -158l-84 -395h245v-76z" glyph-name="florin" horiz-adv-x="804" unicode="ƒ"/><glyph d="M432 1580q0 85 63.5 148.5t157.5 63.5q43 0 86 -16l45 122h121v-20l-127 -123q96 -63 96 -182q0 -78 -46 -137.5t-117 -77.5l571 -1358h-98l-176 414h-713l-176 -414h-99l578 1358q-74 16 -120 76.5t-46 145.5zM653 1270l-325 -781h645zM508 1572q0 -62 41 -106.5 t104.5 -44.5t104.5 44.5t41 106.5t-41 105t-104.5 43t-104.5 -43t-41 -105z" glyph-name="Aringacute" horiz-adv-x="1302" unicode="Ǻ"/><glyph d="M231 977q0 96 63.5 159.5t158.5 63.5q43 0 86 -16l45 121h121v-21l-125 -121q94 -63 94 -181t-92 -183q197 -80 215 -353l-2 -450h-50l-26 139q-98 -164 -340 -164q-150 0 -228.5 74.5t-78.5 176.5t84 172.5t238 70.5t317 -72v49q-2 115 -75 213.5t-215 98.5t-253 -64 l-31 72q61 37 162 55q-68 64 -68 160zM711 307v8q-158 76 -320 74q-115 0 -174 -48t-59 -126t69 -128t181 -50t207.5 79.5t95.5 190.5zM307 980q0 -62 41 -106.5t104.5 -44.5t104.5 44.5t41 106.5t-41 105t-104.5 43t-104.5 -43t-41 -105z" glyph-name="aringacute" horiz-adv-x="899" unicode="ǻ"/><glyph d="M1151 76h668v-76h-760v414h-645l-324 -414h-110l1136 1438h666v-76h-631v-479h508v-76h-508v-731zM1059 489v758l-588 -758h588zM1458 1772v-21l-207 -221h-45l111 242h141z" glyph-name="AEacute" horiz-adv-x="1941" unicode="Ǽ"/><glyph d="M1170 45q154 0 286 82l39 -61q-123 -90 -328 -91q-135 0 -240.5 58.5t-160.5 159.5v2q-104 -219 -367 -220q-158 0 -248 82t-90 192t91.5 192.5t248.5 82.5q86 0 180.5 -42t129.5 -85v70q-2 74 -22.5 134.5t-83 108.5t-176.5 48t-220 -90l-47 51q35 47 121 82t163 33 q242 -4 320 -209q49 98 141 152t207 54q152 0 260.5 -102.5t114.5 -290.5h-688q-8 -180 103.5 -286.5t265.5 -106.5zM711 311v8q-123 135 -312 134q-117 0 -184.5 -60.5t-67.5 -145.5t73.5 -145.5t191.5 -60.5t208.5 78.5t90.5 191.5zM1108 762q-117 0 -199 -82t-92 -168 h574q-10 111 -88 180.5t-195 69.5zM993 1184v-21l-207 -221h-45l111 242h141z" glyph-name="aeacute" horiz-adv-x="1566" unicode="ǽ"/><glyph d="M82 717q0 322 211 535.5t526 213.5q180 0 344 -82l129 232l76 -35l-133 -238q150 -102 237 -266t87 -360q0 -319 -213 -532.5t-527 -213.5q-164 0 -309 64l-154 -279l-71 45l151 273q-164 96 -259 265t-95 378zM182 717q0 -184 79 -332.5t216 -237.5l645 1164 q-143 78 -303 78q-268 0 -452.5 -192.5t-184.5 -479.5zM1458 717q0 170 -71.5 314.5t-194.5 234.5l-641 -1160q125 -57 268 -57q268 0 453.5 190.5t185.5 477.5zM1061 1772v-21l-207 -221h-45l111 242h141z" glyph-name="Oslashacute" horiz-adv-x="1640" unicode="Ǿ"/><glyph d="M492 -25q-90 0 -173 35l-118 -213l-72 45l117 207q-174 121 -174 357q0 197 125 311t299 114q90 0 172 -34l100 180l76 -37l-103 -182q176 -121 177 -352q0 -197 -125 -314t-301 -117zM156 395q0 -167 129 -276l346 612q-63 31 -139 31q-145 0 -240.5 -100t-95.5 -267z M496 45q143 0 239 103.5t96 269.5t-129 270l-346 -612q66 -31 140 -31zM684 1184v-21l-207 -221h-45l111 242h141z" glyph-name="oslashacute" horiz-adv-x="989" unicode="ǿ"/><glyph d="M524 1386q-136 0 -211 -71.5t-75 -179.5q0 -180 303 -347q365 -197 356 -464q-4 -174 -115.5 -263.5t-281.5 -87.5q-242 2 -387 133l51 74q145 -127 332 -127q139 0 225 82t86 176q0 125 -75.5 211t-247.5 190t-256.5 193.5t-84.5 223t95.5 235.5t281.5 102t324 -94 l-39 -72q-145 86 -281 86zM358 -457l74 322h150l4 -21l-185 -311z" glyph-name="Scommaaccent" horiz-adv-x="1011" unicode="Ș"/><glyph d="M188 614q0 -106 193 -163q127 -37 201.5 -95t74.5 -164t-82.5 -161.5t-208.5 -55.5t-185.5 33t-73 43t-15.5 10l41 68q96 -82 223 -82q84 0 150.5 38.5t66.5 106.5t-53 110t-166 73q-252 72 -252 239q0 96 74 156.5t197 60.5q20 0 40.5 -2t34 -3t34 -6t27.5 -6t28.5 -9 t24.5 -9t28 -14l24 -10l-34 -70q-109 60 -197 60t-141.5 -36t-53.5 -112zM215 -457l74 322h149l4 -21l-184 -311z" glyph-name="scommaaccent" horiz-adv-x="749" unicode="ș"/><glyph d="M920 1438v-76h-390v-1362h-92v1362h-387v76h869zM338 -457l74 322h149l4 -21l-184 -311z" glyph-name="uni021A" horiz-adv-x="970" unicode="Ț"/><glyph d="M504 733h-215v-536q0 -82 68.5 -121t154.5 -8l18 -68q-131 -47 -229 12.5t-98 184.5v536h-142v10l11 64h131v289l78 24h8v-313h215v-74zM195 -457l73 322h150l4 -21l-184 -311z" glyph-name="uni021B" horiz-adv-x="602" unicode="ț"/><glyph d="M328 1184l159 -242h-55l-158 139l-157 -139h-56l160 242h107z" glyph-name="circumflex" horiz-adv-x="548" unicode="ˆ"/><glyph d="M113 1184h49l153 -146l154 146h49v-21l-149 -221h-107l-149 221v21z" glyph-name="caron" horiz-adv-x="630" unicode="ˇ"/><glyph d="M247 942q-103 0 -151.5 77t-27.5 165h77q-12 -49 13.5 -109.5t89 -60.5t88 60.5t14.5 109.5h78q18 -88 -30 -165t-151 -77z" glyph-name="breve" horiz-adv-x="495" unicode="˘"/><glyph d="M61 1062q0 40 23.5 64.5t63.5 24.5t65 -24.5t25 -64.5t-25 -63.5t-65 -23.5t-63.5 23.5t-23.5 63.5z" glyph-name="dotaccent" horiz-adv-x="299" unicode="˙"/><glyph d="M61 985q0 92 63.5 155.5t158 63.5t158 -63.5t63.5 -155.5t-63.5 -156.5t-158 -64.5t-158 64.5t-63.5 156.5zM137 984q0 -62 41 -106t104.5 -44t104.5 44t41 106t-41 105.5t-104.5 43.5t-104.5 -43.5t-41 -105.5z" glyph-name="ring" horiz-adv-x="565" unicode="˚"/><glyph d="M145 -139q0 -92 81 -127t153 4l8 -70q-115 -47 -220.5 8.5t-105.5 184.5q0 72 41 116t82 52l54 -19v-10q-39 -10 -66 -49t-27 -90z" glyph-name="ogonek" horiz-adv-x="448" unicode="˛"/><glyph d="M205 1133q37 0 106.5 -29t96.5 -29q55 0 88 49l55 -26q-31 -123 -143 -123q-37 0 -107.5 28.5t-100.5 28.5t-47.5 -10t-35.5 -41l-56 29q31 123 144 123z" glyph-name="tilde" horiz-adv-x="612" unicode="˜"/><glyph d="M293 1184v-21l-187 -221h-45l91 242h141zM487 1184v-21l-186 -221h-45l90 242h141z" glyph-name="hungarumlaut" horiz-adv-x="548" unicode="˝"/><glyph d="M92 -457l74 322h149l4 -21l-184 -311z" glyph-name="uni0326" horiz-adv-x="442" unicode="̦"/><glyph d="M1401 0h-479l-9 18q410 297 410 738q0 281 -165.5 458t-401.5 177t-398.5 -176.5t-162.5 -458.5q0 -438 405 -738l-10 -18h-479v76h295q-313 285 -314 680q0 313 191.5 511.5t474 198.5t475 -198.5t192.5 -511.5q0 -201 -86 -375t-229 -305h291v-76z" glyph-name="Omega" horiz-adv-x="1517" unicode="Ω"/><glyph d="M954 733h-178l58 -733h-91l-57 733h-354l-58 -733h-90l58 733h-170v74h882v-74z" glyph-name="pi" horiz-adv-x="1026" unicode="π"/><glyph d="M1790 1438h90l-475 -1458h-29l-411 1245l-418 -1245h-27l-469 1458h101l383 -1213l419 1233h29l410 -1245zM750 1772h141l110 -242h-45l-206 221v21z" glyph-name="Wgrave" horiz-adv-x="1931" unicode="Ẁ"/><glyph d="M1184 807h80l-303 -827h-27l-275 690l-282 -690h-29l-297 827h86l232 -651l276 680h29l274 -680zM438 1184h142l110 -242h-45l-207 221v21z" glyph-name="wgrave" horiz-adv-x="1314" unicode="ẁ"/><glyph d="M1790 1438h90l-475 -1458h-29l-411 1245l-418 -1245h-27l-469 1458h101l383 -1213l419 1233h29l410 -1245zM1184 1772v-21l-207 -221h-45l110 242h142z" glyph-name="Wacute" horiz-adv-x="1931" unicode="Ẃ"/><glyph d="M1184 807h80l-303 -827h-27l-275 690l-282 -690h-29l-297 827h86l232 -651l276 680h29l274 -680zM885 1184v-21l-207 -221h-45l110 242h142z" glyph-name="wacute" horiz-adv-x="1314" unicode="ẃ"/><glyph d="M1790 1438h90l-475 -1458h-29l-411 1245l-418 -1245h-27l-469 1458h101l383 -1213l419 1233h29l410 -1245zM729 1650q0 40 23.5 64.5t63.5 24.5t64.5 -25.5t24.5 -64.5t-24.5 -62.5t-64.5 -23.5t-63.5 23.5t-23.5 63.5zM1022 1649q0 39 24.5 64.5t63.5 25.5t64.5 -25.5 t25.5 -64.5t-25.5 -62.5t-64.5 -23.5t-63.5 23.5t-24.5 62.5z" glyph-name="Wdieresis" horiz-adv-x="1931" unicode="Ẅ"/><glyph d="M1184 807h80l-303 -827h-27l-275 690l-282 -690h-29l-297 827h86l232 -651l276 680h29l274 -680zM422 1062q0 40 23.5 64.5t63.5 24.5t64.5 -24.5t24.5 -64.5t-24.5 -63.5t-64.5 -23.5t-63.5 23.5t-23.5 63.5zM715 1061q0 39 24.5 64.5t63.5 25.5t64.5 -25.5t25.5 -64.5 t-25.5 -62.5t-64.5 -23.5t-63.5 23.5t-24.5 62.5z" glyph-name="wdieresis" horiz-adv-x="1314" unicode="ẅ"/><glyph d="M184 0v1438h805l8 -19l-354 -573q211 20 356.5 -100.5t145.5 -319.5q0 -137 -64.5 -239.5t-169 -150.5t-235.5 -57.5t-262 39.5l20 74l19 2q86 -41 190.5 -41t194.5 38t151.5 125t61.5 206q0 180 -141.5 286.5t-393.5 47.5l-16 16l354 586h-578v-1358h-92z" glyph-name="uni1E9E" horiz-adv-x="1226" unicode="ẞ"/><glyph d="M606 0h-94v754l-461 684h111l403 -598l410 598h100l-469 -684v-754zM354 1772h142l110 -242h-45l-207 221v21z" glyph-name="Ygrave" horiz-adv-x="1126" unicode="Ỳ"/><glyph d="M760 807h90l-639 -1327h-84l-12 20l280 551l-344 756h94l304 -657zM242 1184h141l111 -242h-45l-207 221v21z" glyph-name="ygrave" horiz-adv-x="901" unicode="ỳ"/><glyph glyph-name="uni2009" horiz-adv-x="102" unicode=" "/><glyph d="M821 469h-719v76h719v-76z" glyph-name="endash" horiz-adv-x="923" unicode="–"/><glyph d="M1384 469h-1282v76h1282v-76z" glyph-name="emdash" horiz-adv-x="1486" unicode="—"/><glyph d="M309 1452l-73 -475h-160l-4 20l194 465z" glyph-name="quoteleft" horiz-adv-x="442" unicode="‘"/><glyph d="M113 967l73 475h160l4 -21l-194 -465z" glyph-name="quoteright" horiz-adv-x="442" unicode="’"/><glyph d="M92 -293l74 475h160l4 -20l-195 -465z" glyph-name="quotesinglbase" horiz-adv-x="442" unicode="‚"/><glyph d="M309 1452l-73 -475h-160l-4 20l194 465zM582 1452l-74 -475h-160l-4 20l195 465z" glyph-name="quotedblleft" horiz-adv-x="714" unicode="“"/><glyph d="M113 967l73 475h160l4 -21l-194 -465zM385 967l74 475h159l5 -21l-195 -465z" glyph-name="quotedblright" horiz-adv-x="714" unicode="”"/><glyph d="M92 -293l74 475h160l4 -20l-195 -465zM365 -293l73 475h160l4 -20l-194 -465z" glyph-name="quotedblbase" horiz-adv-x="714" unicode="„"/><glyph d="M838 1034h-310v-1302h-94v1302h-311v74h311v330h94v-330h310v-74z" glyph-name="dagger" horiz-adv-x="960" unicode="†"/><glyph d="M844 469h-314v-737h-94v737h-313v76h313v489h-311v74h311v330h94v-330h310v-74h-310v-489h314v-76z" glyph-name="daggerdbl" horiz-adv-x="966" unicode="‡"/><glyph d="M164 508q0 57 40 98t97 41t98 -41t41 -98t-41 -97t-99 -40t-97 40t-39 97z" glyph-name="bullet" horiz-adv-x="604" unicode="•"/><glyph d="M113 83q0 46 28.5 75.5t73.5 29.5t76 -30.5t31 -75.5t-31 -73.5t-76 -28.5t-73.5 28.5t-28.5 74.5zM545 83q0 46 28.5 75.5t73.5 29.5t76 -30.5t31 -75.5t-31 -73.5t-76 -28.5t-73.5 28.5t-28.5 74.5zM981 83q0 46 28.5 75.5t73.5 29.5t76 -30.5t31 -75.5t-31 -73.5 t-76 -28.5t-73.5 28.5t-28.5 74.5z" glyph-name="ellipsis" horiz-adv-x="1302" unicode="…"/><glyph d="M172 0l1088 1374l57 -45l-1081 -1374zM1118 -20q-123 0 -213 82.5t-90 222t90 221.5t214 82t212 -82t88 -221.5t-89 -222t-212 -82.5zM1120.5 49q96.5 0 155.5 72t59 165t-59.5 163.5t-155.5 70.5t-159.5 -71.5t-63.5 -162.5t63.5 -164t160 -73zM396 741q-124 0 -214 82 t-90 221.5t91 222.5t215 83t212 -83t88 -222.5t-89 -221.5t-213 -82zM399.5 811q96.5 0 155.5 70.5t59 163.5t-59 165t-155 72t-160 -72t-64 -164t63.5 -163.5t160 -71.5zM1792 -20q-123 0 -213 82.5t-90 222t90 221.5t214 82t212 -82t88 -221.5t-89 -222t-212 -82.5z M1794 49q96 0 155.5 72t59.5 165t-59.5 163.5t-155.5 70.5t-159.5 -71.5t-63.5 -162.5t63.5 -164t159.5 -73z" glyph-name="perthousand" horiz-adv-x="2185" unicode="‰"/><glyph d="M485 -37l-413 424v12l417 437l56 -54l-361 -385l361 -377z" glyph-name="guilsinglleft" horiz-adv-x="677" unicode="‹"/><glyph d="M193 836l413 -424v-13l-418 -436l-55 53l361 385l-361 377z" glyph-name="guilsinglright" horiz-adv-x="677" unicode="›"/><glyph d="M-430 0l1102 1436l45 -35l-1096 -1432z" glyph-name="fraction" horiz-adv-x="286" unicode="⁄"/><glyph d="M351 920q-122 0 -200.5 100t-78.5 249.5t78.5 249t201.5 99.5t201 -99.5t78 -247.5t-79 -249.5t-201 -101.5zM351 979q93 0 145.5 92t52.5 201t-52.5 199t-145.5 90t-146 -85t-53 -205t53 -206t146 -86z" glyph-name="uni2070" horiz-adv-x="702" unicode="⁰"/><glyph d="M573 1112v-55h-77v-117h-72v117h-354l-19 20l426 541l19 -10l2 -496h75zM424 1112v340l-264 -340h264z" glyph-name="uni2074" horiz-adv-x="655" unicode="⁴"/><glyph d="M504 1599v-59h-287l-20 -199q165 76 259.5 -1.5t96.5 -183.5t-73.5 -171t-193.5 -65t-204 86l35 47l16 -2q63 -68 168 -68q68 0 124 45t56 121t-52 119t-130 43t-160 -74l-18 10l37 352h346z" glyph-name="uni2075" horiz-adv-x="657" unicode="⁵"/><glyph d="M319.5 920q-94.5 0 -166 67.5t-71.5 214.5q0 197 114.5 302.5t278.5 105.5l10 -56l-10 -10q-106 6 -207.5 -66.5t-111.5 -230.5q23 41 72.5 66.5t117.5 25.5t133.5 -56t65.5 -149t-65.5 -153.5t-160 -60.5zM318 977q64 0 110.5 45t46.5 110.5t-47.5 107.5t-107.5 42 t-109 -45t-49 -106.5t46 -107.5t110 -46z" glyph-name="uni2076" horiz-adv-x="616" unicode="⁶"/><glyph d="M82 1540v59h457l14 -20l-272 -639h-88l266 600h-377z" glyph-name="uni2077" horiz-adv-x="614" unicode="⁷"/><glyph d="M323 922q-116 0 -183.5 58t-67.5 132t34.5 127t92.5 72q-33 16 -55.5 57t-22.5 94t55.5 104.5t145.5 51.5t145 -51t55 -105t-22.5 -94.5t-55.5 -56.5q55 -14 91 -67.5t36 -128.5t-66 -134t-182 -59zM494 1131q0 58 -45.5 106.5t-127 48.5t-126.5 -48t-45 -106t44 -106.5 t129 -46.5t128 48t43 104zM323 1333q58 0 93 37t35 80t-32.5 76t-96.5 33t-95.5 -33t-31.5 -76t35 -80t93 -37z" glyph-name="uni2078" horiz-adv-x="643" unicode="⁸"/><glyph d="M297 1618q94 0 166 -67.5t72 -215.5q0 -197 -115 -302t-279 -105l-10 55l10 10q106 -6 208 67t112 230q-23 -41 -73 -66.5t-118 -25.5t-133 56.5t-65 149.5t65.5 153.5t159.5 60.5zM298 1561q-64 0 -110.5 -45.5t-46.5 -111t47.5 -107.5t107.5 -42t109.5 45.5t49.5 106.5 t-46.5 107.5t-110.5 46.5z" glyph-name="uni2079" horiz-adv-x="616" unicode="⁹"/><glyph d="M351 -227q-122 0 -200.5 100t-78.5 249.5t78.5 249t201.5 99.5t201 -99.5t78 -247.5t-79 -249.5t-201 -101.5zM351 -168q93 0 145.5 92t52.5 201t-52.5 199t-145.5 90t-146 -85t-53 -205t53 -206t146 -86z" glyph-name="uni2080" horiz-adv-x="702" unicode="₀"/><glyph d="M233 -207v567l-106 -59l-35 55l197 115h18v-678h-74z" glyph-name="uni2081" horiz-adv-x="471" unicode="₁"/><glyph d="M324 469q80 0 144 -56.5t64 -164.5t-104 -212.5t-201 -182.5h332v-60h-489l-9 19q233 186 293 249q100 105 100 187t-39 118t-95 38t-101 -24t-65 -65h-11l-49 29q27 55 88.5 90t141.5 35z" glyph-name="uni2082" horiz-adv-x="641" unicode="₂"/><glyph d="M117 453h413l9 -19l-172 -241q80 -4 138 -56.5t58 -142.5t-63.5 -155.5t-190.5 -65.5q-74 0 -139.5 29.5t-87.5 58.5l37 47h18q72 -72 158 -72t139 43t53 117t-63.5 117t-163.5 20l-12 14l178 246h-309v60z" glyph-name="uni2083" horiz-adv-x="665" unicode="₃"/><glyph d="M573 -35v-55h-77v-117h-72v117h-354l-19 20l426 541l19 -10l2 -496h75zM424 -35v340l-264 -340h264z" glyph-name="uni2084" horiz-adv-x="655" unicode="₄"/><glyph d="M504 453v-60h-287l-20 -198q164 76 259 -2.5t97 -184.5t-73.5 -170.5t-193.5 -64.5t-204 86l35 47l16 -2q63 -68 168 -68q68 0 124 45t56 121t-52 119t-130 43t-160 -74l-18 10l37 353h346z" glyph-name="uni2085" horiz-adv-x="657" unicode="₅"/><glyph d="M319.5 -227q-94.5 0 -166 67.5t-71.5 214.5q0 197 114.5 302.5t278.5 105.5l10 -55l-10 -11q-106 6 -207.5 -66.5t-111.5 -230.5q23 41 72.5 67t117.5 26t133.5 -56.5t65.5 -149.5t-65.5 -153.5t-160 -60.5zM318 -170q64 0 110.5 45t46.5 110.5t-47.5 107.5t-107.5 42 t-109 -45t-49 -106.5t46 -107.5t110 -46z" glyph-name="uni2086" horiz-adv-x="616" unicode="₆"/><glyph d="M82 393v60h457l14 -21l-272 -639h-88l266 600h-377z" glyph-name="uni2087" horiz-adv-x="614" unicode="₇"/><glyph d="M323 -227q-116 0 -183.5 57.5t-67.5 131.5t34.5 127.5t92.5 72.5q-33 16 -55.5 57t-22.5 94t55.5 104.5t145.5 51.5t145 -50.5t55 -104.5t-22.5 -95t-55.5 -57q55 -14 91 -68t36 -128t-66 -133.5t-182 -59.5zM494 -18q0 58 -45.5 106.5t-127 48.5t-126.5 -48t-45 -106 t44 -106.5t129 -46.5t128 48t43 104zM323 184q58 0 93 37t35 80t-32.5 76t-96.5 33t-95.5 -33t-31.5 -76t35 -80t93 -37z" glyph-name="uni2088" horiz-adv-x="643" unicode="₈"/><glyph d="M297 463q94 0 166 -67.5t72 -215.5q0 -197 -115 -302t-279 -105l-10 55l10 10q106 -6 208 66.5t112 230.5q-23 -41 -73 -66.5t-118 -25.5t-133 56.5t-65 149.5t65.5 153.5t159.5 60.5zM298 406q-64 0 -110.5 -45.5t-46.5 -111t47.5 -107.5t107.5 -42t109.5 45t49.5 106.5 t-46.5 108t-110.5 46.5z" glyph-name="uni2089" horiz-adv-x="616" unicode="₉"/><glyph d="M41 766v10l10 66h154q51 231 238 375.5t433 144.5t474 -180l-56 -68q-207 174 -421 174t-369.5 -127t-202.5 -319h735v-11l-10 -65h-739q-8 -74 -8 -108t10 -97h706v-10l-10 -64h-684q47 -186 209 -313t362 -127q258 0 445 162l53 -59q-102 -88 -215 -133.5t-293 -45.5 q-231 0 -417.5 144.5t-239.5 371.5h-205v11l10 63h178q-8 74 -8 102.5t8 102.5h-147z" glyph-name="Euro" horiz-adv-x="1431" unicode="€"/><glyph d="M553 -29q-160 0 -242 122t-84 294v27q-66 -51 -127 -105l-49 47q131 109 176 152v524q0 250 85 356.5t201 106.5t177.5 -87t61.5 -220q0 -319 -437 -711v-53q0 -186 72 -283.5t176 -97.5q175 0 281 205l57 -33q-63 -129 -146 -186.5t-202 -57.5zM315 1047v-476 q365 365 365 610t-172 244q-78 0 -135.5 -91.5t-57.5 -286.5z" glyph-name="afii61289" horiz-adv-x="911" unicode="ℓ"/><glyph d="M987 1335h84v-1335h-84v641l-719 547v-1188h-84v1348l15 14l788 -610v583zM1530 750q-123 0 -213 82.5t-90 224t90 223.5t214 82t213 -82t89 -223.5t-90 -224t-213 -82.5zM1532 819q96 0 155.5 73t59.5 166t-59.5 164.5t-155.5 71.5t-158.5 -72.5t-62.5 -163.5t62.5 -165 t158.5 -74zM1425 366q0 48 29 78.5t76 30.5t78.5 -30.5t31.5 -78.5t-31.5 -78t-78.5 -30t-76 30t-29 78z" glyph-name="afii61352" horiz-adv-x="1884" unicode="№"/><glyph d="M1094 864q0 -135 -117 -193.5t-262 -35.5v-273h-84v719q205 39 334 -21.5t129 -195.5zM1004 866q0 84 -76 125t-213 23v-303q131 -23 210 24t79 131zM82 716.5q0 313.5 207 531.5t530.5 218t530 -218t206.5 -530t-206.5 -529.5t-530 -217.5t-530.5 216t-207 529.5z M166 716.5q0 -278.5 185.5 -475t468 -196.5t469 197.5t186.5 475.5t-186.5 476.5t-469 198.5t-468 -199t-185.5 -477.5z" glyph-name="uni2117" horiz-adv-x="1638" unicode="℗"/><glyph d="M907 676h-76v762l19 8l321 -393l338 393l19 -8v-762h-74v592l-278 -328h-15l-254 307v-571zM404 1376q-84 0 -130.5 -34.5t-46.5 -100.5q0 -32 11.5 -45.5t17.5 -22t20.5 -16.5t22.5 -13t27.5 -11.5t27.5 -9.5t96.5 -29t148.5 -77t60 -145t-74.5 -149t-196.5 -55 t-176 32.5t-68.5 41t-16.5 10.5l41 67q29 -23 95.5 -51.5t134.5 -28.5t124 32t56 94t-41 98t-157 67t-175.5 80t-59.5 137t64.5 143.5t164.5 55.5t138.5 -14.5t46.5 -17.5t31.5 -15.5t27.5 -14.5l-36 -69q-94 61 -178 61z" glyph-name="uni2120" horiz-adv-x="1640" unicode="℠"/><glyph d="M643 1438v-70h-235v-692h-82v692h-234v70h551zM846 676h-76v762l18 8l322 -393l338 393l18 -8v-762h-73v592l-279 -328h-14l-254 307v-571z" glyph-name="trademark" horiz-adv-x="1579" unicode="™"/><glyph d="M848 47q180 0 347 78t257 201l57 -54q-111 -147 -283.5 -224t-377.5 -77q-340 0 -553 215.5t-213 527.5t212 532t513 220t511 -215t218 -516l-1223 -2v-418q190 -268 535 -268zM813 1380q-154 0 -283 -64.5t-217 -180.5v-328h1004v313q-88 123 -219 191.5t-285 68.5z" glyph-name="estimated" horiz-adv-x="1617" unicode="℮"/><glyph d="M2015 754v-76h-1784l215 -223l-53 -52l-291 306v12l291 307l53 -51l-215 -223h1784z" glyph-name="arrowleft" horiz-adv-x="2117" unicode="←"/><glyph d="M494 -268h-76v1784l-223 -216l-52 54l308 291h12l305 -291l-51 -54l-223 216v-1784z" glyph-name="arrowup" horiz-adv-x="911" unicode="↑"/><glyph d="M102 678v76h1784l-215 223l53 51l291 -307v-12l-291 -306l-53 52l215 223h-1784z" glyph-name="arrowright" horiz-adv-x="2117" unicode="→"/><glyph d="M418 1440h76v-1784l223 215l51 -53l-307 -291h-12l-306 291l52 53l223 -215v1784z" glyph-name="arrowdown" horiz-adv-x="911" unicode="↓"/><glyph d="M502 -25q-180 0 -305 118t-125 306t116.5 310t300.5 122q106 0 212 -52t155 -161q-49 340 -232.5 540t-435.5 239l-14 14l21 55q276 -33 442 -213t233.5 -375.5t67.5 -439.5q-2 -211 -129 -337t-307 -126zM499 47q140 0 241.5 101.5t101.5 249.5t-98 256t-252 108 t-245 -104t-91 -256t101.5 -253.5t241.5 -101.5z" glyph-name="partialdiff" horiz-adv-x="1009" unicode="∂"/><glyph d="M1223 0h-1162l572 1466h29zM645 1264l-455 -1170h897z" glyph-name="uni2206" horiz-adv-x="1284" unicode="∆"/><glyph d="M1014 -319v1681h-735v-1681h-95v1757h922v-1757h-92z" glyph-name="product" horiz-adv-x="1290" unicode="∏"/><glyph d="M1051 -244v-75h-930l-8 18l653 860l-653 860l8 19h893v-76h-762l612 -799v-8l-608 -799h795z" glyph-name="summation" horiz-adv-x="1122" unicode="∑"/><glyph d="M821 657h-719v76h719v-76z" glyph-name="minus" horiz-adv-x="923" unicode="−"/><glyph d="M1040 1645l-493 -2169h-19l-297 827l-155 -57l-25 69l238 91l233 -668l432 1927z" glyph-name="radical" horiz-adv-x="1071" unicode="√"/><glyph d="M1159 938q113 0 190.5 -68.5t77.5 -179t-77.5 -178.5t-192.5 -68q-158 0 -399 187q-240 -186 -398 -187q-115 0 -191.5 69t-76.5 181t78 178t192 66q156 0 398 -188q243 188 399 188zM1162 854q-77 0 -151.5 -42t-185.5 -128q207 -166 334 -166q80 0 134.5 45t54.5 124 t-54.5 123t-131.5 44zM357 528q77 0 152 42t185 128q-207 166 -334 166q-82 0 -135 -44t-53 -124t54 -124t131 -44z" glyph-name="infinity" horiz-adv-x="1519" unicode="∞"/><glyph d="M338 1417v-1702q0 -152 -96.5 -216t-231.5 -25l10 71q88 -35 161 13t71 157l2 1702q0 152 96 216.5t232 23.5l-11 -72q-88 35 -160.5 -13t-72.5 -155z" glyph-name="integral" horiz-adv-x="591" unicode="∫"/><glyph d="M342 940q55 0 172 -58.5t168 -58.5q115 0 158 111l67 -23q-51 -160 -233 -159q-59 0 -181 57t-159 57q-117 0 -154 -104l-74 22q51 156 236 156zM342 645q55 0 172 -58.5t168 -58.5q117 0 158 105l67 -23q-51 -156 -233 -155q-59 0 -181 57t-159 57q-115 0 -154 -106 l-74 22q53 160 236 160z" glyph-name="approxequal" horiz-adv-x="1013" unicode="≈"/><glyph d="M102 508v74h310l77 225h-387v76h412l117 346l88 -29l-111 -317h271v-76h-297l-76 -225h373v-74h-398l-131 -383l-84 27l121 356h-285z" glyph-name="notequal" horiz-adv-x="980" unicode="≠"/><glyph d="M918 465l-834 293v18l834 293v-82l-642 -219l642 -221v-82zM123 307v74h795v-74h-795z" glyph-name="lessequal" horiz-adv-x="1060" unicode="≤"/><glyph d="M977 758l-834 -293v80l641 221l-641 219v84l834 -293v-18zM938 307h-795v74h795v-74z" glyph-name="greaterequal" horiz-adv-x="1060" unicode="≥"/><glyph d="M541 -29l-490 742l500 753h27l491 -743l-500 -752h-28zM156 723l399 -612l406 600l-402 620z" glyph-name="lozenge" horiz-adv-x="1120" unicode="◊"/><glyph d="M563 1362q225 0 348 -194.5t123 -497.5t-123 -501t-348 -198t-348 198t-123 501t123 497.5t348 194.5zM563 47q178 0 277.5 180.5t99.5 443.5t-99.5 442t-277.5 179t-278.5 -180t-100.5 -442t100.5 -442.5t278.5 -180.5z" glyph-name="zero.oldstyle.lnum" horiz-adv-x="1126"/><glyph d="M209 76h362v1136l-331 -165l-35 75l438 230h21v-1276h333v-76h-788v76z" glyph-name="one.oldstyle.lnum" horiz-adv-x="1126"/><glyph d="M535 1362q156 0 276.5 -105t121.5 -297t-120 -366t-479 -518h635v-76h-830l-10 18q346 315 451 431q264 285 264 497q0 162 -92.5 248t-199.5 88t-188 -44t-131 -110h-18l-49 58q156 176 369 176z" glyph-name="two.oldstyle.lnum" horiz-adv-x="1126"/><glyph d="M193 1333h706l10 -18l-364 -531q168 14 297 -92t129 -294t-120 -307.5t-319 -119.5q-106 0 -191 20.5t-107.5 33t-79.5 47.5l30 67l19 2q129 -98 323 -98q133 0 244 92t111 260t-128 264.5t-333 47.5l-17 14l369 532h-579v80z" glyph-name="three.oldstyle.lnum" horiz-adv-x="1126"/><glyph d="M834 348h192v-76h-192v-272h-93v272h-651l-18 27l743 1061l19 -8v-1004zM741 348v770l-528 -770h528z" glyph-name="four.oldstyle.lnum" horiz-adv-x="1126"/><glyph d="M881 1333v-78h-523l-53 -497q51 37 160.5 54t193.5 -1q123 -29 209 -142.5t88 -280.5t-117.5 -292t-338.5 -125q-131 0 -226.5 33t-134.5 72l29 69l18 2q43 -39 125 -69.5t189 -30.5q152 0 258 97.5t106 257.5t-95 253t-237 93q-96 0 -183 -43t-128 -89l-18 11l73 706 h605z" glyph-name="five.oldstyle.lnum" horiz-adv-x="1126"/><glyph d="M552 -29q-188 0 -307.5 135.5t-121.5 352.5q0 217 70.5 394t181 282.5t234.5 164t243 62.5l14 -70l-16 -14q-215 -8 -402.5 -196.5t-211.5 -446.5q51 88 144 133t191 45q182 0 302 -114.5t120 -302.5t-126.5 -306.5t-314.5 -118.5zM562 47q146 0 241.5 102.5t95.5 246 t-92 243.5t-241 100t-246 -100t-97 -243.5t96.5 -246t242.5 -102.5z" glyph-name="six.oldstyle.lnum" horiz-adv-x="1126"/><glyph d="M164 1257v76h811l14 -20l-592 -1313h-102l579 1257h-710z" glyph-name="seven.oldstyle.lnum" horiz-adv-x="1126"/><glyph d="M563 -29q-195 0 -322.5 118t-127.5 300q0 135 79.5 242.5t206.5 136.5q-178 82 -178 279q0 137 97.5 225t245.5 88t244.5 -89t96.5 -224q0 -197 -178 -277q127 -29 207 -137.5t80 -243.5q0 -182 -128 -300t-323 -118zM565.5 47q159.5 0 257 99.5t97.5 242.5t-99.5 240.5 t-260.5 97.5t-257 -97.5t-96 -240.5t99.5 -242.5t259 -99.5zM565.5 797q110.5 0 180 74.5t69.5 171t-70.5 171t-181.5 74.5t-181.5 -74t-70.5 -170t72 -171.5t182.5 -75.5z" glyph-name="eight.oldstyle.lnum" horiz-adv-x="1126"/><glyph d="M574 1362q188 0 307 -135t121 -353t-69 -394.5t-181.5 -282t-234.5 -164t-243 -62.5l-14 70l16 14q215 8 402.5 196.5t212.5 446.5q-51 -88 -144.5 -133t-191.5 -45q-182 0 -302 115t-120 302t126.5 306t314.5 119zM564 1286q-146 0 -241.5 -102.5t-95.5 -245.5 t92.5 -243.5t240.5 -100.5t245.5 100.5t97.5 243.5t-96.5 245.5t-242.5 102.5z" glyph-name="nine.oldstyle.lnum" horiz-adv-x="1126"/><glyph d="M545 -29q-215 0 -339 151.5t-124 354.5t125 352.5t340 149.5t339 -149.5t124 -352.5t-125 -354.5t-340 -151.5zM548 41q171 0 273.5 134t102.5 302t-105.5 300t-276.5 132t-273.5 -132t-102.5 -299t105.5 -302t276.5 -135z" glyph-name="zero.oldstyle.pnum" horiz-adv-x="1091"/><glyph d="M317 0v850l-139 -72l-35 66l238 135h20v-979h-84z" glyph-name="one.oldstyle.pnum" horiz-adv-x="647"/><glyph d="M506 977q131 0 236.5 -80t105.5 -244q0 -90 -34 -142t-53.5 -81t-65.5 -68.5t-68.5 -61t-84 -63.5t-97.5 -68.5t-150 -94.5h606v-74h-817l-12 31q59 41 236 152.5t315.5 224.5t138.5 243q0 131 -82 191.5t-172 62.5t-178 -56t-125 -138l-21 -2l-53 41q47 98 145.5 162.5 t229.5 64.5z" glyph-name="two.oldstyle.pnum" horiz-adv-x="1003"/><glyph d="M137 961h682l10 -19l-364 -475q156 20 288 -86.5t132 -281.5t-126 -281.5t-323 -106.5q-143 0 -205.5 19.5t-117.5 42.5l20 65l19 -2q12 -4 55 -18.5t86 -26.5t165 -12t230.5 86.5t108.5 238.5t-135.5 244t-337.5 29l-17 14l381 496h-551v74z" glyph-name="three.oldstyle.pnum" horiz-adv-x="1017"/><glyph d="M817 70h182v-70h-182v-268h-86v268h-661l-19 27l748 966l18 -8v-915zM731 70v704l-543 -704h543z" glyph-name="four.oldstyle.pnum" horiz-adv-x="1091"/><glyph d="M813 963v-76h-508l-57 -436q66 43 161 56t177 -7q127 -29 209 -129.5t84 -262.5t-116.5 -279.5t-314.5 -117.5t-356 90l25 62l18 2q123 -84 285 -84t267.5 89.5t105.5 241.5t-93.5 240t-241.5 88t-294 -131l-19 10l84 644h584z" glyph-name="five.oldstyle.pnum" horiz-adv-x="1013"/><glyph d="M489 -29q-175 0 -290 127t-116 326t50 351.5t129 240.5t209 165.5t311 67.5l21 -63l-15 -15q-82 10 -178 -19.5t-186 -93t-155.5 -177t-78.5 -254.5q119 160 320 159q158 0 274.5 -109.5t116.5 -292.5t-118.5 -298t-293.5 -115zM497 41q132 0 224 100.5t92 243.5 t-88 238.5t-224 95.5t-232.5 -97.5t-96.5 -236.5t96.5 -241.5t228.5 -102.5z" glyph-name="six.oldstyle.pnum" horiz-adv-x="983"/><glyph d="M82 887v76h770l14 -21l-581 -1210h-101l566 1155h-668z" glyph-name="seven.oldstyle.pnum" horiz-adv-x="948"/><glyph d="M511 -29q-181 0 -300 108.5t-119 280.5q0 133 86 229.5t184 110.5q-164 90 -163 265q0 131 91 208.5t220 77.5t221 -77.5t92 -208.5q0 -172 -161 -263q98 -14 181 -111t83 -231q0 -174 -117 -281.5t-298 -107.5zM514 41q141 0 233.5 92t92.5 224t-99.5 219.5t-231.5 87.5 t-228.5 -87.5t-96.5 -218.5t94.5 -224t235.5 -93zM513 739q99 0 163.5 64.5t64.5 157t-67.5 159t-164.5 66.5t-160.5 -66.5t-63.5 -159t64.5 -157t163.5 -64.5z" glyph-name="eight.oldstyle.pnum" horiz-adv-x="1017"/><glyph d="M495 991q175 0 289.5 -127.5t115.5 -325.5t-50 -350.5t-129 -240.5t-209 -166t-311 -68l-21 64l15 14q82 -10 178 19.5t186 93t155.5 177.5t78.5 255q-119 -160 -320 -160q-158 0 -274.5 109t-116.5 293t119 298.5t294 114.5zM486 922q-132 0 -224 -100.5t-92 -244 t88 -238.5t224 -95t232.5 97t96.5 236.5t-96.5 242t-228.5 102.5z" glyph-name="nine.oldstyle.pnum" horiz-adv-x="983"/><glyph d="M516 -29q-197 0 -309.5 146.5t-112.5 359.5t114 357.5t310.5 144.5t309 -144.5t112.5 -358.5t-113.5 -359.5t-310.5 -145.5zM519 41q161 0 248 132t87 304t-89 302t-251 130q-111 0 -223.5 -95.5t-112.5 -336.5q0 -170 90 -303t251 -133z" glyph-name="zero.oldstyle" horiz-adv-x="1034"/><glyph d="M195 0v74h309v776l-258 -133l-35 65l356 197h21v-905h252v-74h-645z" glyph-name="one.oldstyle" horiz-adv-x="1034"/><glyph d="M516 977q131 0 242.5 -80t111.5 -244q0 -108 -52 -175.5t-86 -104.5t-95.5 -85t-97 -74t-107.5 -74t-96 -66h575v-74h-796l-13 31q57 41 221 143t312.5 224t148.5 253t-88 191.5t-183 62.5t-183 -60.5t-129 -135.5l-21 -2l-55 43q53 92 156.5 159.5t234.5 67.5z" glyph-name="two.oldstyle" horiz-adv-x="1034"/><glyph d="M156 961h682l10 -19l-365 -475q156 20 288 -86.5t132 -281.5t-126 -281.5t-322 -106.5q-144 0 -206.5 19.5t-117.5 42.5l21 65l18 -2q12 -4 55 -18.5t86 -26.5t166 -12t230.5 86.5t107.5 238.5t-135 244t-338 29l-16 14l381 496h-551v74z" glyph-name="three.oldstyle" horiz-adv-x="1034"/><glyph d="M737 70h172v-70h-172v-268h-86v268h-590l-18 27l676 966l18 -8v-915zM651 70v686l-471 -686h471z" glyph-name="four.oldstyle" horiz-adv-x="1034"/><glyph d="M813 963v-76h-508l-57 -436q66 43 161 56t177 -7q127 -29 209 -129.5t84 -262.5t-116.5 -279.5t-314.5 -117.5t-356 90l25 62l18 2q123 -84 285 -84t267.5 89.5t105.5 241.5t-93.5 240t-241.5 88t-294 -131l-19 10l84 644h584z" glyph-name="five.oldstyle" horiz-adv-x="1034"/><glyph d="M521 -29q-175 0 -289.5 127t-115.5 326t50 351.5t129 240.5t208.5 165.5t311.5 67.5l21 -63l-15 -15q-82 10 -178 -19.5t-186 -93t-155.5 -177t-78.5 -254.5q119 160 320 159q158 0 274.5 -109.5t116.5 -292.5t-119 -298t-294 -115zM529 41q132 0 224.5 100.5t92.5 243.5 t-88 238.5t-224 95.5t-232.5 -97.5t-96.5 -236.5t96 -241.5t228 -102.5z" glyph-name="six.oldstyle" horiz-adv-x="1034"/><glyph d="M121 887v76h811l14 -21l-620 -1210h-101l600 1155h-704z" glyph-name="seven.oldstyle" horiz-adv-x="1034"/><glyph d="M519 -29q-181 0 -300 108.5t-119 280.5q0 133 86 229.5t185 110.5q-164 90 -164 265q0 131 91 208.5t220 77.5t221 -77.5t92 -208.5q0 -172 -161 -263q98 -14 181 -111t83 -231q0 -174 -117 -281.5t-298 -107.5zM522.5 41q141.5 0 233.5 92t92 224t-99.5 219.5 t-231.5 87.5t-228 -87.5t-96 -218.5t94 -224t235.5 -93zM521 739q99 0 164 64.5t65 157t-68 159t-165 66.5t-160.5 -66.5t-63.5 -159t64.5 -157t163.5 -64.5z" glyph-name="eight.oldstyle" horiz-adv-x="1034"/><glyph d="M513 991q175 0 290 -127.5t116 -325.5t-50.5 -350.5t-129 -240.5t-209.5 -165.5t-311 -68.5l-20 64l14 14q174 -21 314.5 77.5t206 212.5t77.5 255q-119 -160 -319 -160q-158 0 -275 109t-117 293t119 298.5t294 114.5zM505 922q-132 0 -224.5 -100.5t-92.5 -244 t88.5 -238.5t224.5 -95t232 97t96 236.5t-96 242t-228 102.5z" glyph-name="nine.oldstyle" horiz-adv-x="1034"/><glyph d="M351 715q-122 0 -200.5 100t-78.5 249.5t78.5 249t201.5 99.5t201 -99.5t78 -247.5t-79 -249.5t-201 -101.5zM351 774q93 0 145.5 92t52.5 201t-52.5 199t-145.5 90t-146 -85t-53 -205t53 -206t146 -86z" glyph-name="zero.numr" horiz-adv-x="702"/><glyph d="M233 735v568l-106 -60l-35 55l197 115h18v-678h-74z" glyph-name="one.numr" horiz-adv-x="471"/><glyph d="M324 1411q80 0 144 -56.5t64 -164.5t-104 -212.5t-201 -182.5h332v-60h-489l-9 19q233 186 293 250q100 106 100 187t-39 118t-95 38t-101 -25t-65 -65h-11l-49 29q27 55 88.5 90t141.5 35z" glyph-name="two.numr" horiz-adv-x="641"/><glyph d="M117 1395h413l9 -19l-172 -241q80 -4 138 -56.5t58 -142.5t-63.5 -155.5t-190.5 -65.5q-74 0 -139.5 29.5t-87.5 58.5l37 47h18q72 -72 158 -72t139 43t53 117t-63.5 117t-163.5 20l-12 15l178 245h-309v60z" glyph-name="three.numr" horiz-adv-x="665"/><glyph d="M573 907v-55h-77v-117h-72v117h-354l-19 20l426 541l19 -10l2 -496h75zM424 907v340l-264 -340h264z" glyph-name="four.numr" horiz-adv-x="655"/><glyph d="M504 1395v-60h-287l-20 -198q164 76 259 -2.5t97 -184.5t-73.5 -170.5t-193.5 -64.5t-204 86l35 47l16 -2q63 -68 168 -68q68 0 124 45t56 121t-52 119t-130 43t-160 -74l-18 10l37 353h346z" glyph-name="five.numr" horiz-adv-x="657"/><glyph d="M319.5 715q-94.5 0 -166 67.5t-71.5 214.5q0 197 114.5 302.5t278.5 105.5l10 -55l-10 -11q-106 6 -207.5 -66.5t-111.5 -230.5q23 41 72.5 67t117.5 26t133.5 -56.5t65.5 -149.5t-65.5 -153.5t-160 -60.5zM318 772q64 0 110.5 45t46.5 110.5t-47.5 107.5t-107.5 42 t-109 -45t-49 -106.5t46 -107.5t110 -46z" glyph-name="six.numr" horiz-adv-x="616"/><glyph d="M82 1335v60h457l14 -21l-272 -639h-88l266 600h-377z" glyph-name="seven.numr" horiz-adv-x="614"/><glyph d="M323 717q-116 0 -183.5 58.5t-67.5 132.5t34.5 126.5t92.5 71.5q-33 16 -55.5 57t-22.5 94t55.5 104.5t145.5 51.5t145 -50.5t55 -104.5t-22.5 -95t-55.5 -57q55 -14 91 -68t36 -128t-66 -133.5t-182 -59.5zM494 926q0 58 -45.5 106.5t-127 48.5t-126.5 -48t-45 -106 t44 -106.5t129 -46.5t128 48t43 104zM323 1128q58 0 93 37t35 80t-32.5 76t-96.5 33t-95.5 -33t-31.5 -76t35 -80t93 -37z" glyph-name="eight.numr" horiz-adv-x="643"/><glyph d="M297 1413q94 0 166 -67.5t72 -215.5q0 -197 -115 -302t-279 -105l-10 55l10 10q106 -6 208 67t112 230q-23 -41 -73 -66.5t-118 -25.5t-133 56.5t-65 149.5t65.5 153.5t159.5 60.5zM298 1356q-64 0 -110.5 -45t-46.5 -110.5t47.5 -107.5t107.5 -42t109.5 45t49.5 106.5 t-46.5 107.5t-110.5 46z" glyph-name="nine.numr" horiz-adv-x="616"/><glyph d="M351 -20q-122 0 -200.5 100t-78.5 249.5t78.5 249t201.5 99.5t201 -99.5t78 -247.5t-79 -249.5t-201 -101.5zM351 39q93 0 145.5 92t52.5 201t-52.5 199t-145.5 90t-146 -85t-53 -205t53 -206t146 -86z" glyph-name="zero.dnom" horiz-adv-x="702"/><glyph d="M233 0v567l-106 -59l-35 55l197 115h18v-678h-74z" glyph-name="one.dnom" horiz-adv-x="471"/><glyph d="M324 676q80 0 144 -57t64 -165t-106.5 -214.5t-198.5 -180.5h332v-59h-489l-9 18q233 186 293 250q100 106 100 188t-39 118t-95 37t-101 -24.5t-65 -64.5h-11l-49 29q27 55 88.5 90t141.5 35z" glyph-name="two.dnom" horiz-adv-x="641"/><glyph d="M117 659h413l9 -18l-172 -242q80 -4 138 -56t58 -142t-63.5 -155.5t-190.5 -65.5q-74 0 -139.5 29.5t-87.5 58.5l37 47h18q72 -72 158 -72t139 43t53 117t-63.5 116.5t-163.5 20.5l-12 14l178 246h-309v59z" glyph-name="three.dnom" horiz-adv-x="665"/><glyph d="M573 172v-55h-77v-117h-72v117h-354l-19 20l426 541l19 -10l2 -496h75zM424 172v340l-264 -340h264z" glyph-name="four.dnom" horiz-adv-x="655"/><glyph d="M504 659v-59h-287l-20 -199q165 76 259.5 -1.5t96.5 -183.5t-73.5 -171t-193.5 -65t-204 86l35 47l16 -2q63 -68 168 -68q68 0 124 45t56 121t-52 119t-130 43t-160 -74l-18 10l37 352h346z" glyph-name="five.dnom" horiz-adv-x="657"/><glyph d="M319.5 -20q-94.5 0 -166 67.5t-71.5 214.5q0 197 114.5 302.5t278.5 105.5l10 -56l-10 -10q-106 6 -207.5 -66.5t-111.5 -230.5q23 41 72.5 66.5t117.5 25.5t133.5 -56t65.5 -149t-65.5 -153.5t-160 -60.5zM318 37q64 0 110.5 45t46.5 110.5t-47.5 107.5t-107.5 42 t-109 -45t-49 -106.5t46 -107.5t110 -46z" glyph-name="six.dnom" horiz-adv-x="616"/><glyph d="M82 600v59h457l14 -20l-272 -639h-88l266 600h-377z" glyph-name="seven.dnom" horiz-adv-x="614"/><glyph d="M323 -18q-116 0 -183.5 58t-67.5 132t34.5 127t92.5 72q-33 16 -55.5 57t-22.5 94t55.5 104.5t145.5 51.5t145 -51.5t55 -104.5t-22.5 -94t-55.5 -57q55 -14 91 -67.5t36 -128.5t-66 -134t-182 -59zM494 191q0 58 -45.5 106.5t-127 48.5t-126.5 -48t-45 -106t44 -106.5 t129 -46.5t128 48t43 104zM323 393q58 0 93 37t35 80t-32.5 75.5t-96.5 32.5t-95.5 -32.5t-31.5 -75.5t35 -80t93 -37z" glyph-name="eight.dnom" horiz-adv-x="643"/><glyph d="M297 678q94 0 166 -67.5t72 -215.5q0 -197 -115 -302t-279 -105l-10 55l10 10q106 -6 208 67t112 230q-23 -41 -73 -66.5t-118 -25.5t-133 56.5t-65 149.5t65.5 153.5t159.5 60.5zM298 621q-64 0 -110.5 -45.5t-46.5 -111t47.5 -107.5t107.5 -42t109.5 45.5t49.5 106.5 t-46.5 107.5t-110.5 46.5z" glyph-name="nine.dnom" horiz-adv-x="616"/><glyph d="M626.5 1466q241.5 0 387 -214t145.5 -529t-146.5 -533.5t-386 -218.5t-387 218.5t-147.5 533.5t146.5 529t388 214zM626.5 47q198.5 0 316.5 199.5t118 477.5t-118 474.5t-316.5 196.5t-317.5 -197t-119 -474t119 -477t317.5 -200z" glyph-name="zero.case" horiz-adv-x="1251"/><glyph d="M315 0v1327l-139 -72l-33 76l246 135h19v-1466h-93z" glyph-name="one.case" horiz-adv-x="653"/><glyph d="M528 1466q182 0 305 -117.5t124 -330.5t-146 -416t-514 -526h686v-76h-870l-11 18q35 33 140.5 128.5t143.5 131t124 118.5t171.5 188.5t134 212t48.5 215.5q0 184 -93 278t-241 96q-94 2 -183 -44t-134 -105h-18l-45 59q152 170 378 170z" glyph-name="two.case" horiz-adv-x="1126"/><glyph d="M156 1438h747l8 -19l-399 -569q180 4 320.5 -112.5t140.5 -314.5t-127 -325t-346 -127q-106 0 -192.5 16.5t-113 28t-81.5 37.5l24 68l19 2q6 -2 35.5 -16.5t88 -38t214.5 -23.5q155 0 272 99.5t117 275.5t-144.5 283.5t-355.5 62.5l-16 16l403 576h-614v80z" glyph-name="three.case" horiz-adv-x="1085"/><glyph d="M834 348h233v-76h-233v-272h-93v272h-671l-19 27l764 1167l19 -10v-1108zM741 348v860l-551 -860h551z" glyph-name="four.case" horiz-adv-x="1138"/><glyph d="M895 1438v-76h-561l-60 -526q63 43 176 55t191 -10q156 -41 243 -159t89 -293t-127 -316.5t-376 -141.5t-357 86l24 70l19 2q127 -82 312 -82t298 111.5t113 281.5t-101.5 276.5t-275.5 106.5q-82 0 -155 -28.5t-95.5 -47t-63.5 -55.5l-18 8l84 738h641z" glyph-name="five.case" horiz-adv-x="1087"/><glyph d="M562 -29q-196 0 -321.5 135.5t-126.5 342.5t65 436.5t263.5 388.5t429.5 190l21 -65l-14 -15q-147 -16 -283.5 -101t-241 -243.5t-133.5 -359.5q51 94 152.5 144t204.5 50q190 0 314 -133t124 -324t-129 -318.5t-325 -127.5zM570 47q150 0 251 108.5t101 261.5 t-98.5 267.5t-249.5 114.5t-258 -117t-107 -266.5t105.5 -259t255.5 -109.5z" glyph-name="six.case" horiz-adv-x="1128"/><glyph d="M113 1362v76h845l13 -21l-588 -1417h-107l582 1362h-745z" glyph-name="seven.case" horiz-adv-x="1042"/><glyph d="M582 -29q-205 0 -337 130t-132 323q0 145 79.5 262t210.5 154q-74 33 -124 115.5t-50 177.5q0 145 102.5 239t250.5 94t251 -95t103 -238q0 -94 -51 -177.5t-125 -113.5q131 -37 212 -155t81 -263q0 -193 -133 -323t-338 -130zM585 47q159 0 266 113.5t107 265.5 t-110 262.5t-270 110.5t-265.5 -110.5t-105.5 -262.5t109.5 -265.5t268.5 -113.5zM584 868q121 0 191.5 81t70.5 181t-73 181.5t-195 81.5t-190.5 -81.5t-68.5 -181.5t72 -181t193 -81z" glyph-name="eight.case" horiz-adv-x="1165"/><glyph d="M566 1464q196 0 322 -135t127 -342t-65 -437t-263.5 -388t-430.5 -191l-20 66l14 14q147 16 283.5 101.5t241 244t132.5 359.5q-51 -94 -152.5 -144.5t-203.5 -50.5q-190 0 -314 132.5t-124 324.5t128.5 319t324.5 127zM558 1389q-150 0 -250.5 -109.5t-100.5 -261.5 t98 -266.5t249 -114.5t258.5 116.5t107.5 266t-106 259.5t-256 110z" glyph-name="nine.case" horiz-adv-x="1128"/><glyph d="M580 1466q160 0 325.5 -150t165.5 -593q0 -324 -128 -538t-363.5 -214t-364.5 215t-129 536.5t128 532.5t366 211zM579.5 47q194.5 0 294 194.5t99.5 481.5t-99.5 479.5t-293.5 192.5q-133 0 -264.5 -138.5t-131.5 -533.5q0 -287 100.5 -481.5t295 -194.5z" glyph-name="zero.oldstyle.lnum.case" horiz-adv-x="1157"/><glyph d="M211 76h362v1251l-331 -166l-35 76l438 229h21v-1390h333v-76h-788v76z" glyph-name="one.oldstyle.lnum.case" horiz-adv-x="1157"/><glyph d="M516 1466q180 0 309 -112t130 -312t-155.5 -416t-529.5 -550h734v-76h-912l-10 18q356 328 442 416q336 345 336 590q0 174 -99 267t-243 95q-94 2 -186 -45t-139 -104h-19l-49 55q70 72 174 123t217 51z" glyph-name="two.oldstyle.lnum.case" horiz-adv-x="1157"/><glyph d="M186 1438h748l8 -19l-399 -569q180 4 320.5 -112.5t140.5 -314.5t-127 -325t-347 -127q-106 0 -192 16.5t-112.5 28t-82.5 37.5l25 68l18 2q6 -2 36 -16.5t86.5 -38t213.5 -23.5q158 0 274.5 99.5t116.5 275.5t-144 283.5t-355 62.5l-17 16l404 576h-615v80z" glyph-name="three.oldstyle.lnum.case" horiz-adv-x="1157"/><glyph d="M846 348h233v-76h-233v-272h-92v272h-672l-19 27l764 1167l19 -10v-1108zM754 348v860l-551 -860h551z" glyph-name="four.oldstyle.lnum.case" horiz-adv-x="1157"/><glyph d="M913 1438v-76h-561l-59 -526q63 43 176 55t190 -10q156 -41 243 -159t89 -293t-127 -316.5t-376 -141.5t-357 86l25 70l18 2q129 -82 313 -82t297 111.5t113 281.5t-101.5 276.5t-275.5 106.5q-82 0 -154.5 -28.5t-95 -47t-63.5 -55.5l-19 8l84 738h641z" glyph-name="five.oldstyle.lnum.case" horiz-adv-x="1157"/><glyph d="M576 -29q-196 0 -321.5 135.5t-126.5 342.5t46 371.5t123 275t217.5 225t374.5 145.5l18 -14v-68q-242 -25 -434 -214t-237 -490q51 94 152 144t204 50q190 0 314 -133t124 -324t-129 -318.5t-325 -127.5zM586 47q150 0 250 108.5t100 261.5t-99 267.5t-249 114.5 t-257.5 -117t-107.5 -266.5t106.5 -259t256.5 -109.5z" glyph-name="six.oldstyle.lnum.case" horiz-adv-x="1157"/><glyph d="M131 1362v76h887l12 -21l-588 -1417h-106l582 1362h-787z" glyph-name="seven.oldstyle.lnum.case" horiz-adv-x="1157"/><glyph d="M577 -29q-205 0 -336.5 130t-131.5 323q0 145 79.5 262t210.5 154q-74 33 -124 115.5t-50 177.5q0 145 102.5 239t250.5 94t251 -95t103 -238q0 -94 -51.5 -177.5t-124.5 -113.5q131 -37 212 -155t81 -263q0 -193 -133.5 -323t-338.5 -130zM581 47q159 0 266 113.5 t107 265.5t-109.5 262.5t-270.5 110.5t-266 -110.5t-105 -262.5t109.5 -265.5t268.5 -113.5zM579.5 868q120.5 0 191.5 81t71 181t-73 181.5t-195 81.5t-190.5 -81.5t-68.5 -181.5t72 -181t192.5 -81z" glyph-name="eight.oldstyle.lnum.case" horiz-adv-x="1157"/><glyph d="M581 1466q196 0 321.5 -135t126.5 -342t-64.5 -436t-263.5 -389t-433 -193l-16 17v67q242 25 433.5 213.5t236.5 489.5q-49 -94 -151.5 -144.5t-203.5 -50.5q-190 0 -315 132.5t-125 324.5t129 319t325 127zM574 1391q-150 0 -251.5 -109.5t-101.5 -261.5t99.5 -266.5 t249.5 -114.5t257 115.5t107 265.5t-105 260.5t-255 110.5z" glyph-name="nine.oldstyle.lnum.case" horiz-adv-x="1157"/><glyph d="M113 83q0 46 28.5 75.5t73.5 29.5t76 -30.5t31 -75.5t-31 -73.5t-76 -28.5t-73.5 28.5t-28.5 74.5zM113 959q0 46 28.5 76t73.5 30t76 -30.5t31 -76t-31 -74t-76 -28.5t-73.5 28.5t-28.5 74.5z" glyph-name="colon.case" horiz-adv-x="434"/><glyph d="M72 -293l73 475h160l4 -20l-194 -465zM117 959q0 46 28.5 76t73.5 30t76 -30.5t31 -76t-31 -74t-76 -28.5t-73.5 28.5t-28.5 74.5z" glyph-name="semicolon.case" horiz-adv-x="438"/><glyph d="M563 700l-461 -59v86l461 59v-86z" glyph-name="hyphen.case" horiz-adv-x="665"/><glyph d="M821 676h-719v76h719v-76z" glyph-name="endash.case" horiz-adv-x="923"/><glyph d="M1384 676h-1282v76h1282v-76z" glyph-name="emdash.case" horiz-adv-x="1486"/><glyph d="M164 734q0 58 40 99t97 41t98 -40.5t41 -98t-41 -97.5t-99 -40t-97 39t-39 97z" glyph-name="bullet.case" horiz-adv-x="604"/><glyph d="M274 354l-47 1084h127l-45 -1084h-35zM184 79q0 48 30 78.5t77 30.5t78.5 -30.5t31.5 -78.5t-31.5 -78t-78.5 -30t-77 30t-30 78z" glyph-name="exclam.case" horiz-adv-x="585"/><glyph d="M227 0l47 1083h35l45 -1083h-127zM184 1359q0 48 30 77.5t77 29.5t78.5 -29.5t31.5 -77.5t-31.5 -79t-78.5 -31t-77 31t-30 79z" glyph-name="exclamdown.case" horiz-adv-x="585"/><glyph d="M432 1380q-96 0 -164.5 -57t-95.5 -152l-80 31q27 104 114 179t224 75t233.5 -97t96.5 -247t-86 -252t-171 -207t-81 -299h-62q-27 203 53.5 311.5t165.5 213.5t85 226q0 122 -68 198.5t-164 76.5zM293 79q0 48 28.5 78.5t75.5 30.5t79 -30.5t32 -78.5t-32 -78t-79 -30 t-75.5 30t-28.5 78z" glyph-name="question.case" horiz-adv-x="851"/><glyph d="M420 47q96 0 164.5 57.5t95.5 151.5l80 -31q-27 -104 -114 -179t-224 -75t-233.5 97.5t-96.5 247.5t86 252t171 207t81 298h62q27 -203 -53.5 -311.5t-165.5 -213.5t-85 -226q0 -122 68 -198.5t164 -76.5zM559 1349q0 -48 -28.5 -79t-75.5 -31t-79 30.5t-32 78.5t32 78 t79 30t75.5 -29.5t28.5 -77.5z" glyph-name="questiondown.case" horiz-adv-x="851"/><glyph d="M591 1391q-83 0 -137.5 -55.5t-54.5 -131.5t13.5 -121.5t44.5 -89.5l499 -708l189 207l65 -60l-194 -217l155 -215h-116l-105 145l-59 -55q-70 -70 -199 -101.5t-263 -5t-206 112.5q-111 125 -98.5 313.5t149.5 299.5l164 143l-78 125q-68 106 -51 235q35 254 297 254 q88 0 164 -54t109 -130l-78 -37q-20 49 -73.5 97.5t-136.5 48.5zM221.5 405.5q-10.5 -143.5 76.5 -249.5t253 -101.5t276 111.5l62 53l-400 561l-157 -141q-100 -90 -110.5 -233.5z" glyph-name="ampersand.case" horiz-adv-x="1323"/><glyph d="M82 395v74h231l131 506h-219v76h238l96 385h96l-96 -385h262l99 385h96l-98 -385h202v-76h-221l-131 -506h209v-74h-227l-99 -395h-94l96 395h-262l-100 -395h-94l98 395h-213zM539 975l-129 -506h264l129 506h-264z" glyph-name="numbersign.case" horiz-adv-x="1202"/><glyph d="M485 272l-413 424v13l417 436l56 -53l-361 -385l361 -377z" glyph-name="guilsinglleft.case" horiz-adv-x="677"/><glyph d="M193 1145l413 -424v-12l-418 -437l-55 54l361 385l-361 376z" glyph-name="guilsinglright.case" horiz-adv-x="677"/><glyph d="M485 272l-413 424v13l417 436l56 -53l-361 -385l361 -377zM823 272l-413 424v13l417 436l56 -53l-361 -385l361 -377z" glyph-name="guillemotleft.case" horiz-adv-x="1015"/><glyph d="M193 1145l413 -424v-12l-418 -437l-55 54l361 385l-361 376zM530 1145l414 -424v-12l-418 -437l-55 54l360 385l-360 376z" glyph-name="guillemotright.case" horiz-adv-x="1015"/><glyph d="M164 724q0 251 102.5 476t272.5 389l43 -33q-324 -381 -324 -831q0 -262 94.5 -484t229.5 -382l-43 -33q-168 174 -271.5 410.5t-103.5 487.5z" glyph-name="parenleft.case" horiz-adv-x="729"/><glyph d="M471 725q0 451 -324 831l43 33q170 -164 272.5 -389t102.5 -476t-103.5 -487.5t-271.5 -410.5l-43 33q135 160 229.5 382t94.5 484z" glyph-name="parenright.case" horiz-adv-x="729"/><glyph d="M279 -70h290v-75h-385v1706h385v-76l-290 -2v-1553z" glyph-name="bracketleft.case" horiz-adv-x="692"/><glyph d="M414 1485h-291v76h385v-1706h-385v75l291 2v1553z" glyph-name="bracketright.case" horiz-adv-x="692"/><glyph d="M434 981q0 -199 -112 -272q115 -70 114 -271v-225q0 -117 44 -205.5t220 -70.5l9 -80q-221 -12 -294 87.5t-73 256.5v235q0 174 -62.5 206t-125.5 32h-52v71h50q128 0 158 71.5t30 166.5v231q0 271 129 311t240 34l-11 -80q-179 12 -221.5 -75t-42.5 -202v-221z" glyph-name="braceleft.case" horiz-adv-x="831"/><glyph d="M397 434q0 199 113 273q-115 70 -115 270v225q0 120 -43.5 206.5t-220.5 70.5l-8 80q222 12 294 -87.5t72 -257.5v-235q0 -173 62.5 -205.5t126.5 -32.5h51v-71h-49q-128 0 -158 -71.5t-30 -166.5v-231q0 -269 -129.5 -310t-239.5 -34l10 80q181 -12 222.5 74t41.5 202 v221z" glyph-name="braceright.case" horiz-adv-x="831"/><glyph d="M440 1720h95v-252q133 -14 270 -92l-37 -80q-57 35 -113 65t-170 30t-186 -73t-72 -183t93.5 -196t205.5 -165q164 -111 251 -216.5t82 -249.5t-93 -233t-231 -102v-249h-95v249q-84 4 -150.5 27t-98 44.5t-78.5 59.5l47 86q51 -45 86 -69.5t97.5 -47t133.5 -22.5 q137 0 216 82t79 195t-70.5 182.5t-111.5 100t-164 113.5t-206 179t-83 223t76 225.5t227 114.5v254z" glyph-name="dollar.case" horiz-adv-x="974"/><glyph d="M184 526v76h178q-16 33 -75.5 128t-89 175t-29.5 172q0 172 103.5 280.5t275.5 108.5q96 0 180 -35.5t129 -87.5l-59 -59q-101 104 -237 104t-217 -87t-81 -224q0 -92 35 -173t88 -165t74 -137h239v-76h-209q33 -96 15.5 -206.5t-82.5 -190.5q104 -82 256 -82 q92 0 173 44t107 104l64 -48q-41 -94 -138.5 -135t-203.5 -41q-187 0 -320 95q-106 -66 -127 -66h-127l-14 80q186 -4 278.5 136t20.5 310h-207z" glyph-name="sterling.case" horiz-adv-x="1073"/><glyph d="M948 -29q-268 0 -461.5 160t-250.5 408h-236v10l10 63h211q-6 48 -6 98t8 128h-182v10l10 65h187q63 250 261.5 401.5t458.5 151.5q174 0 298 -54t235 -144l-51 -66q-207 186 -482 187q-215 0 -385 -132.5t-229 -343.5h764v-10l-10 -65h-770q-21 -135 -2 -226h741v-10 l-10 -63h-717q57 -215 228 -352.5t390 -137.5q133 0 267.5 50t230.5 132l53 -63q-109 -92 -234.5 -144.5t-326.5 -52.5z" glyph-name="Euro.case" horiz-adv-x="1591"/><glyph d="M946 731h-340v-149h340v-76h-340v-506h-94v506h-342v76h342v149h-342v76h305l-424 631h111l403 -598l410 598h100l-432 -631h303v-76z" glyph-name="yen.case" horiz-adv-x="1126"/><glyph d="M172 0l1108 1479l68 -41l-1115 -1479zM1138 -20q-126 0 -215 79.5t-89 225t89 224.5t215 79t213 -79t87 -224.5t-87 -225t-213 -79.5zM1140 45q95 0 152.5 72.5t57.5 167t-57.5 167t-154 72.5t-157.5 -73.5t-61 -165.5t62.5 -166t157.5 -74zM396 856q-126 0 -215 80 t-89 225.5t90 225t216 79.5t213 -79.5t87 -225t-88 -225.5t-214 -80zM400 922q95 0 152.5 73.5t57.5 167.5t-57 166t-153 72t-158 -73t-62 -166t62.5 -166.5t157.5 -73.5z" glyph-name="percent.case" horiz-adv-x="1529"/><glyph d="M6 -139l586 1730l86 -28l-590 -1729z" glyph-name="slash.case" horiz-adv-x="684"/><glyph d="M390 1397q-84 0 -137.5 -52.5t-53.5 -128.5t54 -134t140 -91q266 -96 266 -282q0 -82 -45 -146.5t-118 -95.5q164 -74 163 -244q0 -121 -82.5 -186.5t-234.5 -65.5t-250 92l43 64q111 -84 227 -84q80 0 146.5 48t66.5 125t-54 128t-168 95t-182.5 108.5t-68.5 156.5 t42 159t126 93q-156 96 -155 256q0 111 72.5 182.5t189.5 71.5t246 -82l-43 -65q-106 78 -190 78zM186 732q0 -76 57.5 -133.5t135.5 -78.5q76 2 136 51.5t60 137.5q0 55 -48 110t-160 88q-70 -6 -125.5 -52.5t-55.5 -122.5z" glyph-name="section.case" horiz-adv-x="751"/><glyph d="M113 724q0 46 28.5 75.5t73.5 29.5t76 -30.5t31 -75.5t-31 -73.5t-76 -28.5t-73.5 28.5t-28.5 74.5z" glyph-name="periodcentered.case" horiz-adv-x="434"/><glyph d="M1028 1438h84v-1438h-84v698l-760 590v-1288h-84v1452l15 14l829 -653v625zM1571 842q-123 0 -213 83t-90 224t90 223t214 82t213 -82t89 -223t-90 -224t-213 -83zM1573 911q96 0 155.5 73t59.5 166t-59.5 164.5t-155.5 71.5t-158.5 -72.5t-62.5 -163.5t62.5 -165 t158.5 -74zM1466 417q0 48 29 78.5t76 30.5t78.5 -30.5t31.5 -78.5t-31.5 -78t-78.5 -30t-76 30t-29 78z" glyph-name="afii61352.case" horiz-adv-x="1925"/><glyph d="M111 0h-91l457 979h27l461 -979h-95l-114 242h-533zM489 817l-231 -500h463z" glyph-name="A.c2sc" horiz-adv-x="985"/><glyph d="M705 727q0 -137 -103 -205q76 -10 142.5 -78.5t66.5 -176.5t-52 -174t-153.5 -89.5t-211 -22.5t-261.5 19v963q194 45 330.5 9t189 -95.5t52.5 -149.5zM217 545h225q76 0 127.5 48t51.5 122q0 127 -123 170t-281 12v-352zM217 469v-399q167 -29 337.5 0.5t170.5 203.5 q0 94 -67.5 144.5t-161.5 50.5h-279z" glyph-name="B.c2sc" horiz-adv-x="872"/><glyph d="M563 45q94 0 181 36t143 85l49 -55q-133 -135 -381 -136q-193 0 -338 141.5t-145 365.5t144 364.5t347 140.5t346 -143l-51 -64q-47 57 -128 97.5t-171 40.5q-158 0 -278.5 -124t-120.5 -312t121.5 -312.5t281.5 -124.5z" glyph-name="C.c2sc" horiz-adv-x="997"/><glyph d="M626 28.5q-162 -75.5 -493 -28.5v963q331 42 491.5 -31t221.5 -195.5t61 -254.5q0 -131 -59.5 -254.5t-221.5 -199zM819 474q0 224 -160.5 341t-441.5 78v-825q281 -35 441.5 73.5t160.5 332.5z" glyph-name="D.c2sc" horiz-adv-x="978"/><glyph d="M745 74v-74h-612v963h588v-74h-502v-346h389v-74h-389v-395h526z" glyph-name="E.c2sc" horiz-adv-x="817"/><glyph d="M219 0h-86v963h588v-74h-502v-346h389v-74h-389v-469z" glyph-name="F.c2sc" horiz-adv-x="792"/><glyph d="M662 391v74h266l-2 -338q-121 -152 -367 -152q-205 0 -351.5 139.5t-146.5 367.5t141.5 366.5t350.5 138.5q94 0 189.5 -38t156.5 -103l-57 -64q-47 57 -125 96.5t-168 39.5q-162 0 -283 -124t-121 -312t125 -312.5t304 -124.5t268 119v227h-180z" glyph-name="G.c2sc" horiz-adv-x="1019"/><glyph d="M854 0h-86v469h-549v-469h-86v963h86v-420h549v420h86v-963z" glyph-name="H.c2sc" horiz-adv-x="987"/><glyph d="M133 0v963h84v-963h-84z" glyph-name="I.c2sc" horiz-adv-x="350"/><glyph d="M399 350v613h88v-613q0 -174 -78.5 -271t-285.5 -97v84q141 0 208.5 67t67.5 217z" glyph-name="J.c2sc" horiz-adv-x="641"/><glyph d="M217 963v-437l475 435h119l-512 -472l561 -489h-131l-512 438v-438h-84v963h84z" glyph-name="K.c2sc" horiz-adv-x="901"/><glyph d="M725 74v-74h-592v963h86v-889h506z" glyph-name="L.c2sc" horiz-adv-x="745"/><glyph d="M217 0h-84v973l19 10l423 -487l422 487l19 -10v-973h-84v780l-346 -393h-23l-346 393v-780z" glyph-name="M.c2sc" horiz-adv-x="1148"/><glyph d="M874 0h-79v416l-582 418v-834h-80v963l21 20l641 -461v441h79v-963z" glyph-name="N.c2sc" horiz-adv-x="1007"/><glyph d="M565 -25q-217 0 -355 148.5t-138 359.5t138 357.5t356 146.5t356.5 -147.5t138.5 -357.5t-139.5 -358.5t-356.5 -148.5zM568 45q179 0 292 136t113 303t-114 300.5t-297 133.5t-293.5 -133.5t-110.5 -299.5t115.5 -303t294.5 -137z" glyph-name="O.c2sc" horiz-adv-x="1132"/><glyph d="M737 651q0 -203 -155.5 -292t-358.5 -66v-293h-88l-2 958q102 29 210 23t196 -37t143 -107.5t55 -185.5zM649 651q0 102 -93 188t-333 50v-514q180 -18 303 52.5t123 223.5z" glyph-name="P.c2sc" horiz-adv-x="798"/><glyph d="M563 -25q-215 0 -353 148.5t-138 359.5t138 357.5t356 146.5t356.5 -147.5t138.5 -356.5q0 -133 -59.5 -246.5t-163.5 -181.5l112 -135l-59 -49l-121 145q-103 -41 -207 -41zM567 45q84 0 154 31l-125 151l59 49l133 -161q86 63 135.5 163.5t49.5 204.5q0 168 -114 301.5 t-297 133.5t-293.5 -133.5t-110.5 -299.5t115.5 -303t293.5 -137z" glyph-name="Q.c2sc" horiz-adv-x="1132"/><glyph d="M737 656q0 -108 -58 -187.5t-155 -118.5l342 -350h-127l-309 322q-100 -20 -207 -9v-313h-88l-2 958q214 57 355 6t195 -125.5t54 -182.5zM649 659q0 98 -89.5 183t-336.5 47v-496q180 -18 303 50.5t123 215.5z" glyph-name="R.c2sc" horiz-adv-x="886"/><glyph d="M178 733q0 -121 231 -203t275.5 -160.5t44.5 -138.5q0 -127 -96 -191.5t-219 -64.5t-209 26t-123 52l33 76q31 -27 119 -54.5t168 -27.5t161.5 49t81.5 135q0 131 -260 222q-293 100 -293 280q0 109 88 181.5t232 72.5t268 -55l-27 -74q-109 59 -260 60 q-80 0 -147.5 -48.5t-67.5 -136.5z" glyph-name="S.c2sc" horiz-adv-x="811"/><glyph d="M709 887h-297v-887h-86v887h-295v74h678v-74z" glyph-name="T.c2sc" horiz-adv-x="739"/><glyph d="M516 -25q-182 0 -282.5 119t-100.5 291v578h86v-578q0 -152 85 -244t210 -92t221 94.5t96 241.5v578h84v-582q0 -168 -108.5 -287t-290.5 -119z" glyph-name="U.c2sc" horiz-adv-x="1048"/><glyph d="M864 963h90l-436 -983h-26l-441 983h96l361 -811z" glyph-name="V.c2sc" horiz-adv-x="1005"/><glyph d="M1298 963h82l-340 -983h-26l-299 817l-299 -817h-29l-336 983h92l263 -781l299 801h28l293 -797z" glyph-name="W.c2sc" horiz-adv-x="1431"/><glyph d="M924 963l-379 -484l381 -479h-107l-334 412l-309 -412h-110l362 477l-367 486h115l316 -414l323 414h109z" glyph-name="X.c2sc" horiz-adv-x="987"/><glyph d="M440 0v381l-399 582h104l338 -490l340 490h99l-398 -578v-385h-84z" glyph-name="Y.c2sc" horiz-adv-x="962"/><glyph d="M819 74v-74h-725l-12 23l602 866h-573v74h702l8 -25l-596 -864h594z" glyph-name="Z.c2sc" horiz-adv-x="903"/><glyph d="M219 303l-57 660h147l-55 -660h-35zM133 83q0 46 28.5 75.5t74 29.5t76 -30.5t30.5 -75.5t-30.5 -73.5t-76 -28.5t-74 28.5t-28.5 74.5z" glyph-name="exclam.c2sc" horiz-adv-x="475"/><glyph d="M162 0l57 659h35l55 -659h-147zM133 880q0 46 28.5 74.5t74 28.5t76 -28.5t30.5 -73.5t-30.5 -76t-76 -31t-74 30t-28.5 76z" glyph-name="exclamdown.c2sc" horiz-adv-x="475"/><glyph d="M326 305h-52q-26 110 32.5 170t122 118t63.5 134t-55.5 126t-125.5 50q-111 0 -194 -74l-45 70q37 35 104.5 61.5t128.5 26.5q131 0 214 -74.5t83 -181.5t-69.5 -167t-138 -117t-68.5 -142zM197 83q0 46 28.5 75.5t73.5 29.5t76 -30.5t31 -75.5t-31 -73.5t-76 -28.5 t-73.5 28.5t-28.5 74.5z" glyph-name="question.c2sc" horiz-adv-x="653"/><glyph d="M369 657h51q26 -108 -32 -168.5t-121.5 -118.5t-63.5 -134t55 -126.5t125 -50.5q113 0 195 74l45 -70q-37 -35 -104.5 -61.5t-129.5 -26.5q-131 0 -214 75t-83 180t69.5 167t138.5 118.5t69 141.5zM498 880q0 -46 -29 -76t-74 -30t-75.5 31t-30.5 76t30.5 73.5t75.5 28.5 t74 -28.5t29 -74.5z" glyph-name="questiondown.c2sc" horiz-adv-x="653"/><glyph d="M484 913q-58 0 -91 -37.5t-37 -102.5t68 -146l309 -363l166 148l51 -62l-168 -143l185 -207h-117l-135 145l-144 -108q-72 -53 -163 -60.5t-159.5 20.5t-102.5 71t-48 106.5t10.5 143t98.5 135.5l153 114l-36 49q-56 78 -52 174t62.5 146.5t147.5 50.5t137 -40t81 -126 l-84 -20q-10 45 -42 78.5t-90 33.5zM217 119q45 -59 141.5 -66.5t155.5 41.5l148 117l-250 293l-154 -119q-57 -43 -71.5 -120.5t30.5 -145.5z" glyph-name="ampersand.c2sc" horiz-adv-x="1017"/><glyph d="M51 283v71h215l62 244h-201v74h219l74 291h84l-70 -291h242l72 291h83l-69 -291h184v-74h-205l-61 -244h192v-71h-210l-74 -283h-82l72 283h-246l-76 -283h-82l74 283h-197zM414 598l-62 -244h244l59 244h-241z" glyph-name="numbersign.oldstyle" horiz-adv-x="997"/><glyph d="M340 1229h86v-244q102 -4 213 -53l-27 -74q-109 59 -239 60q-78 0 -136.5 -48.5t-58.5 -138.5q0 -133 213 -209q133 -47 215 -115.5t82 -182.5t-71.5 -176t-190.5 -75v-243h-86v241q-164 10 -258 82l33 76q33 -29 110.5 -57.5t156.5 -28.5t150.5 47t71.5 135 q0 137 -239 221q-272 94 -273 285q0 102 68.5 173t179.5 81v244z" glyph-name="dollar.oldstyle" horiz-adv-x="770"/><glyph d="M616 346h-213q43 -150 -36 -223q104 -82 239 -82q92 0 168 44t103 103l61 -36q-43 -96 -135.5 -138.5t-178.5 -42.5t-140 11.5t-78.5 23.5t-56.5 31.5t-42 25.5q-81 -42 -143 -52.5t-78 -10.5l-14 74q85 4 146 27.5t106.5 80.5t-0.5 164h-152v70h113q-2 4 -33 50 t-57.5 95.5t-26.5 132.5q0 127 91 210t247 83q94 0 173 -37t126 -90l-49 -55q-109 113 -239 113t-197.5 -63.5t-67.5 -150.5t23.5 -132.5t59.5 -95.5t42 -60h239v-70z" glyph-name="sterling.oldstyle" horiz-adv-x="1009"/><glyph d="M608 45q110 0 196.5 36t141.5 85l49 -55q-133 -135 -381 -136q-156 0 -286.5 97.5t-177.5 261.5h-150v10l10 64h125q-4 44 -4 82t4 61h-94v10l10 66h99q43 166 174 263t299 97q203 0 346 -143l-51 -64q-47 57 -128 97.5t-188 40.5t-212 -80t-148 -211h538v-11l-10 -65 h-547q-4 -45 -4 -77t6 -66h514v-11l-10 -63h-487q43 -131 149.5 -210t216.5 -79z" glyph-name="Euro.oldstyle" horiz-adv-x="1056"/><glyph d="M440 0v174h-334v76h334v149h-334v76h275l-340 488h104l336 -488h2l340 488h99l-344 -488h284v-76h-338v-149h338v-76h-338v-174h-84z" glyph-name="yen.oldstyle" horiz-adv-x="962"/><glyph d="M188 0l756 1008l68 -41l-762 -1008zM269 516q-93 0 -165.5 61.5t-72.5 170t73.5 171t166.5 62.5t164 -62.5t71 -171t-72 -170t-165 -61.5zM270.5 582q65.5 0 108.5 52t43 114t-42 116t-109 54t-111.5 -54.5t-44.5 -114.5t45 -113.5t110.5 -53.5zM931 -29q-93 0 -166 61.5 t-73 170t74 171t167 62.5t163.5 -62.5t70.5 -171t-71.5 -170t-164.5 -61.5zM931.5 37q65.5 0 108.5 52.5t43 114.5t-42.5 115.5t-108.5 53.5t-111 -54.5t-45 -114.5t45 -113.5t110.5 -53.5z" glyph-name="percent.oldstyle" horiz-adv-x="1198"/><glyph d="M358 913q-59 0 -109 -29.5t-50 -86.5t46.5 -78.5t122.5 -44.5q76 -22 101 -32.5t86 -44.5t61 -132q0 -70 -21.5 -91.5t-26.5 -27.5t-17 -12t-26.5 -15.5t-20.5 -9.5q113 -49 112 -164q0 -174 -282 -174q-72 0 -142.5 27t-99.5 51l43 78q31 -27 90 -55.5t123 -28.5 t124 24.5t60 77.5q0 34 -12 48t-19 22t-23.5 17.5t-26 14.5t-32 12t-32.5 10t-35.5 11.5t-55.5 16.5q-61 16 -126.5 53.5t-65.5 120.5q0 129 134 170q-123 43 -123 166q0 88 71.5 131t189.5 43t206 -57l-39 -70q-70 59 -185 59zM186 481q0 -55 66.5 -89t163.5 -48 q93 30 106 58t13 55q0 117 -205 141q-55 -4 -99.5 -33t-44.5 -84z" glyph-name="section.oldstyle" horiz-adv-x="708"/><glyph d="M111 0h-91l457 979h27l461 -979h-95l-114 242h-533zM489 817l-231 -500h463zM709 1317v-21l-207 -221h-45l110 242h142z" glyph-name="Aacute.c2sc" horiz-adv-x="985"/><glyph d="M111 0h-91l457 979h27l461 -979h-95l-114 242h-533zM489 817l-231 -500h463zM250 1317h141l111 -242h-45l-207 221v21z" glyph-name="Agrave.c2sc" horiz-adv-x="985"/><glyph d="M111 0h-91l457 979h27l461 -979h-95l-114 242h-533zM489 817l-231 -500h463zM543 1317l159 -242h-55l-158 139l-157 -139h-56l160 242h107z" glyph-name="Acircumflex.c2sc" horiz-adv-x="985"/><glyph d="M111 0h-91l457 979h27l461 -979h-95l-114 242h-533zM489 817l-231 -500h463zM254 1195q0 40 23.5 64.5t63.5 24.5t64.5 -25.5t24.5 -64.5t-24.5 -62.5t-64.5 -23.5t-63.5 23.5t-23.5 63.5zM547 1194q0 39 24.5 64.5t63.5 25.5t64.5 -25.5t25.5 -64.5t-25.5 -62.5 t-64.5 -23.5t-63.5 23.5t-24.5 62.5z" glyph-name="Adieresis.c2sc" horiz-adv-x="985"/><glyph d="M111 0h-91l457 979h27l461 -979h-95l-114 242h-533zM489 817l-231 -500h463zM389 1266q37 0 106.5 -29t96.5 -29q55 0 88 49l55 -26q-31 -123 -143 -123q-37 0 -106.5 28.5t-100.5 28.5t-48.5 -10t-35.5 -41l-55 29q31 123 143 123z" glyph-name="Atilde.c2sc" horiz-adv-x="985"/><glyph d="M266 1123q0 87 63.5 150.5t158 63.5t158 -63.5t63.5 -149.5t-47.5 -145t-122.5 -76l426 -903h-95l-114 242h-533l-112 -242h-91l420 901q-78 16 -126 75.5t-48 146.5zM489 817l-231 -500h463zM342 1117q0 -62 41 -106t104.5 -44t104.5 44t41 106t-41 105.5t-104.5 43.5 t-104.5 -43.5t-41 -105.5z" glyph-name="Aring.c2sc" horiz-adv-x="985"/><glyph d="M111 0h-91l457 979h27l461 -979h-95l-114 242h-533zM489 817l-231 -500h463zM696 1157h-411v76h411v-76z" glyph-name="Amacron.c2sc" horiz-adv-x="985"/><glyph d="M111 0h-91l457 979h27l461 -979h-95l-114 242h-533zM489 817l-231 -500h463zM491 1075q-103 0 -151.5 77t-28.5 165h78q-12 -49 13.5 -109.5t89 -60.5t88 60.5t14.5 109.5h78q18 -88 -30 -165t-151 -77z" glyph-name="Abreve.c2sc" horiz-adv-x="985"/><glyph d="M817 -139q0 -92 81 -127t153 4l8 -70q-115 -47 -220.5 8.5t-105.5 184.5q0 72 41 115.5t82 52.5l-100 213h-533l-112 -242h-91l457 979h27l461 -979h-56q-39 -10 -65.5 -49t-26.5 -90zM489 817l-231 -500h463z" glyph-name="Aogonek.c2sc" horiz-adv-x="985"/><glyph d="M266 1123q0 87 63.5 150.5t157.5 63.5q43 0 86 -16l45 121h121v-21l-125 -121q94 -63 95 -182q0 -80 -47.5 -139t-122.5 -76l426 -903h-95l-114 242h-533l-112 -242h-91l420 901q-78 16 -126 75.5t-48 146.5zM489 817l-231 -500h463zM342 1117q0 -62 41 -106t104.5 -44 t104.5 44t41 106t-41 105.5t-104.5 43.5t-104.5 -43.5t-41 -105.5z" glyph-name="Aringacute.c2sc" horiz-adv-x="985"/><glyph d="M1421 74v-74h-612v242h-522l-215 -242h-113l848 963h590v-74h-502v-346h389v-74h-389v-395h526zM809 317v525l-455 -525h455z" glyph-name="AE.c2sc" horiz-adv-x="1492"/><glyph d="M1421 74v-74h-612v242h-522l-215 -242h-113l848 963h590v-74h-502v-346h389v-74h-389v-395h526zM809 317v525l-455 -525h455zM1153 1317v-21l-207 -221h-45l111 242h141z" glyph-name="AEacute.c2sc" horiz-adv-x="1492"/><glyph d="M573 41q82 0 175.5 38t140.5 83l47 -58q-109 -111 -305 -129q41 -51 41 -114q0 -129 -105.5 -184.5t-220.5 -8.5l8 70q72 -39 153 -4t81 116t-45 121q-197 10 -334 146.5t-137 361.5t143 362.5t350 137.5t344 -141l-55 -60q-47 55 -126 93t-169 38q-162 0 -282.5 -122.5 t-120.5 -310.5t124.5 -311.5t292.5 -123.5z" glyph-name="Ccedilla.c2sc" horiz-adv-x="997"/><glyph d="M563 45q94 0 181 36t143 85l49 -55q-133 -135 -381 -136q-193 0 -338 141.5t-145 365.5t144 364.5t347 140.5t346 -143l-51 -64q-47 57 -128 97.5t-171 40.5q-158 0 -278.5 -124t-120.5 -312t121.5 -312.5t281.5 -124.5zM743 1317v-21l-206 -221h-45l110 242h141z" glyph-name="Cacute.c2sc" horiz-adv-x="997"/><glyph d="M563 45q94 0 181 36t143 85l49 -55q-133 -135 -381 -136q-193 0 -338 141.5t-145 365.5t144 364.5t347 140.5t346 -143l-51 -64q-47 57 -128 97.5t-171 40.5q-158 0 -278.5 -124t-120.5 -312t121.5 -312.5t281.5 -124.5zM614 1317l160 -242h-55l-158 139l-158 -139h-55 l160 242h106z" glyph-name="Ccircumflex.c2sc" horiz-adv-x="997"/><glyph d="M563 45q94 0 181 36t143 85l49 -55q-133 -135 -381 -136q-193 0 -338 141.5t-145 365.5t144 364.5t347 140.5t346 -143l-51 -64q-47 57 -128 97.5t-171 40.5q-158 0 -278.5 -124t-120.5 -312t121.5 -312.5t281.5 -124.5zM471 1195q0 40 23.5 64.5t63.5 24.5t64.5 -25.5 t24.5 -64.5t-24.5 -62.5t-64.5 -23.5t-63.5 23.5t-23.5 63.5z" glyph-name="Cdotaccent.c2sc" horiz-adv-x="997"/><glyph d="M563 45q94 0 181 36t143 85l49 -55q-133 -135 -381 -136q-193 0 -338 141.5t-145 365.5t144 364.5t347 140.5t346 -143l-51 -64q-47 57 -128 97.5t-171 40.5q-158 0 -278.5 -124t-120.5 -312t121.5 -312.5t281.5 -124.5zM358 1317h50l153 -146l154 146h49v-21l-150 -221 h-106l-150 221v21z" glyph-name="Ccaron.c2sc" horiz-adv-x="997"/><glyph d="M195 469h-205v76h205v418q322 46 492 -29t236 -197.5t66 -252.5q0 -131 -64 -255t-231.5 -200t-498.5 -29v469zM279 545h286v-76h-286v-401q276 -35 449 74.5t173 330.5t-173 340t-449 80v-348z" glyph-name="Eth.c2sc" horiz-adv-x="1060"/><glyph d="M626 28.5q-162 -75.5 -493 -28.5v963q331 42 491.5 -31t221.5 -195.5t61 -254.5q0 -131 -59.5 -254.5t-221.5 -199zM819 474q0 224 -160.5 341t-441.5 78v-825q281 -35 441.5 73.5t160.5 332.5zM174 1317h49l154 -146l153 146h50v-21l-150 -221h-106l-150 221v21z" glyph-name="Dcaron.c2sc" horiz-adv-x="978"/><glyph d="M195 469h-205v76h205v418q322 46 492 -29t236 -197.5t66 -252.5q0 -131 -64 -255t-231.5 -200t-498.5 -29v469zM279 545h286v-76h-286v-401q276 -35 449 74.5t173 330.5t-173 340t-449 80v-348z" glyph-name="Dcroat.c2sc" horiz-adv-x="1060"/><glyph d="M745 74v-74h-612v963h588v-74h-502v-346h389v-74h-389v-395h526zM598 1317v-21l-207 -221h-45l111 242h141z" glyph-name="Eacute.c2sc" horiz-adv-x="817"/><glyph d="M745 74v-74h-612v963h588v-74h-502v-346h389v-74h-389v-395h526zM285 1317h141l111 -242h-45l-207 221v21z" glyph-name="Egrave.c2sc" horiz-adv-x="817"/><glyph d="M745 74v-74h-612v963h588v-74h-502v-346h389v-74h-389v-395h526zM479 1317l160 -242h-55l-158 139l-158 -139h-55l160 242h106z" glyph-name="Ecircumflex.c2sc" horiz-adv-x="817"/><glyph d="M745 74v-74h-612v963h588v-74h-502v-346h389v-74h-389v-395h526zM203 1195q0 40 23.5 64.5t62.5 24.5t64.5 -25.5t25.5 -64.5t-24.5 -62.5t-64.5 -23.5t-63.5 23.5t-23.5 63.5zM496 1194q0 39 24.5 64.5t63.5 25.5t64.5 -25.5t25.5 -64.5t-25.5 -62.5t-64.5 -23.5 t-63.5 23.5t-24.5 62.5z" glyph-name="Edieresis.c2sc" horiz-adv-x="817"/><glyph d="M745 74v-74h-612v963h588v-74h-502v-346h389v-74h-389v-395h526zM627 1157h-412v76h412v-76z" glyph-name="Emacron.c2sc" horiz-adv-x="817"/><glyph d="M745 74v-74h-612v963h588v-74h-502v-346h389v-74h-389v-395h526zM431 1075q-103 0 -151.5 77t-27.5 165h78q-12 -49 13.5 -109.5t89 -60.5t88 60.5t14.5 109.5h77q18 -88 -30 -165t-151 -77z" glyph-name="Ebreve.c2sc" horiz-adv-x="817"/><glyph d="M745 74v-74h-612v963h588v-74h-502v-346h389v-74h-389v-395h526zM338 1195q0 40 23.5 64.5t62.5 24.5t64.5 -25.5t25.5 -64.5t-24.5 -62.5t-64.5 -23.5t-63.5 23.5t-23.5 63.5z" glyph-name="Edotaccent.c2sc" horiz-adv-x="817"/><glyph d="M745 74v-74h-303q-39 -10 -65.5 -49t-26.5 -90q0 -92 81 -127t153 4l8 -70q-115 -47 -220.5 8.5t-105.5 184.5q0 90 66 139h-199v963h588v-74h-502v-346h389v-74h-389v-395h526z" glyph-name="Eogonek.c2sc" horiz-adv-x="817"/><glyph d="M745 74v-74h-612v963h588v-74h-502v-346h389v-74h-389v-395h526zM236 1317h49l153 -146l154 146h49v-21l-149 -221h-107l-149 221v21z" glyph-name="Ecaron.c2sc" horiz-adv-x="817"/><glyph d="M662 391v74h266l-2 -338q-121 -152 -367 -152q-205 0 -351.5 139.5t-146.5 367.5t141.5 366.5t350.5 138.5q94 0 189.5 -38t156.5 -103l-57 -64q-47 57 -125 96.5t-168 39.5q-162 0 -283 -124t-121 -312t125 -312.5t304 -124.5t268 119v227h-180zM594 1317l160 -242h-56 l-157 139l-158 -139h-55l159 242h107z" glyph-name="Gcircumflex.c2sc" horiz-adv-x="1019"/><glyph d="M662 391v74h266l-2 -338q-121 -152 -367 -152q-205 0 -351.5 139.5t-146.5 367.5t141.5 366.5t350.5 138.5q94 0 189.5 -38t156.5 -103l-57 -64q-47 57 -125 96.5t-168 39.5q-162 0 -283 -124t-121 -312t125 -312.5t304 -124.5t268 119v227h-180zM544 1075 q-103 0 -151.5 77t-27.5 165h77q-12 -49 13.5 -109.5t89 -60.5t88 60.5t14.5 109.5h78q18 -88 -30 -165t-151 -77z" glyph-name="Gbreve.c2sc" horiz-adv-x="1019"/><glyph d="M662 391v74h266l-2 -338q-121 -152 -367 -152q-205 0 -351.5 139.5t-146.5 367.5t141.5 366.5t350.5 138.5q94 0 189.5 -38t156.5 -103l-57 -64q-47 57 -125 96.5t-168 39.5q-162 0 -283 -124t-121 -312t125 -312.5t304 -124.5t268 119v227h-180zM451 1195 q0 40 23.5 64.5t63.5 24.5t64.5 -25.5t24.5 -64.5t-24.5 -62.5t-64.5 -23.5t-63.5 23.5t-23.5 63.5z" glyph-name="Gdotaccent.c2sc" horiz-adv-x="1019"/><glyph d="M662 391v74h266l-2 -338q-121 -152 -367 -152q-205 0 -351.5 139.5t-146.5 367.5t141.5 366.5t350.5 138.5q94 0 189.5 -38t156.5 -103l-57 -64q-47 57 -125 96.5t-168 39.5q-162 0 -283 -124t-121 -312t125 -312.5t304 -124.5t268 119v227h-180zM420 -457l74 322h149 l4 -21l-184 -311z" glyph-name="Gcommaaccent.c2sc" horiz-adv-x="1019"/><glyph d="M854 0h-86v469h-549v-469h-86v963h86v-420h549v420h86v-963zM553 1317l160 -242h-56l-157 139l-158 -139h-55l159 242h107z" glyph-name="Hcircumflex.c2sc" horiz-adv-x="987"/><glyph d="M854 0h-86v469h-549v-469h-86v696h-92v76h92v191h86v-191h549v191h86v-191h92v-76h-92v-696zM219 543h549v153h-549v-153z" glyph-name="Hbar.c2sc" horiz-adv-x="987"/><glyph d="M133 0v963h84v-963h-84zM385 1317v-21l-207 -221h-45l111 242h141z" glyph-name="Iacute.c2sc" horiz-adv-x="350"/><glyph d="M133 0v963h84v-963h-84zM229 1317l160 -242h-55l-158 139l-158 -139h-55l160 242h106z" glyph-name="Icircumflex.c2sc" horiz-adv-x="350"/><glyph d="M133 0v963h84v-963h-84zM-59 1197q0 40 23.5 64.5t62.5 24.5t64.5 -24.5t25.5 -64.5t-24.5 -63.5t-64.5 -23.5t-63.5 23.5t-23.5 63.5zM233 1196q0 39 25.5 64.5t63.5 25.5t64 -25.5t26 -64.5t-26 -62.5t-65 -23.5t-63.5 23.5t-24.5 62.5z" glyph-name="Idieresis.c2sc" horiz-adv-x="350"/><glyph d="M133 0v963h84v-963h-84zM-35 1317h141l111 -242h-45l-207 221v21z" glyph-name="Igrave.c2sc" horiz-adv-x="350"/><glyph d="M133 0v963h84v-963h-84zM72 1266q37 0 106.5 -29t95.5 -29q55 0 88 49l56 -26q-31 -123 -144 -123q-37 0 -106.5 28.5t-99.5 28.5t-48 -10t-36 -41l-56 29q31 123 144 123z" glyph-name="Itilde.c2sc" horiz-adv-x="350"/><glyph d="M133 0v963h84v-963h-84zM381 1157h-412v76h412v-76z" glyph-name="Imacron.c2sc" horiz-adv-x="350"/><glyph d="M133 0v963h84v-963h-84zM175 1075q-103 0 -151.5 77t-27.5 165h78q-12 -49 13.5 -109.5t89 -60.5t88 60.5t14.5 109.5h77q18 -88 -30 -165t-151 -77z" glyph-name="Ibreve.c2sc" horiz-adv-x="350"/><glyph d="M133 963h84v-963h-31q-39 -10 -65.5 -49t-26.5 -90q0 -92 82 -127t152 4l8 -70q-115 -47 -220.5 8.5t-105.5 184.5q0 72 41 116t82 52v934z" glyph-name="Iogonek.c2sc" horiz-adv-x="350"/><glyph d="M133 0v963h84v-963h-84zM88 1195q0 40 23.5 64.5t62.5 24.5t64.5 -25.5t25.5 -64.5t-24.5 -62.5t-64.5 -23.5t-63.5 23.5t-23.5 63.5z" glyph-name="Idotaccent.c2sc" horiz-adv-x="350"/><glyph d="M133 0v963h84v-963h-84zM748 350v613h88v-613q0 -174 -79 -271t-286 -97v84q141 0 209 67t68 217z" glyph-name="IJ.c2sc" horiz-adv-x="989"/><glyph d="M399 350v613h88v-613q0 -174 -78.5 -271t-285.5 -97v84q141 0 208.5 67t67.5 217zM498 1317l159 -242h-55l-158 139l-157 -139h-56l160 242h107z" glyph-name="Jcircumflex.c2sc" horiz-adv-x="641"/><glyph d="M217 963v-437l475 435h119l-512 -472l561 -489h-131l-512 438v-438h-84v963h84zM297 -457l74 322h149l4 -21l-184 -311z" glyph-name="Kcommaaccent.c2sc" horiz-adv-x="901"/><glyph d="M735 74v-74h-602v416l-129 -68l-31 74l160 84v457h86v-410l150 80l30 -78l-180 -94v-387h516z" glyph-name="Lslash.c2sc" horiz-adv-x="755"/><glyph d="M725 74v-74h-592v963h86v-889h506zM395 1317v-21l-207 -221h-45l111 242h141z" glyph-name="Lacute.c2sc" horiz-adv-x="745"/><glyph d="M725 74v-74h-592v963h86v-889h506zM276 -457l74 322h150l4 -21l-185 -311z" glyph-name="Lcommaaccent.c2sc" horiz-adv-x="745"/><glyph d="M725 74v-74h-592v963h86v-889h506zM487 487l74 476h160l4 -21l-195 -465z" glyph-name="Lcaron.c2sc" horiz-adv-x="745"/><glyph d="M725 74v-74h-592v963h86v-889h506zM516 497q0 46 28.5 75.5t74 29.5t76 -30.5t30.5 -75.5t-30.5 -74t-76 -29t-74 29t-28.5 75z" glyph-name="Ldot.c2sc" horiz-adv-x="745"/><glyph d="M874 0h-79v416l-582 418v-834h-80v963l21 20l641 -461v441h79v-963zM408 1266q37 0 106.5 -29t95.5 -29q55 0 88 49l56 -26q-31 -123 -144 -123q-37 0 -106.5 28.5t-99.5 28.5t-48.5 -10t-36.5 -41l-55 29q31 123 144 123z" glyph-name="Ntilde.c2sc" horiz-adv-x="1007"/><glyph d="M874 0h-79v416l-582 418v-834h-80v963l21 20l641 -461v441h79v-963zM682 1317v-21l-207 -221h-45l111 242h141z" glyph-name="Nacute.c2sc" horiz-adv-x="1007"/><glyph d="M874 0h-79v416l-582 418v-834h-80v963l21 20l641 -461v441h79v-963zM358 -457l74 322h150l4 -21l-185 -311z" glyph-name="Ncommaaccent.c2sc" horiz-adv-x="1007"/><glyph d="M874 0h-79v416l-582 418v-834h-80v963l21 20l641 -461v441h79v-963zM297 1317h49l154 -146l153 146h49v-21l-149 -221h-107l-149 221v21z" glyph-name="Ncaron.c2sc" horiz-adv-x="1007"/><glyph d="M795 -266v682l-582 418v-834h-80v963l21 20l641 -461v441h79v-1219q0 -145 -87 -221t-234 -43l10 71q100 -20 166 32.5t66 150.5z" glyph-name="Eng.c2sc" horiz-adv-x="1007"/><glyph d="M565 -25q-217 0 -355 148.5t-138 359.5t138 357.5t356 146.5t356.5 -147.5t138.5 -357.5t-139.5 -358.5t-356.5 -148.5zM568 45q179 0 292 136t113 303t-114 300.5t-297 133.5t-293.5 -133.5t-110.5 -299.5t115.5 -303t294.5 -137zM772 1317v-21l-207 -221h-45l111 242 h141z" glyph-name="Oacute.c2sc" horiz-adv-x="1132"/><glyph d="M565 -25q-217 0 -355 148.5t-138 359.5t138 357.5t356 146.5t356.5 -147.5t138.5 -357.5t-139.5 -358.5t-356.5 -148.5zM568 45q179 0 292 136t113 303t-114 300.5t-297 133.5t-293.5 -133.5t-110.5 -299.5t115.5 -303t294.5 -137zM377 1317h141l111 -242h-45l-207 221 v21z" glyph-name="Ograve.c2sc" horiz-adv-x="1132"/><glyph d="M565 -25q-217 0 -355 148.5t-138 359.5t138 357.5t356 146.5t356.5 -147.5t138.5 -357.5t-139.5 -358.5t-356.5 -148.5zM568 45q179 0 292 136t113 303t-114 300.5t-297 133.5t-293.5 -133.5t-110.5 -299.5t115.5 -303t294.5 -137zM614 1317l160 -242h-55l-158 139 l-158 -139h-55l160 242h106z" glyph-name="Ocircumflex.c2sc" horiz-adv-x="1132"/><glyph d="M565 -25q-217 0 -355 148.5t-138 359.5t138 357.5t356 146.5t356.5 -147.5t138.5 -357.5t-139.5 -358.5t-356.5 -148.5zM568 45q179 0 292 136t113 303t-114 300.5t-297 133.5t-293.5 -133.5t-110.5 -299.5t115.5 -303t294.5 -137zM326 1195q0 40 23.5 64.5t62.5 24.5 t64.5 -25.5t25.5 -64.5t-24.5 -62.5t-64.5 -23.5t-63.5 23.5t-23.5 63.5zM618 1194q0 39 25 64.5t64 25.5t64.5 -25.5t25.5 -64.5t-26.5 -62.5t-64.5 -23.5t-63 23.5t-25 62.5z" glyph-name="Odieresis.c2sc" horiz-adv-x="1132"/><glyph d="M565 -25q-217 0 -355 148.5t-138 359.5t138 357.5t356 146.5t356.5 -147.5t138.5 -357.5t-139.5 -358.5t-356.5 -148.5zM568 45q179 0 292 136t113 303t-114 300.5t-297 133.5t-293.5 -133.5t-110.5 -299.5t115.5 -303t294.5 -137zM459 1266q37 0 106.5 -29t96.5 -29 q55 0 88 49l55 -26q-31 -123 -143 -123q-37 0 -107.5 28.5t-100.5 28.5t-47.5 -10t-35.5 -41l-56 29q31 123 144 123z" glyph-name="Otilde.c2sc" horiz-adv-x="1132"/><glyph d="M563 -25q-156 0 -276 82l-170 -200l-66 57l168 199q-147 147 -147 364t138 363.5t357 146.5q176 0 307 -104l142 168l65 -54l-145 -172q125 -143 125 -348t-139.5 -353.5t-358.5 -148.5zM158 481q0 -170 116 -303l547 643q-109 97 -275 97t-277 -133.5t-111 -303.5z M567 45q180 0 293 136t113 295t-94 282l-539 -637q98 -76 227 -76z" glyph-name="Oslash.c2sc" horiz-adv-x="1132"/><glyph d="M563 -25q-156 0 -276 82l-170 -200l-66 57l168 199q-147 147 -147 364t138 363.5t357 146.5q176 0 307 -104l142 168l65 -54l-145 -172q125 -143 125 -348t-139.5 -353.5t-358.5 -148.5zM158 481q0 -170 116 -303l547 643q-109 97 -275 97t-277 -133.5t-111 -303.5z M567 45q180 0 293 136t113 295t-94 282l-539 -637q98 -76 227 -76zM772 1317v-21l-207 -221h-45l111 242h141z" glyph-name="Oslashacute.c2sc" horiz-adv-x="1132"/><glyph d="M565 -25q-217 0 -355 148.5t-138 359.5t138 357.5t356 146.5t356.5 -147.5t138.5 -357.5t-139.5 -358.5t-356.5 -148.5zM568 45q179 0 292 136t113 303t-114 300.5t-297 133.5t-293.5 -133.5t-110.5 -299.5t115.5 -303t294.5 -137zM766 1157h-412v76h412v-76z" glyph-name="Omacron.c2sc" horiz-adv-x="1132"/><glyph d="M565 -25q-217 0 -355 148.5t-138 359.5t138 357.5t356 146.5t356.5 -147.5t138.5 -357.5t-139.5 -358.5t-356.5 -148.5zM568 45q179 0 292 136t113 303t-114 300.5t-297 133.5t-293.5 -133.5t-110.5 -299.5t115.5 -303t294.5 -137zM560 1075q-103 0 -151.5 77t-27.5 165 h78q-12 -49 13.5 -109.5t89 -60.5t88 60.5t14.5 109.5h77q18 -88 -30 -165t-151 -77z" glyph-name="Obreve.c2sc" horiz-adv-x="1132"/><glyph d="M565 -25q-217 0 -355 148.5t-138 359.5t138 357.5t356 146.5t356.5 -147.5t138.5 -357.5t-139.5 -358.5t-356.5 -148.5zM568 45q179 0 292 136t113 303t-114 300.5t-297 133.5t-293.5 -133.5t-110.5 -299.5t115.5 -303t294.5 -137zM662 1317v-21l-187 -221h-45l90 242 h142zM856 1317v-21l-186 -221h-45l90 242h141z" glyph-name="Ohungarumlaut.c2sc" horiz-adv-x="1132"/><glyph d="M1341 74v-74h-550q-393 -60 -556 98.5t-163 372.5q0 157 97 308t277.5 184.5t344.5 -0.5h526v-74h-504v-346h389v-74h-389v-395h528zM166 464q0 -226 169 -332.5t392 -63.5v825q-248 47 -404.5 -78t-156.5 -351z" glyph-name="OE.c2sc" horiz-adv-x="1413"/><glyph d="M737 656q0 -108 -58 -187.5t-155 -118.5l342 -350h-127l-309 322q-100 -20 -207 -9v-313h-88l-2 958q214 57 355 6t195 -125.5t54 -182.5zM649 659q0 98 -89.5 183t-336.5 47v-496q180 -18 303 50.5t123 215.5zM559 1317v-21l-207 -221h-45l111 242h141z" glyph-name="Racute.c2sc" horiz-adv-x="886"/><glyph d="M737 656q0 -108 -58 -187.5t-155 -118.5l342 -350h-127l-309 322q-100 -20 -207 -9v-313h-88l-2 958q214 57 355 6t195 -125.5t54 -182.5zM649 659q0 98 -89.5 183t-336.5 47v-496q180 -18 303 50.5t123 215.5zM297 -457l74 322h149l4 -21l-184 -311z" glyph-name="Rcommaaccent.c2sc" horiz-adv-x="886"/><glyph d="M737 656q0 -108 -58 -187.5t-155 -118.5l342 -350h-127l-309 322q-100 -20 -207 -9v-313h-88l-2 958q214 57 355 6t195 -125.5t54 -182.5zM649 659q0 98 -89.5 183t-336.5 47v-496q180 -18 303 50.5t123 215.5zM174 1317h49l154 -146l153 146h50v-21l-150 -221h-106 l-150 221v21z" glyph-name="Rcaron.c2sc" horiz-adv-x="886"/><glyph d="M219 0h-86v963h666l10 -19l-281 -352q111 14 223.5 -66t112.5 -238t-94 -237.5t-234 -79.5t-231 52l23 59l18 2q109 -45 194 -45t160.5 59.5t75.5 198.5t-126 200.5t-265 2.5l-16 14l295 375h-445v-889z" glyph-name="uni1E9E.c2sc" horiz-adv-x="915"/><glyph d="M178 733q0 -121 231 -203t275.5 -160.5t44.5 -138.5q0 -127 -96 -191.5t-219 -64.5t-209 26t-123 52l33 76q31 -27 119 -54.5t168 -27.5t161.5 49t81.5 135q0 131 -260 222q-293 100 -293 280q0 109 88 181.5t232 72.5t268 -55l-27 -74q-109 59 -260 60 q-80 0 -147.5 -48.5t-67.5 -136.5zM203 1317h49l154 -146l153 146h49v-21l-149 -221h-107l-149 221v21z" glyph-name="Scaron.c2sc" horiz-adv-x="811"/><glyph d="M178 733q0 -121 231 -203t275.5 -160.5t44.5 -138.5q0 -127 -96 -191.5t-219 -64.5t-209 26t-123 52l33 76q31 -27 119 -54.5t168 -27.5t161.5 49t81.5 135q0 131 -260 222q-293 100 -293 280q0 109 88 181.5t232 72.5t268 -55l-27 -74q-109 59 -260 60 q-80 0 -147.5 -48.5t-67.5 -136.5zM610 1317v-21l-207 -221h-45l111 242h141z" glyph-name="Sacute.c2sc" horiz-adv-x="811"/><glyph d="M178 733q0 -121 231 -203t275.5 -160.5t44.5 -138.5q0 -127 -96 -191.5t-219 -64.5t-209 26t-123 52l33 76q31 -27 119 -54.5t168 -27.5t161.5 49t81.5 135q0 131 -260 222q-293 100 -293 280q0 109 88 181.5t232 72.5t268 -55l-27 -74q-109 59 -260 60 q-80 0 -147.5 -48.5t-67.5 -136.5zM461 1317l160 -242h-56l-157 139l-158 -139h-55l159 242h107z" glyph-name="Scircumflex.c2sc" horiz-adv-x="811"/><glyph d="M178 733q0 -121 231 -203t275.5 -160.5t44.5 -138.5q0 -106 -70.5 -169.5t-185.5 -79.5q47 -47 47 -121q0 -129 -105.5 -184.5t-219.5 -8.5l8 70q72 -39 152.5 -4t80.5 117t-49 124q-98 2 -184 27t-121 51l33 76q31 -27 119 -54.5t168 -27.5t161.5 49t81.5 135 q0 131 -260 222q-293 100 -293 280q0 109 88 181.5t232 72.5t268 -55l-27 -74q-109 59 -260 60q-80 0 -147.5 -48.5t-67.5 -136.5z" glyph-name="Scedilla.c2sc" horiz-adv-x="811"/><glyph d="M188 733q0 -121 231 -203t275.5 -160.5t44.5 -138.5q0 -127 -96 -191.5t-219 -64.5t-209 26t-123 52l33 76q31 -27 119 -54.5t169 -27.5t161.5 49t80.5 135q0 131 -260 222q-293 100 -293 280q0 109 88.5 181.5t232.5 72.5t267 -55l-26 -74q-109 59 -261 60 q-80 0 -147.5 -48.5t-67.5 -136.5zM256 -457l74 322h149l4 -21l-184 -311z" glyph-name="Scommaaccent.c2sc" horiz-adv-x="831"/><glyph d="M133 0v963h84v-193q270 33 410.5 -45t140.5 -246t-140.5 -255t-410.5 -38v-186h-84zM680 478q0 83 -45 134.5t-159.5 81.5t-258.5 -6v-426q137 -39 251 -11t163 86t49 141z" glyph-name="Thorn.c2sc" horiz-adv-x="839"/><glyph d="M709 887h-297v-887h-4q35 -6 66.5 -46t31.5 -93q0 -129 -105.5 -184.5t-220.5 -8.5l8 70q70 -39 152 -4t82 127q0 51 -26.5 90t-65.5 49h-4v887h-295v74h678v-74z" glyph-name="tcommaaccent.sc" horiz-adv-x="739"/><glyph d="M709 887h-297v-887h-86v887h-295v74h678v-74zM215 -457l74 322h149l4 -21l-184 -311z" glyph-name="uni021A.c2sc" horiz-adv-x="739"/><glyph d="M709 887h-297v-887h-86v887h-295v74h678v-74zM164 1317h49l154 -146l153 146h49v-21l-149 -221h-107l-149 221v21z" glyph-name="Tcaron.c2sc" horiz-adv-x="739"/><glyph d="M709 887h-297v-361h163v-75h-163v-451h-86v451h-162v75h162v361h-295v74h678v-74z" glyph-name="Tbar.c2sc" horiz-adv-x="739"/><glyph d="M516 -25q-182 0 -282.5 119t-100.5 291v578h86v-578q0 -152 85 -244t210 -92t221 94.5t96 241.5v578h84v-582q0 -168 -108.5 -287t-290.5 -119zM690 1317v-21l-207 -221h-45l111 242h141z" glyph-name="Uacute.c2sc" horiz-adv-x="1048"/><glyph d="M516 -25q-182 0 -282.5 119t-100.5 291v578h86v-578q0 -152 85 -244t210 -92t221 94.5t96 241.5v578h84v-582q0 -168 -108.5 -287t-290.5 -119zM367 1317h141l110 -242h-45l-206 221v21z" glyph-name="Ugrave.c2sc" horiz-adv-x="1048"/><glyph d="M516 -25q-182 0 -282.5 119t-100.5 291v578h86v-578q0 -152 85 -244t210 -92t221 94.5t96 241.5v578h84v-582q0 -168 -108.5 -287t-290.5 -119zM571 1317l160 -242h-55l-158 139l-158 -139h-55l160 242h106z" glyph-name="Ucircumflex.c2sc" horiz-adv-x="1048"/><glyph d="M516 -25q-182 0 -282.5 119t-100.5 291v578h86v-578q0 -152 85 -244t210 -92t221 94.5t96 241.5v578h84v-582q0 -168 -108.5 -287t-290.5 -119zM285 1195q0 40 23.5 64.5t62.5 24.5t64.5 -25.5t25.5 -64.5t-24.5 -62.5t-64.5 -23.5t-63.5 23.5t-23.5 63.5zM578 1194 q0 39 24.5 64.5t63.5 25.5t64.5 -25.5t25.5 -64.5t-25.5 -62.5t-64.5 -23.5t-63.5 23.5t-24.5 62.5z" glyph-name="Udieresis.c2sc" horiz-adv-x="1048"/><glyph d="M516 -25q-182 0 -282.5 119t-100.5 291v578h86v-578q0 -152 85 -244t210 -92t221 94.5t96 241.5v578h84v-582q0 -168 -108.5 -287t-290.5 -119zM420 1266q37 0 106.5 -29t96.5 -29q55 0 88 49l55 -26q-31 -123 -143 -123q-37 0 -107 28.5t-100 28.5t-48 -10t-36 -41 l-56 29q31 123 144 123z" glyph-name="Utilde.c2sc" horiz-adv-x="1048"/><glyph d="M516 -25q-182 0 -282.5 119t-100.5 291v578h86v-578q0 -152 85 -244t210 -92t221 94.5t96 241.5v578h84v-582q0 -168 -108.5 -287t-290.5 -119zM729 1157h-412v76h412v-76z" glyph-name="Umacron.c2sc" horiz-adv-x="1048"/><glyph d="M516 -25q-182 0 -282.5 119t-100.5 291v578h86v-578q0 -152 85 -244t210 -92t221 94.5t96 241.5v578h84v-582q0 -168 -108.5 -287t-290.5 -119zM523 1075q-103 0 -151 77t-28 165h78q-12 -49 13.5 -109.5t89 -60.5t88 60.5t14.5 109.5h78q18 -88 -30.5 -165t-151.5 -77z " glyph-name="Ubreve.c2sc" horiz-adv-x="1048"/><glyph d="M516 -25q-182 0 -282.5 119t-100.5 291v578h86v-578q0 -152 85 -244t210 -92t221 94.5t96 241.5v578h84v-582q0 -168 -108.5 -287t-290.5 -119zM297 1118q0 92 63.5 155.5t157.5 63.5t157.5 -63.5t63.5 -155.5t-63.5 -156.5t-157.5 -64.5t-157.5 64.5t-63.5 156.5z M373 1117q0 -62 41 -106t104.5 -44t104.5 44t41 106t-41 105.5t-104.5 43.5t-104.5 -43.5t-41 -105.5z" glyph-name="Uring.c2sc" horiz-adv-x="1048"/><glyph d="M516 -25q-182 0 -282.5 119t-100.5 291v578h86v-578q0 -152 85 -244t210 -92t221 94.5t96 241.5v578h84v-582q0 -168 -108.5 -287t-290.5 -119zM600 1317v-21l-186 -221h-45l90 242h141zM795 1317v-21l-187 -221h-45l90 242h142z" glyph-name="Uhungarumlaut.c2sc" horiz-adv-x="1048"/><glyph d="M133 385v578h86v-578q0 -152 85 -244t210 -92t221 94.5t96 241.5v578h84v-582q0 -135 -73.5 -242.5t-202.5 -144.5q-74 -37 -74 -131t82 -129t152 4l8 -70q-115 -47 -220.5 8.5t-105.5 184.5q0 69 39 114q-184 0 -285.5 119t-101.5 291z" glyph-name="Uogonek.c2sc" horiz-adv-x="1048"/><glyph d="M1298 963h82l-340 -983h-26l-299 817l-299 -817h-29l-336 983h92l263 -781l299 801h28l293 -797zM938 1317v-21l-207 -221h-45l111 242h141z" glyph-name="Wacute.c2sc" horiz-adv-x="1431"/><glyph d="M1298 963h82l-340 -983h-26l-299 817l-299 -817h-29l-336 983h92l263 -781l299 801h28l293 -797zM502 1317h141l111 -242h-45l-207 221v21z" glyph-name="Wgrave.c2sc" horiz-adv-x="1431"/><glyph d="M1298 963h82l-340 -983h-26l-299 817l-299 -817h-29l-336 983h92l263 -781l299 801h28l293 -797zM772 1317l160 -242h-55l-158 139l-158 -139h-55l160 242h106z" glyph-name="Wcircumflex.c2sc" horiz-adv-x="1431"/><glyph d="M1298 963h82l-340 -983h-26l-299 817l-299 -817h-29l-336 983h92l263 -781l299 801h28l293 -797zM481 1195q0 40 23.5 64.5t62.5 24.5t64.5 -25.5t25.5 -64.5t-24.5 -62.5t-64.5 -23.5t-63.5 23.5t-23.5 63.5zM774 1194q0 39 24.5 64.5t63.5 25.5t64.5 -25.5t25.5 -64.5 t-25.5 -62.5t-64.5 -23.5t-63.5 23.5t-24.5 62.5z" glyph-name="Wdieresis.c2sc" horiz-adv-x="1431"/><glyph d="M440 0v381l-399 582h104l338 -490l340 490h99l-398 -578v-385h-84zM655 1317v-21l-206 -221h-46l111 242h141z" glyph-name="Yacute.c2sc" horiz-adv-x="962"/><glyph d="M440 0v381l-399 582h104l338 -490l340 490h99l-398 -578v-385h-84zM276 1317h142l110 -242h-45l-207 221v21z" glyph-name="Ygrave.c2sc" horiz-adv-x="962"/><glyph d="M440 0v381l-399 582h104l338 -490l340 490h99l-398 -578v-385h-84zM537 1317l159 -242h-55l-158 139l-157 -139h-56l160 242h107z" glyph-name="Ycircumflex.c2sc" horiz-adv-x="962"/><glyph d="M440 0v381l-399 582h104l338 -490l340 490h99l-398 -578v-385h-84zM246 1195q0 40 23.5 64.5t63.5 24.5t64.5 -25.5t24.5 -64.5t-24.5 -62.5t-64.5 -23.5t-63.5 23.5t-23.5 63.5zM539 1194q0 39 24.5 64.5t63.5 25.5t64.5 -25.5t25.5 -64.5t-25.5 -62.5t-64.5 -23.5 t-63.5 23.5t-24.5 62.5z" glyph-name="Ydieresis.c2sc" horiz-adv-x="962"/><glyph d="M819 74v-74h-725l-12 23l602 866h-573v74h702l8 -25l-596 -864h594zM264 1317h49l154 -146l154 146h49v-21l-150 -221h-106l-150 221v21z" glyph-name="Zcaron.c2sc" horiz-adv-x="903"/><glyph d="M819 74v-74h-725l-12 23l602 866h-573v74h702l8 -25l-596 -864h594zM631 1317v-21l-207 -221h-45l110 242h142z" glyph-name="Zacute.c2sc" horiz-adv-x="903"/><glyph d="M819 74v-74h-725l-12 23l602 866h-573v74h702l8 -25l-596 -864h594zM379 1195q0 40 23.5 64.5t62.5 24.5t64.5 -25.5t25.5 -64.5t-24.5 -62.5t-64.5 -23.5t-63.5 23.5t-23.5 63.5z" glyph-name="Zdotaccent.c2sc" horiz-adv-x="903"/><glyph d="M500 442v-313h-84v313h-314v76h314v313h84v-313h311v-76h-311z" glyph-name="plus.oldstyle" horiz-adv-x="913"/><glyph d="M821 442h-719v76h719v-76z" glyph-name="minus.oldstyle" horiz-adv-x="923"/><glyph d="M391 479l-248 248l66 66l250 -248l250 248l51 -54l-248 -247l248 -248l-66 -68l-250 250l-245 -248l-54 51z" glyph-name="multiply.oldstyle" horiz-adv-x="903"/><glyph d="M352 185q0 48 30 79t77 31t78.5 -31t31.5 -79t-31.5 -77.5t-78.5 -29.5t-77 29.5t-30 77.5zM352 794q0 48 30 78.5t77 30.5t78.5 -30.5t31.5 -78.5t-31.5 -78t-78.5 -30t-77 30t-30 78zM102 442v76h719v-76h-719z" glyph-name="divide.oldstyle" horiz-adv-x="923"/><glyph d="M102 293v74h310l77 225h-387v76h412l117 346l88 -29l-111 -317h271v-76h-297l-76 -225h373v-74h-398l-131 -383l-84 27l121 356h-285z" glyph-name="notequal.oldstyle" horiz-adv-x="980"/><glyph d="M918 66l-836 405v18l836 406v-88l-676 -326l676 -327v-88z" glyph-name="less.oldstyle" horiz-adv-x="1060"/><glyph d="M979 471l-836 -405v88l676 327l-676 326v88l836 -406v-18z" glyph-name="greater.oldstyle" horiz-adv-x="1060"/><glyph d="M918 250l-834 293v18l834 293v-82l-642 -219l642 -221v-82zM123 92v74h795v-74h-795z" glyph-name="lessequal.oldstyle" horiz-adv-x="1060"/><glyph d="M977 543l-834 -293v80l641 221l-641 219v84l834 -293v-18zM938 92h-795v74h795v-74z" glyph-name="greaterequal.oldstyle" horiz-adv-x="1060"/><glyph d="M342 725q55 0 172 -58.5t168 -58.5q115 0 158 111l67 -23q-51 -160 -233 -159q-59 0 -181 57t-159 57q-117 0 -154 -104l-74 22q51 156 236 156zM342 430q55 0 172 -58.5t168 -58.5q117 0 158 105l67 -23q-51 -156 -233 -155q-59 0 -181 57t-159 57q-115 0 -154 -106 l-74 22q53 160 236 160z" glyph-name="approxequal.oldstyle" horiz-adv-x="1013"/><glyph d="M879 293h-777v74h777v-74zM879 592h-777v76h777v-76z" glyph-name="equal.oldstyle" horiz-adv-x="980"/><glyph d="M1151 76h668v-76h-760v414h-645l-324 -414h-110l1136 1438h666v-76h-631v-582h508v-75h-508v-629zM1059 489v758l-588 -758h588z" glyph-name="AE.salt" horiz-adv-x="1941"/><glyph d="M1151 76h668v-76h-760v414h-645l-324 -414h-110l1136 1438h666v-76h-631v-582h508v-75h-508v-629zM1059 489v758l-588 -758h588zM1458 1772v-21l-207 -221h-45l111 242h141z" glyph-name="AEacute.salt" horiz-adv-x="1941"/><glyph d="M276 76h668v-76h-760v1438h723v-76h-631v-582h508v-75h-508v-629z" glyph-name="E.salt"/><glyph d="M680 1772v-21l-207 -221h-45l111 242h141zM276 76h668v-76h-760v1438h723v-76h-631v-582h508v-75h-508v-629z" glyph-name="Eacute.salt"/><glyph d="M389 1772h141l111 -242h-45l-207 221v21zM276 76h668v-76h-760v1438h723v-76h-631v-582h508v-75h-508v-629z" glyph-name="Egrave.salt"/><glyph d="M311 1650q0 40 23.5 64.5t63.5 24.5t64.5 -25.5t24.5 -64.5t-24.5 -62.5t-64.5 -23.5t-63.5 23.5t-23.5 63.5zM604 1649q0 39 24.5 64.5t63.5 25.5t64.5 -25.5t25.5 -64.5t-25.5 -62.5t-64.5 -23.5t-63.5 23.5t-24.5 62.5zM276 76h668v-76h-760v1438h723v-76h-631v-582 h508v-75h-508v-629z" glyph-name="Edieresis.salt"/><glyph d="M590 1772l160 -242h-56l-157 139l-158 -139h-55l159 242h107zM276 76h668v-76h-760v1438h723v-76h-631v-582h508v-75h-508v-629z" glyph-name="Ecircumflex.salt"/><glyph d="M276 76h668v-76h-760v1438h723v-76h-631v-582h508v-75h-508v-629zM739 1612h-411v76h411v-76z" glyph-name="Emacron.salt"/><glyph d="M276 76h668v-76h-760v1438h723v-76h-631v-582h508v-75h-508v-629zM534 1530q-103 0 -151.5 76.5t-28.5 165.5h78q-12 -49 13.5 -109.5t89 -60.5t88 60t14.5 110h78q18 -88 -30 -165t-151 -77z" glyph-name="Ebreve.salt"/><glyph d="M276 76h668v-76h-760v1438h723v-76h-631v-582h508v-75h-508v-629zM444 1650q0 40 24 64.5t62.5 24.5t64.5 -25.5t26 -64.5t-25 -62.5t-65 -23.5t-63.5 23.5t-23.5 63.5z" glyph-name="Edotaccent.salt"/><glyph d="M276 76h668v-76h-334q-39 -10 -65.5 -49t-26.5 -90q0 -92 81 -127t153 4l8 -70q-115 -47 -220.5 8.5t-105.5 184.5q0 90 66 139h-316v1438h723v-76h-631v-582h508v-75h-508v-629z" glyph-name="Eogonek.salt"/><glyph d="M276 76h668v-76h-760v1438h723v-76h-631v-582h508v-75h-508v-629zM330 1772h49l153 -146l154 146h49v-21l-149 -221h-107l-149 221v21z" glyph-name="Ecaron.salt"/><glyph d="M276 0h-92v1438h723v-76h-631v-582h508v-75h-508v-705z" glyph-name="F.salt" horiz-adv-x="1009"/><glyph d="M1014 0v705h-738v-705h-92v1438h92v-658h738v658h92v-1438h-92z" glyph-name="H.salt" horiz-adv-x="1290"/><glyph d="M1014 0v705h-738v-705h-92v1438h92v-658h738v658h92v-1438h-92zM698 1772l160 -242h-55l-158 139l-158 -139h-55l160 242h106z" glyph-name="Hcircumflex.salt" horiz-adv-x="1290"/><glyph d="M1014 0v705h-738v-705h-92v1106h-92v76h92v256h92v-256h738v256h92v-256h92v-76h-92v-1106h-92zM276 780h738v326h-738v-326z" glyph-name="Hbar.salt" horiz-adv-x="1290"/><glyph d="M276 0h-92v1448l37 10l584 -1179l586 1179l34 -10v-1448h-92v1124l-516 -1036h-24l-517 1036v-1124z" glyph-name="M.salt" horiz-adv-x="1609"/><glyph d="M1100 1438h90v-1444l-25 -10l-893 1216v-1200h-88v1444l19 14l897 -1233v1213z" glyph-name="N.salt" horiz-adv-x="1374"/><glyph d="M1100 1438h90v-1444l-25 -10l-893 1216v-1200h-88v1444l19 14l897 -1233v1213zM586 1720q37 0 106.5 -28.5t95.5 -28.5q55 0 89 49l55 -26q-31 -123 -144 -123q-37 0 -106.5 28.5t-99.5 28.5t-48 -10t-36 -41l-56 28q31 123 144 123z" glyph-name="Ntilde.salt" horiz-adv-x="1374"/><glyph d="M1100 1438h90v-1444l-25 -10l-893 1216v-1200h-88v1444l19 14l897 -1233v1213zM864 1815v-21l-207 -221h-45l111 242h141z" glyph-name="Nacute.salt" horiz-adv-x="1374"/><glyph d="M1100 1438h90v-1444l-25 -10l-893 1216v-1200h-88v1444l19 14l897 -1233v1213zM543 -457l73 322h150l4 -21l-184 -311z" glyph-name="Ncommaaccent.salt" horiz-adv-x="1374"/><glyph d="M1100 1438h90v-1444l-25 -10l-893 1216v-1200h-88v1444l19 14l897 -1233v1213zM504 1815h49l154 -146l153 146h49v-21l-149 -221h-107l-149 221v21z" glyph-name="Ncaron.salt" horiz-adv-x="1374"/><glyph d="M1100 1438h90v-1694q0 -145 -91 -221t-239 -43l10 80q100 -20 166 29t66 145v336l-830 1130v-1200h-88v1444l19 14l897 -1233v1213z" glyph-name="Eng.salt" horiz-adv-x="1374"/><glyph d="M1759 1438v-76h-631v-582h508v-75h-508v-629h668v-76h-668q-418 -55 -684.5 87.5t-314 346t-47.5 282.5t19.5 164t87 229.5t293.5 263.5t646 65h631zM184 713q0 -322 251 -505t599 -134v1284q-199 31 -363.5 -13.5t-269 -139.5t-161 -223t-56.5 -269z" glyph-name="OE.salt" horiz-adv-x="1918"/><glyph d="M217 0h-84v973l29 10l434 -733l432 733l29 -10v-973h-84v719l-367 -619h-22l-367 619v-719z" glyph-name="M.c2sc.salt" horiz-adv-x="1189"/><glyph d="M213 0h-80v963l25 16l698 -807v791h80v-963l-25 -16l-698 800v-784z" glyph-name="N.c2sc.salt" horiz-adv-x="1069"/><glyph d="M213 0h-80v963l25 16l698 -807v791h80v-963l-25 -16l-698 800v-784zM428 1266q37 0 106.5 -29t96.5 -29q55 0 88 49l55 -26q-31 -123 -143 -123q-37 0 -106.5 28.5t-100.5 28.5t-48.5 -10t-35.5 -41l-55 29q31 123 143 123z" glyph-name="Ntilde.c2sc.salt" horiz-adv-x="1069"/><glyph d="M213 0h-80v963l25 16l698 -807v791h80v-963l-25 -16l-698 800v-784zM723 1317v-21l-207 -221h-45l111 242h141z" glyph-name="Nacute.c2sc.salt" horiz-adv-x="1069"/><glyph d="M213 0h-80v963l25 16l698 -807v791h80v-963l-25 -16l-698 800v-784zM379 -457l74 322h149l4 -21l-184 -311z" glyph-name="Ncommaaccent.c2sc.salt" horiz-adv-x="1069"/><glyph d="M213 0h-80v963l25 16l698 -807v791h80v-963l-25 -16l-698 800v-784zM338 1317h49l154 -146l153 146h49v-21l-149 -221h-107l-149 221v21z" glyph-name="Ncaron.c2sc.salt" horiz-adv-x="1069"/><glyph d="M936 -256q0 -145 -88 -221t-236 -43l11 71q100 -20 166.5 32t66.5 151v313l-643 737v-784h-80v963l25 16l698 -807v791h80v-1219z" glyph-name="Eng.c2sc.salt" horiz-adv-x="1069"/></font>
</defs>
</svg>
