<?xml version="1.0" standalone="no"?>
<!DOCTYPE svg PUBLIC "-//W3C//DTD SVG 1.1//EN" "http://www.w3.org/Graphics/SVG/1.1/DTD/svg11.dtd">
<svg xmlns="http://www.w3.org/2000/svg"><metadata>This SVG WebFont was generated by YouWorkForThem.
Copyright (c) 2011-2013 by Greg Shutters &amp; Typetanic Fonts. All rights reserved.</metadata><defs><font horiz-adv-x="1097" id="ywftsvg"><font-face ascent="1485" bbox="-399 -541 2140 1937" cap-height="1438" descent="-563" font-family="" font-stretch="normal" font-weight="500" panose-1="2 11 6 3 4 6 3 2 2 2" underline-position="0" underline-thickness="0" unicode-range="U+0020-FB04" units-per-em="2048" x-height="838"/><missing-glyph horiz-adv-x="526"/><glyph d="M958 838h211v-162h-211v-676h-200v676h-373v-676h-201v676h-129v20l21 142h108v243q0 90 40.5 186t157 132.5t230.5 5.5l-24 -166q-76 23 -140.5 -23.5t-62.5 -150.5v-227h373v295q0 90 40 186t155.5 132.5t232.5 4.5l-25 -166q-76 23 -140.5 -23.5t-62.5 -150.5v-278z " glyph-name="uniFB00" horiz-adv-x="1218" unicode="ff"/><glyph d="M385 838h211v-162h-211v-676h-201v676h-129v20l21 142h108v295q0 90 40.5 186t156 132.5t231.5 4.5l-24 -166q-76 23 -140.5 -23.5t-62.5 -150.5v-278zM758 0v838h200v-838h-200zM713 1181.5q0 59.5 43 102.5t101 43t101 -43t43 -103t-41.5 -101.5t-101.5 -41.5 t-102.5 42t-42.5 101.5z" glyph-name="uniFB01" horiz-adv-x="1089" unicode="fi"/><glyph d="M385 838h211v-162h-211v-676h-201v676h-129v20l21 142h108v295q0 90 40.5 186t156 132.5t231.5 4.5l-24 -166q-76 23 -140.5 -23.5t-62.5 -150.5v-278zM987 1462v-1462h-201v1438l183 24h18z" glyph-name="uniFB02" horiz-adv-x="1126" unicode="fl"/><glyph d="M1329 0v838h201v-838h-201zM1284 1181.5q0 59.5 43 102.5t101 43t101.5 -43t43.5 -103t-41.5 -101.5t-101.5 -41.5t-103 42t-43 101.5zM958 838h211v-162h-211v-676h-200v676h-373v-676h-201v676h-129v20l21 142h108v243q0 90 40.5 186t157 132.5t230.5 5.5l-24 -166 q-76 23 -140.5 -23.5t-62.5 -150.5v-227h373v295q0 90 40 186t155.5 132.5t232.5 4.5l-25 -166q-76 23 -140.5 -23.5t-62.5 -150.5v-278z" glyph-name="uniFB03" horiz-adv-x="1660" unicode="ffi"/><glyph d="M1559 1462v-1462h-201v1438l182 24h19zM958 838h211v-162h-211v-676h-200v676h-373v-676h-201v676h-129v20l21 142h108v243q0 90 40.5 186t157 132.5t230.5 5.5l-24 -166q-76 23 -140.5 -23.5t-62.5 -150.5v-227h373v295q0 90 40 186t155.5 132.5t232.5 4.5l-25 -166 q-76 23 -140.5 -23.5t-62.5 -150.5v-278z" glyph-name="uniFB04" horiz-adv-x="1697" unicode="ffl"/><glyph d="M1171 676h-204v-402q0 -61 36.5 -91.5t80.5 -30.5t79 10q23 -121 29 -162q-70 -18 -125 -18q-303 0 -303 331v363h-379v-676h-201v676h-129v20l21 142h108v295q0 90 40.5 186t156 132.5t231.5 4.5l-24 -166q-76 23 -140.5 -23t-62.5 -151v-278h379v284l184 29h19v-313 h204v-162z" glyph-name="f_t.liga" horiz-adv-x="1259" unicode="ft"/><glyph d="M1745 676h-205v-402q0 -61 37 -91.5t80 -30.5t80 10q23 -121 28 -162q-70 -18 -125 -18q-303 0 -303 331v363h-379v-676h-200v676h-373v-676h-201v676h-129v20l21 142h108v243q0 90 40.5 186t157 132.5t230.5 5.5l-24 -166q-76 23 -140.5 -23.5t-62.5 -150.5v-227h373 v295q0 90 40 186t155.5 132.5t232.5 4.5l-25 -166q-76 23 -140.5 -23t-62.5 -151v-278h379v284l185 29h18v-313h205v-162z" glyph-name="f_f_t.liga" horiz-adv-x="1830" unicode="fft"/><glyph d="M1169 676h-204v-402q0 -61 36.5 -91.5t80.5 -30.5t79 10q23 -121 29 -162q-70 -18 -125 -18q-303 0 -303 331v363h-381v-402q0 -61 37 -91.5t80 -30.5t80 10q23 -121 28 -162q-70 -18 -125 -18q-303 0 -303 331v363h-137v20l20 142h117v284l184 29h19v-313h381v284 l184 29h19v-313h204v-162z" glyph-name="t_t.liga" horiz-adv-x="1255" unicode="tt"/><glyph glyph-name=".notdef" horiz-adv-x="526"/><glyph glyph-name="glyph1" horiz-adv-x="0"/><glyph glyph-name="glyph2" horiz-adv-x="681"/><glyph glyph-name="space" horiz-adv-x="491" unicode=" "/><glyph d="M256 420l-98 913h301l-97 -913h-106zM160 126.5q0 63.5 44 108t106 44.5t106.5 -44.5t44.5 -108t-44.5 -105t-106.5 -41.5t-106 41.5t-44 105z" glyph-name="exclam" horiz-adv-x="618" unicode="!"/><glyph d="M174 811l-92 627h270l-96 -627h-82zM545 811l-92 627h270l-96 -627h-82z" glyph-name="quotedbl" horiz-adv-x="804" unicode="&quot;"/><glyph d="M1085 330h-229l-76 -330h-190l80 330h-219l-80 -330h-189l80 330h-190v178h231l82 332h-195v178h236l78 315h182l-76 -315h224l77 315h183q-12 -53 -78 -315h186v-178h-225l-82 -332h190v-178zM571 840l-82 -332h224l82 332h-224z" glyph-name="numbersign" horiz-adv-x="1273" unicode="#"/><glyph d="M412 1612h176v-260q143 -18 250 -80l-56 -172q-127 74 -234 74t-158.5 -48.5t-51.5 -127.5t78 -129t147 -93q186 -115 261 -213t72 -234t-88 -229.5t-214 -122.5v-253h-176v247q-195 16 -316 119l78 166q137 -98 283 -98q106 0 162.5 52t56.5 129t-56 132t-206 150 t-201 147q-98 100 -98 230t75.5 230.5t215.5 121.5v262z" glyph-name="dollar" horiz-adv-x="1001" unicode="$"/><glyph d="M1128 -20q-129 0 -224 88t-95 226t96 226t225.5 88t221.5 -88t92 -226t-93.5 -226t-222.5 -88zM1130.5 119q67.5 0 106.5 51t39 126t-39 125t-107 50t-108.5 -51t-40.5 -125t41 -125t108.5 -51zM385 727q-129 0 -224 88t-95 225.5t96 226.5t225 89t222 -88t93 -226 t-94 -226.5t-223 -88.5zM389.5 866q67.5 0 105 50t37.5 126t-37.5 126.5t-105.5 50.5t-109.5 -51.5t-41.5 -126.5t42 -125t109.5 -50zM145 63l1074 1303l124 -104l-1069 -1299z" glyph-name="percent" horiz-adv-x="1511" unicode="%"/><glyph d="M616 1176q-68 0 -108.5 -38t-45.5 -90t7 -86t24.5 -50.5t43.5 -55.5l346 -442l219 196l125 -137l-223 -205l210 -268h-251l-103 137l-90 -71q-68 -55 -178.5 -80t-231 4.5t-190.5 120.5q-106 152 -81.5 301t153.5 258l120 102l-34 51q-76 111 -68 243t111.5 213t234.5 81 t229.5 -77t129.5 -196l-172 -63q-51 152 -177 152zM331.5 227.5q57.5 -71.5 154 -69.5t178.5 71l71 58l-264 331l-111 -96q-70 -59 -78 -141t49.5 -153.5z" glyph-name="ampersand" horiz-adv-x="1318" unicode="&amp;"/><glyph d="M174 811l-92 627h270l-96 -627h-82z" glyph-name="quotesingle" horiz-adv-x="434" unicode="'"/><glyph d="M143 605q0 267 127 502.5t348 389.5l109 -125q-356 -328 -356 -766q0 -252 103 -458t253 -343l-109 -122q-221 162 -348 408.5t-127 513.5z" glyph-name="parenleft" horiz-adv-x="825" unicode="("/><glyph d="M455 606q0 438 -357 766l109 125q221 -154 348 -389.5t127 -502.5t-127 -513.5t-348 -408.5l-109 122q150 137 253.5 343t103.5 458z" glyph-name="parenright" horiz-adv-x="825" unicode=")"/><glyph d="M350 784l25 238l-197 -141l-76 129l222 100l-222 98l76 133l197 -141l-25 238h150l-23 -238l197 141l74 -131l-224 -100l226 -98l-78 -131l-195 141l23 -238h-150z" glyph-name="asterisk" horiz-adv-x="851" unicode="*"/><glyph d="M575 610v-313h-180v313h-313v178h313v314h180v-314h312v-178h-312z" glyph-name="plus" horiz-adv-x="968" unicode="+"/><glyph d="M86 -313l74 581h254l2 -30l-256 -570z" glyph-name="comma" horiz-adv-x="528" unicode=","/><glyph d="M625 426l-543 -80v189l543 79v-188z" glyph-name="hyphen" horiz-adv-x="706" unicode="-"/><glyph d="M113 126.5q0 63.5 43 108t105 44.5t106.5 -44.5t44.5 -108t-44 -105t-106 -41.5t-105.5 41.5t-43.5 105z" glyph-name="period" horiz-adv-x="524" unicode="."/><glyph d="M-35 -266l711 1775l164 -71l-711 -1774z" glyph-name="slash" horiz-adv-x="872" unicode="/"/><glyph d="M618.5 1362q245.5 0 397 -195.5t151.5 -496.5t-151.5 -500t-397 -199t-399 199t-153.5 500t153.5 496.5t399 195.5zM617 150q144 0 234.5 144t90.5 375.5t-90 374t-234 142.5t-235.5 -142.5t-91.5 -374t91 -375.5t235 -144z" glyph-name="zero" horiz-adv-x="1234" unicode="0"/><glyph d="M315 0v1032l-145 -74l-84 185l406 207h34v-1350h-211z" glyph-name="one" horiz-adv-x="727" unicode="1"/><glyph d="M495 1360q122 0 221 -45t169.5 -150.5t71.5 -262.5t-97 -302t-375 -420h502v-180h-932l-14 33q51 49 160.5 152.5t154.5 147.5t125 125t114 125t91 127.5t57 202.5t-78.5 190t-170.5 72t-166 -39t-111 -92h-29l-100 130q61 80 173 133t234 53z" glyph-name="two" horiz-adv-x="1085" unicode="2"/><glyph d="M131 1333h807l14 -28l-352 -506q143 4 263 -102.5t120 -296.5t-136 -309.5t-355 -119.5q-109 0 -192 15.5t-119 31t-99 48.5l57 159l29 2q130 -84 272 -84t238 70t96 204t-123 208.5t-319 29.5l-27 35l324 461h-498v182z" glyph-name="three" horiz-adv-x="1075" unicode="3"/><glyph d="M936 389h197v-172h-197v-217h-215v217h-658l-43 51l846 1086l70 -19v-946zM350 389h371l-2 488z" glyph-name="four" horiz-adv-x="1200" unicode="4"/><glyph d="M915 1333v-182h-514l-34 -344q55 25 156.5 31t187.5 -17q117 -39 195.5 -141t80.5 -273t-130 -303.5t-389 -132.5t-386 97l57 161l29 2q106 -84 293 -84q129 0 221 74t92 203t-85 197.5t-208 68.5q-162 0 -286 -108l-50 14l74 737h696z" glyph-name="five" horiz-adv-x="1081" unicode="5"/><glyph d="M561 -29q-211 0 -344 138.5t-135 371.5q0 182 54 333t139 248t239.5 195.5t359.5 102.5l41 -162l-20 -24q-201 -6 -364.5 -142.5t-196.5 -329.5q96 129 280 129t304 -118.5t120 -304.5t-133 -311.5t-344 -125.5zM565.5 145q110.5 0 185 76t74.5 186.5t-74.5 186.5 t-186.5 76t-186.5 -76t-74.5 -186t76 -186.5t186.5 -76.5z" glyph-name="six" horiz-adv-x="1120" unicode="6"/><glyph d="M86 1153v180h879l18 -30l-547 -1303h-241l503 1153h-612z" glyph-name="seven" horiz-adv-x="1024" unicode="7"/><glyph d="M569 -29q-219 0 -356 121t-137 305q0 123 73.5 221.5t176.5 126.5q-152 98 -152 257t110.5 258.5t285.5 99.5t285 -100t110 -258t-150 -254q102 -27 175 -127.5t73 -223.5q0 -184 -137.5 -305t-356.5 -121zM572 150q118 0 196 70t78 182t-80 181.5t-198.5 69.5 t-196.5 -69.5t-78 -181.5t80.5 -182t198.5 -70zM571 803q84 0 141.5 55t57.5 137t-59.5 136.5t-143.5 54.5t-141 -54.5t-57 -136.5t59 -137t143 -55z" glyph-name="eight" horiz-adv-x="1140" unicode="8"/><glyph d="M557 1360q211 0 345 -138.5t136 -371.5q0 -182 -54 -332.5t-139 -248t-240.5 -196t-360.5 -102.5l-41 162l22 25q201 6 365 142t196 329q-96 -129 -281 -129t-304 118t-119 304t132 312t343 126zM553 1186q-111 0 -184.5 -76t-73.5 -186.5t73.5 -186t185.5 -75.5 t187.5 75.5t75.5 185.5t-76.5 186.5t-187.5 76.5z" glyph-name="nine" horiz-adv-x="1120" unicode="9"/><glyph d="M113 126.5q0 63.5 43 108t105 44.5t106.5 -44.5t44.5 -108t-44 -105t-106 -41.5t-105.5 41.5t-43.5 105zM113 710.5q0 63.5 43 107.5t105 44t106.5 -44t44.5 -107.5t-44 -105.5t-106 -42t-105.5 42t-43.5 105.5z" glyph-name="colon" horiz-adv-x="524" unicode=":"/><glyph d="M76 -313l74 581h253l3 -30l-256 -570zM119 710.5q0 63.5 43 107.5t105 44t106.5 -44t44.5 -107.5t-44 -105.5t-106 -42t-105.5 42t-43.5 105.5z" glyph-name="semicolon" horiz-adv-x="532" unicode=";"/><glyph d="M963 229l-897 447v37l897 448v-211l-517 -254l517 -256v-211z" glyph-name="less" horiz-adv-x="1081" unicode="&lt;"/><glyph d="M920 436h-838v176h838v-176zM920 786h-838v179h838v-179z" glyph-name="equal" horiz-adv-x="1001" unicode="="/><glyph d="M1016 676l-897 -447v211l516 256l-516 254v211l897 -448v-37z" glyph-name="greater" horiz-adv-x="1081" unicode=">"/><glyph d="M481 420h-164q-20 88 5.5 177.5t138 197t112.5 192.5q0 84 -48 131t-119 47q-117 0 -195 -123l-145 119q41 70 132.5 134.5t235.5 64.5t253.5 -93t109.5 -249t-79 -231.5t-158 -149.5t-79 -217zM256 126.5q0 63.5 43 108t105 44.5t106.5 -44.5t44.5 -108t-44.5 -105 t-106.5 -41.5t-105 41.5t-43 105z" glyph-name="question" horiz-adv-x="851" unicode="?"/><glyph d="M1356 393q86 0 148.5 81t62.5 239q0 244 -199.5 437t-493.5 193t-484.5 -206.5t-190.5 -504.5t191.5 -499t500.5 -201q254 0 473 123l45 -102q-227 -137 -518 -137q-367 0 -598.5 236.5t-231.5 580.5t231.5 585.5t577.5 241.5t586 -223t240 -524q0 -217 -104.5 -339 t-260.5 -122q-82 0 -157.5 40t-88.5 97q-39 -61 -106.5 -98t-155.5 -39q-147 -4 -245 103.5t-86 265.5t109 265t251 111q82 2 148.5 -35.5t99.5 -101.5l67 94h99l-70 -391q-14 -72 30 -121t130 -49zM712 468.5q48 -62.5 128 -60.5t133 66.5t59 158.5t-40 153.5t-126 57.5 t-133 -60.5t-61 -155.5t40 -159.5z" glyph-name="at" horiz-adv-x="1757" unicode="@"/><glyph d="M244 0h-240l670 1454h28l662 -1454h-238l-129 293h-624zM686 1018l-237 -547h471z" glyph-name="A" horiz-adv-x="1368" unicode="A"/><glyph d="M965 1088q0 -100 -44 -175t-98 -108q119 -27 202 -119t83 -244q0 -225 -167 -342.5t-460 -117.5q-165 0 -317 20v1428q416 70 565.5 -10.5t192.5 -156t43 -175.5zM381 860h201q72 10 121 67.5t49 135.5q0 113 -76 160t-165 47t-130 -8v-402zM381 694v-510q59 -8 135 -8 q160 0 265.5 65.5t105.5 200.5q0 252 -305 252h-201z" glyph-name="B" horiz-adv-x="1175" unicode="B"/><glyph d="M813 -29q-319 0 -533 215t-214 539t223 532.5t534.5 208.5t546.5 -211l-129 -153q-189 174 -413 174t-376.5 -161t-152.5 -392t151.5 -395t383.5 -164q119 0 230 47t189 117l127 -144q-100 -96 -229 -154.5t-338 -58.5z" glyph-name="C" horiz-adv-x="1445" unicode="C"/><glyph d="M1333 712q0 -83 -21.5 -170t-98 -229t-327.5 -255t-722 -58v1432q347 60 602 -9t384.5 -216t156 -279.5t26.5 -215.5zM1102 719q0 262 -191.5 416.5t-529.5 113.5v-1063q186 -20 347 30t267.5 181t106.5 322z" glyph-name="D" horiz-adv-x="1409" unicode="D"/><glyph d="M379 180h606v-180h-821v1438h794v-183h-579v-354h467v-182h-467v-539z" glyph-name="E" unicode="E"/><glyph d="M379 0h-215v1438h784v-183h-569v-354h457v-182h-457v-719z" glyph-name="F" horiz-adv-x="1044" unicode="F"/><glyph d="M827.5 1276q-219.5 0 -373 -160t-153.5 -398t153.5 -397t395.5 -159q98 0 197.5 33.5t156.5 83.5v215h-231v178h442v-475q-233 -225 -575 -225t-558 215.5t-216 535.5t222 531.5t535 211.5t547 -211q-5 -7 -133 -151q-190 172 -409.5 172z" glyph-name="G" horiz-adv-x="1517" unicode="G"/><glyph d="M963 0v719h-584v-719h-215v1438h215v-537h584v537h215v-1438h-215z" glyph-name="H" horiz-adv-x="1341" unicode="H"/><glyph d="M164 0v1438h215v-1438h-215z" glyph-name="I" horiz-adv-x="542" unicode="I"/><glyph d="M451 473v965h215v-971q0 -238 -145.5 -369t-407.5 -108v182q156 -8 247 71.5t91 229.5z" glyph-name="J" horiz-adv-x="854" unicode="J"/><glyph d="M164 0v1438h217v-619l541 619h252l-580 -678l635 -760h-279l-569 688v-688h-217z" glyph-name="K" horiz-adv-x="1263" unicode="K"/><glyph d="M940 180v-180h-776v1438h215v-1258h561z" glyph-name="L" horiz-adv-x="1005" unicode="L"/><glyph d="M377 0h-213v1444l35 10l575 -567l574 567l34 -10v-1444h-213v995l-385 -387h-22l-385 387v-995z" glyph-name="M" horiz-adv-x="1546" unicode="M"/><glyph d="M997 1438h209v-1438h-209v618l-624 445v-1063h-209v1442l29 12l804 -580v564z" glyph-name="N" horiz-adv-x="1370" unicode="N"/><glyph d="M66 718q0 316 214 532t539.5 216t540.5 -217t215 -532.5t-215 -530.5t-540.5 -215t-539.5 215.5t-214 531.5zM297 717q0 -244 152.5 -398.5t369.5 -154.5t370.5 154.5t153.5 398.5t-154.5 401.5t-370.5 157.5t-368.5 -157.5t-152.5 -401.5z" glyph-name="O" horiz-adv-x="1642" unicode="O"/><glyph d="M1051 962q0 -268 -193.5 -414.5t-478.5 -129.5v-418h-215v1427q391 82 639 -57.5t248 -407.5zM829 945q0 157 -121.5 249t-328.5 59v-643q213 -18 331.5 80t118.5 255z" glyph-name="P" horiz-adv-x="1112" unicode="P"/><glyph d="M819 -29q-326 0 -539.5 215.5t-213.5 531.5t214 532t539.5 216t540.5 -217t215 -532q0 -176 -74 -324.5t-203 -245.5l144 -170l-146 -127l-157 187q-152 -66 -320 -66zM297 717q0 -244 152.5 -398.5t369.5 -154.5q94 0 174 31l-147 176l145 127l160 -191q90 66 141 173.5 t51 236.5q0 244 -154.5 401.5t-370.5 157.5t-368.5 -157.5t-152.5 -401.5z" glyph-name="Q" horiz-adv-x="1642" unicode="Q"/><glyph d="M1040 971q0 -123 -60 -233.5t-175 -182.5l399 -555h-272l-326 479q-106 -23 -227 -10v-469h-215v1427q408 80 642 -50t234 -406zM819 966q0 150 -116.5 234t-323.5 51v-589q201 -23 320.5 65.5t119.5 238.5z" glyph-name="R" horiz-adv-x="1214" unicode="R"/><glyph d="M579 1272q-124 0 -185.5 -52.5t-61.5 -132.5t68 -135t192 -123q211 -109 297 -224.5t82 -254.5q-4 -182 -131 -281.5t-326 -97.5q-143 2 -258 42t-180 96l96 165q152 -113 326 -112q119 0 188.5 56t69.5 118t-18.5 101.5t-83 91t-218.5 140.5q-153 90 -237 188.5 t-84 240.5t114.5 255t319.5 113q106 0 210 -26.5t163 -63.5l-74 -180q-145 76 -269 76z" glyph-name="S" horiz-adv-x="1058" unicode="S"/><glyph d="M1004 1438v-183h-371v-1255h-215v1255h-367v183h953z" glyph-name="T" horiz-adv-x="1054" unicode="T"/><glyph d="M147 502v936h218v-928q0 -150 87 -250t224 -100t226 101t89 249v928h215v-936q0 -221 -138 -376t-393 -155t-391.5 155t-136.5 376z" glyph-name="U" horiz-adv-x="1355" unicode="U"/><glyph d="M1083 1438h228l-635 -1454h-29l-631 1454h244l406 -983z" glyph-name="V" horiz-adv-x="1327" unicode="V"/><glyph d="M1722 1438h220l-558 -1454h-30l-381 999l-381 -999h-31l-545 1454h236l338 -940l373 956h30l375 -969z" glyph-name="W" horiz-adv-x="1957" unicode="W"/><glyph d="M281 0h-240l446 719l-446 719h252l319 -518l322 518h237l-440 -711l457 -727h-250l-330 530z" glyph-name="X" horiz-adv-x="1228" unicode="X"/><glyph d="M721 0h-217v684l-484 754h254l344 -531l347 531h243l-487 -754v-684z" glyph-name="Y" horiz-adv-x="1228" unicode="Y"/><glyph d="M1053 180v-180h-977l-21 31l703 1226h-631v181h942l16 -31l-696 -1227h664z" glyph-name="Z" horiz-adv-x="1142" unicode="Z"/><glyph d="M391 -96h291v-172h-508v1706h508v-174l-291 -2v-1358z" glyph-name="bracketleft" horiz-adv-x="774" unicode="["/><glyph d="M184 1509l711 -1775l-162 -72l-713 1776z" glyph-name="backslash" horiz-adv-x="872" unicode="\"/><glyph d="M92 -96h291v1358l-291 2v174h508v-1706h-508v172z" glyph-name="bracketright" horiz-adv-x="774" unicode="]"/><glyph d="M55 1001l359 437h26l359 -437l-129 -110l-244 307l-246 -307z" glyph-name="asciicircum" horiz-adv-x="856" unicode="^"/><glyph d="M1346 -344h-1346v156h1346v-156z" glyph-name="underscore" horiz-adv-x="1345" unicode="_"/><glyph d="M61 1235h258l123 -272h-151l-230 241v31z" glyph-name="grave" horiz-adv-x="503" unicode="`"/><glyph d="M383 -27q-143 0 -237.5 80t-94.5 201t92.5 203t237.5 82q86 0 168 -36t117 -75v47q-2 92 -61 155.5t-165 63.5t-221 -57l-65 141q47 31 136 58.5t169 25.5q180 -4 287.5 -106t113.5 -295l-2 -461h-115l-69 106q-88 -133 -291 -133zM252 259q0 -58 51 -99t132 -41t151 50 t80 122v12q-90 98 -240 96q-80 0 -127 -41t-47 -99z" glyph-name="a" horiz-adv-x="952" unicode="a"/><glyph d="M608 -27q-92 0 -178 43t-127 109l-80 -125h-110v1438l182 24h18v-741q39 63 121 103t172 40q178 0 300 -125t122 -321t-120 -320.5t-300 -124.5zM574 135q106 0 177.5 80t71.5 205t-74.5 203.5t-181.5 78.5t-178.5 -73.5t-73.5 -196.5v-16q0 -123 76.5 -202t182.5 -79z " glyph-name="b" horiz-adv-x="1083" unicode="b"/><glyph d="M539 139q122 0 215 92l98 -118q-139 -139 -341 -139t-329 126.5t-127 319.5t127 318.5t333 125.5t337 -147l-107 -129q-94 112 -214 112t-196.5 -77.5t-76.5 -202.5t79.5 -203t201.5 -78z" glyph-name="c" horiz-adv-x="894" unicode="c"/><glyph d="M475 -27q-180 0 -300 125t-120 321t122 320.5t300 124.5q90 0 172 -40t119 -103v717l184 24h19v-1462h-113l-80 125q-41 -66 -126 -109t-177 -43zM510 135q108 0 182 78t74 203v16q-2 123 -72.5 196.5t-177 73.5t-181.5 -78.5t-75 -203.5t71 -205t179 -80z" glyph-name="d" horiz-adv-x="1083" unicode="d"/><glyph d="M899 399h-643q2 -117 92 -190.5t220 -73.5t251 74l80 -131q-63 -51 -165.5 -78t-201.5 -27q-205 0 -341 128t-136 321t126 317.5t299 124.5t296 -119.5t123 -324.5v-21zM483 707q-84 0 -144.5 -58t-68.5 -121h420q-8 78 -65.5 128.5t-141.5 50.5z" glyph-name="e" horiz-adv-x="960" unicode="e"/><glyph d="M385 838h211v-162h-211v-676h-201v676h-129v20l21 142h108v295q0 90 40.5 186t156 132.5t231.5 4.5l-24 -166q-76 23 -140.5 -23.5t-62.5 -150.5v-278z" glyph-name="f" horiz-adv-x="647" unicode="f"/><glyph d="M481 -541q-207 0 -339 80t-132 223q0 102 64.5 168t154.5 82q-41 6 -72.5 45t-30.5 93t42 94.5t102 38.5q-80 45 -119.5 117.5t-39.5 148.5q0 121 91 218t265 97q76 0 149.5 -26.5t114.5 -63.5l182 64h35v-183h-149q25 -37 24 -94q0 -133 -95 -226t-267 -95 q-131 0 -131 -78t151 -82q484 -24 484 -316q0 -148 -138.5 -226.5t-345.5 -78.5zM487 -383q117 0 196 37t79 112t-95 115.5t-207 40.5t-181.5 -41t-69.5 -114.5t80.5 -111.5t197.5 -38zM468 387q77 0 122 48t45 113t-45 114t-123 49t-123 -49.5t-45 -113.5t46 -112.5 t123 -48.5z" glyph-name="g" horiz-adv-x="999" unicode="g"/><glyph d="M313 1462v-723q101 125 261 125t259 -98t99 -258v-508h-205v483q0 84 -57.5 149.5t-148.5 65.5t-147.5 -72.5t-60.5 -191.5v-434h-200v1438l182 24h18z" glyph-name="h" horiz-adv-x="1024" unicode="h"/><glyph d="M131 0v838h201v-838h-201zM86 1181.5q0 59.5 43 102.5t101 43t101.5 -43t43.5 -103t-41.5 -101.5t-101.5 -41.5t-103 42t-43 101.5z" glyph-name="i" horiz-adv-x="462" unicode="i"/><glyph d="M133 838h203v-1031q0 -109 -44 -185.5t-108.5 -105t-139.5 -38.5t-136 12l24 164q80 -18 141.5 29t59.5 141v1014zM88 1181q0 60 43 103t102.5 43t102.5 -43t43 -103t-42.5 -101.5t-102.5 -41.5t-103 41.5t-43 101.5z" glyph-name="j" horiz-adv-x="466" unicode="j"/><glyph d="M313 1462v-948l336 324h244l-391 -387l428 -451h-258l-359 371v-371h-200v1438l182 24h18z" glyph-name="k" horiz-adv-x="956" unicode="k"/><glyph d="M313 1462v-1462h-200v1438l182 24h18z" glyph-name="l" horiz-adv-x="425" unicode="l"/><glyph d="M520 864q190 0 273 -159q37 76 109.5 117.5t154.5 41.5q147 0 227 -91t80 -241v-532h-203v508q0 92 -44.5 138t-110.5 46t-114 -46t-52 -134v-512h-203v504q0 92 -45 140t-113 48t-117 -51t-49 -141v-500h-200v838h110l80 -95q29 51 86 86t131 35z" glyph-name="m" horiz-adv-x="1456" unicode="m"/><glyph d="M570 864q166 0 264 -98t98 -258v-508h-205v483q0 98 -58.5 156.5t-141.5 58.5t-148.5 -58t-65.5 -155v-485h-200v838h110l80 -105q101 131 267 131z" glyph-name="n" horiz-adv-x="1024" unicode="n"/><glyph d="M513 -27q-183 0 -320.5 125t-137.5 321.5t138.5 320.5t321.5 124t320.5 -124t137.5 -320.5t-138.5 -321.5t-321.5 -125zM515 135q105 0 179 79t74 206t-75 204.5t-181 77.5t-179 -76.5t-73 -204.5t75 -207t180 -79z" glyph-name="o" horiz-adv-x="1030" unicode="o"/><glyph d="M606 864q180 0 300 -126t120 -320.5t-121 -319.5t-301 -125q-90 0 -172 39t-119 105v-602l-182 -27h-18v1350h110l80 -131q41 70 126 113.5t177 43.5zM572 702q-106 0 -181.5 -76.5t-75.5 -203.5v-16q2 -121 74 -196t177 -75t180 78t75 204t-71.5 205.5t-177.5 79.5z" glyph-name="p" horiz-adv-x="1083" unicode="p"/><glyph d="M475 864q92 0 178 -44t125 -113l80 131h113v-1323l-183 -27h-20v629q-35 -66 -117 -105t-174 -39q-178 0 -300 125t-122 319.5t120 320.5t300 126zM510 702q-108 0 -179 -79.5t-71 -205.5t75 -204t181.5 -78t177 74t72.5 197v16q0 125 -74 202.5t-182 77.5z" glyph-name="q" horiz-adv-x="1083" unicode="q"/><glyph d="M113 0v838h110l80 -90q23 47 76 80.5t113 33.5t118 -31q-12 -72 -35 -180l-12 -4q-43 25 -96 25q-100 0 -154 -94v-578h-200z" glyph-name="r" horiz-adv-x="647" unicode="r"/><glyph d="M414 698q-61 0 -102.5 -22.5t-41.5 -66.5t40 -64.5t118 -36.5q317 -49 317 -275q0 -129 -100 -194.5t-267 -65.5t-306 76l53 164q162 -76 248 -76q190 0 190 92q0 41 -43 63.5t-135 43.5q-301 57 -301 266q0 123 97.5 192.5t234.5 69.5t289 -57l-52 -160q-117 51 -239 51 z" glyph-name="s" horiz-adv-x="817" unicode="s"/><glyph d="M41 676v20l20 142h117v284l184 29h19v-313h205v-162h-205v-402q0 -61 37 -91.5t80 -30.5t80 10q23 -121 28 -162q-70 -18 -125 -18q-303 0 -303 331v363h-137z" glyph-name="t" horiz-adv-x="673" unicode="t"/><glyph d="M449 -27q-152 0 -249.5 98.5t-97.5 258.5v508h203v-484q0 -98 59.5 -156.5t141.5 -58.5t147.5 57.5t65.5 155.5v486h203v-838h-123l-70 102q-94 -129 -280 -129z" glyph-name="u" horiz-adv-x="1034" unicode="u"/><glyph d="M739 838h207l-452 -854h-27l-453 854h222l247 -494z" glyph-name="v" horiz-adv-x="962" unicode="v"/><glyph d="M1159 838h195l-389 -854h-27l-254 532l-258 -532h-29l-383 854h209l209 -463l244 483h29l241 -483z" glyph-name="w" horiz-adv-x="1370" unicode="w"/><glyph d="M942 838l-340 -422q256 -310 340 -416h-237q-43 47 -222 266l-213 -266h-237l332 416l-334 422h239l215 -273l226 273h231z" glyph-name="x" horiz-adv-x="972" unicode="x"/><glyph d="M739 838h209l-637 -1354h-196l-19 20l285 582l-361 752h224l245 -525z" glyph-name="y" horiz-adv-x="974" unicode="y"/><glyph d="M823 162v-162h-745l-17 37l476 639h-441l-2 162h733l15 -41l-451 -635h432z" glyph-name="z" horiz-adv-x="903" unicode="z"/><glyph d="M537 92q-1 -186 169 -186q48 0 70 4l31 -178q-70 -14 -133 -15q-188 0 -270 111t-82 287v149q0 173 -62.5 205.5t-126.5 32.5h-51v164h49q127 0 157.5 70.5t30.5 166.5v150q0 176 82 286.5t269 110.5q66 0 135 -14l-31 -176q-41 4 -55 4q-78 0 -121 -38t-52 -80.5 t-9 -101.5v-174q0 -111 -46.5 -184.5t-117.5 -101.5q80 -33 122 -97.5t42 -201.5v-193z" glyph-name="braceleft" horiz-adv-x="909" unicode="{"/><glyph d="M184 -268v1732h195v-1732h-195z" glyph-name="bar" horiz-adv-x="563" unicode="|"/><glyph d="M203 -94q170 0 170 186v193q0 137 42 201.5t122 97.5q-72 29 -118 102t-46 184v174q0 59 -9.5 101.5t-52.5 80.5t-121 38q-14 0 -55 -4l-31 176q70 14 136 14q186 0 268 -110.5t82 -286.5v-150q0 -174 62.5 -205.5t125.5 -31.5h49v-164h-51q-125 0 -156.5 -70.5 t-31.5 -167.5v-149q0 -176 -82 -287t-270 -111q-63 0 -134 15l31 178q23 -4 70 -4z" glyph-name="braceright" horiz-adv-x="909" unicode="}"/><glyph d="M300 639q54 0 154.5 -34t139.5 -34q86 0 127 58l86 -11q12 -127 -55.5 -186t-137.5 -59t-171 33.5t-140 33.5q-94 0 -129 -57l-86 10q-6 94 29 152.5t82 76t101 17.5z" glyph-name="asciitilde" horiz-adv-x="897" unicode="~"/><glyph d="M362 457l99 -914h-301l96 914h106zM459 749.5q0 -63.5 -44.5 -107.5t-106.5 -44t-106 44t-44 107.5t44 105.5t106 42t106.5 -42t44.5 -105.5z" glyph-name="exclamdown" horiz-adv-x="618" unicode="¡"/><glyph d="M539 416q122 0 215 92l98 -119q-117 -117 -281 -137v-252h-172v260q-158 35 -251 153.5t-93 282.5t94.5 282t249.5 150v267h172v-258q170 -23 281 -144l-107 -129q-94 113 -214 113t-196.5 -78t-76.5 -203t79.5 -202.5t201.5 -77.5z" glyph-name="cent" horiz-adv-x="894" unicode="¢"/><glyph d="M817 1051q-71 131 -235 131q-82 0 -146.5 -60.5t-64.5 -150.5t72.5 -206t80.5 -138h240v-178h-205q31 -127 -35 -222q86 -74 215 -73q80 0 148.5 35.5t101.5 86.5l117 -133q-109 -172 -371 -172q-199 0 -313 99q-66 -54 -132.5 -63t-95 -10t-67.5 1t-43 2l-8 168 q170 -8 242.5 79t27.5 202h-199v178h160q-10 20 -56 92t-68.5 129t-22.5 123q0 176 116.5 282.5t301.5 106.5q129 0 236.5 -54.5t160.5 -160.5z" glyph-name="sterling" horiz-adv-x="1136" unicode="£"/><glyph d="M648 1219q152 0 278 -84l129 131l129 -142l-127 -123q88 -115 88 -281t-88 -284l127 -123l-129 -139l-129 131q-123 -82 -278 -82t-281 82q-43 -45 -134 -131q-119 131 -127 139l130 123q-88 119 -88 284t88 281l-130 123l130 142l131 -131q129 84 281 84zM336 719 q0 -129 89 -226.5t221 -97.5t221 97.5t89 226.5t-89 227t-221 98t-221 -98t-89 -227z" glyph-name="currency" horiz-adv-x="1290" unicode="¤"/><glyph d="M1079 637h-350v-137h350v-166h-350v-334h-217v334h-352v166h352v137h-352v168h246l-375 528h250l348 -483l354 483h234l-379 -528h241v-168z" glyph-name="yen" horiz-adv-x="1247" unicode="¥"/><glyph d="M184 760v704h195v-704h-195zM184 -268v704h195v-704h-195z" glyph-name="brokenbar" horiz-adv-x="563" unicode="¦"/><glyph d="M475 1182q-72 0 -120 -41t-48 -101q0 -113 170 -170q205 -59 300 -145t95 -215q0 -154 -153 -244q63 -37 100 -101.5t37 -141.5q0 -156 -115.5 -239t-289.5 -83q-119 0 -221.5 30.5t-153.5 67.5l61 170q150 -86 314 -86q76 0 131 37t55 96t-46 99.5t-145 72.5 q-176 53 -272 130t-96 212q0 80 42 150t118 104q-136 92 -136 247t108.5 242t280.5 87t322 -84l-55 -172q-150 78 -283 78zM293 544q0 -66 58.5 -109.5t142.5 -63.5q66 -2 113.5 41t47.5 99t-54 103.5t-161 75.5q-55 0 -101 -40t-46 -106z" glyph-name="section" horiz-adv-x="944" unicode="§"/><glyph d="M61 1102q0 49 32 83t81 34t83 -34t34 -83t-34 -81t-83 -32t-81 32t-32 81zM379 1102q0 49 32.5 83t80.5 34t83 -34t35 -83t-33.5 -81t-83 -32t-82 32t-32.5 81z" glyph-name="dieresis" horiz-adv-x="671" unicode="¨"/><glyph d="M832 958q-102 0 -164 -69.5t-62 -172.5t66.5 -171t172.5 -68t185 84l88 -86q-53 -72 -136 -102.5t-159 -30.5q-170 0 -276.5 112.5t-106.5 266.5t106.5 264.5t272.5 110.5q86 0 166 -38t123 -91l-88 -99q-86 90 -188 90zM61 718q0 310 211.5 526t525.5 216t526 -217 t212 -526t-212 -524.5t-526 -215.5t-525.5 215.5t-211.5 525.5zM190 717q0 -264 175.5 -447.5t435.5 -183.5t436 184.5t176 447.5t-176 446.5t-436 183.5t-435.5 -183.5t-175.5 -447.5z" glyph-name="copyright" horiz-adv-x="1597" unicode="©"/><glyph d="M318 899q-96 0 -169 64.5t-73 161t69.5 160t183.5 63.5t212 -70v51q-2 61 -46 110.5t-119 49.5t-153 -39l-57 106q96 60 225 58t213 -78t86 -219l-2 -399h-78l-63 79q-16 -31 -74.5 -64.5t-154.5 -33.5zM349 1235q-44 0 -84 -28.5t-40 -78t43.5 -79t99.5 -29.5t103 30.5 t70 69.5v58q-4 2 -32 17t-42 20.5t-44 12.5t-74 7z" glyph-name="ordfeminine" horiz-adv-x="784" unicode="ª"/><glyph d="M473 -33l-412 439v32l416 453l135 -105l-323 -360l323 -350zM913 -33l-411 439v32l416 453l135 -105l-324 -360l324 -350z" glyph-name="guillemotleft" horiz-adv-x="1144" unicode="«"/><glyph d="M709 262v156h-627v178h811l-2 -334h-182z" glyph-name="logicalnot" horiz-adv-x="974" unicode="¬"/><glyph d="M1087 835q0 -116 -112 -192l162 -281h-170l-125 232q-31 -6 -62 -6t-67 4v-230h-150v713q90 23 180 23q160 0 252 -73.5t92 -189.5zM764 713q80 0 124 35.5t44 91t-45 87t-117 31.5q-16 0 -57 -4v-237q37 -4 51 -4zM61 718q0 310 211.5 526t525.5 216t526 -217t212 -526 t-212 -524.5t-526 -215.5t-525.5 215.5t-211.5 525.5zM190 717q0 -264 175.5 -447.5t435.5 -183.5t436 184.5t176 447.5t-176 446.5t-436 183.5t-435.5 -183.5t-175.5 -447.5z" glyph-name="registered" horiz-adv-x="1597" unicode="®"/><glyph d="M596 1028h-535v148h535v-148z" glyph-name="macron" horiz-adv-x="657" unicode="¯"/><glyph d="M61 1134q0 142 98.5 237t232.5 95t232.5 -94t98.5 -237.5t-93.5 -236.5t-237.5 -93t-237.5 93.5t-93.5 235.5zM219 1134.5q0 -77.5 49 -131t125 -53.5t124 53.5t48 131t-48 130t-124 52.5t-125 -52.5t-49 -130z" glyph-name="degree" horiz-adv-x="784" unicode="°"/><glyph d="M395 911v211h180v-211h316v-168h-316v-202h-180v202h-313v168h313zM889 258h-807v166h807v-166z" glyph-name="plusminus" horiz-adv-x="972" unicode="±"/><glyph d="M582 1358q0 -61 -43 -133t-85 -115.5t-72 -69.5t-34 -30h262v-121h-561l-14 29q320 262 359.5 330.5t39.5 120.5t-38 84t-87 32t-91 -23.5t-64 -56.5h-19l-72 84q37 57 110 93t167 34t168 -66.5t74 -191.5z" glyph-name="uni00B2" horiz-adv-x="686" unicode="²"/><glyph d="M90 1599h498l12 -28l-178 -244q63 -2 127.5 -62.5t64.5 -155.5t-84 -168t-223 -73t-256 82l49 101h23q23 -23 77 -41.5t110 -18.5t106.5 35.5t50.5 97.5t-64.5 100t-171.5 11l-22 25l172 223h-291v116z" glyph-name="uni00B3" horiz-adv-x="690" unicode="³"/><glyph d="M442 1235v-31l-229 -241h-152l123 272h258z" glyph-name="acute" horiz-adv-x="503" unicode="´"/><glyph d="M483 -29q-131 0 -168 72v-530l-182 -41h-18l-2 1366h202v-484q0 -98 58.5 -156.5t140.5 -58.5t147.5 57.5t65.5 155.5v486h203v-838h-121l-72 104q-27 -51 -103.5 -92t-150.5 -41z" glyph-name="uni00B5" horiz-adv-x="1042" unicode="µ"/><glyph d="M743 -268v1523h-84l-2 -1523h-174v858q-182 29 -302 140.5t-120 292.5t132.5 297t332.5 116h521v-181h-127v-1523h-177z" glyph-name="paragraph" horiz-adv-x="1118" unicode="¶"/><glyph d="M113 540.5q0 63.5 43 107.5t105 44t106.5 -44t44.5 -107.5t-44 -105.5t-106 -42t-105.5 42t-43.5 105.5z" glyph-name="periodcentered" horiz-adv-x="524" unicode="·"/><glyph d="M432 -160q0 -109 -82 -169t-194 -60q-49 0 -95 12q0 53 5 160q36 -10 76 -10t80 29.5t40 91.5t-72 106v20l58 23q74 -12 129 -69.5t55 -133.5z" glyph-name="cedilla" horiz-adv-x="493" unicode="¸"/><glyph d="M223 889v541l-106 -48l-45 105l262 131h28v-729h-139z" glyph-name="uni00B9" horiz-adv-x="522" unicode="¹"/><glyph d="M385 899q-143 0 -233.5 102.5t-90.5 256t91.5 257t234.5 103.5t234.5 -103.5t91.5 -256.5t-92.5 -256t-235.5 -103zM388 1022q83 0 129 72.5t46 163.5t-45 164t-131 73t-132 -72.5t-46 -162.5t48 -164t131 -74z" glyph-name="ordmasculine" horiz-adv-x="774" unicode="º"/><glyph d="M231 891l412 -438v-33l-416 -453l-135 105l324 360l-324 350zM672 891l411 -438v-33l-415 -453l-136 105l324 360l-324 350z" glyph-name="guillemotright" horiz-adv-x="1144" unicode="»"/><glyph d="M193 37l1073 1390l94 -73l-1071 -1385zM254 684v541l-107 -47l-45 104l263 131h28v-729h-139zM1413 221v-112h-92v-109h-139v109h-379l-35 47l498 577l53 -20l2 -492h92zM1182 221v236l-195 -236h195z" glyph-name="onequarter" horiz-adv-x="1517" unicode="¼"/><glyph d="M184 37l1073 1390l95 -73l-1071 -1385zM254 684v541l-107 -47l-45 104l263 131h28v-729h-139zM1489 469q0 -61 -57 -156.5t-177 -191.5h263v-121h-562l-14 29q320 262 359.5 330.5t39.5 120.5t-37.5 84t-87.5 32t-91.5 -23.5t-63.5 -56.5h-19l-71 84q37 57 109 93t166 34 t168.5 -66.5t74.5 -191.5z" glyph-name="onehalf" horiz-adv-x="1619" unicode="½"/><glyph d="M305 37l1073 1390l95 -73l-1072 -1385zM1516 221v-112h-93v-109h-139v109h-379l-35 47l498 577l53 -20l2 -492h93zM1284 221v236l-194 -236h194zM115 1395h497l13 -29l-179 -244q63 -2 128 -62.5t65 -155.5t-84 -167.5t-223 -72.5t-256 81l49 101h22q23 -23 77.5 -41.5 t110.5 -18.5t106.5 35t50.5 97t-65 100.5t-171 11.5l-23 25l173 223h-291v117z" glyph-name="threequarters" horiz-adv-x="1630" unicode="¾"/><glyph d="M315 457h164q20 -88 -4.5 -177t-138 -197.5t-113.5 -192.5q0 -85 48 -132t120 -47q117 0 195 123l145 -119q-41 -70 -132 -134t-235 -64t-254 93t-110 249t79 231.5t157.5 149t78.5 217.5zM541 749.5q0 -63.5 -43.5 -107.5t-105.5 -44t-106 44t-44 107.5t44 105.5t106 42 t105.5 -42t43.5 -105.5z" glyph-name="questiondown" horiz-adv-x="729" unicode="¿"/><glyph d="M244 0h-240l670 1454h28l662 -1454h-238l-129 293h-624zM686 1018l-237 -547h471zM381 1812h258l123 -272h-152l-229 242v30z" glyph-name="Agrave" horiz-adv-x="1368" unicode="À"/><glyph d="M244 0h-240l670 1454h28l662 -1454h-238l-129 293h-624zM686 1018l-237 -547h471zM987 1812v-30l-229 -242h-152l123 272h258z" glyph-name="Aacute" horiz-adv-x="1368" unicode="Á"/><glyph d="M244 0h-240l670 1454h28l662 -1454h-238l-129 293h-624zM686 1018l-237 -547h471zM786 1812q23 -35 168 -272h-145q-121 115 -125 119l-123 -119h-145q145 238 168 272h202z" glyph-name="Acircumflex" horiz-adv-x="1368" unicode="Â"/><glyph d="M244 0h-240l670 1454h28l662 -1454h-238l-129 293h-624zM686 1018l-237 -547h471zM560 1786q60 0 131 -26.5t100 -26.5q59 0 86 47l86 -25q2 -92 -46.5 -140t-105.5 -48t-132 27.5t-97 27.5q-61 0 -84 -49l-86 24q-4 96 42 142.5t106 46.5z" glyph-name="Atilde" horiz-adv-x="1368" unicode="Ã"/><glyph d="M244 0h-240l670 1454h28l662 -1454h-238l-129 293h-624zM686 1018l-237 -547h471zM401 1679q0 49 32 83t81 34t83 -33t34 -83t-34 -81.5t-83 -31.5t-81 31.5t-32 80.5zM719 1679q0 49 32.5 83t80.5 34t83 -33t35 -83t-33.5 -81.5t-83 -31.5t-82 31.5t-32.5 80.5z" glyph-name="Adieresis" horiz-adv-x="1368" unicode="Ä"/><glyph d="M436 1588q0 91 72 163t176 72t177 -72t73 -163t-45 -153.5t-119 -88.5l594 -1346h-238l-129 293h-624l-129 -293h-240l602 1343q-76 25 -123 89.5t-47 155.5zM686 1030l-237 -559h471zM559 1577q0 -53 36 -91t90 -38t90 38t36 92t-36 91t-90 37t-90 -38t-36 -91z" glyph-name="Aring" horiz-adv-x="1368" unicode="Å"/><glyph d="M1235 180h606v-180h-821v291h-578l-217 -291h-266l1059 1438h797v-183h-580v-348h467v-182h-467v-545zM1020 475v631l-455 -631h455z" glyph-name="AE" horiz-adv-x="1953" unicode="Æ"/><glyph d="M944 -160q0 -109 -82 -169t-194 -60q-49 0 -95 12q0 53 5 160q36 -10 76 -10t80 29.5t40 84.5t-37 88q-291 27 -481 237t-190 524t223 522t534.5 208t546.5 -211l-129 -153q-189 174 -413 174t-376.5 -161t-152.5 -392t151.5 -395t383.5 -164q119 0 230 47t189 117 l127 -144q-201 -193 -491 -211q55 -59 55 -133z" glyph-name="Ccedilla" horiz-adv-x="1445" unicode="Ç"/><glyph d="M379 180h606v-180h-821v1438h794v-183h-579v-354h467v-182h-467v-539zM334 1812h258l123 -272h-152l-229 242v30z" glyph-name="Egrave" unicode="È"/><glyph d="M379 180h606v-180h-821v1438h794v-183h-579v-354h467v-182h-467v-539zM795 1812v-30l-230 -242h-151l123 272h258z" glyph-name="Eacute" unicode="É"/><glyph d="M379 180h606v-180h-821v1438h794v-183h-579v-354h467v-182h-467v-539zM678 1812q23 -35 168 -272h-146q-121 115 -125 119l-122 -119h-146q145 238 168 272h203z" glyph-name="Ecircumflex" unicode="Ê"/><glyph d="M379 180h606v-180h-821v1438h794v-183h-579v-354h467v-182h-467v-539zM293 1679q0 49 31.5 83t80.5 34t83 -33t34 -83t-33 -81.5t-83 -31.5t-81.5 31.5t-31.5 80.5zM610 1679q0 49 33 83t82 34t83 -33t34 -83t-34 -81.5t-83 -31.5t-82 31.5t-33 80.5z" glyph-name="Edieresis" unicode="Ë"/><glyph d="M164 0v1438h215v-1438h-215zM-2 1812h258l123 -272h-152l-229 242v30z" glyph-name="Igrave" horiz-adv-x="542" unicode="Ì"/><glyph d="M164 0v1438h215v-1438h-215zM545 1812v-30l-230 -242h-151l123 272h258z" glyph-name="Iacute" horiz-adv-x="542" unicode="Í"/><glyph d="M164 0v1438h215v-1438h-215zM373 1812q23 -35 168 -272h-146q-121 115 -125 119l-123 -119h-145q145 238 168 272h203z" glyph-name="Icircumflex" horiz-adv-x="542" unicode="Î"/><glyph d="M164 0v1438h215v-1438h-215zM-4 1679q0 49 31.5 83t80.5 34t83 -33t34 -83t-33.5 -81.5t-83.5 -31.5t-81 31.5t-31 80.5zM313 1679q0 49 33 83t81 34t83 -33t35 -83t-34 -81.5t-83 -31.5t-82 31.5t-33 80.5z" glyph-name="Idieresis" horiz-adv-x="542" unicode="Ï"/><glyph d="M215 625h-195v178h195v629q345 60 601 -9.5t385.5 -216t156 -279t26.5 -214.5t-22.5 -170t-99 -230t-327.5 -255t-720 -58v625zM432 803h369v-178h-369v-437q186 -20 347 29t267.5 180t106.5 322q0 262 -191.5 416.5t-529.5 113.5v-446z" glyph-name="Eth" horiz-adv-x="1460" unicode="Ð"/><glyph d="M997 1438h209v-1438h-209v618l-624 445v-1063h-209v1442l29 12l804 -580v564zM554 1786q60 0 131 -26.5t99 -26.5q59 0 86 47l86 -25q2 -92 -46 -140t-105 -48t-132 27.5t-98 27.5q-60 0 -83 -49l-86 24q-4 96 42 142.5t106 46.5z" glyph-name="Ntilde" horiz-adv-x="1370" unicode="Ñ"/><glyph d="M66 718q0 316 214 532t539.5 216t540.5 -217t215 -532.5t-215 -530.5t-540.5 -215t-539.5 215.5t-214 531.5zM297 717q0 -244 152.5 -398.5t369.5 -154.5t370.5 154.5t153.5 398.5t-154.5 401.5t-370.5 157.5t-368.5 -157.5t-152.5 -401.5zM530 1812h258l123 -272h-151 l-230 242v30z" glyph-name="Ograve" horiz-adv-x="1642" unicode="Ò"/><glyph d="M66 718q0 316 214 532t539.5 216t540.5 -217t215 -532.5t-215 -530.5t-540.5 -215t-539.5 215.5t-214 531.5zM297 717q0 -244 152.5 -398.5t369.5 -154.5t370.5 154.5t153.5 398.5t-154.5 401.5t-370.5 157.5t-368.5 -157.5t-152.5 -401.5zM1104 1812v-30l-230 -242h-151 l123 272h258z" glyph-name="Oacute" horiz-adv-x="1642" unicode="Ó"/><glyph d="M66 718q0 316 214 532t539.5 216t540.5 -217t215 -532.5t-215 -530.5t-540.5 -215t-539.5 215.5t-214 531.5zM297 717q0 -244 152.5 -398.5t369.5 -154.5t370.5 154.5t153.5 398.5t-154.5 401.5t-370.5 157.5t-368.5 -157.5t-152.5 -401.5zM922 1812q23 -35 168 -272 h-146q-121 115 -125 119l-123 -119h-145q145 238 168 272h203z" glyph-name="Ocircumflex" horiz-adv-x="1642" unicode="Ô"/><glyph d="M66 718q0 316 214 532t539.5 216t540.5 -217t215 -532.5t-215 -530.5t-540.5 -215t-539.5 215.5t-214 531.5zM297 717q0 -244 152.5 -398.5t369.5 -154.5t370.5 154.5t153.5 398.5t-154.5 401.5t-370.5 157.5t-368.5 -157.5t-152.5 -401.5zM694 1786q60 0 130.5 -26.5 t99.5 -26.5q59 0 86 47l86 -25q2 -92 -46.5 -140t-105.5 -48t-132 27.5t-97 27.5q-61 0 -84 -49l-86 24q-4 96 42.5 142.5t106.5 46.5z" glyph-name="Otilde" horiz-adv-x="1642" unicode="Õ"/><glyph d="M66 718q0 316 214 532t539.5 216t540.5 -217t215 -532.5t-215 -530.5t-540.5 -215t-539.5 215.5t-214 531.5zM297 717q0 -244 152.5 -398.5t369.5 -154.5t370.5 154.5t153.5 398.5t-154.5 401.5t-370.5 157.5t-368.5 -157.5t-152.5 -401.5zM541 1679q0 49 31.5 83 t80.5 34t83 -33t34 -83t-34 -81.5t-83 -31.5t-80.5 31.5t-31.5 80.5zM858 1679q0 49 33 83t81 34t83 -33t35 -83t-34 -81.5t-83 -31.5t-82 31.5t-33 80.5z" glyph-name="Odieresis" horiz-adv-x="1642" unicode="Ö"/><glyph d="M381 686l-258 256l127 129l256 -258l252 258l116 -117l-253 -256l258 -254l-127 -129l-256 256q-127 -127 -250 -256l-117 117z" glyph-name="multiply" horiz-adv-x="1001" unicode="×"/><glyph d="M66 717q0 317 214 533t539 216q162 0 303 -59l113 205l145 -78l-114 -205q145 -102 227 -263t82 -349q0 -315 -215 -530.5t-541 -215.5q-143 0 -280 49l-138 -249l-139 82l133 239q-156 100 -242.5 264t-86.5 361zM297 717q0 -283 199 -441l528 957q-102 43 -205 43 q-217 0 -369.5 -157.5t-152.5 -401.5zM1343 725q0 252 -180 418l-526 -946q84 -33 182 -33q217 0 370.5 154.5t153.5 406.5z" glyph-name="Oslash" horiz-adv-x="1642" unicode="Ø"/><glyph d="M147 502v936h218v-928q0 -150 87 -250t224 -100t226 101t89 249v928h215v-936q0 -221 -138 -376t-393 -155t-391.5 155t-136.5 376zM393 1812h258l123 -272h-151l-230 242v30z" glyph-name="Ugrave" horiz-adv-x="1355" unicode="Ù"/><glyph d="M147 502v936h218v-928q0 -150 87 -250t224 -100t226 101t89 249v928h215v-936q0 -221 -138 -376t-393 -155t-391.5 155t-136.5 376zM942 1812v-30l-229 -242h-152l123 272h258z" glyph-name="Uacute" horiz-adv-x="1355" unicode="Ú"/><glyph d="M147 502v936h218v-928q0 -150 87 -250t224 -100t226 101t89 249v928h215v-936q0 -221 -138 -376t-393 -155t-391.5 155t-136.5 376zM776 1812q23 -35 168 -272h-145q-121 115 -125 119l-123 -119h-145q145 238 167 272h203z" glyph-name="Ucircumflex" horiz-adv-x="1355" unicode="Û"/><glyph d="M147 502v936h218v-928q0 -150 87 -250t224 -100t226 101t89 249v928h215v-936q0 -221 -138 -376t-393 -155t-391.5 155t-136.5 376zM391 1679q0 49 32 83t81 34t83 -33t34 -83t-34 -81.5t-83 -31.5t-81 31.5t-32 80.5zM709 1679q0 49 32.5 83t81.5 34t83 -33t34 -83 t-34 -81.5t-83 -31.5t-81.5 31.5t-32.5 80.5z" glyph-name="Udieresis" horiz-adv-x="1355" unicode="Ü"/><glyph d="M721 0h-217v684l-484 754h254l344 -531l347 531h243l-487 -754v-684zM885 1812v-30l-230 -242h-151l123 272h258z" glyph-name="Yacute" horiz-adv-x="1228" unicode="Ý"/><glyph d="M164 0v1438h215v-207q27 2 76 2q276 0 438 -136t162 -374t-166 -380t-440 -142q-45 0 -68 2v-203h-217zM459 389q180 0 280.5 95.5t100.5 238.5t-98.5 232t-272.5 89q-43 0 -88 -6v-645q27 -4 78 -4z" glyph-name="Thorn" horiz-adv-x="1116" unicode="Þ"/><glyph d="M752 408q0 123 -71 194.5t-179 71.5q-29 0 -60 -6q-20 25 -28 37l202 428q-2 66 -45 109.5t-109 43.5t-107.5 -49t-41.5 -123v-1114h-200v1116q0 162 99 259.5t258 97.5t259 -103.5t107 -226.5l-174 -342q121 -25 208.5 -129.5t87.5 -257.5q0 -223 -158.5 -339 t-393.5 -75l26 170q131 -27 225.5 44t94.5 194z" glyph-name="germandbls" horiz-adv-x="1013" unicode="ß"/><glyph d="M383 -27q-143 0 -237.5 80t-94.5 201t92.5 203t237.5 82q86 0 168 -36t117 -75v47q-2 92 -61 155.5t-165 63.5t-221 -57l-65 141q47 31 136 58.5t169 25.5q180 -4 287.5 -106t113.5 -295l-2 -461h-115l-69 106q-88 -133 -291 -133zM252 259q0 -58 51 -99t132 -41t151 50 t80 122v12q-90 98 -240 96q-80 0 -127 -41t-47 -99zM207 1235h258l123 -272h-152l-229 241v31z" glyph-name="agrave" horiz-adv-x="952" unicode="à"/><glyph d="M383 -27q-143 0 -237.5 80t-94.5 201t92.5 203t237.5 82q86 0 168 -36t117 -75v47q-2 92 -61 155.5t-165 63.5t-221 -57l-65 141q47 31 136 58.5t169 25.5q180 -4 287.5 -106t113.5 -295l-2 -461h-115l-69 106q-88 -133 -291 -133zM252 259q0 -58 51 -99t132 -41t151 50 t80 122v12q-90 98 -240 96q-80 0 -127 -41t-47 -99zM727 1235v-31l-229 -241h-152l123 272h258z" glyph-name="aacute" horiz-adv-x="952" unicode="á"/><glyph d="M383 -27q-143 0 -237.5 80t-94.5 201t92.5 203t237.5 82q86 0 168 -36t117 -75v47q-2 92 -61 155.5t-165 63.5t-221 -57l-65 141q47 31 136 58.5t169 25.5q180 -4 287.5 -106t113.5 -295l-2 -461h-115l-69 106q-88 -133 -291 -133zM252 259q0 -58 51 -99t132 -41t151 50 t80 122v12q-90 98 -240 96q-80 0 -127 -41t-47 -99zM582 1235q23 -35 168 -272h-146q-121 115 -125 118l-123 -118h-145q145 238 168 272h203z" glyph-name="acircumflex" horiz-adv-x="952" unicode="â"/><glyph d="M383 -27q-143 0 -237.5 80t-94.5 201t92.5 203t237.5 82q86 0 168 -36t117 -75v47q-2 92 -61 155.5t-165 63.5t-221 -57l-65 141q47 31 136 58.5t169 25.5q180 -4 287.5 -106t113.5 -295l-2 -461h-115l-69 106q-88 -133 -291 -133zM252 259q0 -58 51 -99t132 -41t151 50 t80 122v12q-90 98 -240 96q-80 0 -127 -41t-47 -99zM354 1208q60 0 130.5 -26.5t99.5 -26.5q59 0 86 47l86 -24q2 -92 -46 -140.5t-106 -48.5t-132.5 27.5t-96.5 27.5q-61 0 -84 -49l-86 25q-4 96 42.5 142t106.5 46z" glyph-name="atilde" horiz-adv-x="952" unicode="ã"/><glyph d="M383 -27q-143 0 -237.5 80t-94.5 201t92.5 203t237.5 82q86 0 168 -36t117 -75v47q-2 92 -61 155.5t-165 63.5t-221 -57l-65 141q47 31 136 58.5t169 25.5q180 -4 287.5 -106t113.5 -295l-2 -461h-115l-69 106q-88 -133 -291 -133zM252 259q0 -58 51 -99t132 -41t151 50 t80 122v12q-90 98 -240 96q-80 0 -127 -41t-47 -99zM201 1102q0 49 31.5 83t80.5 34t83 -34t34 -83t-34 -81t-83 -32t-80.5 32t-31.5 81zM518 1102q0 49 33 83t81 34t83 -34t35 -83t-34 -81t-83 -32t-82 32t-33 81z" glyph-name="adieresis" horiz-adv-x="952" unicode="ä"/><glyph d="M238 1002q0 99 71.5 171t176 72t177 -71.5t72.5 -175.5t-80 -179q197 -94 205 -358l-2 -461h-115l-69 106q-88 -133 -291 -133q-143 0 -237.5 80t-94.5 201t92.5 203t237.5 82q86 0 168 -36t117 -75v47q-2 92 -61 155.5t-165 63.5t-221 -57l-65 141q55 37 143 60 q-59 65 -59 164zM252 259q0 -58 51 -99t132 -41t151 50t80 122v12q-90 98 -240 96q-80 0 -127 -41t-47 -99zM360 999.5q0 -53.5 36 -91.5t90 -38t90 38t36 92t-36 91t-90 37t-90 -37.5t-36 -91z" glyph-name="aring" horiz-adv-x="952" unicode="å"/><glyph d="M1513 399h-643q2 -117 92.5 -190.5t220.5 -73.5t251 74l79 -131q-63 -51 -165.5 -78t-200.5 -27q-242 0 -381 168q-125 -168 -383 -168q-143 0 -237.5 80t-94.5 201t92.5 203t237.5 82q86 0 168 -36t117 -75v47q-2 92 -61 155.5t-165 63.5t-221 -57l-65 141 q47 31 136 58.5t169 25.5q211 -4 317 -141q127 143 326 143q166 0 288.5 -119.5t122.5 -324.5v-21zM252 259q0 -58 51 -99t132 -41t151 50t80 122v12q-90 98 -240 96q-80 0 -127 -41t-47 -99zM1098 707q-84 0 -144.5 -58t-68.5 -121h420q-8 78 -65.5 128.5t-141.5 50.5z" glyph-name="ae" horiz-adv-x="1574" unicode="æ"/><glyph d="M539 139q122 0 215 92l98 -118q-106 -106 -256 -133q61 -57 61 -153t-81.5 -156t-194.5 -60q-49 0 -94 12q0 53 4 160q35 -10 75 -10t80.5 29.5t40.5 85.5t-38 89q-178 20 -286 143.5t-108 307.5t127 310t333 126t337 -147l-107 -129q-94 112 -214 112t-196.5 -77.5 t-76.5 -202.5t79.5 -203t201.5 -78z" glyph-name="ccedilla" horiz-adv-x="894" unicode="ç"/><glyph d="M899 399h-643q2 -117 92 -190.5t220 -73.5t251 74l80 -131q-63 -51 -165.5 -78t-201.5 -27q-205 0 -341 128t-136 321t126 317.5t299 124.5t296 -119.5t123 -324.5v-21zM483 707q-84 0 -144.5 -58t-68.5 -121h420q-8 78 -65.5 128.5t-141.5 50.5zM229 1235h258l123 -272 h-151l-230 241v31z" glyph-name="egrave" horiz-adv-x="960" unicode="è"/><glyph d="M899 399h-643q2 -117 92 -190.5t220 -73.5t251 74l80 -131q-63 -51 -165.5 -78t-201.5 -27q-205 0 -341 128t-136 321t126 317.5t299 124.5t296 -119.5t123 -324.5v-21zM483 707q-84 0 -144.5 -58t-68.5 -121h420q-8 78 -65.5 128.5t-141.5 50.5zM737 1235v-31l-229 -241 h-152l123 272h258z" glyph-name="eacute" horiz-adv-x="960" unicode="é"/><glyph d="M899 399h-643q2 -117 92 -190.5t220 -73.5t251 74l80 -131q-63 -51 -165.5 -78t-201.5 -27q-205 0 -341 128t-136 321t126 317.5t299 124.5t296 -119.5t123 -324.5v-21zM483 707q-84 0 -144.5 -58t-68.5 -121h420q-8 78 -65.5 128.5t-141.5 50.5zM588 1235 q23 -35 168 -272h-146q-121 115 -125 118l-123 -118h-145q145 238 168 272h203z" glyph-name="ecircumflex" horiz-adv-x="960" unicode="ê"/><glyph d="M899 399h-643q2 -117 92 -190.5t220 -73.5t251 74l80 -131q-63 -51 -165.5 -78t-201.5 -27q-205 0 -341 128t-136 321t126 317.5t299 124.5t296 -119.5t123 -324.5v-21zM483 707q-84 0 -144.5 -58t-68.5 -121h420q-8 78 -65.5 128.5t-141.5 50.5zM211 1102q0 49 31.5 83 t81.5 34t83 -34t33 -83t-33.5 -81t-82.5 -32t-81 32t-32 81zM528 1102q0 49 33 83t82 34t83 -34t34 -83t-34 -81t-83 -32t-82 32t-33 81z" glyph-name="edieresis" horiz-adv-x="960" unicode="ë"/><glyph d="M-53 1235h258l123 -272h-152l-229 241v31zM129 0v838h197v-838h-197z" glyph-name="igrave" horiz-adv-x="456" unicode="ì"/><glyph d="M510 1235v-31l-229 -241h-152l123 272h258zM129 0v838h197v-838h-197z" glyph-name="iacute" horiz-adv-x="456" unicode="í"/><glyph d="M129 0v838h197v-838h-197zM330 1235q23 -35 168 -272h-146q-121 115 -125 118l-123 -118h-145q145 238 168 272h203z" glyph-name="icircumflex" horiz-adv-x="456" unicode="î"/><glyph d="M-45 1102q0 49 31.5 83t81.5 34t83 -34t33 -83t-33.5 -81t-82.5 -32t-81 32t-32 81zM272 1102q0 49 33 83t81 34t83 -34t35 -83t-34 -81t-83 -32t-82 32t-33 81zM129 0v838h197v-838h-197z" glyph-name="idieresis" horiz-adv-x="456" unicode="ï"/><glyph d="M983 477q0 -238 -133 -371t-331 -133t-331 124t-133 321t127 321.5t326 124.5q72 0 142.5 -28.5t109.5 -85.5q-45 233 -217 385l-99 -136l-122 82l98 131q-127 74 -266 97l-21 24l55 131q178 -29 330 -116q31 43 96 129q41 -31 123 -88q-61 -82 -94 -121 q340 -276 340 -791zM515 135q103 0 180 79t77 204t-73.5 204.5t-185.5 79.5t-182.5 -78.5t-70.5 -204.5t76 -205t179 -79z" glyph-name="eth" horiz-adv-x="1040" unicode="ð"/><glyph d="M570 864q166 0 264 -98t98 -258v-508h-205v483q0 98 -58.5 156.5t-141.5 58.5t-148.5 -58t-65.5 -155v-485h-200v838h110l80 -105q101 131 267 131zM406 1208q60 0 131 -26.5t100 -26.5q59 0 86 47l86 -24q2 -92 -45.5 -140.5t-105.5 -48.5t-132.5 27.5t-97.5 27.5 q-61 0 -84 -49l-86 25q-4 96 42 142t106 46z" glyph-name="ntilde" horiz-adv-x="1024" unicode="ñ"/><glyph d="M513 -27q-183 0 -320.5 125t-137.5 321.5t138.5 320.5t321.5 124t320.5 -124t137.5 -320.5t-138.5 -321.5t-321.5 -125zM515 135q105 0 179 79t74 206t-75 204.5t-181 77.5t-179 -76.5t-73 -204.5t75 -207t180 -79zM233 1235h259l122 -272h-151l-230 241v31z" glyph-name="ograve" horiz-adv-x="1030" unicode="ò"/><glyph d="M513 -27q-183 0 -320.5 125t-137.5 321.5t138.5 320.5t321.5 124t320.5 -124t137.5 -320.5t-138.5 -321.5t-321.5 -125zM515 135q105 0 179 79t74 206t-75 204.5t-181 77.5t-179 -76.5t-73 -204.5t75 -207t180 -79zM772 1235v-31l-229 -241h-152l123 272h258z" glyph-name="oacute" horiz-adv-x="1030" unicode="ó"/><glyph d="M513 -27q-183 0 -320.5 125t-137.5 321.5t138.5 320.5t321.5 124t320.5 -124t137.5 -320.5t-138.5 -321.5t-321.5 -125zM515 135q105 0 179 79t74 206t-75 204.5t-181 77.5t-179 -76.5t-73 -204.5t75 -207t180 -79zM614 1235q23 -35 168 -272h-145q-121 115 -125 118 l-123 -118h-145q145 238 168 272h202z" glyph-name="ocircumflex" horiz-adv-x="1030" unicode="ô"/><glyph d="M513 -27q-183 0 -320.5 125t-137.5 321.5t138.5 320.5t321.5 124t320.5 -124t137.5 -320.5t-138.5 -321.5t-321.5 -125zM515 135q105 0 179 79t74 206t-75 204.5t-181 77.5t-179 -76.5t-73 -204.5t75 -207t180 -79zM386 1208q60 0 131 -26.5t99 -26.5q59 0 86 47l86 -24 q2 -92 -46 -140.5t-105 -48.5t-132 27.5t-97 27.5q-61 0 -84 -49l-86 25q-4 96 42 142t106 46z" glyph-name="otilde" horiz-adv-x="1030" unicode="õ"/><glyph d="M513 -27q-183 0 -320.5 125t-137.5 321.5t138.5 320.5t321.5 124t320.5 -124t137.5 -320.5t-138.5 -321.5t-321.5 -125zM515 135q105 0 179 79t74 206t-75 204.5t-181 77.5t-179 -76.5t-73 -204.5t75 -207t180 -79zM231 1102q0 49 32 83t81 34t83 -34t34 -83t-34 -81 t-83 -32t-81 32t-32 81zM549 1102q0 49 32.5 83t82 34t83 -34t33.5 -83t-33.5 -81t-83 -32t-82 32t-32.5 81z" glyph-name="odieresis" horiz-adv-x="1030" unicode="ö"/><glyph d="M367 1032q0 51 34.5 87t86 36t85 -35t33.5 -87t-33.5 -85t-85 -33t-86 33t-34.5 84zM893 610h-811v178h811v-178zM367 375q0 51 34.5 86t86 35t85 -35t33.5 -86t-33.5 -85t-85 -34t-86 34t-34.5 85z" glyph-name="divide" horiz-adv-x="974" unicode="÷"/><glyph d="M512 -27q-82 0 -154 27l-100 -186l-106 59l98 180q-195 129 -195 367q0 197 138.5 320.5t322.5 123.5q78 0 158 -28l88 161l110 -53l-88 -164q188 -129 189 -360q0 -197 -138.5 -322t-322.5 -125zM260 420q0 -129 76 -209l258 477q-37 14 -82 14q-106 0 -179 -76.5 t-73 -205.5zM514 135q106 0 180 79t74 205t-72 202l-258 -474q37 -12 76 -12z" glyph-name="oslash" horiz-adv-x="1030" unicode="ø"/><glyph d="M463 -27q-166 0 -263.5 98.5t-97.5 258.5v508h203v-484q0 -98 59.5 -156.5t141.5 -58.5t147.5 57.5t65.5 155.5v486h203v-838h-123l-70 102q-100 -129 -266 -129zM236 1235h258l122 -272h-151l-229 241v31z" glyph-name="ugrave" horiz-adv-x="1034" unicode="ù"/><glyph d="M463 -27q-166 0 -263.5 98.5t-97.5 258.5v508h203v-484q0 -98 59.5 -156.5t141.5 -58.5t147.5 57.5t65.5 155.5v486h203v-838h-123l-70 102q-100 -129 -266 -129zM784 1235v-31l-229 -241h-152l123 272h258z" glyph-name="uacute" horiz-adv-x="1034" unicode="ú"/><glyph d="M463 -27q-166 0 -263.5 98.5t-97.5 258.5v508h203v-484q0 -70 47 -112q49 -102 158 -103q78 0 143.5 57.5t65.5 155.5v486h203v-838h-123l-70 102q-100 -129 -266 -129zM614 1235q23 -35 168 -272h-145q-121 115 -125 118l-123 -118h-145q145 238 168 272h202z" glyph-name="ucircumflex" horiz-adv-x="1034" unicode="û"/><glyph d="M463 -27q-166 0 -263.5 98.5t-97.5 258.5v508h203v-484q0 -98 59.5 -156.5t141.5 -58.5t147.5 57.5t65.5 155.5v486h203v-838h-123l-70 102q-100 -129 -266 -129zM223 1102q0 49 32 83t81 34t83 -34t34 -83t-34 -81t-83 -32t-81 32t-32 81zM541 1102q0 49 32.5 83t82 34 t83 -34t33.5 -83t-33.5 -81t-83 -32t-82 32t-32.5 81z" glyph-name="udieresis" horiz-adv-x="1034" unicode="ü"/><glyph d="M739 838h209l-637 -1354h-196l-19 20l285 582l-361 752h224l245 -525zM772 1235v-31l-229 -241h-152l123 272h258z" glyph-name="yacute" horiz-adv-x="974" unicode="ý"/><glyph d="M604 -27q-88 0 -170 40t-121 104v-602l-182 -27h-18v1950l182 24h18v-741q43 63 125 103t170 40q180 0 299 -126t119 -320.5t-121 -319.5t-301 -125zM569.5 135q106.5 0 179 78t72.5 204t-72.5 205.5t-179 79.5t-179.5 -73.5t-75 -198.5v-16q0 -123 74 -201t180.5 -78z " glyph-name="thorn" horiz-adv-x="1083" unicode="þ"/><glyph d="M739 838h209l-637 -1354h-196l-19 20l285 582l-361 752h224l245 -525zM215 1102q0 49 32 83t81 34t82.5 -34t33.5 -83t-33.5 -81t-82.5 -32t-81 32t-32 81zM532 1102q0 49 33 83t82 34t83 -34t34 -83t-34 -81t-83 -32t-82 32t-33 81z" glyph-name="ydieresis" horiz-adv-x="974" unicode="ÿ"/><glyph d="M244 0h-240l670 1454h28l662 -1454h-238l-129 293h-624zM686 1018l-237 -547h471zM954 1606h-534v147h534v-147z" glyph-name="Amacron" horiz-adv-x="1368" unicode="Ā"/><glyph d="M383 -27q-143 0 -237.5 80t-94.5 201t92.5 203t237.5 82q86 0 168 -36t117 -75v47q-2 92 -61 155.5t-165 63.5t-221 -57l-65 141q47 31 136 58.5t169 25.5q180 -4 287.5 -106t113.5 -295l-2 -461h-115l-69 106q-88 -133 -291 -133zM252 259q0 -58 51 -99t132 -41t151 50 t80 122v12q-90 98 -240 96q-80 0 -127 -41t-47 -99zM758 1028h-535v148h535v-148z" glyph-name="amacron" horiz-adv-x="952" unicode="ā"/><glyph d="M244 0h-240l670 1454h28l662 -1454h-238l-129 293h-624zM686 1018l-237 -547h471zM684 1540q-111 0 -175.5 82t-41.5 190h141q-10 -43 9.5 -93t65.5 -50t64.5 49t8.5 94h141q25 -102 -38.5 -187t-174.5 -85z" glyph-name="Abreve" horiz-adv-x="1368" unicode="Ă"/><glyph d="M383 -27q-143 0 -237.5 80t-94.5 201t92.5 203t237.5 82q86 0 168 -36t117 -75v47q-2 92 -61 155.5t-165 63.5t-221 -57l-65 141q47 31 136 58.5t169 25.5q180 -4 287.5 -106t113.5 -295l-2 -461h-115l-69 106q-88 -133 -291 -133zM252 259q0 -58 51 -99t132 -41t151 50 t80 122v12q-90 98 -240 96q-80 0 -127 -41t-47 -99zM481 963q-111 0 -175 81.5t-42 190.5h142q-10 -43 9 -93t65 -50t64.5 49t8.5 94h141q25 -102 -38.5 -187t-174.5 -85z" glyph-name="abreve" horiz-adv-x="952" unicode="ă"/><glyph d="M1102 -115q0 -68 62.5 -96.5t133.5 -7.5l5 -160q-135 -33 -253 25.5t-118 193.5q0 72 51 128.5t125 72.5l-111 252h-624l-129 -293h-240l670 1454h28l662 -1454h-190q-72 -47 -72 -115zM686 1020l-237 -549h471z" glyph-name="Aogonek" horiz-adv-x="1368" unicode="Ą"/><glyph d="M788 -115q0 -68 62.5 -96.5t134.5 -7.5l4 -160q-211 -33 -292 48t-81 157t35 122t82 66l-59 92q-88 -133 -291 -133q-143 0 -237.5 80t-94.5 201t92.5 203t237.5 82q86 0 168 -36t117 -75v47q-2 92 -61 155.5t-165 63.5t-221 -57l-65 141q47 31 136 58.5t169 25.5 q180 -4 287.5 -106t113.5 -295l-2 -461q-70 -47 -70 -115zM252 259q0 -58 51 -99t132 -41t151 50t80 122v12q-90 98 -240 96q-80 0 -127 -41t-47 -99z" glyph-name="aogonek" horiz-adv-x="952" unicode="ą"/><glyph d="M813 -29q-319 0 -533 215t-214 539t223 532.5t534.5 208.5t546.5 -211l-129 -153q-189 174 -413 174t-376.5 -161t-152.5 -392t151.5 -395t383.5 -164q119 0 230 47t189 117l127 -144q-100 -96 -229 -154.5t-338 -58.5zM1128 1812v-30l-229 -242h-151l122 272h258z" glyph-name="Cacute" horiz-adv-x="1445" unicode="Ć"/><glyph d="M539 139q122 0 215 92l98 -118q-139 -139 -341 -139t-329 126.5t-127 319.5t127 318.5t333 125.5t337 -147l-107 -129q-94 112 -214 112t-196.5 -77.5t-76.5 -202.5t79.5 -203t201.5 -78zM791 1235v-31l-230 -241h-151l122 272h259z" glyph-name="cacute" horiz-adv-x="894" unicode="ć"/><glyph d="M813 -29q-319 0 -533 215t-214 539t223 532.5t534.5 208.5t546.5 -211l-129 -153q-189 174 -413 174t-376.5 -161t-152.5 -392t151.5 -395t383.5 -164q119 0 230 47t189 117l127 -144q-100 -96 -229 -154.5t-338 -58.5zM926 1812q23 -35 168 -272h-146q-121 115 -125 119 l-123 -119h-145q145 238 168 272h203z" glyph-name="Ccircumflex" horiz-adv-x="1445" unicode="Ĉ"/><glyph d="M539 139q122 0 215 92l98 -118q-139 -139 -341 -139t-329 126.5t-127 319.5t127 318.5t333 125.5t337 -147l-107 -129q-94 112 -214 112t-196.5 -77.5t-76.5 -202.5t79.5 -203t201.5 -78zM604 1235q23 -35 168 -272h-145q-121 115 -125 118l-123 -118h-146 q145 238 168 272h203z" glyph-name="ccircumflex" horiz-adv-x="894" unicode="ĉ"/><glyph d="M813 -29q-319 0 -533 215t-214 539t223 532.5t534.5 208.5t546.5 -211l-129 -153q-189 174 -413 174t-376.5 -161t-152.5 -392t151.5 -395t383.5 -164q119 0 230 47t189 117l127 -144q-100 -96 -229 -154.5t-338 -58.5zM711 1679q0 49 31.5 83t80.5 34t83 -33t34 -83 t-34 -81.5t-83 -31.5t-80.5 31.5t-31.5 80.5z" glyph-name="Cdotaccent" horiz-adv-x="1445" unicode="Ċ"/><glyph d="M539 139q122 0 215 92l98 -118q-139 -139 -341 -139t-329 126.5t-127 319.5t127 318.5t333 125.5t337 -147l-107 -129q-94 112 -214 112t-196.5 -77.5t-76.5 -202.5t79.5 -203t201.5 -78zM387 1102q0 49 32 83t81 34t82.5 -34t33.5 -83t-33.5 -81t-82.5 -32t-81 32 t-32 81z" glyph-name="cdotaccent" horiz-adv-x="894" unicode="ċ"/><glyph d="M813 -29q-319 0 -533 215t-214 539t223 532.5t534.5 208.5t546.5 -211l-129 -153q-189 174 -413 174t-376.5 -161t-152.5 -392t151.5 -395t383.5 -164q119 0 230 47t189 117l127 -144q-100 -96 -229 -154.5t-338 -58.5zM1096 1812v-30l-164 -242h-203l-164 242v30h129 l135 -124l138 124h129z" glyph-name="Ccaron" horiz-adv-x="1445" unicode="Č"/><glyph d="M539 139q122 0 215 92l98 -118q-139 -139 -341 -139t-329 126.5t-127 319.5t127 318.5t333 125.5t337 -147l-107 -129q-94 112 -214 112t-196.5 -77.5t-76.5 -202.5t79.5 -203t201.5 -78zM768 1235v-31l-164 -241h-203l-163 241v31h129l135 -125q11 8 137 125h129z" glyph-name="ccaron" horiz-adv-x="894" unicode="č"/><glyph d="M1333 712q0 -83 -21.5 -170t-98 -229t-327.5 -255t-722 -58v1432q347 60 602 -9t384.5 -216t156 -279.5t26.5 -215.5zM1102 719q0 262 -191.5 416.5t-529.5 113.5v-1063q186 -20 347 30t267.5 181t106.5 322zM784 1812v-30l-163 -242h-203l-164 242v30h129l135 -124 q14 11 137 124h129z" glyph-name="Dcaron" horiz-adv-x="1409" unicode="Ď"/><glyph d="M475 -27q-180 0 -300 125t-120 321t122 320.5t300 124.5q90 0 172 -40t119 -103v717l184 24h19v-1462h-113l-80 125q-41 -66 -126 -109t-177 -43zM510 135q108 0 182 78t74 203v16q-2 123 -72.5 196.5t-177 73.5t-181.5 -78.5t-75 -203.5t71 -205t179 -80zM1190 856 l74 582h254l2 -31l-256 -569z" glyph-name="dcaron" horiz-adv-x="1605" unicode="ď"/><glyph d="M215 625h-195v178h195v629q345 60 601 -9.5t385.5 -216t156 -279t26.5 -214.5t-22.5 -170t-99 -230t-327.5 -255t-720 -58v625zM432 803h369v-178h-369v-437q186 -20 347 29t267.5 180t106.5 322q0 262 -191.5 416.5t-529.5 113.5v-446z" glyph-name="Dcroat" horiz-adv-x="1460" unicode="Đ"/><glyph d="M768 1028h-270v148h270v262l184 24h19v-286h92v-148h-92v-1028h-113l-80 125q-41 -66 -126 -109t-177 -43q-180 0 -300 125t-120 321t122 320.5t300 124.5q90 0 172 -40t119 -103v307zM510 135q108 0 182 78t74 203v16q-2 123 -72.5 196.5t-177 73.5t-181.5 -78.5 t-75 -203.5t71 -205t179 -80z" glyph-name="dcroat" horiz-adv-x="1083" unicode="đ"/><glyph d="M379 180h606v-180h-821v1438h794v-183h-579v-354h467v-182h-467v-539zM825 1606h-534v147h534v-147z" glyph-name="Emacron" unicode="Ē"/><glyph d="M899 399h-643q2 -117 92 -190.5t220 -73.5t251 74l80 -131q-63 -51 -165.5 -78t-201.5 -27q-205 0 -341 128t-136 321t126 317.5t299 124.5t296 -119.5t123 -324.5v-21zM483 707q-84 0 -144.5 -58t-68.5 -121h420q-8 78 -65.5 128.5t-141.5 50.5zM762 1028h-535v148h535 v-148z" glyph-name="emacron" horiz-adv-x="960" unicode="ē"/><glyph d="M379 180h606v-180h-821v1438h794v-183h-579v-354h467v-182h-467v-539zM559 1540q-111 0 -175.5 82t-41.5 190h141q-10 -43 9.5 -93t65.5 -50t64.5 49t8.5 94h141q25 -102 -38.5 -187t-174.5 -85z" glyph-name="Ebreve" unicode="Ĕ"/><glyph d="M899 399h-643q2 -117 92 -190.5t220 -73.5t251 74l80 -131q-63 -51 -165.5 -78t-201.5 -27q-205 0 -341 128t-136 321t126 317.5t299 124.5t296 -119.5t123 -324.5v-21zM483 707q-84 0 -144.5 -58t-68.5 -121h420q-8 78 -65.5 128.5t-141.5 50.5zM485 963 q-111 0 -175 81.5t-42 190.5h142q-10 -43 9 -93t65 -50t64.5 49t8.5 94h141q25 -102 -38.5 -187t-174.5 -85z" glyph-name="ebreve" horiz-adv-x="960" unicode="ĕ"/><glyph d="M379 180h606v-180h-821v1438h794v-183h-579v-354h467v-182h-467v-539zM438 1679q0 49 32 83t81 34t83 -33t34 -83t-34 -81.5t-83 -31.5t-81 31.5t-32 80.5z" glyph-name="Edotaccent" unicode="Ė"/><glyph d="M899 399h-643q2 -117 92 -190.5t220 -73.5t251 74l80 -131q-63 -51 -165.5 -78t-201.5 -27q-205 0 -341 128t-136 321t126 317.5t299 124.5t296 -119.5t123 -324.5v-21zM483 707q-84 0 -144.5 -58t-68.5 -121h420q-8 78 -65.5 128.5t-141.5 50.5zM369 1102q0 49 31.5 83 t80.5 34t83 -34t34 -83t-34 -81t-83 -32t-80.5 32t-31.5 81z" glyph-name="edotaccent" horiz-adv-x="960" unicode="ė"/><glyph d="M379 180h606v-180h-334q-69 -47 -69 -115t62.5 -96.5t133.5 -7.5l4 -160q-211 -34 -291.5 47.5t-80.5 175.5t86 156h-332v1438h794v-183h-579v-354h467v-182h-467v-539z" glyph-name="Eogonek" unicode="Ę"/><glyph d="M899 399h-643q2 -117 92 -190.5t220 -73.5t251 74l80 -131q-66 -53 -180 -82q-63 -40 -63 -102t39 -91.5t81 -29.5t76 10q4 -106 4 -160q-45 -12 -94 -12q-115 0 -196 60.5t-81 168.5q0 74 56 133h-9q-205 0 -341 128t-136 321t126 317.5t299 124.5t296 -119.5 t123 -324.5v-21zM483 707q-84 0 -144.5 -58t-68.5 -121h420q-8 78 -65.5 128.5t-141.5 50.5z" glyph-name="eogonek" horiz-adv-x="960" unicode="ę"/><glyph d="M379 180h606v-180h-821v1438h794v-183h-579v-354h467v-182h-467v-539zM817 1812v-30l-164 -242h-202l-164 242v30h129l135 -124q14 11 137 124h129z" glyph-name="Ecaron" unicode="Ě"/><glyph d="M899 399h-643q2 -117 92 -190.5t220 -73.5t251 74l80 -131q-63 -51 -165.5 -78t-201.5 -27q-205 0 -341 128t-136 321t126 317.5t299 124.5t296 -119.5t123 -324.5v-21zM483 707q-84 0 -144.5 -58t-68.5 -121h420q-8 78 -65.5 128.5t-141.5 50.5zM750 1235v-31l-164 -241 h-203l-164 241v31h129l135 -125q16 12 138 125h129z" glyph-name="ecaron" horiz-adv-x="960" unicode="ě"/><glyph d="M827.5 1276q-219.5 0 -373 -160t-153.5 -398t153.5 -397t395.5 -159q98 0 197.5 33.5t156.5 83.5v215h-231v178h442v-475q-233 -225 -575 -225t-558 215.5t-216 535.5t222 531.5t535 211.5t547 -211q-5 -7 -133 -151q-190 172 -409.5 172zM926 1812q23 -35 168 -272h-146 q-121 115 -125 119l-123 -119h-145q145 238 168 272h203z" glyph-name="Gcircumflex" horiz-adv-x="1517" unicode="Ĝ"/><glyph d="M481 -541q-207 0 -339 80t-132 223q0 102 64.5 168t154.5 82q-41 6 -72.5 45t-30.5 93t42 94.5t102 38.5q-80 45 -119.5 117.5t-39.5 148.5q0 121 91 218t265 97q76 0 149.5 -26.5t114.5 -63.5l182 64h35v-183h-149q25 -37 24 -94q0 -133 -95 -226t-267 -95 q-131 0 -131 -78t151 -82q484 -24 484 -316q0 -148 -138.5 -226.5t-345.5 -78.5zM487 -383q117 0 196 37t79 112t-95 115.5t-207 40.5t-181.5 -41t-69.5 -114.5t80.5 -111.5t197.5 -38zM468 387q77 0 122 48t45 113t-45 114t-123 49t-123 -49.5t-45 -113.5t46 -112.5 t123 -48.5zM573 1235q23 -35 168 -272h-145q-121 115 -125 118l-123 -118h-145q145 238 168 272h202z" glyph-name="gcircumflex" horiz-adv-x="999" unicode="ĝ"/><glyph d="M827.5 1276q-219.5 0 -373 -160t-153.5 -398t153.5 -397t395.5 -159q98 0 197.5 33.5t156.5 83.5v215h-231v178h442v-475q-233 -225 -575 -225t-558 215.5t-216 535.5t222 531.5t535 211.5t547 -211q-5 -7 -133 -151q-190 172 -409.5 172zM825 1540q-111 0 -175 82 t-42 190h142q-10 -43 9 -93t65 -50t64.5 49t8.5 94h141q25 -102 -38.5 -187t-174.5 -85z" glyph-name="Gbreve" horiz-adv-x="1517" unicode="Ğ"/><glyph d="M481 -541q-207 0 -339 80t-132 223q0 102 64.5 168t154.5 82q-41 6 -72.5 45t-30.5 93t42 94.5t102 38.5q-80 45 -119.5 117.5t-39.5 148.5q0 121 91 218t265 97q76 0 149.5 -26.5t114.5 -63.5l182 64h35v-183h-149q25 -37 24 -94q0 -133 -95 -226t-267 -95 q-131 0 -131 -78t151 -82q484 -24 484 -316q0 -148 -138.5 -226.5t-345.5 -78.5zM487 -383q117 0 196 37t79 112t-95 115.5t-207 40.5t-181.5 -41t-69.5 -114.5t80.5 -111.5t197.5 -38zM468 387q77 0 122 48t45 113t-45 114t-123 49t-123 -49.5t-45 -113.5t46 -112.5 t123 -48.5zM469 963q-111 0 -175.5 81.5t-41.5 190.5h141q-10 -43 9.5 -93t65.5 -50t64.5 49t8.5 94h141q25 -102 -38.5 -187t-174.5 -85z" glyph-name="gbreve" horiz-adv-x="999" unicode="ğ"/><glyph d="M827.5 1276q-219.5 0 -373 -160t-153.5 -398t153.5 -397t395.5 -159q98 0 197.5 33.5t156.5 83.5v215h-231v178h442v-475q-233 -225 -575 -225t-558 215.5t-216 535.5t222 531.5t535 211.5t547 -211q-5 -7 -133 -151q-190 172 -409.5 172zM705 1679q0 49 31.5 83t80.5 34 t83 -33t34 -83t-34 -81.5t-83 -31.5t-80.5 31.5t-31.5 80.5z" glyph-name="Gdotaccent" horiz-adv-x="1517" unicode="Ġ"/><glyph d="M481 -541q-207 0 -339 80t-132 223q0 102 64.5 168t154.5 82q-41 6 -72.5 45t-30.5 93t42 94.5t102 38.5q-80 45 -119.5 117.5t-39.5 148.5q0 121 91 218t265 97q76 0 149.5 -26.5t114.5 -63.5l182 64h35v-183h-149q25 -37 24 -94q0 -133 -95 -226t-267 -95 q-131 0 -131 -78t151 -82q484 -24 484 -316q0 -148 -138.5 -226.5t-345.5 -78.5zM487 -383q117 0 196 37t79 112t-95 115.5t-207 40.5t-181.5 -41t-69.5 -114.5t80.5 -111.5t197.5 -38zM468 387q77 0 122 48t45 113t-45 114t-123 49t-123 -49.5t-45 -113.5t46 -112.5 t123 -48.5zM348 1102q0 49 32 83t81 34t83 -34t34 -83t-34 -81t-83 -32t-81 32t-32 81z" glyph-name="gdotaccent" horiz-adv-x="999" unicode="ġ"/><glyph d="M827.5 1276q-219.5 0 -373 -160t-153.5 -398t153.5 -397t395.5 -159q98 0 197.5 33.5t156.5 83.5v215h-231v178h442v-475q-233 -225 -575 -225t-558 215.5t-216 535.5t222 531.5t535 211.5t547 -211q-5 -7 -133 -151q-190 172 -409.5 172zM647 -492l53 367h248l2 -31 l-229 -350z" glyph-name="Gcommaaccent" horiz-adv-x="1517" unicode="Ģ"/><glyph d="M481 -541q-207 0 -339 80t-132 223q0 102 64.5 168t154.5 82q-41 6 -72.5 45t-30.5 93t42 94.5t102 38.5q-80 45 -119.5 117.5t-39.5 148.5q0 121 91 218t265 97q76 0 149.5 -26.5t114.5 -63.5l182 64h35v-183h-149q25 -37 24 -94q0 -133 -95 -226t-267 -95 q-131 0 -131 -78t151 -82q484 -24 484 -316q0 -148 -138.5 -226.5t-345.5 -78.5zM487 -383q117 0 196 37t79 112t-95 115.5t-207 40.5t-181.5 -41t-69.5 -114.5t80.5 -111.5t197.5 -38zM468 387q77 0 122 48t45 113t-45 114t-123 49t-123 -49.5t-45 -113.5t46 -112.5 t123 -48.5zM649 1352l-53 -367h-248l-2 31l229 350z" glyph-name="gcommaaccent" horiz-adv-x="999" unicode="ģ"/><glyph d="M963 0v719h-584v-719h-215v1438h215v-537h584v537h215v-1438h-215zM770 1812q23 -35 168 -272h-145q-121 115 -125 119l-123 -119h-146q145 238 168 272h203z" glyph-name="Hcircumflex" horiz-adv-x="1341" unicode="Ĥ"/><glyph d="M313 1462v-723q101 125 261 125t259 -98t99 -258v-508h-205v483q0 84 -57.5 149.5t-148.5 65.5t-147.5 -72.5t-60.5 -191.5v-434h-200v1438l182 24h18zM313 1837q23 -35 168 -272h-145q-121 115 -125 118l-123 -118h-145q145 238 168 272h202z" glyph-name="hcircumflex" horiz-adv-x="1024" unicode="ĥ"/><glyph d="M963 0v719h-584v-719h-215v1087h-119v148h119v203h215v-203h584v203h215v-203h116v-148h-116v-1087h-215zM379 901h584v186h-584v-186z" glyph-name="Hbar" horiz-adv-x="1341" unicode="Ħ"/><glyph d="M313 1462v-286h273v-148h-273v-289q101 125 261 125t259 -98t99 -258v-508h-205v432q0 119 -49.5 192.5t-147.5 73.5t-155.5 -68.5t-61.5 -183.5v-446h-200v1028h-93v148h93v262l182 24h18z" glyph-name="hbar" horiz-adv-x="1024" unicode="ħ"/><glyph d="M164 0v1438h215v-1438h-215zM146 1786q60 0 131 -26.5t100 -26.5q59 0 86 47l86 -25q2 -92 -45.5 -140t-105.5 -48t-133 27.5t-97 27.5q-61 0 -84 -49l-86 24q-4 96 42 142.5t106 46.5z" glyph-name="Itilde" horiz-adv-x="542" unicode="Ĩ"/><glyph d="M104 1208q60 0 130.5 -26.5t99.5 -26.5q59 0 86 47l86 -24q2 -92 -46 -140.5t-106 -48.5t-132.5 27.5t-96.5 27.5q-61 0 -84 -49l-86 25q-4 96 42.5 142t106.5 46zM129 0v838h197v-838h-197z" glyph-name="itilde" horiz-adv-x="456" unicode="ĩ"/><glyph d="M164 0v1438h215v-1438h-215zM539 1606h-535v147h535v-147z" glyph-name="Imacron" horiz-adv-x="542" unicode="Ī"/><glyph d="M496 1028h-535v148h535v-148zM129 0v838h197v-838h-197z" glyph-name="imacron" horiz-adv-x="456" unicode="ī"/><glyph d="M164 0v1438h215v-1438h-215zM272 1540q-111 0 -175 82t-42 190h142q-10 -43 9 -93t65 -50t64.5 49t8.5 94h141q25 -102 -38.5 -187t-174.5 -85z" glyph-name="Ibreve" horiz-adv-x="542" unicode="Ĭ"/><glyph d="M229 963q-111 0 -175 81.5t-42 190.5h142q-10 -43 9 -93t65 -50t64.5 49t8.5 94h141q25 -102 -38.5 -187t-174.5 -85zM129 0v838h197v-838h-197z" glyph-name="ibreve" horiz-adv-x="456" unicode="ĭ"/><glyph d="M164 1438h215v-1438h-66q-66 -35 -65 -111q0 -51 38 -82.5t83 -31.5t71 8q0 -53 4 -160q-47 -12 -94 -12q-115 0 -196.5 60.5t-81.5 162.5t92 162v1442z" glyph-name="Iogonek" horiz-adv-x="542" unicode="Į"/><glyph d="M131 838h201v-838h-47q-66 -35 -66 -111q0 -51 38 -82.5t83 -31.5t72 8q0 -53 4 -160q-47 -12 -94 -12q-115 0 -197 60.5t-82 162.5t88 156v848zM86 1181.5q0 59.5 43 102.5t101 43t101.5 -43t43.5 -103t-41.5 -101.5t-101.5 -41.5t-103 42t-43 101.5z" glyph-name="iogonek" horiz-adv-x="462" unicode="į"/><glyph d="M164 0v1438h215v-1438h-215zM156 1679q0 49 31.5 83t80.5 34t83 -33t34 -83t-34 -81.5t-83 -31.5t-80.5 31.5t-31.5 80.5z" glyph-name="Idotaccent" horiz-adv-x="542" unicode="İ"/><glyph d="M129 0v838h197v-838h-197z" glyph-name="dotlessi" horiz-adv-x="456" unicode="ı"/><glyph d="M164 0v1438h215v-1438h-215zM993 473v965h215v-971q0 -238 -145 -369t-408 -108v182q156 -8 247 71.5t91 229.5z" glyph-name="IJ" horiz-adv-x="1396" unicode="Ĳ"/><glyph d="M131 0v838h201v-838h-201zM86 1181.5q0 59.5 43 102.5t101 43t101.5 -43t43.5 -103t-41.5 -101.5t-101.5 -41.5t-103 42t-43 101.5zM616 838h203v-1031q0 -109 -44 -185.5t-154 -125t-230 -6.5l25 164q80 -18 141 29t59 141v1014zM571 1181q0 60 43 103t102.5 43 t102.5 -43t43 -103t-42 -101.5t-102 -41.5t-103.5 41.5t-43.5 101.5z" glyph-name="ij" horiz-adv-x="950" unicode="ĳ"/><glyph d="M451 473v965h215v-971q0 -238 -145.5 -369t-407.5 -108v182q156 -8 247 71.5t91 229.5zM659 1812q23 -35 168 -272h-145q-121 115 -125 119l-123 -119h-145q145 238 168 272h202z" glyph-name="Jcircumflex" horiz-adv-x="854" unicode="Ĵ"/><glyph d="M133 -174v1012h203v-1028q0 -172 -95.5 -253t-228.5 -81q-47 0 -104 14l24 164q12 -4 39 -4q70 0 116 47t46 129zM336 1235q145 -238 168 -272h-148l-123 118l-122 -118h-146l166 272h205z" glyph-name="jcircumflex" horiz-adv-x="466" unicode="ĵ"/><glyph d="M164 0v1438h217v-619l541 619h252l-580 -678l635 -760h-279l-569 688v-688h-217zM467 -492l53 367h248l2 -31l-229 -350z" glyph-name="Kcommaaccent" horiz-adv-x="1263" unicode="Ķ"/><glyph d="M313 1462v-948l336 324h244l-391 -387l428 -451h-258l-359 371v-371h-200v1438l182 24h18zM291 -492l53 367h248l2 -31l-229 -350z" glyph-name="kcommaaccent" horiz-adv-x="956" unicode="ķ"/><glyph d="M113 838h200v-324l336 324h244l-391 -387l428 -451h-258l-359 371v-371h-200v838z" glyph-name="kgreenlandic" horiz-adv-x="956" unicode="ĸ"/><glyph d="M940 180v-180h-776v1438h215v-1258h561zM606 1812v-30l-229 -242h-152l123 272h258z" glyph-name="Lacute" horiz-adv-x="1005" unicode="Ĺ"/><glyph d="M313 1462v-1462h-200v1438l182 24h18zM498 1837v-31l-230 -241h-151l123 272h258z" glyph-name="lacute" horiz-adv-x="425" unicode="ĺ"/><glyph d="M940 180v-180h-776v1438h215v-1258h561zM383 -492l53 367h248l2 -31l-229 -350z" glyph-name="Lcommaaccent" horiz-adv-x="1005" unicode="Ļ"/><glyph d="M313 1462v-1462h-200v1438l182 24h18zM35 -492l53 367h248l2 -31l-229 -350z" glyph-name="lcommaaccent" horiz-adv-x="425" unicode="ļ"/><glyph d="M940 180v-180h-776v1438h215v-1258h561zM692 856l74 582h254l2 -31l-256 -569z" glyph-name="Lcaron" horiz-adv-x="1103" unicode="Ľ"/><glyph d="M313 1462v-1462h-200v1438l182 24h18zM532 856l74 582h254l2 -31l-256 -569z" glyph-name="lcaron" horiz-adv-x="950" unicode="ľ"/><glyph d="M940 180v-180h-776v1438h215v-1258h561zM641 540.5q0 63.5 43 107.5t105 44t106.5 -44t44.5 -107.5t-44 -105.5t-106 -42t-105.5 42t-43.5 105.5z" glyph-name="Ldot" horiz-adv-x="1038" unicode="Ŀ"/><glyph d="M313 1462v-1462h-200v1438l182 24h18zM539 540.5q0 63.5 43 107.5t105 44t106.5 -44t44.5 -107.5t-44 -105.5t-106 -42t-105.5 42t-43.5 105.5z" glyph-name="ldot" horiz-adv-x="952" unicode="ŀ"/><glyph d="M418 180h563v-180h-776v590l-139 -64l-54 133l193 86v693h213v-594l196 90l54 -135l-250 -113v-506z" glyph-name="Lslash" horiz-adv-x="1048" unicode="Ł"/><glyph d="M369 0h-191v600q-82 -37 -131 -57l-51 131l182 82v682l172 24h19v-618q43 18 129 59l53 -137l-182 -80v-686z" glyph-name="lslash" horiz-adv-x="546" unicode="ł"/><glyph d="M997 1438h209v-1438h-209v618l-624 445v-1063h-209v1442l29 12l804 -580v564zM936 1812v-30l-229 -242h-152l123 272h258z" glyph-name="Nacute" horiz-adv-x="1370" unicode="Ń"/><glyph d="M570 864q166 0 264 -98t98 -258v-508h-205v483q0 98 -58.5 156.5t-141.5 58.5t-148.5 -58t-65.5 -155v-485h-200v838h110l80 -105q101 131 267 131zM795 1235v-31l-230 -241h-151l123 272h258z" glyph-name="nacute" horiz-adv-x="1024" unicode="ń"/><glyph d="M997 1438h209v-1438h-209v618l-624 445v-1063h-209v1442l29 12l804 -580v564zM506 -492l53 367h248l2 -31l-229 -350z" glyph-name="Ncommaaccent" horiz-adv-x="1370" unicode="Ņ"/><glyph d="M570 864q166 0 264 -98t98 -258v-508h-205v483q0 98 -58.5 156.5t-141.5 58.5t-148.5 -58t-65.5 -155v-485h-200v838h110l80 -105q101 131 267 131zM336 -492l53 367h248l2 -31l-229 -350z" glyph-name="ncommaaccent" horiz-adv-x="1024" unicode="ņ"/><glyph d="M997 1438h209v-1438h-209v618l-624 445v-1063h-209v1442l29 12l804 -580v564zM938 1812v-30l-164 -242h-203l-163 242v30h129l135 -124l137 124h129z" glyph-name="Ncaron" horiz-adv-x="1370" unicode="Ň"/><glyph d="M570 864q166 0 264 -98t98 -258v-508h-205v483q0 98 -58.5 156.5t-141.5 58.5t-148.5 -58t-65.5 -155v-485h-200v838h110l80 -105q101 131 267 131zM776 1235v-31l-164 -241h-202l-164 241v31h129l135 -125q32 24 137 125h129z" glyph-name="ncaron" horiz-adv-x="1024" unicode="ň"/><glyph d="M929 864q165 0 263 -98t98 -258v-508h-205v483q0 98 -58 156.5t-141 58.5t-148.5 -58t-65.5 -155v-485h-201v838h111l80 -105q102 131 267 131zM106 856l74 582h254l2 -31l-256 -569z" glyph-name="napostrophe" horiz-adv-x="1382" unicode="ŉ"/><glyph d="M997 1438h209v-1631q0 -109 -44 -185.5t-157 -125t-235 -6.5l25 174q82 -18 142 25t60 135v794l-624 445v-1063h-209v1442l29 12l804 -580v564z" glyph-name="Eng" horiz-adv-x="1370" unicode="Ŋ"/><glyph d="M727 483q0 98 -58.5 156.5t-141.5 58.5t-148.5 -58t-65.5 -155v-485h-200v838h110l80 -105q101 131 267 131t264 -98t98 -258v-701q0 -109 -44 -185.5t-108.5 -105t-140.5 -38.5t-137 12l24 164q80 -18 141.5 29t59.5 141v659z" glyph-name="eng" horiz-adv-x="1024" unicode="ŋ"/><glyph d="M66 718q0 316 214 532t539.5 216t540.5 -217t215 -532.5t-215 -530.5t-540.5 -215t-539.5 215.5t-214 531.5zM297 717q0 -244 152.5 -398.5t369.5 -154.5t370.5 154.5t153.5 398.5t-154.5 401.5t-370.5 157.5t-368.5 -157.5t-152.5 -401.5zM1087 1606h-534v147h534v-147z " glyph-name="Omacron" horiz-adv-x="1642" unicode="Ō"/><glyph d="M513 -27q-183 0 -320.5 125t-137.5 321.5t138.5 320.5t321.5 124t320.5 -124t137.5 -320.5t-138.5 -321.5t-321.5 -125zM515 135q105 0 179 79t74 206t-75 204.5t-181 77.5t-179 -76.5t-73 -204.5t75 -207t180 -79zM782 1028h-534v148h534v-148z" glyph-name="omacron" horiz-adv-x="1030" unicode="ō"/><glyph d="M66 718q0 316 214 532t539.5 216t540.5 -217t215 -532.5t-215 -530.5t-540.5 -215t-539.5 215.5t-214 531.5zM297 717q0 -244 152.5 -398.5t369.5 -154.5t370.5 154.5t153.5 398.5t-154.5 401.5t-370.5 157.5t-368.5 -157.5t-152.5 -401.5zM821 1540q-111 0 -175 82 t-42 190h141q-10 -43 9.5 -93t65.5 -50t64.5 49t8.5 94h141q25 -102 -38.5 -187t-174.5 -85z" glyph-name="Obreve" horiz-adv-x="1642" unicode="Ŏ"/><glyph d="M513 -27q-183 0 -320.5 125t-137.5 321.5t138.5 320.5t321.5 124t320.5 -124t137.5 -320.5t-138.5 -321.5t-321.5 -125zM515 135q105 0 179 79t74 206t-75 204.5t-181 77.5t-179 -76.5t-73 -204.5t75 -207t180 -79zM514 963q-111 0 -175.5 81.5t-41.5 190.5h141 q-10 -43 9.5 -93t65.5 -50t64.5 49t8.5 94h141q25 -102 -38.5 -187t-174.5 -85z" glyph-name="obreve" horiz-adv-x="1030" unicode="ŏ"/><glyph d="M66 718q0 316 214 532t539.5 216t540.5 -217t215 -532.5t-215 -530.5t-540.5 -215t-539.5 215.5t-214 531.5zM297 717q0 -244 152.5 -398.5t369.5 -154.5t370.5 154.5t153.5 398.5t-154.5 401.5t-370.5 157.5t-368.5 -157.5t-152.5 -401.5zM924 1812v-30l-199 -242h-100 l86 272h213zM1194 1812v-30l-199 -242h-100l88 272h211z" glyph-name="Ohungarumlaut" horiz-adv-x="1642" unicode="Ő"/><glyph d="M513 -27q-183 0 -320.5 125t-137.5 321.5t138.5 320.5t321.5 124t320.5 -124t137.5 -320.5t-138.5 -321.5t-321.5 -125zM515 135q105 0 179 79t74 206t-75 204.5t-181 77.5t-179 -76.5t-73 -204.5t75 -207t180 -79zM616 1235v-31l-198 -241h-101l86 272h213zM887 1235 v-31l-199 -241h-100l88 272h211z" glyph-name="ohungarumlaut" horiz-adv-x="1030" unicode="ő"/><glyph d="M1800 1438v-183h-583v-354h471v-182h-471v-539h610v-180h-694q-125 -20 -279 -20t-303.5 52t-237.5 132t-167.5 220.5t-79.5 335.5t79.5 335.5t168.5 219.5t237.5 130t298.5 51t283 -18h667zM301 704q0 -240 167 -388t417 -148q65 0 116 8v1079q-59 10 -131 11 q-260 0 -414.5 -161t-154.5 -401z" glyph-name="OE" horiz-adv-x="1939" unicode="Œ"/><glyph d="M1616 399h-643q2 -117 92 -190.5t220 -73.5t251 74l80 -131q-63 -51 -165.5 -78t-201.5 -27q-236 0 -377 164q-66 -78 -161 -121t-199 -43q-182 0 -319.5 125t-137.5 321.5t138.5 320.5t336.5 124t338 -157q129 158 336 157q166 0 289 -119.5t123 -324.5v-21zM515 135 q105 0 179 79t74 206t-75 204.5t-181 77.5t-179 -76.5t-73 -204.5t75 -207t180 -79zM1200 707q-84 0 -144.5 -58t-68.5 -121h420q-8 78 -65.5 128.5t-141.5 50.5z" glyph-name="oe" horiz-adv-x="1677" unicode="œ"/><glyph d="M1040 971q0 -123 -60 -233.5t-175 -182.5l399 -555h-272l-326 479q-106 -23 -227 -10v-469h-215v1427q408 80 642 -50t234 -406zM819 966q0 150 -116.5 234t-323.5 51v-589q201 -23 320.5 65.5t119.5 238.5zM776 1812v-30l-229 -242h-152l123 272h258z" glyph-name="Racute" horiz-adv-x="1214" unicode="Ŕ"/><glyph d="M113 0v838h110l80 -90q23 47 76 80.5t113 33.5t118 -31q-12 -72 -35 -180l-12 -4q-43 25 -96 25q-100 0 -154 -94v-578h-200zM637 1235v-31l-229 -241h-152l123 272h258z" glyph-name="racute" horiz-adv-x="647" unicode="ŕ"/><glyph d="M1040 971q0 -123 -60 -233.5t-175 -182.5l399 -555h-272l-326 479q-106 -23 -227 -10v-469h-215v1427q408 80 642 -50t234 -406zM819 966q0 150 -116.5 234t-323.5 51v-589q201 -23 320.5 65.5t119.5 238.5zM444 -492l54 367h247l3 -31l-230 -350z" glyph-name="Rcommaaccent" horiz-adv-x="1214" unicode="Ŗ"/><glyph d="M113 0v838h110l80 -90q23 47 76 80.5t113 33.5t118 -31q-12 -72 -35 -180l-12 -4q-43 25 -96 25q-100 0 -154 -94v-578h-200zM45 -492l53 367h248l2 -31l-229 -350z" glyph-name="rcommaaccent" horiz-adv-x="647" unicode="ŗ"/><glyph d="M1040 971q0 -123 -60 -233.5t-175 -182.5l399 -555h-272l-326 479q-106 -23 -227 -10v-469h-215v1427q408 80 642 -50t234 -406zM819 966q0 150 -116.5 234t-323.5 51v-589q201 -23 320.5 65.5t119.5 238.5zM778 1812v-30l-164 -242h-202l-164 242v30h129l135 -124 q14 11 137 124h129z" glyph-name="Rcaron" horiz-adv-x="1214" unicode="Ř"/><glyph d="M113 0v838h110l80 -90q23 47 76 80.5t113 33.5t118 -31q-12 -72 -35 -180l-12 -4q-43 25 -96 25q-100 0 -154 -94v-578h-200zM614 1235v-31l-163 -241h-203l-164 241v31h129l135 -125q32 24 137 125h129z" glyph-name="rcaron" horiz-adv-x="647" unicode="ř"/><glyph d="M579 1272q-124 0 -185.5 -52.5t-61.5 -132.5t68 -135t192 -123q211 -109 297 -224.5t82 -254.5q-4 -182 -131 -281.5t-326 -97.5q-143 2 -258 42t-180 96l96 165q152 -113 326 -112q119 0 188.5 56t69.5 118t-18.5 101.5t-83 91t-218.5 140.5q-153 90 -237 188.5 t-84 240.5t114.5 255t319.5 113q106 0 210 -26.5t163 -63.5l-74 -180q-145 76 -269 76zM811 1812v-30l-229 -242h-152l123 272h258z" glyph-name="Sacute" horiz-adv-x="1058" unicode="Ś"/><glyph d="M414 698q-61 0 -102.5 -22.5t-41.5 -66.5t40 -64.5t118 -36.5q317 -49 317 -275q0 -129 -100 -194.5t-267 -65.5t-306 76l53 164q162 -76 248 -76q190 0 190 92q0 41 -43 63.5t-135 43.5q-301 57 -301 266q0 123 97.5 192.5t234.5 69.5t289 -57l-52 -160q-117 51 -239 51 zM680 1235v-31l-229 -241h-152l123 272h258z" glyph-name="sacute" horiz-adv-x="817" unicode="ś"/><glyph d="M579 1272q-124 0 -185.5 -52.5t-61.5 -132.5t68 -135t192 -123q211 -109 297 -224.5t82 -254.5q-4 -182 -131 -281.5t-326 -97.5q-143 2 -258 42t-180 96l96 165q152 -113 326 -112q119 0 188.5 56t69.5 118t-18.5 101.5t-83 91t-218.5 140.5q-153 90 -237 188.5 t-84 240.5t114.5 255t319.5 113q106 0 210 -26.5t163 -63.5l-74 -180q-145 76 -269 76zM631 1812q23 -35 168 -272h-146q-121 115 -125 119l-122 -119h-146q145 238 168 272h203z" glyph-name="Scircumflex" horiz-adv-x="1058" unicode="Ŝ"/><glyph d="M414 698q-61 0 -102.5 -22.5t-41.5 -66.5t40 -64.5t118 -36.5q317 -49 317 -275q0 -129 -100 -194.5t-267 -65.5t-306 76l53 164q162 -76 248 -76q190 0 190 92q0 41 -43 63.5t-135 43.5q-301 57 -301 266q0 123 97.5 192.5t234.5 69.5t289 -57l-52 -160q-117 51 -239 51 zM510 1235q23 -35 168 -272h-146q-121 115 -124 118l-123 -118h-146q145 238 168 272h203z" glyph-name="scircumflex" horiz-adv-x="817" unicode="ŝ"/><glyph d="M579 1272q-124 0 -185.5 -52.5t-61.5 -132.5t68 -135t192 -123q211 -109 297 -225t82 -262t-94.5 -240t-239.5 -120q63 -59 63 -155t-81.5 -156t-194.5 -60q-47 0 -94 12q0 53 4 160q36 -10 76 -10t80 29.5t40 83t-32 85.5q-266 8 -422 138l96 165q152 -113 326 -112 q119 0 188.5 56t69.5 118t-18.5 101.5t-83 91t-218.5 140.5q-153 90 -237 188.5t-84 240.5t114.5 255t319.5 113q106 0 210 -26.5t163 -63.5l-74 -180q-145 76 -269 76z" glyph-name="Scedilla" horiz-adv-x="1058" unicode="Ş"/><glyph d="M410 698q-130 0 -131 -94q0 -41 35.5 -63.5t107.5 -36.5q162 -25 242.5 -97.5t80.5 -176.5t-63.5 -164t-169.5 -80q68 -61 68 -146q0 -135 -118 -193.5t-253 -25.5l4 160q72 -20 134.5 8.5t62.5 89.5t-37 94q-176 4 -301 76l53 168q39 -23 118 -51.5t147 -28.5 t115.5 22.5t47.5 66.5t-38 70t-124 44q-307 57 -307 268q0 121 96 188.5t234 67.5t291 -57l-52 -164q-113 55 -243 55z" glyph-name="scedilla" horiz-adv-x="817" unicode="ş"/><glyph d="M579 1272q-124 0 -185.5 -52.5t-61.5 -132.5t68 -135t192 -123q211 -109 297 -224.5t82 -254.5q-4 -182 -131 -281.5t-326 -97.5q-143 2 -258 42t-180 96l96 165q152 -113 326 -112q119 0 188.5 56t69.5 118t-18.5 101.5t-83 91t-218.5 140.5q-153 90 -237 188.5 t-84 240.5t114.5 255t319.5 113q106 0 210 -26.5t163 -63.5l-74 -180q-145 76 -269 76zM813 1812v-30l-164 -242h-203l-163 242v30h129l135 -124l137 124h129z" glyph-name="Scaron" horiz-adv-x="1058" unicode="Š"/><glyph d="M414 698q-61 0 -102.5 -22.5t-41.5 -66.5t40 -64.5t118 -36.5q317 -49 317 -275q0 -129 -100 -194.5t-267 -65.5t-306 76l53 164q162 -76 248 -76q190 0 190 92q0 41 -43 63.5t-135 43.5q-301 57 -301 266q0 123 97.5 192.5t234.5 69.5t289 -57l-52 -160q-117 51 -239 51 zM676 1235v-31l-164 -241h-203l-164 241v31h129l136 -125q11 8 137 125h129z" glyph-name="scaron" horiz-adv-x="817" unicode="š"/><glyph d="M1004 1438v-183h-371v-1255h-45q98 -57 98 -163t-82 -166t-194 -60q-49 0 -95 12q0 53 4 160q25 -8 71 -8t83 32.5t37 97.5t-66 95h-26v1255h-367v183h953z" glyph-name="Tcommaaccent" horiz-adv-x="1054" unicode="Ţ"/><glyph d="M586 676h-205v-404q0 -61 39.5 -91.5t79.5 -30.5t78 12q23 -121 28 -162q-66 -18 -121 -18q63 -59 63 -155t-81.5 -156t-194.5 -60q-47 0 -94 12q0 53 4 160q35 -10 76 -10t81 29.5t40 69.5t-13.5 67.5t-26.5 43t-41 42t-34 32.5q-86 90 -86 228v391h-137v20l20 142h117 v284l184 29h19v-313h205v-162z" glyph-name="tcommaaccent" horiz-adv-x="673" unicode="ţ"/><glyph d="M1004 1438v-183h-371v-1255h-215v1255h-367v183h953zM791 1812v-30l-164 -242h-203l-164 242v30h129l135 -124l138 124h129z" glyph-name="Tcaron" horiz-adv-x="1054" unicode="Ť"/><glyph d="M41 676v20l20 142h117v284l184 29h19v-313h205v-162h-205v-402q0 -61 37 -91.5t80 -30.5t80 10q23 -121 28 -162q-70 -18 -125 -18q-303 0 -303 331v363h-137zM739 856l74 582h254l2 -31l-256 -569z" glyph-name="tcaron" horiz-adv-x="1155" unicode="ť"/><glyph d="M793 659h-160v-659h-215v659h-160v148h160v448h-367v183h953v-183h-371v-448h160v-148z" glyph-name="Tbar" horiz-adv-x="1054" unicode="Ŧ"/><glyph d="M586 676h-205v-168h102v-137h-102v-97q0 -61 37 -91.5t80 -30.5t80 10q23 -121 28 -162q-70 -18 -125 -18q-303 0 -303 331v58h-102v137h102v168h-137v20l20 142h117v284l184 29h19v-313h205v-162z" glyph-name="tbar" horiz-adv-x="673" unicode="ŧ"/><glyph d="M147 502v936h218v-928q0 -150 87 -250t224 -100t226 101t89 249v928h215v-936q0 -221 -138 -376t-393 -155t-391.5 155t-136.5 376zM552 1786q60 0 131 -26.5t99 -26.5q59 0 86 47l86 -25q2 -92 -46 -140t-106 -48t-132 27.5t-97 27.5q-61 0 -84 -49l-86 24 q-4 96 42.5 142.5t106.5 46.5z" glyph-name="Utilde" horiz-adv-x="1355" unicode="Ũ"/><glyph d="M449 -27q-152 0 -249.5 98.5t-97.5 258.5v508h203v-484q0 -98 59.5 -156.5t141.5 -58.5t147.5 57.5t65.5 155.5v486h203v-838h-123l-70 102q-94 -129 -280 -129zM390 1208q60 0 131 -26.5t100 -26.5q59 0 86 47l86 -24q2 -92 -46.5 -140.5t-105.5 -48.5t-132 27.5 t-97 27.5q-61 0 -84 -49l-86 25q-4 96 42 142t106 46z" glyph-name="utilde" horiz-adv-x="1034" unicode="ũ"/><glyph d="M147 502v936h218v-928q0 -150 87 -250t224 -100t226 101t89 249v928h215v-936q0 -221 -138 -376t-393 -155t-391.5 155t-136.5 376zM944 1606h-534v147h534v-147z" glyph-name="Umacron" horiz-adv-x="1355" unicode="Ū"/><glyph d="M449 -27q-152 0 -249.5 98.5t-97.5 258.5v508h203v-484q0 -98 59.5 -156.5t141.5 -58.5t147.5 57.5t65.5 155.5v486h203v-838h-123l-70 102q-94 -129 -280 -129zM784 1028h-534v148h534v-148z" glyph-name="umacron" horiz-adv-x="1034" unicode="ū"/><glyph d="M147 502v936h218v-928q0 -150 87 -250t224 -100t226 101t89 249v928h215v-936q0 -221 -138 -376t-393 -155t-391.5 155t-136.5 376zM678 1540q-111 0 -175.5 82t-41.5 190h141q-10 -43 9.5 -93t65.5 -50t64.5 49t8.5 94h141q25 -102 -38.5 -187t-174.5 -85z" glyph-name="Ubreve" horiz-adv-x="1355" unicode="Ŭ"/><glyph d="M449 -27q-152 0 -249.5 98.5t-97.5 258.5v508h203v-484q0 -98 59.5 -156.5t141.5 -58.5t147.5 57.5t65.5 155.5v486h203v-838h-123l-70 102q-94 -129 -280 -129zM516 963q-111 0 -175.5 81.5t-41.5 190.5h141q-10 -43 9.5 -93t65.5 -50t64.5 49t8.5 94h141 q25 -102 -38.5 -187t-174.5 -85z" glyph-name="ubreve" horiz-adv-x="1034" unicode="ŭ"/><glyph d="M457 1612q0 88 62.5 149.5t152.5 61.5t152.5 -61.5t62.5 -149.5t-62.5 -150.5t-152.5 -62.5t-152.5 62.5t-62.5 150.5zM575 1612q0 -41 29 -71t69 -30t68.5 30t28.5 71t-28.5 69.5t-68.5 28.5t-69 -28.5t-29 -69.5zM147 502v936h218v-928q0 -150 87 -250t224 -100 t226 101t89 249v928h215v-936q0 -221 -138 -376t-393 -155t-391.5 155t-136.5 376z" glyph-name="Uring" horiz-adv-x="1355" unicode="Ů"/><glyph d="M299 1034q0 88 62.5 149.5t152.5 61.5t152.5 -61.5t62.5 -149.5t-62.5 -150.5t-152.5 -62.5t-152.5 62.5t-62.5 150.5zM418 1034q0 -41 28.5 -70.5t68.5 -29.5t68.5 29.5t28.5 70.5t-28.5 70t-68.5 29t-68.5 -29t-28.5 -70zM449 -27q-152 0 -249.5 98.5t-97.5 258.5v508 h203v-484q0 -98 59.5 -156.5t141.5 -58.5t147.5 57.5t65.5 155.5v486h203v-838h-123l-70 102q-94 -129 -280 -129z" glyph-name="uring" horiz-adv-x="1034" unicode="ů"/><glyph d="M147 502v936h218v-928q0 -150 87 -250t224 -100t226 101t89 249v928h215v-936q0 -221 -138 -376t-393 -155t-391.5 155t-136.5 376zM760 1812v-30l-199 -242h-100l86 272h213zM1030 1812v-30l-199 -242h-100l88 272h211z" glyph-name="Uhungarumlaut" horiz-adv-x="1355" unicode="Ű"/><glyph d="M449 -27q-152 0 -249.5 98.5t-97.5 258.5v508h203v-484q0 -98 59.5 -156.5t141.5 -58.5t147.5 57.5t65.5 155.5v486h203v-838h-123l-70 102q-94 -129 -280 -129zM588 1235v-31l-199 -241h-100l86 272h213zM858 1235v-31l-199 -241h-100l88 272h211z" glyph-name="uhungarumlaut" horiz-adv-x="1034" unicode="ű"/><glyph d="M147 502v936h218v-928q0 -150 87 -250t224 -100t226 101t89 249v928h215v-936q0 -180 -95 -321.5t-273 -188.5q-56 -49 -56 -112t62.5 -91.5t134.5 -7.5l4 -160q-135 -33 -253 25.5t-118 193.5q0 74 54 131q-172 2 -345.5 115t-173.5 416z" glyph-name="Uogonek" horiz-adv-x="1355" unicode="Ų"/><glyph d="M922 838v-838q-72 -47 -72 -115t62.5 -96.5t134.5 -7.5l4 -160q-135 -33 -253 25.5t-118 182.5t113 185l-64 88q-94 -129 -280 -129q-152 0 -249.5 98.5t-97.5 258.5v508h203v-484q0 -98 59.5 -156.5t141.5 -58.5t147.5 57.5t65.5 155.5v486h203z" glyph-name="uogonek" horiz-adv-x="1034" unicode="ų"/><glyph d="M1722 1438h220l-558 -1454h-30l-381 999l-381 -999h-31l-545 1454h236l338 -940l373 956h30l375 -969zM1079 1812q23 -35 168 -272h-145q-121 115 -125 119l-123 -119h-145q145 238 168 272h202z" glyph-name="Wcircumflex" horiz-adv-x="1957" unicode="Ŵ"/><glyph d="M1159 838h195l-389 -854h-27l-254 532l-258 -532h-29l-383 854h209l209 -463l244 483h29l241 -483zM788 1235q23 -35 168 -272h-145q-121 115 -125 118l-123 -118h-145q145 238 168 272h202z" glyph-name="wcircumflex" horiz-adv-x="1370" unicode="ŵ"/><glyph d="M721 0h-217v684l-484 754h254l344 -531l347 531h243l-487 -754v-684zM715 1812q23 -35 168 -272h-146q-121 115 -125 119l-123 -119h-145q145 238 168 272h203z" glyph-name="Ycircumflex" horiz-adv-x="1228" unicode="Ŷ"/><glyph d="M739 838h209l-637 -1354h-196l-19 20l285 582l-361 752h224l245 -525zM588 1235q23 -35 168 -272h-146q-121 115 -125 118l-123 -118h-145q145 238 168 272h203z" glyph-name="ycircumflex" horiz-adv-x="974" unicode="ŷ"/><glyph d="M721 0h-217v684l-484 754h254l344 -531l347 531h243l-487 -754v-684zM334 1679q0 49 31.5 83t80.5 34t83 -33t34 -83t-33.5 -81.5t-83.5 -31.5t-81 31.5t-31 80.5zM651 1679q0 49 33 83t82 34t83 -33t34 -83t-34 -81.5t-83 -31.5t-82 31.5t-33 80.5z" glyph-name="Ydieresis" horiz-adv-x="1228" unicode="Ÿ"/><glyph d="M1053 180v-180h-977l-21 31l703 1226h-631v181h942l16 -31l-696 -1227h664zM834 1812v-30l-230 -242h-151l122 272h259z" glyph-name="Zacute" horiz-adv-x="1142" unicode="Ź"/><glyph d="M823 162v-162h-745l-17 37l476 639h-441l-2 162h733l15 -41l-451 -635h432zM713 1235v-31l-230 -241h-151l123 272h258z" glyph-name="zacute" horiz-adv-x="903" unicode="ź"/><glyph d="M1053 180v-180h-977l-21 31l703 1226h-631v181h942l16 -31l-696 -1227h664zM475 1679q0 49 32 83t81 34t83 -33t34 -83t-34 -81.5t-83 -31.5t-81 31.5t-32 80.5z" glyph-name="Zdotaccent" horiz-adv-x="1142" unicode="Ż"/><glyph d="M823 162v-162h-745l-17 37l476 639h-441l-2 162h733l15 -41l-451 -635h432zM336 1102q0 49 31.5 83t80.5 34t83 -34t34 -83t-33.5 -81t-83.5 -32t-81 32t-31 81z" glyph-name="zdotaccent" horiz-adv-x="903" unicode="ż"/><glyph d="M1053 180v-180h-977l-21 31l703 1226h-631v181h942l16 -31l-696 -1227h664zM870 1812v-30l-163 -242h-203l-164 242v30h129l135 -124q14 11 137 124h129z" glyph-name="Zcaron" horiz-adv-x="1142" unicode="Ž"/><glyph d="M823 162v-162h-745l-17 37l476 639h-441l-2 162h733l15 -41l-451 -635h432zM741 1235v-31l-163 -241h-203l-164 241v31h129l135 -125q32 24 137 125h129z" glyph-name="zcaron" horiz-adv-x="903" unicode="ž"/><glyph d="M780 676h-264l-135 -662q-43 -205 -183.5 -272.5t-287.5 -15.5l49 165q176 -51 213 140l135 645h-205v20l21 142h217l68 315q25 113 82 184.5t129.5 97t143.5 25.5t136 -20l-37 -160q-86 29 -156.5 -3t-89.5 -130l-65 -309h229v-162z" glyph-name="florin" horiz-adv-x="847" unicode="ƒ"/><glyph d="M436 1588q0 91 72 163t176 72q61 0 115 -27l65 141h238v-30l-221 -178q53 -68 53 -150t-45 -144.5t-119 -88.5l594 -1346h-238l-129 293h-624l-129 -293h-240l602 1343q-76 25 -123 89.5t-47 155.5zM686 1030l-237 -559h471zM559 1577q0 -53 36 -91t90 -38t90 38t36 92 t-36 91t-90 37t-90 -38t-36 -91z" glyph-name="Aringacute" horiz-adv-x="1368" unicode="Ǻ"/><glyph d="M238 1002q0 99 71.5 171t175.5 72q63 0 115 -28l64 139h237v-31l-219 -174q53 -70 53 -164t-80 -168q197 -94 205 -358l-2 -461h-115l-69 106q-88 -133 -291 -133q-143 0 -237.5 80t-94.5 201t92.5 203t237.5 82q86 0 168 -36t117 -75v47q-2 92 -61 155.5t-165 63.5 t-221 -57l-65 141q55 37 143 60q-59 65 -59 164zM252 259q0 -58 51 -99t132 -41t151 50t80 122v12q-90 98 -240 96q-80 0 -127 -41t-47 -99zM360 999.5q0 -53.5 36 -91.5t90 -38t90 38t36 92t-36 91t-90 37t-90 -37.5t-36 -91z" glyph-name="aringacute" horiz-adv-x="952" unicode="ǻ"/><glyph d="M1235 180h606v-180h-821v291h-578l-217 -291h-266l1059 1438h797v-183h-580v-348h467v-182h-467v-545zM1020 475v631l-455 -631h455zM1475 1812v-30l-230 -242h-151l123 272h258z" glyph-name="AEacute" horiz-adv-x="1953" unicode="Ǽ"/><glyph d="M1513 399h-643q2 -117 92.5 -190.5t220.5 -73.5t251 74l79 -131q-63 -51 -165.5 -78t-200.5 -27q-242 0 -381 168q-125 -168 -383 -168q-143 0 -237.5 80t-94.5 201t92.5 203t237.5 82q86 0 168 -36t117 -75v47q-2 92 -61 155.5t-165 63.5t-221 -57l-65 141 q47 31 136 58.5t169 25.5q211 -4 317 -141q127 143 326 143q166 0 288.5 -119.5t122.5 -324.5v-21zM252 259q0 -58 51 -99t132 -41t151 50t80 122v12q-90 98 -240 96q-80 0 -127 -41t-47 -99zM1098 707q-84 0 -144.5 -58t-68.5 -121h420q-8 78 -65.5 128.5t-141.5 50.5z M1081 1235v-31l-229 -241h-152l123 272h258z" glyph-name="aeacute" horiz-adv-x="1574" unicode="ǽ"/><glyph d="M1104 1812v-30l-230 -242h-151l123 272h258zM66 717q0 317 214 533t539 216q162 0 303 -59l113 205l145 -78l-114 -205q145 -102 227 -263t82 -349q0 -315 -215 -530.5t-541 -215.5q-143 0 -280 49l-138 -249l-139 82l133 239q-156 100 -242.5 264t-86.5 361zM297 717 q0 -283 199 -441l528 957q-102 43 -205 43q-217 0 -369.5 -157.5t-152.5 -401.5zM1343 725q0 252 -180 418l-526 -946q84 -33 182 -33q217 0 370.5 154.5t153.5 406.5z" glyph-name="Oslashacute" horiz-adv-x="1642" unicode="Ǿ"/><glyph d="M772 1235v-31l-229 -241h-152l123 272h258zM512 -27q-82 0 -154 27l-100 -186l-106 59l98 180q-195 129 -195 367q0 197 138.5 320.5t322.5 123.5q78 0 158 -28l88 161l110 -53l-88 -164q188 -129 189 -360q0 -197 -138.5 -322t-322.5 -125zM260 420q0 -129 76 -209 l258 477q-37 14 -82 14q-106 0 -179 -76.5t-73 -205.5zM514 135q106 0 180 79t74 205t-72 202l-258 -474q37 -12 76 -12z" glyph-name="oslashacute" horiz-adv-x="1030" unicode="ǿ"/><glyph d="M579 1272q-124 0 -185.5 -52.5t-61.5 -132.5t68 -135t192 -123q211 -109 297 -224.5t82 -254.5q-4 -182 -131 -281.5t-326 -97.5q-143 2 -258 42t-180 96l96 165q152 -113 326 -112q119 0 188.5 56t69.5 118t-18.5 101.5t-83 91t-218.5 140.5q-153 90 -237 188.5 t-84 240.5t114.5 255t319.5 113q106 0 210 -26.5t163 -63.5l-74 -180q-145 76 -269 76zM352 -492l54 367h247l2 -31l-229 -350z" glyph-name="Scommaaccent" horiz-adv-x="1058" unicode="Ș"/><glyph d="M414 698q-61 0 -102.5 -22.5t-41.5 -66.5t40 -64.5t118 -36.5q317 -49 317 -275q0 -129 -100 -194.5t-267 -65.5t-306 76l53 164q162 -76 248 -76q190 0 190 92q0 41 -43 63.5t-135 43.5q-301 57 -301 266q0 123 97.5 192.5t234.5 69.5t289 -57l-52 -160q-117 51 -239 51 zM229 -492l54 367h247l2 -31l-229 -350z" glyph-name="scommaaccent" horiz-adv-x="817" unicode="ș"/><glyph d="M1004 1438v-183h-371v-1255h-215v1255h-367v183h953zM352 -492l54 367h247l2 -31l-229 -350z" glyph-name="uni021A" horiz-adv-x="1054" unicode="Ț"/><glyph d="M41 676v20l20 142h117v284l184 29h19v-313h205v-162h-205v-402q0 -61 37 -91.5t80 -30.5t80 10q23 -121 28 -162q-70 -18 -125 -18q-303 0 -303 331v363h-137zM209 -492l53 367h248l2 -31l-229 -350z" glyph-name="uni021B" horiz-adv-x="673" unicode="ț"/><glyph d="M432 1235q23 -35 168 -272h-145q-121 115 -125 118l-123 -118h-146q145 238 168 272h203z" glyph-name="circumflex" horiz-adv-x="661" unicode="ˆ"/><glyph d="M616 1235v-31l-163 -241h-203l-164 241v31h129l135 -125q32 24 137 125h129z" glyph-name="caron" horiz-adv-x="702" unicode="ˇ"/><glyph d="M283 963q-111 0 -175.5 81.5t-41.5 190.5h141q-10 -43 9.5 -93t65.5 -50t64.5 49t7.5 94h142q25 -102 -38.5 -187t-174.5 -85z" glyph-name="breve" horiz-adv-x="563" unicode="˘"/><glyph d="M61 1102q0 49 32 83t81 34t83 -34t34 -83t-34 -81t-83 -32t-81 32t-32 81z" glyph-name="dotaccent" horiz-adv-x="352" unicode="˙"/><glyph d="M61 999.5q0 102.5 72 174t176.5 71.5t177 -71.5t72.5 -174t-72.5 -174t-177 -71.5t-176.5 71.5t-72 174zM184 999.5q0 -53.5 36 -91.5t90 -38t90 38t36 92t-36 91t-90 37t-90 -37.5t-36 -91z" glyph-name="ring" horiz-adv-x="620" unicode="˚"/><glyph d="M231 -106q0 -62 39.5 -91.5t81.5 -29.5t76 10q4 -106 4 -160q-47 -12 -94 -12q-115 0 -196 60.5t-81 168.5q0 78 56.5 133.5t128.5 69.5l57 -23v-20q-72 -44 -72 -106z" glyph-name="ogonek" horiz-adv-x="493" unicode="˛"/><glyph d="M212 1208q60 0 131 -26.5t99 -26.5q59 0 86 47l86 -24q2 -92 -46 -140.5t-105 -48.5t-132 27.5t-98 27.5q-60 0 -83 -49l-87 25q-4 96 42.5 142t106.5 46z" glyph-name="tilde" horiz-adv-x="677" unicode="˜"/><glyph d="M360 1235v-31l-198 -241h-101l86 272h213zM631 1235v-31l-199 -241h-100l88 272h211z" glyph-name="hungarumlaut" horiz-adv-x="692" unicode="˝"/><glyph d="M106 -492l54 367h248l2 -31l-230 -350z" glyph-name="uni0326" horiz-adv-x="528" unicode="̦"/><glyph d="M1452 0h-547l-12 29q326 350 326 727q0 238 -132.5 378t-319.5 140t-318.5 -139.5t-131.5 -378.5q0 -375 324 -727l-14 -29h-547v180h276q-119 96 -196.5 256t-77.5 334q0 319 203.5 507.5t482.5 188.5q178 0 331.5 -78.5t254 -241t100.5 -356.5t-74.5 -350.5 t-199.5 -259.5h272v-180z" glyph-name="Omega" horiz-adv-x="1536" unicode="Ω"/><glyph d="M999 676h-151l51 -676h-197l-47 676h-262l-47 -676h-199l52 676h-148v162h948v-162z" glyph-name="pi" horiz-adv-x="1050" unicode="π"/><glyph d="M1722 1438h220l-558 -1454h-30l-381 999l-381 -999h-31l-545 1454h236l338 -940l373 956h30l375 -969zM682 1812h258l123 -272h-152l-229 242v30z" glyph-name="Wgrave" horiz-adv-x="1957" unicode="Ẁ"/><glyph d="M1159 838h195l-389 -854h-27l-254 532l-258 -532h-29l-383 854h209l209 -463l244 483h29l241 -483zM395 1235h258l123 -272h-151l-230 241v31z" glyph-name="wgrave" horiz-adv-x="1370" unicode="ẁ"/><glyph d="M1722 1438h220l-558 -1454h-30l-381 999l-381 -999h-31l-545 1454h236l338 -940l373 956h30l375 -969zM1276 1812v-30l-229 -242h-152l123 272h258z" glyph-name="Wacute" horiz-adv-x="1957" unicode="Ẃ"/><glyph d="M1159 838h195l-389 -854h-27l-254 532l-258 -532h-29l-383 854h209l209 -463l244 483h29l241 -483zM991 1235v-31l-229 -241h-152l123 272h258z" glyph-name="wacute" horiz-adv-x="1370" unicode="ẃ"/><glyph d="M1722 1438h220l-558 -1454h-30l-381 999l-381 -999h-31l-545 1454h236l338 -940l373 956h30l375 -969zM700 1679q0 49 32 83t81 34t83 -33t34 -83t-34 -81.5t-83 -31.5t-81 31.5t-32 80.5zM1018 1679q0 49 33 83t81 34t82.5 -33t34.5 -83t-33.5 -81.5t-83 -31.5t-82 31.5 t-32.5 80.5z" glyph-name="Wdieresis" horiz-adv-x="1957" unicode="Ẅ"/><glyph d="M1159 838h195l-389 -854h-27l-254 532l-258 -532h-29l-383 854h209l209 -463l244 483h29l241 -483zM410 1102q0 49 31.5 83t80.5 34t83 -34t34 -83t-34 -81t-83 -32t-80.5 32t-31.5 81zM727 1102q0 49 33 83t81 34t82.5 -34t34.5 -83t-33.5 -81t-82.5 -32t-82 32t-33 81z " glyph-name="wdieresis" horiz-adv-x="1370" unicode="ẅ"/><glyph d="M164 0v1438l948 -2l14 -29l-303 -537q166 2 290 -112.5t124 -306.5q0 -131 -61.5 -234.5t-164 -159t-235.5 -72t-278 26.5l32 174l29 9q121 -57 242 -10.5t167 115.5t46 161q0 145 -122 229t-321 35l-26 31l266 497h-432v-1253h-215z" glyph-name="uni1E9E" horiz-adv-x="1314" unicode="ẞ"/><glyph d="M721 0h-217v684l-484 754h254l344 -531l347 531h243l-487 -754v-684zM330 1812h258l123 -272h-152l-229 242v30z" glyph-name="Ygrave" horiz-adv-x="1228" unicode="Ỳ"/><glyph d="M739 838h209l-637 -1354h-196l-19 20l285 582l-361 752h224l245 -525zM203 1235h258l123 -272h-152l-229 241v31z" glyph-name="ygrave" horiz-adv-x="974" unicode="ỳ"/><glyph glyph-name="uni2009" horiz-adv-x="102" unicode=" "/><glyph d="M897 418h-815v178h815v-178z" glyph-name="endash" horiz-adv-x="978" unicode="–"/><glyph d="M1466 418h-1384v178h1384v-178z" glyph-name="emdash" horiz-adv-x="1548" unicode="—"/><glyph d="M406 1442l-74 -582h-254l-2 31l256 569z" glyph-name="quoteleft" horiz-adv-x="528" unicode="‘"/><glyph d="M111 856l73 582h254l2 -31l-256 -569z" glyph-name="quoteright" horiz-adv-x="528" unicode="’"/><glyph d="M86 -313l74 581h254l2 -30l-256 -570z" glyph-name="quotesinglbase" horiz-adv-x="528" unicode="‚"/><glyph d="M406 1442l-74 -582h-254l-2 31l256 569zM776 1442l-74 -582h-253l-3 31l256 569z" glyph-name="quotedblleft" horiz-adv-x="897" unicode="“"/><glyph d="M111 856l73 582h254l2 -31l-256 -569zM481 856l74 582h254l2 -31l-256 -569z" glyph-name="quotedblright" horiz-adv-x="897" unicode="”"/><glyph d="M86 -313l74 581h254l2 -30l-256 -570zM461 -313l74 581h253l3 -30l-256 -570z" glyph-name="quotedblbase" horiz-adv-x="903" unicode="„"/><glyph d="M913 946h-309v-1214h-190v1214h-312v162h312v330h190v-330h309v-162z" glyph-name="dagger" horiz-adv-x="1015" unicode="†"/><glyph d="M920 381h-314v-649h-190v649h-314v164h314v401h-312v162h312v330h190v-330h309v-162h-309v-401h314v-164z" glyph-name="daggerdbl" horiz-adv-x="1021" unicode="‡"/><glyph d="M143 501q0 89 60.5 152.5t149.5 63.5t152.5 -63.5t63.5 -152.5t-63.5 -149.5t-152.5 -60.5t-149.5 60.5t-60.5 149.5z" glyph-name="bullet" horiz-adv-x="712" unicode="•"/><glyph d="M113 126.5q0 63.5 43 108t105 44.5t106.5 -44.5t44.5 -108t-44 -105t-106 -41.5t-105.5 41.5t-43.5 105zM637 126.5q0 63.5 43 108t105 44.5t106.5 -44.5t44.5 -108t-44 -105t-106 -41.5t-105.5 41.5t-43.5 105zM1165 126.5q0 63.5 43.5 108t105.5 44.5t106 -44.5 t44 -108t-44 -105t-106 -41.5t-105.5 41.5t-43.5 105z" glyph-name="ellipsis" horiz-adv-x="1576" unicode="…"/><glyph d="M1128 -20q-129 0 -224 88t-95 226t96 226t225.5 88t221.5 -88t92 -226t-93.5 -226t-222.5 -88zM1130.5 119q67.5 0 106.5 51t39 126t-39 125t-107 50t-108.5 -51t-40.5 -125t41 -125t108.5 -51zM385 727q-129 0 -224 88t-95 225.5t96 226.5t225 89t222 -88t93 -226 t-94 -226.5t-223 -88.5zM389.5 866q67.5 0 105 50t37.5 126t-37.5 126.5t-105.5 50.5t-109.5 -51.5t-41.5 -126.5t42 -125t109.5 -50zM145 63l1074 1303l124 -104l-1069 -1299zM1823 -20q-129 0 -223.5 88t-94.5 226t95.5 226t224.5 88t222 -88t93 -226t-94 -226t-223 -88z M1826.5 119q67.5 0 105.5 51t38 126t-38 125t-106 50t-109.5 -51t-41.5 -125t42 -125t109.5 -51z" glyph-name="perthousand" horiz-adv-x="2205" unicode="‰"/><glyph d="M473 -33l-412 439v32l416 453l135 -105l-323 -360l323 -350z" glyph-name="guilsinglleft" horiz-adv-x="704" unicode="‹"/><glyph d="M231 891l412 -438v-33l-416 -453l-135 105l324 360l-324 350z" glyph-name="guilsinglright" horiz-adv-x="704" unicode="›"/><glyph d="M-399 37l1073 1390l94 -73l-1071 -1385z" glyph-name="fraction" horiz-adv-x="368" unicode="⁄"/><glyph d="M377 868q-137 0 -229.5 105.5t-92.5 269.5t92.5 269.5t229.5 105.5t229 -105.5t92 -269.5t-92 -269.5t-229 -105.5zM378 991q77 0 124 74t47 179t-47 178t-125 73t-126 -69.5t-48 -180.5t49 -182.5t126 -71.5z" glyph-name="uni2070" horiz-adv-x="755" unicode="⁰"/><glyph d="M670 1110v-113h-92v-108h-140v108h-379l-34 47l497 578l53 -20l3 -492h92zM438 1110v236l-194 -236h194z" glyph-name="uni2074" horiz-adv-x="741" unicode="⁴"/><glyph d="M561 1599v-116h-313l-15 -152q83 35 167 22t146 -69.5t64 -170.5t-87 -179.5t-190 -65.5t-176 28t-106 58l45 97l21 -2q25 -20 83 -39t111 -19t104.5 33t51.5 96t-51 99t-125 36t-154 -61l-45 23l39 382h430z" glyph-name="uni2075" horiz-adv-x="688" unicode="⁵"/><glyph d="M351 868q-114 0 -199.5 76t-85.5 221q0 203 136 326t339 123l24 -103l-12 -18q-113 0 -207 -57.5t-113 -163.5q23 29 88.5 46t120.5 7q78 -10 132.5 -68.5t54.5 -157.5t-82 -165t-196 -66zM351 985q54 0 96 36t42 89t-43 88t-95 35t-94 -37t-42 -88t41 -87t95 -36z" glyph-name="uni2076" horiz-adv-x="684" unicode="⁶"/><glyph d="M61 1483v116h535l18 -30l-299 -680h-168l275 594h-361z" glyph-name="uni2077" horiz-adv-x="645" unicode="⁷"/><glyph d="M178 1276q-78 44 -78 160q0 62 65.5 122t181.5 60t180.5 -60t64.5 -122q0 -118 -76 -160q53 -16 90 -66.5t37 -113.5q0 -98 -78 -162t-217 -64t-218 63.5t-79 162.5q0 63 37 113.5t90 66.5zM496 1108q0 47 -39 81t-111 34t-110.5 -34t-38.5 -81t41 -82t110.5 -33 t108.5 35t39 80zM348 1317q55 0 82 27.5t27 62.5t-27 61.5t-82 26.5t-82.5 -26.5t-27.5 -61.5t27.5 -62.5t82.5 -27.5z" glyph-name="uni2078" horiz-adv-x="694" unicode="⁸"/><glyph d="M333 1618q114 0 199.5 -76t85.5 -223q0 -203 -136 -322.5t-339 -119.5l-24 100l12 18q113 0 207 56.5t113 160.5q-23 -29 -84 -45t-127 -7t-125.5 67.5t-59.5 157.5t82 166t196 67zM333 1501q-54 0 -96 -37t-42 -90t43 -87t95 -34t94 37t42 88.5t-41 87t-95 35.5z" glyph-name="uni2079" horiz-adv-x="684" unicode="⁹"/><glyph d="M377 -227q-137 0 -229.5 105.5t-92.5 269t92.5 269t229.5 105.5t229 -105.5t92 -269t-92 -269t-229 -105.5zM378 -104q77 0 124 73.5t47 178.5t-47 178t-125 73t-126 -69.5t-48 -180.5t49 -182t126 -71z" glyph-name="uni2080" horiz-adv-x="755" unicode="₀"/><glyph d="M223 -207v541l-106 -47l-45 104l262 131h28v-729h-139z" glyph-name="uni2081" horiz-adv-x="522" unicode="₁"/><glyph d="M582 262q0 -61 -43 -133t-85 -115.5t-72 -69.5t-34 -30h262v-121h-561l-14 29q320 262 359.5 330.5t39.5 120.5t-38 84t-87 32t-91 -23.5t-64 -56.5h-19l-72 84q37 57 110 93t167 34t168 -66.5t74 -191.5z" glyph-name="uni2082" horiz-adv-x="686" unicode="₂"/><glyph d="M90 504h498l12 -29l-178 -244q63 -2 127.5 -61.5t64.5 -155.5t-84 -168.5t-223 -72.5t-256 82l49 100h23q23 -23 77 -41t110 -18t106.5 34.5t50.5 97.5t-64.5 100.5t-171.5 10.5l-22 25l172 223h-291v117z" glyph-name="uni2083" horiz-adv-x="690" unicode="₃"/><glyph d="M670 14v-112h-92v-109h-140v109h-379l-34 47l497 577l53 -20l3 -492h92zM438 14v236l-194 -236h194z" glyph-name="uni2084" horiz-adv-x="741" unicode="₄"/><glyph d="M561 504v-117h-313l-15 -151q83 36 167 22t146 -70.5t64 -170.5t-87 -179t-190 -65t-176 27.5t-106 58.5l45 96l21 -2q25 -20 83 -38.5t111 -18.5t104.5 32t51.5 96t-51 100t-125 36t-154 -62l-45 23l39 383h430z" glyph-name="uni2085" horiz-adv-x="688" unicode="₅"/><glyph d="M351 -227q-114 0 -199.5 75.5t-85.5 221.5q0 203 136 325.5t339 122.5l24 -102l-12 -19q-113 0 -207 -57t-113 -164q23 29 89 45.5t132 6.5t120.5 -68t54.5 -157t-82 -164.5t-196 -65.5zM351 -111q54 0 96 36t42 89.5t-43 88t-95 34.5t-94 -37t-42 -88t41 -87t95 -36z " glyph-name="uni2086" horiz-adv-x="684" unicode="₆"/><glyph d="M61 387v117h535l18 -31l-299 -680h-168l275 594h-361z" glyph-name="uni2087" horiz-adv-x="645" unicode="₇"/><glyph d="M178 178q-78 43 -78 160q0 62 65.5 122t181.5 60t180.5 -60.5t64.5 -121.5q0 -116 -76 -160q53 -16 90 -66.5t37 -113.5q0 -98 -78 -161.5t-217 -63.5t-218 63.5t-79 161.5q0 63 37 113.5t90 66.5zM496 10q0 47 -39 81t-111 34t-110.5 -34t-38.5 -81t41 -81.5 t110.5 -32.5t108.5 34.5t39 79.5zM348 219q55 0 82 27.5t27 62.5t-27 61.5t-82 26.5t-82.5 -26.5t-27.5 -61.5t27.5 -62.5t82.5 -27.5z" glyph-name="uni2088" horiz-adv-x="694" unicode="₈"/><glyph d="M333 514q114 0 199.5 -76t85.5 -223q0 -203 -136 -322.5t-339 -119.5l-24 100l12 18q113 0 207 56.5t113 161.5q-23 -29 -84 -45.5t-127 -7.5t-125.5 68.5t-59.5 157.5t82 165t196 67zM333 397q-54 0 -96 -36.5t-42 -90t43 -87t95 -33.5t94 36.5t42 88t-41 87t-95 35.5z " glyph-name="uni2089" horiz-adv-x="684" unicode="₉"/><glyph d="M41 739v21l14 117h158q63 219 247.5 352t422.5 133q285 0 506 -193l-129 -141q-180 156 -348 156t-288 -85t-169 -222h610v-21l-16 -117h-637q-4 -53 -4 -81t6 -72h610v-21l-16 -114h-551q49 -133 172 -216t276 -83q209 0 375 137l119 -129q-203 -188 -512 -189 q-238 0 -420 132.5t-250 347.5h-217v20l14 115h172q-4 60 -4 80t4 73h-145z" glyph-name="Euro" horiz-adv-x="1456" unicode="€"/><glyph d="M575 -29q-168 0 -263 117t-95 279v22q-37 -29 -115 -90l-82 109q129 98 195 155v436q0 256 96.5 376t238.5 120t218 -91t76 -248t-115 -315.5t-321 -340.5v-103q0 -125 58 -196.5t146 -71.5q158 0 228 180l123 -37q-84 -301 -388 -301zM408 1020v-320q90 94 137 148.5 t100 149t53 169.5q0 188 -131 189q-159 0 -159 -336z" glyph-name="afii61289" horiz-adv-x="976" unicode="ℓ"/><glyph d="M958 1335h203v-1335h-203v573l-593 412v-985h-201v1341l24 17l770 -543v520zM1670 602q-161 0 -272.5 107.5t-111.5 273.5t111.5 272.5t273.5 106.5t272.5 -106.5t110.5 -272.5t-111.5 -273.5t-272.5 -107.5zM1669 770q80 0 132 61.5t52 152.5t-52 151.5t-132 60.5 t-132 -61.5t-52 -151.5t52 -151.5t132 -61.5zM1518 266q0 64 44 110t108 46t107.5 -45t43.5 -110t-44.5 -106.5t-108.5 -41.5t-107 41.5t-43 105.5z" glyph-name="afii61352" horiz-adv-x="2099" unicode="№"/><glyph d="M764 1100q162 0 252 -73.5t90 -195.5t-98.5 -187.5t-235.5 -65.5q-29 0 -43 2v-218h-147l-2 715q92 23 184 23zM778 709q80 0 127 35.5t47 91.5t-44 90.5t-122 34.5q-16 -1 -57 -5v-243q33 -4 49 -4zM61 718q0 310 211.5 526t525.5 216t526 -217t212 -526t-212 -524.5 t-526 -215.5t-525.5 215.5t-211.5 525.5zM190 717q0 -264 175.5 -447.5t435.5 -183.5t436 184.5t176 447.5t-176 446.5t-436 183.5t-435.5 -183.5t-175.5 -447.5z" glyph-name="uni2117" horiz-adv-x="1597" unicode="℗"/><glyph d="M426 1321q-154 0 -154 -94q0 -29 22.5 -49.5t47 -30t82.5 -25.5q113 -32 193.5 -84t80.5 -165t-89 -169.5t-233 -56.5t-278 72l39 123q37 -20 114 -44t136 -24t100 23.5t41 66.5t-30 70.5t-136 55.5t-178.5 81t-72.5 159t80.5 164t212.5 58t260 -57l-43 -129 q-115 55 -195 55zM989 655h-145v783l28 8l336 -365l355 365l28 -8v-783h-143v484l-229 -242h-15l-215 227v-469z" glyph-name="uni2120" horiz-adv-x="1693" unicode="℠"/><glyph d="M688 1438v-131h-235v-652h-148v652h-233v131h616zM938 655h-145v783l28 8l336 -365l354 365l29 -8v-783h-143v484l-230 -242h-14l-215 227v-469z" glyph-name="trademark" horiz-adv-x="1642" unicode="™"/><glyph d="M874 66q162 0 323 78.5t251 201.5q49 -41 74 -63q-111 -150 -285 -230t-389 -80q-338 0 -562.5 212.5t-224.5 526.5t216.5 534t530.5 220t532.5 -220t218.5 -521l-1182 -2v-461q82 -90 208.5 -143t288.5 -53zM813 1366q-123 0 -239.5 -47t-196.5 -129v-373h876v363 q-80 86 -198.5 136t-241.5 50z" glyph-name="estimated" horiz-adv-x="1619" unicode="℮"/><glyph d="M2015 788v-147h-1681l192 -195l-86 -94l-338 342v33l338 348l86 -90l-192 -197h1681z" glyph-name="arrowleft" horiz-adv-x="2117" unicode="←"/><glyph d="M567 -268h-147v1681l-195 -194l-92 88l342 338h33l348 -338l-92 -88l-197 194v-1681z" glyph-name="arrowup" horiz-adv-x="989" unicode="↑"/><glyph d="M102 641v147h1682l-195 195l88 92l338 -342v-33l-338 -348l-88 92l195 197h-1682z" glyph-name="arrowright" horiz-adv-x="2117" unicode="→"/><glyph d="M420 1440h147v-1682l195 193l94 -86l-344 -338h-33l-346 338l90 86l197 -193v1682z" glyph-name="arrowdown" horiz-adv-x="989" unicode="↓"/><glyph d="M520 -27q-199 0 -332 124t-133 321t127 321.5t326 124.5q152 0 229 -112q-41 209 -200.5 356t-382.5 190l-21 25l55 141q356 -72 575.5 -326.5t219.5 -660.5q0 -240 -132 -372t-331 -132zM515 135q103 0 180 79t77 204t-73.5 204.5t-185.5 79.5t-182.5 -78.5 t-70.5 -204.5t76 -205t179 -79z" glyph-name="partialdiff" horiz-adv-x="1040" unicode="∂"/><glyph d="M1339 0h-1304l637 1462h39zM684 1047l-350 -850h690z" glyph-name="uni2206" horiz-adv-x="1376" unicode="∆"/><glyph d="M963 -319v1585h-582v-1585h-217v1757h1014v-1757h-215z" glyph-name="product" horiz-adv-x="1341" unicode="∏"/><glyph d="M1096 -150v-169h-1002l-12 28l596 850l-596 850l12 29h965v-172h-658l508 -699v-18l-489 -699h676z" glyph-name="summation" horiz-adv-x="1163" unicode="∑"/><glyph d="M893 610h-811v178h811v-178z" glyph-name="minus" horiz-adv-x="974" unicode="−"/><glyph d="M1221 1632l-615 -2144h-39l-315 856l-156 -57l-59 168l319 120l213 -595l475 1710z" glyph-name="radical" horiz-adv-x="1230" unicode="√"/><glyph d="M1180 979q125 0 217 -81t92 -207t-90.5 -207t-202.5 -81t-203.5 41t-206.5 129q-225 -170 -405 -170q-129 0 -219 81t-90 207t91 207t220 81q164 0 389 -174q234 174 408 174zM1186 813q-47 0 -94.5 -21.5t-75 -42t-94.5 -71.5q156 -119 258 -119q57 0 102 32t45 96 t-47 95t-94 31zM374 569q48 0 93 19.5t78 43t94 70.5q-160 121 -258 121q-61 0 -104.5 -31.5t-43.5 -95.5t46.5 -95.5t94.5 -31.5z" glyph-name="infinity" horiz-adv-x="1560" unicode="∞"/><glyph d="M503.5 1669q67.5 0 131.5 -20l-25 -150q-76 29 -139 -8t-63 -135v-1587q0 -113 -43 -184.5t-110 -97.5t-134.5 -26t-130.5 21l24 149q76 -29 139.5 8.5t61.5 135.5l2 1587q0 113 43 185.5t109.5 97t134 24.5z" glyph-name="integral" horiz-adv-x="624" unicode="∫"/><glyph d="M332 662q63 0 188 -49.5t174 -49.5q104 0 152 82l86 -12q12 -125 -63 -190.5t-159 -65.5t-209.5 48t-173.5 48t-90.5 -23.5t-58.5 -58.5l-88 12q-10 135 64.5 197t177.5 62zM332 1014q63 0 188 -49.5t174 -49.5q104 0 152 84l86 -10q12 -125 -63 -191.5t-159 -66.5 t-209.5 47t-168.5 47q-117 0 -154 -80l-88 13q-10 133 64.5 194.5t177.5 61.5z" glyph-name="approxequal" horiz-adv-x="1024" unicode="≈"/><glyph d="M82 436v176h301l66 174h-367v179h440l117 305l160 -68l-90 -237h211v-179h-285l-66 -174h351v-176h-424l-131 -342l-158 68l102 274h-227z" glyph-name="notequal" horiz-adv-x="1001" unicode="≠"/><glyph d="M963 248h-846v176h846v-176zM963 485l-877 277v100l877 279v-174l-492 -154l492 -156v-172z" glyph-name="lessequal" horiz-adv-x="1081" unicode="≤"/><glyph d="M965 248h-848v176h848v-176zM993 762l-874 -277v172l491 156l-491 152v176l874 -279v-100z" glyph-name="greaterequal" horiz-adv-x="1081" unicode="≥"/><glyph d="M555 -29l-514 742l524 753h37l518 -743l-526 -752h-39zM264 723l311 -461l318 449l-315 469z" glyph-name="lozenge" horiz-adv-x="1161" unicode="◊"/><glyph d="M596 1360q244 0 386 -192.5t142 -497.5t-142 -502t-386 -197t-387 198t-143 502t143 496.5t387 192.5zM595 150q142 0 222 142t80 377.5t-80 375t-222 139.5t-223 -139.5t-81 -375t81 -377.5t223 -142z" glyph-name="zero.oldstyle.lnum" horiz-adv-x="1189"/><glyph d="M205 178h352v893q-209 -94 -313 -139l-70 166l557 252h37v-1172h309v-178h-872v178z" glyph-name="one.oldstyle.lnum" horiz-adv-x="1189"/><glyph d="M550 1360q122 0 219 -45t167 -150.5t71 -262.5t-97.5 -302t-374.5 -420h507v-180h-938l-14 33q51 49 160.5 152.5t155 147.5t125 125t113.5 125t91.5 128t57.5 203q0 118 -77 189t-169 72t-164 -39t-111 -92h-28l-103 130q63 80 175 133t234 53z" glyph-name="two.oldstyle.lnum" horiz-adv-x="1189"/><glyph d="M186 1333h807l17 -28l-353 -506q141 4 262 -102.5t121 -296.5t-137 -309.5t-356 -119.5q-109 0 -192 15.5t-118.5 31t-99.5 48.5l60 159l28 2q127 -84 269 -84t239.5 70t97.5 204t-123.5 208.5t-320.5 29.5l-27 35l326 461h-500v182z" glyph-name="three.oldstyle.lnum" horiz-adv-x="1189"/><glyph d="M920 389h178v-172h-178v-217h-215v217h-648l-43 51l836 1086l70 -19v-946zM705 389v490l-359 -490h359z" glyph-name="four.oldstyle.lnum" horiz-adv-x="1189"/><glyph d="M965 1333v-182h-514l-35 -344q55 25 156.5 31t187.5 -17q117 -39 195.5 -141t80.5 -273t-130 -303.5t-389 -132.5t-386 97l57 161l29 2q106 -84 293 -84q129 0 221 74t92 203t-85 197.5t-208 68.5q-162 0 -286 -108l-49 14l73 737h697z" glyph-name="five.oldstyle.lnum" horiz-adv-x="1189"/><glyph d="M594 -29q-211 0 -344 138.5t-135 371.5q0 182 54 333t139 248t239.5 195.5t359.5 102.5l41 -162l-20 -24q-201 -6 -365 -142.5t-196 -329.5q96 129 280 129t304 -118.5t120 -304.5t-133 -311.5t-344 -125.5zM598 145q111 0 185.5 76t74.5 186.5t-74.5 186.5t-186.5 76 t-186.5 -76t-74.5 -186t75.5 -186.5t186.5 -76.5z" glyph-name="six.oldstyle.lnum" horiz-adv-x="1189"/><glyph d="M147 1153v180h924l21 -30l-580 -1303h-242l535 1153h-658z" glyph-name="seven.oldstyle.lnum" horiz-adv-x="1189"/><glyph d="M596 -29q-219 0 -356.5 121t-137.5 305q0 123 73 221.5t175 126.5q-150 96 -149 269q0 147 110.5 246.5t285.5 99.5t283.5 -100t108.5 -258t-149 -254q102 -27 174.5 -127.5t72.5 -223.5q0 -184 -136 -305t-355 -121zM598 150q119 0 195.5 70t76.5 182t-78.5 181.5 t-198.5 69.5t-197 -69.5t-77 -181.5t80 -182t199 -70zM598 803q84 0 140.5 55t56.5 137t-58.5 136.5t-142.5 54.5t-141.5 -54.5t-57.5 -136.5t59.5 -137t143.5 -55z" glyph-name="eight.oldstyle.lnum" horiz-adv-x="1189"/><glyph d="M596 1360q211 0 344 -138.5t135 -371.5q0 -182 -54 -332.5t-139 -248t-239.5 -196t-359.5 -102.5l-41 162l20 25q201 6 365 142t196 329q-97 -129 -281 -129t-303.5 118t-119.5 304t133 312t344 126zM591.5 1186q-110.5 0 -185 -76t-74.5 -186.5t74.5 -186t186.5 -75.5 t186.5 75.5t74.5 185.5t-76 186.5t-186.5 76.5z" glyph-name="nine.oldstyle.lnum" horiz-adv-x="1189"/><glyph d="M570 -29q-220 0 -362 151.5t-142 367t142 366t363.5 150.5t362.5 -149.5t141 -367t-142.5 -368t-362.5 -150.5zM572 143q132 0 215 103.5t83 243.5t-85 242t-218 102t-215 -100t-82 -242t85 -245.5t217 -103.5z" glyph-name="zero.oldstyle.pnum" horiz-adv-x="1142"/><glyph d="M291 0v735l-133 -55l-62 166l363 151h37v-997h-205z" glyph-name="one.oldstyle.pnum" horiz-adv-x="710"/><glyph d="M513 1004q157 0 275.5 -92.5t118.5 -262.5q5 -175 -120 -281t-159 -129.5t-106 -72.5h424v-166h-868l-23 55q63 45 228 154t289 210.5t124 205.5t-64.5 154t-142.5 52t-148.5 -46t-104.5 -115h-31l-111 116q47 84 154.5 151t264.5 67z" glyph-name="two.oldstyle.pnum" horiz-adv-x="1048"/><glyph d="M418 -119q134 0 222.5 63.5t88.5 189.5t-118.5 202t-301.5 20l-26 35l315 424h-483v166h784l16 -29l-344 -458q125 6 245 -96t120 -286t-141.5 -294.5t-348 -110.5t-370.5 86l45 154h31q132 -66 266 -66z" glyph-name="three.oldstyle.pnum" horiz-adv-x="1054"/><glyph d="M903 158h182v-158h-182v-268h-203v268h-639l-41 59l797 945l86 -19v-827zM700 158v444l-362 -444h362z" glyph-name="four.oldstyle.pnum" horiz-adv-x="1163"/><glyph d="M885 983v-166h-504l-41 -317q59 29 161.5 34t200.5 -30t171 -129t75 -257t-128 -287t-355 -124q-108 0 -156.5 11.5t-75 18.5t-54 19.5t-56 25t-49.5 28.5l51 151l31 2q119 -80 266 -80t233 66.5t86 185.5t-83 190.5t-205 71.5t-197.5 -56t-77.5 -58l-49 16l88 684h668z " glyph-name="five.oldstyle.pnum" horiz-adv-x="1056"/><glyph d="M529 -29q-200 0 -331.5 134.5t-131.5 327.5t51 340t132 237t230 176t369 86l35 -156q-2 -2 -7.5 -10t-9.5 -12q-199 -4 -344 -99.5t-211 -283.5q107 109 277 109t286.5 -113t116.5 -301t-131 -311.5t-331 -123.5zM526 143q108 0 183 76t75 186.5t-71.5 182t-182.5 71.5 t-185.5 -73.5t-74.5 -181.5t74 -184.5t182 -76.5z" glyph-name="six.oldstyle.pnum" horiz-adv-x="1056"/><glyph d="M76 817v166h842l20 -31l-569 -1220h-224l529 1085h-598z" glyph-name="seven.oldstyle.pnum" horiz-adv-x="989"/><glyph d="M533 -29q-208 0 -334.5 113t-126.5 287q0 123 74.5 214t162.5 109q-145 92 -145 260q0 137 105.5 228.5t263 91.5t263 -91t105.5 -229q0 -172 -137 -258q84 -18 156.5 -110t72.5 -215q0 -174 -126 -287t-334 -113zM536 143q105 0 178.5 68t73.5 167t-77 164.5t-179 65.5 t-177.5 -64.5t-75.5 -164.5t76 -168t181 -68zM534.5 762q75.5 0 129 49t53.5 123t-56.5 123t-130.5 49t-127 -49t-53 -123t54.5 -123t130 -49z" glyph-name="eight.oldstyle.pnum" horiz-adv-x="1064"/><glyph d="M527 1010q200 0 332 -134.5t132 -327.5t-51 -340t-132 -237t-230 -176t-369 -86l-35 158q5 5 9.5 12.5t6.5 9.5q199 4 345.5 98.5t209.5 282.5q-102 -108 -274 -108t-288.5 113t-116.5 301t130.5 311t330.5 123zM530 838q-108 0 -183 -76t-75 -186.5t72 -182t182 -71.5 t185 73t75 181t-74 185t-182 77z" glyph-name="nine.oldstyle.pnum" horiz-adv-x="1056"/><glyph d="M541 -29q-211 0 -342 147.5t-131 371t132 370t342 146.5t342 -146.5t132 -370t-132 -371t-343 -147.5zM544 143q124 0 194.5 101.5t70.5 245.5t-72.5 244t-198.5 100t-197 -99t-71 -243t75 -246.5t199 -102.5z" glyph-name="zero.oldstyle" horiz-adv-x="1083"/><glyph d="M176 0v164h305v586l-258 -101l-57 166l483 182h37v-833h248v-164h-758z" glyph-name="one.oldstyle" horiz-adv-x="1083"/><glyph d="M528 1004q156 0 278 -92.5t122 -262.5q4 -151 -115 -270t-260 -213h410v-166h-861l-20 55q61 45 225 152.5t288 211.5t124 207t-67.5 153t-148.5 52t-150.5 -48t-108.5 -113l-31 -2l-111 118q51 82 160.5 150t265.5 68z" glyph-name="two.oldstyle" horiz-adv-x="1083"/><glyph d="M133 981h787l14 -29l-344 -458q78 4 159.5 -36t144 -129t62.5 -208q0 -193 -141 -303.5t-350 -110.5t-369 86l45 154h29q6 -2 28.5 -12.5t30 -12.5t29 -10t32.5 -10t48 -11.5t137 -9.5q99 0 186 63.5t87 189.5t-119 202t-299 20l-27 35l315 424h-485v166z" glyph-name="three.oldstyle" horiz-adv-x="1083"/><glyph d="M844 162h155v-162h-155v-268h-203v268h-594l-41 70l760 934l78 -19v-823zM641 162v426l-334 -426h334z" glyph-name="four.oldstyle" horiz-adv-x="1083"/><glyph d="M895 983v-166h-504l-41 -317q59 29 161.5 34t200.5 -30t171 -129t75 -257t-128 -287t-355 -124q-108 0 -156.5 11.5t-75 18.5t-54 19.5t-56 25t-49.5 28.5l51 151l31 2q122 -80 268 -80t232 66.5t86 185.5t-83 190.5t-187 71.5t-182.5 -40.5t-111.5 -73.5l-49 16l88 684 h668z" glyph-name="five.oldstyle" horiz-adv-x="1083"/><glyph d="M546 -29q-200 0 -332 134.5t-132 327.5t51 340t132 237t230 176t369 86l35 -156q-2 -2 -7 -10t-9 -12q-199 -4 -344.5 -99.5t-210.5 -283.5q106 109 276 109t287 -113t117 -301t-131 -311.5t-331 -123.5zM544 143q108 0 182.5 76t74.5 186.5t-72.5 182t-182.5 71.5 t-184.5 -73.5t-74.5 -181.5t74.5 -184.5t182.5 -76.5z" glyph-name="six.oldstyle" horiz-adv-x="1083"/><glyph d="M111 817v166h872l21 -31l-594 -1220h-224l547 1085h-622z" glyph-name="seven.oldstyle" horiz-adv-x="1083"/><glyph d="M542 -29q-208 0 -335 113t-127 287q0 123 74.5 214t162.5 109q-145 92 -145 260q0 137 105.5 228.5t263 91.5t263 -91t105.5 -229q0 -172 -137 -258q84 -18 156.5 -110t72.5 -215q0 -174 -125.5 -287t-333.5 -113zM544 143q105 0 179 68t74 167t-78 164.5t-179 65.5 t-177 -64.5t-76 -164.5t76 -168t181 -68zM542.5 762q75.5 0 129 49t53.5 123t-56.5 123t-130.5 49t-127 -49t-53 -123t54.5 -123t130 -49z" glyph-name="eight.oldstyle" horiz-adv-x="1083"/><glyph d="M538 1010q200 0 331.5 -134.5t131.5 -327.5t-51 -340t-132 -237t-230 -176t-369 -86l-35 158q8 8 11.5 14t5.5 8q199 4 345 98.5t210 282.5q-102 -108 -274 -108t-289 113t-117 301t131 311t331 123zM540 838q-108 0 -182.5 -76t-74.5 -186.5t71.5 -182t182.5 -71.5 t185.5 73t74.5 181t-74.5 185t-182.5 77z" glyph-name="nine.oldstyle" horiz-adv-x="1083"/><glyph d="M377 664q-137 0 -229.5 105t-92.5 269t92.5 269.5t229.5 105.5t229 -105.5t92 -269.5t-92 -269t-229 -105zM378 786q77 0 124 74t47 179t-47 178t-125 73t-126 -69.5t-48 -180.5t49 -182.5t126 -71.5z" glyph-name="zero.numr" horiz-adv-x="755"/><glyph d="M223 684v541l-106 -47l-45 104l262 131h28v-729h-139z" glyph-name="one.numr" horiz-adv-x="522"/><glyph d="M582 1153q0 -61 -43 -133t-85 -115t-72 -69t-34 -31h262v-121h-561l-14 29q320 262 359.5 330.5t39.5 120.5t-38 84t-87 32t-91 -23.5t-64 -56.5h-19l-72 84q37 57 110 93t167 34t168 -66.5t74 -191.5z" glyph-name="two.numr" horiz-adv-x="686"/><glyph d="M90 1395h498l12 -29l-178 -244q63 -2 127.5 -62.5t64.5 -155.5t-84 -167.5t-223 -72.5t-256 81l49 101h23q23 -23 77 -41.5t110 -18.5t106.5 35t50.5 97t-64.5 100.5t-171.5 11.5l-22 25l172 223h-291v117z" glyph-name="three.numr" horiz-adv-x="690"/><glyph d="M670 905v-112h-92v-109h-140v109h-379l-34 47l497 577l53 -20l3 -492h92zM438 905v236l-194 -236h194z" glyph-name="four.numr" horiz-adv-x="741"/><glyph d="M561 1395v-117h-313l-15 -152q83 35 167 22t146 -69.5t64 -170.5t-87 -179t-190 -65t-176 27.5t-106 58.5l45 96l21 -2q25 -20 83 -39t111 -19t104.5 33t51.5 97t-51 99.5t-125 35.5t-154 -62l-45 23l39 383h430z" glyph-name="five.numr" horiz-adv-x="688"/><glyph d="M351 664q-114 0 -199.5 75.5t-85.5 221.5q0 203 136 325.5t339 122.5l24 -102l-12 -19q-113 0 -207 -57t-113 -164q23 29 88.5 46t120.5 7q78 -10 132.5 -68.5t54.5 -157.5t-82 -164.5t-196 -65.5zM351 780q54 0 96 36t42 89t-43 88t-95 35t-94 -37t-42 -88t41 -87 t95 -36z" glyph-name="six.numr" horiz-adv-x="684"/><glyph d="M61 1278v117h535l18 -31l-299 -680h-168l275 594h-361z" glyph-name="seven.numr" horiz-adv-x="645"/><glyph d="M178 1071q-78 43 -78 160q0 62 65.5 122t181.5 60t180.5 -60.5t64.5 -121.5q0 -116 -76 -160q53 -16 90 -66.5t37 -113.5q0 -98 -78 -161.5t-217 -63.5t-218 63.5t-79 161.5q0 63 37 113.5t90 66.5zM496 903q0 47 -39 81t-111 34t-110.5 -34t-38.5 -81t41 -82 t110.5 -32.5t108.5 35t39 79.5zM348 1112q55 0 82 27.5t27 62.5t-27 61.5t-82 26.5t-82.5 -26.5t-27.5 -61.5t27.5 -62.5t82.5 -27.5z" glyph-name="eight.numr" horiz-adv-x="694"/><glyph d="M333 1413q114 0 199.5 -75.5t85.5 -223.5q0 -203 -136 -322.5t-339 -119.5l-24 100l12 19q113 0 207 56t113 161q-23 -29 -84 -45.5t-127 -7.5t-125.5 67t-59.5 158t82 166.5t196 66.5zM333 1296q-54 0 -96 -36.5t-42 -90t43 -87t95 -33.5t94 36.5t42 88t-41 87t-95 35.5 z" glyph-name="nine.numr" horiz-adv-x="684"/><glyph d="M377 -20q-137 0 -229.5 105t-92.5 269t92.5 269.5t229.5 105.5t229 -105.5t92 -269.5t-92 -269t-229 -105zM378 102q77 0 124 74t47 179t-47 178t-125 73t-126 -69.5t-48 -180.5t49 -182.5t126 -71.5z" glyph-name="zero.dnom" horiz-adv-x="755"/><glyph d="M223 0v541l-106 -47l-45 104l262 131h28v-729h-139z" glyph-name="one.dnom" horiz-adv-x="522"/><glyph d="M582 469q0 -61 -43 -133t-85 -115t-72 -69t-34 -31h262v-121h-561l-14 29q320 262 359.5 330.5t39.5 120.5t-38 84t-87 32t-91 -23.5t-64 -56.5h-19l-72 84q37 57 110 93t167 34t168 -66.5t74 -191.5z" glyph-name="two.dnom" horiz-adv-x="686"/><glyph d="M90 711h498l12 -29l-178 -244q63 -2 127.5 -62.5t64.5 -155.5t-84 -167.5t-223 -72.5t-256 81l49 101h23q23 -23 77 -41.5t110 -18.5t106.5 35t50.5 97t-64.5 100.5t-171.5 11.5l-22 25l172 223h-291v117z" glyph-name="three.dnom" horiz-adv-x="690"/><glyph d="M670 221v-112h-92v-109h-140v109h-379l-34 47l497 577l53 -20l3 -492h92zM438 221v236l-194 -236h194z" glyph-name="four.dnom" horiz-adv-x="741"/><glyph d="M561 711v-117h-313l-15 -152q83 35 167 22t146 -69.5t64 -170.5t-87 -179t-190 -65t-176 27.5t-106 58.5l45 96l21 -2q25 -20 83 -39t111 -19t104.5 33t51.5 96t-51 99.5t-125 36.5t-154 -62l-45 23l39 383h430z" glyph-name="five.dnom" horiz-adv-x="688"/><glyph d="M351 -20q-114 0 -199.5 75.5t-85.5 220.5q0 203 136 326t339 123l24 -102l-12 -19q-113 0 -207 -57.5t-113 -163.5q23 29 88.5 46t120.5 7q78 -10 132.5 -68.5t54.5 -157.5t-82 -164.5t-196 -65.5zM351 96q54 0 96 36t42 89t-43 88t-95 35t-94 -37t-42 -88t41 -87t95 -36 z" glyph-name="six.dnom" horiz-adv-x="684"/><glyph d="M61 594v117h535l18 -31l-299 -680h-168l275 594h-361z" glyph-name="seven.dnom" horiz-adv-x="645"/><glyph d="M178 387q-78 43 -78 160q0 62 65.5 122t181.5 60t180.5 -60.5t64.5 -121.5q0 -116 -76 -160q53 -16 90 -66.5t37 -113.5q0 -98 -78 -161.5t-217 -63.5t-218 63.5t-79 161.5q0 63 37 113.5t90 66.5zM496 219q0 47 -39 81t-111 34t-110.5 -34t-38.5 -81t41 -82t110.5 -33 t108.5 35t39 80zM348 428q55 0 82 27.5t27 62.5t-27 61.5t-82 26.5t-82.5 -26.5t-27.5 -61.5t27.5 -62.5t82.5 -27.5z" glyph-name="eight.dnom" horiz-adv-x="694"/><glyph d="M333 729q114 0 199.5 -75.5t85.5 -223.5q0 -203 -136 -322.5t-339 -119.5l-24 100l12 18q113 0 207 56.5t113 161.5q-23 -29 -84 -45.5t-127 -7.5t-125.5 67.5t-59.5 157.5t82 166t196 67zM333 612q-54 0 -96 -36.5t-42 -90t43 -87t95 -33.5t94 36.5t42 88t-41 87 t-95 35.5z" glyph-name="nine.dnom" horiz-adv-x="684"/><glyph d="M657 1464q258 0 419 -215t161 -528t-161 -531.5t-418 -218.5t-419.5 218.5t-162.5 531.5t161.5 528t419.5 215zM657.5 164q157.5 0 253 154.5t95.5 403.5t-95.5 402.5t-253 153.5t-254 -153.5t-96.5 -402.5t96.5 -403.5t254 -154.5z" glyph-name="zero.case" horiz-adv-x="1314"/><glyph d="M322 0v1153l-146 -74l-80 166l402 213h34v-1458h-210z" glyph-name="one.case" horiz-adv-x="747"/><glyph d="M530 1464q195 0 332 -129t137 -352q2 -166 -112.5 -334t-407.5 -469h549v-180h-962l-15 29l249 249q250 250 302.5 323t112 168.5t59.5 224.5q0 128 -75.5 203t-192.5 77q-80 2 -151.5 -39t-112.5 -88h-29l-113 119q63 82 174 140t256 58z" glyph-name="two.case" horiz-adv-x="1150"/><glyph d="M135 1438h862l15 -29l-381 -553q92 -2 182 -47t155.5 -142.5t65.5 -224.5q0 -211 -145 -341t-393 -130t-420 105l69 160l29 2q38 -19 59 -27t71.5 -28.5t179.5 -20.5q128 0 227.5 76t99.5 218t-121 226t-323 43l-27 37l342 491h-547v185z" glyph-name="three.case" horiz-adv-x="1134"/><glyph d="M967 399h196v-182h-196v-217h-215v217h-709l-29 62l877 1179l76 -35v-1024zM752 399v572l-392 -572h392z" glyph-name="four.case" horiz-adv-x="1251"/><glyph d="M967 1438v-183h-553l-41 -381q59 29 157.5 34t188.5 -19q137 -41 223 -158t88 -293t-137 -321.5t-409 -145.5t-412 109l73 164l29 2q104 -82 272 -82t264.5 82t96.5 216t-91 216t-236 82t-281 -111l-49 15l81 774h736z" glyph-name="five.case" horiz-adv-x="1128"/><glyph d="M588 -29q-221 0 -360.5 147.5t-140.5 361.5t54.5 375t141.5 266.5t244.5 213t387.5 129.5l48 -161l-21 -25q-186 -18 -361 -155.5t-229 -360.5q98 131 294 131t320 -130t124 -328t-140.5 -331t-361.5 -133zM595 156q114 0 192.5 79.5t78.5 197.5t-79.5 203t-192.5 85 t-196 -86t-83 -202t83 -196.5t197 -80.5z" glyph-name="six.case" horiz-adv-x="1177"/><glyph d="M92 1255v183h928l16 -31l-575 -1407h-250l537 1255h-656z" glyph-name="seven.case" horiz-adv-x="1083"/><glyph d="M596 -29q-231 0 -372.5 133.5t-141.5 331.5q0 139 74.5 244.5t173.5 134.5q-145 96 -146 281q0 154 116 262t297 108t297 -108.5t116 -261.5q0 -96 -43 -168t-105 -111q100 -27 175 -134.5t75 -246.5q0 -199 -142.5 -332t-373.5 -133zM599 164q120 0 204 79t84 197 t-86 196.5t-208 78.5t-204 -79t-82 -196t86 -196.5t206 -79.5zM598 877q92 0 150.5 59t58.5 140t-61.5 141.5t-152.5 60.5t-148.5 -60.5t-57.5 -141.5t59.5 -140t151.5 -59z" glyph-name="eight.case" horiz-adv-x="1193"/><glyph d="M588 1464q221 0 359.5 -147.5t140.5 -361.5t-53.5 -374.5t-141.5 -266t-242.5 -212.5t-390.5 -131l-47 162l20 25q265 27 410 195.5t180 320.5q-45 -63 -126 -97t-169 -34q-195 0 -318.5 129.5t-123.5 327.5t140.5 331t361.5 133zM582 1280q-115 0 -194 -80t-79 -198 t80 -202.5t192.5 -84.5t195.5 86t83 202t-81.5 196.5t-196.5 80.5z" glyph-name="nine.case" horiz-adv-x="1177"/><glyph d="M613 1464q255 0 402.5 -213t147.5 -530.5t-147.5 -533.5t-401.5 -216t-402.5 216t-148.5 533.5t147.5 530.5t402.5 213zM614.5 164q153.5 0 234.5 150.5t81 406.5t-81 406.5t-234.5 150.5t-236.5 -150.5t-83 -405.5t83 -406.5t236.5 -151.5z" glyph-name="zero.oldstyle.lnum.case" horiz-adv-x="1226"/><glyph d="M197 180h360v989l-317 -141q-49 115 -76 170l569 260h35v-1278h319v-180h-890v180z" glyph-name="one.oldstyle.lnum.case" horiz-adv-x="1226"/><glyph d="M549 1464q193 0 333 -127t140 -344q2 -172 -116 -357t-396 -456h553v-180h-983l-14 29q47 45 146 139t141 135t120 120t158 177.5t123 196.5t43 184q0 139 -79 215t-194 78q-80 2 -153.5 -39t-114.5 -88h-29l-114 117q66 80 178 140t258 60z" glyph-name="two.oldstyle.lnum.case" horiz-adv-x="1226"/><glyph d="M172 1438h862l15 -29l-381 -553q150 0 275.5 -110t125.5 -310t-140.5 -332.5t-394.5 -132.5t-421 105l67 160l29 2q61 -29 119 -52.5t193 -23.5q134 0 230.5 78t96.5 218t-121 224t-324 43l-26 37l340 491h-545v185z" glyph-name="three.oldstyle.lnum.case" horiz-adv-x="1226"/><glyph d="M946 399h199v-182h-199v-217h-215v217h-672l-39 72l852 1169l74 -24v-1035zM731 399v572l-385 -572h385z" glyph-name="four.oldstyle.lnum.case" horiz-adv-x="1226"/><glyph d="M1018 1438v-183h-553l-41 -381q61 29 248 38.5t297 -141.5t112 -329t-136.5 -324.5t-408.5 -146.5t-413 109l74 164l28 2q111 -82 276 -82t261 82t96 216t-91 216t-235 82t-282 -111l-49 15l82 774h735z" glyph-name="five.oldstyle.lnum.case" horiz-adv-x="1226"/><glyph d="M612.5 -29q-221.5 0 -360.5 147.5t-140 361.5t54 375t141 267.5t244 214t391 129.5l45 -137l-12 -51q-195 -18 -370 -155.5t-228 -360.5q98 131 294 131t319.5 -130t123.5 -328t-140 -331t-361.5 -133zM619 156q114 0 193 79.5t79 197.5t-80 203t-192.5 85t-195.5 -86 t-83 -202t82.5 -196.5t196.5 -80.5z" glyph-name="six.oldstyle.lnum.case" horiz-adv-x="1226"/><glyph d="M131 1253v185h989l19 -31l-602 -1407h-252l561 1253h-715z" glyph-name="seven.oldstyle.lnum.case" horiz-adv-x="1226"/><glyph d="M612 -29q-231 0 -372.5 133.5t-141.5 331.5q0 139 75 244.5t173 134.5q-145 96 -145 281q0 154 115.5 262t296.5 108t297 -108.5t116 -261.5q0 -96 -43 -168t-104 -111q100 -27 174.5 -134.5t74.5 -246.5q0 -199 -142.5 -332t-373.5 -133zM615 164q120 0 204 79t84 197 t-86 196.5t-208 78.5t-203.5 -79t-81.5 -196t85.5 -196.5t205.5 -79.5zM614.5 877q92.5 0 150.5 59t58 140t-61.5 141.5t-152.5 60.5t-148.5 -60.5t-57.5 -141.5t59.5 -140t152 -59z" glyph-name="eight.oldstyle.lnum.case" horiz-adv-x="1226"/><glyph d="M611 1466q220 0 360.5 -147.5t141.5 -361.5t-54 -374.5t-141.5 -267t-242.5 -213.5t-390 -131l-45 138l12 51q195 18 370 154.5t226 361.5q-45 -63 -125 -97t-168 -34q-195 0 -319.5 128.5t-124.5 326.5t140 332t360 134zM606 1280q-115 0 -193.5 -80t-78.5 -198 t80 -201.5t194 -83.5t195.5 85t81.5 201t-82 196.5t-197 80.5z" glyph-name="nine.oldstyle.lnum.case" horiz-adv-x="1226"/><glyph d="M113 126.5q0 63.5 43 108t105 44.5t106.5 -44.5t44.5 -108t-44 -105t-106 -41.5t-105.5 41.5t-43.5 105zM113 1003.5q0 63.5 43 107.5t105 44t106.5 -44t44.5 -107.5t-44 -105.5t-106 -42t-105.5 42t-43.5 105.5z" glyph-name="colon.case" horiz-adv-x="524"/><glyph d="M76 -313l74 581h253l3 -30l-256 -570zM119 1003.5q0 63.5 43 107.5t105 44t106.5 -44t44.5 -107.5t-44 -105.5t-106 -42t-105.5 42t-43.5 105.5z" glyph-name="semicolon.case" horiz-adv-x="532"/><glyph d="M625 633l-543 -80v188l543 80v-188z" glyph-name="hyphen.case" horiz-adv-x="706"/><glyph d="M897 625h-815v178h815v-178z" glyph-name="endash.case" horiz-adv-x="978"/><glyph d="M1466 625h-1384v178h1384v-178z" glyph-name="emdash.case" horiz-adv-x="1548"/><glyph d="M143 728q0 89 60.5 152.5t149.5 63.5t152.5 -63.5t63.5 -152.5t-63.5 -149.5t-152.5 -60.5t-149.5 60.5t-60.5 149.5z" glyph-name="bullet.case" horiz-adv-x="712"/><glyph d="M281 420l-99 1018h301l-96 -1018h-106zM182 124.5q0 65.5 43 110t108 44.5t108.5 -45.5t43.5 -109.5t-44 -106.5t-108 -42.5t-107.5 42t-43.5 107.5z" glyph-name="exclam.case" horiz-adv-x="667"/><glyph d="M182 0l99 1018h106l96 -1018h-301zM182 1312.5q0 65.5 43 107.5t108 42t108.5 -42t43.5 -106t-44 -109.5t-108 -45.5t-107.5 44t-43.5 109.5z" glyph-name="exclamdown.case" horiz-adv-x="667"/><glyph d="M582 1096q0 68 -48.5 119t-113.5 51t-113.5 -26t-64 -42t-47.5 -51l-134 129q45 68 138 126t241 58t259.5 -100t111.5 -251t-82 -248t-163 -196t-77 -245h-163q-31 172 37.5 274.5t111.5 157.5t75 115.5t32 128.5zM258 124q0 64 44 109.5t106 45.5t107.5 -45.5 t45.5 -109.5t-44 -106.5t-108 -42.5t-107.5 42.5t-43.5 106.5z" glyph-name="question.case" horiz-adv-x="892"/><glyph d="M315 339q0 -69 48.5 -119t113.5 -50t113.5 25.5t64 42t47.5 51.5l134 -129q-45 -68 -137.5 -126.5t-240.5 -58.5t-260 100.5t-112 251.5t82 248t163 195t77 246h163q31 -172 -37.5 -274.5t-111.5 -158t-75 -115.5t-32 -129zM639 1312q0 -64 -44.5 -109.5t-106.5 -45.5 t-107 44t-45 109.5t44 107.5t108 42t107.5 -42t43.5 -106z" glyph-name="questiondown.case" horiz-adv-x="892"/><glyph d="M649 1282q-66 0 -104.5 -40t-41.5 -92t8 -88t22.5 -56.5t44.5 -73.5l370 -522l215 204l119 -143l-219 -213l186 -258h-258l-90 125l-67 -55q-70 -61 -191 -85t-250 9t-200 123q-113 145 -85.5 328.5t173.5 291.5l120 99l-45 71q-2 2 -15 29t-15 33t-14.5 37.5t-11.5 44 t-6 51.5t1 59q14 137 115.5 220t231.5 83t221 -70.5t128 -185.5l-172 -63q-12 49 -58 93t-112 44zM304 416q-9 -102 52 -178t175 -77t200 72l53 41l-288 406l-107 -94q-76 -68 -85 -170z" glyph-name="ampersand.case" horiz-adv-x="1372"/><glyph d="M61 330v198h230q66 262 96 394h-199v198h242l74 316h178l-72 -316h236l74 316h178l-72 -316h191v-198h-232l-94 -394h199v-198h-242l-74 -330h-186q57 252 76 330h-230l-76 -330h-186l76 330h-187zM569 922l-94 -394h232l96 394h-234z" glyph-name="numbersign.case" horiz-adv-x="1277"/><glyph d="M473 276l-412 439v33l416 452l135 -104l-323 -361l323 -350z" glyph-name="guilsinglleft.case" horiz-adv-x="704"/><glyph d="M231 1141l412 -439v-32l-416 -453l-135 105l324 360l-324 350z" glyph-name="guilsinglright.case" horiz-adv-x="704"/><glyph d="M473 276l-412 439v33l416 452l135 -104l-323 -361l323 -350zM913 276l-411 439v33l416 452l135 -104l-324 -361l324 -350z" glyph-name="guillemotleft.case" horiz-adv-x="1144"/><glyph d="M231 1141l412 -439v-32l-416 -453l-135 105l324 360l-324 350zM672 1141l411 -439v-32l-415 -453l-136 105l324 360l-324 350z" glyph-name="guillemotright.case" horiz-adv-x="1144"/><glyph d="M143 728q0 267 127 502.5t348 389.5l109 -125q-356 -328 -356 -766q0 -252 103 -458t253 -343l-109 -123q-221 162 -348 409t-127 514z" glyph-name="parenleft.case" horiz-adv-x="851"/><glyph d="M481 729q0 438 -356 766l108 125q221 -154 348.5 -389.5t127.5 -502.5t-127.5 -514t-348.5 -409l-108 123q150 137 253 343t103 458z" glyph-name="parenright.case" horiz-adv-x="851"/><glyph d="M391 27h291v-172h-508v1706h508v-175l-291 -2v-1357z" glyph-name="bracketleft.case" horiz-adv-x="774"/><glyph d="M383 1389h-291v172h508v-1706h-508v174l291 2v1358z" glyph-name="bracketright.case" horiz-adv-x="774"/><glyph d="M537 1167v-174q0 -111 -46.5 -184.5t-117.5 -101.5q80 -33 122 -97.5t42 -201.5v-193q0 -135 60.5 -160.5t108.5 -25.5t70 4l31 -178q-70 -14 -133 -15q-188 0 -270 110.5t-82 287.5v149q0 173 -62.5 205.5t-126.5 32.5h-51v163h49q128 0 158 71.5t30 166.5v150 q0 176 82 286.5t269 110.5q66 0 135 -14l-31 -177q-41 4 -55 4q-78 0 -121 -37.5t-52 -80t-9 -101.5z" glyph-name="braceleft.case" horiz-adv-x="909"/><glyph d="M393 246v174q0 111 46 184.5t118 102.5q-80 33 -122 97t-42 202v192q0 136 -61.5 161t-108.5 25t-69 -4l-31 179q70 14 133 14q188 0 270 -110.5t82 -286.5v-150q0 -174 62.5 -206t126.5 -32h51v-163h-49q-129 0 -159 -73t-30 -165v-149q0 -176 -82 -287t-268 -111 q-66 0 -135 15l31 176q41 -4 55 -4q78 0 121 37.5t52 80t9 101.5z" glyph-name="braceright.case" horiz-adv-x="909"/><glyph d="M412 1716h176v-260q131 -2 264 -84l-78 -180q-51 29 -99 52.5t-142 23.5t-149.5 -51.5t-55.5 -131.5t65 -136t168 -120q354 -193 344 -479q-4 -150 -90 -248t-223 -125v-253h-176v247q-203 18 -342 135l96 162q154 -106 293 -106q100 0 164.5 56t64.5 140t-58.5 143.5 t-201.5 147.5q-96 63 -157.5 115.5t-111.5 142.5t-50 202t77.5 218.5t221.5 126.5v262z" glyph-name="dollar.case" horiz-adv-x="999"/><glyph d="M764 477h-201q35 -137 -41 -248q92 -76 217 -75q78 0 143.5 33.5t98.5 80.5l125 -125q-109 -172 -371 -172q-203 0 -317 103q-41 -37 -96.5 -55.5t-94.5 -19.5t-86 0t-55 1l-14 168q174 -8 246.5 92t27.5 217h-199v178h152q-12 27 -55 101.5t-64.5 141.5t-21.5 155 q0 174 118.5 292.5t301.5 118.5q133 0 242.5 -60.5t154.5 -180.5l-162 -76q-35 55 -95 92t-138 37t-143.5 -66t-65.5 -158t22.5 -153t64.5 -132t60 -112h246v-178z" glyph-name="sterling.case" horiz-adv-x="1136"/><glyph d="M973 1276q-162 0 -294 -91t-192 -241h643v-4l-14 -133h-672q-6 -43 -6 -87t6 -87h646v-4l-15 -131h-586q57 -150 189.5 -243t302.5 -93q236 -1 416 149l123 -139q-217 -201 -557 -201q-264 0 -461 145.5t-264 381.5h-238v2l14 133h195q-4 53 -4 92t6 82h-170v2l14 135 h181q70 240 269.5 381t457.5 141q317 0 546 -204q-49 -62 -131 -150q-176 164 -405 164z" glyph-name="Euro.case" horiz-adv-x="1591"/><glyph d="M1092 688h-351v-147h351v-166h-351v-375h-217v375h-352v166h352v147h-352v168h244l-375 582h256l342 -525l344 525h246l-381 -582h244v-168z" glyph-name="yen.case" horiz-adv-x="1269"/><glyph d="M1152 -20q-130 0 -224 87t-94 228t95 227t225 86t222 -86t92 -227t-93 -228t-223 -87zM1156 117q69 0 105.5 51t36.5 127t-36.5 127t-105.5 51t-108.5 -51t-39.5 -126t39.5 -127t108.5 -52zM384 836q-130 0 -224 87t-94 228t95 227t225 86t223 -86t93 -227t-94 -228 t-224 -87zM389.5 973q67.5 0 104 51t36.5 127t-36.5 127t-104.5 51t-108.5 -52t-40.5 -126t41 -126t108.5 -52zM145 68l1104 1402l131 -102l-1106 -1403z" glyph-name="percent.case" horiz-adv-x="1536"/><glyph d="M0 -143l711 1775l163 -71l-710 -1774z" glyph-name="slash.case" horiz-adv-x="872"/><glyph d="M297 1172q0 -50 39 -89t104 -59q356 -86 357 -328q0 -70 -38 -129t-102 -92q59 -33 91 -95.5t32 -129.5q0 -139 -103.5 -212t-262.5 -73q-104 0 -198.5 31t-139.5 65l65 168q37 -25 120 -56.5t152.5 -31.5t119 31t49.5 88q0 92 -172 146q-334 84 -334 309q0 72 38 137.5 t107 93.5q-55 37 -89 100.5t-34 124.5q0 139 98 217t254 78t293 -77l-67 -162q-113 68 -240 67q-61 0 -100 -36t-39 -86zM283 732q0 -56 41 -94t106 -56q63 -8 111.5 24.5t48.5 95.5q0 96 -162 144q-57 2 -101 -28t-44 -86z" glyph-name="section.case" horiz-adv-x="868"/><glyph d="M113 768q0 63 43 107.5t105 44.5t106.5 -44.5t44.5 -107.5t-44 -105t-106 -42t-105.5 42t-43.5 105z" glyph-name="periodcentered.case" horiz-adv-x="524"/><glyph d="M1725 690q-163 0 -277.5 107.5t-114.5 278.5t115 276.5t279 105.5t278.5 -105.5t114.5 -276.5t-116 -278.5t-279 -107.5zM1726.5 856q81.5 0 135 61.5t53.5 158.5t-53.5 157.5t-136.5 60.5t-136 -61.5t-53 -157.5t54.5 -157.5t136 -61.5zM991 1438h207v-1438h-207v618 l-620 447v-1065h-207v1446l24 16l803 -585v561zM1575 294q0 64 43 108t106.5 44t108.5 -44t45 -108t-44 -107.5t-108 -43.5t-107.5 43.5t-43.5 107.5z" glyph-name="afii61352.case" horiz-adv-x="2166"/><glyph d="M215 0h-215l500 997h30l506 -997h-229l-80 160h-434zM508 627l-154 -322h310z" glyph-name="A.c2sc" horiz-adv-x="1036"/><glyph d="M799 716q0 -110 -90 -181q63 -14 119.5 -82t56.5 -166q0 -197 -183 -263.5t-589 -23.5v977q247 46 403 12.5t219.5 -98.5t63.5 -175zM313 580h183q43 4 73.5 36.5t30.5 79.5q0 88 -85 120t-202 9v-245zM313 434v-274q78 -8 160 -10.5t145.5 34.5t63.5 111q0 119 -137 139 h-232z" glyph-name="B.c2sc" horiz-adv-x="929"/><glyph d="M604 145q143 0 260 97l107 -125q-135 -143 -375 -143t-390.5 149t-150.5 369t148.5 369t372.5 149t382 -158l-116 -137q-109 123 -246 123t-234.5 -98t-97.5 -248t98.5 -248.5t241.5 -98.5z" glyph-name="C.c2sc" horiz-adv-x="1024"/><glyph d="M773 96q-190 -157 -660 -92v975q465 64 657.5 -89t192.5 -395t-190 -399zM756 488q0 180 -125 269t-318 60v-655q190 -23 316.5 61.5t126.5 264.5z" glyph-name="D.c2sc" horiz-adv-x="1017"/><glyph d="M801 166v-166h-688v983h663v-166h-461v-227h353v-166h-353v-258h486z" glyph-name="E.c2sc" horiz-adv-x="866"/><glyph d="M315 0h-202v983h657v-166h-455v-227h349v-166h-349v-424z" glyph-name="F.c2sc" horiz-adv-x="837"/><glyph d="M657 367v153h336v-387q-139 -160 -387 -160t-401.5 147.5t-153.5 369.5t147.5 371t374.5 149t381 -158l-118 -133q-106 123 -244 123t-237 -98t-99 -250t102.5 -253.5t240.5 -101.5t218 80v148h-160z" glyph-name="G.c2sc" horiz-adv-x="1075"/><glyph d="M950 0h-202v424h-433v-424h-202v983h202v-393h433v393h202v-983z" glyph-name="H.c2sc" horiz-adv-x="1062"/><glyph d="M113 0v983h202v-983h-202z" glyph-name="I.c2sc" horiz-adv-x="428"/><glyph d="M365 414v569h204v-580q0 -221 -117.5 -328.5t-375.5 -86.5l6 170q145 -8 214 53.5t69 202.5z" glyph-name="J.c2sc" horiz-adv-x="702"/><glyph d="M313 983v-416l387 414h244l-432 -471l471 -510h-268l-402 430v-430h-200v983h200z" glyph-name="K.c2sc" horiz-adv-x="1009"/><glyph d="M750 166v-166h-637v983h202v-817h435z" glyph-name="L.c2sc" horiz-adv-x="784"/><glyph d="M313 0h-200v987l39 12l444 -436l444 436l39 -12v-987h-200v598l-269 -272h-28l-269 272v-598z" glyph-name="M.c2sc" horiz-adv-x="1191"/><glyph d="M948 0h-196v371l-445 282v-653h-194v983q23 8 34 16l605 -393v377h196v-983z" glyph-name="N.c2sc" horiz-adv-x="1060"/><glyph d="M574 -27q-222 0 -370.5 149.5t-148.5 369.5t149.5 369t371.5 149t371 -148.5t149 -368.5t-150 -370t-372 -150zM579 145q136 0 223 103.5t87 245t-89.5 243t-227.5 101.5t-225 -101.5t-87 -241.5t91.5 -245t227.5 -105z" glyph-name="O.c2sc" horiz-adv-x="1153"/><glyph d="M834 626q0 -132 -110 -264t-407 -114v-248h-202l-2 973q269 65 434.5 7t226 -140t60.5 -214zM629 630q0 120 -99.5 165t-212.5 22v-395q121 -12 216.5 38t95.5 170z" glyph-name="P.c2sc" horiz-adv-x="874"/><glyph d="M573 -27q-221 0 -369.5 149.5t-148.5 369.5t149.5 369t371.5 149t371 -148.5t149 -374.5t-166 -372l98 -113l-123 -113l-110 129q-107 -45 -222 -45zM578 145q49 0 88 17l-111 127l123 112l115 -133q96 86 96 226t-89.5 242t-227.5 102t-225 -101.5t-87 -241.5t91.5 -245 t226.5 -105z" glyph-name="Q.c2sc" horiz-adv-x="1153"/><glyph d="M829 645q0 -195 -178 -309l303 -336h-249l-244 276q-66 -12 -144 -2v-274h-202l-2 973q192 43 388 10.5t262 -135.5t66 -203zM623 636q0 112 -90.5 155.5t-215.5 25.5v-381q119 -16 212.5 36t93.5 164z" glyph-name="R.c2sc" horiz-adv-x="954"/><glyph d="M262 719q0 -76 170 -123q361 -86 361 -342q0 -131 -106.5 -206t-266.5 -75q-102 0 -204.5 26t-149.5 54l65 166q43 -25 128 -49.5t157 -24.5t131 32t59 83t-47 79t-145 56q-340 90 -340 320q0 133 102.5 214t257.5 81t311 -66l-51 -162q-125 57 -272 58q-63 0 -111.5 -32 t-48.5 -89z" glyph-name="S.c2sc" horiz-adv-x="860"/><glyph d="M780 817h-272v-817h-203v817h-270v164h745v-164z" glyph-name="T.c2sc" horiz-adv-x="815"/><glyph d="M534 -27q-205 0 -313 124t-108 311v575h202v-580q0 -115 62.5 -185.5t158.5 -70.5t164 72t68 184v580h207v-580q0 -182 -118 -306t-323 -124z" glyph-name="U.c2sc" horiz-adv-x="1087"/><glyph d="M840 983h207l-502 -999h-31l-504 999h223l302 -616z" glyph-name="V.c2sc" horiz-adv-x="1056"/><glyph d="M1253 983h201l-407 -999h-31l-287 628l-287 -628h-30l-402 999h228l217 -559l272 575h33l268 -573z" glyph-name="W.c2sc" horiz-adv-x="1464"/><glyph d="M1044 983l-376 -489l379 -494h-261l-251 322l-242 -322h-250l367 485l-369 498h260l244 -326l252 326h247z" glyph-name="X.c2sc" horiz-adv-x="1087"/><glyph d="M391 0v401l-395 582h242l260 -377l262 377h229l-395 -580v-403h-203z" glyph-name="Y.c2sc" horiz-adv-x="983"/><glyph d="M915 166v-166h-827l-16 37l538 780h-499v166h804l13 -41l-525 -776h512z" glyph-name="Z.c2sc" horiz-adv-x="999"/><glyph d="M229 385l-102 598h301l-102 -598h-97zM131 126.5q0 63.5 43.5 108t105.5 44.5t106 -44.5t44 -108t-44 -105t-106 -41.5t-105.5 41.5t-43.5 105z" glyph-name="exclam.c2sc" horiz-adv-x="557"/><glyph d="M127 0l102 598h97l102 -598h-301zM131 856.5q0 63.5 43.5 105.5t105.5 42t106 -42t44 -105.5t-44 -107.5t-106 -44t-105.5 44t-43.5 107.5z" glyph-name="exclamdown.c2sc" horiz-adv-x="557"/><glyph d="M414 728q0 44 -42 72.5t-109 28.5t-134 -38l-74 153q104 66 255 66t240 -70t89 -186q0 -63 -39 -115.5t-85 -83.5t-86 -76t-42 -94h-139q-16 66 6 118t58 79.5t69 64.5t33 81zM166 126.5q0 63.5 44 108t106 44.5t106.5 -44.5t44.5 -108t-44.5 -105t-106.5 -41.5 t-106 41.5t-44 105z" glyph-name="question.c2sc" horiz-adv-x="694"/><glyph d="M299 255q0 -44 42.5 -72.5t108.5 -28.5t134 39l73 -154q-105 -66 -255 -66t-239 70t-89 186q0 63 39 115.5t85 83.5t86 76t42 94h139q16 -66 -6.5 -118t-58 -79.5t-68.5 -64.5t-33 -81zM547 856.5q0 -63.5 -44.5 -107.5t-106.5 -44t-106 44t-44 107.5t44 105.5t106 42 t106.5 -42t44.5 -105.5z" glyph-name="questiondown.c2sc" horiz-adv-x="694"/><glyph d="M543 842q-84 0 -95 -100q-5 -44 62 -124l225 -264l185 164l110 -129l-184 -160l201 -229h-238l-102 113l-103 -80q-92 -72 -243.5 -57.5t-213.5 104.5q-68 88 -51 214t123 206l105 82l-21 32q-45 68 -40 167t81 164t188 65q193 0 271 -174l-141 -86q-41 92 -119 92z M279.5 281q-9.5 -52 21.5 -97t95.5 -48t107.5 34l90 72l-168 196l-98 -76q-39 -29 -48.5 -81z" glyph-name="ampersand.c2sc" horiz-adv-x="1107"/><glyph d="M31 236v149h200q33 135 52 203h-172v149h211l61 246h172l-61 -246h192l62 246h170q-8 -41 -30 -123t-30 -123h154v-149h-193q-18 -68 -51 -203h166v-149h-205l-59 -236h-170l59 236h-194l-64 -236h-168l60 236h-162zM455 588q-18 -68 -52 -203h195l49 203h-192z" glyph-name="numbersign.oldstyle" horiz-adv-x="1042"/><glyph d="M342 1249h154v-245q131 -12 229 -60l-45 -166q-135 63 -258 64q-59 0 -102.5 -30t-43.5 -85t37 -84t111 -51q352 -88 352 -336q0 -127 -79 -197.5t-201 -87.5v-239h-154v237q-186 16 -270 80l49 172q37 -27 130 -55.5t163 -28.5t122 29t52 84t-45 87t-137 58 q-328 92 -328 318q0 119 75.5 195.5t188.5 92.5v248z" glyph-name="dollar.oldstyle" horiz-adv-x="847"/><glyph d="M690 346h-213q6 -29 6 -73t-18 -70q76 -70 211 -70t231 115l117 -103q-63 -92 -162.5 -133t-184.5 -41t-143.5 12.5t-84 22.5t-65.5 32.5t-44 24.5q-121 -63 -262 -63l-6 166q227 12 227 135q0 20 -6 45h-141v166h88q-4 8 -15.5 28.5t-15.5 33t-14.5 40t-10.5 74.5 q0 137 101.5 229.5t269.5 92.5q113 0 207 -47.5t149 -114.5l-106 -117q-113 117 -248 117q-84 0 -136 -45t-52 -119t17 -104.5t42 -67.5h262v-166z" glyph-name="sterling.oldstyle" horiz-adv-x="1105"/><glyph d="M739 438v-20l-16 -94h-340q39 -84 117 -131.5t170 -47.5q152 0 264 97l106 -125q-133 -143 -395 -144q-174 0 -307 96.5t-184 254.5h-154v20l14 94h113q-2 10 -2 50t2 53h-86v20l14 96h97q49 158 183 255.5t310 97.5q227 0 385 -158l-117 -137q-106 123 -254 123 q-90 0 -166.5 -48.5t-113.5 -132.5h401v-20l-16 -96h-430l-2 -49q0 -20 4 -54h403z" glyph-name="Euro.oldstyle" horiz-adv-x="1093"/><glyph d="M391 0v166h-293v117h293v104h-293v117h224q-37 53 -103.5 150.5t-121 177t-101.5 151.5h242q68 -95 260 -381l262 381h229q-221 -319 -330 -479h228v-117h-293v-104h293v-117h-293v-166h-203z" glyph-name="yen.oldstyle" horiz-adv-x="983"/><glyph d="M960 -25q-101 0 -178 64.5t-77 177.5t77.5 178.5t179.5 65.5t176 -65.5t74 -178.5t-75.5 -177.5t-176.5 -64.5zM962 92q48 0 77.5 36t29.5 90t-28.5 91t-77.5 37t-81 -38t-32 -90t32 -89t80 -37zM158 55l803 965l108 -94l-805 -961zM275 522q-101 0 -178 64.5t-77 177.5 t78 178.5t180 65.5t176 -65.5t74 -178.5t-76 -177.5t-177 -64.5zM278 639q48 0 77.5 36t29.5 90t-28.5 91t-76.5 37t-81 -38t-33 -90t32 -89t80 -37z" glyph-name="percent.oldstyle" horiz-adv-x="1232"/><glyph d="M383 864q-49 0 -87 -20.5t-38 -52.5t15.5 -43t21.5 -14t21.5 -8t24.5 -7t28.5 -7t31.5 -7q283 -53 283 -228q0 -90 -92 -147q88 -49 88 -160q0 -199 -318 -199q-88 0 -169.5 24.5t-124.5 55.5l63 139q113 -68 229 -67q154 0 154 63q0 33 -28.5 48.5t-94.5 31.5 q-150 31 -228.5 78.5t-78.5 151.5t100 143q-35 16 -63.5 58t-28.5 98q0 106 83 160.5t217 54.5t255 -64l-57 -139q-92 57 -207 57zM246 498q0 -33 58 -58.5t145 -33.5q74 20 73 63q0 31 -44 63t-138 32t-94 -66z" glyph-name="section.oldstyle" horiz-adv-x="755"/><glyph d="M815 1368v-31l-229 -241h-152l123 272h258zM215 0h-215l500 997h30l506 -997h-229l-80 160h-434zM508 627l-154 -322h310z" glyph-name="Aacute.c2sc" horiz-adv-x="1036"/><glyph d="M207 1368h258l123 -272h-152l-229 241v31zM215 0h-215l500 997h30l506 -997h-229l-80 160h-434zM508 627l-154 -322h310z" glyph-name="Agrave.c2sc" horiz-adv-x="1036"/><glyph d="M215 0h-215l500 997h30l506 -997h-229l-80 160h-434zM508 627l-154 -322h310zM618 1368q23 -35 168 -272h-145q-121 115 -125 118l-123 -118h-145q145 238 168 272h202z" glyph-name="Acircumflex.c2sc" horiz-adv-x="1036"/><glyph d="M215 0h-215l500 997h30l506 -997h-229l-80 160h-434zM508 627l-154 -322h310zM233 1235q0 49 32 83t81 34t83 -34t34 -83t-34 -81t-83 -32t-81 32t-32 81zM551 1235q0 49 32.5 83t80.5 34t83 -35t35 -83t-33.5 -80t-83 -32t-82 32t-32.5 81z" glyph-name="Adieresis.c2sc" horiz-adv-x="1036"/><glyph d="M394 1341q60 0 131 -26.5t100 -26.5q59 0 86 47l86 -24q2 -92 -46.5 -140.5t-105.5 -48.5t-132 28t-97 28q-61 -1 -84 -50l-86 25q-4 96 42 142t106 46zM215 0h-215l500 997h30l506 -997h-229l-80 160h-434zM508 627l-154 -322h310z" glyph-name="Atilde.c2sc" horiz-adv-x="1036"/><glyph d="M264 1144q0 91 72 162.5t176 71.5t177 -71.5t73 -162.5t-46 -154.5t-120 -88.5l440 -901h-229l-80 160h-434l-78 -160h-215l432 897q-74 25 -121 90.5t-47 156.5zM508 637l-154 -332h310zM389 1132.5q0 -53.5 36 -91t89 -37.5t89 37.5t36 91t-36 91.5t-89 38t-89 -38 t-36 -91.5z" glyph-name="Aring.c2sc" horiz-adv-x="1036"/><glyph d="M215 0h-215l500 997h30l506 -997h-229l-80 160h-434zM508 627l-154 -322h310zM784 1161h-534v148h534v-148z" glyph-name="Amacron.c2sc" horiz-adv-x="1036"/><glyph d="M516 1096q-111 0 -175.5 82t-41.5 190h141q-10 -43 9.5 -93t65.5 -50t64.5 49t8.5 94h141q25 -102 -38.5 -187t-174.5 -85zM215 0h-215l500 997h30l506 -997h-229l-80 160h-434zM508 627l-154 -322h310z" glyph-name="Abreve.c2sc" horiz-adv-x="1036"/><glyph d="M768 -106q0 -62 39 -91.5t81 -29.5t77 10q4 -106 4 -160q-47 -12 -95 -12q-115 0 -195.5 60.5t-80.5 168.5q0 78 56 133.5t128 69.5l-55 117h-434l-78 -160h-215l500 997h30l506 -997h-196q-72 -44 -72 -106zM508 627l-154 -322h310z" glyph-name="Aogonek.c2sc" horiz-adv-x="1036"/><glyph d="M264 1144q0 91 72 162.5t176 71.5q61 0 115 -26l65 141h238v-31l-221 -178q53 -68 53 -150t-46 -145t-120 -88l440 -901h-229l-80 160h-434l-78 -160h-215l432 897q-74 25 -121 90.5t-47 156.5zM508 637l-154 -332h310zM389 1132.5q0 -53.5 36 -91t89 -37.5t89 37.5 t36 91t-36 91.5t-89 38t-89 -38t-36 -91.5z" glyph-name="Aringacute.c2sc" horiz-adv-x="1036"/><glyph d="M1470 166v-166h-692v162h-438l-139 -162h-242l821 983h666v-166h-465v-227h358v-166h-358v-258h489zM778 305v391l-323 -391h323z" glyph-name="AE.c2sc" horiz-adv-x="1538"/><glyph d="M1241 1368v-31l-229 -241h-152l123 272h258zM1470 166v-166h-692v162h-438l-139 -162h-242l821 983h666v-166h-465v-227h358v-166h-358v-258h489zM778 305v391l-323 -391h323z" glyph-name="AEacute.c2sc" horiz-adv-x="1538"/><glyph d="M604 143q74 0 145.5 29t114.5 68l107 -127q-111 -113 -301 -136q59 -63 59 -137q0 -135 -117.5 -193.5t-253.5 -25.5l4 160q72 -20 134.5 8.5t62.5 88.5t-35 95q-203 16 -336 162.5t-133 360.5t148.5 362t374.5 148t380 -158l-118 -133q-104 119 -244 119t-237 -96.5 t-97 -247.5t100.5 -249t241.5 -98z" glyph-name="Ccedilla.c2sc" horiz-adv-x="1028"/><glyph d="M852 1368v-31l-229 -241h-152l123 272h258zM604 145q143 0 260 97l107 -125q-135 -143 -375 -143t-390.5 149t-150.5 369t148.5 369t372.5 149t382 -158l-116 -137q-109 123 -246 123t-234.5 -98t-97.5 -248t98.5 -248.5t241.5 -98.5z" glyph-name="Cacute.c2sc" horiz-adv-x="1024"/><glyph d="M604 145q143 0 260 97l107 -125q-135 -143 -375 -143t-390.5 149t-150.5 369t148.5 369t372.5 149t382 -158l-116 -137q-109 123 -246 123t-234.5 -98t-97.5 -248t98.5 -248.5t241.5 -98.5zM678 1368q23 -35 168 -272h-146q-121 115 -125 118l-122 -118h-146 q145 238 168 272h203z" glyph-name="Ccircumflex.c2sc" horiz-adv-x="1024"/><glyph d="M604 145q143 0 260 97l107 -125q-135 -143 -375 -143t-390.5 149t-150.5 369t148.5 369t372.5 149t382 -158l-116 -137q-109 123 -246 123t-234.5 -98t-97.5 -248t98.5 -248.5t241.5 -98.5zM455 1235q0 49 31.5 83t80.5 34t83 -34t34 -83t-34 -81t-83 -32t-80.5 32 t-31.5 81z" glyph-name="Cdotaccent.c2sc" horiz-adv-x="1024"/><glyph d="M836 1368v-31l-164 -241h-203l-164 241v31h129l135 -125q16 12 138 125h129zM604 145q143 0 260 97l107 -125q-135 -143 -375 -143t-390.5 149t-150.5 369t148.5 369t372.5 149t382 -158l-116 -137q-109 123 -246 123t-234.5 -98t-97.5 -248t98.5 -248.5t241.5 -98.5z " glyph-name="Ccaron.c2sc" horiz-adv-x="1024"/><glyph d="M184 418h-174v178h174v383q125 20 242 20q313 0 465.5 -147t152.5 -353t-103 -317.5t-269.5 -171t-487.5 -6.5v414zM385 596h211v-178h-211v-256q25 -4 76 -4q164 0 270.5 86t106.5 244t-104.5 246.5t-264.5 88.5q-41 0 -84 -6v-221z" glyph-name="Eth.c2sc" horiz-adv-x="1099"/><glyph d="M668 1368v-31l-164 -241h-203l-164 241v31h129l135 -125q16 12 138 125h129zM773 96q-190 -157 -660 -92v975q465 64 657.5 -89t192.5 -395t-190 -399zM756 488q0 180 -125 269t-318 60v-655q190 -23 316.5 61.5t126.5 264.5z" glyph-name="Dcaron.c2sc" horiz-adv-x="1017"/><glyph d="M184 418h-174v178h174v383q125 20 242 20q313 0 465.5 -147t152.5 -353t-103 -317.5t-269.5 -171t-487.5 -6.5v414zM385 596h211v-178h-211v-256q25 -4 76 -4q164 0 270.5 86t106.5 244t-104.5 246.5t-264.5 88.5q-41 0 -84 -6v-221z" glyph-name="Dcroat.c2sc" horiz-adv-x="1099"/><glyph d="M702 1368v-31l-229 -241h-151l122 272h258zM801 166v-166h-688v983h663v-166h-461v-227h353v-166h-353v-258h486z" glyph-name="Eacute.c2sc" horiz-adv-x="872"/><glyph d="M233 1368h259l122 -272h-151l-230 241v31zM801 166v-166h-688v983h663v-166h-461v-227h353v-166h-353v-258h486z" glyph-name="Egrave.c2sc" horiz-adv-x="872"/><glyph d="M801 166v-166h-688v983h663v-166h-461v-227h353v-166h-353v-258h486zM557 1368q23 -35 168 -272h-145q-121 115 -125 118l-123 -118h-146q145 238 168 272h203z" glyph-name="Ecircumflex.c2sc" horiz-adv-x="872"/><glyph d="M801 166v-166h-688v983h663v-166h-461v-227h353v-166h-353v-258h486zM182 1235q0 49 32 83t81 34t83 -34t34 -83t-34 -81t-83 -32t-81 32t-32 81zM500 1235q0 49 32.5 83t82 34t83 -35t33.5 -83t-33.5 -80t-83 -32t-82 32t-32.5 81z" glyph-name="Edieresis.c2sc" horiz-adv-x="872"/><glyph d="M801 166v-166h-688v983h663v-166h-461v-227h353v-166h-353v-258h486zM709 1161h-535v148h535v-148z" glyph-name="Emacron.c2sc" horiz-adv-x="866"/><glyph d="M446 1096q-111 0 -175 82t-42 190h142q-10 -43 9 -93t65 -50t64.5 49t8.5 94h141q25 -102 -38.5 -187t-174.5 -85zM801 166v-166h-688v983h663v-166h-461v-227h353v-166h-353v-258h486z" glyph-name="Ebreve.c2sc" horiz-adv-x="866"/><glyph d="M801 166v-166h-688v983h663v-166h-461v-227h353v-166h-353v-258h486zM332 1235q0 49 31.5 83t80.5 34t83 -34t34 -83t-33.5 -81t-83.5 -32t-81 32t-31 81z" glyph-name="Edotaccent.c2sc" horiz-adv-x="866"/><glyph d="M801 166v-166h-293q-72 -47 -72 -115t62.5 -96.5t134.5 -7.5l4 -160q-135 -33 -253 25.5t-118 193.5q0 96 84 160h-237v983h663v-166h-461v-227h353v-166h-353v-258h486z" glyph-name="Eogonek.c2sc" horiz-adv-x="866"/><glyph d="M713 1368v-31l-164 -241h-203l-164 241v31h129l135 -125q16 12 138 125h129zM801 166v-166h-688v983h663v-166h-461v-227h353v-166h-353v-258h486z" glyph-name="Ecaron.c2sc" horiz-adv-x="866"/><glyph d="M657 367v153h336v-387q-139 -160 -387 -160t-401.5 147.5t-153.5 369.5t147.5 371t374.5 149t381 -158l-118 -133q-106 123 -244 123t-237 -98t-99 -250t102.5 -253.5t240.5 -101.5t218 80v148h-160zM672 1368q23 -35 168 -272h-146q-121 115 -125 118l-123 -118h-145 q145 238 168 272h203z" glyph-name="Gcircumflex.c2sc" horiz-adv-x="1075"/><glyph d="M573 1096q-111 0 -175 82t-42 190h142q-10 -43 9 -93t65 -50t64.5 49t8.5 94h141q25 -102 -38.5 -187t-174.5 -85zM657 367v153h336v-387q-139 -160 -387 -160t-401.5 147.5t-153.5 369.5t147.5 371t374.5 149t381 -158l-118 -133q-106 123 -244 123t-237 -98t-99 -250 t102.5 -253.5t240.5 -101.5t218 80v148h-160z" glyph-name="Gbreve.c2sc" horiz-adv-x="1075"/><glyph d="M657 367v153h336v-387q-139 -160 -387 -160t-401.5 147.5t-153.5 369.5t147.5 371t374.5 149t381 -158l-118 -133q-106 123 -244 123t-237 -98t-99 -250t102.5 -253.5t240.5 -101.5t218 80v148h-160zM451 1235q0 49 31.5 83t80.5 34t83 -34t34 -83t-34 -81t-83 -32 t-80.5 32t-31.5 81z" glyph-name="Gdotaccent.c2sc" horiz-adv-x="1075"/><glyph d="M657 367v153h336v-387q-139 -160 -387 -160t-401.5 147.5t-153.5 369.5t147.5 371t374.5 149t381 -158l-118 -133q-106 123 -244 123t-237 -98t-99 -250t102.5 -253.5t240.5 -101.5t218 80v148h-160zM414 -492l53 367h248l2 -31l-230 -350z" glyph-name="Gcommaaccent.c2sc" horiz-adv-x="1075"/><glyph d="M950 0h-202v424h-433v-424h-202v983h202v-393h433v393h202v-983zM637 1368q23 -35 168 -272h-146q-121 115 -124 118l-123 -118h-146q145 238 168 272h203z" glyph-name="Hcircumflex.c2sc" horiz-adv-x="1062"/><glyph d="M950 0h-202v424h-433v-424h-202v705h-93v147h93v131h202v-131h433v131h202v-131h92v-147h-92v-705zM315 590h433v115h-433v-115z" glyph-name="Hbar.c2sc" horiz-adv-x="1062"/><glyph d="M494 1368v-31l-230 -241h-151l123 272h258zM113 0v983h202v-983h-202z" glyph-name="Iacute.c2sc" horiz-adv-x="428"/><glyph d="M113 0v983h202v-983h-202zM315 1368q23 -35 168 -272h-145q-121 115 -125 118l-123 -118h-145q145 238 168 272h202z" glyph-name="Icircumflex.c2sc" horiz-adv-x="428"/><glyph d="M113 0v983h202v-983h-202zM-59 1235q0 49 31.5 83t80.5 34t83 -34t34 -83t-34 -81t-83 -32t-80.5 32t-31.5 81zM258 1235q0 49 33 83t82 34t82.5 -35t33.5 -83t-33.5 -80t-82.5 -32t-82 32t-33 81z" glyph-name="Idieresis.c2sc" horiz-adv-x="428"/><glyph d="M-66 1368h259l122 -272h-151l-230 241v31zM113 0v983h202v-983h-202z" glyph-name="Igrave.c2sc" horiz-adv-x="428"/><glyph d="M87 1341q60 0 131 -26.5t99 -26.5q59 0 86 47l86 -24q2 -92 -46 -140.5t-105 -48.5t-132 28t-97 28q-61 -1 -84 -50l-86 25q-4 96 42 142t106 46zM113 0v983h202v-983h-202z" glyph-name="Itilde.c2sc" horiz-adv-x="428"/><glyph d="M113 0v983h202v-983h-202zM481 1161h-534v148h534v-148z" glyph-name="Imacron.c2sc" horiz-adv-x="428"/><glyph d="M215 1096q-111 0 -175.5 82t-41.5 190h141q-10 -43 9.5 -93t65.5 -50t64.5 49t8.5 94h141q25 -102 -38.5 -187t-174.5 -85zM113 0v983h202v-983h-202z" glyph-name="Ibreve.c2sc" horiz-adv-x="428"/><glyph d="M113 983h202v-983h-47q-66 -35 -65 -111q0 -51 38 -82.5t83 -31.5t71 8q0 -53 4 -160q-47 -12 -94 -12q-115 0 -196.5 60.5t-81.5 162.5t86 154v995z" glyph-name="Iogonek.c2sc" horiz-adv-x="428"/><glyph d="M113 0v983h202v-983h-202zM100 1235q0 49 32 83t81 34t83 -34t34 -83t-34 -81t-83 -32t-81 32t-32 81z" glyph-name="Idotaccent.c2sc" horiz-adv-x="428"/><glyph d="M113 0v983h202v-983h-202zM793 414v569h204v-580q0 -221 -117.5 -328.5t-375.5 -86.5l6 170q145 -8 214 53.5t69 202.5z" glyph-name="IJ.c2sc" horiz-adv-x="1130"/><glyph d="M365 414v569h204v-580q0 -221 -117.5 -328.5t-375.5 -86.5l6 170q145 -8 214 53.5t69 202.5zM567 1368q23 -35 168 -272h-145q-121 115 -125 118l-123 -118h-145q145 238 168 272h202z" glyph-name="Jcircumflex.c2sc" horiz-adv-x="702"/><glyph d="M313 983v-416l387 414h244l-432 -471l471 -510h-268l-402 430v-430h-200v983h200zM322 -492l53 367h248l2 -31l-230 -350z" glyph-name="Kcommaaccent.c2sc" horiz-adv-x="1009"/><glyph d="M801 166v-166h-647v360l-111 -53l-51 131l162 80v465h202v-369q25 14 78 39t80 39l53 -135l-211 -102v-289h445z" glyph-name="Lslash.c2sc" horiz-adv-x="835"/><glyph d="M504 1368v-31l-230 -241h-151l123 272h258zM750 166v-166h-637v983h202v-817h435z" glyph-name="Lacute.c2sc" horiz-adv-x="784"/><glyph d="M750 166v-166h-637v983h202v-817h435zM240 -492l53 367h248l2 -31l-230 -350z" glyph-name="Lcommaaccent.c2sc" horiz-adv-x="784"/><glyph d="M526 481l78 502h254l2 -31l-260 -493zM750 166v-166h-637v983h202v-817h435z" glyph-name="Lcaron.c2sc" horiz-adv-x="886"/><glyph d="M750 166v-166h-637v983h202v-817h435zM543 540.5q0 63.5 43 107.5t105 44t106.5 -44t44.5 -107.5t-44 -105.5t-106 -42t-105.5 42t-43.5 105.5z" glyph-name="Ldot.c2sc" horiz-adv-x="888"/><glyph d="M400 1341q60 0 131 -26.5t100 -26.5q59 0 86 47l86 -24q2 -92 -45.5 -140.5t-105.5 -48.5t-133 28t-97 28q-61 -1 -84 -50l-86 25q-4 96 42 142t106 46zM948 0h-196v371l-445 282v-653h-194v983q23 8 34 16l605 -393v377h196v-983z" glyph-name="Ntilde.c2sc" horiz-adv-x="1060"/><glyph d="M770 1368v-31l-229 -241h-152l123 272h258zM948 0h-196v371l-445 282v-653h-194v983q23 8 34 16l605 -393v377h196v-983z" glyph-name="Nacute.c2sc" horiz-adv-x="1060"/><glyph d="M948 0h-196v371l-445 282v-653h-194v983q23 8 34 16l605 -393v377h196v-983zM352 -492l54 367h247l2 -31l-229 -350z" glyph-name="Ncommaaccent.c2sc" horiz-adv-x="1060"/><glyph d="M784 1368v-31l-163 -241h-203l-164 241v31h129l135 -125q32 24 137 125h129zM948 0h-196v371l-445 282v-653h-194v983q23 8 34 16l605 -393v377h196v-983z" glyph-name="Ncaron.c2sc" horiz-adv-x="1060"/><glyph d="M752 -174v545l-445 299v-670h-194v983l30 21q406 -266 609 -398v377h196v-1173q0 -170 -98 -252t-234 -82q-47 0 -104 14l25 164q25 -6 49 -6q70 0 118 45t48 133z" glyph-name="Eng.c2sc" horiz-adv-x="1060"/><glyph d="M846 1368v-31l-230 -241h-151l123 272h258zM574 -27q-222 0 -370.5 149.5t-148.5 369.5t149.5 369t371.5 149t371 -148.5t149 -368.5t-150 -370t-372 -150zM579 145q136 0 223 103.5t87 245t-89.5 243t-227.5 101.5t-225 -101.5t-87 -241.5t91.5 -245t227.5 -105z" glyph-name="Oacute.c2sc" horiz-adv-x="1153"/><glyph d="M307 1368h258l123 -272h-151l-230 241v31zM574 -27q-222 0 -370.5 149.5t-148.5 369.5t149.5 369t371.5 149t371 -148.5t149 -368.5t-150 -370t-372 -150zM579 145q136 0 223 103.5t87 245t-89.5 243t-227.5 101.5t-225 -101.5t-87 -241.5t91.5 -245t227.5 -105z" glyph-name="Ograve.c2sc" horiz-adv-x="1153"/><glyph d="M574 -27q-222 0 -370.5 149.5t-148.5 369.5t149.5 369t371.5 149t371 -148.5t149 -368.5t-150 -370t-372 -150zM579 145q136 0 223 103.5t87 245t-89.5 243t-227.5 101.5t-225 -101.5t-87 -241.5t91.5 -245t227.5 -105zM674 1368q23 -35 168 -272h-146q-121 115 -125 118 l-122 -118h-146q145 238 168 272h203z" glyph-name="Ocircumflex.c2sc" horiz-adv-x="1153"/><glyph d="M574 -27q-222 0 -370.5 149.5t-148.5 369.5t149.5 369t371.5 149t371 -148.5t149 -368.5t-150 -370t-372 -150zM579 145q136 0 223 103.5t87 245t-89.5 243t-227.5 101.5t-225 -101.5t-87 -241.5t91.5 -245t227.5 -105zM287 1235q0 49 31.5 83t80.5 34t83 -34t34 -83 t-33 -81t-83 -32t-81.5 32t-31.5 81zM604 1235q0 49 33 83t81 34t83 -35t35 -83t-34 -80t-83 -32t-82 32t-33 81z" glyph-name="Odieresis.c2sc" horiz-adv-x="1153"/><glyph d="M448 1341q60 0 130.5 -26.5t99.5 -26.5q59 0 86 47l86 -24q2 -92 -46 -140.5t-106 -48.5t-132 28t-97 28q-61 -1 -84 -50l-86 25q-4 96 42.5 142t106.5 46zM574 -27q-222 0 -370.5 149.5t-148.5 369.5t149.5 369t371.5 149t371 -148.5t149 -368.5t-150 -370t-372 -150z M579 145q136 0 223 103.5t87 245t-89.5 243t-227.5 101.5t-225 -101.5t-87 -241.5t91.5 -245t227.5 -105z" glyph-name="Otilde.c2sc" horiz-adv-x="1153"/><glyph d="M573 -27q-123 0 -227 56l-129 -179l-102 70l127 170q-186 154 -186 388t149 383t373 149q145 0 260 -74l110 156l105 -66l-115 -158q158 -147 158 -371t-150 -374t-373 -150zM260 496q0 -139 84 -242l397 532q-76 55 -168 56q-139 0 -226 -103.5t-87 -242.5zM578 139 q137 0 224 106.5t87 234.5t-62 216l-385 -516q58 -41 136 -41z" glyph-name="Oslash.c2sc" horiz-adv-x="1153"/><glyph d="M846 1368v-31l-230 -241h-151l123 272h258zM573 -27q-123 0 -227 56l-129 -179l-102 70l127 170q-186 154 -186 388t149 383t373 149q145 0 260 -74l110 156l105 -66l-115 -158q158 -147 158 -371t-150 -374t-373 -150zM260 496q0 -139 84 -242l397 532q-76 55 -168 56 q-139 0 -226 -103.5t-87 -242.5zM578 139q137 0 224 106.5t87 234.5t-62 216l-385 -516q58 -41 136 -41z" glyph-name="Oslashacute.c2sc" horiz-adv-x="1153"/><glyph d="M840 1161h-535v148h535v-148zM574 -27q-222 0 -370.5 149.5t-148.5 369.5t149.5 369t371.5 149t371 -148.5t149 -368.5t-150 -370t-372 -150zM579 145q136 0 223 103.5t87 245t-89.5 243t-227.5 101.5t-225 -101.5t-87 -241.5t91.5 -245t227.5 -105z" glyph-name="Omacron.c2sc" horiz-adv-x="1153"/><glyph d="M569 1096q-111 0 -175 82t-42 190h142q-10 -43 9 -93t65 -50t64.5 49t8.5 94h141q25 -102 -38.5 -187t-174.5 -85zM574 -27q-222 0 -370.5 149.5t-148.5 369.5t149.5 369t371.5 149t371 -148.5t149 -368.5t-150 -370t-372 -150zM579 145q136 0 223 103.5t87 245 t-89.5 243t-227.5 101.5t-225 -101.5t-87 -241.5t91.5 -245t227.5 -105z" glyph-name="Obreve.c2sc" horiz-adv-x="1153"/><glyph d="M574 -27q-222 0 -370.5 149.5t-148.5 369.5t149.5 369t371.5 149t371 -148.5t149 -368.5t-150 -370t-372 -150zM579 145q136 0 223 103.5t87 245t-89.5 243t-227.5 101.5t-225 -101.5t-87 -241.5t91.5 -245t227.5 -105zM676 1368v-31l-199 -241h-100l86 272h213z M946 1368v-31l-198 -241h-101l88 272h211z" glyph-name="Ohungarumlaut.c2sc" horiz-adv-x="1153"/><glyph d="M1411 166v-166h-604q-364 -65 -558 90t-194 398t196 401.5t556 93.5h579v-166h-466v-227h358v-166h-358v-258h491zM264 485q0 -133 76 -216t176.5 -106t200.5 -5v663q-182 37 -317.5 -58t-135.5 -278z" glyph-name="OE.c2sc" horiz-adv-x="1478"/><glyph d="M678 1368v-31l-229 -241h-152l123 272h258zM829 645q0 -195 -178 -309l303 -336h-249l-244 276q-66 -12 -144 -2v-274h-202l-2 973q192 43 388 10.5t262 -135.5t66 -203zM623 636q0 112 -90.5 155.5t-215.5 25.5v-381q119 -16 212.5 36t93.5 164z" glyph-name="Racute.c2sc" horiz-adv-x="954"/><glyph d="M829 645q0 -195 -178 -309l303 -336h-249l-244 276q-66 -12 -144 -2v-274h-202l-2 973q192 43 388 10.5t262 -135.5t66 -203zM623 636q0 112 -90.5 155.5t-215.5 25.5v-381q119 -16 212.5 36t93.5 164zM322 -492l53 367h248l2 -31l-230 -350z" glyph-name="Rcommaaccent.c2sc" horiz-adv-x="954"/><glyph d="M668 1368v-31l-164 -241h-203l-164 241v31h129l135 -125q16 12 138 125h129zM829 645q0 -195 -178 -309l303 -336h-249l-244 276q-66 -12 -144 -2v-274h-202l-2 973q192 43 388 10.5t262 -135.5t66 -203zM623 636q0 112 -90.5 155.5t-215.5 25.5v-381q119 -16 212.5 36 t93.5 164z" glyph-name="Rcaron.c2sc" horiz-adv-x="954"/><glyph d="M315 0h-202v983h784l14 -35l-219 -346q86 6 180.5 -72.5t94.5 -218.5q0 -90 -35 -157.5t-116.5 -119.5t-216.5 -52q-134 0 -214 32l25 158h24q80 -27 142 -27t122 45.5t60 142.5t-95.5 144t-211.5 0l-27 27l203 313h-312v-817z" glyph-name="uni1E9E.c2sc" horiz-adv-x="1007"/><glyph d="M688 1368v-31l-164 -241h-202l-164 241v31h129l135 -125q11 8 137 125h129zM262 719q0 -76 170 -123q361 -86 361 -342q0 -131 -106.5 -206t-266.5 -75q-102 0 -204.5 26t-149.5 54l65 166q43 -25 128 -49.5t157 -24.5t131 32t59 83t-47 79t-145 56q-340 90 -340 320 q0 133 102.5 214t257.5 81t311 -66l-51 -162q-125 57 -272 58q-63 0 -111.5 -32t-48.5 -89z" glyph-name="Scaron.c2sc" horiz-adv-x="860"/><glyph d="M692 1368v-31l-229 -241h-152l123 272h258zM262 719q0 -76 170 -123q361 -86 361 -342q0 -131 -106.5 -206t-266.5 -75q-102 0 -204.5 26t-149.5 54l65 166q43 -25 128 -49.5t157 -24.5t131 32t59 83t-47 79t-145 56q-340 90 -340 320q0 133 102.5 214t257.5 81t311 -66 l-51 -162q-125 57 -272 58q-63 0 -111.5 -32t-48.5 -89z" glyph-name="Sacute.c2sc" horiz-adv-x="860"/><glyph d="M262 719q0 -76 170 -123q361 -86 361 -342q0 -131 -106.5 -206t-266.5 -75q-102 0 -204.5 26t-149.5 54l65 166q43 -25 128 -49.5t157 -24.5t131 32t59 83t-47 79t-145 56q-340 90 -340 320q0 133 102.5 214t257.5 81t311 -66l-51 -162q-125 57 -272 58q-63 0 -111.5 -32 t-48.5 -89zM528 1368q23 -35 168 -272h-145q-121 115 -125 118l-123 -118h-145q145 238 168 272h202z" glyph-name="Scircumflex.c2sc" horiz-adv-x="860"/><glyph d="M262 719q0 -76 170 -123q180 -43 270.5 -127t90.5 -203t-73 -190.5t-194 -91.5q66 -61 66 -157t-82 -156t-195 -60q-49 0 -94 12q0 53 4 160q35 -10 76 -10t81 29.5t40 83.5t-37 87q-96 4 -186 29t-133 51l65 166q43 -25 128 -49.5t157 -24.5t131 32t59 83t-47 79 t-145 56q-340 90 -340 320q0 133 102.5 214t257.5 81t311 -66l-51 -162q-125 57 -272 58q-63 0 -111.5 -32t-48.5 -89z" glyph-name="Scedilla.c2sc" horiz-adv-x="860"/><glyph d="M266 719q0 -76 170 -123q361 -86 361 -342q0 -131 -106.5 -206t-266.5 -75q-102 0 -204.5 26t-149.5 54l65 166q43 -25 128 -49.5t157 -24.5t131 32t59 83t-47 79t-145 56q-340 90 -340 320q0 133 102 214t258 81t312 -66l-52 -162q-125 57 -272 58q-63 0 -111.5 -32 t-48.5 -89zM254 -492l53 367h248l2 -31l-229 -350z" glyph-name="Scommaaccent.c2sc" horiz-adv-x="870"/><glyph d="M113 0v983h202v-149q66 4 93 4q215 0 335.5 -93t120.5 -255t-118.5 -258.5t-317.5 -96.5q-61 0 -113 8v-143h-202zM443 307q75 0 145.5 42.5t70.5 138.5t-71.5 136t-143.5 40t-129 -9v-336q53 -12 128 -12z" glyph-name="Thorn.c2sc" horiz-adv-x="921"/><glyph d="M780 817h-272v-817h-39q43 -23 72.5 -64.5t29.5 -95.5q0 -109 -81.5 -169t-196.5 -60q-47 0 -94 12q4 106 4 160q25 -8 71 -8t83.5 31.5t37.5 93.5t-65 100h-25v817h-270v164h745v-164z" glyph-name="tcommaaccent.sc" horiz-adv-x="815"/><glyph d="M780 817h-272v-817h-203v817h-270v164h745v-164zM231 -492l54 367h247l3 -31l-230 -350z" glyph-name="uni021A.c2sc" horiz-adv-x="815"/><glyph d="M672 1368v-31l-164 -241h-203l-164 241v31h129l136 -125q11 8 137 125h129zM780 817h-272v-817h-203v817h-270v164h745v-164z" glyph-name="Tcaron.c2sc" horiz-adv-x="815"/><glyph d="M780 817h-272v-246h166v-147h-166v-424h-203v424h-166v147h166v246h-270v164h745v-164z" glyph-name="Tbar.c2sc" horiz-adv-x="815"/><glyph d="M795 1368v-31l-230 -241h-151l123 272h258zM534 -27q-205 0 -313 124t-108 311v575h202v-580q0 -115 62.5 -185.5t158.5 -70.5t164 72t68 184v580h207v-580q0 -182 -118 -306t-323 -124z" glyph-name="Uacute.c2sc" horiz-adv-x="1087"/><glyph d="M289 1368h258l123 -272h-152l-229 241v31zM534 -27q-205 0 -313 124t-108 311v575h202v-580q0 -115 62.5 -185.5t158.5 -70.5t164 72t68 184v580h207v-580q0 -182 -118 -306t-323 -124z" glyph-name="Ugrave.c2sc" horiz-adv-x="1087"/><glyph d="M534 -27q-205 0 -313 124t-108 311v575h202v-580q0 -115 62.5 -185.5t158.5 -70.5t164 72t68 184v580h207v-580q0 -182 -118 -306t-323 -124zM639 1368q23 -35 168 -272h-145q-121 115 -125 118l-123 -118h-146q145 238 168 272h203z" glyph-name="Ucircumflex.c2sc" horiz-adv-x="1087"/><glyph d="M534 -27q-205 0 -313 124t-108 311v575h202v-580q0 -115 62.5 -185.5t158.5 -70.5t164 72t68 184v580h207v-580q0 -182 -118 -306t-323 -124zM254 1235q0 49 31 83t81 34t83.5 -34t33.5 -83t-33.5 -81t-82.5 -32t-81 32t-32 81zM571 1235q0 49 33 83t81 34t83 -35t35 -83 t-34 -80t-83 -32t-82 32t-33 81z" glyph-name="Udieresis.c2sc" horiz-adv-x="1087"/><glyph d="M410 1341q60 0 131 -26.5t100 -26.5q59 0 86 47l86 -24q2 -92 -45.5 -140.5t-105.5 -48.5t-132.5 28t-97.5 28q-61 -1 -84 -50l-86 25q-4 96 42 142t106 46zM534 -27q-205 0 -313 124t-108 311v575h202v-580q0 -115 62.5 -185.5t158.5 -70.5t164 72t68 184v580h207v-580 q0 -182 -118 -306t-323 -124z" glyph-name="Utilde.c2sc" horiz-adv-x="1087"/><glyph d="M807 1161h-535v148h535v-148zM534 -27q-205 0 -313 124t-108 311v575h202v-580q0 -115 62.5 -185.5t158.5 -70.5t164 72t68 184v580h207v-580q0 -182 -118 -306t-323 -124z" glyph-name="Umacron.c2sc" horiz-adv-x="1087"/><glyph d="M539 1096q-111 0 -175.5 82t-41.5 190h141q-10 -43 9.5 -93t65.5 -50t64.5 49t7.5 94h142q25 -102 -38.5 -187t-174.5 -85zM534 -27q-205 0 -313 124t-108 311v575h202v-580q0 -115 62.5 -185.5t158.5 -70.5t164 72t68 184v580h207v-580q0 -182 -118 -306t-323 -124z" glyph-name="Ubreve.c2sc" horiz-adv-x="1087"/><glyph d="M324 1167q0 88 61 149.5t153 61.5t153 -61.5t61 -150.5t-62.5 -150.5t-153 -61.5t-151.5 62.5t-61 150.5zM440 1167q0 -41 29 -70.5t69 -29.5t68.5 29.5t28.5 70.5t-28.5 70t-68.5 29t-69 -29t-29 -70zM534 -27q-205 0 -313 124t-108 311v575h202v-586 q0 -115 62.5 -185.5t158.5 -70.5t164 72t68 184v586h207v-580q0 -182 -118 -306t-323 -124z" glyph-name="Uring.c2sc" horiz-adv-x="1087"/><glyph d="M534 -27q-205 0 -313 124t-108 311v575h202v-580q0 -115 62.5 -185.5t158.5 -70.5t164 72t68 184v580h207v-580q0 -182 -118 -306t-323 -124zM627 1368v-31l-199 -241h-100l86 272h213zM897 1368v-31l-199 -241h-100l88 272h211z" glyph-name="Uhungarumlaut.c2sc" horiz-adv-x="1087"/><glyph d="M113 408v575h202v-580q0 -115 63.5 -185.5t157.5 -70.5t163 72t69 184v580h207v-580q0 -145 -77 -256.5t-216 -150.5q-55 -34 -55 -96t37.5 -93.5t83.5 -31.5t71 8q0 -53 4 -160q-45 -12 -94 -12q-115 0 -196.5 60.5t-81.5 168.5q0 76 55 135q-190 8 -291.5 130 t-101.5 303z" glyph-name="Uogonek.c2sc" horiz-adv-x="1087"/><glyph d="M1040 1368v-31l-229 -241h-152l123 272h258zM1253 983h201l-407 -999h-31l-287 628l-287 -628h-30l-402 999h228l217 -559l272 575h33l268 -573z" glyph-name="Wacute.c2sc" horiz-adv-x="1464"/><glyph d="M444 1368h258l123 -272h-151l-230 241v31zM1253 983h201l-407 -999h-31l-287 628l-287 -628h-30l-402 999h228l217 -559l272 575h33l268 -573z" glyph-name="Wgrave.c2sc" horiz-adv-x="1464"/><glyph d="M1253 983h201l-407 -999h-31l-287 628l-287 -628h-30l-402 999h228l217 -559l272 575h33l268 -573zM844 1368q23 -35 168 -272h-146q-121 115 -125 118l-123 -118h-145q145 238 168 272h203z" glyph-name="Wcircumflex.c2sc" horiz-adv-x="1464"/><glyph d="M1253 983h201l-407 -999h-31l-287 628l-287 -628h-30l-402 999h228l217 -559l272 575h33l268 -573zM469 1235q0 49 31.5 83t81.5 34t83 -34t33 -83t-33.5 -81t-82.5 -32t-81 32t-32 81zM786 1235q0 49 33 83t82 34t83 -35t34 -83t-34 -80t-83 -32t-82 32t-33 81z" glyph-name="Wdieresis.c2sc" horiz-adv-x="1464"/><glyph d="M756 1368v-31l-230 -241h-151l123 272h258zM391 0v401l-395 582h242l260 -377l262 377h229l-395 -580v-403h-203z" glyph-name="Yacute.c2sc" horiz-adv-x="983"/><glyph d="M219 1368h258l123 -272h-151l-230 241v31zM391 0v401l-395 582h242l260 -377l262 377h229l-395 -580v-403h-203z" glyph-name="Ygrave.c2sc" horiz-adv-x="983"/><glyph d="M391 0v401l-395 582h242l260 -377l262 377h229l-395 -580v-403h-203zM598 1368q23 -35 168 -272h-145q-121 115 -125 118l-123 -118h-146q145 238 168 272h203z" glyph-name="Ycircumflex.c2sc" horiz-adv-x="983"/><glyph d="M391 0v401l-395 582h242l260 -377l262 377h229l-395 -580v-403h-203zM219 1235q0 49 32 83t81 34t83 -34t34 -83t-34 -81t-83 -32t-81 32t-32 81zM537 1235q0 49 32.5 83t81.5 34t83 -35t34 -83t-34 -80t-83 -32t-81.5 32t-32.5 81z" glyph-name="Ydieresis.c2sc" horiz-adv-x="983"/><glyph d="M778 1368v-31l-164 -241h-202l-164 241v31h129l135 -125q32 24 137 125h129zM915 166v-166h-827l-16 37l538 780h-499v166h804l13 -41l-525 -776h512z" glyph-name="Zcaron.c2sc" horiz-adv-x="999"/><glyph d="M754 1368v-31l-230 -241h-151l123 272h258zM915 166v-166h-827l-16 37l538 780h-499v166h804l13 -41l-525 -776h512z" glyph-name="Zacute.c2sc" horiz-adv-x="999"/><glyph d="M915 166v-166h-827l-16 37l538 780h-499v166h804l13 -41l-525 -776h512zM393 1235q0 49 32 83t81 34t83 -34t34 -83t-34 -81t-83 -32t-81 32t-32 81z" glyph-name="Zdotaccent.c2sc" horiz-adv-x="999"/><glyph d="M575 406v-314h-180v314h-313v178h313v313h180v-313h312v-178h-312z" glyph-name="plus.oldstyle" horiz-adv-x="968"/><glyph d="M893 406h-811v178h811v-178z" glyph-name="minus.oldstyle" horiz-adv-x="974"/><glyph d="M381 471l-258 256l127 129l256 -258l252 258l116 -117l-253 -256l258 -254l-127 -129l-256 256q-127 -127 -250 -256l-117 117z" glyph-name="multiply.oldstyle" horiz-adv-x="1001"/><glyph d="M367 827.5q0 51.5 34.5 87t86 35.5t85 -35t33.5 -87t-33.5 -84.5t-85 -32.5t-86 32.5t-34.5 84zM893 406h-811v178h811v-178zM367 170q0 51 34.5 86t86 35t85 -35t33.5 -86t-33.5 -85t-85 -34t-86 34t-34.5 85z" glyph-name="divide.oldstyle" horiz-adv-x="974"/><glyph d="M82 231v177h301l66 174h-367v178h440l117 305l160 -68l-90 -237h211v-178h-285l-66 -174h351v-177h-424l-131 -342l-158 68l102 274h-227z" glyph-name="notequal.oldstyle" horiz-adv-x="1001"/><glyph d="M963 25l-897 446v37l897 448v-211l-517 -253l517 -256v-211z" glyph-name="less.oldstyle" horiz-adv-x="1081"/><glyph d="M1016 471l-897 -446v211l516 256l-516 253v211l897 -448v-37z" glyph-name="greater.oldstyle" horiz-adv-x="1081"/><glyph d="M963 43h-846v176h846v-176zM963 281l-877 276v100l877 279v-174l-492 -154l492 -155v-172z" glyph-name="lessequal.oldstyle" horiz-adv-x="1081"/><glyph d="M965 43h-848v176h848v-176zM993 557l-874 -276v172l491 155l-491 152v176l874 -279v-100z" glyph-name="greaterequal.oldstyle" horiz-adv-x="1081"/><glyph d="M332 457q63 0 188 -49.5t174 -49.5q104 0 152 82l86 -12q12 -125 -63 -190.5t-159 -65.5t-209.5 48t-173.5 48t-90.5 -23.5t-58.5 -58.5l-88 13q-10 135 64.5 196.5t177.5 61.5zM332 809q63 0 188 -49t174 -49q104 0 152 84l86 -11q12 -125 -63 -191.5t-159 -66.5 t-209.5 47.5t-168.5 47.5q-117 0 -154 -80l-88 12q-10 133 64.5 194.5t177.5 61.5z" glyph-name="approxequal.oldstyle" horiz-adv-x="1024"/><glyph d="M920 231h-838v177h838v-177zM920 582h-838v178h838v-178z" glyph-name="equal.oldstyle" horiz-adv-x="1001"/><glyph d="M1235 180h606v-180h-821v291h-578l-217 -291h-266l1059 1438h797v-183h-580v-430h467v-182h-467v-463zM1020 475v631l-455 -631h455z" glyph-name="AE.salt" horiz-adv-x="1953"/><glyph d="M1475 1812v-30l-230 -242h-151l123 272h258zM1235 180h606v-180h-821v291h-578l-217 -291h-266l1059 1438h797v-183h-580v-430h467v-182h-467v-463zM1020 475v631l-455 -631h455z" glyph-name="AEacute.salt" horiz-adv-x="1953"/><glyph d="M379 180h606v-180h-821v1438h794v-183h-579v-432h467v-180h-467v-463z" glyph-name="E.salt"/><glyph d="M379 180h606v-180h-821v1438h794v-183h-579v-432h467v-180h-467v-463zM795 1812v-30l-230 -242h-151l123 272h258z" glyph-name="Eacute.salt"/><glyph d="M379 180h606v-180h-821v1438h794v-183h-579v-432h467v-180h-467v-463zM344 1812h258l123 -272h-152l-229 242v30z" glyph-name="Egrave.salt"/><glyph d="M379 180h606v-180h-821v1438h794v-183h-579v-432h467v-180h-467v-463zM289 1679q0 49 31.5 83t80.5 34t83 -33t34 -83t-33 -81.5t-83 -31.5t-81.5 31.5t-31.5 80.5zM606 1679q0 49 33 83t82 34t83 -33t34 -83t-34 -81.5t-83 -31.5t-82 31.5t-33 80.5z" glyph-name="Edieresis.salt"/><glyph d="M379 180h606v-180h-821v1438h794v-183h-579v-432h467v-180h-467v-463zM672 1812q23 -35 168 -272h-146q-121 115 -125 119l-123 -119h-145q145 238 168 272h203z" glyph-name="Ecircumflex.salt"/><glyph d="M379 180h606v-180h-821v1438h794v-183h-579v-432h467v-180h-467v-463zM825 1606h-534v147h534v-147z" glyph-name="Emacron.salt"/><glyph d="M379 180h606v-180h-821v1438h794v-183h-579v-432h467v-180h-467v-463zM559 1540q-111 0 -175.5 82t-41.5 190h141q-10 -43 9.5 -93t65.5 -50t64.5 49t8.5 94h141q25 -102 -38.5 -187t-174.5 -85z" glyph-name="Ebreve.salt"/><glyph d="M379 180h606v-180h-821v1438h794v-183h-579v-432h467v-180h-467v-463zM438 1679q0 49 32 83t81 34t83 -33t34 -83t-34 -81.5t-83 -31.5t-81 31.5t-32 80.5z" glyph-name="Edotaccent.salt"/><glyph d="M379 180h606v-180h-334q-69 -47 -69 -115t62.5 -96.5t133.5 -7.5l4 -160q-211 -34 -291.5 47.5t-80.5 175.5t86 156h-332v1438h794v-183h-579v-432h467v-180h-467v-463z" glyph-name="Eogonek.salt"/><glyph d="M379 180h606v-180h-821v1438h794v-183h-579v-432h467v-180h-467v-463zM817 1812v-30l-164 -242h-202l-164 242v30h129l135 -124q14 11 137 124h129z" glyph-name="Ecaron.salt"/><glyph d="M379 0h-215v1438h784v-183h-569v-432h457v-180h-457v-643z" glyph-name="F.salt" horiz-adv-x="1044"/><glyph d="M963 0v643h-584v-643h-215v1438h215v-615h584v615h215v-1438h-215z" glyph-name="H.salt" horiz-adv-x="1341"/><glyph d="M963 0v643h-584v-643h-215v1438h215v-615h584v615h215v-1438h-215zM770 1812q23 -35 168 -272h-145q-121 115 -125 119l-123 -119h-146q145 238 168 272h203z" glyph-name="Hcircumflex.salt" horiz-adv-x="1341"/><glyph d="M963 0v643h-584v-643h-215v1087h-119v148h119v203h215v-203h584v203h215v-203h116v-148h-116v-1087h-215zM379 823h584v264h-584v-264z" glyph-name="Hbar.salt" horiz-adv-x="1341"/><glyph d="M377 0h-213v1442l57 12l615 -969l612 969l57 -12v-1442h-213v866l-446 -739h-23l-446 739v-866z" glyph-name="M.salt" horiz-adv-x="1669"/><glyph d="M1081 1438h211v-1442l-45 -10l-872 985v-971h-211v1442l45 12l872 -987v971z" glyph-name="N.salt" horiz-adv-x="1456"/><glyph d="M1081 1438h211v-1442l-45 -10l-872 985v-971h-211v1442l45 12l872 -987v971zM590 1786q60 0 131.5 -26.5t99.5 -26.5q59 0 86 47l86 -25q2 -92 -45.5 -140t-105.5 -48t-132.5 27.5t-97.5 27.5q-61 0 -84 -49l-86 24q-4 96 42 142.5t106 46.5z" glyph-name="Ntilde.salt" horiz-adv-x="1456"/><glyph d="M1081 1438h211v-1442l-45 -10l-872 985v-971h-211v1442l45 12l872 -987v971zM967 1835v-31l-230 -241h-151l123 272h258z" glyph-name="Nacute.salt" horiz-adv-x="1456"/><glyph d="M1081 1438h211v-1442l-45 -10l-872 985v-971h-211v1442l45 12l872 -987v971zM588 -492l53 367h248l2 -31l-229 -350z" glyph-name="Ncommaaccent.salt" horiz-adv-x="1456"/><glyph d="M1081 1438h211v-1442l-45 -10l-872 985v-971h-211v1442l45 12l872 -987v971zM1006 1833v-31l-164 -241h-203l-164 241v31h129l135 -125q16 12 138 125h129z" glyph-name="Ncaron.salt" horiz-adv-x="1456"/><glyph d="M1083 1438h209v-1631q0 -109 -44 -185.5t-157 -125t-235 -6.5l25 174q82 -18 142 25t60 135v319l-708 828v-971h-211v1442l45 12l874 -989v973z" glyph-name="Eng.salt" horiz-adv-x="1456"/><glyph d="M1800 1438v-183h-583v-432h471v-180h-471v-463h610v-180h-694q-125 -20 -279 -20t-303.5 52t-237.5 132t-167.5 220.5t-79.5 335.5t79.5 335.5t168.5 219.5t237.5 130t298.5 51t283 -18h667zM301 704q0 -240 167 -388t417 -148q65 0 116 8v1079q-59 10 -131 11 q-260 0 -414.5 -161t-154.5 -401z" glyph-name="OE.salt" horiz-adv-x="1939"/><glyph d="M313 0h-200v987l53 12l461 -624l460 624l54 -12v-987h-201v516l-299 -432h-29l-299 432v-516z" glyph-name="M.c2sc.salt" horiz-adv-x="1253"/><glyph d="M307 0h-194v983l39 14l641 -618v604h196v-983l-41 -14l-641 610v-596z" glyph-name="N.c2sc.salt" horiz-adv-x="1101"/><glyph d="M418 1341q60 0 131.5 -26.5t99.5 -26.5q59 0 86 47l86 -24q2 -92 -45.5 -140.5t-105.5 -48.5t-132.5 28t-97.5 28q-61 -1 -84 -50l-86 25q-4 96 42 142t106 46zM307 0h-194v983l39 14l641 -618v604h196v-983l-41 -14l-641 610v-596z" glyph-name="Ntilde.c2sc.salt" horiz-adv-x="1101"/><glyph d="M795 1368v-31l-230 -241h-151l123 272h258zM307 0h-194v983l39 14l641 -618v604h196v-983l-41 -14l-641 610v-596z" glyph-name="Nacute.c2sc.salt" horiz-adv-x="1101"/><glyph d="M387 -492l53 367h248l2 -31l-229 -350zM307 0h-194v983l39 14l641 -618v604h196v-983l-41 -14l-641 610v-596z" glyph-name="Ncommaaccent.c2sc.salt" horiz-adv-x="1101"/><glyph d="M805 1368v-31l-164 -241h-203l-164 241v31h129l136 -125q11 8 137 125h129zM307 0h-194v983l39 14l641 -618v604h196v-983l-41 -14l-641 610v-596z" glyph-name="Ncaron.c2sc.salt" horiz-adv-x="1101"/><glyph d="M989 -193q0 -109 -45 -185.5t-158.5 -125t-234.5 -6.5l24 164q86 -20 152 22.5t66 147.5v285l-486 487v-596h-194v983l39 14l641 -618v604h196v-1176z" glyph-name="Eng.c2sc.salt" horiz-adv-x="1101"/></font>
</defs>
</svg>
