<?xml version="1.0" standalone="no"?>
<!DOCTYPE svg PUBLIC "-//W3C//DTD SVG 1.1//EN" "http://www.w3.org/Graphics/SVG/1.1/DTD/svg11.dtd">
<svg xmlns="http://www.w3.org/2000/svg"><metadata>This SVG WebFont was generated by YouWorkForThem.
Copyright (c) 2011-2013 by Greg Shutters &amp; Typetanic Fonts. All rights reserved.</metadata><defs><font horiz-adv-x="1058" id="ywftsvg"><font-face ascent="1485" bbox="-432 -541 2126.94 1937" cap-height="1438" descent="-563" font-family="" font-stretch="normal" font-weight="500" panose-1="2 11 6 3 4 6 3 2 2 2" underline-position="0" underline-thickness="0" unicode-range="U+0020-FB04" units-per-em="2048" x-height="838"/><missing-glyph horiz-adv-x="512"/><glyph d="M102 676v20l58 142h94l35 243q14 90 66.5 185.5t170.5 132.5t228 6l-35 -170q-80 23 -149.5 -21.5t-82.5 -148.5l-32 -227h352l43 295q39 257 196.5 306t268.5 17l-37 -170q-80 23 -148.5 -21.5t-82.5 -148.5l-39 -278h204l-22 -162h-205l-96 -676h-201l96 676h-352 l-96 -676h-201l96 676h-129z" glyph-name="uniFB00" horiz-adv-x="1202" unicode="ff"/><glyph d="M494 1116l-39 -278h204l-22 -162h-205l-96 -676h-201l96 676h-129l2 20l56 142h94l43 295q39 257 196.5 306t268.5 17l-37 -170q-80 23 -148.5 -21.5t-82.5 -148.5zM700 0l119 838h201l-117 -838h-203zM974 1325q58 0 98 -44t35 -104t-48 -99.5t-101 -39.5t-98.5 42.5 t-35.5 102.5t48.5 101t101.5 41z" glyph-name="uniFB01" horiz-adv-x="1071" unicode="fi"/><glyph d="M494 1116l-39 -278h204l-22 -162h-205l-96 -676h-201l96 676h-129l2 20l56 142h94l43 295q39 257 196.5 306t268.5 17l-37 -170q-80 23 -148.5 -21.5t-82.5 -148.5zM1128 1462l-206 -1462h-201l203 1438l188 24h16z" glyph-name="uniFB02" horiz-adv-x="1083" unicode="fl"/><glyph d="M1253 0l119 838h201l-117 -838h-203zM1526 1325q58 0 98.5 -44t35.5 -104t-48.5 -99.5t-101.5 -39.5t-98 42.5t-35 102.5t48 101t101 41zM102 676v20l58 142h94l35 243q14 90 66.5 185.5t170.5 132.5t228 6l-35 -170q-80 23 -149.5 -21.5t-82.5 -148.5l-32 -227h352 l43 295q39 257 196.5 306t268.5 17l-37 -170q-80 23 -148.5 -21.5t-82.5 -148.5l-39 -278h204l-22 -162h-205l-96 -676h-201l96 676h-352l-96 -676h-201l96 676h-129z" glyph-name="uniFB03" horiz-adv-x="1624" unicode="ffi"/><glyph d="M1681 1462l-206 -1462h-201l203 1438l188 24h16zM102 676v20l58 142h94l35 243q14 90 66.5 185.5t170.5 132.5t228 6l-35 -170q-80 23 -149.5 -21.5t-82.5 -148.5l-32 -227h352l43 295q39 257 196.5 306t268.5 17l-37 -170q-80 23 -148.5 -21.5t-82.5 -148.5l-39 -278 h204l-22 -162h-205l-96 -676h-201l96 676h-352l-96 -676h-201l96 676h-129z" glyph-name="uniFB04" horiz-adv-x="1636" unicode="ffl"/><glyph d="M1042 154q16 0 54 8l16 -162q-61 -16 -96 -16q-143 0 -222 72.5t-59 215.5l60 404h-363l-96 -676h-201l96 676h-129l2 20l56 142h94l43 295q39 257 196.5 306t268.5 17l-37 -170q-80 23 -148.5 -21t-82.5 -149l-39 -278h360l41 284l188 29h17l-43 -313h199l-23 -162h-199 l-53 -381q-10 -78 12.5 -109.5t87.5 -31.5z" glyph-name="f_t.liga" horiz-adv-x="1206" unicode="ft"/><glyph d="M1595 154q16 0 54 8l16 -162q-61 -16 -117 -16q-121 0 -199.5 69.5t-58.5 218.5l58 404h-363l-96 -676h-201l96 676h-352l-96 -676h-201l96 676h-129l2 20l56 142h94l35 243q14 90 66.5 185.5t170.5 132.5t228 6l-35 -170q-80 23 -149.5 -21.5t-82.5 -148.5l-32 -227h352 l43 295q39 257 196.5 306t268.5 17l-37 -170q-80 23 -148.5 -21t-82.5 -149l-39 -278h360l41 284l188 29h17l-43 -313h198l-22 -162h-199l-53 -381q-10 -78 12.5 -109.5t87.5 -31.5z" glyph-name="f_f_t.liga" horiz-adv-x="1759" unicode="fft"/><glyph d="M1008 150q37 0 71 10l19 -160q-59 -14 -121 -14q-129 0 -203 71.5t-55 192.5l59 426h-360l-58 -426q-8 -51 21 -75.5t66 -24.5t71 10l19 -160q-59 -14 -121 -14q-129 0 -203 71.5t-55 192.5l59 426h-141q2 8 2 20l55 142h105l41 284l188 29h16l-43 -313h359l41 284 l188 29h16l-43 -313h199l-22 -162h-199l-57 -426q-8 -51 20.5 -75.5t65.5 -24.5z" glyph-name="t_t.liga" horiz-adv-x="1189" unicode="tt"/><glyph glyph-name=".notdef" horiz-adv-x="512"/><glyph glyph-name="glyph1" horiz-adv-x="0"/><glyph glyph-name="glyph2" horiz-adv-x="681"/><glyph glyph-name="space" horiz-adv-x="491" unicode=" "/><glyph d="M248 420l39 913h305l-236 -913h-108zM271 279q62 0 103.5 -46.5t36.5 -108.5t-50.5 -103t-107.5 -41t-103 44t-36 106t50 105.5t107 43.5z" glyph-name="exclam" horiz-adv-x="618" unicode="!"/><glyph d="M207 811v627h266l-186 -627h-80zM569 811v627h267l-187 -627h-80z" glyph-name="quotedbl" horiz-adv-x="792" unicode="&quot;"/><glyph d="M422 330l-121 -330h-188l123 330h-173l5 178h231l123 332h-178l6 178h237l117 315h182l-116 -315h207l116 315h183l-117 -315h166l-4 -178h-226l-123 -332h172l-4 -178h-231l-117 -330h-190l123 330h-203zM608 840l-123 -332h203q68 186 125 332h-205z" glyph-name="numbersign" horiz-adv-x="1218" unicode="#"/><glyph d="M647 1174q-104 0 -161.5 -42t-67.5 -116q-14 -104 184 -252q299 -217 256 -471q-23 -141 -120 -218t-220 -98l-37 -253h-178l37 251q-158 18 -285 117l88 164q135 -102 275 -102q100 0 159.5 46t68.5 116t-38.5 136t-163.5 157t-186 194.5t-50 227.5t102.5 209t224.5 108 l34 264h179l-35 -262q147 -25 229 -86l-72 -168q-119 78 -223 78z" glyph-name="dollar" horiz-adv-x="956" unicode="$"/><glyph d="M443 727q-128 0 -218 89t-77 227t110.5 225.5t227.5 87.5t218 -89t74 -229t-110.5 -225.5t-224.5 -85.5zM447 866q62 0 105.5 50.5t53.5 124t-25 126t-97 52.5t-107 -51.5t-55 -125.5t26.5 -125t98.5 -51zM80 68l1251 1294l105 -102l-1250 -1299zM1051 -20 q-127 0 -218 89t-77 228t112.5 225t227.5 86t216.5 -88t73.5 -226t-111 -226t-224 -88zM1056.5 119q61.5 0 104.5 51t53.5 125t-24.5 125t-97 51t-107.5 -51t-55.5 -124t27.5 -125t99 -52z" glyph-name="percent" horiz-adv-x="1447" unicode="%"/><glyph d="M670 1176q-57 0 -96 -33t-50 -90q-16 -84 58 -207l266 -440l246 190l98 -139l-248 -195l168 -262h-242l-86 139l-108 -80q-57 -49 -158.5 -69.5t-214.5 12.5t-172 127q-86 143 -54 283.5t165 246.5l155 111l-28 53q-66 119 -52 249t112.5 209t230.5 79t219 -72.5 t122 -189.5l-161 -70q-25 63 -69 105.5t-101 42.5zM293 240q45 -72 135 -76t164 57l94 70l-199 323l-139 -104q-68 -53 -83 -124.5t28 -145.5z" glyph-name="ampersand" horiz-adv-x="1257" unicode="&amp;"/><glyph d="M207 811v627h266l-186 -627h-80z" glyph-name="quotesingle" horiz-adv-x="430" unicode="'"/><glyph d="M643 -195l-137 -122q-190 184 -286.5 435t-59.5 513t192.5 489.5t397.5 376.5l110 -139q-416 -312 -476 -740t259 -813z" glyph-name="parenleft" horiz-adv-x="815" unicode="("/><glyph d="M221 1374l137 123q190 -184 286 -435t60 -513t-192 -489.5t-397 -376.5l-111 139q416 313 476 740t-259 812z" glyph-name="parenright" horiz-adv-x="815" unicode=")"/><glyph d="M793 1008l-88 -129l-177 143l-10 -238h-151l55 238q-66 -47 -197 -137l-71 133l233 94l-201 105l88 126l175 -141l8 236h151l-55 -234l203 133l67 -133l-233 -96z" glyph-name="asterisk" horiz-adv-x="813" unicode="*"/><glyph d="M596 610l-45 -313h-182l45 313h-305l24 178h305l43 314h183l-43 -314h303l-25 -178h-303z" glyph-name="plus" horiz-adv-x="952" unicode="+"/><glyph d="M383 266v-30l-350 -570l-70 19l156 581h264z" glyph-name="comma" horiz-adv-x="507" unicode=","/><glyph d="M610 422l-534 -90l28 198l535 88z" glyph-name="hyphen" horiz-adv-x="710" unicode="-"/><glyph d="M220 279q62 0 104 -46.5t36 -108.5t-51 -103t-107 -41t-103.5 44t-36.5 106t50.5 105.5t107.5 43.5z" glyph-name="period" horiz-adv-x="507" unicode="."/><glyph d="M-131 -262l940 1784l154 -88l-945 -1782z" glyph-name="slash" horiz-adv-x="872" unicode="/"/><glyph d="M718 1362q232 0 356 -196.5t86 -498.5t-205 -499t-399 -197t-356 201t-86 501t205 494.5t399 194.5zM565 150q135 0 234.5 142t134.5 378q33 236 -27.5 376t-196.5 140t-236.5 -141.5t-134.5 -374.5t28.5 -376.5t197.5 -143.5z" glyph-name="zero" horiz-adv-x="1196" unicode="0"/><glyph d="M240 0l149 1034l-147 -69l-80 168l448 217h33l-188 -1350h-215z" glyph-name="one" horiz-adv-x="700" unicode="1"/><glyph d="M600 1360q168 0 293 -121t98 -330q-18 -156 -127.5 -301t-406.5 -428h456l-24 -180h-875l-10 33q406 358 512 469q238 240 260 399q18 133 -43 206t-158 73q-133 2 -245 -127h-27l-106 118q51 74 160.5 131.5t242.5 57.5z" glyph-name="two" unicode="2"/><glyph d="M416 -29q-221 0 -385 95l65 159l29 2q121 -84 256 -84t232.5 69t100.5 206t-112 208.5t-268 30.5l-21 35l369 459h-457l27 182h766l10 -28l-407 -514q102 -2 210.5 -109t98.5 -276q-10 -203 -151.5 -319t-362.5 -116z" glyph-name="three" horiz-adv-x="1021" unicode="3"/><glyph d="M948 1354l80 -19l-131 -948h188l-24 -170h-189l-30 -217h-211l31 217h-625l-33 62zM336 387h350l74 496z" glyph-name="four" horiz-adv-x="1146" unicode="4"/><glyph d="M399 -29q-135 0 -231 31t-137 66l67 159h27q109 -82 250 -82t239.5 77t100.5 203t-71 192.5t-173 66.5q-130 0 -170.5 -33t-64 -52t-25.5 -21l-45 16l176 739h666l-27 -182h-483l-80 -344q291 73 403.5 -73t110.5 -292q-4 -211 -148.5 -341t-384.5 -130z" glyph-name="five" horiz-adv-x="1032" unicode="5"/><glyph d="M532 -29q-208 0 -330 151.5t-93 401.5q25 170 121.5 364.5t315.5 324.5t435 147l35 -164l-25 -25q-211 -20 -373.5 -147t-236.5 -309q96 106 287 106q152 0 257 -114.5t92 -304.5t-145 -310.5t-340 -120.5zM541 145q111 0 179 72.5t78 184.5t-50 190t-162 78t-179 -72 t-89 -179t50 -190.5t173 -83.5z" glyph-name="six" horiz-adv-x="1097" unicode="6"/><glyph d="M207 1153l24 180h828l14 -30l-713 -1303h-254l652 1153h-551z" glyph-name="seven" horiz-adv-x="991" unicode="7"/><glyph d="M876.5 83.5q-137.5 -114.5 -355.5 -112.5t-343 128t-102 315q14 125 95 221t189 121q-51 31 -85.5 104.5t-22.5 167.5q20 147 134 239.5t285 91.5t269 -105.5t82 -252.5q-12 -96 -61.5 -164.5t-110.5 -95.5q80 -31 137 -130t45 -218q-18 -195 -155.5 -309.5zM348 225 q69 -73 181 -75t195 68.5t93 181t-55.5 181t-177.5 72.5t-194.5 -66.5t-96.5 -178.5t55 -183zM485 860q47 -57 126 -58t142.5 55t72 136t-41 135.5t-127.5 56.5t-140.5 -53.5t-70.5 -134.5t39 -137z" glyph-name="eight" horiz-adv-x="1105" unicode="8"/><glyph d="M637 1360q207 0 330 -152.5t94 -402.5q-27 -170 -122.5 -364t-311 -322t-439.5 -148l-34 162l22 25q213 23 376 149.5t234 308.5q-96 -106 -267 -106t-276 114.5t-91 305.5t146 310.5t339 119.5zM626 1184q-108 0 -177.5 -72t-79.5 -184t51.5 -190.5t163.5 -78.5t179 72 t87 179t-53 190.5t-171 83.5z" glyph-name="nine" horiz-adv-x="1097" unicode="9"/><glyph d="M220 279q62 0 104 -46.5t36 -108.5t-51 -103t-107 -41t-103.5 44t-36.5 106t50.5 105.5t107.5 43.5zM300 862q62 0 103 -46t36 -108t-50 -103.5t-107 -41.5t-103.5 44.5t-36.5 106.5t50.5 105t107.5 43z" glyph-name="colon" horiz-adv-x="514" unicode=":"/><glyph d="M383 266v-30l-350 -570l-70 19l156 581h264zM300 862q62 0 103 -46t36 -108t-50 -103.5t-107 -41.5t-103.5 44.5t-36.5 106.5t50.5 105t107.5 43z" glyph-name="semicolon" horiz-adv-x="512" unicode=";"/><glyph d="M895 229l-809 447l4 37l936 448l-31 -219l-542 -254l471 -256z" glyph-name="less" horiz-adv-x="1052" unicode="&lt;"/><glyph d="M907 436h-815l25 176h815zM956 786h-815l25 179h815z" glyph-name="equal" horiz-adv-x="1001" unicode="="/><glyph d="M215 1161l809 -446l-4 -37l-936 -449l31 220l542 253l-471 256z" glyph-name="greater" horiz-adv-x="1052" unicode=">"/><glyph d="M293 490q0 56 33.5 125t82 117t131.5 122.5t83 152.5q0 77 -44 117.5t-114 40.5q-111 0 -197 -100l-123 135q51 63 146 111.5t225 48.5t237 -87t107 -226q0 -92 -37 -162t-77.5 -105t-88 -73.5t-116.5 -97.5t-88 -189h-158q-2 14 -2 70zM344 279q59 0 100 -41t41 -105 t-45 -108.5t-108 -44.5t-102.5 38.5t-39.5 98.5v14q4 61 49.5 104.5t104.5 43.5z" glyph-name="question" horiz-adv-x="851" unicode="?"/><glyph d="M1309 381q84 0 167 85t103 241q35 246 -132 441t-454 195t-499.5 -184t-257.5 -481q-29 -195 39.5 -365t221.5 -275.5t377 -105.5t443 121l55 -96q-236 -141 -498 -141t-448 122.5t-270 320.5t-54 419q47 346 296 564t590 218t551 -227t167 -526q-29 -211 -149.5 -333 t-274.5 -122q-76 0 -139.5 45t-71.5 98q-35 -57 -102.5 -99t-149.5 -44q-145 -4 -234 105.5t-63 270.5t131 263t256 106q78 2 144.5 -38.5t93.5 -98.5l80 94h94l-125 -397q-25 -76 2 -126t111 -50zM719 472.5q43 -64.5 118 -63.5t134 62t79 155t-21.5 157t-118.5 61 t-135.5 -60.5t-78.5 -152.5t23 -158.5z" glyph-name="at" horiz-adv-x="1718" unicode="@"/><glyph d="M174 0h-242l854 1454h29l438 -1454h-227l-82 293h-602zM743 1020l-309 -549h461z" glyph-name="A" horiz-adv-x="1298" unicode="A"/><glyph d="M92 0l201 1432q258 56 431 10.5t241.5 -133.5t60.5 -226q-4 -104 -64.5 -183t-123.5 -105q100 -25 172.5 -126.5t60.5 -246.5q-25 -268 -274.5 -374.5t-704.5 -47.5zM481 1264l-55 -404h186q78 8 137.5 62.5t66.5 132.5t-27.5 129t-129.5 80.5t-178 -0.5zM401 694 l-71 -512q158 -32 282.5 7.5t179 98t64.5 142.5q16 113 -53.5 184.5t-161.5 79.5h-240z" glyph-name="B" horiz-adv-x="1130" unicode="B"/><glyph d="M813 -29q-311 0 -527 224.5t-190 550.5t254 523t537 197q188 0 340.5 -77.5t222.5 -161.5l-129 -154q-189 201 -421 201t-397 -154t-183 -386t132 -401t382 -169q100 0 207.5 41t179.5 96l102 -160q-199 -170 -510 -170z" glyph-name="C" horiz-adv-x="1398" unicode="C"/><glyph d="M92 0l201 1432q442 63 713 -69.5t316 -422.5t-51 -489t-275 -321t-437 -142.5t-467 12.5zM485 1255l-151 -1075q203 -25 370.5 28.5t279.5 185.5t132 325q14 125 -21.5 232.5t-112.5 184t-206 110.5t-291 9z" glyph-name="D" horiz-adv-x="1363" unicode="D"/><glyph d="M332 180h592l-27 -180h-805l201 1438h780l-24 -183h-566l-49 -354h455l-27 -182h-454z" glyph-name="E" unicode="E"/><glyph d="M307 0h-215l201 1438h770l-25 -183h-555l-49 -354h445l-27 -182h-444z" glyph-name="F" horiz-adv-x="1007" unicode="F"/><glyph d="M832 -29q-316 0 -528 207t-212 508q0 231 115 413.5t295 274.5t372 92t338 -71.5t230 -155.5l-129 -158q-193 193 -422 193t-400.5 -165t-171.5 -399t146.5 -390t374.5 -156q186 0 325 84l37 246h-231l26 178h430l-67 -531q-212 -170 -528 -170z" glyph-name="G" horiz-adv-x="1482" unicode="G"/><glyph d="M860 0l103 719h-553l-103 -719h-215l201 1438h215l-74 -537h555l74 537h215l-201 -1438h-217z" glyph-name="H" horiz-adv-x="1286" unicode="H"/><glyph d="M92 0l201 1438h215l-201 -1438h-215z" glyph-name="I" horiz-adv-x="524" unicode="I"/><glyph d="M446 473l138 965h215l-137 -971q-78 -549 -605 -477l27 182q147 -16 243 60.5t119 240.5z" glyph-name="J" horiz-adv-x="835" unicode="J"/><glyph d="M102 0l201 1438h217l-86 -615l600 615h260l-659 -684l508 -754h-264l-463 698l-97 -698h-217z" glyph-name="K" horiz-adv-x="1218" unicode="K"/><glyph d="M879 180l-27 -180h-760l201 1438h213l-174 -1258h547z" glyph-name="L" horiz-adv-x="968" unicode="L"/><glyph d="M303 0h-211l199 1444l37 10l479 -580l659 580l31 -10l-205 -1444h-215l148 1004l-445 -398h-22l-314 400z" glyph-name="M" horiz-adv-x="1505" unicode="M"/><glyph d="M1087 1438h211l-202 -1438h-211l88 621l-522 440l-150 -1061h-209l203 1442l31 12l682 -580z" glyph-name="N" horiz-adv-x="1304" unicode="N"/><glyph d="M876 1466q314 0 517.5 -219t183.5 -537t-237.5 -528.5t-532.5 -210.5t-518 218.5t-183 536.5t238 529t532 211zM810 166q214 0 371 151.5t173 394.5t-123 403.5t-354 160.5t-373 -155.5t-174 -399.5t125 -399.5t355 -155.5z" glyph-name="O" horiz-adv-x="1605" unicode="O"/><glyph d="M896 1367q235 -147 211 -415t-231.5 -412.5t-498.5 -121.5l-62 -418h-215l203 1430q358 84 593 -63zM494 1255l-91 -645q211 -18 340 76t147 250t-94 254t-302 65z" glyph-name="P" horiz-adv-x="1077" unicode="P"/><glyph d="M876 1466q314 0 517.5 -219t183.5 -536q-12 -195 -103.5 -355.5t-240.5 -259.5l108 -157l-159 -115l-127 186q-123 -39 -254 -39q-309 0 -512 218.5t-183 536.5t238 529t532 211zM811 166q63 0 129 16l-123 185l156 114l147 -217q100 74 163 189.5t73 263.5 q14 238 -125 398.5t-354 160.5t-373 -155.5t-174 -399.5t125 -399.5t356 -155.5z" glyph-name="Q" horiz-adv-x="1605" unicode="Q"/><glyph d="M1100 989q0 -158 -89 -279.5t-223 -183.5l330 -526h-252l-284 467q-98 -12 -199 2l-66 -469h-217l203 1430q350 76 573.5 -46.5t223.5 -394.5zM883 987q0 158 -109.5 228t-279.5 45l-84 -596q109 -20 214 5t182 109t77 209z" glyph-name="R" horiz-adv-x="1165" unicode="R"/><glyph d="M684 1272q-122 0 -187 -53.5t-68 -128.5t51.5 -136t158.5 -131q172 -113 235.5 -228.5t49.5 -248.5q-18 -184 -152.5 -280.5t-337.5 -94.5q-131 2 -235.5 47t-163.5 109l112 156q133 -121 299 -121q111 0 180.5 53t75.5 133q4 49 -7 88t-50 80t-66.5 63.5t-97.5 75.5 q-143 109 -211.5 206t-61.5 239t127 254t333 112q100 0 198.5 -27.5t153.5 -62.5l-78 -184q-136 80 -258 80z" glyph-name="S" horiz-adv-x="1024" unicode="S"/><glyph d="M1106 1438l-25 -183h-356l-176 -1255h-215l176 1255h-354l24 183h926z" glyph-name="T" horiz-adv-x="1005" unicode="T"/><glyph d="M598 162q133 0 223 95t113 253l131 928h219l-129 -926q-33 -238 -175 -389.5t-390 -151.5t-371 156t-90 385l129 926h219l-131 -928q-23 -154 48 -251t204 -97z" glyph-name="U" horiz-adv-x="1265" unicode="U"/><glyph d="M1200 1438h232l-830 -1454h-29l-411 1454h227l262 -981z" glyph-name="V" horiz-adv-x="1304" unicode="V"/><glyph d="M1823 1438h221l-750 -1454h-28l-234 979l-506 -979h-30l-334 1454h225l201 -934l495 950h31l225 -962z" glyph-name="W" horiz-adv-x="1918" unicode="W"/><glyph d="M240 0h-240l532 723l-331 715h243l238 -510l379 510h237l-524 -711l338 -727h-240l-247 522z" glyph-name="X" horiz-adv-x="1214" unicode="X"/><glyph d="M1067 1438h244l-574 -754l-96 -684h-217l96 684l-364 754h237l262 -527z" glyph-name="Y" horiz-adv-x="1179" unicode="Y"/><glyph d="M1006 180l-27 -180h-954l-15 31l854 1226h-608l25 181h915l12 -31l-850 -1227h648z" glyph-name="Z" horiz-adv-x="1140" unicode="Z"/><glyph d="M299 -96h283l-27 -174h-498l240 1708h500l-25 -174l-283 -2z" glyph-name="bracketleft" horiz-adv-x="774" unicode="["/><glyph d="M379 1493l416 -1763l-172 -49l-422 1765z" glyph-name="backslash" horiz-adv-x="872" unicode="\"/><glyph d="M514 1266h-283l27 174h498l-240 -1708h-500l25 174l283 2z" glyph-name="bracketright" horiz-adv-x="774" unicode="]"/><glyph d="M104 1016l416 422h27l295 -443l-140 -100l-192 297l-289 -297z" glyph-name="asciicircum" horiz-adv-x="831" unicode="^"/><glyph d="M1346 -344h-1346v156h1346v-156z" glyph-name="underscore" horiz-adv-x="1345" unicode="_"/><glyph d="M387 1235l117 -272h-152l-225 241l2 31h258z" glyph-name="grave" horiz-adv-x="481" unicode="`"/><glyph d="M367 -27q-137 0 -222.5 79t-82.5 200t96.5 203t238.5 82q82 0 168 -36t121 -77l4 35q14 94 -42 165.5t-156 71.5t-203 -45l-56 152q125 59 284 58t272.5 -112.5t93.5 -308.5l-66 -440h-108l-60 92q-90 -119 -282 -119zM430 121q82 0 153 52t83 124l2 8q-35 35 -98.5 63.5 t-139.5 27.5t-122 -37.5t-52 -96.5t43 -100.5t131 -40.5z" glyph-name="a" horiz-adv-x="942" unicode="a"/><glyph d="M596 -27q-104 0 -185 48.5t-124 138.5l-109 -160h-106l200 1438l189 24h18q-35 -238 -100 -712q111 114 273 114t270 -112t108 -312t-126 -333.5t-308 -133.5zM570 135q102 0 181.5 87t79.5 214t-66.5 196.5t-167.5 69.5t-184 -83t-83 -215t69 -200.5t171 -68.5z" glyph-name="b" horiz-adv-x="1062" unicode="b"/><glyph d="M519 139q110 0 210 84l96 -123q-117 -127 -325 -127t-324 133.5t-102 325.5t149 312t336 120q94 0 183 -42t139 -105l-113 -127q-35 43 -93.5 77.5t-123.5 34.5q-115 0 -195 -80.5t-87 -203.5t66.5 -201t183.5 -78z" glyph-name="c" horiz-adv-x="876" unicode="c"/><glyph d="M465 -27q-174 0 -283.5 112.5t-109.5 312.5t126 333t320 133t291 -174l104 748l189 24h18l-207 -1462h-102l-66 100q-106 -127 -280 -127zM506 133q102 0 183 86.5t81 216.5t-66 198t-170 68t-185 -86t-81 -213t68 -198.5t170 -71.5z" glyph-name="d" unicode="d"/><glyph d="M554 131q120 0 228 80l84 -131q-127 -106 -333 -106t-332.5 119t-126.5 313t137 326t327 132t292 -137.5t77 -327.5h-639l-2 -22q0 -109 84 -177.5t204 -68.5zM721 528q0 72 -56.5 125.5t-139.5 53.5t-149.5 -58t-80.5 -121h426z" glyph-name="e" horiz-adv-x="948" unicode="e"/><glyph d="M494 1116l-39 -278h204l-22 -162h-205l-96 -676h-201l96 676h-129l2 20l56 142h94l43 295q39 257 196.5 306t268.5 17l-37 -170q-80 23 -148.5 -21.5t-82.5 -148.5z" glyph-name="f" horiz-adv-x="649" unicode="f"/><glyph d="M390 -541q-206 0 -333 75t-125 208q2 98 80 170t170 94q-39 10 -69.5 51t-22.5 97t61.5 98.5t133.5 36.5q-63 31 -104.5 108.5t-35.5 151.5q10 123 107.5 219t267.5 96q76 0 154 -28.5t110 -71.5l224 74h32l-26 -183h-180q23 -33 22 -94q-10 -147 -108.5 -234t-270.5 -88 t-182 -85q-6 -37 32 -59.5t101 -26.5q449 -27 457 -275q4 -154 -142.5 -244t-352.5 -90zM384 -383q118 0 209 43t88 116t-91 102.5t-188 28.5t-183.5 -43t-87.5 -112t65.5 -102.5t187.5 -32.5zM491 387q74 0 121.5 47.5t53.5 111.5t-39 114.5t-119 50.5t-121 -49.5 t-53 -112.5t38.5 -112.5t118.5 -49.5z" glyph-name="g" horiz-adv-x="995" unicode="g"/><glyph d="M633 864q154 0 246 -104.5t69 -261.5l-67 -498h-205l67 483q14 98 -39 156.5t-131 58.5t-141 -48t-86 -128l-72 -522h-204l204 1438l189 24h16l-102 -723q102 125 256 125z" glyph-name="h" horiz-adv-x="1005" unicode="h"/><glyph d="M82 0l119 838h200l-116 -838h-203zM355 1325q58 0 98.5 -44t34.5 -104t-48.5 -99.5t-100.5 -39.5t-98 42.5t-35 102.5t48 101t101 41z" glyph-name="i" horiz-adv-x="450" unicode="i"/><glyph d="M55 -176l144 1014h200l-145 -1031q-14 -109 -68.5 -185.5t-121 -105t-141.5 -38.5t-132 12l35 168q84 -18 150.5 27t78.5 139zM355 1325q58 0 99.5 -44t35.5 -104t-48.5 -99.5t-101.5 -39.5t-99 42.5t-35 102.5t48 101t101 41z" glyph-name="j" horiz-adv-x="452" unicode="j"/><glyph d="M479 1462l-133 -946l361 322h254l-443 -404l342 -434h-242l-292 373l-54 -373h-200l202 1438l189 24h16z" glyph-name="k" horiz-adv-x="923" unicode="k"/><glyph d="M479 1462l-207 -1462h-200l202 1438l189 24h16z" glyph-name="l" horiz-adv-x="434" unicode="l"/><glyph d="M595 864q81 0 147.5 -45t93.5 -114q39 76 113.5 117.5t156.5 41.5q137 0 213 -97t55 -245l-74 -522h-202l71 508q12 92 -27.5 138t-103.5 46t-114 -46t-66 -134l-74 -512h-202l71 504q12 92 -28.5 140t-106.5 48t-116 -50t-62 -142l-72 -500h-202l118 838h109l69 -95 q31 49 91.5 85t141.5 36z" glyph-name="m" horiz-adv-x="1427" unicode="m"/><glyph d="M631 864q152 0 244 -104.5t69 -261.5l-67 -498h-205l67 483q14 98 -39 156.5t-135 58.5t-149.5 -58t-79.5 -155l-70 -485h-200l118 838h107l69 -105q41 55 116 93t155 38z" glyph-name="n" horiz-adv-x="1001" unicode="n"/><glyph d="M496 -27q-188 0 -312 124t-110 324t147 321.5t321 121.5t311.5 -121.5t112.5 -322.5t-146.5 -324t-323.5 -123zM499 135q103 0 182 79t87 206t-59.5 204.5t-172 77.5t-182.5 -76.5t-86 -204.5t60 -207t171 -79z" glyph-name="o" horiz-adv-x="999" unicode="o"/><glyph d="M596 -27q-213 0 -299 166q-25 -178 -90 -624l-189 -27h-16l191 1348h104l63 -111q115 137 286 137t279.5 -112t108.5 -312t-128 -332.5t-310 -132.5zM574 133q102 0 182 88t80 215t-67 196.5t-168 69.5t-184 -82.5t-83 -236.5q0 -113 69 -181.5t171 -68.5z" glyph-name="p" horiz-adv-x="1067" unicode="p"/><glyph d="M459 -27q-166 0 -274.5 115.5t-108.5 311.5t123 328t299 132q236 0 321 -168l109 146h108l-188 -1323l-189 -27h-18l86 586q-102 -101 -268 -101zM512 133q102 0 182 87.5t80 217.5t-66 197t-170 67t-185 -86t-81 -213t69 -198.5t171 -71.5z" glyph-name="q" horiz-adv-x="1067" unicode="q"/><glyph d="M563 862q59 0 113 -31q-4 -8 -29.5 -96t-42.5 -88q-41 23 -92 23q-92 0 -162 -92q-29 -193 -82 -578h-202q35 240 118 838h113l72 -88q29 49 82 80.5t112 31.5z" glyph-name="r" horiz-adv-x="634" unicode="r"/><glyph d="M461 698q-135 0 -144 -88q-2 -35 34 -58.5t108 -43.5q137 -39 206.5 -116.5t57.5 -189.5t-111.5 -170.5t-225.5 -58.5t-218 26t-133 54l65 160q27 -18 114 -48t155 -30q164 0 170 88q2 39 -33 62.5t-121 50.5q-276 84 -256 282q12 119 114.5 182.5t246.5 63.5t278 -61 l-57 -160q-115 55 -250 55z" glyph-name="s" horiz-adv-x="804" unicode="s"/><glyph d="M447 150q37 0 71 10l19 -160q-59 -14 -121 -14q-129 0 -203 71.5t-55 192.5l59 426h-141q2 8 2 20l55 142h105l41 284l188 29h16l-43 -313h199l-23 -162h-198l-58 -426q-8 -51 21 -75.5t66 -24.5z" glyph-name="t" horiz-adv-x="628" unicode="t"/><glyph d="M403 -27q-152 0 -243.5 104.5t-69.5 262.5l70 498h202l-67 -484q-12 -98 41 -156.5t134 -58.5t149.5 57.5t80.5 155.5l68 486h203l-119 -838h-109l-69 102q-39 -55 -114 -92t-157 -37z" glyph-name="u" horiz-adv-x="995" unicode="u"/><glyph d="M768 838h217l-557 -854h-31l-321 854h215l166 -478z" glyph-name="v" horiz-adv-x="919" unicode="v"/><glyph d="M1196 838h209l-508 -854h-29l-178 524l-321 -524h-29l-264 854h203l131 -461l313 481h31l168 -479z" glyph-name="w" horiz-adv-x="1339" unicode="w"/><glyph d="M1001 838l-383 -422l267 -416h-230l-174 260l-239 -260h-240l381 418l-266 420h233l170 -265l246 265h235z" glyph-name="x" horiz-adv-x="950" unicode="x"/><glyph d="M784 838h211l-792 -1354h-201l-12 20l350 590l-252 744h215l170 -521z" glyph-name="y" horiz-adv-x="929" unicode="y"/><glyph d="M764 162l-23 -162h-725l-12 37l533 639h-408l21 162h712l6 -41l-516 -635h412z" glyph-name="z" horiz-adv-x="847" unicode="z"/><glyph d="M616 -96q23 0 54 6l14 -178q-76 -16 -129 -17q-154 0 -235.5 94.5t-65.5 219.5l41 319q8 66 -32 109t-130 43h-49l22 164h48q124 0 165 73.5t52 163.5l20 148q23 174 113 287.5t268 115.5q72 0 152 -20l-47 -179q-35 8 -70 9q-168 -1 -199 -224l-24 -170 q-33 -229 -217 -286q170 -63 141 -263l-37 -239q-10 -66 22.5 -121t122.5 -55z" glyph-name="braceleft" horiz-adv-x="897" unicode="{"/><glyph d="M205 -268v1732h194v-1732h-194z" glyph-name="bar" horiz-adv-x="563" unicode="|"/><glyph d="M121 -94q167 0 198 223l25 170q33 229 217 287q-170 63 -141 262l37 239q10 66 -23 121.5t-123 55.5q-23 0 -53 -7l-14 179q76 16 129 16q154 0 235.5 -94t65.5 -219l-41 -320q-8 -66 32 -108.5t130 -42.5h49l-23 -164h-47q-124 0 -165.5 -74.5t-51.5 -163.5l-20 -147 q-23 -174 -113 -288t-268 -116q-72 0 -152 21q30 118 47 178q35 -8 70 -8z" glyph-name="braceright" horiz-adv-x="897" unicode="}"/><glyph d="M290 639q70 0 162.5 -34t131.5 -34q82 0 131 58l82 -11q-6 -127 -81.5 -186t-143.5 -59t-159 33.5t-130 33.5q-92 0 -133 -57l-82 10q10 135 81 190.5t141 55.5z" glyph-name="asciitilde" horiz-adv-x="866" unicode="~"/><glyph d="M375 457l-39 -914h-305l235 914h109zM352 598q-62 0 -103.5 46t-36.5 108t50.5 103.5t107.5 41.5t103 -44.5t36 -106.5t-50 -105t-107 -43z" glyph-name="exclamdown" horiz-adv-x="618" unicode="¡"/><glyph d="M72 664q0 190 111.5 318t285.5 153q23 162 35 260h174q-27 -197 -35 -260q156 -29 238 -131q-2 -2 -121 -127q-80 106 -202 106t-207 -85t-85 -209t72 -197.5t184 -73.5t209 82l94 -119q-135 -125 -307 -125l-35 -256h-174l39 276q-127 41 -201.5 147.5t-74.5 240.5z" glyph-name="cent" horiz-adv-x="870" unicode="¢"/><glyph d="M672 154q68 0 132 35.5t105 86.5l117 -129q-59 -94 -160.5 -135t-199.5 -41q-193 0 -295 95q-60 -44 -113 -55t-92 -14t-58.5 -2t-49 3t-31.5 2l8 168q168 -8 253 79t58 202h-201l25 178h145q-4 10 -53 129.5t-35 236.5q18 176 140 271.5t295 95.5q121 0 226 -62.5 t142 -162.5l-162 -88q-23 55 -84 95t-137 40t-139.5 -49t-73.5 -129t7.5 -145.5t48 -132.5t38.5 -99h230l-25 -178h-174q10 -143 -59 -230q35 -37 69.5 -51t102.5 -14z" glyph-name="sterling" horiz-adv-x="1081" unicode="£"/><glyph d="M636 221q-150 0 -269 92q-147 -135 -152 -139l-123 135l156 142q-63 106 -64 235q0 182 113 326l-111 131l146 123l106 -125q127 80 273 80t270 -93l145 138l123 -136l-153 -141q63 -121 63 -235q0 -184 -110 -332l106 -123l-143 -125l-105 121q-121 -74 -271 -74z M658 395q130 0 224.5 104.5t94.5 233.5t-80 220t-208 91t-225 -103.5t-97 -234.5t80.5 -221t210.5 -90z" glyph-name="currency" horiz-adv-x="1255" unicode="¤"/><glyph d="M1073 637h-332l-20 -137h334l-25 -166h-332l-47 -334h-215l45 334h-334l25 166h334l18 137h-334l25 168h238l-289 528h229l266 -483l402 483h242l-439 -528h234z" glyph-name="yen" horiz-adv-x="1206" unicode="¥"/><glyph d="M205 760v704h194v-704h-194zM205 -268v704h194v-704h-194z" glyph-name="brokenbar" horiz-adv-x="563" unicode="¦"/><glyph d="M588 1184q-76 0 -127 -38t-60 -97q-14 -109 138 -175q190 -68 266 -160.5t59 -226.5q-8 -74 -60 -137t-122 -90q47 -39 75.5 -106.5t20.5 -141.5q-16 -150 -135 -229.5t-289 -79.5q-111 0 -215 35t-147 69l78 170q170 -92 305 -92q78 0 129 33t57 94q12 100 -155 185 q-328 127 -306 360q10 78 61.5 146.5t129.5 93.5q-111 99 -97 249t130 232t292 82t306 -86l-72 -172q-141 82 -262 82zM315 557q-10 -111 166 -182q55 -2 110.5 30.5t61.5 100.5q10 121 -172 190q-53 2 -106.5 -33.5t-59.5 -105.5z" glyph-name="section" horiz-adv-x="944" unicode="§"/><glyph d="M251 1219q48 0 81 -35t28.5 -84t-39 -80t-81.5 -31t-79 33t-30 82q4 49 38 82t82 33zM572 1219q48 0 81 -35t29 -84t-39 -80t-82 -31t-78.5 33t-29.5 82q4 49 37.5 82t81.5 33z" glyph-name="dieresis" horiz-adv-x="643" unicode="¨"/><glyph d="M870 958q-100 0 -163.5 -69.5t-63.5 -172t67.5 -171t171.5 -68.5t187 84l88 -86q-55 -70 -138 -101.5t-157 -31.5q-170 0 -276.5 111.5t-106.5 266.5t105.5 265.5t273.5 110.5q84 0 164 -38t125 -91l-88 -99q-89 90 -189 90zM98 718q0 310 211 526t526.5 216t526.5 -216 t211 -526t-211 -525.5t-526.5 -215.5t-526.5 215.5t-211 525.5zM229 717q0 -264 175.5 -447.5t434.5 -183.5t435 184.5t176 447.5t-176 446.5t-436 183.5t-434.5 -183.5t-174.5 -447.5z" glyph-name="copyright" horiz-adv-x="1597" unicode="©"/><glyph d="M384 899q-128 0 -193.5 71.5t-55.5 167.5t82 150.5t175 54.5t216 -59l8 27q12 61 -29.5 120.5t-123.5 59.5t-156 -35l-47 109q102 53 228 51t211.5 -87t62.5 -239l-53 -372h-80l-54 71q-63 -90 -191 -90zM442 1229q-143 0 -155 -96q-6 -53 32.5 -82t94.5 -29t107 31.5 t63 62.5l10 64q-88 49 -152 49z" glyph-name="ordfeminine" horiz-adv-x="720" unicode="ª"/><glyph d="M412 -33l-351 418l7 33l464 473l127 -121l-378 -377l266 -315zM842 -33l-350 418l6 33l465 473l127 -121l-379 -377l266 -315z" glyph-name="guillemotleft" horiz-adv-x="1134" unicode="«"/><glyph d="M86 418l27 178h788l-49 -334h-182l22 156h-606z" glyph-name="logicalnot" horiz-adv-x="972" unicode="¬"/><glyph d="M782 1098q160 0 251 -73.5t91 -189.5t-110 -192l160 -281h-168l-127 232q-27 -6 -60 -6t-69 4v-230h-148l-2 713q90 23 182 23zM801 713q80 0 124 35.5t44 91t-44 87t-118 31.5q-16 0 -57 -4v-237q37 -4 51 -4zM98 718q0 310 211 526t526.5 216t526.5 -216t211 -526 t-211 -525.5t-526.5 -215.5t-526.5 215.5t-211 525.5zM229 717q0 -264 175.5 -447.5t434.5 -183.5t435 184.5t176 447.5t-176 446.5t-436 183.5t-434.5 -183.5t-174.5 -447.5z" glyph-name="registered" horiz-adv-x="1597" unicode="®"/><glyph d="M639 1028h-508l23 148h508z" glyph-name="macron" horiz-adv-x="632" unicode="¯"/><glyph d="M479 1466q131 0 224 -95t81 -238t-110.5 -235.5t-240.5 -92.5t-229 93t-75 236.5t115.5 237.5t234.5 94zM440 950q74 0 126 53.5t60.5 131t-35.5 130t-119 52.5t-126 -52.5t-59 -130t35.5 -131t117.5 -53.5z" glyph-name="degree" horiz-adv-x="724" unicode="°"/><glyph d="M465 911l31 211h182l-31 -211h307l-24 -168h-305q-20 -135 -29 -202h-182q8 68 28 202h-305l23 168h305zM860 258h-792l24 166h791z" glyph-name="plusminus" horiz-adv-x="980" unicode="±"/><glyph d="M291 1415l-78 68q61 106 183 129.5t217.5 -45t84.5 -197.5q-6 -81 -56.5 -149.5t-86 -99.5t-73.5 -66t-50 -45h246l-16 -121h-539l-8 29q279 219 334 272q104 98 109 171t-42 108.5t-110.5 20.5t-96.5 -75h-18z" glyph-name="uni00B2" horiz-adv-x="677" unicode="²"/><glyph d="M374 868q-128 0 -237 62l47 108h23q77 -47 149 -47t122 31.5t58 95.5t-54 106t-167 11l-18 25l203 223h-264l16 116h471l8 -28l-215 -248q70 -8 120 -64.5t44 -154.5t-92 -167t-214 -69z" glyph-name="uni00B3" horiz-adv-x="677" unicode="³"/><glyph d="M127 963l129 272h258l-2 -31l-233 -241h-152z" glyph-name="acute" horiz-adv-x="481" unicode="´"/><glyph d="M434 -27q-92 0 -153 58q-14 -86 -37 -258t-37 -258l-189 -27h-16l188 1350h203l-67 -484q-12 -98 41 -156.5t134 -58.5t149.5 57.5t80.5 155.5l68 486h202l-118 -838h-109l-69 102q-104 -129 -271 -129z" glyph-name="uni00B5" horiz-adv-x="1030" unicode="µ"/><glyph d="M690 1436h481l-24 -181h-125l-215 -1523h-174l215 1523h-88l-217 -1523h-174l120 858q-145 25 -251.5 150.5t-80.5 303.5t171 285t362 107z" glyph-name="paragraph" horiz-adv-x="1110" unicode="¶"/><glyph d="M277 692q62 0 103.5 -46t36.5 -108t-50 -103.5t-107 -41.5t-103.5 44.5t-36.5 106.5t50 105t107 43z" glyph-name="periodcentered" horiz-adv-x="512" unicode="·"/><glyph d="M129 20l66 23q59 -4 109 -70.5t42 -142.5q-12 -133 -139 -187.5t-262 -15.5l26 160q112 -20 158.5 11.5t52.5 76.5q10 76 -57 125z" glyph-name="cedilla" horiz-adv-x="479" unicode="¸"/><glyph d="M276 889l78 543l-104 -50l-49 103l288 133h27l-102 -729h-138z" glyph-name="uni00B9" horiz-adv-x="514" unicode="¹"/><glyph d="M456.5 899q-141.5 0 -223 103.5t-66.5 257.5t110.5 256t236.5 102t223 -104.5t67 -258.5t-110.5 -255t-237 -101zM464 1024q83 0 132 71.5t58 162.5t-26.5 163t-119.5 72t-134 -71.5t-58 -161.5t28.5 -163t119.5 -73z" glyph-name="ordmasculine" horiz-adv-x="747" unicode="º"/><glyph d="M287 891l350 -418l-6 -33l-465 -473l-127 121l379 377l-266 315zM717 891l350 -418l-6 -33l-465 -473l-127 121l379 377l-266 315z" glyph-name="guillemotright" horiz-adv-x="1134" unicode="»"/><glyph d="M156 37l1239 1395l80 -76l-1239 -1391zM274 684l78 543l-104 -49l-49 102l288 133h27l-102 -729h-138zM1286 733l47 -20l-67 -492h92l-15 -112h-94l-14 -109h-137l14 109h-350l-25 47zM954 221h174l35 234z" glyph-name="onequarter" horiz-adv-x="1517" unicode="¼"/><glyph d="M156 37l1239 1395l80 -76l-1239 -1391zM272 684l78 543l-104 -49l-49 102l288 133h27l-102 -729h-138zM1063 526l-78 68q61 106 183 130t217.5 -45t84.5 -198q-6 -81 -56.5 -149.5t-86 -99.5t-73 -66t-50.5 -45h246l-16 -121h-539l-8 29q279 219 334 272q104 98 109 171 t-42 108.5t-110.5 20.5t-96.5 -75h-18z" glyph-name="onehalf" horiz-adv-x="1611" unicode="½"/><glyph d="M242 37l1239 1395l80 -76l-1239 -1391zM1372 733l47 -20l-67 -492h92l-14 -112h-95l-14 -109h-137l14 109h-350l-25 47zM1040 221h174l35 234zM362 664q-130 0 -235 61l47 109h23q78 -48 149 -48t121.5 32t57.5 96t-54 105.5t-166 10.5l-18 25l202 223h-264l17 117h471 l8 -29l-215 -248q70 -8 120 -64.5t44 -154.5t-92 -166.5t-216 -68.5z" glyph-name="threequarters" horiz-adv-x="1601" unicode="¾"/><glyph d="M496 388q0 -56 -34 -125.5t-82 -118t-131 -122.5t-83 -151q0 -78 44 -119t114 -41q111 0 196 101l123 -136q-51 -63 -145.5 -111t-224.5 -48t-237.5 87t-107.5 226q0 92 37 161.5t78 104.5t88 74t117 98.5t88 188.5h158q2 -13 2 -69zM444 598q-60 0 -100.5 41t-40.5 105 t44.5 108.5t108.5 44.5t103 -39t39 -98v-15q-4 -61 -49 -104t-105 -43z" glyph-name="questiondown" horiz-adv-x="729" unicode="¿"/><glyph d="M174 0h-242l854 1454h29l438 -1454h-227l-82 293h-602zM743 1020l-309 -549h461zM758 1812l116 -272h-151l-225 242l2 30h258z" glyph-name="Agrave" horiz-adv-x="1304" unicode="À"/><glyph d="M174 0h-242l854 1454h29l438 -1454h-227l-82 293h-602zM743 1020l-309 -549h461zM737 1540l129 272h258l-2 -30l-233 -242h-152z" glyph-name="Aacute" horiz-adv-x="1304" unicode="Á"/><glyph d="M174 0h-242l854 1454h29l438 -1454h-227l-82 293h-602zM743 1020l-309 -549h461zM934 1540l-107 119l-133 -119h-157q18 23 204 272h211l133 -272h-151z" glyph-name="Acircumflex" horiz-adv-x="1304" unicode="Â"/><glyph d="M174 0h-242l854 1454h29l438 -1454h-227l-82 293h-602zM743 1020l-309 -549h461zM700 1786q58 0 126.5 -26.5t95.5 -26.5q55 0 86 47l79 -25q-10 -92 -64.5 -140t-110.5 -48t-125.5 27.5t-98.5 27.5t-45.5 -10t-32.5 -39l-80 24q8 98 60 143.5t110 45.5z" glyph-name="Atilde" horiz-adv-x="1304" unicode="Ã"/><glyph d="M174 0h-242l854 1454h29l438 -1454h-227l-82 293h-602zM743 1020l-309 -549h461zM669 1796q48 0 80.5 -35t28.5 -84t-38.5 -79.5t-82 -30.5t-79 32.5t-29.5 81.5q4 49 38 82t82 33zM990 1796q48 0 81 -35t29 -84t-39 -79.5t-82 -30.5t-79 32.5t-30 81.5q4 49 38 82t82 33 z" glyph-name="Adieresis" horiz-adv-x="1304" unicode="Ä"/><glyph d="M831.5 1823q100.5 0 168 -72t60.5 -166t-60.5 -158.5t-133.5 -87.5l387 -1339h-227l-82 293h-602l-168 -293h-242l770 1348q-66 27 -102.5 88t-28.5 139q8 106 84 177t176.5 71zM743 1030l-309 -559h461zM802 1446q52 0 91 38t43 92t-27 91t-83 37t-90 -37t-43 -91 t26 -92t83 -38z" glyph-name="Aring" horiz-adv-x="1304" unicode="Å"/><glyph d="M1167 180h590l-24 -180h-807l41 291h-547l-256 -291h-264l1226 1438h781l-25 -183h-565l-49 -348h454l-24 -182h-455zM567 475h424l92 610z" glyph-name="AE" horiz-adv-x="1894" unicode="Æ"/><glyph d="M510 -213q195 -35 212 97q7 54 -36 98q-270 43 -443 253.5t-149 503.5q31 330 257.5 528.5t535.5 198.5q195 0 341 -73.5t222 -163.5l-127 -154q-70 76 -183.5 138.5t-248.5 62.5q-221 0 -386 -149t-185 -383t124 -406t378 -172t390 131l105 -160q-188 -156 -473 -166 q49 -68 41 -141q-12 -133 -139.5 -187.5t-262.5 -15.5z" glyph-name="Ccedilla" horiz-adv-x="1398" unicode="Ç"/><glyph d="M332 180h592l-27 -180h-805l201 1438h780l-24 -183h-566l-49 -354h455l-27 -182h-454zM711 1812l116 -272h-151l-225 242l2 30h258z" glyph-name="Egrave" unicode="È"/><glyph d="M332 180h592l-27 -180h-805l201 1438h780l-24 -183h-566l-49 -354h455l-27 -182h-454zM555 1540l129 272h258l-2 -30l-233 -242h-152z" glyph-name="Eacute" unicode="É"/><glyph d="M332 180h592l-27 -180h-805l201 1438h780l-24 -183h-566l-49 -354h455l-27 -182h-454zM821 1540l-106 119l-133 -119h-158q18 23 205 272h211l133 -272h-152z" glyph-name="Ecircumflex" unicode="Ê"/><glyph d="M332 180h592l-27 -180h-805l201 1438h780l-24 -183h-566l-49 -354h455l-27 -182h-454zM560 1796q48 0 81 -35t29 -84t-39 -79.5t-82 -30.5t-79 32.5t-30 81.5q4 49 38 82t82 33zM882 1796q48 0 80.5 -35t28.5 -84t-38.5 -79.5t-82 -30.5t-79 32.5t-29.5 81.5q4 49 38 82 t82 33z" glyph-name="Edieresis" unicode="Ë"/><glyph d="M92 0l201 1438h215l-201 -1438h-215zM369 1812l116 -272h-151l-225 242l2 30h258z" glyph-name="Igrave" horiz-adv-x="524" unicode="Ì"/><glyph d="M92 0l201 1438h215l-201 -1438h-215zM326 1540l129 272h258l-2 -30l-234 -242h-151z" glyph-name="Iacute" horiz-adv-x="524" unicode="Í"/><glyph d="M92 0l201 1438h215l-201 -1438h-215zM530 1540l-106 119l-133 -119h-158q16 23 205 272h211l133 -272h-152z" glyph-name="Icircumflex" horiz-adv-x="524" unicode="Î"/><glyph d="M92 0l201 1438h215l-201 -1438h-215zM273 1796q48 0 81 -35t29 -84t-39 -79.5t-82 -30.5t-78.5 32.5t-29.5 81.5q4 49 37.5 82t81.5 33zM595 1796q48 0 81 -35t28.5 -84t-39 -79.5t-81.5 -30.5t-79 32.5t-30 81.5q4 49 38 82t82 33z" glyph-name="Idieresis" horiz-adv-x="524" unicode="Ï"/><glyph d="M141 0l88 625h-190l24 178h191l88 629q442 63 668.5 -47.5t340 -368.5t-5 -509.5t-297.5 -374.5t-438.5 -144t-468.5 12zM535 1255l-64 -452h352l-24 -178h-355l-61 -445q311 -37 531.5 106.5t252.5 432.5q14 125 -21.5 232.5t-112.5 184t-206.5 110.5t-291.5 9z" glyph-name="Eth" horiz-adv-x="1415" unicode="Ð"/><glyph d="M1087 1438h211l-202 -1438h-211l88 621l-522 440l-150 -1061h-209l203 1442l31 12l682 -580zM700 1786q58 0 126.5 -26.5t95.5 -26.5q55 0 86 47l79 -25q-10 -92 -64.5 -140t-110.5 -48t-125.5 27.5t-98.5 27.5t-45.5 -10t-32.5 -39l-80 24q8 98 60 143.5t110 45.5z" glyph-name="Ntilde" horiz-adv-x="1314" unicode="Ñ"/><glyph d="M882 1466q314 0 518 -219t184 -537t-238 -528.5t-533 -210.5t-517.5 218.5t-182.5 536.5t237.5 529t531.5 211zM816 166q214 0 372 151.5t173 394.5t-124 403.5t-354 160.5t-373 -155.5t-174 -399.5t125 -399.5t355 -155.5zM864 1812l117 -272h-152l-225 242l2 30h258z " glyph-name="Ograve" horiz-adv-x="1601" unicode="Ò"/><glyph d="M882 1466q314 0 518 -219t184 -537t-238 -528.5t-533 -210.5t-517.5 218.5t-182.5 536.5t237.5 529t531.5 211zM816 166q214 0 372 151.5t173 394.5t-124 403.5t-354 160.5t-373 -155.5t-174 -399.5t125 -399.5t355 -155.5zM829 1540l129 272h259l-3 -30l-233 -242h-152z " glyph-name="Oacute" horiz-adv-x="1601" unicode="Ó"/><glyph d="M882 1466q314 0 518 -219t184 -537t-238 -528.5t-533 -210.5t-517.5 218.5t-182.5 536.5t237.5 529t531.5 211zM816 166q214 0 372 151.5t173 394.5t-124 403.5t-354 160.5t-373 -155.5t-174 -399.5t125 -399.5t355 -155.5zM1040 1540l-106 119l-133 -119h-158 q16 23 205 272h211l133 -272h-152z" glyph-name="Ocircumflex" horiz-adv-x="1601" unicode="Ô"/><glyph d="M882 1466q314 0 518 -219t184 -537t-238 -528.5t-533 -210.5t-517.5 218.5t-182.5 536.5t237.5 529t531.5 211zM816 166q214 0 372 151.5t173 394.5t-124 403.5t-354 160.5t-373 -155.5t-174 -399.5t125 -399.5t355 -155.5zM828 1786q58 0 127 -26.5t96 -26.5q55 0 86 47 l80 -25q-10 -92 -64.5 -140t-110.5 -48t-126 27.5t-99 27.5t-45.5 -10t-32.5 -39l-80 24q8 98 59.5 143.5t109.5 45.5z" glyph-name="Otilde" horiz-adv-x="1601" unicode="Õ"/><glyph d="M882 1466q314 0 518 -219t184 -537t-238 -528.5t-533 -210.5t-517.5 218.5t-182.5 536.5t237.5 529t531.5 211zM816 166q214 0 372 151.5t173 394.5t-124 403.5t-354 160.5t-373 -155.5t-174 -399.5t125 -399.5t355 -155.5zM783 1796q48 0 81 -35t29 -84t-39 -79.5 t-82 -30.5t-78.5 32.5t-29.5 81.5q4 49 37.5 82t81.5 33zM1105 1796q48 0 81 -35t28.5 -84t-39 -79.5t-81.5 -30.5t-79 32.5t-30 81.5q4 49 38 82t82 33z" glyph-name="Odieresis" horiz-adv-x="1601" unicode="Ö"/><glyph d="M526 815l281 256l104 -123l-282 -256l217 -258l-137 -121l-211 256l-281 -254l-111 123l287 258l-215 258l137 117z" glyph-name="multiply" horiz-adv-x="948" unicode="×"/><glyph d="M885 1466q186 0 338 -82l155 228l127 -80l-157 -234q119 -104 180 -256.5t49 -330.5q-23 -319 -240 -529.5t-540 -210.5q-164 0 -310 68l-184 -268l-123 84l180 264q-131 102 -199.5 260t-54.5 342q25 322 243 533.5t536 211.5zM508 1120.5q-158 -155.5 -178 -409.5 t151 -414l627 917q-106 61 -229 62q-213 0 -371 -155.5zM805 166q211 0 372 152.5t177 395.5t-131 400l-619 -901q90 -47 201 -47z" glyph-name="Oslash" horiz-adv-x="1605" unicode="Ø"/><glyph d="M598 162q133 0 223 95t113 253l131 928h219l-129 -926q-33 -238 -175 -389.5t-390 -151.5t-371 156t-90 385l129 926h219l-131 -928q-23 -154 48 -251t204 -97zM745 1812l117 -272h-151l-226 242l2 30h258z" glyph-name="Ugrave" horiz-adv-x="1265" unicode="Ù"/><glyph d="M598 162q133 0 223 95t113 253l131 928h219l-129 -926q-33 -238 -175 -389.5t-390 -151.5t-371 156t-90 385l129 926h219l-131 -928q-23 -154 48 -251t204 -97zM676 1540l129 272h258l-2 -30l-234 -242h-151z" glyph-name="Uacute" horiz-adv-x="1265" unicode="Ú"/><glyph d="M598 162q133 0 223 95t113 253l131 928h219l-129 -926q-33 -238 -175 -389.5t-390 -151.5t-371 156t-90 385l129 926h219l-131 -928q-23 -154 48 -251t204 -97zM895 1540l-107 119l-133 -119h-157q16 23 204 272h211l134 -272h-152z" glyph-name="Ucircumflex" horiz-adv-x="1265" unicode="Û"/><glyph d="M598 162q133 0 223 95t113 253l131 928h219l-129 -926q-33 -238 -175 -389.5t-390 -151.5t-371 156t-90 385l129 926h219l-131 -928q-23 -154 48 -251t204 -97zM640 1796q48 0 81 -35t28.5 -84t-39 -79.5t-81.5 -30.5t-79 32.5t-30 81.5q4 49 38 82t82 33zM962 1796 q48 0 80.5 -35t28.5 -84t-39 -79.5t-82 -30.5t-78.5 32.5t-29.5 81.5q4 49 38 82t82 33z" glyph-name="Udieresis" horiz-adv-x="1265" unicode="Ü"/><glyph d="M1067 1438h244l-574 -754l-96 -684h-217l96 684l-364 754h237l262 -527zM633 1540l129 272h258l-2 -30l-234 -242h-151z" glyph-name="Yacute" horiz-adv-x="1179" unicode="Ý"/><glyph d="M528 1231q238 0 393.5 -127t155.5 -344q0 -266 -185 -412.5t-486 -146.5q-41 0 -62 2l-27 -203h-217l201 1438h215l-27 -207h39zM436 395q199 0 316.5 94.5t117.5 236.5t-89 229t-255 87q-18 0 -63 -4q-35 -238 -88 -641q20 -2 61 -2z" glyph-name="Thorn" horiz-adv-x="1087" unicode="Þ"/><glyph d="M483 143q100 0 173 74t78 190t-67.5 192.5t-191.5 68.5l-20 37l252 438q4 59 -32 101t-98 42t-100.5 -47t-50.5 -125l-158 -1114h-200l155 1112q27 170 117 265.5t247.5 95.5t245 -100.5t87.5 -217.5l-228 -389q104 -18 180 -124.5t63 -271.5t-133 -279t-300 -114 q-109 0 -160 19l47 160q49 -13 94 -13z" glyph-name="germandbls" horiz-adv-x="966" unicode="ß"/><glyph d="M367 -27q-137 0 -222.5 79t-82.5 200t96.5 203t238.5 82q82 0 168 -36t121 -77l4 35q14 94 -42 165.5t-156 71.5t-203 -45l-56 152q125 59 284 58t272.5 -112.5t93.5 -308.5l-66 -440h-108l-60 92q-90 -119 -282 -119zM430 121q82 0 153 52t83 124l2 8q-35 35 -98.5 63.5 t-139.5 27.5t-122 -37.5t-52 -96.5t43 -100.5t131 -40.5zM545 1235l117 -272h-152l-225 241l2 31h258z" glyph-name="agrave" horiz-adv-x="942" unicode="à"/><glyph d="M367 -27q-137 0 -222.5 79t-82.5 200t96.5 203t238.5 82q82 0 168 -36t121 -77l4 35q14 94 -42 165.5t-156 71.5t-203 -45l-56 152q125 59 284 58t272.5 -112.5t93.5 -308.5l-66 -440h-108l-60 92q-90 -119 -282 -119zM430 121q82 0 153 52t83 124l2 8q-35 35 -98.5 63.5 t-139.5 27.5t-122 -37.5t-52 -96.5t43 -100.5t131 -40.5zM406 963l129 272h258l-2 -31l-234 -241h-151z" glyph-name="aacute" horiz-adv-x="942" unicode="á"/><glyph d="M367 -27q-137 0 -222.5 79t-82.5 200t96.5 203t238.5 82q82 0 168 -36t121 -77l4 35q14 94 -42 165.5t-156 71.5t-203 -45l-56 152q125 59 284 58t272.5 -112.5t93.5 -308.5l-66 -440h-108l-60 92q-90 -119 -282 -119zM430 121q82 0 153 52t83 124l2 8q-35 35 -98.5 63.5 t-139.5 27.5t-122 -37.5t-52 -96.5t43 -100.5t131 -40.5zM680 963l-107 118l-133 -118h-157q16 23 204 272h211l133 -272h-151z" glyph-name="acircumflex" horiz-adv-x="942" unicode="â"/><glyph d="M367 -27q-137 0 -222.5 79t-82.5 200t96.5 203t238.5 82q82 0 168 -36t121 -77l4 35q14 94 -42 165.5t-156 71.5t-203 -45l-56 152q125 59 284 58t272.5 -112.5t93.5 -308.5l-66 -440h-108l-60 92q-90 -119 -282 -119zM430 121q82 0 153 52t83 124l2 8q-35 35 -98.5 63.5 t-139.5 27.5t-122 -37.5t-52 -96.5t43 -100.5t131 -40.5zM472 1208q58 0 127 -26.5t95 -26.5q55 0 86 47l80 -24q-10 -92 -64.5 -140.5t-110.5 -48.5t-126.5 27.5t-98.5 27.5t-44.5 -10t-32.5 -39l-80 25q8 98 59.5 143t109.5 45z" glyph-name="atilde" horiz-adv-x="942" unicode="ã"/><glyph d="M367 -27q-137 0 -222.5 79t-82.5 200t96.5 203t238.5 82q82 0 168 -36t121 -77l4 35q14 94 -42 165.5t-156 71.5t-203 -45l-56 152q125 59 284 58t272.5 -112.5t93.5 -308.5l-66 -440h-108l-60 92q-90 -119 -282 -119zM430 121q82 0 153 52t83 124l2 8q-35 35 -98.5 63.5 t-139.5 27.5t-122 -37.5t-52 -96.5t43 -100.5t131 -40.5zM417 1219q48 0 80.5 -35t28.5 -84t-38.5 -80t-82 -31t-79 33t-29.5 82q4 49 38 82t82 33zM738 1219q48 0 81 -35t29 -84t-39 -80t-82 -31t-79 33t-30 82q4 49 38 82t82 33z" glyph-name="adieresis" horiz-adv-x="942" unicode="ä"/><glyph d="M594 1245q100 0 167.5 -71.5t57.5 -184.5t-102 -184q193 -115 166 -365l-66 -440h-108l-60 92q-90 -119 -282 -119q-137 0 -222.5 79t-82.5 200t96.5 203t238.5 82q82 0 168 -36t121 -77l4 35q14 94 -42 165.5t-156 71.5t-203 -45l-56 152q66 31 136 45q-43 65 -35 160 t84 166t176 71zM430 121q82 0 153 52t83 124l2 8q-35 35 -98.5 63.5t-139.5 27.5t-122 -37.5t-52 -96.5t43 -100.5t131 -40.5zM562 868q52 0 92 38t44 92t-26.5 91t-82.5 37t-90 -37t-43 -91t24.5 -92t81.5 -38z" glyph-name="aring" horiz-adv-x="942" unicode="å"/><glyph d="M1172 131q120 0 229 80l84 -131q-127 -106 -344 -107q-131 0 -235.5 56.5t-160.5 154.5q-125 -211 -378 -211q-137 0 -222.5 79t-82.5 200t96.5 203t238.5 82q82 0 168 -36t121 -77l4 35q14 94 -42 165.5t-156 71.5t-203 -45l-56 152q125 59 273 59q205 -4 309 -145 q137 147 333 147t299.5 -137.5t78.5 -327.5h-639l-2 -22q0 -109 83.5 -177.5t203.5 -68.5zM430 121q82 0 153 52t83 124l2 8q-35 35 -98.5 63.5t-139.5 27.5t-122 -37.5t-52 -96.5t43 -100.5t131 -40.5zM1339 528q0 72 -56 125.5t-139 53.5t-150 -58t-81 -121h426z" glyph-name="ae" horiz-adv-x="1562" unicode="æ"/><glyph d="M250 -213q195 -35 212 95q7 52 -32 95q-172 18 -270.5 147.5t-85.5 293.5q14 205 149 325.5t336 120.5q94 0 183 -42t139 -105l-113 -127q-35 43 -93.5 77.5t-123.5 34.5q-115 0 -195 -80.5t-87 -203.5t66.5 -201t183.5 -78t210 84l96 -123q-88 -96 -247 -120 q55 -66 47 -150q-12 -133 -139.5 -187.5t-262.5 -15.5z" glyph-name="ccedilla" horiz-adv-x="876" unicode="ç"/><glyph d="M554 131q120 0 228 80l84 -131q-127 -106 -333 -106t-332.5 119t-126.5 313t137 326t327 132t292 -137.5t77 -327.5h-639l-2 -22q0 -109 84 -177.5t204 -68.5zM721 528q0 72 -56.5 125.5t-139.5 53.5t-149.5 -58t-80.5 -121h426zM545 1235l117 -272h-152l-225 241l2 31 h258z" glyph-name="egrave" horiz-adv-x="948" unicode="è"/><glyph d="M554 131q120 0 228 80l84 -131q-127 -106 -333 -106t-332.5 119t-126.5 313t137 326t327 132t292 -137.5t77 -327.5h-639l-2 -22q0 -109 84 -177.5t204 -68.5zM721 528q0 72 -56.5 125.5t-139.5 53.5t-149.5 -58t-80.5 -121h426zM422 963l129 272h258l-2 -31l-234 -241 h-151z" glyph-name="eacute" horiz-adv-x="948" unicode="é"/><glyph d="M554 131q120 0 228 80l84 -131q-127 -106 -333 -106t-332.5 119t-126.5 313t137 326t327 132t292 -137.5t77 -327.5h-639l-2 -22q0 -109 84 -177.5t204 -68.5zM721 528q0 72 -56.5 125.5t-139.5 53.5t-149.5 -58t-80.5 -121h426zM670 963l-107 118l-133 -118h-158 q18 23 205 272h211l133 -272h-151z" glyph-name="ecircumflex" horiz-adv-x="948" unicode="ê"/><glyph d="M554 131q120 0 228 80l84 -131q-127 -106 -333 -106t-332.5 119t-126.5 313t137 326t327 132t292 -137.5t77 -327.5h-639l-2 -22q0 -109 84 -177.5t204 -68.5zM721 528q0 72 -56.5 125.5t-139.5 53.5t-149.5 -58t-80.5 -121h426zM415 1219q48 0 80.5 -35t28.5 -84 t-38.5 -80t-82 -31t-79 33t-29.5 82q4 49 38 82t82 33zM736 1219q48 0 81 -35t29 -84t-39 -80t-82 -31t-79 33t-30 82q4 49 38 82t82 33z" glyph-name="edieresis" horiz-adv-x="948" unicode="ë"/><glyph d="M293 1235l117 -272h-152l-225 241l2 31h258zM84 0l119 838h198l-116 -838h-201z" glyph-name="igrave" horiz-adv-x="450" unicode="ì"/><glyph d="M219 963l129 272h258l-2 -31l-233 -241h-152zM84 0l119 838h198l-116 -838h-201z" glyph-name="iacute" horiz-adv-x="450" unicode="í"/><glyph d="M84 0l119 838h198l-116 -838h-201zM440 963l-106 118l-133 -118h-158q16 23 205 272h211l133 -272h-152z" glyph-name="icircumflex" horiz-adv-x="450" unicode="î"/><glyph d="M183 1219q48 0 81 -35t29 -84t-39 -80t-82 -31t-79 33t-30 82q4 49 38 82t82 33zM505 1219q48 0 80.5 -35t28.5 -84t-38.5 -80t-82 -31t-79 33t-29.5 82q4 49 38 82t82 33zM84 0l119 838h198l-116 -838h-201z" glyph-name="idieresis" horiz-adv-x="450" unicode="ï"/><glyph d="M496 -27q-188 0 -311 125t-111 321t145 320.5t326 124.5q143 0 213 -112q0 221 -142 362l-102 -115l-106 82l102 117q-94 68 -227 100l-15 25l70 141q168 -45 289 -127l121 140l106 -88l-119 -136q154 -141 216.5 -352t23.5 -475q-35 -225 -163 -339t-316 -114zM504 135 q102 0 177 78t88 202t-56 205.5t-175 81.5t-183 -76.5t-89 -203.5t62 -207t176 -80z" glyph-name="eth" horiz-adv-x="1007" unicode="ð"/><glyph d="M631 864q152 0 244 -104.5t69 -261.5l-67 -498h-205l67 483q14 98 -39 156.5t-135 58.5t-149.5 -58t-79.5 -155l-70 -485h-200l118 838h107l69 -105q41 55 116 93t155 38zM513 1208q58 0 127 -26.5t95 -26.5q55 0 86 47l80 -24q-10 -92 -64.5 -140.5t-110.5 -48.5 t-126 27.5t-98 27.5t-45 -10t-33 -39l-80 25q8 98 59.5 143t109.5 45z" glyph-name="ntilde" horiz-adv-x="1011" unicode="ñ"/><glyph d="M496 -27q-188 0 -312 124t-110 324t147 321.5t321 121.5t311.5 -121.5t112.5 -322.5t-146.5 -324t-323.5 -123zM499 135q103 0 182 79t87 206t-59.5 204.5t-172 77.5t-182.5 -76.5t-86 -204.5t60 -207t171 -79zM551 1235l117 -272h-152l-225 241l2 31h258z" glyph-name="ograve" horiz-adv-x="999" unicode="ò"/><glyph d="M496 -27q-188 0 -312 124t-110 324t147 321.5t321 121.5t311.5 -121.5t112.5 -322.5t-146.5 -324t-323.5 -123zM499 135q103 0 182 79t87 206t-59.5 204.5t-172 77.5t-182.5 -76.5t-86 -204.5t60 -207t171 -79zM459 963l129 272h258l-2 -31l-234 -241h-151z" glyph-name="oacute" horiz-adv-x="999" unicode="ó"/><glyph d="M496 -27q-188 0 -312 124t-110 324t147 321.5t321 121.5t311.5 -121.5t112.5 -322.5t-146.5 -324t-323.5 -123zM499 135q103 0 182 79t87 206t-59.5 204.5t-172 77.5t-182.5 -76.5t-86 -204.5t60 -207t171 -79zM692 963l-106 118l-133 -118h-158q16 23 205 272h211 l133 -272h-152z" glyph-name="ocircumflex" horiz-adv-x="999" unicode="ô"/><glyph d="M496 -27q-188 0 -312 124t-110 324t147 321.5t321 121.5t311.5 -121.5t112.5 -322.5t-146.5 -324t-323.5 -123zM499 135q103 0 182 79t87 206t-59.5 204.5t-172 77.5t-182.5 -76.5t-86 -204.5t60 -207t171 -79zM474 1208q58 0 127 -26.5t95 -26.5q55 0 86 47l80 -24 q-10 -92 -64.5 -140.5t-110.5 -48.5t-125.5 27.5t-98.5 27.5t-45.5 -10t-32.5 -39l-80 25q8 98 59.5 143t109.5 45z" glyph-name="otilde" horiz-adv-x="999" unicode="õ"/><glyph d="M496 -27q-188 0 -312 124t-110 324t147 321.5t321 121.5t311.5 -121.5t112.5 -322.5t-146.5 -324t-323.5 -123zM499 135q103 0 182 79t87 206t-59.5 204.5t-172 77.5t-182.5 -76.5t-86 -204.5t60 -207t171 -79zM421 1219q48 0 81 -35t28.5 -84t-39 -80t-82 -31t-79 33 t-29.5 82q4 49 38 82t82 33zM742 1219q48 0 81 -35t29 -84t-39 -80t-82 -31t-78.5 33t-29.5 82q4 49 37.5 82t81.5 33z" glyph-name="odieresis" horiz-adv-x="999" unicode="ö"/><glyph d="M897 610h-795l25 178h797zM475 494q49 0 82 -36t29 -86t-39 -82t-85 -32t-82 34t-28 84t39 84t84 34zM567 1155q49 0 82 -36t29 -86t-39 -81.5t-85 -31.5t-82 33.5t-28 83.5t39 84t84 34z" glyph-name="divide" horiz-adv-x="948" unicode="÷"/><glyph d="M492 -27q-94 0 -177 35l-131 -196l-94 59l129 192q-159 129 -145 343t147 336t324 122q94 0 184 -39l115 172l100 -53l-119 -176q154 -127 142 -338t-147 -334t-328 -123zM354.5 625.5q-78.5 -76.5 -86.5 -198.5t56 -202l309 455q-45 23 -96 22q-104 0 -182.5 -76.5z M498 135q104 0 183 79t88 198t-54 188l-303 -444q33 -21 86 -21z" glyph-name="oslash" horiz-adv-x="999" unicode="ø"/><glyph d="M408 -27q-164 0 -252 99.5t-66 257.5l72 508h203l-68 -484q-12 -98 41 -156.5t134 -58.5t149.5 57.5t80.5 155.5l68 486h203l-119 -838h-109l-69 102q-104 -129 -268 -129zM549 1235l117 -272h-152l-225 241l2 31h258z" glyph-name="ugrave" horiz-adv-x="995" unicode="ù"/><glyph d="M408 -27q-164 0 -252 99.5t-66 257.5l72 508h203l-68 -484q-12 -98 41 -156.5t134 -58.5t149.5 57.5t80.5 155.5l68 486h203l-119 -838h-109l-69 102q-104 -129 -268 -129zM840 1235v-31l-236 -241h-151l129 272h258z" glyph-name="uacute" horiz-adv-x="995" unicode="ú"/><glyph d="M395 -27q-135 0 -222 82t-87 215q0 39 4 60l72 508h203l-68 -484q-2 -8 -2 -24q0 -63 52 -127t129 -64t144.5 57.5t81.5 155.5l68 486h203q-35 -240 -119 -838h-109l-69 102q-104 -129 -281 -129zM698 963l-106 118l-133 -118h-158q18 23 205 272h211l133 -272h-152z" glyph-name="ucircumflex" horiz-adv-x="995" unicode="û"/><glyph d="M408 -27q-164 0 -252 99.5t-66 257.5l72 508h203l-68 -484q-12 -98 41 -156.5t134 -58.5t149.5 57.5t80.5 155.5l68 486h203l-119 -838h-109l-69 102q-104 -129 -268 -129zM435 1219q48 0 81 -35t29 -84t-39 -80t-82 -31t-79 33t-30 82q4 49 38 82t82 33zM757 1219 q48 0 80.5 -35t28.5 -84t-38.5 -80t-82 -31t-79 33t-29.5 82q4 49 38 82t82 33z" glyph-name="udieresis" horiz-adv-x="995" unicode="ü"/><glyph d="M784 838h211l-792 -1354h-201l-12 20l350 590l-252 744h215l170 -521zM430 963l129 272h258l-2 -31l-233 -241h-152z" glyph-name="yacute" horiz-adv-x="929" unicode="ý"/><glyph d="M592 -27q-213 0 -299 166q-25 -178 -90 -624l-189 -27h-16l274 1950l189 24h18l-108 -733q100 133 271 133t279.5 -111t108.5 -311t-128 -333.5t-310 -133.5zM570 133q102 0 181.5 88t79.5 215t-66.5 196.5t-167.5 69.5t-184 -82.5t-83 -236.5q0 -113 69 -181.5 t171 -68.5z" glyph-name="thorn" horiz-adv-x="1062" unicode="þ"/><glyph d="M784 838h211l-792 -1354h-201l-12 20l350 590l-252 744h215l170 -521zM417 1219q48 0 80.5 -35t28.5 -84t-38.5 -80t-82 -31t-79 33t-29.5 82q4 49 38 82t82 33zM738 1219q48 0 81 -35t29 -84t-39 -80t-82 -31t-79 33t-30 82q4 49 38 82t82 33z" glyph-name="ydieresis" horiz-adv-x="929" unicode="ÿ"/><glyph d="M174 0h-242l854 1454h29l438 -1454h-227l-82 293h-602zM743 1020l-309 -549h461zM1069 1606h-508l23 147h508z" glyph-name="Amacron" horiz-adv-x="1298" unicode="Ā"/><glyph d="M367 -27q-137 0 -222.5 79t-82.5 200t96.5 203t238.5 82q82 0 168 -36t121 -77l4 35q14 94 -42 165.5t-156 71.5t-203 -45l-56 152q125 59 284 58t272.5 -112.5t93.5 -308.5l-66 -440h-108l-60 92q-90 -119 -282 -119zM430 121q82 0 153 52t83 124l2 8q-35 35 -98.5 63.5 t-139.5 27.5t-122 -37.5t-52 -96.5t43 -100.5t131 -40.5zM836 1028h-508l22 148h508z" glyph-name="amacron" horiz-adv-x="942" unicode="ā"/><glyph d="M174 0h-242l854 1454h29l438 -1454h-227l-82 293h-602zM743 1020l-309 -549h461zM827 1540q-113 0 -167 77t-23 195h143q-16 -33 -5 -88t58.5 -55t68 46t20.5 97h143q8 -113 -58.5 -192.5t-179.5 -79.5z" glyph-name="Abreve" horiz-adv-x="1298" unicode="Ă"/><glyph d="M367 -27q-137 0 -222.5 79t-82.5 200t96.5 203t238.5 82q82 0 168 -36t121 -77l4 35q14 94 -42 165.5t-156 71.5t-203 -45l-56 152q125 59 284 58t272.5 -112.5t93.5 -308.5l-66 -440h-108l-60 92q-90 -119 -282 -119zM430 121q82 0 153 52t83 124l2 8q-35 35 -98.5 63.5 t-139.5 27.5t-122 -37.5t-52 -96.5t43 -100.5t131 -40.5zM573 963q-113 0 -167 76.5t-23 195.5h143q-16 -33 -5 -88t58.5 -55t68 46t20.5 97h143q8 -113 -58.5 -192.5t-179.5 -79.5z" glyph-name="abreve" horiz-adv-x="942" unicode="ă"/><glyph d="M983 -131q0 -43 34 -67.5t77 -24.5t69 8l-4 -160q-49 -12 -96 -12q-109 0 -183.5 55.5t-74.5 146.5t63.5 154.5t145.5 71.5l-70 252h-602l-168 -293h-242l854 1454h29l438 -1454h-182q-88 -47 -88 -131zM741 1016l-307 -545h461z" glyph-name="Aogonek" horiz-adv-x="1298" unicode="Ą"/><glyph d="M725 -131q0 -43 34 -67.5t77 -24.5t69 8l-4 -160q-49 -12 -96 -12q-109 0 -183.5 55.5t-74.5 137.5t41 137t104 82l-43 67q-90 -119 -282 -119q-137 0 -222.5 79t-82.5 200t96.5 203t238.5 82q82 0 168 -36t121 -77l4 35q14 94 -42 165.5t-156 71.5t-203 -45l-56 152 q125 59 284 58t272.5 -112.5t93.5 -308.5l-68 -440q-90 -49 -90 -131zM430 121q82 0 153 52t83 124l2 8q-35 35 -98.5 63.5t-139.5 27.5t-122 -37.5t-52 -96.5t43 -100.5t131 -40.5z" glyph-name="aogonek" horiz-adv-x="942" unicode="ą"/><glyph d="M813 -29q-311 0 -527 224.5t-190 550.5t254 523t537 197q188 0 340.5 -77.5t222.5 -161.5l-129 -154q-189 201 -421 201t-397 -154t-183 -386t132 -401t382 -169q100 0 207.5 41t179.5 96l102 -160q-199 -170 -510 -170zM821 1540l129 272h258l-2 -30l-233 -242h-152z " glyph-name="Cacute" horiz-adv-x="1398" unicode="Ć"/><glyph d="M519 139q110 0 210 84l96 -123q-117 -127 -325 -127t-324 133.5t-102 325.5t149 312t336 120q94 0 183 -42t139 -105l-113 -127q-35 43 -93.5 77.5t-123.5 34.5q-115 0 -195 -80.5t-87 -203.5t66.5 -201t183.5 -78zM461 963l129 272h258l-2 -31l-234 -241h-151z" glyph-name="cacute" horiz-adv-x="876" unicode="ć"/><glyph d="M813 -29q-311 0 -527 224.5t-190 550.5t254 523t537 197q188 0 340.5 -77.5t222.5 -161.5l-129 -154q-189 201 -421 201t-397 -154t-183 -386t132 -401t382 -169q100 0 207.5 41t179.5 96l102 -160q-199 -170 -510 -170zM1038 1540l-106 119l-133 -119h-158 q18 23 205 272h211l133 -272h-152z" glyph-name="Ccircumflex" horiz-adv-x="1398" unicode="Ĉ"/><glyph d="M519 139q110 0 210 84l96 -123q-117 -127 -325 -127t-324 133.5t-102 325.5t149 312t336 120q94 0 183 -42t139 -105l-113 -127q-35 43 -93.5 77.5t-123.5 34.5q-115 0 -195 -80.5t-87 -203.5t66.5 -201t183.5 -78zM694 963l-106 118l-133 -118h-158q18 23 205 272h211 l133 -272h-152z" glyph-name="ccircumflex" horiz-adv-x="876" unicode="ĉ"/><glyph d="M813 -29q-311 0 -527 224.5t-190 550.5t254 523t537 197q188 0 340.5 -77.5t222.5 -161.5l-129 -154q-189 201 -421 201t-397 -154t-183 -386t132 -401t382 -169q100 0 207.5 41t179.5 96l102 -160q-199 -170 -510 -170zM942 1796q47 0 80 -35t29 -84t-39 -79.5 t-82 -30.5t-79 32.5t-28 82t38 82t81 32.5z" glyph-name="Cdotaccent" horiz-adv-x="1398" unicode="Ċ"/><glyph d="M519 139q110 0 210 84l96 -123q-117 -127 -325 -127t-324 133.5t-102 325.5t149 312t336 120q94 0 183 -42t139 -105l-113 -127q-35 43 -93.5 77.5t-123.5 34.5q-115 0 -195 -80.5t-87 -203.5t66.5 -201t183.5 -78zM588 1219q47 0 79.5 -35t28.5 -84t-38.5 -80t-82 -31 t-79 33t-27.5 82t38 82t81 33z" glyph-name="cdotaccent" horiz-adv-x="876" unicode="ċ"/><glyph d="M813 -29q-311 0 -527 224.5t-190 550.5t254 523t537 197q188 0 340.5 -77.5t222.5 -161.5l-129 -154q-189 201 -421 201t-397 -154t-183 -386t132 -401t382 -169q100 0 207.5 41t179.5 96l102 -160q-199 -170 -510 -170zM700 1812h134l104 -124l143 124h133 q-4 -20 -4 -30l-188 -242h-205l-121 242q4 20 4 30z" glyph-name="Ccaron" horiz-adv-x="1398" unicode="Č"/><glyph d="M519 139q110 0 210 84l96 -123q-117 -127 -325 -127t-324 133.5t-102 325.5t149 312t336 120q94 0 183 -42t139 -105l-113 -127q-35 43 -93.5 77.5t-123.5 34.5q-115 0 -195 -80.5t-87 -203.5t66.5 -201t183.5 -78zM342 1235h133l105 -125l143 125h133q-4 -21 -4 -31 l-188 -241h-205l-121 241q4 20 4 31z" glyph-name="ccaron" horiz-adv-x="876" unicode="č"/><glyph d="M92 0l201 1432q442 63 713 -69.5t316 -422.5t-51 -489t-275 -321t-437 -142.5t-467 12.5zM485 1255l-151 -1075q203 -25 370.5 28.5t279.5 185.5t132 325q14 125 -21.5 232.5t-112.5 184t-206 110.5t-291 9zM444 1812h134l104 -124l143 124h133q-4 -20 -4 -30l-188 -242 h-205l-121 242q4 20 4 30z" glyph-name="Dcaron" horiz-adv-x="1363" unicode="Ď"/><glyph d="M465 -27q-174 0 -283.5 112.5t-109.5 312.5t126 333t320 133t291 -174l104 748l189 24h18l-207 -1462h-102l-66 100q-106 -127 -280 -127zM506 133q102 0 183 86.5t81 216.5t-66 198t-170 68t-185 -86t-81 -213t68 -198.5t170 -71.5zM1647 1436v-31l-351 -569l-69 18 l155 582h265z" glyph-name="dcaron" horiz-adv-x="1593" unicode="ď"/><glyph d="M141 0l88 625h-190l24 178h191l88 629q442 63 668.5 -47.5t340 -368.5t-5 -509.5t-297.5 -374.5t-438.5 -144t-468.5 12zM535 1255l-64 -452h352l-24 -178h-355l-61 -445q311 -37 531.5 106.5t252.5 432.5q14 125 -21.5 232.5t-112.5 184t-206.5 110.5t-291.5 9z" glyph-name="Dcroat" horiz-adv-x="1415" unicode="Đ"/><glyph d="M465 -27q-174 0 -283.5 112.5t-109.5 312.5t126 333t320 133t291 -174l45 338h-252q8 49 21 148h251l39 262l189 24h18q-29 -193 -41 -286h109q-12 -98 -21 -148h-108l-146 -1028h-102l-66 100q-106 -127 -280 -127zM506 133q102 0 183 86.5t81 216.5t-66 198t-170 68 t-185 -86t-81 -213t68 -198.5t170 -71.5z" glyph-name="dcroat" unicode="đ"/><glyph d="M332 180h592l-27 -180h-805l201 1438h780l-24 -183h-566l-49 -354h455l-27 -182h-454zM950 1606h-508l23 147h508z" glyph-name="Emacron" unicode="Ē"/><glyph d="M554 131q120 0 228 80l84 -131q-127 -106 -333 -106t-332.5 119t-126.5 313t137 326t327 132t292 -137.5t77 -327.5h-639l-2 -22q0 -109 84 -177.5t204 -68.5zM721 528q0 72 -56.5 125.5t-139.5 53.5t-149.5 -58t-80.5 -121h426zM821 1028h-508l23 148h508z" glyph-name="emacron" horiz-adv-x="948" unicode="ē"/><glyph d="M332 180h592l-27 -180h-805l201 1438h780l-24 -183h-566l-49 -354h455l-27 -182h-454zM700 1540q-113 0 -167 77t-23 195h143q-16 -33 -5 -88t58.5 -55t68 46t20.5 97h143q8 -113 -58.5 -192.5t-179.5 -79.5z" glyph-name="Ebreve" unicode="Ĕ"/><glyph d="M554 131q120 0 228 80l84 -131q-127 -106 -333 -106t-332.5 119t-126.5 313t137 326t327 132t292 -137.5t77 -327.5h-639l-2 -22q0 -109 84 -177.5t204 -68.5zM721 528q0 72 -56.5 125.5t-139.5 53.5t-149.5 -58t-80.5 -121h426zM559 963q-113 0 -167 76.5t-23 195.5h143 q-16 -33 -5 -88t58 -55t67.5 46t20.5 97h144q8 -113 -58.5 -192.5t-179.5 -79.5z" glyph-name="ebreve" horiz-adv-x="948" unicode="ĕ"/><glyph d="M332 180h592l-27 -180h-805l201 1438h780l-24 -183h-566l-49 -354h455l-27 -182h-454zM713 1796q47 0 79.5 -35t28.5 -84t-38.5 -79.5t-82 -30.5t-79 32.5t-27.5 82t38 82t81 32.5z" glyph-name="Edotaccent" unicode="Ė"/><glyph d="M554 131q120 0 228 80l84 -131q-127 -106 -333 -106t-332.5 119t-126.5 313t137 326t327 132t292 -137.5t77 -327.5h-639l-2 -22q0 -109 84 -177.5t204 -68.5zM721 528q0 72 -56.5 125.5t-139.5 53.5t-149.5 -58t-80.5 -121h426zM571 1219q47 0 80 -35t29 -84t-39 -80 t-82 -31t-78.5 33t-27.5 82t37.5 82t80.5 33z" glyph-name="edotaccent" horiz-adv-x="948" unicode="ė"/><glyph d="M332 180h592l-27 -180h-340q-76 -47 -85 -115t47 -95.5t130 -4.5l-4 -160q-143 -37 -257 26.5t-95 198.5q8 86 94 150h-295l201 1438h780l-24 -183h-566l-49 -354h455l-27 -182h-454z" glyph-name="Eogonek" unicode="Ę"/><glyph d="M554 131q120 0 228 80l84 -131q-80 -68 -188 -92q-68 -41 -68 -119q0 -43 34 -67.5t77 -24.5t70 8l-5 -160q-49 -12 -96 -12q-109 0 -183.5 55.5t-74.5 147.5t66 157q-186 8 -305 125.5t-119 309.5t137 324t327 132t292 -137.5t77 -327.5h-639l-2 -22q0 -109 84 -177.5 t204 -68.5zM721 528q0 72 -56.5 125.5t-139.5 53.5t-149.5 -58t-80.5 -121h426z" glyph-name="eogonek" horiz-adv-x="948" unicode="ę"/><glyph d="M332 180h592l-27 -180h-805l201 1438h780l-24 -183h-566l-49 -354h455l-27 -182h-454zM477 1812h133l105 -124l143 124h133q-4 -20 -4 -30l-188 -242h-205l-121 242q4 20 4 30z" glyph-name="Ecaron" unicode="Ě"/><glyph d="M554 131q120 0 228 80l84 -131q-127 -106 -333 -106t-332.5 119t-126.5 313t137 326t327 132t292 -137.5t77 -327.5h-639l-2 -22q0 -109 84 -177.5t204 -68.5zM721 528q0 72 -56.5 125.5t-139.5 53.5t-149.5 -58t-80.5 -121h426zM334 1235h133l104 -125l144 125h133 q-4 -21 -4 -31l-189 -241h-204l-121 241q4 20 4 31z" glyph-name="ecaron" horiz-adv-x="948" unicode="ě"/><glyph d="M832 -29q-316 0 -528 207t-212 508q0 231 115 413.5t295 274.5t372 92t338 -71.5t230 -155.5l-129 -158q-193 193 -422 193t-400.5 -165t-171.5 -399t146.5 -390t374.5 -156q186 0 325 84l37 246h-231l26 178h430l-67 -531q-212 -170 -528 -170zM1034 1540l-106 119 l-133 -119h-158q18 23 205 272h211l133 -272h-152z" glyph-name="Gcircumflex" horiz-adv-x="1482" unicode="Ĝ"/><glyph d="M390 -541q-206 0 -333 75t-125 208q2 98 80 170t170 94q-39 10 -69.5 51t-22.5 97t61.5 98.5t133.5 36.5q-63 31 -104.5 108.5t-35.5 151.5q10 123 107.5 219t267.5 96q76 0 154 -28.5t110 -71.5l224 74h32l-26 -183h-180q23 -33 22 -94q-10 -147 -108.5 -234t-270.5 -88 t-182 -85q-6 -37 32 -59.5t101 -26.5q449 -27 457 -275q4 -154 -142.5 -244t-352.5 -90zM384 -383q118 0 209 43t88 116t-91 102.5t-188 28.5t-183.5 -43t-87.5 -112t65.5 -102.5t187.5 -32.5zM491 387q74 0 121.5 47.5t53.5 111.5t-39 114.5t-119 50.5t-121 -49.5 t-53 -112.5t38.5 -112.5t118.5 -49.5zM664 963l-107 118l-133 -118h-158q18 23 205 272h211l133 -272h-151z" glyph-name="gcircumflex" horiz-adv-x="995" unicode="ĝ"/><glyph d="M832 -29q-316 0 -528 207t-212 508q0 231 115 413.5t295 274.5t372 92t338 -71.5t230 -155.5l-129 -158q-193 193 -422 193t-400.5 -165t-171.5 -399t146.5 -390t374.5 -156q186 0 325 84l37 246h-231l26 178h430l-67 -531q-212 -170 -528 -170zM922 1540 q-113 0 -167.5 77t-23.5 195h143q-16 -33 -4.5 -88t58.5 -55t67.5 46t20.5 97h143q8 -113 -58 -192.5t-179 -79.5z" glyph-name="Gbreve" horiz-adv-x="1482" unicode="Ğ"/><glyph d="M390 -541q-206 0 -333 75t-125 208q2 98 80 170t170 94q-39 10 -69.5 51t-22.5 97t61.5 98.5t133.5 36.5q-63 31 -104.5 108.5t-35.5 151.5q10 123 107.5 219t267.5 96q76 0 154 -28.5t110 -71.5l224 74h32l-26 -183h-180q23 -33 22 -94q-10 -147 -108.5 -234t-270.5 -88 t-182 -85q-6 -37 32 -59.5t101 -26.5q449 -27 457 -275q4 -154 -142.5 -244t-352.5 -90zM384 -383q118 0 209 43t88 116t-91 102.5t-188 28.5t-183.5 -43t-87.5 -112t65.5 -102.5t187.5 -32.5zM491 387q74 0 121.5 47.5t53.5 111.5t-39 114.5t-119 50.5t-121 -49.5 t-53 -112.5t38.5 -112.5t118.5 -49.5zM557 963q-113 0 -167 76.5t-23 195.5h143q-16 -33 -5 -88t58 -55t67.5 46t20.5 97h144q8 -113 -58.5 -192.5t-179.5 -79.5z" glyph-name="gbreve" horiz-adv-x="995" unicode="ğ"/><glyph d="M832 -29q-316 0 -528 207t-212 508q0 231 115 413.5t295 274.5t372 92t338 -71.5t230 -155.5l-129 -158q-193 193 -422 193t-400.5 -165t-171.5 -399t146.5 -390t374.5 -156q186 0 325 84l37 246h-231l26 178h430l-67 -531q-212 -170 -528 -170zM924 1796q47 0 79.5 -35 t28.5 -84t-39 -79.5t-82 -30.5t-78.5 32.5t-27.5 82t38 82t81 32.5z" glyph-name="Gdotaccent" horiz-adv-x="1482" unicode="Ġ"/><glyph d="M390 -541q-206 0 -333 75t-125 208q2 98 80 170t170 94q-39 10 -69.5 51t-22.5 97t61.5 98.5t133.5 36.5q-63 31 -104.5 108.5t-35.5 151.5q10 123 107.5 219t267.5 96q76 0 154 -28.5t110 -71.5l224 74h32l-26 -183h-180q23 -33 22 -94q-10 -147 -108.5 -234t-270.5 -88 t-182 -85q-6 -37 32 -59.5t101 -26.5q449 -27 457 -275q4 -154 -142.5 -244t-352.5 -90zM384 -383q118 0 209 43t88 116t-91 102.5t-188 28.5t-183.5 -43t-87.5 -112t65.5 -102.5t187.5 -32.5zM491 387q74 0 121.5 47.5t53.5 111.5t-39 114.5t-119 50.5t-121 -49.5 t-53 -112.5t38.5 -112.5t118.5 -49.5zM567 1219q47 0 80 -35t29 -84t-39 -80t-82 -31t-79 33t-27.5 82t38 82t80.5 33z" glyph-name="gdotaccent" horiz-adv-x="995" unicode="ġ"/><glyph d="M832 -29q-316 0 -528 207t-212 508q0 231 115 413.5t295 274.5t372 92t338 -71.5t230 -155.5l-129 -158q-193 193 -422 193t-400.5 -165t-171.5 -399t146.5 -390t374.5 -156q186 0 325 84l37 246h-231l26 178h430l-67 -531q-212 -170 -528 -170zM537 -487l118 362h258 l2 -31l-309 -350z" glyph-name="Gcommaaccent" horiz-adv-x="1482" unicode="Ģ"/><glyph d="M390 -541q-206 0 -333 75t-125 208q2 98 80 170t170 94q-39 10 -69.5 51t-22.5 97t61.5 98.5t133.5 36.5q-63 31 -104.5 108.5t-35.5 151.5q10 123 107.5 219t267.5 96q76 0 154 -28.5t110 -71.5l224 74h32l-26 -183h-180q23 -33 22 -94q-10 -147 -108.5 -234t-270.5 -88 t-182 -85q-6 -37 32 -59.5t101 -26.5q449 -27 457 -275q4 -154 -142.5 -244t-352.5 -90zM384 -383q118 0 209 43t88 116t-91 102.5t-188 28.5t-183.5 -43t-87.5 -112t65.5 -102.5t187.5 -32.5zM491 387q74 0 121.5 47.5t53.5 111.5t-39 114.5t-119 50.5t-121 -49.5 t-53 -112.5t38.5 -112.5t118.5 -49.5zM782 1350l-118 -363h-258l-3 31l310 350z" glyph-name="gcommaaccent" horiz-adv-x="995" unicode="ģ"/><glyph d="M860 0l103 719h-553l-103 -719h-215l201 1438h215l-74 -537h555l74 537h215l-201 -1438h-217zM915 1540l-106 119l-133 -119h-158q18 23 205 272h211l133 -272h-152z" glyph-name="Hcircumflex" horiz-adv-x="1286" unicode="Ĥ"/><glyph d="M633 864q154 0 246 -104.5t69 -261.5l-67 -498h-205l67 483q14 98 -39 156.5t-131 58.5t-141 -48t-86 -128l-72 -522h-204l204 1438l189 24h16l-102 -723q102 125 256 125zM514 1565l-106 118l-134 -118h-157q18 23 205 272h210l134 -272h-152z" glyph-name="hcircumflex" horiz-adv-x="1005" unicode="ĥ"/><glyph d="M860 0l103 719h-553l-103 -719h-215l152 1087h-109l21 148h108l29 203h215l-29 -203h555l29 203h215l-29 -203h115l-21 -148h-114l-152 -1087h-217zM434 901h555l25 186h-555z" glyph-name="Hbar" horiz-adv-x="1286" unicode="Ħ"/><glyph d="M638 864q161 0 250 -99t66 -257l-71 -508h-205l67 483q14 98 -39 156.5t-135 58.5t-149.5 -58t-79.5 -155l-68 -485h-202l143 1028h-90l20 148h91l38 262l189 24h16l-41 -286h254l-20 -148h-254l-41 -283q100 119 261 119z" glyph-name="hbar" horiz-adv-x="1005" unicode="ħ"/><glyph d="M92 0l201 1438h215l-201 -1438h-215zM316 1786q58 0 127 -26.5t96 -26.5q55 0 86 47l80 -25q-10 -92 -64.5 -140t-110.5 -48t-126 27.5t-99 27.5t-45.5 -10t-32.5 -39l-80 24q8 98 59.5 143.5t109.5 45.5z" glyph-name="Itilde" horiz-adv-x="524" unicode="Ĩ"/><glyph d="M220 1208q58 0 127 -26.5t95 -26.5q55 0 86 47l80 -24q-10 -92 -64.5 -140.5t-110.5 -48.5t-125.5 27.5t-98.5 27.5t-45.5 -10t-32.5 -39l-80 25q8 98 59.5 143t109.5 45zM82 0l119 838h198l-116 -838h-201z" glyph-name="itilde" horiz-adv-x="450" unicode="ĩ"/><glyph d="M92 0l201 1438h215l-201 -1438h-215zM674 1606h-508l22 147h508z" glyph-name="Imacron" horiz-adv-x="524" unicode="Ī"/><glyph d="M573 1028h-507l22 148h508zM82 0l119 838h198l-116 -838h-201z" glyph-name="imacron" horiz-adv-x="450" unicode="ī"/><glyph d="M92 0l201 1438h215l-201 -1438h-215zM426 1540q-113 0 -167 77t-23 195h143q-16 -33 -5 -88t58 -55t67.5 46t20.5 97h144q8 -113 -58.5 -192.5t-179.5 -79.5z" glyph-name="Ibreve" horiz-adv-x="524" unicode="Ĭ"/><glyph d="M326 963q-113 0 -167.5 76.5t-23.5 195.5h144q-16 -33 -5 -88t58 -55t67.5 46t20.5 97h143q8 -113 -58 -192.5t-179 -79.5zM82 0l119 838h198l-116 -838h-201z" glyph-name="ibreve" horiz-adv-x="450" unicode="ĭ"/><glyph d="M-33 -150q16 111 127 162l199 1426h215l-201 -1438h-74q-76 -45 -85 -114t47.5 -96.5t130.5 -4.5l-7 -160q-143 -37 -256.5 26.5t-95.5 198.5z" glyph-name="Iogonek" horiz-adv-x="524" unicode="Į"/><glyph d="M139 -127q0 -96 115 -96q33 0 59 8l-4 -160q-49 -12 -96 -12q-109 0 -183.5 55.5t-74.5 141.5t42 135t87 69l117 824h200l-116 -838h-64q-82 -41 -82 -127zM353 1325q56 0 95 -38.5t39 -100.5t-43 -105t-102 -43t-98 39t-39 97v10q6 59 49 100t99 41z" glyph-name="iogonek" horiz-adv-x="450" unicode="į"/><glyph d="M92 0l201 1438h215l-201 -1438h-215zM432 1796q47 0 80 -35t29 -84t-39 -79.5t-82 -30.5t-79 32.5t-28 82t38 82t81 32.5z" glyph-name="Idotaccent" horiz-adv-x="524" unicode="İ"/><glyph d="M82 0l119 838h198l-116 -838h-201z" glyph-name="dotlessi" horiz-adv-x="450" unicode="ı"/><glyph d="M92 0l201 1438h215l-201 -1438h-215zM946 473l137 965h215l-137 -971q-78 -549 -604 -477l27 182q147 -16 243 60.5t119 240.5z" glyph-name="IJ" horiz-adv-x="1335" unicode="Ĳ"/><glyph d="M82 0l119 838h200l-116 -838h-203zM355 1325q58 0 98.5 -44t34.5 -104t-48.5 -99.5t-100.5 -39.5t-98 42.5t-35 102.5t48 101t101 41zM524 -176l144 1014h200l-145 -1031q-14 -109 -68.5 -185.5t-121 -105t-141.5 -38.5t-132 12l35 168q84 -18 150.5 27t78.5 139z M824 1325q58 0 99 -44t35 -104t-48 -99.5t-101 -39.5t-99 42.5t-35 102.5t48 101t101 41z" glyph-name="ij" horiz-adv-x="921" unicode="ĳ"/><glyph d="M446 473l138 965h215l-137 -971q-78 -549 -605 -477l27 182q147 -16 243 60.5t119 240.5zM819 1540l-106 119l-133 -119h-158q16 23 205 272h211l133 -272h-152z" glyph-name="Jcircumflex" horiz-adv-x="835" unicode="Ĵ"/><glyph d="M-109 -524q-47 0 -100 14l37 170q14 -4 45 -4q70 0 121 45t61 125q25 174 72 511t72 501h200l-145 -1028q-25 -172 -129.5 -253t-233.5 -81zM453 1235l133 -272h-152l-104 118q-90 -78 -135 -118h-156q188 250 205 272h209z" glyph-name="jcircumflex" horiz-adv-x="452" unicode="ĵ"/><glyph d="M102 0l201 1438h217l-86 -615l600 615h260l-659 -684l508 -754h-264l-463 698l-97 -698h-217zM307 -487l119 362h258l2 -31l-309 -350z" glyph-name="Kcommaaccent" horiz-adv-x="1218" unicode="Ķ"/><glyph d="M479 1462l-133 -946l361 322h254l-443 -404l342 -434h-242l-292 373l-54 -373h-200l202 1438l189 24h16zM170 -487l119 362h258l2 -31l-309 -350z" glyph-name="kcommaaccent" horiz-adv-x="923" unicode="ķ"/><glyph d="M190 838h201l-45 -322l361 322h254l-443 -404l342 -434h-242l-292 373l-54 -373h-200z" glyph-name="kgreenlandic" horiz-adv-x="923" unicode="ĸ"/><glyph d="M879 180l-27 -180h-760l201 1438h213l-174 -1258h547zM315 1540l129 272h258l-2 -30l-233 -242h-152z" glyph-name="Lacute" horiz-adv-x="968" unicode="Ĺ"/><glyph d="M479 1462l-207 -1462h-200l202 1438l189 24h16zM291 1565l129 272h258l-2 -31l-234 -241h-151z" glyph-name="lacute" horiz-adv-x="434" unicode="ĺ"/><glyph d="M879 180l-27 -180h-760l201 1438h213l-174 -1258h547zM205 -487l119 362h258l2 -31l-310 -350z" glyph-name="Lcommaaccent" horiz-adv-x="968" unicode="Ļ"/><glyph d="M479 1462l-207 -1462h-200l202 1438l189 24h16zM-86 -487l119 362h258l2 -31l-309 -350z" glyph-name="lcommaaccent" horiz-adv-x="434" unicode="ļ"/><glyph d="M879 180l-27 -180h-760l201 1438h213l-174 -1258h547zM1087 1436v-31l-350 -569l-69 18l155 582h264z" glyph-name="Lcaron" horiz-adv-x="1081" unicode="Ľ"/><glyph d="M479 1462l-207 -1462h-200l202 1438l189 24h16zM1008 1436v-31l-351 -569l-69 18l155 582h265z" glyph-name="lcaron" horiz-adv-x="956" unicode="ľ"/><glyph d="M879 180l-27 -180h-760l201 1438h213l-174 -1258h547zM764 692q62 0 103.5 -46t36.5 -108t-50.5 -103.5t-107.5 -41.5t-103 44.5t-36 106.5t50 105t107 43z" glyph-name="Ldot" horiz-adv-x="997" unicode="Ŀ"/><glyph d="M479 1462l-207 -1462h-200l202 1438l189 24h16zM738 692q62 0 103.5 -46t36.5 -108t-50.5 -103.5t-107.5 -41.5t-103 44.5t-36 106.5t50 105t107 43z" glyph-name="ldot" horiz-adv-x="972" unicode="ŀ"/><glyph d="M879 180l-27 -180h-760l82 590l-123 -53l-47 120l191 82l98 699h213l-82 -598l211 92l49 -121l-283 -123l-69 -508h547z" glyph-name="Lslash" horiz-adv-x="968" unicode="Ł"/><glyph d="M561 1462q-31 -207 -88 -620q111 49 115 51l47 -119l-184 -82l-97 -692h-202l84 596l-111 -47l-49 117l180 79l98 693l189 24h18z" glyph-name="lslash" horiz-adv-x="581" unicode="ł"/><glyph d="M1094 1438h211l-203 -1438h-211l88 621l-522 440l-150 -1061h-209l203 1442l31 12l682 -580zM690 1540l129 272h258l-2 -30l-233 -242h-152z" glyph-name="Nacute" horiz-adv-x="1304" unicode="Ń"/><glyph d="M631 864q152 0 244 -104.5t69 -261.5l-67 -498h-205l67 483q14 98 -39 156.5t-135 58.5t-149.5 -58t-79.5 -155l-70 -485h-200l118 838h107l69 -105q41 55 116 93t155 38zM489 963l129 272h259l-3 -31l-233 -241h-152z" glyph-name="nacute" horiz-adv-x="1001" unicode="ń"/><glyph d="M1094 1438h211l-203 -1438h-211l88 621l-522 440l-150 -1061h-209l203 1442l31 12l682 -580zM330 -487l119 362h258l2 -31l-310 -350z" glyph-name="Ncommaaccent" horiz-adv-x="1304" unicode="Ņ"/><glyph d="M631 864q152 0 244 -104.5t69 -261.5l-67 -498h-205l67 483q14 98 -39 156.5t-135 58.5t-149.5 -58t-79.5 -155l-70 -485h-200l118 838h107l69 -105q41 55 116 93t155 38zM201 -487l118 362h259l2 -31l-310 -350z" glyph-name="ncommaaccent" horiz-adv-x="1001" unicode="ņ"/><glyph d="M1094 1438h211l-203 -1438h-211l88 621l-522 440l-150 -1061h-209l203 1442l31 12l682 -580zM586 1812h133l104 -124q143 123 144 124h133q-4 -20 -4 -30l-189 -242h-205l-120 242q4 20 4 30z" glyph-name="Ncaron" horiz-adv-x="1304" unicode="Ň"/><glyph d="M631 864q152 0 244 -104.5t69 -261.5l-67 -498h-205l67 483q14 98 -39 156.5t-135 58.5t-149.5 -58t-79.5 -155l-70 -485h-200l118 838h107l69 -105q41 55 116 93t155 38zM602 1110l143 125h134q-5 -21 -5 -31l-188 -241h-205l-121 241q4 20 5 31h133z" glyph-name="ncaron" horiz-adv-x="1001" unicode="ň"/><glyph d="M973 864q152 0 244 -104.5t69 -261.5l-67 -498h-205l67 483q14 98 -39 156.5t-135 58.5t-149.5 -58t-79.5 -155l-70 -485h-200l118 838h107l69 -105q41 55 116 93t155 38zM571 1436v-31l-350 -569l-69 18l155 582h264z" glyph-name="napostrophe" horiz-adv-x="1343" unicode="ŉ"/><glyph d="M686 -340q66 0 114 43t60 123l111 795l-520 440q-98 -709 -150 -1061h-209l203 1442l31 12l682 -580l79 564h211l-229 -1628q-25 -170 -133.5 -252t-241.5 -82q-47 0 -100 14l47 176q23 -6 45 -6z" glyph-name="Eng" horiz-adv-x="1304" unicode="Ŋ"/><glyph d="M631 864q152 0 244 -104.5t69 -261.5l-92 -691q-14 -109 -68.5 -185.5t-123 -105t-145.5 -38.5t-134 12l47 164q76 -18 140.5 29t78.5 141l92 659q14 98 -39 156.5t-135 58.5t-149.5 -58t-79.5 -155l-70 -485h-200l118 838h107l69 -105q41 55 116 93t155 38z" glyph-name="eng" horiz-adv-x="1001" unicode="ŋ"/><glyph d="M876 1466q314 0 517.5 -219t183.5 -537t-237.5 -528.5t-532.5 -210.5t-518 218.5t-183 536.5t238 529t532 211zM810 166q214 0 371 151.5t173 394.5t-123 403.5t-354 160.5t-373 -155.5t-174 -399.5t125 -399.5t355 -155.5zM1163 1606h-508l23 147h508z" glyph-name="Omacron" horiz-adv-x="1605" unicode="Ō"/><glyph d="M496 -27q-188 0 -312 124t-110 324t147 321.5t321 121.5t311.5 -121.5t112.5 -322.5t-146.5 -324t-323.5 -123zM499 135q103 0 182 79t87 206t-59.5 204.5t-172 77.5t-182.5 -76.5t-86 -204.5t60 -207t171 -79zM827 1028h-508l23 148h508z" glyph-name="omacron" horiz-adv-x="999" unicode="ō"/><glyph d="M876 1466q314 0 517.5 -219t183.5 -537t-237.5 -528.5t-532.5 -210.5t-518 218.5t-183 536.5t238 529t532 211zM810 166q214 0 371 151.5t173 394.5t-123 403.5t-354 160.5t-373 -155.5t-174 -399.5t125 -399.5t355 -155.5zM920 1540q-113 0 -167.5 77t-23.5 195h143 q-16 -33 -4.5 -88t58.5 -55t67.5 46t20.5 97h143q8 -113 -58 -192.5t-179 -79.5z" glyph-name="Obreve" horiz-adv-x="1605" unicode="Ŏ"/><glyph d="M496 -27q-188 0 -312 124t-110 324t147 321.5t321 121.5t311.5 -121.5t112.5 -322.5t-146.5 -324t-323.5 -123zM499 135q103 0 182 79t87 206t-59.5 204.5t-172 77.5t-182.5 -76.5t-86 -204.5t60 -207t171 -79zM582 963q-113 0 -167.5 76.5t-23.5 195.5h144 q-16 -33 -5 -88t58 -55t67.5 46t20.5 97h143q8 -113 -58 -192.5t-179 -79.5z" glyph-name="obreve" horiz-adv-x="999" unicode="ŏ"/><glyph d="M876 1466q314 0 517.5 -219t183.5 -537t-237.5 -528.5t-532.5 -210.5t-518 218.5t-183 536.5t238 529t532 211zM810 166q214 0 371 151.5t173 394.5t-123 403.5t-354 160.5t-373 -155.5t-174 -399.5t125 -399.5t355 -155.5zM698 1540l105 272h217l-2 -30l-219 -242h-101z M975 1540l104 272h217l-2 -30l-219 -242h-100z" glyph-name="Ohungarumlaut" horiz-adv-x="1605" unicode="Ő"/><glyph d="M496 -27q-188 0 -312 124t-110 324t147 321.5t321 121.5t311.5 -121.5t112.5 -322.5t-146.5 -324t-323.5 -123zM499 135q103 0 182 79t87 206t-59.5 204.5t-172 77.5t-182.5 -76.5t-86 -204.5t60 -207t171 -79zM354 963l105 272h217l-2 -31l-219 -241h-101zM631 963 l104 272h217l-2 -31l-219 -241h-100z" glyph-name="ohungarumlaut" horiz-adv-x="999" unicode="ő"/><glyph d="M852 -18q-201 0 -352.5 65.5t-273.5 222t-122 404.5q0 205 89.5 355.5t188.5 235.5t266 140t376 55q121 1 283 -22h563l-25 -183h-563l-51 -354h455l-25 -182h-455l-76 -539h590l-24 -180h-625q-121 -18 -219 -18zM324 656q0 -198 134 -341t347 -143q47 0 108 10 q49 358 152 1075q-53 6 -107 7q-164 0 -305 -65.5t-235 -205t-94 -337.5z" glyph-name="OE" horiz-adv-x="1857" unicode="Œ"/><glyph d="M1254 131q120 0 229 80l84 -131q-127 -106 -353 -106t-356 165q-137 -166 -366 -166q-184 0 -308 124t-110 324t147 321.5t339 121.5t325 -159q139 159 341 159t304.5 -137.5t77.5 -327.5h-639l-2 -22q0 -109 83.5 -177.5t203.5 -68.5zM499 135q103 0 182 79t87 206 t-59.5 204.5t-172 77.5t-182.5 -76.5t-86 -204.5t60 -207t171 -79zM1421 528q0 72 -56 125.5t-139 53.5t-150 -58t-81 -121h426z" glyph-name="oe" horiz-adv-x="1644" unicode="œ"/><glyph d="M1100 989q0 -158 -89 -279.5t-223 -183.5l330 -526h-252l-284 467q-98 -12 -199 2l-66 -469h-217l203 1430q350 76 573.5 -46.5t223.5 -394.5zM883 987q0 158 -109.5 228t-279.5 45l-84 -596q109 -20 214 5t182 109t77 209zM532 1540l130 272h258l-2 -30l-234 -242h-152z " glyph-name="Racute" horiz-adv-x="1165" unicode="Ŕ"/><glyph d="M563 862q59 0 113 -31q-4 -8 -29.5 -96t-42.5 -88q-41 23 -92 23q-92 0 -162 -92q-29 -193 -82 -578h-202q35 240 118 838h113l72 -88q29 49 82 80.5t112 31.5zM358 963l129 272h258l-2 -31l-233 -241h-152z" glyph-name="racute" horiz-adv-x="634" unicode="ŕ"/><glyph d="M1100 989q0 -158 -89 -279.5t-223 -183.5l330 -526h-252l-284 467q-98 -12 -199 2l-66 -469h-217l203 1430q350 76 573.5 -46.5t223.5 -394.5zM883 987q0 158 -109.5 228t-279.5 45l-84 -596q109 -20 214 5t182 109t77 209zM291 -487l119 362h258l2 -31l-310 -350z" glyph-name="Rcommaaccent" horiz-adv-x="1165" unicode="Ŗ"/><glyph d="M563 862q59 0 113 -31q-4 -8 -29.5 -96t-42.5 -88q-41 23 -92 23q-92 0 -162 -92q-29 -193 -82 -578h-202q35 240 118 838h113l72 -88q29 49 82 80.5t112 31.5zM-84 -487l119 362h258l2 -31l-309 -350z" glyph-name="rcommaaccent" horiz-adv-x="634" unicode="ŗ"/><glyph d="M1100 989q0 -158 -89 -279.5t-223 -183.5l330 -526h-252l-284 467q-98 -12 -199 2l-66 -469h-217l203 1430q350 76 573.5 -46.5t223.5 -394.5zM883 987q0 158 -109.5 228t-279.5 45l-84 -596q109 -20 214 5t182 109t77 209zM645 1688l143 124h134q-4 -20 -4 -30 l-189 -242h-205l-121 242q4 20 5 30h133z" glyph-name="Rcaron" horiz-adv-x="1165" unicode="Ř"/><glyph d="M563 862q59 0 113 -31q-4 -8 -29.5 -96t-42.5 -88q-41 23 -92 23q-92 0 -162 -92q-29 -193 -82 -578h-202q35 240 118 838h113l72 -88q29 49 82 80.5t112 31.5zM473 1110l143 125h134q-5 -21 -5 -31l-188 -241h-205l-121 241q4 20 5 31h133z" glyph-name="rcaron" horiz-adv-x="634" unicode="ř"/><glyph d="M684 1272q-122 0 -187 -53.5t-68 -128.5t51.5 -136t158.5 -131q172 -113 235.5 -228.5t49.5 -248.5q-18 -184 -152.5 -280.5t-337.5 -94.5q-131 2 -235.5 47t-163.5 109l112 156q133 -121 299 -121q111 0 180.5 53t75.5 133q4 49 -7 88t-50 80t-66.5 63.5t-97.5 75.5 q-143 109 -211.5 206t-61.5 239t127 254t333 112q100 0 198.5 -27.5t153.5 -62.5l-78 -184q-136 80 -258 80zM586 1540l129 272h258l-2 -30l-234 -242h-151z" glyph-name="Sacute" horiz-adv-x="1024" unicode="Ś"/><glyph d="M461 698q-135 0 -144 -88q-2 -35 34 -58.5t108 -43.5q137 -39 206.5 -116.5t57.5 -189.5t-111.5 -170.5t-225.5 -58.5t-218 26t-133 54l65 160q27 -18 114 -48t155 -30q164 0 170 88q2 39 -33 62.5t-121 50.5q-276 84 -256 282q12 119 114.5 182.5t246.5 63.5t278 -61 l-57 -160q-115 55 -250 55zM383 963l129 272h258l-2 -31l-233 -241h-152z" glyph-name="sacute" horiz-adv-x="804" unicode="ś"/><glyph d="M684 1272q-122 0 -187 -53.5t-68 -128.5t51.5 -136t158.5 -131q172 -113 235.5 -228.5t49.5 -248.5q-18 -184 -152.5 -280.5t-337.5 -94.5q-131 2 -235.5 47t-163.5 109l112 156q133 -121 299 -121q111 0 180.5 53t75.5 133q4 49 -7 88t-50 80t-66.5 63.5t-97.5 75.5 q-143 109 -211.5 206t-61.5 239t127 254t333 112q100 0 198.5 -27.5t153.5 -62.5l-78 -184q-136 80 -258 80zM809 1540l-107 119l-133 -119h-157q18 23 204 272h211l134 -272h-152z" glyph-name="Scircumflex" horiz-adv-x="1024" unicode="Ŝ"/><glyph d="M461 698q-135 0 -144 -88q-2 -35 34 -58.5t108 -43.5q137 -39 206.5 -116.5t57.5 -189.5t-111.5 -170.5t-225.5 -58.5t-218 26t-133 54l65 160q27 -18 114 -48t155 -30q164 0 170 88q2 39 -33 62.5t-121 50.5q-276 84 -256 282q12 119 114.5 182.5t246.5 63.5t278 -61 l-57 -160q-115 55 -250 55zM612 963l-106 118l-133 -118h-158q18 23 205 272h211l133 -272h-152z" glyph-name="scircumflex" horiz-adv-x="804" unicode="ŝ"/><glyph d="M174 -213q194 -35 212 94q7 51 -32 96q-205 23 -319 146l98 174q150 -135 313 -135q111 0 180.5 53t75.5 133q4 49 -7 88t-50 80t-66.5 63.5t-97.5 75.5q-143 109 -211.5 206t-61.5 239t127 254t333 112q100 0 198.5 -27.5t153.5 -62.5l-78 -184q-136 80 -258 80 t-187 -53.5t-68 -128.5t51.5 -136t158.5 -131q172 -113 235.5 -229t47.5 -266t-128 -244t-286 -109q49 -68 41 -145q-12 -133 -139 -187.5t-263 -15.5z" glyph-name="Scedilla" horiz-adv-x="1024" unicode="Ş"/><glyph d="M125 -213q194 -35 212 94q7 51 -32 94q-178 14 -270 78l65 160q27 -18 114 -48t155 -30q164 0 170 88q2 39 -33 62.5t-121 50.5q-276 84 -256 282q12 119 114.5 182.5t246.5 63.5t278 -61l-57 -160q-115 55 -250 55t-144 -88q-2 -35 34 -58.5t108 -43.5 q137 -39 206.5 -116t59.5 -175q-25 -205 -272 -237q55 -66 47 -150q-12 -133 -139.5 -187.5t-262.5 -15.5z" glyph-name="scedilla" horiz-adv-x="804" unicode="ş"/><glyph d="M684 1272q-122 0 -187 -53.5t-68 -128.5t51.5 -136t158.5 -131q172 -113 235.5 -228.5t49.5 -248.5q-18 -184 -152.5 -280.5t-337.5 -94.5q-131 2 -235.5 47t-163.5 109l112 156q133 -121 299 -121q111 0 180.5 53t75.5 133q4 49 -7 88t-50 80t-66.5 63.5t-97.5 75.5 q-143 109 -211.5 206t-61.5 239t127 254t333 112q100 0 198.5 -27.5t153.5 -62.5l-78 -184q-136 80 -258 80zM465 1812h133l104 -124q142 122 144 124h133q-4 -20 -4 -30l-189 -242h-204l-121 242q4 20 4 30z" glyph-name="Scaron" horiz-adv-x="1024" unicode="Š"/><glyph d="M461 698q-135 0 -144 -88q-2 -35 34 -58.5t108 -43.5q137 -39 206.5 -116.5t57.5 -189.5t-111.5 -170.5t-225.5 -58.5t-218 26t-133 54l65 160q27 -18 114 -48t155 -30q164 0 170 88q2 39 -33 62.5t-121 50.5q-276 84 -256 282q12 119 114.5 182.5t246.5 63.5t278 -61 l-57 -160q-115 55 -250 55zM270 1235h133l105 -125l143 125h133q-4 -21 -4 -31l-188 -241h-205l-121 241q4 20 4 31z" glyph-name="scaron" horiz-adv-x="804" unicode="š"/><glyph d="M580 -161q0 -102 -88.5 -165t-198.5 -63q-59 0 -115 18q16 106 27 160q27 -8 79 -8t93 27.5t41 89.5t-60 102h-24l176 1255h-354l24 183h926l-25 -183h-356l-176 -1255h-43q74 -59 74 -161z" glyph-name="Tcommaaccent" horiz-adv-x="1005" unicode="Ţ"/><glyph d="M465 152q6 0 53 10l17 -162q-55 -14 -97 -16q61 -68 51 -154q-12 -133 -139 -187.5t-262 -15.5l27 160q113 -20 158.5 11.5t52.5 76.5q10 75 -62 139t-86 90q-33 61 -14 191l53 381h-141q2 8 2 20l55 142h105l41 284l188 29h16l-43 -313h199l-23 -162h-198l-53 -381 q-10 -78 12 -110.5t88 -32.5z" glyph-name="tcommaaccent" horiz-adv-x="628" unicode="ţ"/><glyph d="M1106 1438l-25 -183h-356l-176 -1255h-215l176 1255h-354l24 183h926zM422 1812h133l104 -124q142 122 144 124h133q-4 -20 -4 -30l-189 -242h-204l-121 242q4 20 4 30z" glyph-name="Tcaron" horiz-adv-x="1005" unicode="Ť"/><glyph d="M447 150q37 0 71 10l19 -160q-59 -14 -121 -14q-129 0 -203 71.5t-55 192.5l59 426h-141q2 8 2 20l55 142h105l41 284l188 29h16l-43 -313h199l-23 -162h-198l-58 -426q-8 -51 21 -75.5t66 -24.5zM1180 1436v-31l-351 -569l-69 18l155 582h265z" glyph-name="tcaron" horiz-adv-x="1128" unicode="ť"/><glyph d="M1106 1438l-25 -183h-356l-61 -434h147l-20 -147h-148l-94 -674h-215l94 674h-145l20 147h146l61 434h-354l24 183h926z" glyph-name="Tbar" horiz-adv-x="1005" unicode="Ŧ"/><glyph d="M447 150q37 0 71 10l19 -160q-59 -14 -121 -14q-129 0 -203 71.5t-55 192.5l16 123h-94l24 135h89l24 168h-141q2 8 2 20l55 142h105l41 284l188 29h16l-43 -313h199l-23 -162h-198l-23 -168h109l-25 -135h-102l-17 -123q-8 -51 21 -75.5t66 -24.5z" glyph-name="tbar" horiz-adv-x="628" unicode="ŧ"/><glyph d="M598 162q133 0 223 95t113 253l131 928h219l-129 -926q-33 -238 -175 -389.5t-390 -151.5t-371 156t-90 385l129 926h219l-131 -928q-23 -154 48 -251t204 -97zM681 1786q58 0 127 -26.5t95 -26.5q55 0 86 47l80 -25q-10 -92 -64.5 -140t-110.5 -48t-126 27.5t-98 27.5 t-45 -10t-33 -39l-80 24q8 98 59.5 143.5t109.5 45.5z" glyph-name="Utilde" horiz-adv-x="1265" unicode="Ũ"/><glyph d="M403 -27q-152 0 -243.5 104.5t-69.5 262.5l70 498h202l-67 -484q-12 -98 41 -156.5t134 -58.5t149.5 57.5t80.5 155.5l68 486h203l-119 -838h-109l-69 102q-39 -55 -114 -92t-157 -37zM484 1208q58 0 127 -26.5t96 -26.5q55 0 86 47l79 -24q-10 -92 -64 -140.5 t-110 -48.5t-126 27.5t-99 27.5t-45.5 -10t-32.5 -39l-80 25q8 98 59.5 143t109.5 45z" glyph-name="utilde" horiz-adv-x="995" unicode="ũ"/><glyph d="M598 162q133 0 223 95t113 253l131 928h219l-129 -926q-33 -238 -175 -389.5t-390 -151.5t-371 156t-90 385l129 926h219l-131 -928q-23 -154 48 -251t204 -97zM1038 1606h-508l23 147h508z" glyph-name="Umacron" horiz-adv-x="1265" unicode="Ū"/><glyph d="M403 -27q-152 0 -243.5 104.5t-69.5 262.5l70 498h202l-67 -484q-12 -98 41 -156.5t134 -58.5t149.5 57.5t80.5 155.5l68 486h203l-119 -838h-109l-69 102q-39 -55 -114 -92t-157 -37zM842 1028h-508l22 148h508z" glyph-name="umacron" horiz-adv-x="995" unicode="ū"/><glyph d="M598 162q133 0 223 95t113 253l131 928h219l-129 -926q-33 -238 -175 -389.5t-390 -151.5t-371 156t-90 385l129 926h219l-131 -928q-23 -154 48 -251t204 -97zM780 1540q-113 0 -167 77t-23 195h143q-16 -33 -5 -88t58.5 -55t67.5 46t20 97h144q8 -113 -58.5 -192.5 t-179.5 -79.5z" glyph-name="Ubreve" horiz-adv-x="1265" unicode="Ŭ"/><glyph d="M403 -27q-152 0 -243.5 104.5t-69.5 262.5l70 498h202l-67 -484q-12 -98 41 -156.5t134 -58.5t149.5 57.5t80.5 155.5l68 486h203l-119 -838h-109l-69 102q-39 -55 -114 -92t-157 -37zM584 963q-113 0 -167.5 76.5t-23.5 195.5h144q-16 -33 -5 -88t58 -55t67.5 46 t20.5 97h143q8 -113 -58 -192.5t-179 -79.5z" glyph-name="ubreve" horiz-adv-x="995" unicode="ŭ"/><glyph d="M804 1823q89 0 146.5 -62.5t49 -150.5t-73 -149.5t-153.5 -61.5t-144 60.5t-49 150.5q8 90 71.5 151.5t152.5 61.5zM778 1511q41 0 73 29t36 71t-20.5 70.5t-66.5 28.5t-72 -28.5t-34 -69.5t19.5 -71t64.5 -30zM598 162q133 0 223 95t113 253l131 928h219l-129 -926 q-33 -238 -175 -389.5t-390 -151.5t-371 156t-90 385l129 926h219l-131 -928q-23 -154 48 -251t204 -97z" glyph-name="Uring" horiz-adv-x="1265" unicode="Ů"/><glyph d="M597 1245q89 0 146.5 -62.5t49 -150.5t-73 -149.5t-153.5 -61.5t-144 60.5t-49 150.5q8 90 71.5 151.5t152.5 61.5zM571 934q41 0 73 28.5t36 70.5t-20.5 71t-66.5 29t-71.5 -29t-34 -70t19 -70.5t64.5 -29.5zM403 -27q-152 0 -243.5 104.5t-69.5 262.5l70 498h202 l-67 -484q-12 -98 41 -156.5t134 -58.5t149.5 57.5t80.5 155.5l68 486h203l-119 -838h-109l-69 102q-39 -55 -114 -92t-157 -37z" glyph-name="uring" horiz-adv-x="995" unicode="ů"/><glyph d="M598 162q133 0 223 95t113 253l131 928h219l-129 -926q-33 -238 -175 -389.5t-390 -151.5t-371 156t-90 385l129 926h219l-131 -928q-23 -154 48 -251t204 -97zM553 1540l104 272h217l-2 -30l-219 -242h-100zM829 1540l105 272h217l-2 -30l-219 -242h-101z" glyph-name="Uhungarumlaut" horiz-adv-x="1265" unicode="Ű"/><glyph d="M403 -27q-152 0 -243.5 104.5t-69.5 262.5l70 498h202l-67 -484q-12 -98 41 -156.5t134 -58.5t149.5 57.5t80.5 155.5l68 486h203l-119 -838h-109l-69 102q-39 -55 -114 -92t-157 -37zM362 963l105 272h217l-2 -31l-219 -241h-101zM639 963l104 272h218l-3 -31l-219 -241 h-100z" glyph-name="uhungarumlaut" horiz-adv-x="995" unicode="ű"/><glyph d="M598 162q133 0 223 95t113 253l131 928h219l-129 -926q-31 -219 -154.5 -366.5t-336.5 -170.5q-50 -39 -50 -94t34 -79.5t77 -24.5t70 8l-4 -160q-49 -12 -97 -12q-109 0 -183.5 55.5t-74.5 149.5t70 159q-207 27 -307.5 177.5t-69.5 357.5l129 926h219l-131 -928 q-23 -154 48 -251t204 -97z" glyph-name="Uogonek" horiz-adv-x="1265" unicode="Ų"/><glyph d="M584 -194q0 82 41 138t102 81l-53 77q-39 -55 -114 -92t-157 -37q-152 0 -243.5 104.5t-69.5 262.5l70 498h202l-67 -484q-12 -98 41 -156.5t134 -58.5t149.5 57.5t80.5 155.5l68 486h203l-119 -838h-2q-88 -47 -88 -131q0 -43 33 -67.5t77 -24.5t70 8l-4 -160 q-49 -12 -96 -12q-109 0 -183.5 55.5t-74.5 137.5z" glyph-name="uogonek" horiz-adv-x="995" unicode="ų"/><glyph d="M1823 1438h221l-750 -1454h-28l-234 979l-506 -979h-30l-334 1454h225l201 -934l495 950h31l225 -962zM1223 1540l-107 119l-133 -119h-158q18 23 205 272h211l133 -272h-151z" glyph-name="Wcircumflex" horiz-adv-x="1918" unicode="Ŵ"/><glyph d="M1186 838h209l-508 -854h-29l-178 524l-322 -524h-28l-264 854h202l131 -461l314 481h30l168 -479zM854 963l-106 118l-134 -118h-157q16 23 205 272h210l134 -272h-152z" glyph-name="wcircumflex" horiz-adv-x="1308" unicode="ŵ"/><glyph d="M1067 1438h244l-574 -754l-96 -684h-217l96 684l-364 754h237l262 -527zM848 1540l-107 119l-133 -119h-157q18 23 204 272h211l133 -272h-151z" glyph-name="Ycircumflex" horiz-adv-x="1179" unicode="Ŷ"/><glyph d="M795 838h211l-793 -1354h-201l-12 20l350 590l-252 744h215l170 -521zM684 963l-106 118l-134 -118h-157q16 23 205 272h210l134 -272h-152z" glyph-name="ycircumflex" horiz-adv-x="931" unicode="ŷ"/><glyph d="M1067 1438h244l-574 -754l-96 -684h-217l96 684l-364 754h237l262 -527zM599 1796q48 0 81 -35t29 -84t-39 -79.5t-82 -30.5t-79 32.5t-30 81.5q4 49 38 82t82 33zM920 1796q48 0 81 -35t29 -84t-39 -79.5t-82 -30.5t-78.5 32.5t-29.5 81.5q4 49 37.5 82t81.5 33z" glyph-name="Ydieresis" horiz-adv-x="1179" unicode="Ÿ"/><glyph d="M1006 180l-27 -180h-954l-15 31l854 1226h-608l25 181h915l12 -31l-850 -1227h648zM604 1540l129 272h258l-2 -30l-233 -242h-152z" glyph-name="Zacute" horiz-adv-x="1140" unicode="Ź"/><glyph d="M770 162l-22 -162h-725l-13 37l533 639h-408l21 162h712l6 -41l-516 -635h412zM391 963l129 272h258l-2 -31l-233 -241h-152z" glyph-name="zacute" horiz-adv-x="849" unicode="ź"/><glyph d="M1006 180l-27 -180h-954l-15 31l854 1226h-608l25 181h915l12 -31l-850 -1227h648zM745.5 1796q47.5 0 80 -35t28.5 -84t-39 -79.5t-82 -30.5t-78.5 32.5t-27.5 82t37.5 82t81 32.5z" glyph-name="Zdotaccent" horiz-adv-x="1140" unicode="Ż"/><glyph d="M770 162l-22 -162h-725l-13 37l533 639h-408l21 162h712l6 -41l-516 -635h412zM545 1219q47 0 79.5 -35t28.5 -84t-38.5 -80t-82 -31t-79 33t-27.5 82t38 82t81 33z" glyph-name="zdotaccent" horiz-adv-x="849" unicode="ż"/><glyph d="M1006 180l-27 -180h-954l-15 31l854 1226h-608l25 181h915l12 -31l-850 -1227h648zM524 1812h133l105 -124l143 124h133q-4 -20 -4 -30l-188 -242h-205l-121 242q4 20 4 30z" glyph-name="Zcaron" horiz-adv-x="1140" unicode="Ž"/><glyph d="M764 162l-23 -162h-725l-12 37l533 639h-408l21 162h712l6 -41l-516 -635h412zM283 1235h133l104 -125l144 125h133q-4 -21 -4 -31l-189 -241h-205l-120 241q4 20 4 31z" glyph-name="zcaron" horiz-adv-x="847" unicode="ž"/><glyph d="M801 676h-256l-223 -662q-37 -106 -95.5 -178t-168 -117.5t-248.5 7.5l69 165q74 -23 138.5 9t97.5 131l219 645h-211l2 22l57 140h207l107 315q133 389 508 287l-58 -160q-78 29 -143.5 -3t-97.5 -130l-105 -309h223z" glyph-name="florin" horiz-adv-x="827" unicode="ƒ"/><glyph d="M831 1823q63 0 119 -33l80 147h227l-4 -30l-235 -178q47 -68 41 -153t-59.5 -149.5t-133.5 -87.5l387 -1339h-227l-82 293h-602l-168 -293h-242l770 1348q-66 27 -102.5 88t-28.5 139q8 106 84 177t176 71zM743 1030l-309 -559h461zM802 1446q52 0 91 38t43 92t-27 91 t-83 37t-90 -37t-43 -91t26 -92t83 -38z" glyph-name="Aringacute" horiz-adv-x="1298" unicode="Ǻ"/><glyph d="M594 1245q61 0 113 -28l79 139h226l-4 -31l-230 -174q49 -66 43 -154q-12 -121 -104 -192q193 -115 166 -365l-66 -440h-108l-60 92q-90 -119 -282 -119q-137 0 -222.5 79t-82.5 200t96.5 203t238.5 82q82 0 168 -36t121 -77l4 35q14 94 -42 165.5t-156 71.5t-203 -45 l-56 152q66 31 136 45q-43 65 -35 160t84 166t176 71zM430 121q82 0 153 52t83 124l2 8q-35 35 -98.5 63.5t-139.5 27.5t-122 -37.5t-52 -96.5t43 -100.5t131 -40.5zM562 868q52 0 92 38t44 92t-26.5 91t-82.5 37t-90 -37t-43 -91t24.5 -92t81.5 -38z" glyph-name="aringacute" horiz-adv-x="954" unicode="ǻ"/><glyph d="M1167 180h590l-24 -180h-807l41 291h-547l-256 -291h-264l1226 1438h781l-25 -183h-565l-49 -348h454l-24 -182h-455zM567 475h424l92 610zM1165 1540l129 272h258l-2 -30l-233 -242h-152z" glyph-name="AEacute" horiz-adv-x="1894" unicode="Ǽ"/><glyph d="M1172 131q120 0 229 80l84 -131q-127 -106 -344 -107q-131 0 -235.5 56.5t-160.5 154.5q-125 -211 -378 -211q-137 0 -222.5 79t-82.5 200t96.5 203t238.5 82q82 0 168 -36t121 -77l4 35q14 94 -42 165.5t-156 71.5t-203 -45l-56 152q125 59 273 59q205 -4 309 -145 q137 147 333 147t299.5 -137.5t78.5 -327.5h-639l-2 -22q0 -109 83.5 -177.5t203.5 -68.5zM430 121q82 0 153 52t83 124l2 8q-35 35 -98.5 63.5t-139.5 27.5t-122 -37.5t-52 -96.5t43 -100.5t131 -40.5zM1339 528q0 72 -56 125.5t-139 53.5t-150 -58t-81 -121h426zM750 963 l129 272h258l-2 -31l-234 -241h-151z" glyph-name="aeacute" horiz-adv-x="1562" unicode="ǽ"/><glyph d="M829 1540l129 272h259l-3 -30l-233 -242h-152zM891 1466q186 0 338 -82l155 228l127 -80l-157 -234q119 -104 180 -256.5t49 -330.5q-23 -319 -240 -529.5t-540 -210.5q-164 0 -309 68l-185 -268l-123 84l181 264q-131 102 -199.5 260t-54.5 342q25 322 242.5 533.5 t535.5 211.5zM514 1120.5q-158 -155.5 -178 -409.5t151 -414l627 917q-106 61 -229 62q-213 0 -371 -155.5zM811 166q211 0 372 152.5t177 395.5t-131 400l-619 -901q90 -47 201 -47z" glyph-name="Oslashacute" horiz-adv-x="1601" unicode="Ǿ"/><glyph d="M459 963l129 272h258l-2 -31l-234 -241h-151zM492 -27q-94 0 -177 35l-131 -196l-94 59l129 192q-159 129 -145 343t147 336t324 122q94 0 184 -39l115 172l100 -53l-119 -176q154 -127 142 -338t-147 -334t-328 -123zM354.5 625.5q-78.5 -76.5 -86.5 -198.5t56 -202 l309 455q-45 23 -96 22q-104 0 -182.5 -76.5zM498 135q104 0 183 79t88 198t-54 188l-303 -444q33 -21 86 -21z" glyph-name="oslashacute" horiz-adv-x="999" unicode="ǿ"/><glyph d="M684 1272q-122 0 -187 -53.5t-68 -128.5t51.5 -136t158.5 -131q172 -113 235.5 -228.5t49.5 -248.5q-18 -184 -152.5 -280.5t-337.5 -94.5q-131 2 -235.5 47t-163.5 109l112 156q133 -121 299 -121q111 0 180.5 53t75.5 133q4 49 -7 88t-50 80t-66.5 63.5t-97.5 75.5 q-143 109 -211.5 206t-61.5 239t127 254t333 112q100 0 198.5 -27.5t153.5 -62.5l-78 -184q-136 80 -258 80zM174 -487l119 362h258l2 -31l-309 -350z" glyph-name="Scommaaccent" horiz-adv-x="1024" unicode="Ș"/><glyph d="M461 698q-135 0 -144 -88q-2 -35 34 -58.5t108 -43.5q137 -39 206.5 -116.5t57.5 -189.5t-111.5 -170.5t-225.5 -58.5t-218 26t-133 54l65 160q27 -18 114 -48t155 -30q164 0 170 88q2 39 -33 62.5t-121 50.5q-276 84 -256 282q12 119 114.5 182.5t246.5 63.5t278 -61 l-57 -160q-115 55 -250 55zM98 -487l119 362h258l2 -31l-309 -350z" glyph-name="scommaaccent" horiz-adv-x="804" unicode="ș"/><glyph d="M1106 1438l-25 -183h-356l-176 -1255h-215l176 1255h-354l24 183h926zM176 -487l119 362h258l2 -31l-309 -350z" glyph-name="uni021A" horiz-adv-x="1005" unicode="Ț"/><glyph d="M447 150q37 0 71 10l19 -160q-59 -14 -121 -14q-129 0 -203 71.5t-55 192.5l59 426h-141q2 8 2 20l55 142h105l41 284l188 29h16l-43 -313h199l-23 -162h-198l-58 -426q-8 -51 21 -75.5t66 -24.5zM63 -487l119 362h258l2 -31l-309 -350z" glyph-name="uni021B" horiz-adv-x="628" unicode="ț"/><glyph d="M502 963l-107 118l-133 -118h-158q18 23 205 272h211l133 -272h-151z" glyph-name="circumflex" horiz-adv-x="643" unicode="ˆ"/><glyph d="M160 1235h133l104 -125l144 125h133q-4 -21 -4 -31l-189 -241h-205l-120 241q4 20 4 31z" glyph-name="caron" horiz-adv-x="643" unicode="ˇ"/><glyph d="M342 963q-113 0 -167 76.5t-23 195.5h143q-16 -33 -5 -88t58 -55t67.5 46t20.5 97h144q8 -113 -58.5 -192.5t-179.5 -79.5z" glyph-name="breve" horiz-adv-x="534" unicode="˘"/><glyph d="M256 1219q47 0 80 -35t28.5 -84t-39 -80t-81.5 -31t-79 33t-28 82t38 82t81 33z" glyph-name="dotaccent" horiz-adv-x="331" unicode="˙"/><glyph d="M374.5 1245q100.5 0 168 -71.5t59.5 -176t-85 -175t-179 -70.5t-167.5 70.5t-56.5 175.5t84.5 176t176 71zM343 868q52 0 92 38t44 92t-26.5 91t-82.5 37t-90 -37t-43 -91t24.5 -92t81.5 -38z" glyph-name="ring" horiz-adv-x="579" unicode="˚"/><glyph d="M164 -131q0 -43 33 -67.5t77 -24.5t70 8l-4 -160q-49 -12 -96 -12q-109 0 -183.5 55.5t-74.5 147.5t66.5 157.5t150.5 69.5l53 -23l-4 -20q-88 -47 -88 -131z" glyph-name="ogonek" horiz-adv-x="464" unicode="˛"/><glyph d="M302 1208q58 0 127 -26.5t95 -26.5q55 0 86 47l80 -24q-10 -92 -64.5 -140.5t-110.5 -48.5t-126.5 27.5t-98.5 27.5t-44.5 -10t-32.5 -39l-80 25q8 98 59.5 143t109.5 45z" glyph-name="tilde" horiz-adv-x="659" unicode="˜"/><glyph d="M131 963l105 272h217l-2 -31l-220 -241h-100zM408 963l104 272h217l-2 -31l-219 -241h-100z" glyph-name="hungarumlaut" horiz-adv-x="671" unicode="˝"/><glyph d="M-72 -487l119 362h258l2 -31l-309 -350z" glyph-name="uni0326" horiz-adv-x="512" unicode="̦"/><glyph d="M858 1274q-182 0 -321.5 -146.5t-163.5 -396.5q-18 -188 45 -376.5t174 -325.5l-19 -29h-518l27 180h270q-90 92 -151.5 253t-48.5 329q25 324 232.5 514t486.5 190t459.5 -197.5t156.5 -508.5q-14 -172 -110.5 -331t-225.5 -249h276l-26 -180h-553l-8 29 q176 131 290.5 323.5t131.5 384.5q20 244 -101 390.5t-303 146.5z" glyph-name="Omega" horiz-adv-x="1531" unicode="Ω"/><glyph d="M1036 676h-147l-55 -676h-193l57 676h-249l-142 -676h-201l146 676h-146l23 162h930z" glyph-name="pi" horiz-adv-x="1034" unicode="π"/><glyph d="M1823 1438h221l-750 -1454h-28l-234 979l-506 -979h-30l-334 1454h225l201 -934l495 950h31l225 -962zM1063 1812l117 -272h-152l-225 242l2 30h258z" glyph-name="Wgrave" horiz-adv-x="1918" unicode="Ẁ"/><glyph d="M1186 838h209l-508 -854h-29l-178 524l-322 -524h-28l-264 854h202l131 -461l314 481h30l168 -479zM694 1235l117 -272h-152l-225 241l2 31h258z" glyph-name="wgrave" horiz-adv-x="1308" unicode="ẁ"/><glyph d="M1823 1438h221l-750 -1454h-28l-234 979l-506 -979h-30l-334 1454h225l201 -934l495 950h31l225 -962zM1030 1540l129 272h258l-2 -30l-233 -242h-152z" glyph-name="Wacute" horiz-adv-x="1918" unicode="Ẃ"/><glyph d="M1186 838h209l-508 -854h-29l-178 524l-322 -524h-28l-264 854h202l131 -461l314 481h30l168 -479zM653 963l129 272h258l-2 -31l-233 -241h-152z" glyph-name="wacute" horiz-adv-x="1308" unicode="ẃ"/><glyph d="M1823 1438h221l-750 -1454h-28l-234 979l-506 -979h-30l-334 1454h225l201 -934l495 950h31l225 -962zM966 1796q48 0 80.5 -35t28.5 -84t-39 -79.5t-82 -30.5t-78.5 32.5t-29.5 81.5q4 49 38 82t82 33zM1287 1796q48 0 81 -35t29 -84t-39 -79.5t-82 -30.5t-79 32.5 t-30 81.5q4 49 38 82t82 33z" glyph-name="Wdieresis" horiz-adv-x="1918" unicode="Ẅ"/><glyph d="M1186 838h209l-508 -854h-29l-178 524l-322 -524h-28l-264 854h202l131 -461l314 481h30l168 -479zM597 1219q48 0 81 -35t28.5 -84t-39 -80t-81.5 -31t-79 33t-30 82q4 49 38 82t82 33zM918 1219q48 0 81 -35t29 -84t-39 -80t-82 -31t-78.5 33t-29.5 82q4 49 37.5 82 t81.5 33z" glyph-name="wdieresis" horiz-adv-x="1308" unicode="ẅ"/><glyph d="M682 -29q-154 0 -262 41l49 168l29 8q72 -30 178 -30t194 80.5t92 216.5t-98 222.5t-286 47.5l-21 31l334 497h-408l-178 -1253h-213l203 1438l919 -2l9 -29l-373 -549q131 -4 233.5 -115.5t97.5 -310.5t-144.5 -330t-354.5 -131z" glyph-name="uni1E9E" horiz-adv-x="1247" unicode="ẞ"/><glyph d="M1067 1438h244l-574 -754l-96 -684h-217l96 684l-364 754h237l262 -527zM686 1812l117 -272h-152l-225 242l2 30h258z" glyph-name="Ygrave" horiz-adv-x="1179" unicode="Ỳ"/><glyph d="M795 838h211l-793 -1354h-201l-12 20l350 590l-252 744h215l170 -521zM526 1235l117 -272h-151l-226 241l2 31h258z" glyph-name="ygrave" horiz-adv-x="931" unicode="ỳ"/><glyph glyph-name="uni2009" horiz-adv-x="102" unicode=" "/><glyph d="M887 418h-805l27 178h804z" glyph-name="endash" horiz-adv-x="978" unicode="–"/><glyph d="M1454 418h-1372l27 178h1372z" glyph-name="emdash" horiz-adv-x="1548" unicode="—"/><glyph d="M154 862v31l350 569l69 -18l-155 -582h-264z" glyph-name="quoteleft" horiz-adv-x="520" unicode="‘"/><glyph d="M571 1436v-31l-350 -569l-69 18l155 582h264z" glyph-name="quoteright" horiz-adv-x="520" unicode="’"/><glyph d="M389 266v-30l-350 -570l-70 19l156 581h264z" glyph-name="quotesinglbase" horiz-adv-x="507" unicode="‚"/><glyph d="M154 862v31l350 569l69 -18l-155 -582h-264zM532 862v31l351 569l69 -18l-155 -582h-265z" glyph-name="quotedblleft" horiz-adv-x="903" unicode="“"/><glyph d="M571 1436v-31l-350 -569l-69 18l155 582h264zM950 1436v-31l-350 -569l-70 18l156 582h264z" glyph-name="quotedblright" horiz-adv-x="903" unicode="”"/><glyph d="M389 266v-30l-350 -570l-70 19l156 581h264zM772 266v-30l-350 -570l-70 19l156 581h264z" glyph-name="quotedblbase" horiz-adv-x="890" unicode="„"/><glyph d="M963 946h-301l-175 -1214h-192l174 1214h-303l22 162h304l45 330h192l-45 -330h301z" glyph-name="dagger" horiz-adv-x="991" unicode="†"/><glyph d="M887 381h-305l-93 -649h-190l92 649h-307l22 164h308l57 401h-305l22 162h306l45 330h190l-45 -330h301l-22 -162h-301l-58 -401h305z" glyph-name="daggerdbl" horiz-adv-x="991" unicode="‡"/><glyph d="M376 717q87 0 148.5 -64.5t53.5 -155.5t-72 -148.5t-153 -57.5t-148 62.5t-51 152.5t71.5 150.5t150.5 60.5z" glyph-name="bullet" horiz-adv-x="704" unicode="•"/><glyph d="M238 279q62 0 103.5 -46.5t36.5 -108.5t-50.5 -103t-107.5 -41t-103 44t-36 106t50 105.5t107 43.5zM750 279q62 0 103.5 -46.5t36.5 -108.5t-50.5 -103t-107.5 -41t-103 44t-36 106t50 105.5t107 43.5zM1262 279q62 0 103.5 -46.5t36.5 -108.5t-50.5 -103t-107.5 -41 t-103 44t-36 106t50 105.5t107 43.5z" glyph-name="ellipsis" horiz-adv-x="1529" unicode="…"/><glyph d="M443 727q-128 0 -218 89t-77 227t110.5 225.5t227.5 87.5t218 -89t74 -229t-110.5 -225.5t-224.5 -85.5zM447 866q62 0 105.5 50.5t53.5 124t-25 126t-97 52.5t-107 -51.5t-55 -125.5t26.5 -125t98.5 -51zM80 68l1251 1294l105 -102l-1250 -1299zM1051 -20 q-127 0 -218 89t-77 228t112.5 225t227.5 86t216.5 -88t73.5 -226t-111 -226t-224 -88zM1056.5 119q61.5 0 104.5 51t53.5 125t-24.5 125t-97 51t-107.5 -51t-55.5 -124t27.5 -125t99 -52zM1736 -20q-128 0 -218 89t-76 228t111.5 225t226.5 86t217 -88t74 -227t-110.5 -226 t-224.5 -87zM1740 119q62 0 105 51t56 125q10 74 -25 125t-98.5 51t-107.5 -51t-54 -124t26 -125t98 -52z" glyph-name="perthousand" horiz-adv-x="2107" unicode="‰"/><glyph d="M412 -33l-351 418l7 33l464 473l127 -121l-378 -377l266 -315z" glyph-name="guilsinglleft" horiz-adv-x="704" unicode="‹"/><glyph d="M287 891l350 -418l-6 -33l-465 -473l-127 121l379 377l-266 315z" glyph-name="guilsinglright" horiz-adv-x="704" unicode="›"/><glyph d="M-432 37l1239 1395l80 -76l-1239 -1391z" glyph-name="fraction" horiz-adv-x="356" unicode="⁄"/><glyph d="M432 868q-131 0 -206.5 102.5t-57.5 271.5t115.5 272.5t228.5 103.5t205.5 -103.5t58.5 -270.5t-114.5 -271.5t-229.5 -104.5zM440.5 991q71.5 0 123.5 73t67 179q16 106 -17.5 179t-107.5 73t-125 -68.5t-67 -181.5t19.5 -183.5t107 -70.5z" glyph-name="uni2070" horiz-adv-x="727" unicode="⁰"/><glyph d="M674 1622l47 -20l-68 -492h92l-14 -113h-94l-14 -108h-138l15 108h-350l-25 47zM342 1110h174l35 233z" glyph-name="uni2074" horiz-adv-x="718" unicode="⁴"/><glyph d="M368 868q-122 0 -225 62l50 108h18q73 -47 149 -47t129.5 35t55.5 97t-41.5 97t-113.5 35t-140 -61l-41 23l92 382h408l-17 -116h-293l-32 -150q77 25 149 11t124 -67.5t46 -165.5t-101 -177.5t-217 -65.5z" glyph-name="uni2075" horiz-adv-x="677" unicode="⁵"/><glyph d="M412 868q-108 0 -186.5 76t-67.5 221q18 201 165.5 321t346.5 128l14 -105l-12 -16q-106 -4 -204.5 -60.5t-129.5 -160.5q27 29 78.5 45t113.5 8t111 -65.5t44 -158.5t-85 -167t-188 -66zM416 985q51 0 92 36t43 89t-33 88t-84 35t-91 -37t-45 -88t32 -87t86 -36z" glyph-name="uni2076" horiz-adv-x="667" unicode="⁶"/><glyph d="M201 1483l16 116h508l12 -30l-399 -680h-170l369 594h-336z" glyph-name="uni2077" horiz-adv-x="626" unicode="⁷"/><glyph d="M427 870q-126 0 -203 68t-66 162q6 66 49 117t98 65q-63 45 -57 130t72.5 145.5t176.5 60.5t169 -61.5t53 -135.5q-2 -49 -29.5 -90t-64.5 -57q41 -14 71.5 -66.5t24.5 -113.5q-8 -98 -88 -161t-206 -63zM448.5 1223q-63.5 0 -102.5 -34t-43 -81t33 -81t100 -33t100.5 33 t41.5 78t-31 82t-98.5 36zM477 1317q47 0 75 26.5t31 60.5t-22 62.5t-73 28.5t-75.5 -26.5t-30.5 -60.5t22.5 -62.5t72.5 -28.5z" glyph-name="uni2078" horiz-adv-x="688" unicode="⁸"/><glyph d="M462 1618q108 0 185.5 -76t65.5 -223q-16 -199 -165 -319.5t-345 -127.5l-17 105l15 14q104 6 202.5 62.5t128.5 158.5q-25 -29 -76.5 -44t-113.5 -8t-112 65.5t-44 158.5t87 167t189 67zM457 1501q-51 0 -92 -37t-43.5 -90t32.5 -87t83 -34t90 37t46 88q2 51 -31.5 87 t-84.5 36z" glyph-name="uni2079" horiz-adv-x="667" unicode="⁹"/><glyph d="M283 -227q-131 0 -207 102t-58 271t115.5 272.5t229 103.5t206 -103.5t58.5 -270.5t-114.5 -271t-229.5 -104zM290.5 -104q71.5 0 124 72.5t66.5 178.5q16 106 -17.5 179t-107 73t-125 -68.5t-67.5 -181.5t19.5 -183t107 -70z" glyph-name="uni2080" horiz-adv-x="727" unicode="₀"/><glyph d="M135 -207l78 543l-104 -49l-50 102l289 133h27l-103 -729h-137z" glyph-name="uni2081" horiz-adv-x="514" unicode="₁"/><glyph d="M143 319l-77 68q61 106 183 130t217 -45t85 -198q-6 -77 -54 -144t-86 -101.5t-76 -69.5t-50 -45h245l-16 -121h-539l-8 29q279 219 334 272q103 98 109 171t-41 109t-110.5 20.5t-96.5 -75.5h-19z" glyph-name="uni2082" horiz-adv-x="677" unicode="₂"/><glyph d="M229 -227q-129 0 -235 61l47 109h22q77 -47 149 -47t122.5 31t57.5 95t-54.5 106t-165.5 11l-18 25l202 223h-264l17 117h471l8 -29l-215 -248q70 -8 120 -64.5t44 -154.5t-92.5 -166.5t-215.5 -68.5z" glyph-name="uni2083" horiz-adv-x="677" unicode="₃"/><glyph d="M516 526l47 -20l-67 -492h92l-15 -112h-94l-14 -109h-137l14 109h-350l-25 47zM184 14h174l35 234z" glyph-name="uni2084" horiz-adv-x="718" unicode="₄"/><glyph d="M208 -227q-122 0 -224 61l49 109h18q73 -47 149 -47t129.5 35t55.5 97t-41.5 97t-113.5 35t-140 -62l-41 23l92 383h408l-17 -117h-292l-33 -149q77 26 149 12t124 -68.5t46 -166.5t-101 -177t-217 -65z" glyph-name="uni2085" horiz-adv-x="677" unicode="₅"/><glyph d="M260 -227q-108 0 -186 75.5t-68 221.5q18 201 165.5 320.5t346.5 127.5l14 -104l-12 -17q-106 -4 -204.5 -60t-129.5 -161q27 29 79 45.5t104 7.5q72 -8 121 -65.5t44 -158.5t-85.5 -166.5t-188.5 -65.5zM264 -111q51 0 92 36t43 89.5t-32.5 88t-84 34.5t-91 -37 t-45.5 -88t31.5 -87t86.5 -36z" glyph-name="uni2086" horiz-adv-x="667" unicode="₆"/><glyph d="M53 387l17 117h508l12 -31l-400 -680h-170l369 594h-336z" glyph-name="uni2087" horiz-adv-x="626" unicode="₇"/><glyph d="M269 -227q-126 0 -202.5 67.5t-66.5 161.5q6 66 49 117t98 65q-63 44 -57 130t72.5 146t176.5 60t169 -61.5t53 -134.5q-2 -49 -29.5 -90t-64.5 -58q41 -14 71.5 -66.5t24.5 -113.5q-8 -98 -88 -160.5t-206 -62.5zM290.5 125q-63.5 0 -102 -34t-42.5 -81t33 -80.5 t100 -32.5t100 32.5t41 77.5t-31 82t-98.5 36zM319.5 219q47.5 0 75 26.5t30.5 60.5t-22.5 62.5t-72.5 28.5t-75 -26.5t-31 -60.5t22.5 -62.5t73 -28.5z" glyph-name="uni2088" horiz-adv-x="688" unicode="₈"/><glyph d="M318 518q108 0 186 -75.5t65 -223.5q-16 -199 -164.5 -319.5t-345.5 -126.5l-16 104l14 14q104 6 202.5 62.5t129.5 159.5q-25 -29 -77 -44.5t-114 -8.5t-111.5 65.5t-43.5 158.5t86.5 167t188.5 67zM313 401q-51 0 -92 -36.5t-43 -90t33 -87t83 -33.5t90 36t45 88 t-31 87.5t-85 35.5z" glyph-name="uni2089" horiz-adv-x="667" unicode="₉"/><glyph d="M856 -29q-211 0 -388 134.5t-235 345.5h-243v20l45 115h174q-10 63 8 153h-137l2 21l43 117h125q76 236 264 360.5t420 124.5q154 0 285 -62.5t206 -134.5l-129 -141q-166 154 -358 154q-145 0 -270 -76t-183 -225h613v-21l-43 -117h-617q-18 -88 -10 -153h580 q0 -14 -2 -21l-43 -114h-496q45 -135 163 -218t282 -83t311 96l94 -150q-154 -125 -461 -125z" glyph-name="Euro" horiz-adv-x="1392" unicode="€"/><glyph d="M520 -29q-166 0 -251 114t-58 271q0 4 1 11.5t1 9.5q-59 -45 -129 -90l-76 112q104 72 230 166l73 465q37 248 139.5 356.5t235.5 108.5t202.5 -91t51.5 -228q-24 -178 -166 -339.5t-352 -340.5l-14 -99q-20 -125 25.5 -196.5t131.5 -71.5q150 0 250 182l115 -43 q-131 -297 -410 -297zM696 1356q-143 0 -188 -305l-57 -346q92 84 152.5 147t122.5 157.5t74 173.5t-17 126t-87 47z" glyph-name="afii61289" horiz-adv-x="958" unicode="ℓ"/><glyph d="M1010 1335h200l-186 -1335h-201l82 582l-473 405l-139 -987h-201l189 1341l26 17l631 -543zM1607.5 604q-153.5 0 -252.5 107.5t-81 272.5t134 271.5t269.5 106.5t252 -107.5t80.5 -272.5t-133.5 -271.5t-269 -106.5zM1618 772q78 0 133 60.5t68 150.5q14 90 -30 151.5 t-121 61.5t-132.5 -60.5t-69.5 -151.5t30 -151.5t122 -60.5zM1548.5 422q61.5 0 105.5 -47t38 -111t-51.5 -104.5t-107.5 -40.5t-104 43.5t-37 107.5t50 108t106.5 44z" glyph-name="afii61352" horiz-adv-x="1998" unicode="№"/><glyph d="M782 1100q162 0 252 -75.5t90 -194.5t-97 -191t-232 -72q-31 0 -45 2v-207h-148l-2 715q102 23 182 23zM797 698q80 0 128 38t48 95.5t-48 93.5t-124 36q-14 -1 -51 -5v-254q33 -4 47 -4zM78 718q0 310 211 526t526 216t526 -216t211 -526t-211 -525.5t-526 -215.5 t-526 215.5t-211 525.5zM209 717q0 -264 175 -447.5t434 -183.5t435.5 184.5t176.5 447.5t-176.5 446.5t-436.5 183.5t-434 -183.5t-174 -447.5z" glyph-name="uni2117" horiz-adv-x="1597" unicode="℗"/><glyph d="M498 1321q-55 0 -96.5 -25.5t-42.5 -60.5t10.5 -48t17.5 -19.5t22.5 -13.5t24.5 -10t29.5 -11.5t30.5 -10.5q238 -80 227 -258q-8 -104 -100.5 -160.5t-240.5 -56.5t-257 74l45 121q27 -20 102.5 -44t135 -24t104.5 24.5t47 65.5t-25.5 69t-99.5 50q-244 74 -227 252 q8 98 91 157.5t216 59.5t252 -57l-47 -131q-106 57 -219 57zM975 655h-146l115 783l35 8l262 -336l367 336l32 -8l-108 -783h-146l74 488l-233 -217h-17l-161 221z" glyph-name="uni2120" horiz-adv-x="1613" unicode="℠"/><glyph d="M797 1438l-19 -131h-229l-92 -652h-150l92 652h-229l18 131h609zM942 655h-145l114 783l35 8l262 -336l367 336l33 -8l-109 -783h-145l73 488l-233 -217h-16l-162 221z" glyph-name="trademark" horiz-adv-x="1581" unicode="™"/><glyph d="M826 68q158 0 315 74.5t264 203.5q49 -41 72 -63q-254 -309 -684 -310q-303 0 -496 189.5t-193 474.5q0 342 248 585.5t584 243.5q276 0 457.5 -186t181.5 -455q0 -47 -6 -100l-1151 -2q-41 -299 -60 -449q66 -90 188 -148t280 -58zM922 1366q-250 0 -439 -176l-53 -373 h858l51 363q-66 86 -179 136t-238 50z" glyph-name="estimated" horiz-adv-x="1597" unicode="℮"/><glyph d="M2036 788v-147h-1682l193 -195l-86 -94l-338 342v33l338 348l86 -90l-193 -197h1682z" glyph-name="arrowleft" horiz-adv-x="2117" unicode="←"/><glyph d="M629 -268h-148v1681l-194 -194l-92 88l342 338h32l349 -338l-93 -88l-196 194v-1681z" glyph-name="arrowup" horiz-adv-x="989" unicode="↑"/><glyph d="M123 641v147h1681l-194 195l88 92l338 -342v-33l-338 -348l-88 92l194 197h-1681z" glyph-name="arrowright" horiz-adv-x="2117" unicode="→"/><glyph d="M420 1440h147v-1682l195 193l94 -86l-344 -338h-33l-346 338l90 86l197 -193v1682z" glyph-name="arrowdown" horiz-adv-x="989" unicode="↓"/><glyph d="M492 -27q-176 0 -298 116.5t-122 310.5t136 329t337 135q143 0 213 -112q-2 205 -131 350t-344 196l-15 25l70 141q303 -80 477 -297t174 -543t-133 -488.5t-364 -162.5zM510 135q102 0 182 88.5t80 212.5t-68 195t-172 71t-187 -85t-83 -212t73 -198.5t175 -71.5z" glyph-name="partialdiff" horiz-adv-x="1021" unicode="∂"/><glyph d="M1253 0h-1276l832 1462h37zM764 1028l-449 -831h656z" glyph-name="uni2206" horiz-adv-x="1339" unicode="∆"/><glyph d="M829 -319l226 1585h-559l-226 -1585h-215l248 1757h987l-248 -1757h-213z" glyph-name="product" horiz-adv-x="1306" unicode="∏"/><glyph d="M362 -150h646l-27 -169h-973l-8 28l705 852l-467 848l16 29h940l-25 -172h-632l399 -701l-4 -18z" glyph-name="summation" horiz-adv-x="1150" unicode="∑"/><glyph d="M897 610h-795l25 178h795z" glyph-name="minus" horiz-adv-x="948" unicode="−"/><glyph d="M1360 1620l-885 -2138h-37l-194 858l-152 -49l-45 158l334 110l123 -573l698 1706z" glyph-name="radical" horiz-adv-x="1196" unicode="√"/><glyph d="M1210 979q125 0 211 -81t78 -208t-105.5 -207t-224.5 -80q-174 0 -370 170q-123 -86 -214 -128t-201 -42t-196 82t-77.5 209t105.5 206t226 79q170 0 369 -174q131 90 221 132t178 42zM1171 559q59 0 108.5 32t55.5 96t-34 95t-94 31t-90 -20.5t-46 -26.5t-30.5 -19.5 t-30 -20.5t-33 -23.5t-33.5 -24.5q135 -119 227 -119zM396 569q47 0 94 21.5t75.5 40t102.5 71.5q-137 121 -230 121q-59 0 -108.5 -31.5t-55.5 -95.5t34.5 -95.5t87.5 -31.5z" glyph-name="infinity" horiz-adv-x="1521" unicode="∞"/><glyph d="M657.5 1669q67.5 0 126.5 -20l-45 -150q-70 29 -137 -8t-80 -135l-223 -1587q-16 -113 -68.5 -184.5t-122 -97.5t-138 -26t-128.5 21l45 149q70 -29 137.5 8.5t79.5 135.5l224 1587q16 113 69.5 185.5t123 97t137 24.5z" glyph-name="integral" horiz-adv-x="616" unicode="∫"/><glyph d="M338 666q80 0 200.5 -48.5t174.5 -48.5q98 0 155 80l80 -12q-4 -125 -86 -190.5t-158 -65.5t-201.5 47t-172.5 47q-105 0 -156 -78l-82 13q6 133 86 194.5t160 61.5zM387 1010q80 0 201 -47.5t174 -47.5q100 0 158 80l77 -14q-2 -125 -85.5 -190.5t-159.5 -65.5t-199 48 t-172 48q-107 0 -156 -80l-84 13q8 135 87 195.5t159 60.5z" glyph-name="approxequal" horiz-adv-x="1017" unicode="≈"/><glyph d="M317 436h-225l25 176h297l88 174h-361l25 179h432l160 305l137 -68l-121 -237h207l-25 -179h-278l-90 -174h344l-25 -176h-413l-177 -342l-139 70z" glyph-name="notequal" horiz-adv-x="1001" unicode="≠"/><glyph d="M901 248h-823l24 176h826zM934 485l-813 277l14 100l891 279l-25 -176l-503 -154l460 -156z" glyph-name="lessequal" horiz-adv-x="1052" unicode="≤"/><glyph d="M907 248h-825l27 176h823zM1010 762l-893 -277l24 172l510 156l-467 156l25 172l815 -279z" glyph-name="greaterequal" horiz-adv-x="1052" unicode="≥"/><glyph d="M483 -29l-397 742l614 753h37l400 -743l-617 -752h-37zM303 707l234 -443l381 459l-238 453z" glyph-name="lozenge" horiz-adv-x="1126" unicode="◊"/><glyph d="M693 1362q226 0 344 -196.5t80 -498.5t-198.5 -499t-386 -197t-345 201t-81.5 501t199.5 494.5t387.5 194.5zM540 150q126 0 221 143t129 377t-22.5 375t-182.5 141t-223 -141.5t-131 -373.5t24.5 -376.5t184.5 -144.5z" glyph-name="zero.oldstyle.lnum" horiz-adv-x="1130"/><glyph d="M182 178h324l125 885q-94 -45 -287 -131l-74 166l578 252h35l-166 -1172h293q-16 -119 -27 -178h-827q10 59 26 178z" glyph-name="one.oldstyle.lnum" horiz-adv-x="1130"/><glyph d="M662 1360q168 0 292.5 -121t98.5 -330q-18 -156 -128 -301t-407 -428h457l-25 -180h-874l-10 33q406 358 512 469q238 240 260 399q18 133 -43.5 206t-157.5 73q-133 2 -246 -127h-26l-107 118q51 74 160.5 131.5t243.5 57.5z" glyph-name="two.oldstyle.lnum" horiz-adv-x="1132"/><glyph d="M463 143q135 0 232.5 69t100.5 206t-112 208.5t-268 30.5l-21 35l369 459h-457l27 182h766l10 -28l-408 -514q102 -2 211 -109t99 -276q-10 -203 -151.5 -319t-346.5 -116t-276.5 32t-124.5 63l65 159l29 2q121 -84 256 -84z" glyph-name="three.oldstyle.lnum" horiz-adv-x="1130"/><glyph d="M965 1354l79 -19l-131 -946h160l-26 -172h-158l-31 -217h-211l31 217h-610l-31 62zM369 389h333l78 506z" glyph-name="four.oldstyle.lnum" horiz-adv-x="1132"/><glyph d="M464 -29q-247 0 -362 99l68 159l27 2q98 -84 268 -84q123 0 221 76t100 202t-70.5 192.5t-187.5 66.5t-155.5 -33t-64 -52t-25.5 -21l-45 16l176 739h665l-26 -182h-484l-80 -344q292 73 404.5 -73t110.5 -292q-4 -211 -148.5 -341t-391.5 -130z" glyph-name="five.oldstyle.lnum" horiz-adv-x="1132"/><glyph d="M552 -29q-208 0 -330 151.5t-93 401.5q25 170 122 365t315.5 324.5t434.5 146.5l35 -164l-24 -25q-211 -20 -374 -147t-237 -309q96 106 287 106q152 0 258 -114.5t92 -304.5t-146 -310.5t-340 -120.5zM561 145q111 0 179.5 72.5t78.5 184.5t-50.5 190t-162.5 78 t-179 -72t-88 -179t50 -190.5t172 -83.5z" glyph-name="six.oldstyle.lnum" horiz-adv-x="1130"/><glyph d="M274 1153l25 180h877l14 -30l-752 -1303h-256l690 1153h-598z" glyph-name="seven.oldstyle.lnum" horiz-adv-x="1132"/><glyph d="M888.5 83.5q-135.5 -114.5 -352.5 -112.5t-339.5 128t-100.5 315q14 125 94 221t187 121q-53 31 -87 104.5t-22 167.5q18 147 132 239.5t286 91.5t270.5 -105.5t81.5 -252.5q-12 -96 -63 -164.5t-115 -95.5q80 -31 137.5 -130t44.5 -218q-18 -195 -153.5 -309.5zM368 227 q68 -75 178 -77t189.5 68t90.5 180t-52 181.5t-176 73.5t-191.5 -66.5t-92.5 -176.5t54 -183zM501 861q48 -58 127 -59t142.5 55t71.5 136t-41 135.5t-128 56.5t-142.5 -54.5t-70.5 -133.5t41 -136z" glyph-name="eight.oldstyle.lnum" horiz-adv-x="1130"/><glyph d="M673 1360q208 0 329.5 -152.5t93.5 -402.5q-25 -170 -122.5 -365.5t-312.5 -322t-438 -146.5l-35 162l25 25q211 23 374 149.5t236 308.5q-96 -106 -286 -106q-152 0 -257.5 114.5t-92.5 305.5t145.5 310.5t340.5 119.5zM664 1184q-111 0 -179.5 -72t-78.5 -184 t50 -190.5t162 -78.5t179 72t89 179t-49.5 190.5t-172.5 83.5z" glyph-name="nine.oldstyle.lnum" horiz-adv-x="1130"/><glyph d="M530 -29q-217 0 -339.5 150.5t-105.5 371.5t162.5 367t363.5 146t342 -150t106 -370t-165 -367.5t-364 -147.5zM539 143q125 0 213 102.5t102 244t-55.5 243t-195.5 101.5t-214 -102t-100 -242t56.5 -243.5t193.5 -103.5z" glyph-name="zero.oldstyle.pnum" horiz-adv-x="1087"/><glyph d="M238 0l104 733l-133 -53l-55 166l395 151h35l-142 -997h-204z" glyph-name="one.oldstyle.pnum" horiz-adv-x="690"/><glyph d="M586 1004q148 0 256 -91.5t104 -237.5t-115.5 -260t-326.5 -249h420l-23 -166h-831l-15 55q49 33 150.5 99.5t147.5 97.5t137 94.5t170 144t82 161.5t-54 128t-135 49q-141 2 -244 -147h-30l-101 111q49 80 154.5 145.5t253.5 65.5z" glyph-name="two.oldstyle.pnum" horiz-adv-x="1036"/><glyph d="M353 -293q-200 0 -349 90l62 150h26q2 0 22.5 -10.5t24.5 -11.5t23.5 -9t27 -10t25.5 -8.5t30.5 -7.5t38.5 -5t74 -4q111 0 203 67.5t98 189.5t-101 189.5t-275 22.5l-19 35l363 430h-449l23 166h747l10 -29l-393 -465q115 -6 212 -104t87 -262q-10 -193 -160.5 -303.5 t-350.5 -110.5z" glyph-name="three.oldstyle.pnum" horiz-adv-x="1005"/><glyph d="M868 1004l82 -19l-116 -827h167l-22 -158h-168l-37 -268h-201l39 268h-594l-28 59zM307 158h328l63 442z" glyph-name="four.oldstyle.pnum" horiz-adv-x="1089"/><glyph d="M388 -293q-212 0 -374 92l62 150h28q100 -66 246 -66t238 70.5t96 184.5t-68.5 181.5t-186.5 67.5t-184.5 -54t-72.5 -57l-43 15l182 692h637l-22 -166h-471l-84 -311q47 18 127 21t157 -17q102 -33 171 -134.5t61 -244.5q-10 -178 -148.5 -301t-350.5 -123z" glyph-name="five.oldstyle.pnum" horiz-adv-x="1024"/><glyph d="M508 -29q-197 0 -311.5 147.5t-95.5 359.5t104.5 363.5t271 283.5t477.5 149l37 -154l-18 -22q-438 -43 -606 -389q109 109 269 109t257.5 -117t82.5 -303t-143 -306.5t-325 -120.5zM514 137q106 0 178 75.5t81 185.5t-50 188t-161 78t-176.5 -77t-84.5 -177.5 t48.5 -186.5t164.5 -86z" glyph-name="six.oldstyle.pnum" horiz-adv-x="1040"/><glyph d="M158 817l24 166h799l14 -31l-710 -1220h-234l651 1085h-544z" glyph-name="seven.oldstyle.pnum" horiz-adv-x="958"/><glyph d="M830.5 79q-130.5 -110 -335.5 -108t-323.5 122t-97.5 296q14 117 97 210t181 112q-47 29 -83 98.5t-25 155.5q18 139 122.5 224t266.5 83t255 -100.5t77 -239.5q-10 -88 -59.5 -149.5t-108.5 -88.5q72 -18 132 -115.5t48 -207.5q-16 -182 -146.5 -292zM333.5 211 q66.5 -70 170.5 -72t183 65.5t88 171.5t-54.5 168t-168.5 66t-182 -61.5t-90 -165.5t53.5 -172zM468 807q44 -51 116 -52t130 50t63 125t-39 124t-116 52t-131 -49t-63 -125t40 -125z" glyph-name="eight.oldstyle.pnum" horiz-adv-x="1052"/><glyph d="M573.5 1010q196.5 0 311 -147t95.5 -359t-104 -364t-270.5 -284t-478.5 -149l-37 154l19 22q438 43 606 389q-109 -108 -269 -108t-258 117t-83 303t143.5 306t325 120zM566 844q-106 0 -177.5 -75t-80.5 -185t50.5 -188.5t160.5 -78.5t176 77t85.5 177.5t-49 186.5 t-165.5 86z" glyph-name="nine.oldstyle.pnum" horiz-adv-x="1040"/><glyph d="M497 -29q-200 0 -311.5 147.5t-89.5 373.5t160.5 370t339.5 144t312.5 -147t88.5 -373t-161.5 -370.5t-338.5 -144.5zM504 143q119 0 193.5 100.5t94.5 246.5t-32.5 245t-172.5 99t-194 -98t-93 -244t33 -247.5t171 -101.5z" glyph-name="zero.oldstyle" horiz-adv-x="1028"/><glyph d="M131 0l25 164h280l82 579l-233 -92l-56 166l498 180h33l-117 -833h231l-22 -164h-721z" glyph-name="one.oldstyle" horiz-adv-x="1028"/><glyph d="M560 1004q148 0 256 -91.5t104 -237.5t-116 -260t-327 -249h420l-23 -166h-831l-14 55q49 33 150.5 99.5t147.5 97.5t136.5 94.5t170 144.5t82.5 162q3 80 -54.5 127t-135.5 49q-141 2 -243 -147h-31l-100 111q49 80 154.5 145.5t253.5 65.5z" glyph-name="two.oldstyle" horiz-adv-x="1028"/><glyph d="M363 -293q-200 0 -349 90l62 150h26q2 0 22.5 -10.5t25 -11.5t24 -9t26.5 -10t25.5 -8.5t30.5 -7.5t38 -5t75 -4q111 0 203 67.5t98 189.5t-101.5 189.5t-275.5 22.5l-19 35l363 430h-449l23 166h747l11 -29l-394 -465q115 -6 212.5 -104t86.5 -262 q-10 -193 -160.5 -303.5t-350.5 -110.5z" glyph-name="three.oldstyle" horiz-adv-x="1028"/><glyph d="M817 1004l80 -19l-115 -827h152l-23 -158h-151l-39 -268h-199l37 268h-559l-29 59zM274 158h308l63 432z" glyph-name="four.oldstyle" horiz-adv-x="1028"/><glyph d="M400 -293q-212 0 -373 92l61 150h29q99 -66 245 -66t238 70.5t96 184.5t-68.5 181.5t-186.5 67.5t-184.5 -54t-72.5 -57l-43 15l183 692h637l-23 -166h-471l-84 -311q47 18 127 21t158 -17q102 -33 170.5 -134.5t60.5 -244.5q-10 -178 -148.5 -301t-350.5 -123z" glyph-name="five.oldstyle" horiz-adv-x="1028"/><glyph d="M516 -29q-197 0 -311.5 147.5t-91.5 373.5q14 158 97 340t297.5 305.5t457.5 136.5l34 -154l-16 -22q-438 -41 -606 -389q109 109 267 109t256.5 -117t83.5 -303t-143 -306.5t-325 -120.5zM522 137q106 0 178 75.5t81 185.5t-49 188t-160 78t-177.5 -76t-85.5 -177 t48.5 -187.5t164.5 -86.5z" glyph-name="six.oldstyle" horiz-adv-x="1028"/><glyph d="M180 817l25 166h839l15 -31l-740 -1220h-231l678 1085h-586z" glyph-name="seven.oldstyle" horiz-adv-x="1030"/><glyph d="M815 78q-125 -109 -329 -107t-318.5 123t-93.5 297q14 117 96 210t182 110q-47 31 -86 99.5t-26 154.5q18 139 119.5 224t262.5 83t252 -102.5t74 -239.5q-8 -88 -59 -147.5t-113 -88.5q72 -18 132.5 -115.5t47.5 -207.5q-16 -184 -141 -293zM332.5 213 q63.5 -72 164.5 -74t174 65.5t83 169.5t-50.5 168t-163.5 68t-176 -62.5t-84 -163.5t52.5 -171zM463 807q43 -51 115 -52t126 49t58 126t-38 125t-114 51t-128 -50t-59 -125t40 -124z" glyph-name="eight.oldstyle" horiz-adv-x="1028"/><glyph d="M583.5 1010q196.5 0 311.5 -147.5t92 -373.5q-14 -158 -97 -340t-297.5 -305.5t-457.5 -136.5l-35 154l17 22q438 41 606 389q-109 -108 -267 -108t-257 117t-83 303t143.5 306t324 120zM576 844q-106 0 -177 -75t-81 -185t49 -188.5t160 -78.5t177 76t86 177t-49 187.5 t-165 86.5z" glyph-name="nine.oldstyle" horiz-adv-x="1028"/><glyph d="M408 664q-131 0 -207 102t-58 271t115.5 272.5t228.5 103.5t206 -103.5t59 -270.5t-114.5 -271t-229.5 -104zM415.5 786q71.5 0 124 73t66.5 179q16 106 -17.5 179t-107 73t-125 -68.5t-67.5 -181.5t19.5 -183.5t107 -70.5z" glyph-name="zero.numr" horiz-adv-x="727"/><glyph d="M254 684l78 543l-105 -49l-49 102l289 133h27l-103 -729h-137z" glyph-name="one.numr" horiz-adv-x="514"/><glyph d="M262 1210l-78 68q61 106 183 130t217.5 -45t85.5 -197t-94 -204.5t-122 -111.5t-51 -45h246l-16 -121h-539l-8 29q279 219 334 272q104 98 109 171t-42 108.5t-110.5 20.5t-95.5 -75h-19z" glyph-name="two.numr" horiz-adv-x="677"/><glyph d="M353 664q-128 0 -236 61l47 109h22q78 -48 150 -48t122 32t57 96t-54.5 105.5t-165.5 10.5l-19 25l203 223h-264l16 117h471l9 -29l-215 -248q70 -8 120 -64.5t44 -154.5t-92.5 -166.5t-214.5 -68.5z" glyph-name="three.numr" horiz-adv-x="677"/><glyph d="M649 1417l47 -20l-67 -492h92l-14 -112h-95l-14 -109h-137l14 109h-350l-25 47zM317 905h175l34 234z" glyph-name="four.numr" horiz-adv-x="718"/><glyph d="M343 664q-122 0 -224 61l49 109h18q74 -48 150 -48t129 35t55 97t-42 97.5t-114 35.5t-139 -62l-41 23l92 383h408l-16 -117h-293l-33 -150q76 25 149 12t125 -67.5t46 -166.5t-101.5 -177t-217.5 -65z" glyph-name="five.numr" horiz-adv-x="677"/><glyph d="M392 664q-108 0 -185.5 75.5t-67.5 221.5q18 201 166 320.5t346 127.5l15 -104l-13 -17q-106 -4 -204.5 -60.5t-129.5 -160.5q27 29 79 45t114 8t111 -65.5t44 -158.5t-86 -166.5t-189 -65.5zM397 780q51 0 92 36t43.5 89t-32.5 88t-84 35t-91 -37t-45 -88t31.5 -87 t85.5 -36z" glyph-name="six.numr" horiz-adv-x="667"/><glyph d="M190 1278l17 117h508l12 -31l-399 -680h-170l368 594h-336z" glyph-name="seven.numr" horiz-adv-x="624"/><glyph d="M388 666q-126 0 -202.5 67.5t-66.5 161.5q6 66 49 117t98 65q-63 45 -57 131t72.5 145.5t176.5 59.5t169 -61.5t53 -134.5q-2 -49 -29.5 -90.5t-64.5 -57.5q41 -14 71.5 -66.5t24.5 -113.5q-8 -98 -88 -160.5t-206 -62.5zM409.5 1018q-63.5 0 -102.5 -34t-43 -81t33 -81 t100 -33t100.5 33t41.5 78t-31 82t-98.5 36zM438 1112q47 0 75 26.5t31 60.5t-22.5 62.5t-72.5 28.5t-75 -26.5t-31 -60.5t22.5 -62.5t72.5 -28.5z" glyph-name="eight.numr" horiz-adv-x="688"/><glyph d="M440 1413q108 0 186.5 -75.5t65.5 -223.5q-16 -199 -164.5 -319.5t-345.5 -126.5l-16 104l14 14q104 6 202.5 62.5t129.5 159.5q-25 -29 -76.5 -44.5t-113.5 -8.5t-112 66t-44 159t86 166.5t188 66.5zM436 1296q-51 0 -92 -36.5t-43 -90t33 -87t83 -33.5t90 36.5t45 88.5 t-31 87t-85 35z" glyph-name="nine.numr" horiz-adv-x="667"/><glyph d="M307 -20q-131 0 -206.5 102t-57.5 271t115.5 272.5t228.5 103.5t206 -103.5t59 -270.5t-115 -271t-230 -104zM315.5 102q71.5 0 124 73t66.5 179q16 106 -17.5 179t-107.5 73t-125.5 -68.5t-67.5 -181.5t20 -183.5t107.5 -70.5z" glyph-name="zero.dnom" horiz-adv-x="727"/><glyph d="M160 0l78 543l-105 -49l-49 102l289 133h26l-102 -729h-137z" glyph-name="one.dnom" horiz-adv-x="514"/><glyph d="M172 526l-78 68q61 106 183 130t217.5 -45t86.5 -188q-11 -143 -95.5 -216.5t-122 -108.5t-50.5 -45h246l-16 -121h-539l-8 29q279 219 334 272q104 98 109 171t-42 108.5t-110.5 20.5t-96.5 -75h-18z" glyph-name="two.dnom" horiz-adv-x="677"/><glyph d="M254 -20q-129 0 -236 61l48 109h22q78 -48 150 -48t122 32t57 96t-54.5 105.5t-165.5 10.5l-19 25l203 223h-264l16 117h471l8 -29l-215 -248q70 -8 120 -64.5t44 -154.5t-92 -166.5t-215 -68.5z" glyph-name="three.dnom" horiz-adv-x="677"/><glyph d="M549 733l47 -20l-68 -492h93l-15 -112h-94l-14 -109h-138l15 109h-350l-25 47zM217 221h174l35 234z" glyph-name="four.dnom" horiz-adv-x="718"/><glyph d="M243 -20q-122 0 -225 61l50 109h18q74 -48 150 -48t129 35t55 97t-42 97.5t-114 35.5t-139 -62l-41 23l92 383h408l-17 -117h-293l-32 -150q76 25 148 12t124.5 -67.5t46.5 -166.5t-101 -177t-217 -65z" glyph-name="five.dnom" horiz-adv-x="677"/><glyph d="M292 -20q-108 0 -185.5 75.5t-67.5 220.5q18 201 165.5 321t346.5 128l14 -104l-12 -17q-106 -4 -204.5 -60.5t-129.5 -160.5q27 29 79 45t114 8t110.5 -65.5t43.5 -158.5t-85.5 -166.5t-188.5 -65.5zM297 96q51 0 92 36t43 89t-32.5 88t-84 35t-91.5 -37t-45 -88t32 -87 t86 -36z" glyph-name="six.dnom" horiz-adv-x="667"/><glyph d="M84 594l16 117h508l13 -31l-400 -680h-170l369 594h-336z" glyph-name="seven.dnom" horiz-adv-x="626"/><glyph d="M298 -18q-126 0 -203 67.5t-66 161.5q6 66 49 117t98 65q-63 45 -57 131t72.5 145.5t176.5 59.5t169 -61.5t53 -135.5q-2 -49 -30 -90t-64 -57q41 -14 71.5 -66.5t24.5 -113.5q-8 -98 -88 -160.5t-206 -62.5zM319.5 334q-63.5 0 -102.5 -34t-43 -81t33 -81t100 -33 t100 33t41 78t-30.5 82t-98 36zM348 428q47 0 75 26.5t31 60.5t-22.5 62.5t-73.5 28.5t-75 -26.5t-30 -60.5t22.5 -62.5t72.5 -28.5z" glyph-name="eight.dnom" horiz-adv-x="688"/><glyph d="M340 729q108 0 186 -75.5t66 -223.5q-16 -199 -164.5 -319.5t-345.5 -126.5l-16 104l14 14q104 6 202.5 62.5t129.5 159.5q-25 -29 -77 -44.5t-114 -8.5t-111.5 65.5t-43.5 158.5t86 167t188 67zM336 612q-51 0 -92 -36.5t-43 -90t32.5 -87t82.5 -33.5t90.5 36.5 t46.5 87.5q2 51 -32 87t-85 36z" glyph-name="nine.dnom" horiz-adv-x="667"/><glyph d="M740 1464q247 0 380.5 -210t97.5 -538t-208 -536.5t-418 -208.5t-382 215t-96 539t209.5 531.5t416.5 207.5zM596 166q150 0 260 156.5t140 396.5t-41.5 398.5t-221 158.5t-257 -155.5t-141.5 -395.5t38.5 -399.5t222.5 -159.5z" glyph-name="zero.case" horiz-adv-x="1251"/><glyph d="M258 0l162 1139l-158 -76l-78 168l461 227h35l-205 -1458h-217z" glyph-name="one.case" horiz-adv-x="747"/><glyph d="M639 1464q184 0 312 -128t110 -335q-12 -162 -146.5 -340t-445.5 -481h508l-27 -180h-917l-10 29q55 53 175.5 167.5t174 166t144.5 142.5t134 143t115 148t82 211t-55.5 190t-189.5 77t-241 -133h-28l-111 108q61 88 169 151.5t247 63.5z" glyph-name="two.case" horiz-adv-x="1130"/><glyph d="M446 -29q-147 0 -235 24.5t-172 70.5l76 172l28 2q145 -78 277 -78t232 75t107 217t-112 220t-293 35l-22 39l416 505h-500l26 185h813l11 -31l-447 -555q127 -6 231.5 -117.5t98.5 -288.5q-8 -217 -157.5 -346t-377.5 -129z" glyph-name="three.case" horiz-adv-x="1099"/><glyph d="M987 1458l66 -35l-144 -1024h199l-25 -182h-198l-31 -217h-213l31 217h-649l-21 62zM344 399h350l78 547z" glyph-name="four.case" horiz-adv-x="1185"/><glyph d="M440 -29q-244 0 -399 95l74 178l28 2q129 -82 270.5 -82t240 73t108.5 205t-70 215.5t-212 83.5t-257 -100l-47 14l186 781h705l-29 -181h-518l-94 -393q115 44 252 18t226 -147t81 -276q-12 -215 -156.5 -350.5t-388.5 -135.5z" glyph-name="five.case" horiz-adv-x="1101"/><glyph d="M541 -29q-217 0 -343 165t-94 431q29 188 107 343t176 252.5t262.5 190.5t388.5 111l39 -157l-24 -25q-231 -37 -416.5 -172t-257.5 -350q96 119 301 119q158 0 269 -124t95 -323t-151 -330t-352 -131zM548 160q108 0 184.5 76.5t89.5 194.5t-48 201t-171 83t-192.5 -78 t-92.5 -189t56 -199.5t174 -88.5z" glyph-name="six.case" horiz-adv-x="1124"/><glyph d="M213 1255l25 183h882l13 -31l-744 -1407h-244l684 1255h-616z" glyph-name="seven.case" horiz-adv-x="1032"/><glyph d="M554 -29q-232 0 -363.5 143.5t-108.5 336.5q16 135 104 238.5t213 131.5q-51 27 -98 113t-33 180q23 160 134.5 256t290.5 96t285.5 -114.5t90.5 -272.5q-12 -98 -69.5 -175t-131.5 -111q80 -31 146.5 -140.5t56.5 -234.5q-16 -199 -150.5 -323t-366.5 -124zM557 164 q119 0 201 77.5t88 190.5t-64.5 196t-184.5 83t-193.5 -76t-93.5 -189t57 -197.5t190 -84.5zM654 874q85 0 144.5 58.5t64.5 141.5t-47 143.5t-136 60.5t-142.5 -57.5t-64.5 -138.5t45 -144.5t136 -63.5z" glyph-name="eight.case" horiz-adv-x="1148"/><glyph d="M665 1464q217 0 343.5 -164.5t91.5 -431.5q-29 -188 -105.5 -342.5t-176 -252t-261 -189.5t-391.5 -113l-39 158l27 25q231 37 416.5 172t256.5 350q-100 -119 -303 -119q-158 0 -268 124.5t-94 322.5t151 329t352 131zM656 1276q-108 0 -184.5 -77t-89.5 -195 t48.5 -200.5t171.5 -82.5t192.5 77.5t92.5 189.5t-56.5 200t-174.5 88z" glyph-name="nine.case" horiz-adv-x="1124"/><glyph d="M708 1464q239 0 362.5 -208.5t87.5 -538.5t-199 -538t-401 -208t-364 214t-88 540t200.5 532.5t401.5 206.5zM563 166q141 0 240.5 155.5t131.5 397.5t-31.5 399.5t-203.5 157.5t-239 -154.5t-133 -395.5t30 -400.5t205 -159.5z" glyph-name="zero.oldstyle.lnum.case" horiz-adv-x="1165"/><glyph d="M170 180h326l141 979l-307 -133l-70 170l600 262h33q-119 -852 -180 -1278h303l-25 -180h-848z" glyph-name="one.oldstyle.lnum.case" horiz-adv-x="1163"/><glyph d="M635 1464q186 0 314 -128t110 -335q-12 -162 -147.5 -340t-446.5 -481h528l-26 -180h-938l-9 29q53 51 176 167.5t174.5 166t143.5 141.5t134 143t112.5 144.5t82.5 212.5q13 118 -53.5 193t-175.5 77q-137 2 -254 -133h-28l-111 108q59 86 168 150.5t246 64.5z" glyph-name="two.oldstyle.lnum.case" horiz-adv-x="1165"/><glyph d="M498 -29q-106 0 -190.5 15.5t-122.5 32t-95 47.5l76 172l29 2q2 0 18 -9.5t21.5 -12.5t22.5 -11t26.5 -11t47.5 -18.5t156 -15.5q117 0 216.5 75t106.5 217t-111.5 220t-292.5 35l-23 39l416 505h-500l27 185h813l10 -31l-447 -555q127 -6 231.5 -117.5t98.5 -288.5 q-8 -217 -157.5 -346t-376.5 -129z" glyph-name="three.oldstyle.lnum.case" horiz-adv-x="1165"/><glyph d="M979 1458l76 -24l-146 -1035h181l-25 -182h-180l-31 -217h-215l31 217h-635l-27 72zM336 399h360l78 557z" glyph-name="four.oldstyle.lnum.case" horiz-adv-x="1165"/><glyph d="M486 -29q-242 0 -398 95l74 178l28 2q120 -82 266 -82t244.5 73t108.5 205t-71 215.5t-210 83.5t-260 -100l-47 14l189 781h702l-27 -181h-518l-96 -393q115 44 253 18t227 -147t79 -276q-12 -215 -157 -350.5t-387 -135.5z" glyph-name="five.oldstyle.lnum.case" horiz-adv-x="1163"/><glyph d="M561 -29q-217 0 -343 165t-93 431q29 188 106.5 343t176 252.5t263 190.5t388.5 111l39 -157l-25 -25q-231 -37 -416.5 -172t-257.5 -350q96 119 301 119q158 0 268.5 -124t95.5 -323t-150.5 -330t-352.5 -131zM568 160q108 0 184 76.5t90 194.5t-47 201t-171 83 t-193 -78t-93 -189t56 -199.5t174 -88.5z" glyph-name="six.oldstyle.lnum.case" horiz-adv-x="1165"/><glyph d="M250 1253l24 185h940l15 -31l-770 -1407h-250l709 1253h-668z" glyph-name="seven.oldstyle.lnum.case" horiz-adv-x="1165"/><glyph d="M564 -29q-232 0 -363 143.5t-109 336.5q16 135 104.5 238.5t213.5 131.5q-51 27 -98.5 113t-32.5 180q23 160 134 256t291 96t286 -114.5t89 -272.5q-12 -98 -69.5 -175t-130.5 -111q80 -31 146.5 -140.5t55.5 -234.5q-16 -199 -150.5 -323t-366.5 -124zM567 164 q119 0 201 77.5t88 190.5t-64.5 196t-184.5 83t-193.5 -76t-93.5 -189t57 -197.5t190 -84.5zM665 874q85 0 144 58.5t64 141.5t-47 143.5t-136 60.5t-142.5 -57.5t-64.5 -138.5t45.5 -144.5t136.5 -63.5z" glyph-name="eight.oldstyle.lnum.case" horiz-adv-x="1165"/><glyph d="M700 1464q217 0 343 -164.5t94 -431.5q-29 -188 -107 -342.5t-176 -252t-261 -190t-390 -112.5l-39 158l24 25q231 37 417 172t257 350q-96 -119 -301 -119q-158 0 -268.5 124.5t-94.5 322.5t150.5 329t351.5 131zM692 1276q-108 0 -184 -77t-89 -195t48 -200.5 t171 -82.5t193 78.5t93 188.5t-57 199t-175 89z" glyph-name="nine.oldstyle.lnum.case" horiz-adv-x="1165"/><glyph d="M220 279q62 0 104 -46.5t36 -108.5t-51 -103t-107 -41t-103.5 44t-36.5 106t50.5 105.5t107.5 43.5zM343 1155q62 0 103 -46.5t36 -108.5t-50 -103t-107 -41t-103.5 44.5t-36.5 106.5t50.5 105t107.5 43z" glyph-name="colon.case" horiz-adv-x="530"/><glyph d="M383 266v-30l-350 -570l-70 19l156 581h264zM347 1155q62 0 103.5 -46.5t35.5 -108.5t-50.5 -103t-106.5 -41t-103.5 44.5t-36.5 106.5t50.5 105t107.5 43z" glyph-name="semicolon.case" horiz-adv-x="534"/><glyph d="M635 629l-535 -90l29 198l535 88z" glyph-name="hyphen.case" horiz-adv-x="710"/><glyph d="M911 625h-805l27 178h805z" glyph-name="endash.case" horiz-adv-x="978"/><glyph d="M1479 625h-1373l27 178h1372z" glyph-name="emdash.case" horiz-adv-x="1548"/><glyph d="M398 944q87 0 148.5 -64.5t53.5 -155.5t-71.5 -148.5t-152.5 -57.5t-148.5 62.5t-51.5 152.5t71.5 150.5t150.5 60.5z" glyph-name="bullet.case" horiz-adv-x="704"/><glyph d="M252 420l59 1018h305l-256 -1018h-108zM275 279q62 0 103.5 -46.5t36.5 -108.5t-50.5 -103t-107.5 -41t-103 44t-36 106t50 105.5t107 43.5z" glyph-name="exclam.case" horiz-adv-x="667"/><glyph d="M465 1018l-59 -1018h-306l256 1018h109zM442 1159q-62 0 -103.5 46.5t-36.5 108.5t50.5 103t107.5 41t103 -44t36 -106t-50 -105.5t-107 -43.5z" glyph-name="exclamdown.case" horiz-adv-x="667"/><glyph d="M506 1266q-123 0 -207 -109l-117 141q127 162 361 162q162 0 271.5 -106.5t90.5 -265.5t-119 -249.5t-196 -179.5t-103 -239h-157q-16 96 10.5 179t77.5 142.5t147.5 148t108.5 173.5q12 84 -40 143.5t-128 59.5zM388 279q62 0 103 -46.5t36 -108.5t-50 -103t-107 -41 t-103.5 44t-36.5 106t50.5 105.5t107.5 43.5z" glyph-name="question.case" horiz-adv-x="892"/><glyph d="M475 174q123 0 207 109l117 -142q-127 -162 -361 -161q-162 0 -271.5 106.5t-90.5 265.5t119 249.5t196 179.5t103 239h157q16 -96 -10.5 -179t-77.5 -142.5t-147.5 -148t-108.5 -173.5q-12 -84 40 -143.5t128 -59.5zM593 1161q-62 0 -103 46.5t-36 108.5t50 103t107 41 t103.5 -44t36.5 -106t-50.5 -105.5t-107.5 -43.5z" glyph-name="questiondown.case" horiz-adv-x="892"/><glyph d="M731 1274q-70 0 -115 -43.5t-48 -94.5t0 -67t5 -27.5t11.5 -32t12.5 -28.5t15.5 -31.5t16.5 -31.5l303 -500l262 186l104 -147l-264 -191l164 -266h-252l-80 143l-133 -92q-72 -53 -180.5 -73.5t-227 15.5t-182.5 136q-92 143 -58 302t181 269l180 127l-40 78 q-59 127 -48 238q14 150 117 235.5t244 85.5t234 -72.5t130 -193.5l-170 -76q-53 152 -182 152zM284.5 411q-18.5 -83 28.5 -161t146.5 -89t179.5 52l123 86l-223 369l-164 -121q-72 -53 -90.5 -136z" glyph-name="ampersand.case" horiz-adv-x="1341"/><glyph d="M539 0q23 61 63.5 174t56.5 156h-223l-121 -330h-190l123 330h-185l5 198h247q51 131 150 394h-193l4 198h261q10 29 114 316h183l-115 -316h229l117 316h182l-114 -316h186l-4 -198h-250l-147 -394h192l-4 -198h-258q-78 -221 -119 -330h-190zM651 922l-147 -394h225 q51 131 150 394h-228z" glyph-name="numbersign.case" horiz-adv-x="1296"/><glyph d="M444 252l-350 418l6 32l465 474l127 -121l-379 -377l267 -316z" glyph-name="guilsinglleft.case" horiz-adv-x="704"/><glyph d="M324 1176l350 -418l-6 -33l-465 -473l-127 121l379 377l-267 315z" glyph-name="guilsinglright.case" horiz-adv-x="704"/><glyph d="M449 252l-351 418l6 32l465 474l127 -121l-379 -377l267 -316zM874 252l-350 418l6 32l465 474l127 -121l-379 -377l267 -316z" glyph-name="guillemotleft.case" horiz-adv-x="1134"/><glyph d="M326 1176l350 -418l-6 -33l-465 -473l-127 121l379 377l-267 315zM754 1176l350 -418l-6 -33l-465 -473l-127 121l379 377l-267 315z" glyph-name="guillemotright.case" horiz-adv-x="1134"/><glyph d="M674 -72l-137 -123q-190 184 -286.5 435.5t-60.5 513.5t192.5 489t397.5 377l111 -139q-416 -313 -476 -741t259 -812z" glyph-name="parenleft.case" horiz-adv-x="827"/><glyph d="M227 1497l138 123q190 -184 286.5 -435t59.5 -513t-193 -489.5t-397 -377.5l-111 140q416 313 476 740t-259 812z" glyph-name="parenright.case" horiz-adv-x="827"/><glyph d="M340 27h283l-27 -174h-498l240 1708h500l-25 -175l-283 -2z" glyph-name="bracketleft.case" horiz-adv-x="774"/><glyph d="M539 1391h-283l27 174h497l-239 -1708h-500l25 174l282 2z" glyph-name="bracketright.case" horiz-adv-x="774"/><glyph d="M831 1384q-167 0 -198 -223l-25 -170q-33 -229 -217 -286q170 -63 141 -263l-36 -239q-10 -66 22.5 -121t122.5 -55q23 0 53 6l15 -178q-76 -16 -129 -17q-154 0 -236 94.5t-65 219.5l40 319q8 66 -31.5 109t-129.5 43h-49l22 163h47q125 0 165.5 73.5t51.5 164.5l21 147 q23 174 112.5 288t268.5 116q72 0 151 -21l-47 -178q-35 8 -70 8z" glyph-name="braceleft.case" horiz-adv-x="897"/><glyph d="M166 29q168 0 199 223l24 170q33 229 217 287q-170 63 -141 262l37 239q10 66 -23 121t-123 55q-23 0 -53 -6l-14 179q76 16 129 16q154 0 235.5 -94.5t65.5 -218.5l-41 -320q-8 -66 32 -108.5t130 -42.5h49l-23 -164h-47q-124 0 -165.5 -74.5t-51.5 -163.5l-20 -147 q-23 -174 -113 -288t-268 -116q-72 0 -152 21q30 118 47 178q35 -8 70 -8z" glyph-name="braceright.case" horiz-adv-x="897"/><glyph d="M690 1272q-114 0 -176 -53.5t-66 -129.5t47.5 -138t151.5 -128q168 -113 228.5 -227t44.5 -262t-115.5 -240t-255.5 -114l-37 -256h-170l37 251q-98 10 -182 49t-134 91l111 159q45 -35 73.5 -53t86 -38.5t140.5 -20.5t150.5 53t74.5 140t-40 147.5t-178 158.5 t-197.5 196.5t-59.5 230.5t98.5 239t259.5 131l34 258h170l-34 -256q147 -14 266 -84l-78 -184q-136 80 -250 80z" glyph-name="dollar.case" horiz-adv-x="1036"/><glyph d="M670 -29q-221 0 -310 92q-104 -83 -262 -69l-71 6l8 168q170 -8 256 92t57 217h-194l24 178h152q-6 23 -39 108t-45.5 157.5t-1.5 160.5q23 172 147.5 277.5t310.5 105.5q123 0 228.5 -64.5t138.5 -168.5l-162 -78q-23 49 -78 86t-133 37t-151.5 -58.5t-85.5 -164.5 q-10 -70 2 -133.5t43 -146.5t41 -118h233l-26 -178h-191q14 -137 -74 -248q80 -76 197 -75q78 0 146.5 35.5t107.5 86.5l119 -133q-129 -172 -387 -172z" glyph-name="sterling.case" horiz-adv-x="1122"/><glyph d="M1188 944v-20l-45 -117h-662q-14 -78 -14 -120t2 -54h625v-21l-45 -114h-543q49 -152 179 -246t300 -94q225 0 383 127q33 -49 102 -148q-199 -166 -505 -166q-250 0 -446.5 145.5t-254.5 381.5h-252v20l43 115h189q0 102 12 174h-152v20l46 117h141q84 242 290.5 382 t462.5 140q193 0 341.5 -75.5t218.5 -159.5l-140 -148q-70 74 -178 133.5t-256 59.5t-288 -90t-210 -242h656z" glyph-name="Euro.case" horiz-adv-x="1556"/><glyph d="M1067 1438h244l-449 -582h234l-23 -168h-336l-20 -147h336l-23 -166h-338l-51 -375h-217l51 375h-338l23 166h340l20 147h-340l23 168h239l-286 582h237l262 -527z" glyph-name="yen.case" horiz-adv-x="1179"/><glyph d="M96 66l1280 1404l109 -104l-1278 -1405zM471 836q-129 0 -223 92t-80 229t111.5 222t228.5 85t222 -91t77 -229t-110.5 -223t-225.5 -85zM472 973q64 0 108.5 50t52.5 126t-27 128t-98.5 52t-109.5 -50t-53 -126t28 -128t99 -52zM1089 -23q-128 0 -222.5 92.5 t-81.5 229.5t111.5 222t229.5 85t221.5 -91t76.5 -228t-110.5 -223.5t-224.5 -86.5zM1092 115q64 0 106.5 50t50.5 127t-25.5 128t-98.5 51t-109.5 -50t-51.5 -126t28.5 -128t99.5 -52z" glyph-name="percent.case" horiz-adv-x="1519"/><glyph d="M-74 -139l940 1784l154 -89l-944 -1781z" glyph-name="slash.case" horiz-adv-x="872"/><glyph d="M552 1292q-56 0 -100 -30.5t-52 -78.5t25.5 -87t92.5 -64q340 -104 303 -360q-8 -68 -56 -125.5t-108 -75.5q43 -33 69 -100.5t19 -130.5q-18 -139 -123.5 -206t-261.5 -67q-100 0 -201.5 36t-138.5 69l78 168q141 -94 275 -95q63 0 114.5 26t57.5 77q10 80 -146 160 q-307 121 -282 340q10 72 57 132t115 76q-45 39 -70.5 102.5t-17.5 127.5q18 139 120.5 209.5t258.5 70.5t286 -80l-61 -167q-45 29 -121 51t-132 22zM380 825q-46 -29 -53 -82t29.5 -94t96.5 -67q59 -4 106 24.5t54 78.5t-27.5 95t-108.5 72q-51 2 -97 -27z" glyph-name="section.case" horiz-adv-x="866"/><glyph d="M302 920q62 0 103 -46.5t36 -108.5t-50 -103t-107 -41t-103.5 44t-36.5 106t50.5 105.5t107.5 43.5z" glyph-name="periodcentered.case" horiz-adv-x="514"/><glyph d="M1717 690q-157 0 -259 109.5t-85 276.5t134 274.5t274 107.5t258 -108.5t86 -276.5t-133 -275.5t-275 -107.5zM1722.5 858q77.5 0 139 62.5t71.5 152.5q12 90 -35.5 154.5t-123.5 64.5t-137.5 -63.5t-72.5 -153.5t35 -153.5t123.5 -63.5zM1087 1438h211l-202 -1438h-209 l86 621l-522 438l-150 -1059h-209l203 1442l31 12l684 -580zM1646 446q62 0 105 -46t37 -110t-50 -105.5t-107.5 -41.5t-105.5 44.5t-37 108.5t50.5 107t107.5 43z" glyph-name="afii61352.case" horiz-adv-x="2111"/><glyph d="M174 0h-221l629 997h30l361 -997h-213l-55 160h-431zM551 625l-193 -320h299z" glyph-name="A.c2sc" horiz-adv-x="1017"/><glyph d="M66 -2l139 981q162 23 306 19.5t239.5 -76t89.5 -209.5q-2 -61 -40 -111.5t-81 -75.5q61 -14 113.5 -75.5t46.5 -161.5q-22 -381 -813 -291zM516 580q45 0 83 33.5t40 82.5q6 88 -74 121t-178 8l-35 -245h164zM545 434h-215l-37 -274q68 -8 151.5 -10.5t154.5 35 t74 107.5t-34 106t-94 36z" glyph-name="B.c2sc" horiz-adv-x="915"/><glyph d="M586 147q129 0 235 82l99 -133q-122 -123 -350 -123t-367 154t-129 370t160 364.5t384 148.5t383 -176l-116 -136q-117 138 -258 138t-240.5 -97.5t-107.5 -245.5t85 -247t222 -99z" glyph-name="C.c2sc" horiz-adv-x="1011"/><glyph d="M420 1001q276 0 420.5 -142t144.5 -352t-172 -368.5t-502 -158.5q-104 -1 -243 22q90 651 137 979q111 20 215 20zM367 156q170 0 289.5 94t119.5 276q0 137 -90 219t-227 82q-35 0 -72 -6l-92 -661q49 -4 72 -4z" glyph-name="D.c2sc" horiz-adv-x="1021"/><glyph d="M770 166l-25 -166h-679l139 983h655l-24 -166h-449l-31 -227h344l-24 -166h-344l-35 -258h473z" glyph-name="E.c2sc" horiz-adv-x="849"/><glyph d="M272 0h-206l139 983h649l-23 -166h-444l-33 -227h340l-22 -166h-340z" glyph-name="F.c2sc" horiz-adv-x="823"/><glyph d="M578 147q121 0 206 58l25 162h-147l22 153h328l-60 -401q-135 -145 -389 -146q-221 0 -360 154t-129 370t160 364.5t384 148.5t383 -176l-116 -136q-117 138 -258 138t-240.5 -97.5t-107.5 -245.5t85 -247t214 -99z" glyph-name="G.c2sc" horiz-adv-x="1054"/><glyph d="M874 0h-206l59 424h-395l-60 -424h-206l139 983h205l-56 -393h398l55 393h207z" glyph-name="H.c2sc" horiz-adv-x="1024"/><glyph d="M66 0l139 983h205l-138 -983h-206z" glyph-name="I.c2sc" horiz-adv-x="419"/><glyph d="M383 414l82 569h207l-80 -580q-70 -479 -551 -405l27 170q131 -20 213 43.5t102 202.5z" glyph-name="J.c2sc" horiz-adv-x="692"/><glyph d="M418 983l-60 -414l418 412h246l-481 -485l370 -496h-252l-321 432l-59 -432h-207l137 983h209z" glyph-name="K.c2sc" horiz-adv-x="987"/><glyph d="M731 166l-24 -166h-641l139 983h207l-115 -817h434z" glyph-name="L.c2sc" horiz-adv-x="765"/><glyph d="M270 0h-204l139 987l37 12l360 -430l488 430l32 -12l-137 -987h-207l84 582l-278 -256h-27l-201 264z" glyph-name="M.c2sc" horiz-adv-x="1132"/><glyph d="M885 0h-201l55 371l-379 291l-94 -662h-200l139 983l37 16l528 -399l53 383h199z" glyph-name="N.c2sc" horiz-adv-x="1032"/><glyph d="M551 -27q-211 0 -352 145.5t-125 379.5t171.5 373t369.5 139t353.5 -143t125.5 -377t-173 -375.5t-370 -141.5zM559 147q131 0 223 98.5t105 248.5q14 150 -68 246t-212 96t-222.5 -96.5t-106.5 -244.5t68 -248t213 -100z" glyph-name="O.c2sc" horiz-adv-x="1126"/><glyph d="M806 841q54 -83 50 -187t-54.5 -204.5t-192 -158.5t-302.5 -49l-37 -242h-204l135 975q248 63 399.5 6t205.5 -140zM385 819l-55 -401q115 -12 213 42t104 171q4 82 -53.5 146t-208.5 42z" glyph-name="P.c2sc" horiz-adv-x="872"/><glyph d="M545 -27q-197 0 -335 133.5t-138 348.5q0 254 160.5 404.5t373.5 150.5t350.5 -132.5t137.5 -347.5q0 -281 -207 -432q10 -12 94 -131l-131 -106l-105 147q-98 -35 -200 -35zM557 147q39 0 76 13q-96 135 -107 149l133 107l103 -150q127 88 127 264q0 135 -80 220.5 t-209 85.5t-227.5 -109t-98.5 -256t81 -235.5t202 -88.5z" glyph-name="Q.c2sc" horiz-adv-x="1126"/><glyph d="M858 653q-6 -113 -70.5 -194.5t-162.5 -122.5l256 -336h-244l-207 287q-45 -8 -117 -4l-41 -283h-204l133 975q208 52 366 10.5t224.5 -123.5t66.5 -209zM649 649q0 104 -80 145t-182 27l-51 -360q109 -20 211 32t102 156z" glyph-name="R.c2sc" horiz-adv-x="921"/><glyph d="M373 -27q-98 0 -193.5 28t-136.5 58l68 168q31 -25 119.5 -52.5t159.5 -27.5t127.5 27t60.5 78t-39 84t-131 65q-291 98 -271 330q12 133 117.5 206t269.5 73t291 -62l-59 -172q-123 63 -258 64q-66 0 -115 -30t-52 -86t51 -82t107 -46q311 -92 283 -353 q-14 -130 -123.5 -200t-275.5 -70z" glyph-name="S.c2sc" horiz-adv-x="849"/><glyph d="M840 817h-275l-116 -817h-205l114 817h-272l23 164h753z" glyph-name="T.c2sc" horiz-adv-x="815"/><glyph d="M487 -27q-201 0 -300 125t-74 310l82 575h206l-82 -586q-16 -115 36.5 -182.5t148.5 -67.5t161.5 67t82.5 183l81 586h209l-82 -580q-27 -186 -147.5 -308t-321.5 -122z" glyph-name="U.c2sc" horiz-adv-x="1048"/><glyph d="M887 983h221l-608 -999h-31l-348 999h219l192 -592z" glyph-name="V.c2sc" horiz-adv-x="1036"/><glyph d="M1294 983h213l-542 -999h-29l-174 626l-356 -626h-31l-254 999h209l133 -557l332 573h30l172 -569z" glyph-name="W.c2sc" horiz-adv-x="1435"/><glyph d="M1085 983l-423 -498l286 -485h-239l-189 313l-272 -313h-254l422 496l-287 487h242l188 -317l272 317h254z" glyph-name="X.c2sc" horiz-adv-x="1046"/><glyph d="M358 0l56 393l-297 590h227l197 -381q205 254 305 381h235l-460 -588l-56 -395h-207z" glyph-name="Y.c2sc" horiz-adv-x="995"/><glyph d="M848 166l-23 -166h-790l-10 37l608 780h-461l23 166h768l6 -41l-596 -776h475z" glyph-name="Z.c2sc" horiz-adv-x="935"/><glyph d="M209 385l-14 598h301l-191 -598h-96zM234 279q62 0 103.5 -46.5t36.5 -108.5t-49.5 -103t-106.5 -41t-103 44t-36 106t49 105.5t106 43.5z" glyph-name="exclam.c2sc" horiz-adv-x="557"/><glyph d="M365 598l14 -598h-301l190 598h97zM339 705q-62 0 -103 46t-36 108t49 103.5t106 41.5t103.5 -44.5t36.5 -106.5t-49.5 -105t-106.5 -43z" glyph-name="exclamdown.c2sc" horiz-adv-x="557"/><glyph d="M453 733q0 100 -131 101q-61 0 -132 -35l-63 149q99 62 237 62t226 -64t88 -158t-46 -154.5t-150 -116.5t-111 -132h-135q-16 49 13.5 101.5t116.5 121.5t87 125zM273 279q60 0 101.5 -42t41.5 -106t-46 -107.5t-108 -43.5t-102.5 39.5t-40.5 99.5v12q6 61 50 104.5 t104 43.5z" glyph-name="question.c2sc" horiz-adv-x="694"/><glyph d="M276 250q0 -100 132 -100q61 0 131 34l63 -149q-98 -61 -236 -61t-226.5 64t-88.5 158t46 154t150 116t111 132h136q16 -49 -13.5 -101.5t-117 -121t-87.5 -125.5zM456 705q-60 0 -101.5 41.5t-41.5 105.5t46.5 108t108.5 44t102 -40t40 -100v-12q-6 -61 -50 -104 t-104 -43z" glyph-name="questiondown.c2sc" horiz-adv-x="694"/><glyph d="M586 842q-45 0 -92.5 -51t36.5 -177l181 -249l219 170l98 -125l-227 -174l168 -236h-236l-84 117l-119 -88q-102 -70 -233 -53.5t-186 102.5q-85 128 -32.5 240t134.5 171l123 97l-10 28q-31 80 -23 168t82 158t188 70q195 0 263 -166l-138 -84q-33 82 -112 82zM268 188 q27 -47 86.5 -49t108.5 37l94 72l-139 194l-103 -77q-97 -71 -47 -177z" glyph-name="ampersand.c2sc" horiz-adv-x="1060"/><glyph d="M463 0l92 236h-193q-74 -188 -94 -236h-162l93 236h-160l4 149h213l78 203h-166l4 149h221l96 246h164l-92 -246h187l94 246h166l-95 -246h152l-4 -149h-207l-78 -203h162l-4 -149h-215l-92 -236h-164zM500 588l-78 -203h190q53 135 78 203h-190z" glyph-name="numbersign.oldstyle" horiz-adv-x="1046"/><glyph d="M338 722q0 -46 37 -72.5t108 -53.5q283 -86 283 -307q0 -139 -90 -218t-227 -94l-33 -245h-152l31 243q-174 14 -252 76q12 33 39 89.5t37 78.5q31 -23 104 -47.5t151 -24.5t132.5 32t54.5 83q0 76 -155 137q-270 94 -271 299q0 125 88 210t217 96l35 245h152l-35 -245 q117 -8 215 -56l-66 -168q-109 59 -247 60q-61 0 -108.5 -36t-47.5 -82z" glyph-name="dollar.oldstyle" horiz-adv-x="841"/><glyph d="M70 166q96 0 167.5 38t71.5 120v22h-153l24 166h103q-37 96 -37 170q0 145 113 236.5t251 91.5t230 -48.5t139 -111.5l-123 -109q-98 106 -219 107q-86 0 -146.5 -46t-60.5 -128t41 -162h248l-25 -166h-198v-20q0 -84 -41 -127q57 -66 201 -66t235 121l123 -98 q-45 -72 -145 -128.5t-262 -56.5t-285 86q-91 -57 -170.5 -57h-106.5l8 166h17z" glyph-name="sterling.oldstyle" horiz-adv-x="1079"/><glyph d="M653 147q129 0 236 82l98 -133q-123 -123 -356 -123q-174 0 -300 97.5t-171 253.5h-180l2 20l28 94h131q-5 32 4 103h-94l2 20l29 96h90q57 158 191.5 255.5t310.5 97.5q246 0 395 -176l-117 -136q-117 137 -264 138q-90 0 -169 -48.5t-118 -130.5h408l-4 -20l-27 -96 h-428q-9 -73 -4 -103h391l-2 -20l-28 -94h-320q35 -80 107.5 -128.5t158.5 -48.5z" glyph-name="Euro.oldstyle" horiz-adv-x="1054"/><glyph d="M348 0l25 166h-281l17 117h280l14 104h-280l16 117h207l-240 479h228l196 -381q205 254 306 381h235l-375 -479h211l-16 -117h-281l-14 -104h281l-17 -117h-280l-25 -166h-207z" glyph-name="yen.oldstyle" horiz-adv-x="985"/><glyph d="M329.5 528q-98.5 0 -171 72t-62.5 175t86 168t175 65t170 -69t62 -174t-85 -171t-174.5 -66zM332 639q47 0 78.5 37t39.5 90t-20.5 93t-75.5 40t-78.5 -37t-37.5 -90t20.5 -93t73.5 -40zM106 53l961 969l86 -86l-958 -967zM910 -23q-97 0 -169.5 72t-63.5 175t85 168 t176 65t170 -69t60 -174t-85.5 -171t-172.5 -66zM912 88q46 0 78 37t40 90t-19.5 93t-75.5 40t-80 -37t-37 -90t21.5 -93t72.5 -40z" glyph-name="percent.oldstyle" horiz-adv-x="1210"/><glyph d="M463 864q-57 0 -96 -23.5t-39 -56t28.5 -47t100.5 -32.5q254 -55 254 -220q0 -51 -35 -93t-78 -62q64 -58 64 -140t-50.5 -133t-119 -68.5t-155.5 -17.5t-177 26t-125 54l71 150q33 -27 109 -52.5t154 -25.5q127 6 127 70q0 29 -26 43t-85 30q-279 55 -279 207 q0 59 36 104.5t87 61.5q-27 14 -49 52t-22 83q0 119 92 177.5t238 58.5t251 -64l-71 -143q-88 61 -205 61zM274 496q0 -53 148 -84q51 0 86 16t35 45t-40.5 59.5t-130.5 30.5t-98 -61v-6z" glyph-name="section.oldstyle" horiz-adv-x="774"/><glyph d="M522 1096l129 272h258l-2 -31l-233 -241h-152zM174 0h-221l629 997h30l361 -997h-213l-55 160h-431zM551 625l-193 -320h299z" glyph-name="Aacute.c2sc" horiz-adv-x="1017"/><glyph d="M565 1368l117 -272h-152l-225 241l2 31h258zM174 0h-221l629 997h30l361 -997h-213l-55 160h-431zM551 625l-193 -320h299z" glyph-name="Agrave.c2sc" horiz-adv-x="1017"/><glyph d="M174 0h-221l629 997h30l361 -997h-213l-55 160h-431zM551 625l-193 -320h299zM731 1096l-106 118l-133 -118h-158q18 23 205 272h211l133 -272h-152z" glyph-name="Acircumflex.c2sc" horiz-adv-x="1017"/><glyph d="M174 0h-221l629 997h30l361 -997h-213l-55 160h-431zM551 625l-193 -320h299zM468 1352q48 0 81 -35t28.5 -84t-39 -80t-81.5 -31t-79 33t-30 82q4 49 38 82t82 33zM789 1352q48 0 81 -35t29 -84t-39 -80t-82 -31t-78.5 33t-29.5 82q4 49 37.5 82t81.5 33z" glyph-name="Adieresis.c2sc" horiz-adv-x="1017"/><glyph d="M502 1341q58 0 127 -26.5t96 -26.5q55 0 86 47l80 -24q-10 -92 -64.5 -140.5t-110.5 -48.5t-126 28t-98 28t-45 -10.5t-33 -39.5l-80 25q8 98 59 143t109 45zM174 0h-221l629 997h30l361 -997h-213l-55 160h-431zM551 625l-193 -320h299z" glyph-name="Atilde.c2sc" horiz-adv-x="1017"/><glyph d="M365 1106q0 115 78.5 193.5t178.5 78.5t166 -64.5t66 -158.5t-54.5 -165.5t-135.5 -94.5l309 -895h-213l-55 160h-431l-100 -160h-221l551 901q-63 23 -101 78t-38 127zM618 1260q-52 0 -91.5 -44.5t-39.5 -96.5t31 -85t82 -33t91 42.5t40 96.5t-30.5 87t-82.5 33z M551 629l-193 -324h299z" glyph-name="Aring.c2sc" horiz-adv-x="1017"/><glyph d="M174 0h-221l629 997h30l361 -997h-213l-55 160h-431zM551 625l-193 -320h299zM868 1161h-508l23 148h508z" glyph-name="Amacron.c2sc" horiz-adv-x="1017"/><glyph d="M616 1096q-113 0 -167 76.5t-23 195.5h143q-16 -33 -5 -88t58.5 -55t68 46t20.5 97h143q8 -113 -58.5 -192.5t-179.5 -79.5zM174 0h-221l629 997h30l361 -997h-213l-55 160h-431zM551 625l-193 -320h299z" glyph-name="Abreve.c2sc" horiz-adv-x="1017"/><glyph d="M174 0h-221l627 997h32l361 -997h-121q-76 -47 -85 -115t47 -95.5t130 -4.5l-4 -160q-143 -37 -257 26.5t-95 198.5q8 66 54 114t106 69l-43 127h-431zM551 623l-193 -318h299z" glyph-name="Aogonek.c2sc" horiz-adv-x="1017"/><glyph d="M365 1106q0 115 78.5 193.5t183.5 78.5q59 0 112 -28l82 143h226l-5 -31l-233 -176q45 -61 45 -143t-54.5 -153.5t-135.5 -94.5l309 -895h-213l-55 160h-431l-100 -160h-221l551 901q-63 23 -101 78t-38 127zM618 1260q-52 0 -91.5 -44.5t-39.5 -96.5t31 -85t82 -33 t91 42.5t40 96.5t-30.5 87t-82.5 33zM551 629l-193 -324h299z" glyph-name="Aringacute.c2sc" horiz-adv-x="1017"/><glyph d="M1436 166l-23 -166h-682l23 162h-428l-166 -162h-252l966 983h652l-23 -166h-448l-31 -227h342l-23 -166h-344l-34 -258h471zM463 305h311l53 369z" glyph-name="AE.c2sc" horiz-adv-x="1515"/><glyph d="M915 1096l129 272h259l-3 -31l-233 -241h-152zM1436 166l-23 -166h-682l23 162h-428l-166 -162h-252l966 983h652l-23 -166h-448l-31 -227h342l-23 -166h-344l-34 -258h471zM463 305h311l53 369z" glyph-name="AEacute.c2sc" horiz-adv-x="1515"/><glyph d="M301 -213q196 -35 211 97q6 54 -35 98q-186 29 -300 175t-103 337q10 219 160 367.5t384 148.5t383 -176l-116 -136q-117 138 -258 138t-240.5 -97.5t-107.5 -245.5t85 -247t222 -99t235 82l99 -133q-104 -104 -289 -119q53 -68 45 -147q-14 -133 -140 -187.5t-262 -15.5 z" glyph-name="Ccedilla.c2sc" horiz-adv-x="1011"/><glyph d="M530 1096l129 272h259l-3 -31l-233 -241h-152zM586 147q129 0 235 82l99 -133q-122 -123 -350 -123t-367 154t-129 370t160 364.5t384 148.5t383 -176l-116 -136q-117 138 -258 138t-240.5 -97.5t-107.5 -245.5t85 -247t222 -99z" glyph-name="Cacute.c2sc" horiz-adv-x="1011"/><glyph d="M586 147q129 0 235 82l99 -133q-122 -123 -350 -123t-367 154t-129 370t160 364.5t384 148.5t383 -176l-116 -136q-117 138 -258 138t-240.5 -97.5t-107.5 -245.5t85 -247t222 -99zM756 1096l-107 118l-133 -118h-158q18 23 205 272h211l133 -272h-151z" glyph-name="Ccircumflex.c2sc" horiz-adv-x="1011"/><glyph d="M586 147q129 0 235 82l99 -133q-122 -123 -350 -123t-367 154t-129 370t160 364.5t384 148.5t383 -176l-116 -136q-117 138 -258 138t-240.5 -97.5t-107.5 -245.5t85 -247t222 -99zM659.5 1352q47.5 0 80 -35t28.5 -84t-39 -80t-82 -31t-78.5 33t-27.5 82t37.5 82t81 33z " glyph-name="Cdotaccent.c2sc" horiz-adv-x="1011"/><glyph d="M410 1368h133l104 -125l144 125h133q-4 -21 -4 -31l-189 -241h-205l-120 241q4 20 4 31zM586 147q129 0 235 82l99 -133q-122 -123 -350 -123t-367 154t-129 370t160 364.5t384 148.5t383 -176l-116 -136q-117 138 -258 138t-240.5 -97.5t-107.5 -245.5t85 -247t222 -99z " glyph-name="Ccaron.c2sc" horiz-adv-x="1011"/><glyph d="M479 1001q279 0 423.5 -142t144.5 -348t-119 -322.5t-298 -178.5t-503 -8l59 416h-172l27 178h170l53 385q111 20 215 20zM428 156q170 0 289 95t119 277q0 137 -89.5 218t-226.5 81q-37 0 -74 -6l-30 -225h196q-2 -11 -26 -178h-195q-25 -172 -35 -258q45 -4 72 -4z" glyph-name="Eth.c2sc" horiz-adv-x="1081"/><glyph d="M270 1368h133l105 -125l143 125h133q-4 -21 -4 -31l-188 -241h-205l-121 241q4 20 4 31zM420 1001q276 0 420.5 -142t144.5 -352t-172 -368.5t-502 -158.5q-104 -1 -243 22q90 651 137 979q111 20 215 20zM367 156q170 0 289.5 94t119.5 276q0 137 -90 219t-227 82 q-35 0 -72 -6l-92 -661q49 -4 72 -4z" glyph-name="Dcaron.c2sc" horiz-adv-x="1021"/><glyph d="M479 1001q279 0 423.5 -142t144.5 -348t-119 -322.5t-298 -178.5t-503 -8l59 416h-172l27 178h170l53 385q111 20 215 20zM428 156q170 0 289 95t119 277q0 137 -89.5 218t-226.5 81q-37 0 -74 -6l-30 -225h196q-2 -11 -26 -178h-195q-25 -172 -35 -258q45 -4 72 -4z" glyph-name="Dcroat.c2sc" horiz-adv-x="1081"/><glyph d="M426 1096l129 272h258l-2 -31l-233 -241h-152zM770 166l-25 -166h-679l139 983h655l-24 -166h-449l-31 -227h344l-24 -166h-344l-35 -258h473z" glyph-name="Eacute.c2sc" horiz-adv-x="849"/><glyph d="M545 1368l117 -272h-152l-225 241l2 31h258zM770 166l-25 -166h-679l139 983h655l-24 -166h-449l-31 -227h344l-24 -166h-344l-35 -258h473z" glyph-name="Egrave.c2sc" horiz-adv-x="849"/><glyph d="M770 166l-25 -166h-679l139 983h655l-24 -166h-449l-31 -227h344l-24 -166h-344l-35 -258h473zM668 1096l-107 118l-133 -118h-158q16 23 205 272h211l133 -272h-151z" glyph-name="Ecircumflex.c2sc" horiz-adv-x="849"/><glyph d="M770 166l-25 -166h-679l139 983h655l-24 -166h-449l-31 -227h344l-24 -166h-344l-35 -258h473zM413 1352q48 0 80.5 -35t28.5 -84t-38.5 -80t-82 -31t-79 33t-29.5 82q4 49 38 82t82 33zM734 1352q48 0 81 -35t29 -84t-39 -80t-82 -31t-79 33t-30 82q4 49 38 82t82 33z " glyph-name="Edieresis.c2sc" horiz-adv-x="849"/><glyph d="M770 166l-25 -166h-679l139 983h655l-24 -166h-449l-31 -227h344l-24 -166h-344l-35 -258h473zM811 1161h-508l23 148h508z" glyph-name="Emacron.c2sc" horiz-adv-x="849"/><glyph d="M557 1096q-113 0 -167 76.5t-23 195.5h143q-16 -33 -5 -88t58 -55t67.5 46t20.5 97h144q8 -113 -58.5 -192.5t-179.5 -79.5zM770 166l-25 -166h-679l139 983h655l-24 -166h-449l-31 -227h344l-24 -166h-344l-35 -258h473z" glyph-name="Ebreve.c2sc" horiz-adv-x="849"/><glyph d="M770 166l-25 -166h-679l139 983h655l-24 -166h-449l-31 -227h344l-24 -166h-344l-35 -258h473zM565 1352q47 0 80 -35t29 -84t-39 -80t-82 -31t-79 33t-27.5 82t38 82t80.5 33z" glyph-name="Edotaccent.c2sc" horiz-adv-x="849"/><glyph d="M770 166l-25 -166h-286q-76 -47 -85 -115t47 -95.5t130 -4.5l-4 -160q-143 -37 -257 26.5t-95 198.5q8 86 94 150h-223l139 983h655l-24 -166h-449l-31 -227h344l-24 -166h-344l-35 -258h473z" glyph-name="Eogonek.c2sc" horiz-adv-x="849"/><glyph d="M326 1368h133l104 -125l144 125h133q-4 -21 -4 -31l-189 -241h-205l-120 241q4 20 4 31zM770 166l-25 -166h-679l139 983h655l-24 -166h-449l-31 -227h344l-24 -166h-344l-35 -258h473z" glyph-name="Ecaron.c2sc" horiz-adv-x="849"/><glyph d="M578 147q121 0 206 58l25 162h-147l22 153h328l-60 -401q-135 -145 -389 -146q-221 0 -360 154t-129 370t160 364.5t384 148.5t383 -176l-116 -136q-117 138 -258 138t-240.5 -97.5t-107.5 -245.5t85 -247t214 -99zM766 1096l-107 118l-133 -118h-157q18 23 204 272h211 l134 -272h-152z" glyph-name="Gcircumflex.c2sc" horiz-adv-x="1054"/><glyph d="M655 1096q-113 0 -167 76.5t-23 195.5h143q-16 -33 -5 -88t58.5 -55t68 46t20.5 97h143q8 -113 -58.5 -192.5t-179.5 -79.5zM578 147q121 0 206 58l25 162h-147l22 153h328l-60 -401q-135 -145 -389 -146q-221 0 -360 154t-129 370t160 364.5t384 148.5t383 -176 l-116 -136q-117 138 -258 138t-240.5 -97.5t-107.5 -245.5t85 -247t214 -99z" glyph-name="Gbreve.c2sc" horiz-adv-x="1054"/><glyph d="M578 147q121 0 206 58l25 162h-147l22 153h328l-60 -401q-135 -145 -389 -146q-221 0 -360 154t-129 370t160 364.5t384 148.5t383 -176l-116 -136q-117 138 -258 138t-240.5 -97.5t-107.5 -245.5t85 -247t214 -99zM653 1352q47 0 80 -35t29 -84t-39 -80t-82 -31t-79 33 t-27.5 82t38 82t80.5 33z" glyph-name="Gdotaccent.c2sc" horiz-adv-x="1054"/><glyph d="M578 147q121 0 206 58l25 162h-147l22 153h328l-60 -401q-135 -145 -389 -146q-221 0 -360 154t-129 370t160 364.5t384 148.5t383 -176l-116 -136q-117 138 -258 138t-240.5 -97.5t-107.5 -245.5t85 -247t214 -99zM287 -487l119 362h258l2 -31l-310 -350z" glyph-name="Gcommaaccent.c2sc" horiz-adv-x="1054"/><glyph d="M874 0h-206l59 424h-395l-60 -424h-206l139 983h205l-56 -393h398l55 393h207zM735 1096l-106 118l-133 -118h-158q18 23 205 272h211l133 -272h-152z" glyph-name="Hcircumflex.c2sc" horiz-adv-x="1024"/><glyph d="M874 0h-206l59 424h-395l-60 -424h-206l98 705h-90l20 147h92l19 131h205l-19 -131h397l19 131h207l-19 -131h88l-20 -147h-88zM354 590h398l14 115h-395z" glyph-name="Hbar.c2sc" horiz-adv-x="1024"/><glyph d="M219 1096l129 272h258l-2 -31l-233 -241h-152zM66 0l139 983h205l-138 -983h-206z" glyph-name="Iacute.c2sc" horiz-adv-x="419"/><glyph d="M66 0l139 983h205l-138 -983h-206zM455 1096l-107 118l-133 -118h-158q18 23 205 272h211l133 -272h-151z" glyph-name="Icircumflex.c2sc" horiz-adv-x="419"/><glyph d="M66 0l139 983h205l-138 -983h-206zM187 1352q48 0 81 -35t29 -84t-39 -80t-82 -31t-78.5 33t-29.5 82q4 49 37.5 82t81.5 33zM509 1352q48 0 81 -35t28.5 -84t-39 -80t-81.5 -31t-79 33t-30 82q4 49 38 82t82 33z" glyph-name="Idieresis.c2sc" horiz-adv-x="419"/><glyph d="M299 1368l117 -272h-152l-225 241l2 31h258zM66 0l139 983h205l-138 -983h-206z" glyph-name="Igrave.c2sc" horiz-adv-x="419"/><glyph d="M224 1341q58 0 127 -26.5t95 -26.5q55 0 86 47l80 -24q-10 -92 -64 -140.5t-110 -48.5t-126 28t-99 28t-45.5 -10.5t-32.5 -39.5l-80 25q8 98 59.5 143t109.5 45zM66 0l139 983h205l-138 -983h-206z" glyph-name="Itilde.c2sc" horiz-adv-x="423"/><glyph d="M66 0l139 983h205l-138 -983h-206zM582 1161h-508l22 148h508z" glyph-name="Imacron.c2sc" horiz-adv-x="423"/><glyph d="M332 1096q-113 0 -167 76.5t-24 195.5h144q-16 -33 -5 -88t58 -55t67.5 46t20.5 97h143q8 -113 -58 -192.5t-179 -79.5zM66 0l139 983h205l-138 -983h-206z" glyph-name="Ibreve.c2sc" horiz-adv-x="423"/><glyph d="M121 -131q0 -43 33.5 -67.5t77.5 -24.5t69 8l-6 -160q-49 -12 -96 -12q-106 0 -181 55.5t-75 137.5t37.5 133t87.5 73l137 971h205l-138 -983h-63q-88 -45 -88 -131z" glyph-name="Iogonek.c2sc" horiz-adv-x="423"/><glyph d="M66 0l139 983h205l-138 -983h-206zM344 1352q47 0 80 -35t29 -84t-39 -80t-82 -31t-79 33t-28 82t38 82t81 33z" glyph-name="Idotaccent.c2sc" horiz-adv-x="423"/><glyph d="M66 0l139 983h205l-138 -983h-206zM803 414l82 569h207l-80 -580q-70 -479 -551 -405l26 170q131 -20 213.5 43.5t102.5 202.5z" glyph-name="IJ.c2sc" horiz-adv-x="1114"/><glyph d="M383 414l82 569h207l-80 -580q-70 -479 -551 -405l27 170q131 -20 213 43.5t102 202.5zM694 1096l-106 118l-133 -118h-158q18 23 205 272h211l133 -272h-152z" glyph-name="Jcircumflex.c2sc" horiz-adv-x="692"/><glyph d="M418 983l-60 -414l418 412h246l-481 -485l370 -496h-252l-321 432l-59 -432h-207l137 983h209zM195 -487l118 362h258l2 -31l-309 -350z" glyph-name="Kcommaaccent.c2sc" horiz-adv-x="987"/><glyph d="M731 166l-24 -166h-641l51 360l-115 -49l-47 119l182 80l68 473h207l-54 -375l179 78l47 -119l-246 -108l-41 -293h434z" glyph-name="Lslash.c2sc" horiz-adv-x="765"/><glyph d="M223 1096l129 272h258l-2 -31l-233 -241h-152zM731 166l-24 -166h-641l139 983h207l-115 -817h434z" glyph-name="Lacute.c2sc" horiz-adv-x="765"/><glyph d="M731 166l-24 -166h-641l139 983h207l-115 -817h434zM129 -487l119 362h258l2 -31l-309 -350z" glyph-name="Lcommaaccent.c2sc" horiz-adv-x="765"/><glyph d="M541 481l147 502h248l-2 -31l-324 -493zM731 166l-24 -166h-641l139 983h207l-115 -817h434z" glyph-name="Lcaron.c2sc" horiz-adv-x="921"/><glyph d="M731 166l-24 -166h-641l139 983h207l-115 -817h434zM726 692q62 0 103 -46t36 -108t-50 -103.5t-107 -41.5t-103.5 44.5t-36.5 106.5t50.5 105t107.5 43z" glyph-name="Ldot.c2sc" horiz-adv-x="903"/><glyph d="M524 1341q58 0 126.5 -26.5t94.5 -26.5q55 0 86 47l80 -24q-10 -92 -64.5 -140.5t-110.5 -48.5t-125.5 28t-98.5 28t-45.5 -10.5t-32.5 -39.5l-80 25q8 98 60 143t110 45zM885 0h-201l55 371l-379 291l-94 -662h-200l139 983l37 16l528 -399l53 383h199z" glyph-name="Ntilde.c2sc" horiz-adv-x="1032"/><glyph d="M504 1096l129 272h258l-2 -31l-234 -241h-151zM885 0h-201l55 371l-379 291l-94 -662h-200l139 983l37 16l528 -399l53 383h199z" glyph-name="Nacute.c2sc" horiz-adv-x="1032"/><glyph d="M885 0h-201l55 371l-379 291l-94 -662h-200l139 983l37 16l528 -399l53 383h199zM203 -487l119 362h258l2 -31l-310 -350z" glyph-name="Ncommaaccent.c2sc" horiz-adv-x="1032"/><glyph d="M381 1368h133l104 -125l144 125h133q-4 -21 -4 -31l-189 -241h-204l-121 241q4 20 4 31zM885 0h-201l55 371l-379 291l-94 -662h-200l139 983l37 16l528 -399l53 383h199z" glyph-name="Ncaron.c2sc" horiz-adv-x="1032"/><glyph d="M475 -522q-51 0 -94 12l45 164q25 -6 47 -6q70 0 122 45t64 133l78 545q-29 23 -377 291q-37 -252 -94 -662h-200l139 983q12 4 37 16l526 -399l55 383h199l-158 -1139q-31 -205 -131 -285.5t-258 -80.5z" glyph-name="Eng.c2sc" horiz-adv-x="1032"/><glyph d="M559 1096l129 272h258l-2 -31l-233 -241h-152zM551 -27q-211 0 -352 145.5t-125 379.5t171.5 373t369.5 139t353.5 -143t125.5 -377t-173 -375.5t-370 -141.5zM559 147q131 0 223 98.5t105 248.5q14 150 -68 246t-212 96t-222.5 -96.5t-106.5 -244.5t68 -248t213 -100z " glyph-name="Oacute.c2sc" horiz-adv-x="1126"/><glyph d="M608 1368l117 -272h-152l-225 241l2 31h258zM551 -27q-211 0 -352 145.5t-125 379.5t171.5 373t369.5 139t353.5 -143t125.5 -377t-173 -375.5t-370 -141.5zM559 147q131 0 223 98.5t105 248.5q14 150 -68 246t-212 96t-222.5 -96.5t-106.5 -244.5t68 -248t213 -100z" glyph-name="Ograve.c2sc" horiz-adv-x="1126"/><glyph d="M551 -27q-211 0 -352 145.5t-125 379.5t171.5 373t369.5 139t353.5 -143t125.5 -377t-173 -375.5t-370 -141.5zM559 147q131 0 223 98.5t105 248.5q14 150 -68 246t-212 96t-222.5 -96.5t-106.5 -244.5t68 -248t213 -100zM776 1096l-106 118l-133 -118h-158 q16 23 205 272h211l133 -272h-152z" glyph-name="Ocircumflex.c2sc" horiz-adv-x="1126"/><glyph d="M551 -27q-211 0 -352 145.5t-125 379.5t171.5 373t369.5 139t353.5 -143t125.5 -377t-173 -375.5t-370 -141.5zM559 147q131 0 223 98.5t105 248.5q14 150 -68 246t-212 96t-222.5 -96.5t-106.5 -244.5t68 -248t213 -100zM501 1352q48 0 80.5 -35t28.5 -84t-38.5 -80 t-82 -31t-79 33t-29.5 82q4 49 38 82t82 33zM822 1352q48 0 81 -35t29 -84t-39 -80t-82 -31t-79 33t-30 82q4 49 38 82t82 33z" glyph-name="Odieresis.c2sc" horiz-adv-x="1126"/><glyph d="M560 1341q58 0 127 -26.5t95 -26.5q55 0 86 47l80 -24q-10 -92 -64.5 -140.5t-110.5 -48.5t-125.5 28t-98.5 28t-45.5 -10.5t-32.5 -39.5l-80 25q8 98 59.5 143t109.5 45zM551 -27q-211 0 -352 145.5t-125 379.5t171.5 373t369.5 139t353.5 -143t125.5 -377t-173 -375.5 t-370 -141.5zM559 147q131 0 223 98.5t105 248.5q14 150 -68 246t-212 96t-222.5 -96.5t-106.5 -244.5t68 -248t213 -100z" glyph-name="Otilde.c2sc" horiz-adv-x="1126"/><glyph d="M545 -27q-135 0 -250 70l-166 -193l-88 70l166 191q-147 147 -132 384t170.5 376t372.5 139q150 0 265 -80l139 162l90 -66l-141 -166q135 -140 122 -372t-172 -373.5t-376 -141.5zM276 494q-8 -125 54 -220l440 504q-74 57 -162 58q-131 0 -224.5 -96t-107.5 -246z M557 147q133 0 225 98.5t105 248.5q12 111 -41 200l-438 -501q67 -46 149 -46z" glyph-name="Oslash.c2sc" horiz-adv-x="1126"/><glyph d="M559 1096l129 272h258l-2 -31l-233 -241h-152zM545 -27q-135 0 -250 70l-166 -193l-88 70l166 191q-147 147 -132 384t170.5 376t372.5 139q150 0 265 -80l139 162l90 -66l-141 -166q135 -140 122 -372t-172 -373.5t-376 -141.5zM276 494q-8 -125 54 -220l440 504 q-74 57 -162 58q-131 0 -224.5 -96t-107.5 -246zM557 147q133 0 225 98.5t105 248.5q12 111 -41 200l-438 -501q67 -46 149 -46z" glyph-name="Oslashacute.c2sc" horiz-adv-x="1126"/><glyph d="M901 1161h-508l23 148h508zM551 -27q-211 0 -352 145.5t-125 379.5t171.5 373t369.5 139t353.5 -143t125.5 -377t-173 -375.5t-370 -141.5zM559 147q131 0 223 98.5t105 248.5q14 150 -68 246t-212 96t-222.5 -96.5t-106.5 -244.5t68 -248t213 -100z" glyph-name="Omacron.c2sc" horiz-adv-x="1126"/><glyph d="M643 1096q-113 0 -167 76.5t-23 195.5h143q-16 -33 -5 -88t58 -55t67.5 46t20.5 97h144q8 -113 -58.5 -192.5t-179.5 -79.5zM551 -27q-211 0 -352 145.5t-125 379.5t171.5 373t369.5 139t353.5 -143t125.5 -377t-173 -375.5t-370 -141.5zM559 147q131 0 223 98.5 t105 248.5q14 150 -68 246t-212 96t-222.5 -96.5t-106.5 -244.5t68 -248t213 -100z" glyph-name="Obreve.c2sc" horiz-adv-x="1126"/><glyph d="M551 -27q-211 0 -352 145.5t-125 379.5t171.5 373t369.5 139t353.5 -143t125.5 -377t-173 -375.5t-370 -141.5zM559 147q131 0 223 98.5t105 248.5q14 150 -68 246t-212 96t-222.5 -96.5t-106.5 -244.5t68 -248t213 -100zM440 1096l105 272h217l-2 -31l-219 -241h-101z M717 1096l104 272h217l-2 -31l-219 -241h-100z" glyph-name="Ohungarumlaut.c2sc" horiz-adv-x="1126"/><glyph d="M1370 166l-24 -166h-588q-174 -33 -314.5 0t-264.5 151.5t-103 364.5q20 246 243.5 389.5t571.5 77.5h569l-22 -166h-451l-31 -227h344l-22 -166h-346l-37 -258h475zM686 158l92 663q-109 25 -216 -2.5t-185 -110.5t-90 -202q-20 -197 109.5 -288t289.5 -60z" glyph-name="OE.c2sc" horiz-adv-x="1449"/><glyph d="M385 1096l129 272h258l-2 -31l-233 -241h-152zM858 653q-6 -113 -70.5 -194.5t-162.5 -122.5l256 -336h-244l-207 287q-45 -8 -117 -4l-41 -283h-204l133 975q208 52 366 10.5t224.5 -123.5t66.5 -209zM649 649q0 104 -80 145t-182 27l-51 -360q109 -20 211 32t102 156z " glyph-name="Racute.c2sc" horiz-adv-x="921"/><glyph d="M858 653q-6 -113 -70.5 -194.5t-162.5 -122.5l256 -336h-244l-207 287q-45 -8 -117 -4l-41 -283h-204l133 975q208 52 366 10.5t224.5 -123.5t66.5 -209zM649 649q0 104 -80 145t-182 27l-51 -360q109 -20 211 32t102 156zM176 -487l119 362h258l2 -31l-309 -350z" glyph-name="Rcommaaccent.c2sc" horiz-adv-x="921"/><glyph d="M250 1368h133l104 -125l144 125h133q-4 -21 -4 -31l-189 -241h-204l-121 241q4 20 4 31zM858 653q-6 -113 -70.5 -194.5t-162.5 -122.5l256 -336h-244l-207 287q-45 -8 -117 -4l-41 -283h-204l133 975q208 52 366 10.5t224.5 -123.5t66.5 -209zM649 649q0 104 -80 145 t-182 27l-51 -360q109 -20 211 32t102 156z" glyph-name="Rcaron.c2sc" horiz-adv-x="921"/><glyph d="M519 -18q-93 0 -163 32l35 160h23q97 -39 161 -19.5t100 59.5t40 101q8 100 -72 148.5t-190 13.5l-23 27l256 313h-299l-117 -817h-204l137 983h776l8 -35l-280 -350q72 -6 147.5 -87t69.5 -210q-4 -90 -42 -155.5t-96.5 -99.5t-116 -49t-150.5 -15z" glyph-name="uni1E9E.c2sc" horiz-adv-x="983"/><glyph d="M305 1368h133l105 -125l143 125h133q-4 -21 -4 -31l-188 -241h-205l-121 241q4 20 4 31zM377 -27q-98 0 -193.5 28t-136.5 58l68 168q31 -25 120 -52.5t159 -27.5t127 27t61 78t-39 84t-131 65q-291 98 -271 330q12 133 117.5 206t269.5 73t291 -62l-59 -172 q-123 63 -258 64q-66 0 -115 -30t-52 -86t51 -82t108 -46q312 -92 282 -353q-14 -130 -123.5 -200t-275.5 -70z" glyph-name="Scaron.c2sc" horiz-adv-x="860"/><glyph d="M428 1096l129 272h258l-2 -31l-233 -241h-152zM377 -27q-98 0 -193.5 28t-136.5 58l68 168q31 -25 120 -52.5t159 -27.5t127 27t61 78t-39 84t-131 65q-291 98 -271 330q12 133 117.5 206t269.5 73t291 -62l-59 -172q-123 63 -258 64q-66 0 -115 -30t-52 -86t51 -82 t108 -46q312 -92 282 -353q-14 -130 -123.5 -200t-275.5 -70z" glyph-name="Sacute.c2sc" horiz-adv-x="860"/><glyph d="M377 -27q-98 0 -193.5 28t-136.5 58l68 168q31 -25 120 -52.5t159 -27.5t127 27t61 78t-39 84t-131 65q-291 98 -271 330q12 133 117.5 206t269.5 73t291 -62l-59 -172q-123 63 -258 64q-66 0 -115 -30t-52 -86t51 -82t108 -46q312 -92 282 -353q-14 -130 -123.5 -200 t-275.5 -70zM651 1096l-106 118l-133 -118h-158q18 23 205 272h211l133 -272h-152z" glyph-name="Scircumflex.c2sc" horiz-adv-x="860"/><glyph d="M135 -213q194 -35 212 94q7 51 -32 94q-84 6 -160.5 32t-111.5 52l68 168q31 -25 119.5 -52.5t159.5 -27.5t127.5 27t60.5 78t-39 84t-131 65q-291 98 -271 330q12 133 117.5 206t269.5 73t291 -62l-59 -172q-123 63 -258 64q-66 0 -115 -30t-52 -86t51 -82t107 -46 q152 -45 224.5 -134t59.5 -209t-96 -188.5t-214 -84.5q55 -70 47 -150q-12 -133 -139 -187.5t-262 -15.5z" glyph-name="Scedilla.c2sc" horiz-adv-x="849"/><glyph d="M377 -27q-98 0 -193.5 28t-136.5 58l68 168q31 -25 120 -52.5t159 -27.5t127 27t61 78t-39 84t-131 65q-291 98 -271 330q12 133 117.5 206t269.5 73t291 -62l-59 -172q-123 63 -258 64q-66 0 -115 -30t-52 -86t51 -82t108 -46q312 -92 282 -353q-14 -130 -123.5 -200 t-275.5 -70zM121 -487l119 362h258l2 -31l-310 -350z" glyph-name="Scommaaccent.c2sc" horiz-adv-x="860"/><glyph d="M465 838q188 0 301 -86t113 -249t-134.5 -264.5t-345.5 -101.5q-51 0 -104 6l-21 -143h-204l137 983h205l-21 -149q49 4 74 4zM367 655l-48 -333q37 -8 76 -9q104 0 188.5 42t88.5 139q0 170 -219 170q-37 -1 -86 -9z" glyph-name="Thorn.c2sc" horiz-adv-x="915"/><glyph d="M222 -389q-78 0 -134 18q10 53 27 160q27 -8 79 -8t93 27.5t41 91.5t-58 100h-26q18 137 57 409.5t57 407.5h-272l23 164h753l-22 -164h-275l-116 -817h-35q76 -55 75 -152q0 -45 -16 -69q-25 -82 -99 -125t-152 -43z" glyph-name="tcommaaccent.sc" horiz-adv-x="815"/><glyph d="M840 817h-275l-116 -817h-205l114 817h-272l23 164h753zM90 -487l119 362h258l2 -31l-309 -350z" glyph-name="uni021A.c2sc" horiz-adv-x="815"/><glyph d="M268 1368h133l105 -125l143 125h133q-4 -21 -4 -31l-188 -241h-205l-121 241q4 20 4 31zM840 817h-275l-116 -817h-205l114 817h-272l23 164h753z" glyph-name="Tcaron.c2sc" horiz-adv-x="815"/><glyph d="M840 817h-275l-35 -246h156l-20 -147h-156l-61 -424h-205l59 424h-156l21 147h156l34 246h-272l23 164h753z" glyph-name="Tbar.c2sc" horiz-adv-x="815"/><glyph d="M514 1096l129 272h258l-2 -31l-233 -241h-152zM487 -27q-201 0 -300 125t-74 310l82 575h206l-82 -586q-16 -115 36.5 -182.5t148.5 -67.5t161.5 67t82.5 183l81 586h209l-82 -580q-27 -186 -147.5 -308t-321.5 -122z" glyph-name="Uacute.c2sc" horiz-adv-x="1048"/><glyph d="M594 1368l117 -272h-152l-225 241l2 31h258zM487 -27q-201 0 -300 125t-74 310l82 575h206l-82 -586q-16 -115 36.5 -182.5t148.5 -67.5t161.5 67t82.5 183l81 586h209l-82 -580q-27 -186 -147.5 -308t-321.5 -122z" glyph-name="Ugrave.c2sc" horiz-adv-x="1048"/><glyph d="M487 -27q-201 0 -300 125t-74 310l82 575h206l-82 -586q-16 -115 36.5 -182.5t148.5 -67.5t161.5 67t82.5 183l81 586h209l-82 -580q-27 -186 -147.5 -308t-321.5 -122zM750 1096l-107 118l-133 -118h-158q16 23 205 272h211l133 -272h-151z" glyph-name="Ucircumflex.c2sc" horiz-adv-x="1048"/><glyph d="M487 -27q-201 0 -300 125t-74 310l82 575h206l-82 -586q-16 -115 36.5 -182.5t148.5 -67.5t161.5 67t82.5 183l81 586h209l-82 -580q-27 -186 -147.5 -308t-321.5 -122zM480 1352q48 0 81 -35t29 -84t-39 -80t-82 -31t-79 33t-30 82q4 49 38 82t82 33zM802 1352 q48 0 80.5 -35t28.5 -84t-38.5 -80t-82 -31t-79 33t-29.5 82q4 49 38 82t82 33z" glyph-name="Udieresis.c2sc" horiz-adv-x="1048"/><glyph d="M526 1341q58 0 126.5 -26.5t95.5 -26.5q55 0 86 47l79 -24q-10 -92 -64.5 -140.5t-110.5 -48.5t-125.5 28t-98.5 28t-45.5 -10.5t-32.5 -39.5l-80 25q8 98 60 143t110 45zM487 -27q-201 0 -300 125t-74 310l82 575h206l-82 -586q-16 -115 36.5 -182.5t148.5 -67.5 t161.5 67t82.5 183l81 586h209l-82 -580q-27 -186 -147.5 -308t-321.5 -122z" glyph-name="Utilde.c2sc" horiz-adv-x="1048"/><glyph d="M881 1161h-508l22 148h508zM487 -27q-201 0 -300 125t-74 310l82 575h206l-82 -586q-16 -115 36.5 -182.5t148.5 -67.5t161.5 67t82.5 183l81 586h209l-82 -580q-27 -186 -147.5 -308t-321.5 -122z" glyph-name="Umacron.c2sc" horiz-adv-x="1048"/><glyph d="M631 1096q-113 0 -167 76.5t-24 195.5h144q-16 -33 -5 -88t58 -55t67.5 46t20.5 97h143q8 -113 -58 -192.5t-179 -79.5zM487 -27q-201 0 -300 125t-74 310l82 575h206l-82 -586q-16 -115 36.5 -182.5t148.5 -67.5t161.5 67t82.5 183l81 586h209l-82 -580 q-27 -186 -147.5 -308t-321.5 -122z" glyph-name="Ubreve.c2sc" horiz-adv-x="1048"/><glyph d="M644 1378q89 0 146.5 -62.5t49 -150.5t-73 -149.5t-153.5 -61.5t-144 60.5t-49 150.5q8 90 71.5 151.5t152.5 61.5zM618.5 1067q40.5 0 72.5 28.5t36 70.5t-20.5 71t-66.5 29t-71.5 -29t-34 -70t19.5 -70.5t64.5 -29.5zM487 -27q-201 0 -300 125t-74 310l82 575h206 l-82 -586q-16 -115 36.5 -182.5t148.5 -67.5t161.5 67t82.5 183l81 586h209l-82 -580q-27 -186 -147.5 -308t-321.5 -122z" glyph-name="Uring.c2sc" horiz-adv-x="1048"/><glyph d="M487 -27q-201 0 -300 125t-74 310l82 575h206l-82 -586q-16 -115 36.5 -182.5t148.5 -67.5t161.5 67t82.5 183l81 586h209l-82 -580q-27 -186 -147.5 -308t-321.5 -122zM406 1096l104 272h217l-2 -31l-219 -241h-100zM682 1096l104 272h218l-3 -31l-219 -241h-100z" glyph-name="Uhungarumlaut.c2sc" horiz-adv-x="1048"/><glyph d="M381 -183q0 93 65 158q-180 12 -269 135t-64 298l82 575h206l-82 -586q-16 -115 36.5 -182.5t148.5 -67.5t161.5 67t82.5 183l81 586h209l-82 -580q-20 -141 -96 -248.5t-201 -152.5q-39 -14 -65.5 -51t-26.5 -80t32 -68.5t74 -25.5t68 8l-6 -160q-49 -12 -96 -12 q-109 0 -183.5 55.5t-74.5 148.5z" glyph-name="Uogonek.c2sc" horiz-adv-x="1048"/><glyph d="M739 1096l129 272h258l-2 -31l-233 -241h-152zM1294 983h213l-542 -999h-29l-174 626l-356 -626h-31l-254 999h209l133 -557l332 573h30l172 -569z" glyph-name="Wacute.c2sc" horiz-adv-x="1435"/><glyph d="M770 1368l117 -272h-152l-225 241l2 31h258zM1294 983h213l-542 -999h-29l-174 626l-356 -626h-31l-254 999h209l133 -557l332 573h30l172 -569z" glyph-name="Wgrave.c2sc" horiz-adv-x="1435"/><glyph d="M1294 983h213l-542 -999h-29l-174 626l-356 -626h-31l-254 999h209l133 -557l332 573h30l172 -569zM934 1096l-107 118l-133 -118h-157q18 23 204 272h211l133 -272h-151z" glyph-name="Wcircumflex.c2sc" horiz-adv-x="1435"/><glyph d="M1294 983h213l-542 -999h-29l-174 626l-356 -626h-31l-254 999h209l133 -557l332 573h30l172 -569zM679 1352q48 0 81 -35t28.5 -84t-39 -80t-81.5 -31t-79 33t-30 82q4 49 38 82t82 33zM1000 1352q48 0 81 -35t29 -84t-39 -80t-82 -31t-78.5 33t-29.5 82q4 49 37.5 82 t81.5 33z" glyph-name="Wdieresis.c2sc" horiz-adv-x="1435"/><glyph d="M500 1096l129 272h258l-2 -31l-234 -241h-151zM358 0l56 393l-297 590h227l197 -381q205 254 305 381h235l-460 -588l-56 -395h-207z" glyph-name="Yacute.c2sc" horiz-adv-x="995"/><glyph d="M573 1368l117 -272h-151l-226 241l2 31h258zM358 0l56 393l-297 590h227l197 -381q205 254 305 381h235l-460 -588l-56 -395h-207z" glyph-name="Ygrave.c2sc" horiz-adv-x="995"/><glyph d="M358 0l56 393l-297 590h227l197 -381q205 254 305 381h235l-460 -588l-56 -395h-207zM727 1096l-106 118l-134 -118h-157q16 23 205 272h210l134 -272h-152z" glyph-name="Ycircumflex.c2sc" horiz-adv-x="995"/><glyph d="M358 0l56 393l-297 590h227l197 -381q205 254 305 381h235l-460 -588l-56 -395h-207zM460 1352q48 0 80.5 -35t28.5 -84t-38.5 -80t-82 -31t-79 33t-29.5 82q4 49 38 82t82 33zM781 1352q48 0 81 -35t29 -84t-39 -80t-82 -31t-78.5 33t-29.5 82q4 49 37.5 82t81.5 33z " glyph-name="Ydieresis.c2sc" horiz-adv-x="995"/><glyph d="M604 1243l144 125h133q-4 -21 -4 -31l-189 -241h-205l-121 241q4 20 5 31h133zM848 166l-23 -166h-790l-10 37l608 780h-461l23 166h768l6 -41l-596 -776h475z" glyph-name="Zcaron.c2sc" horiz-adv-x="935"/><glyph d="M461 1096l129 272h258l-2 -31l-234 -241h-151zM848 166l-23 -166h-790l-10 37l608 780h-461l23 166h768l6 -41l-596 -776h475z" glyph-name="Zacute.c2sc" horiz-adv-x="935"/><glyph d="M848 166l-23 -166h-790l-10 37l608 780h-461l23 166h768l6 -41l-596 -776h475zM604 1352q47 0 80 -35t29 -84t-39 -80t-82 -31t-79 33t-28 82t38 82t81 33z" glyph-name="Zdotaccent.c2sc" horiz-adv-x="935"/><glyph d="M567 406l-45 -314h-182l45 314h-305l24 178h306l43 313h182l-43 -313h303l-25 -178h-303z" glyph-name="plus.oldstyle" horiz-adv-x="952"/><glyph d="M874 406h-794l24 178h795z" glyph-name="minus.oldstyle" horiz-adv-x="958"/><glyph d="M502 600l280 256l105 -123l-283 -256l217 -258l-137 -121l-211 256l-280 -254l-111 123l287 258l-215 258l137 117z" glyph-name="multiply.oldstyle" horiz-adv-x="948"/><glyph d="M872 406h-794l24 178h797zM450.5 289q49.5 0 82 -36t28.5 -86t-39 -82t-85 -32t-81.5 34t-27.5 84t38.5 84t84 34zM543 950q49 0 81.5 -36t28.5 -86t-38.5 -81.5t-84.5 -31.5t-82 34t-28 84t39 83.5t84 33.5z" glyph-name="divide.oldstyle" horiz-adv-x="958"/><glyph d="M279 231h-226l25 177h297l88 174h-361l25 178h432l160 305l137 -68l-121 -237h207l-24 -178h-279l-90 -174h344l-25 -177h-413l-176 -342l-140 70z" glyph-name="notequal.oldstyle" horiz-adv-x="974"/><glyph d="M868 25l-809 446l4 37l936 448l-30 -219l-543 -254l471 -256z" glyph-name="less.oldstyle" horiz-adv-x="1052"/><glyph d="M180 956l809 -446l-4 -37l-936 -448l31 219l543 254l-471 256z" glyph-name="greater.oldstyle" horiz-adv-x="1052"/><glyph d="M874 43h-823l25 176h825zM907 281l-813 276l15 100l890 279l-24 -176l-504 -154l461 -155z" glyph-name="lessequal.oldstyle" horiz-adv-x="1052"/><glyph d="M872 43h-825l27 176h823zM975 557l-893 -276l24 172l510 155l-466 156l24 172l815 -279z" glyph-name="greaterequal.oldstyle" horiz-adv-x="1052"/><glyph d="M312 461q80 0 200.5 -48t173.5 -48q98 0 156 79l80 -12q-4 -125 -86 -190.5t-158 -65.5t-201 47t-174 47q-105 1 -156 -77l-81 12q6 133 86 194.5t160 61.5zM361 805q80 0 200.5 -47t173.5 -47q100 0 158 80l78 -15q-2 -125 -84.5 -190.5t-158.5 -65.5t-201.5 48 t-172.5 48q-106 1 -155 -79l-84 12q8 135 87 195.5t159 60.5z" glyph-name="approxequal.oldstyle" horiz-adv-x="997"/><glyph d="M868 231h-815l25 177h815zM918 582h-816l25 178h815z" glyph-name="equal.oldstyle" horiz-adv-x="974"/><glyph d="M1167 180h592l-24 -180h-809l41 291h-547l-256 -291h-264l1226 1438h783l-25 -183h-565l-59 -430h454l-24 -182h-457zM571 475h420l92 612z" glyph-name="AE.salt" horiz-adv-x="1896"/><glyph d="M1165 1540l129 272h258l-2 -30l-233 -242h-152zM1167 180h592l-24 -180h-809l41 291h-547l-256 -291h-264l1226 1438h783l-25 -183h-565l-59 -430h454l-24 -182h-457zM571 475h420l92 612z" glyph-name="AEacute.salt" horiz-adv-x="1896"/><glyph d="M332 180h592l-27 -180h-805l201 1438h780l-24 -183h-568l-61 -432h457l-25 -180h-457z" glyph-name="E.salt"/><glyph d="M332 180h592l-27 -180h-805l201 1438h780l-24 -183h-568l-61 -432h457l-25 -180h-457zM555 1540l129 272h258l-2 -30l-233 -242h-152z" glyph-name="Eacute.salt"/><glyph d="M332 180h592l-27 -180h-805l201 1438h780l-24 -183h-568l-61 -432h457l-25 -180h-457zM700 1812l117 -272h-151l-226 242l2 30h258z" glyph-name="Egrave.salt"/><glyph d="M332 180h592l-27 -180h-805l201 1438h780l-24 -183h-568l-61 -432h457l-25 -180h-457zM554 1796q48 0 81 -35t28.5 -84t-39 -79.5t-81.5 -30.5t-79 32.5t-30 81.5q4 49 38 82t82 33zM875 1796q48 0 81 -35t29 -84t-39 -79.5t-82 -30.5t-78.5 32.5t-29.5 81.5 q4 49 37.5 82t81.5 33z" glyph-name="Edieresis.salt"/><glyph d="M332 180h592l-27 -180h-805l201 1438h780l-24 -183h-568l-61 -432h457l-25 -180h-457zM811 1540l-106 119l-134 -119h-157q18 23 204 272h211l134 -272h-152z" glyph-name="Ecircumflex.salt"/><glyph d="M332 180h592l-27 -180h-805l201 1438h780l-24 -183h-568l-61 -432h457l-25 -180h-457zM961 1606h-508l22 147h508z" glyph-name="Emacron.salt"/><glyph d="M332 180h592l-27 -180h-805l201 1438h780l-24 -183h-568l-61 -432h457l-25 -180h-457zM700 1540q-113 0 -167 77t-23 195h143q-16 -33 -5 -88t58.5 -55t68 46t20.5 97h143q8 -113 -58.5 -192.5t-179.5 -79.5z" glyph-name="Ebreve.salt"/><glyph d="M332 180h592l-27 -180h-805l201 1438h780l-24 -183h-568l-61 -432h457l-25 -180h-457zM709 1796q47 0 79.5 -35t28.5 -84t-39 -79.5t-82 -30.5t-78.5 32.5t-27.5 82t38 82t81 32.5z" glyph-name="Edotaccent.salt"/><glyph d="M332 180h592l-27 -180h-340q-76 -47 -85 -115t47 -96.5t130 -7.5l-4 -160q-143 -37 -257 28.5t-95 200.5q8 86 94 150h-295l201 1438h780l-24 -183h-568l-61 -432h457l-25 -180h-457z" glyph-name="Eogonek.salt"/><glyph d="M332 180h592l-27 -180h-805l201 1438h780l-24 -183h-568l-61 -432h457l-25 -180h-457zM467 1812h133l105 -124l143 124h133q-4 -20 -4 -30l-189 -242h-204l-121 242q4 20 4 30z" glyph-name="Ecaron.salt"/><glyph d="M305 0h-213l201 1438h770l-25 -183h-555l-61 -432h444l-24 -180h-447z" glyph-name="F.salt" horiz-adv-x="1007"/><glyph d="M862 0l90 643h-557l-90 -643h-213l201 1438h215l-86 -615h555l86 615h215l-201 -1438h-215z" glyph-name="H.salt" horiz-adv-x="1286"/><glyph d="M862 0l90 643h-557l-90 -643h-213l201 1438h215l-86 -615h555l86 615h215l-201 -1438h-215zM911 1540l-106 119l-133 -119h-158q16 23 205 272h211l133 -272h-152z" glyph-name="Hcircumflex.salt" horiz-adv-x="1286"/><glyph d="M862 0l94 674h-555l-94 -674h-215l152 1087h-117l20 148h117l29 203h215l-29 -203h555l29 203h215l-29 -203h109l-21 -148h-108l-152 -1087h-215zM426 854h557l31 233h-555z" glyph-name="Hbar.salt" horiz-adv-x="1286"/><glyph d="M309 0h-211l201 1442l55 12l461 -983l752 983l51 -12l-201 -1442h-213l123 866l-543 -719h-22l-328 736z" glyph-name="M.salt" horiz-adv-x="1617"/><glyph d="M1176 1438h210l-200 -1446l-45 -10l-701 999l-139 -981h-209l203 1446l43 12l696 -999z" glyph-name="N.salt" horiz-adv-x="1394"/><glyph d="M1176 1438h210l-200 -1446l-45 -10l-701 999l-139 -981h-209l203 1446l43 12l696 -999zM736 1786q58 0 127 -26.5t95 -26.5q55 0 86 47l80 -25q-10 -92 -64 -140t-110 -48t-126 27.5t-99 27.5t-45.5 -10t-32.5 -39l-80 24q8 98 59.5 143.5t109.5 45.5z" glyph-name="Ntilde.salt" horiz-adv-x="1394"/><glyph d="M1186 1438h211l-201 -1446l-45 -10l-700 999l-140 -981h-209l203 1446l43 12l696 -999zM711 1563l129 272h258l-2 -31l-234 -241h-151z" glyph-name="Nacute.salt" horiz-adv-x="1415"/><glyph d="M1176 1438h210l-200 -1446l-45 -10l-701 999l-139 -981h-209l203 1446l43 12l696 -999zM420 -487l119 362h258l2 -31l-310 -350z" glyph-name="Ncommaaccent.salt" horiz-adv-x="1415"/><glyph d="M1176 1438h210l-200 -1446l-45 -10l-701 999l-139 -981h-209l203 1446l43 12l696 -999zM618 1833h134l104 -125l143 125h134q-5 -21 -5 -31l-188 -241h-205l-121 241q4 20 4 31z" glyph-name="Ncaron.salt" horiz-adv-x="1415"/><glyph d="M784 -524q-49 0 -102 14l49 176q23 -6 43 -6q66 0 116 43t60 123l49 332l-559 823q-51 -369 -139 -981h-209l203 1446l43 12l700 -999l138 979h210l-227 -1628q-25 -170 -133 -252t-242 -82z" glyph-name="Eng.salt" horiz-adv-x="1394"/><glyph d="M852 -18q-199 0 -351.5 66.5t-274.5 223.5t-122 384t91.5 378.5t191.5 234.5t265.5 136t337.5 53t317 -20h565l-25 -183h-565q-12 -74 -32.5 -218t-30.5 -214h456l-26 -180h-455q-18 -137 -64 -463h592l-24 -180h-627q-117 -18 -219 -18zM324 662q0 -213 138 -351.5 t351 -138.5q53 0 100 8q96 668 152 1077q-53 6 -102 7q-281 0 -460 -169t-179 -433z" glyph-name="OE.salt" horiz-adv-x="1859"/><glyph d="M270 0h-204l139 987l53 12l352 -639l533 639l49 -12l-137 -987h-207l76 504l-338 -420h-29l-213 430z" glyph-name="M.c2sc.salt" horiz-adv-x="1202"/><glyph d="M938 0l-43 -16l-543 616l-86 -600h-200l139 983l43 16l543 -622l88 606h198z" glyph-name="N.c2sc.salt" horiz-adv-x="1087"/><glyph d="M550 1341q58 0 126.5 -26.5t95.5 -26.5q55 0 86 47l80 -24q-10 -92 -64.5 -140.5t-110.5 -48.5t-126.5 28t-98.5 28t-44.5 -10.5t-32.5 -39.5l-80 25q8 98 59.5 143t109.5 45zM938 0l-43 -16l-543 616l-86 -600h-200l139 983l43 16l543 -622l88 606h198z" glyph-name="Ntilde.c2sc.salt" horiz-adv-x="1087"/><glyph d="M524 1096l129 272h258l-2 -31l-233 -241h-152zM938 0l-43 -16l-543 616l-86 -600h-200l139 983l43 16l543 -622l88 606h198z" glyph-name="Nacute.c2sc.salt" horiz-adv-x="1087"/><glyph d="M264 -487l119 362h258l2 -31l-309 -350zM938 0l-43 -16l-543 616l-86 -600h-200l139 983l43 16l543 -622l88 606h198z" glyph-name="Ncommaaccent.c2sc.salt" horiz-adv-x="1087"/><glyph d="M412 1368h133l104 -125l144 125h133q-4 -21 -4 -31l-189 -241h-205l-120 241q4 20 4 31zM938 0l-43 -16l-543 616l-86 -600h-200l139 983l43 16l543 -622l88 606h198z" glyph-name="Ncaron.c2sc.salt" horiz-adv-x="1087"/><glyph d="M539 -524q-49 0 -103 14l47 164q25 -6 47 -6q70 0 121 45t61 113t24 164t20 143l-404 487l-86 -600h-200l139 983q14 4 43 16q80 -92 213 -246t330 -376l88 606h198q-102 -721 -164 -1173q-25 -170 -134 -252t-240 -82z" glyph-name="Eng.c2sc.salt" horiz-adv-x="1087"/></font>
</defs>
</svg>
