<?xml version="1.0" standalone="no"?>
<!DOCTYPE svg PUBLIC "-//W3C//DTD SVG 1.1//EN" "http://www.w3.org/Graphics/SVG/1.1/DTD/svg11.dtd">
<svg xmlns="http://www.w3.org/2000/svg"><metadata>This SVG WebFont was generated by YouWorkForThem.
Copyright (c) 2011-2013 by Greg Shutters &amp; Typetanic Fonts. All rights reserved.</metadata><defs><font horiz-adv-x="1107" id="ywftsvg"><font-face ascent="1485" bbox="-385 -541.405 2245 1956" cap-height="1438" descent="-563" font-family="" font-stretch="normal" font-weight="700" panose-1="2 11 8 3 4 6 3 2 2 2" underline-position="0" underline-thickness="0" unicode-range="U+0020-FB04" units-per-em="2048" x-height="852"/><missing-glyph horiz-adv-x="526"/><glyph d="M1036 1081v-229h203v-205h-203v-647h-260v647h-348v-647h-260v647l-131 2v25q4 14 26 178h105v182q0 205 106.5 295t253.5 90q63 0 119 -16l-31 -213q-12 4 -38 4q-61 0 -105.5 -43t-44.5 -127v-172h348v235q0 207 104.5 297.5t254.5 90.5q66 0 120 -17l-32 -211 q-25 4 -37 4q-61 0 -105.5 -43t-44.5 -127z" glyph-name="uniFB00" horiz-adv-x="1288" unicode="ff"/><glyph d="M430 852h201v-203h-201v-649h-262v649h-129v25l24 178h105v260q0 104 36 181t90 115t148.5 61.5t204.5 -11.5l-31 -211q-70 16 -129 -27t-57 -139v-229zM782 0v852h260v-852h-260zM739 1205q0 71 51.5 123t121.5 52t121.5 -51t51.5 -122.5t-51 -121t-122 -49.5t-122 49 t-51 120z" glyph-name="uniFB01" horiz-adv-x="1155" unicode="fi"/><glyph d="M430 852h201v-203h-201v-649h-262v649h-129v25l24 178h105v260q0 104 36 181t90 115t148.5 61.5t204.5 -11.5l-31 -211q-70 16 -129 -27t-57 -139v-229zM1067 1462v-1462h-260v1438l237 24h23z" glyph-name="uniFB02" horiz-adv-x="1191" unicode="fl"/><glyph d="M1391 0v852h260v-852h-260zM1348 1205q0 71 51 123t120.5 52t122 -51t52.5 -122.5t-52 -121t-122 -49.5t-121 49t-51 120zM1036 1081v-229h203v-205h-203v-647h-260v647h-348v-647h-260v647l-131 2v25q4 14 26 178h105v182q0 205 106.5 295t253.5 90q63 0 119 -16 l-31 -213q-12 4 -38 4q-61 0 -105.5 -43t-44.5 -127v-172h348v235q0 207 104.5 297.5t254.5 90.5q66 0 120 -17l-32 -211q-25 4 -37 4q-61 0 -105.5 -43t-44.5 -127z" glyph-name="uniFB03" horiz-adv-x="1763" unicode="ffi"/><glyph d="M1673 1462v-1462h-260v1438l238 24h22zM1036 1081v-229h203v-205h-203v-647h-260v647h-348v-647h-260v647l-131 2v25q4 14 26 178h105v182q0 205 106.5 295t253.5 90q63 0 119 -16l-31 -213q-12 4 -38 4q-61 0 -105.5 -43t-44.5 -127v-172h348v235q0 207 104.5 297.5 t254.5 90.5q66 0 120 -17l-32 -211q-25 4 -37 4q-61 0 -105.5 -43t-44.5 -127z" glyph-name="uniFB04" horiz-adv-x="1800" unicode="ffl"/><glyph d="M1241 647h-201v-334q0 -59 34 -86.5t75 -27.5t76 10q29 -168 35 -209q-66 -16 -140 -16q-340 0 -340 342v321h-350v-647h-262v649h-129v25l24 178h105v260q0 104 36 181t90 115t148.5 61.5t204.5 -11.5l-31 -211q-70 16 -129 -26.5t-57 -139.5v-229h350v285l238 28h22 v-313h201v-205z" glyph-name="f_t.liga" horiz-adv-x="1325" unicode="ft"/><glyph d="M1847 647h-200v-334q0 -59 33.5 -86.5t74.5 -27.5t76 10q29 -168 35 -209q-66 -16 -140 -16q-340 0 -340 342v321h-350v-647h-260v647h-348v-647h-260v647h-131v27q4 20 8 53l18 125h105v182q0 205 106.5 295t253.5 90q63 0 119 -16l-31 -213q-12 4 -38 4 q-61 0 -105.5 -43t-44.5 -127v-172h348v235q0 207 104.5 297.5t254.5 90.5q66 0 120 -17l-32 -211q-25 4 -37 4q-61 0 -105.5 -43t-44.5 -127v-229h350v285l238 28h23v-313h200v-205z" glyph-name="f_f_t.liga" horiz-adv-x="1931" unicode="fft"/><glyph d="M1239 647h-201v-334q0 -59 34 -86.5t75 -27.5t76 10q29 -168 34 -209q-66 -16 -139 -16q-340 0 -340 342v321h-352v-334q0 -59 34 -86.5t75 -27.5t75 10q29 -168 35 -209q-66 -16 -139 -16q-340 0 -340 342v321h-135v27l24 178h111v285l237 28h23v-313h352v285l238 28h22 v-313h201v-205z" glyph-name="t_t.liga" horiz-adv-x="1320" unicode="tt"/><glyph glyph-name=".notdef" horiz-adv-x="526"/><glyph glyph-name="glyph1" horiz-adv-x="0"/><glyph glyph-name="glyph2" horiz-adv-x="681"/><glyph glyph-name="space" horiz-adv-x="501" unicode=" "/><glyph d="M258 455l-123 878h387l-121 -878h-143zM158 150q0 72 50 123t121 51t122 -51t51 -123t-50 -121t-122 -49t-122 49t-50 121z" glyph-name="exclam" horiz-adv-x="659" unicode="!"/><glyph d="M190 748l-114 690h332l-115 -690h-103zM612 748l-114 690h331l-114 -690h-103z" glyph-name="quotedbl" horiz-adv-x="907" unicode="&quot;"/><glyph d="M1139 297h-230q-20 -100 -65 -297h-238l70 297h-197l-67 -297h-238l70 297h-178v229h229l70 297h-187v230h238l65 280h226l-64 -280h205l65 280h226l-64 -280h174v-230h-223l-68 -297h181v-229zM596 823l-70 -297h203l70 297h-203z" glyph-name="numbersign" horiz-adv-x="1316" unicode="#"/><glyph d="M403 1612h218v-264q154 -20 245 -76l-75 -211q-121 57 -217 57t-141.5 -39t-45.5 -93t33 -82t54.5 -41t32.5 -20t145.5 -83.5t208 -176.5t69.5 -237t-88 -234.5t-215 -131.5v-256h-217v247q-205 23 -318 119l103 205q145 -82 251 -82t156.5 39.5t50.5 111.5t-88 136 q-25 18 -162 102t-186 131q-106 104 -106 264q0 115 77.5 219.5t214.5 129.5v266z" glyph-name="dollar" horiz-adv-x="1024" unicode="$"/><glyph d="M1134 -20q-132 0 -229.5 91t-97.5 228t98.5 228t230.5 91t227 -91t95 -228t-96 -228t-228 -91zM1136.5 154q53.5 0 81 39.5t27.5 105.5q0 147 -110 147q-51 0 -82 -41t-31 -105t30.5 -105t84 -41zM380 719q-132 0 -229.5 92t-97.5 229.5t98.5 227.5t230.5 90t227.5 -90 t95.5 -227.5t-96.5 -229.5t-228.5 -92zM383 893q53 0 82 41.5t29 107.5t-29 105t-82 39t-83 -40t-30 -105.5t30 -106.5t83 -41zM133 94l1065 1270l160 -135l-1063 -1262z" glyph-name="percent" horiz-adv-x="1511" unicode="%"/><glyph d="M636 1122q-110 0 -126 -114q-4 -63 22.5 -98.5t61.5 -75.5l285 -359l223 201l160 -174l-234 -211l229 -289l-317 -2l-96 127l-86 -68q-72 -53 -180.5 -74.5t-228.5 10.5t-189 124q-109 158 -80 310.5t160 258.5l100 86l-23 35q-40 68 -50.5 117t-8.5 102q2 145 110 238.5 t256 93.5t253.5 -85t136.5 -214l-217 -80q-51 141 -161 141zM325 384q-5 -67 40 -121t118.5 -53t143.5 58l61 49l-211 261l-88 -76q-59 -51 -64 -118z" glyph-name="ampersand" horiz-adv-x="1345" unicode="&amp;"/><glyph d="M190 748l-114 690h332l-115 -690h-103z" glyph-name="quotesingle" horiz-adv-x="485" unicode="'"/><glyph d="M133 608q0 274 139.5 515t386.5 388l140 -168q-373 -301 -373 -733q0 -246 107.5 -444.5t265.5 -325.5l-140 -168q-248 158 -387 410t-139 526z" glyph-name="parenleft" horiz-adv-x="874" unicode="("/><glyph d="M449 610q0 432 -373 733l139 168q248 -147 387 -388t139 -515t-139 -526t-387 -410l-139 168q158 127 265.5 326t107.5 444z" glyph-name="parenright" horiz-adv-x="874" unicode=")"/><glyph d="M352 741l27 234l-193 -141l-92 159l217 97l-219 94l94 162l195 -142l-29 234h185l-29 -234l194 142l93 -162l-224 -97l224 -94l-95 -159l-192 141l29 -234h-185z" glyph-name="asterisk" horiz-adv-x="886" unicode="*"/><glyph d="M614 588v-314h-229v314h-313v229h313v313h229v-313h312v-229h-312z" glyph-name="plus" horiz-adv-x="997" unicode="+"/><glyph d="M84 -324l72 637h301l2 -37l-285 -622z" glyph-name="comma" horiz-adv-x="571" unicode=","/><glyph d="M655 393l-583 -90v240l583 90v-240z" glyph-name="hyphen" horiz-adv-x="727" unicode="-"/><glyph d="M113 150q0 72 51 123t122 51t122 -51t51 -123t-50.5 -121t-122.5 -49t-122.5 49t-50.5 121z" glyph-name="period" horiz-adv-x="571" unicode="."/><glyph d="M-45 -266l772 1798l203 -94l-772 -1798z" glyph-name="slash" horiz-adv-x="966" unicode="/"/><glyph d="M639 1362q256 0 417 -194.5t161 -497.5t-162 -501t-416 -198t-417 198t-163 501t162 497.5t418 194.5zM639 203q127 0 206 124t79 343t-79 341t-206 122t-209 -122t-82 -340t82 -343t209 -125z" glyph-name="zero" horiz-adv-x="1275" unicode="0"/><glyph d="M315 0v938l-147 -70l-109 238l484 242h43v-1348h-271z" glyph-name="one" horiz-adv-x="772" unicode="1"/><glyph d="M532 1360q166 0 311.5 -122t145.5 -345q2 -160 -85 -292t-320 -368h438v-233h-983l-19 41q63 61 163 156.5t152 146.5t138.5 140.5t163 195.5t76.5 210q0 105 -73 167.5t-158 62.5t-152.5 -35.5t-100.5 -80.5h-34l-127 165q59 80 178.5 135.5t285.5 55.5z" glyph-name="two" horiz-adv-x="1105" unicode="2"/><glyph d="M121 1333h856l18 -35l-346 -493q129 -2 246 -107.5t117 -279.5q0 -207 -145.5 -327t-363.5 -120t-293 29t-144 61l73 209l33 2q133 -78 262 -78t219 59.5t90 176.5t-121.5 180.5t-314.5 18.5l-31 45l304 426h-459v233z" glyph-name="three" horiz-adv-x="1093" unicode="3"/><glyph d="M991 410h180v-222h-180v-188h-276v188h-649l-56 66l887 1096l94 -21v-919zM715 410v360l-279 -360h279z" glyph-name="four" horiz-adv-x="1245" unicode="4"/><glyph d="M946 1333v-233h-508l-26 -269q59 18 154.5 20.5t197.5 -32.5t177 -132t77 -270t-137.5 -309.5t-402.5 -136.5t-412 95l71 206h35q109 -76 283 -75q117 0 202.5 63.5t85.5 176t-79.5 169t-205.5 56.5t-263 -99l-64 19l74 751h741z" glyph-name="five" horiz-adv-x="1101" unicode="5"/><glyph d="M572 -29q-222 0 -363 140.5t-143 380.5q0 184 58 336.5t148 247.5t249.5 187t371.5 97l53 -207l-24 -31q-193 -6 -345.5 -116.5t-189.5 -270.5q87 105 265 105t295.5 -119t117.5 -305t-135.5 -315.5t-357.5 -129.5zM572 197q93 0 157 62.5t64 155.5t-64.5 157.5 t-158.5 64.5t-158 -64.5t-64 -157.5t65.5 -155.5t158.5 -62.5z" glyph-name="six" horiz-adv-x="1132" unicode="6"/><glyph d="M70 1100v233h929l23 -37l-547 -1296h-311l485 1100h-579z" glyph-name="seven" horiz-adv-x="1048" unicode="7"/><glyph d="M573 -29q-231 0 -372.5 122t-141.5 308q0 117 70 212.5t160 121.5q-137 106 -137 261t116.5 259.5t304.5 104.5t305 -104.5t117 -258.5t-137 -260q90 -27 161 -123t71 -213q0 -186 -143 -308t-374 -122zM575.5 201q98.5 0 167 56t68.5 152.5t-70.5 151.5t-170.5 55 t-166 -55t-66 -151.5t69.5 -152.5t168 -56zM575.5 805q71.5 0 123 46t51.5 121t-53.5 119t-125.5 44t-122 -44t-50 -119t52.5 -121t124 -46z" glyph-name="eight" horiz-adv-x="1146" unicode="8"/><glyph d="M560 1360q222 0 362.5 -140.5t142.5 -379.5q0 -184 -58.5 -337t-147.5 -248t-249 -187.5t-370 -96.5l-54 207l23 31q195 6 347.5 116.5t186.5 270.5q-86 -104 -263 -104t-295.5 118t-118.5 304t136 316t358 130zM558 1135q-93 0 -156.5 -62.5t-63.5 -155.5t65.5 -158 t158.5 -65t157.5 64t64.5 158t-66.5 156.5t-159.5 62.5z" glyph-name="nine" horiz-adv-x="1132" unicode="9"/><glyph d="M113 150q0 72 51 123t122 51t122 -51t51 -123t-50.5 -121t-122.5 -49t-122.5 49t-50.5 121zM113 705q0 72 51 123t122 51t122 -51.5t51 -123.5t-50.5 -120.5t-122.5 -48.5t-122.5 49t-50.5 121z" glyph-name="colon" horiz-adv-x="571" unicode=":"/><glyph d="M80 -324l72 637h301l2 -37l-285 -622zM121 705q0 72 51 123t122 51t122 -51.5t51 -123.5t-50 -120.5t-123 -48.5t-123 49t-50 121z" glyph-name="semicolon" horiz-adv-x="579" unicode=";"/><glyph d="M987 203l-928 467v49l928 467v-273l-436 -217l436 -221v-272z" glyph-name="less" horiz-adv-x="1091" unicode="&lt;"/><glyph d="M940 399h-868v228h868v-228zM940 776h-868v230h868v-230z" glyph-name="equal" horiz-adv-x="1011" unicode="="/><glyph d="M1032 670l-928 -467v272l437 221l-437 217v273l928 -467v-49z" glyph-name="greater" horiz-adv-x="1091" unicode=">"/><glyph d="M508 958q0 148 -167 148q-83 0 -169 -80l-131 197q152 137 354 137q164 0 285 -90t121 -250t-78 -232.5t-156 -142t-78 -192.5h-215q-8 35 -8 94t38 127.5t121 138.5t83 145zM217 149.5q0 71.5 50 123t121 51.5t122 -52t51 -124t-50 -120t-122 -48t-122 49t-50 120.5z " glyph-name="question" horiz-adv-x="872" unicode="?"/><glyph d="M1346 403q82 0 140 80t58 230q0 233 -196.5 423.5t-479.5 190.5t-469 -203.5t-186 -490.5t187.5 -484.5t484.5 -197.5q256 0 473 119l53 -119q-227 -137 -526 -137q-367 0 -600.5 237.5t-233.5 581.5t233.5 587.5t579.5 243.5t589 -225t243 -526q0 -221 -106.5 -350.5 t-274.5 -129.5q-82 0 -158 39t-88 90q-86 -127 -251 -130t-266 112t-88 281t113.5 277.5t262.5 115.5q82 2 148.5 -36t94.5 -97l78 94h123l-78 -412q-12 -74 23 -119t117 -45zM716.5 486.5q40.5 -56.5 112.5 -55.5t118 59.5t54 142.5t-29.5 140t-109.5 53t-120 -53t-57 -140 t31.5 -146.5z" glyph-name="at" horiz-adv-x="1746" unicode="@"/><glyph d="M305 0h-307l682 1452h49l676 -1452h-305l-107 233h-581zM702 909l-194 -448h387z" glyph-name="A" horiz-adv-x="1402" unicode="A"/><glyph d="M446 1456q112 0 188.5 -11t148 -39t122.5 -71t82 -111.5t31 -158.5t-43 -164t-88 -106q94 -27 173 -125.5t79 -241.5q0 -78 -25 -129q-76 -319 -637 -319q-137 -1 -323 22v1423q180 31 292 31zM432 874h195q47 14 81.5 59.5t34.5 104.5q0 96 -62.5 137t-128.5 41t-120 -8 v-334zM432 662v-424q111 -6 113 -7q135 0 222 53.5t87 164.5q0 72 -49 135t-127 78h-246z" glyph-name="B" horiz-adv-x="1198" unicode="B"/><glyph d="M59 726q0 325 226.5 532.5t541.5 207.5t551 -215l-168 -200q-168 168 -376 168t-343 -144.5t-135 -351.5t133.5 -353.5t348.5 -146.5q113 0 213 45.5t168 108.5l163 -184q-213 -221 -571 -222q-319 0 -535.5 215t-216.5 540z" glyph-name="C" horiz-adv-x="1441" unicode="C"/><glyph d="M1354 713q0 -86 -22.5 -175t-101.5 -230.5t-336.5 -252t-739.5 -55.5v1430q358 61 617.5 -3.5t392.5 -211.5t161.5 -281.5t28.5 -220.5zM1059 721q0 242 -170 375t-457 100v-950q230 -21 371 58t198.5 180.5t57.5 236.5z" glyph-name="D" horiz-adv-x="1427" unicode="D"/><glyph d="M430 233h576v-233h-852v1438h829v-234h-553v-289h447v-233h-447v-449z" glyph-name="E" horiz-adv-x="1112" unicode="E"/><glyph d="M430 0h-276v1438h815v-234h-539v-289h430v-233h-430v-682z" glyph-name="F" horiz-adv-x="1062" unicode="F"/><glyph d="M832 1219q-202 0 -339 -142.5t-137 -359.5t137.5 -357.5t360.5 -140.5q84 0 175 31t140 72v163h-223v232h492v-500q-240 -246 -593 -246t-570.5 215t-217.5 536.5t224.5 532.5t542.5 211t552 -217q-92 -110 -172 -194q-170 164 -372 164z" glyph-name="G" horiz-adv-x="1531" unicode="G"/><glyph d="M936 0v682h-506v-682h-276v1438h276v-523h506v523h276v-1438h-276z" glyph-name="H" horiz-adv-x="1366" unicode="H"/><glyph d="M154 0v1438h276v-1438h-276z" glyph-name="I" horiz-adv-x="583" unicode="I"/><glyph d="M434 504v934h277v-942q0 -270 -162 -402.5t-453 -97.5v231q338 -24 338 277z" glyph-name="J" horiz-adv-x="882" unicode="J"/><glyph d="M154 0v1438h278v-594l492 594h319l-541 -668l594 -770h-352l-512 678v-678h-278z" glyph-name="K" horiz-adv-x="1314" unicode="K"/><glyph d="M975 233v-233h-821v1438h276v-1205h545z" glyph-name="L" horiz-adv-x="1034" unicode="L"/><glyph d="M428 0h-274v1442l41 10l596 -543l589 543l41 -10v-1442h-272v883l-348 -328h-25l-348 328v-883z" glyph-name="M" horiz-adv-x="1574" unicode="M"/><glyph d="M975 1438h272v-1438h-272v580l-553 372v-952h-268v1440l36 12l785 -545v531z" glyph-name="N" horiz-adv-x="1400" unicode="N"/><glyph d="M59 719q0 313 215 530t546 217t548 -217t217 -530t-217 -530.5t-548 -217.5t-546 217.5t-215 530.5zM356 719q0 -221 136.5 -358.5t327.5 -137.5t329.5 137.5t138.5 358.5t-138 360.5t-328.5 139.5t-328 -139.5t-137.5 -360.5z" glyph-name="O" horiz-adv-x="1642" unicode="O"/><glyph d="M1100 936q0 -252 -192.5 -401.5t-477.5 -143.5v-391h-276v1425q422 88 684 -57t262 -432zM815 930q0 131 -101.5 213t-283.5 55v-561q188 -12 286.5 75t98.5 218z" glyph-name="P" horiz-adv-x="1150" unicode="P"/><glyph d="M819 -29q-332 0 -547 216.5t-215 530.5t215 531t547 217t548 -217t216 -534t-227 -525l143 -159q-92 -80 -182 -170l-162 182q-156 -72 -336 -72zM354 717q0 -221 136.5 -358.5t328.5 -137.5q78 0 146 25q-61 66 -152 168l180 164l168 -183q125 125 125 334t-138 349.5 t-328.5 140.5t-328 -140.5t-137.5 -361.5z" glyph-name="Q" horiz-adv-x="1640" unicode="Q"/><glyph d="M1096 956q0 -121 -61.5 -236.5t-162.5 -178.5l388 -541h-338l-304 444q-90 -14 -188 -6v-438h-276v1425q444 86 693 -49t249 -420zM811 950q0 129 -99.5 202t-281.5 42v-508q176 -25 278.5 55t102.5 209z" glyph-name="R" horiz-adv-x="1255" unicode="R"/><glyph d="M601 1217q-111 0 -165.5 -42t-54.5 -107t54 -109t183 -109q227 -119 310.5 -231.5t79.5 -256.5q-4 -186 -138.5 -289.5t-347.5 -101.5q-147 2 -271 40t-188 89l107 222q188 -104 314 -104t185.5 41.5t59.5 99.5t-23.5 87t-39 44.5t-47 36t-50 31.5t-60.5 35.5t-63 37.5 q-178 104 -261 205.5t-83 247.5t121 264t335 118t386 -86l-76 -237q-156 74 -267 74z" glyph-name="S" horiz-adv-x="1083" unicode="S"/><glyph d="M1044 1438v-234h-358v-1204h-276v1204h-359v234h993z" glyph-name="T" horiz-adv-x="1095" unicode="T"/><glyph d="M131 506v932h277v-920q0 -129 79.5 -216t196.5 -87t198 87t81 216v920h278v-932q0 -225 -146.5 -380t-411.5 -155t-408.5 155t-143.5 380z" glyph-name="U" horiz-adv-x="1370" unicode="U"/><glyph d="M1063 1438h297l-660 -1452h-49l-651 1452h313l369 -856z" glyph-name="V" horiz-adv-x="1359" unicode="V"/><glyph d="M1688 1438h284l-596 -1452h-53l-346 876l-344 -876h-53l-580 1452h303l313 -803l342 817h50l348 -829z" glyph-name="W" horiz-adv-x="1972" unicode="W"/><glyph d="M334 0h-309l446 721l-446 717h321l283 -461l284 461h308l-439 -709l461 -729h-319l-299 479z" glyph-name="X" horiz-adv-x="1269" unicode="X"/><glyph d="M778 0h-278v649l-496 789h326l315 -496l316 496h313l-496 -789v-649z" glyph-name="Y" horiz-adv-x="1280" unicode="Y"/><glyph d="M1073 233v-233h-1014l-20 39l645 1165h-573v234h979l20 -39l-643 -1166h606z" glyph-name="Z" horiz-adv-x="1146" unicode="Z"/><glyph d="M446 -47h291v-221h-569v1706h569v-221l-291 -3v-1261z" glyph-name="bracketleft" horiz-adv-x="815" unicode="["/><glyph d="M233 1532l773 -1798l-201 -94l-774 1798z" glyph-name="backslash" horiz-adv-x="966" unicode="\"/><glyph d="M78 -47h291v1261l-291 3v221h569v-1706h-569v221z" glyph-name="bracketright" horiz-adv-x="815" unicode="]"/><glyph d="M49 981l393 457h27l395 -457l-159 -141l-250 295l-250 -295z" glyph-name="asciicircum" horiz-adv-x="911" unicode="^"/><glyph d="M1376 -385h-1376v197h1376v-197z" glyph-name="underscore" horiz-adv-x="1376" unicode="_"/><glyph d="M61 1260h316l129 -287h-205l-240 252v35z" glyph-name="grave" horiz-adv-x="567" unicode="`"/><glyph d="M375 -29q-135 0 -232.5 80t-97.5 206t93 207t233 81q88 0 161.5 -32t110.5 -69v35q0 80 -59.5 133.5t-161.5 53.5t-199 -50l-65 195q130 70 316 67t300.5 -115.5t116.5 -307.5l-2 -455h-146l-90 92q-84 -121 -278 -121zM303 266q0 -45 41.5 -75.5t105.5 -30.5t120.5 35 t72.5 88v12q-74 82 -205 80q-61 0 -98 -32t-37 -77z" glyph-name="a" horiz-adv-x="980" unicode="a"/><glyph d="M635 -27q-88 0 -168 37t-121 96l-100 -106h-144v1438l236 24h24v-702q33 53 110 87t159 34q176 0 299 -128t123 -326t-120 -326t-298 -128zM579 180q85 0 146 66.5t61 180.5t-63.5 179.5t-149.5 65.5t-146 -62.5t-62 -175.5v-8q0 -113 64.5 -179.5t149.5 -66.5z" glyph-name="b" horiz-adv-x="1101" unicode="b"/><glyph d="M549 182q100 0 196 92l134 -147q-137 -156 -349 -156t-346.5 134.5t-134.5 324.5t137.5 320.5t345.5 130.5t351 -170l-148 -154q-27 39 -81 76t-113 37q-96 0 -163 -66.5t-67 -178.5t69 -177.5t169 -65.5z" glyph-name="c" horiz-adv-x="913" unicode="c"/><glyph d="M465 -27q-178 0 -298 128t-120 326t123 326t299 128q82 0 157.5 -34t108.5 -87v678l238 24h24v-1462h-145l-100 106q-41 -59 -120 -96t-167 -37zM521 180q87 0 149.5 66.5t62.5 179.5v8q-2 113 -61.5 175.5t-145.5 62.5t-149.5 -65.5t-63.5 -179.5t60.5 -180.5 t147.5 -66.5z" glyph-name="d" horiz-adv-x="1099" unicode="d"/><glyph d="M584 176q118 0 239 74l95 -170q-132 -106 -360 -106t-369.5 129.5t-141.5 325.5t131 324t322 128t312.5 -141.5t113.5 -364.5h-623q8 -82 85.5 -140.5t195.5 -58.5zM494 680q-68 0 -118.5 -45t-58.5 -98h345q-6 61 -53 102t-115 41z" glyph-name="e" horiz-adv-x="978" unicode="e"/><glyph d="M430 852h201v-203h-201v-649h-262v649h-129v25l24 178h105v260q0 104 36 181t90 115t148.5 61.5t204.5 -11.5l-31 -211q-70 16 -129 -27t-57 -139v-229z" glyph-name="f" horiz-adv-x="681" unicode="f"/><glyph d="M492 -541q-222 0 -357 85t-135 229q0 98 62.5 162.5t144.5 76.5q-39 6 -72 43t-31 92t44 91t106 32q-82 49 -122 124t-40 153q0 127 97.5 230.5t287.5 103.5q84 0 166 -31t127 -72l176 74h41v-223h-139q12 -16 12 -62q0 -145 -100.5 -243.5t-294.5 -104.5 q-96 0 -96 -57.5t125 -61.5q264 -16 381.5 -99t117.5 -229t-139.5 -229.5t-361.5 -83.5zM496 -338q236 0 235 115q0 55 -92 88t-180 33t-145.5 -32t-57.5 -89.5t68 -86t172 -28.5zM477.5 406q61.5 0 102.5 41t41 99t-41 98t-105 40t-103.5 -40t-39.5 -98t42 -99t103.5 -41z " glyph-name="g" horiz-adv-x="1017" unicode="g"/><glyph d="M362 1462v-688q98 106 249 106t250.5 -97t99.5 -255v-528h-265v492q0 66 -46 121t-120 55q-168 0 -168 -258v-410h-260v1438l236 24h24z" glyph-name="h" horiz-adv-x="1046" unicode="h"/><glyph d="M113 0v852h260v-852h-260zM70 1205q0 71 51 123t120.5 52t122 -51t52.5 -122.5t-52 -121t-122 -49.5t-121 49t-51 120z" glyph-name="i" horiz-adv-x="483" unicode="i"/><glyph d="M117 -129v981h260v-1012q0 -104 -36 -180t-90 -112.5t-147.5 -61t-205.5 7.5l30 211q72 -16 130.5 29t58.5 137zM72 1205q0 73 52 124t121.5 51t122 -51t52.5 -124t-51.5 -122t-123 -49t-122.5 49t-51 122z" glyph-name="j" horiz-adv-x="487" unicode="j"/><glyph d="M362 1462v-923l300 313h309l-369 -391l399 -461h-327l-312 365v-365h-260v1438l238 24h22z" glyph-name="k" horiz-adv-x="1013" unicode="k"/><glyph d="M362 1462v-1462h-260v1438l238 24h22z" glyph-name="l" horiz-adv-x="464" unicode="l"/><glyph d="M557 881q188 0 270 -152q90 152 267 152q150 0 229.5 -92.5t79.5 -243.5v-545h-262v508q0 74 -35 114t-90 40t-91 -40t-42 -108v-514h-262v504q0 74 -34 116t-91 42t-95.5 -46.5t-38.5 -119.5v-496h-260v852h144l102 -82q29 45 84 78t125 33z" glyph-name="m" horiz-adv-x="1490" unicode="m"/><glyph d="M608 881q160 0 256.5 -96.5t96.5 -256.5v-528h-263v492q0 76 -46 126t-118 50t-122 -49.5t-50 -124.5v-494h-260v852h144l102 -86q100 115 260 115z" glyph-name="n" horiz-adv-x="1046" unicode="n"/><glyph d="M524 -29q-197 0 -336 129t-139 328t140.5 326t337 127t335.5 -127t139 -327t-140 -328t-337 -128zM523 180q87 0 149.5 67.5t62.5 181.5t-63.5 179.5t-150.5 65.5t-148.5 -65.5t-61.5 -179.5t62.5 -181.5t149.5 -67.5z" glyph-name="o" horiz-adv-x="1050" unicode="o"/><glyph d="M633 881q178 0 298 -129t120 -327t-123 -325t-299 -127q-82 0 -158 33t-109 86v-571l-237 -27h-23v1358h144l100 -115q39 63 119 103.5t168 40.5zM576 672q-87 0 -149 -64.5t-62 -181.5v-8q2 -106 62 -172t145 -66t148.5 65.5t63.5 179.5t-60.5 180.5t-147.5 66.5z" glyph-name="p" horiz-adv-x="1099" unicode="p"/><glyph d="M465 881q88 0 168 -40t119 -104l100 115h145v-1331l-235 -27h-27v598q-31 -53 -106.5 -86t-159.5 -33q-176 0 -299 127t-123 325t120 327t298 129zM521 672q-87 0 -147.5 -66.5t-60.5 -180.5t63.5 -179.5t149.5 -65.5t145.5 62.5t61.5 175.5v8q0 113 -62.5 179.5 t-149.5 66.5z" glyph-name="q" horiz-adv-x="1099" unicode="q"/><glyph d="M102 0v852h144l100 -86q23 47 73.5 80t114.5 33t115 -35q-16 -93 -27.5 -150t-15.5 -84l-12 -4q-46 23 -114 23t-118 -68v-561h-260z" glyph-name="r" horiz-adv-x="677" unicode="r"/><glyph d="M313 596q0 -37 142 -59q336 -39 336 -287q0 -135 -110 -207t-288 -72t-332 80l82 201q131 -70 267 -70q55 0 99 15.5t44 46.5t-32.5 44t-72.5 20t-47 7q-326 51 -325 281q0 135 107 209.5t263 74.5t312 -63l-72 -207q-137 57 -252 58q-51 0 -86 -17.5t-35 -54.5z" glyph-name="s" horiz-adv-x="851" unicode="s"/><glyph d="M627 647h-201v-334q0 -59 34 -86.5t75 -27.5t75 10q29 -168 35 -209q-66 -16 -139 -16q-340 0 -340 342v321h-135v27l24 178h111v285l237 28h23v-313h201v-205z" glyph-name="t" horiz-adv-x="708" unicode="t"/><glyph d="M446 -29q-161 0 -257.5 96.5t-96.5 256.5v528h262v-492q0 -76 46 -126t118 -50t122 49.5t50 124.5v494h260v-852h-159l-86 88q-98 -117 -259 -117z" glyph-name="u" horiz-adv-x="1052" unicode="u"/><glyph d="M729 852h266l-477 -866h-47l-473 866h283l221 -410z" glyph-name="v" horiz-adv-x="993" unicode="v"/><glyph d="M1143 852h258l-422 -866h-47l-236 463l-235 -463h-47l-416 866h274l185 -387l223 403h49l223 -403z" glyph-name="w" horiz-adv-x="1396" unicode="w"/><glyph d="M993 852l-338 -428l338 -424h-305l-184 229l-182 -229h-306l336 424l-338 428h305l187 -236l190 236h297z" glyph-name="x" horiz-adv-x="1009" unicode="x"/><glyph d="M729 852h270l-639 -1364h-249l-23 20l287 594l-371 750h291l217 -455z" glyph-name="y" horiz-adv-x="1011" unicode="y"/><glyph d="M862 207v-207h-790l-21 45l447 604h-408l-2 203h784l15 -47l-416 -598h391z" glyph-name="z" horiz-adv-x="937" unicode="z"/><glyph d="M588 877q0 -111 -55.5 -191t-135.5 -104q80 -25 136.5 -116t56.5 -214v-133q10 -168 160 -168q29 0 65 6q10 -61 41 -225q-88 -23 -174 -23q-184 0 -277.5 109.5t-93.5 275.5v146q0 173 -62.5 205t-125.5 32h-51v211h49q128 0 158 71.5t30 166.5v147q0 168 93.5 277.5 t275.5 109.5q80 0 176 -24q-31 -164 -41 -226q-33 6 -63 7q-162 0 -162 -191v-149z" glyph-name="braceleft" horiz-adv-x="948" unicode="{"/><glyph d="M174 -268v1732h246v-1732h-246z" glyph-name="bar" horiz-adv-x="593" unicode="|"/><glyph d="M360 877v149q0 190 -161 191q-31 0 -64 -7q-10 61 -41 226q96 25 176 24q182 0 275.5 -109.5t93.5 -277.5v-147q0 -176 62.5 -207t125.5 -31h50v-211h-52q-125 0 -156.5 -70.5t-31.5 -166.5v-146q0 -166 -93 -275.5t-278 -109.5q-86 0 -174 23q31 164 41 225q37 -6 66 -6 q150 0 159 168v133q0 123 56.5 214t136.5 116q-80 25 -135.5 104.5t-55.5 190.5z" glyph-name="braceright" horiz-adv-x="948" unicode="}"/><glyph d="M311 668q61 0 178 -36t162 -36q92 0 135 57l97 -4q29 -150 -50 -226.5t-180 -76.5q-63 0 -178 36t-158 36q-104 -1 -143 -56l-94 5q-25 164 51 232.5t180 68.5z" glyph-name="asciitilde" horiz-adv-x="964" unicode="~"/><glyph d="M401 422l123 -879h-387l121 879h143zM502 727q0 -72 -51 -123t-121 -51t-121 51t-51 123t50 121t122 49t122 -49t50 -121z" glyph-name="exclamdown" horiz-adv-x="659" unicode="¡"/><glyph d="M549 457q100 0 196 92l134 -148q-115 -129 -287 -151v-250h-217v266q-145 43 -235.5 164.5t-90.5 273.5t91 269t235 160v262h217v-246q174 -25 291 -164l-148 -154q-27 39 -81 76t-113 37q-96 0 -163 -66.5t-67 -178.5t69 -177t169 -65z" glyph-name="cent" horiz-adv-x="913" unicode="¢"/><glyph d="M797 438h-199q12 -84 -27 -159q86 -70 199 -70q150 0 236 110l143 -178q-121 -170 -385 -170q-213 0 -315 107q-72 -72 -144 -77t-92 -7t-47 -1t-39 2t-32.5 3t-22.5 2l-2 211q160 -8 223 66.5t31 160.5h-195v230h150q-6 12 -36 58t-58.5 100t-28.5 139 q0 176 123.5 285.5t312.5 109.5q147 0 266 -63.5t178 -196.5l-211 -113q-27 68 -84 105.5t-130 37.5t-129 -48t-56 -114t22.5 -113.5t59.5 -100t51 -86.5h238v-230z" glyph-name="sterling" horiz-adv-x="1169" unicode="£"/><glyph d="M672 205q-154 0 -273 74l-147 -146q-146 164 -158 176l139 133q-79 117 -79 273t79 280l-139 131l160 177l145 -144q123 76 275 76t272 -76l139 144l162 -177q-92 -83 -137 -131q78 -117 78 -277t-78 -276q90 -90 137 -133q-43 -43 -162 -176q-137 143 -139 146 q-120 -74 -274 -74zM391 718q0 -116 80 -204t201 -88t200.5 88t79.5 204t-80.5 205t-200.5 89t-200 -89t-80 -205z" glyph-name="currency" horiz-adv-x="1341" unicode="¤"/><glyph d="M1149 621h-356v-129h356v-213h-356v-279h-279v279h-356v213h356v129h-356v213h221l-359 499h320l324 -438l323 438h303l-360 -499h219v-213z" glyph-name="yen" horiz-adv-x="1310" unicode="¥"/><glyph d="M174 750v714h246v-714h-246zM174 -268v714h246v-714h-246z" glyph-name="brokenbar" horiz-adv-x="593" unicode="¦"/><glyph d="M358 1022q0 -43 41 -78t107 -55q236 -61 339 -153.5t103 -231.5q0 -70 -39 -132.5t-102 -101.5q51 -35 83 -96t32 -133q0 -166 -126 -252t-313 -86q-121 0 -241.5 29.5t-171.5 64.5l75 219q156 -78 334 -77q70 0 116 27.5t46 74.5q0 84 -162 131q-203 55 -309.5 136 t-106.5 224q0 74 40 143.5t108 104.5q-49 37 -83 97.5t-34 128.5q0 170 122 262t286 92q221 0 379 -82l-74 -223q-164 76 -299 75q-68 0 -109 -32.5t-41 -75.5zM342 541q0 -92 182 -135q59 -8 101.5 24.5t42.5 85.5q0 90 -193 143q-49 6 -91 -26.5t-42 -91.5z" glyph-name="section" horiz-adv-x="1009" unicode="§"/><glyph d="M61 1121q0 54 37 92t90 38t91 -37.5t38 -91.5t-37.5 -90.5t-91.5 -36.5t-90.5 36t-36.5 90zM393 1121q0 54 37 92t90 38t91 -37.5t38 -91.5t-38 -90.5t-91 -36.5t-90 36t-37 90z" glyph-name="dieresis" horiz-adv-x="710" unicode="¨"/><glyph d="M830 932q-87 0 -144 -59.5t-57 -155.5t62.5 -153.5t152.5 -57.5t168 82q55 -49 108 -103q-53 -76 -141 -110.5t-164 -34.5q-170 0 -278.5 112.5t-108.5 269.5t106.5 267.5t270.5 110.5q92 0 177 -43.5t130 -104.5l-113 -114q-82 94 -169 94zM51 718q0 308 213 524 t523 216t524.5 -216t214.5 -524t-214 -523t-524 -215t-523.5 215t-213.5 523zM203 717q0 -256 170 -433.5t417.5 -177.5t419.5 177.5t172 433.5t-171 432t-419 176t-418.5 -176t-170.5 -432z" glyph-name="copyright" horiz-adv-x="1576" unicode="©"/><glyph d="M308 891q-93 0 -169 64.5t-76 165t71.5 164t187.5 63.5t204 -70v37q0 57 -46 101t-110 44t-151 -39l-65 133q106 64 240 62t224.5 -83t92.5 -233l-2 -393h-99l-75 76q-18 -31 -76 -61.5t-151 -30.5zM353 1206q-38 0 -72.5 -21.5t-34.5 -60.5t36.5 -60.5t84.5 -21.5 q102 0 159 76v45q-6 2 -29.5 13.5t-37 15.5t-41 9t-65.5 5z" glyph-name="ordfeminine" horiz-adv-x="792" unicode="ª"/><glyph d="M467 -31l-412 447v43l416 459l174 -130l-303 -346l303 -340zM958 -31l-411 447v43l416 459l174 -130l-303 -346l303 -340z" glyph-name="guillemotleft" horiz-adv-x="1208" unicode="«"/><glyph d="M694 225v166h-622v230l854 2q0 -2 2 -2l-2 -396h-232z" glyph-name="logicalnot" horiz-adv-x="999" unicode="¬"/><glyph d="M721 362h-182v709q115 29 200 29q166 0 260.5 -80t94.5 -195t-105 -192l150 -271h-203l-105 211q-31 -6 -71 -6l-39 2v-207zM782 717q48 0 85.5 30.5t37.5 78.5t-37.5 76t-77.5 28t-69 -6v-205q13 -2 61 -2zM51 718q0 308 213 524t523 216t524.5 -216t214.5 -524 t-214 -523t-524 -215t-523.5 215t-213.5 523zM203 717q0 -256 170 -433.5t417.5 -177.5t419.5 177.5t172 433.5t-171 432t-419 176t-418.5 -176t-170.5 -432z" glyph-name="registered" horiz-adv-x="1576" unicode="®"/><glyph d="M657 1030h-596v182h596v-182z" glyph-name="macron" horiz-adv-x="718" unicode="¯"/><glyph d="M51 1108q0 154 106.5 256t248.5 102t250 -102t108 -256t-103 -254t-255 -100t-253.5 100t-101.5 254zM250 1108q0 -70 44 -119t113 -49t113.5 49t44.5 119t-45.5 119t-113.5 49t-112 -49t-44 -119z" glyph-name="degree" horiz-adv-x="815" unicode="°"/><glyph d="M385 950v201h229v-201h314v-215h-314v-186h-229v186h-313v215h313zM924 233h-852v211h852v-211z" glyph-name="plusminus" horiz-adv-x="999" unicode="±"/><glyph d="M635 1014v-152h-596l-16 35q258 215 329.5 301t71.5 141t-36 84t-83 29t-88 -22.5t-61 -53.5h-25l-84 111q41 57 120 94t161 37q117 -4 197.5 -73.5t80.5 -202.5t-42 -175l-154 -153h225z" glyph-name="uni00B2" horiz-adv-x="710" unicode="²"/><glyph d="M78 1599h538l17 -34l-182 -244q57 -2 122.5 -65.5t65.5 -162.5t-93 -175t-241 -76t-270 84l57 127h27q20 -18 78.5 -37t109.5 -19t100.5 31t49.5 87t-64.5 92t-175.5 7l-29 29l170 213h-280v143z" glyph-name="uni00B3" horiz-adv-x="704" unicode="³"/><glyph d="M506 1260v-35l-240 -252h-205l129 287h316z" glyph-name="acute" horiz-adv-x="567" unicode="´"/><glyph d="M465 -31q-80 0 -98 41v-491l-238 -47h-25l-2 1380h263v-492q0 -76 43.5 -126t115.5 -50t123 49.5t51 124.5v494h260v-852h-159l-86 88q-20 -41 -94 -80t-154 -39z" glyph-name="uni00B5" horiz-adv-x="1060" unicode="µ"/><glyph d="M764 -268v1470h-74l-2 -1470h-215v858q-182 29 -302 140.5t-120 292.5t132 297t333 116h592v-234h-127v-1470h-217z" glyph-name="paragraph" horiz-adv-x="1173" unicode="¶"/><glyph d="M113 563q0 72 51 123t122 51t122 -51t51 -123t-50.5 -121t-122.5 -49t-122.5 49t-50.5 121z" glyph-name="periodcentered" horiz-adv-x="571" unicode="·"/><glyph d="M455 -170q0 -115 -92.5 -176.5t-219.5 -61.5q-29 0 -82 9q0 135 2 204q25 -6 64 -6t77 27t38 67t-10.5 56t-13.5 18t-14.5 14.5t-23.5 18.5v25l60 26q90 -16 152.5 -78.5t62.5 -142.5z" glyph-name="cedilla" horiz-adv-x="518" unicode="¸"/><glyph d="M217 862v531l-106 -43l-50 131l297 137h33v-756h-174z" glyph-name="uni00B9" horiz-adv-x="546" unicode="¹"/><glyph d="M391.5 889q-149.5 0 -245 104.5t-95.5 258.5t95.5 260t245.5 106t246.5 -105.5t96.5 -259.5t-97 -259t-246.5 -105zM393 1044q74 0 117 63.5t43 146.5t-43 146.5t-119 63.5t-118 -63.5t-42 -146.5t44 -146.5t118 -63.5z" glyph-name="ordmasculine" horiz-adv-x="786" unicode="º"/><glyph d="M250 918l412 -447v-43l-416 -459l-174 129l303 346l-303 340zM741 918l412 -447v-43l-416 -459l-174 129l303 346l-303 340z" glyph-name="guillemotright" horiz-adv-x="1208" unicode="»"/><glyph d="M193 57l1060 1368l119 -94l-1059 -1360zM231 657v531l-106 -43l-49 131l297 137h33v-756h-175zM1458 248v-144h-98v-104h-172v104h-393l-41 64l534 596l70 -27l2 -489h98zM1188 248v184l-162 -184h162z" glyph-name="onequarter" horiz-adv-x="1542" unicode="¼"/><glyph d="M188 57l1061 1368l119 -94l-1059 -1360zM231 657v531l-106 -43l-49 131l297 137h33v-756h-175zM1583 152v-152h-596l-16 35q258 215 329.5 301t71.5 141t-36 84t-83 29t-88 -22.5t-61 -53.5h-25l-84 111q41 57 120 94t161 37q117 -4 197.5 -74t80.5 -192t-73 -205 t-79 -89l-44 -44h225z" glyph-name="onehalf" horiz-adv-x="1671" unicode="½"/><glyph d="M307 57l1061 1368l119 -94l-1059 -1360zM1567 248v-144h-99v-104h-172v104h-393l-41 64l535 596l69 -27l2 -489h99zM1296 248v184l-161 -184h161zM90 1395h539l16 -35l-182 -244q57 -2 122.5 -65.5t65.5 -162.5t-92.5 -175t-240.5 -76t-271 84l57 127h27 q20 -18 78.5 -36.5t109.5 -18.5t100.5 30.5t49.5 86.5t-64.5 92t-175.5 8l-28 28l170 213h-281v144z" glyph-name="threequarters" horiz-adv-x="1656" unicode="¾"/><glyph d="M293 -82q1 -147 167 -147q82 0 169 79l131 -196q-152 -137 -354 -137q-164 0 -285 90t-121 250t78 232.5t155.5 141.5t77.5 193h215q28 -121 -19.5 -206t-130.5 -155.5t-83 -144.5zM584 727q0 -72 -51 -123t-121 -51t-121 51t-51 124t50 121t122 48t122 -49t50 -121z" glyph-name="questiondown" horiz-adv-x="759" unicode="¿"/><glyph d="M305 0h-307l682 1452h49l676 -1452h-305l-107 233h-581zM702 909l-194 -448h387zM356 1831h316l129 -287h-205l-240 252v35z" glyph-name="Agrave" horiz-adv-x="1402" unicode="À"/><glyph d="M305 0h-307l682 1452h49l676 -1452h-305l-107 233h-581zM702 909l-194 -448h387zM1040 1831v-35l-239 -252h-205l129 287h315z" glyph-name="Aacute" horiz-adv-x="1402" unicode="Á"/><glyph d="M305 0h-307l682 1452h49l676 -1452h-305l-107 233h-581zM702 909l-194 -448h387zM403 1544l172 287h252l172 -287h-192l-107 109l-106 -109h-191z" glyph-name="Acircumflex" horiz-adv-x="1402" unicode="Â"/><glyph d="M305 0h-307l682 1452h49l676 -1452h-305l-107 233h-581zM702 909l-194 -448h387zM568 1819q68 0 140 -27t101 -27q61 0 86 50l100 -25q10 -113 -43.5 -168t-117.5 -55t-140 27.5t-106 27.5q-54 0 -72 -49l-102 24q-14 119 36 170.5t118 51.5z" glyph-name="Atilde" horiz-adv-x="1402" unicode="Ã"/><glyph d="M305 0h-307l682 1452h49l676 -1452h-305l-107 233h-581zM702 909l-194 -448h387zM393 1693q0 54 37 92t90 38t91 -38t38 -92t-38 -90t-91 -36t-90 36t-37 90zM725 1693q0 54 37 92t90 38t91 -38t38 -92t-38 -90t-91 -36t-90 36t-37 90z" glyph-name="Adieresis" horiz-adv-x="1402" unicode="Ä"/><glyph d="M440 1592q0 93 77 169t187 76t186.5 -74.5t76.5 -168.5t-46.5 -161t-119.5 -96l604 -1337h-305l-107 233h-581l-107 -233h-307l608 1337q-74 29 -120 95.5t-46 159.5zM702 909l-194 -448h387zM588 1581q0 -47 33.5 -83t81.5 -36t82 35t34 84t-33.5 83t-81.5 34t-82 -35 t-34 -82z" glyph-name="Aring" horiz-adv-x="1402" unicode="Å"/><glyph d="M1276 233h575v-233h-852v231h-542l-162 -231h-346l1020 1438h862v-234h-555v-284h446v-236h-446v-451zM999 467v567l-385 -567h385z" glyph-name="AE" horiz-adv-x="1959" unicode="Æ"/><glyph d="M657 -408q-29 0 -82 9q0 135 3 204q26 -6 64 -6t76 27t38 74t-33 75q-289 31 -476.5 240t-187.5 523t226.5 521t541.5 207t551 -215l-168 -200q-168 168 -376 168t-343 -144.5t-135 -351.5t133.5 -353.5t348.5 -146.5q113 0 213 45.5t168 108.5l163 -184 q-184 -193 -477 -218q63 -68 64 -145q0 -115 -91.5 -176.5t-220.5 -61.5z" glyph-name="Ccedilla" horiz-adv-x="1441" unicode="Ç"/><glyph d="M430 233h576v-233h-852v1438h829v-234h-553v-289h447v-233h-447v-449zM305 1831h316l129 -287h-205l-240 252v35z" glyph-name="Egrave" horiz-adv-x="1112" unicode="È"/><glyph d="M430 233h576v-233h-852v1438h829v-234h-553v-289h447v-233h-447v-449zM850 1831v-35l-240 -252h-204l129 287h315z" glyph-name="Eacute" horiz-adv-x="1112" unicode="É"/><glyph d="M430 233h576v-233h-852v1438h829v-234h-553v-289h447v-233h-447v-449zM289 1544l172 287h252l172 -287h-193q-46 46 -106 109l-107 -109h-190z" glyph-name="Ecircumflex" horiz-adv-x="1112" unicode="Ê"/><glyph d="M430 233h576v-233h-852v1438h829v-234h-553v-289h447v-233h-447v-449zM285 1693q0 54 36.5 92t90.5 38t91.5 -38t37.5 -92t-38 -90t-91 -36t-90 36t-37 90zM616 1693q0 54 37 92t90 38t91 -38t38 -92t-37 -90t-91 -36t-91 36t-37 90z" glyph-name="Edieresis" horiz-adv-x="1112" unicode="Ë"/><glyph d="M154 0v1438h276v-1438h-276zM-14 1831h315l129 -287h-205l-239 252v35z" glyph-name="Igrave" horiz-adv-x="583" unicode="Ì"/><glyph d="M154 0v1438h276v-1438h-276zM598 1831v-35l-240 -252h-204l129 287h315z" glyph-name="Iacute" horiz-adv-x="583" unicode="Í"/><glyph d="M154 0v1438h276v-1438h-276zM-6 1544l172 287h252l172 -287h-193q-46 46 -106 109l-107 -109h-190z" glyph-name="Icircumflex" horiz-adv-x="583" unicode="Î"/><glyph d="M154 0v1438h276v-1438h-276zM-2 1693q0 54 37 92t90 38t91 -38t38 -92t-38 -90t-91 -36t-90 36t-37 90zM330 1693q0 54 36 92t90 38t92 -38t38 -92t-38 -90t-91 -36t-90 36t-37 90z" glyph-name="Idieresis" horiz-adv-x="583" unicode="Ï"/><glyph d="M205 598h-185v229h185v603q358 61 617.5 -3.5t392.5 -211.5t161.5 -281.5t28.5 -220.5t-22.5 -175t-102 -230t-336 -252t-739.5 -56v598zM483 827h348v-229h-348v-352q230 -21 371 58t198.5 180.5t57.5 236.5q0 242 -170 374t-457 99v-367z" glyph-name="Eth" horiz-adv-x="1478" unicode="Ð"/><glyph d="M975 1438h272v-1438h-272v580l-553 372v-952h-268v1440l36 12l785 -545v531zM552 1819q68 0 141 -27t102 -27q61 0 86 50l100 -25q10 -113 -44 -168t-134 -55q-45 0 -121 27.5t-106 27.5q-55 0 -74 -49l-103 24q-14 119 35.5 170.5t117.5 51.5z" glyph-name="Ntilde" horiz-adv-x="1400" unicode="Ñ"/><glyph d="M59 719q0 313 215 530t546 217t548 -217t217 -530t-217 -530.5t-548 -217.5t-546 217.5t-215 530.5zM356 719q0 -221 136.5 -358.5t327.5 -137.5t329.5 137.5t138.5 358.5t-138 360.5t-328.5 139.5t-328 -139.5t-137.5 -360.5zM496 1831h315l129 -287h-205l-239 252v35z " glyph-name="Ograve" horiz-adv-x="1642" unicode="Ò"/><glyph d="M59 719q0 313 215 530t546 217t548 -217t217 -530t-217 -530.5t-548 -217.5t-546 217.5t-215 530.5zM356 719q0 -221 136.5 -358.5t327.5 -137.5t329.5 137.5t138.5 358.5t-138 360.5t-328.5 139.5t-328 -139.5t-137.5 -360.5zM1124 1831v-35l-239 -252h-205l129 287h315 z" glyph-name="Oacute" horiz-adv-x="1642" unicode="Ó"/><glyph d="M59 719q0 313 215 530t546 217t548 -217t217 -530t-217 -530.5t-548 -217.5t-546 217.5t-215 530.5zM356 719q0 -221 136.5 -358.5t327.5 -137.5t329.5 137.5t138.5 358.5t-138 360.5t-328.5 139.5t-328 -139.5t-137.5 -360.5zM522 1544l172 287h252l172 -287h-192 l-107 109l-106 -109h-191z" glyph-name="Ocircumflex" horiz-adv-x="1642" unicode="Ô"/><glyph d="M59 719q0 313 215 530t546 217t548 -217t217 -530t-217 -530.5t-548 -217.5t-546 217.5t-215 530.5zM356 719q0 -221 136.5 -358.5t327.5 -137.5t329.5 137.5t138.5 358.5t-138 360.5t-328.5 139.5t-328 -139.5t-137.5 -360.5zM684 1819q68 0 140.5 -27t101.5 -27 q61 0 86 50l100 -25q10 -113 -44 -168t-134 -55q-45 0 -121.5 27.5t-106.5 27.5q-55 0 -73 -49l-103 24q-14 119 36 170.5t118 51.5z" glyph-name="Otilde" horiz-adv-x="1642" unicode="Õ"/><glyph d="M59 719q0 313 215 530t546 217t548 -217t217 -530t-217 -530.5t-548 -217.5t-546 217.5t-215 530.5zM356 719q0 -221 136.5 -358.5t327.5 -137.5t329.5 137.5t138.5 358.5t-138 360.5t-328.5 139.5t-328 -139.5t-137.5 -360.5zM518 1693q0 54 37 92t90 38t91 -38t38 -92 t-38 -90t-91 -36t-90 36t-37 90zM850 1693q0 54 37 92t90 38t91 -38t38 -92t-38 -90t-91 -36t-90 36t-37 90z" glyph-name="Odieresis" horiz-adv-x="1642" unicode="Ö"/><glyph d="M375 682l-262 260l157 160l258 -262l254 262l150 -148l-104 -104q-105 -105 -152 -156l262 -258l-158 -160l-260 261l-252 -261l-147 150z" glyph-name="multiply" horiz-adv-x="1052" unicode="×"/><glyph d="M59 719q0 313 215 530t547 217q143 0 281 -49l106 193l178 -99l-104 -188q143 -104 223 -262t80 -342q0 -313 -217 -530.5t-547 -217.5q-133 0 -266 43l-129 -235l-174 98l125 225q-150 102 -234 264.5t-84 352.5zM356 712q0 -228 154 -368l467 846q-76 29 -156 29 q-190 0 -327.5 -139.5t-137.5 -367.5zM1288 717q0 219 -141 364l-463 -837q61 -20 137 -21q190 0 328.5 137.5t138.5 356.5z" glyph-name="Oslash" horiz-adv-x="1642" unicode="Ø"/><glyph d="M131 506v932h277v-920q0 -129 79.5 -216t196.5 -87t198 87t81 216v920h278v-932q0 -225 -146.5 -380t-411.5 -155t-408.5 155t-143.5 380zM358 1831h316l129 -287h-205l-240 252v35z" glyph-name="Ugrave" horiz-adv-x="1370" unicode="Ù"/><glyph d="M131 506v932h277v-920q0 -129 79.5 -216t196.5 -87t198 87t81 216v920h278v-932q0 -225 -146.5 -380t-411.5 -155t-408.5 155t-143.5 380zM985 1831v-35l-240 -252h-204l129 287h315z" glyph-name="Uacute" horiz-adv-x="1370" unicode="Ú"/><glyph d="M131 506v932h277v-920q0 -129 79.5 -216t196.5 -87t198 87t81 216v920h278v-932q0 -225 -146.5 -380t-411.5 -155t-408.5 155t-143.5 380zM385 1544l172 287h252l172 -287h-193q-46 46 -106 109l-107 -109h-190z" glyph-name="Ucircumflex" horiz-adv-x="1370" unicode="Û"/><glyph d="M131 506v932h277v-920q0 -129 79.5 -216t196.5 -87t198 87t81 216v920h278v-932q0 -225 -146.5 -380t-411.5 -155t-408.5 155t-143.5 380zM375 1693q0 54 37 92t90 38t91 -38t38 -92t-38 -90t-91 -36t-90 36t-37 90zM707 1693q0 54 36.5 92t90.5 38t91.5 -38t37.5 -92 t-38 -90t-91 -36t-90 36t-37 90z" glyph-name="Udieresis" horiz-adv-x="1370" unicode="Ü"/><glyph d="M778 0h-278v649l-496 789h326l315 -496l316 496h313l-496 -789v-649zM950 1831v-35l-239 -252h-205l129 287h315z" glyph-name="Yacute" horiz-adv-x="1280" unicode="Ý"/><glyph d="M154 0v1438h276v-195h41q291 0 460 -139t169 -383t-172 -390.5t-461 -146.5h-37v-184h-276zM483 428q164 0 253 83t89 209t-86 200.5t-247 74.5q-42 0 -62 -2v-563q18 -2 53 -2z" glyph-name="Thorn" horiz-adv-x="1150" unicode="Þ"/><glyph d="M739 428q0 106 -75.5 172t-178.5 45q-25 29 -34 43q35 76 180 408q-2 61 -39 100t-99 39t-96.5 -47t-34.5 -111v-1077h-260v1075q0 174 106 288t288 114t290.5 -115t118.5 -246q-51 -111 -149 -332q78 -8 165 -114.5t87 -247.5q0 -229 -163 -347t-394 -75q12 70 32 213 q104 -10 180 49.5t76 165.5z" glyph-name="germandbls" horiz-adv-x="1056" unicode="ß"/><glyph d="M375 -29q-135 0 -232.5 80t-97.5 206t93 207t233 81q88 0 161.5 -32t110.5 -69v35q0 80 -59.5 133.5t-161.5 53.5t-199 -50l-65 195q130 70 316 67t300.5 -115.5t116.5 -307.5l-2 -455h-146l-90 92q-84 -121 -278 -121zM303 266q0 -45 41.5 -75.5t105.5 -30.5t120.5 35 t72.5 88v12q-74 82 -205 80q-61 0 -98 -32t-37 -77zM172 1260h315l129 -287h-204l-240 252v35z" glyph-name="agrave" horiz-adv-x="980" unicode="à"/><glyph d="M375 -29q-135 0 -232.5 80t-97.5 206t93 207t233 81q88 0 161.5 -32t110.5 -69v35q0 80 -59.5 133.5t-161.5 53.5t-199 -50l-65 195q130 70 316 67t300.5 -115.5t116.5 -307.5l-2 -455h-146l-90 92q-84 -121 -278 -121zM303 266q0 -45 41.5 -75.5t105.5 -30.5t120.5 35 t72.5 88v12q-74 82 -205 80q-61 0 -98 -32t-37 -77zM778 1260v-35l-239 -252h-205l129 287h315z" glyph-name="aacute" horiz-adv-x="980" unicode="á"/><glyph d="M375 -29q-135 0 -232.5 80t-97.5 206t93 207t233 81q88 0 161.5 -32t110.5 -69v35q0 80 -59.5 133.5t-161.5 53.5t-199 -50l-65 195q130 70 316 67t300.5 -115.5t116.5 -307.5l-2 -455h-146l-90 92q-84 -121 -278 -121zM303 266q0 -45 41.5 -75.5t105.5 -30.5t120.5 35 t72.5 88v12q-74 82 -205 80q-61 0 -98 -32t-37 -77zM190 973q87 143 172 287h252l172 -287h-192l-107 108l-106 -108h-191z" glyph-name="acircumflex" horiz-adv-x="980" unicode="â"/><glyph d="M375 -29q-135 0 -232.5 80t-97.5 206t93 207t233 81q88 0 161.5 -32t110.5 -69v35q0 80 -59.5 133.5t-161.5 53.5t-199 -50l-65 195q130 70 316 67t300.5 -115.5t116.5 -307.5l-2 -455h-146l-90 92q-84 -121 -278 -121zM303 266q0 -45 41.5 -75.5t105.5 -30.5t120.5 35 t72.5 88v12q-74 82 -205 80q-61 0 -98 -32t-37 -77zM356 1247q68 0 140.5 -26.5t101.5 -26.5q61 0 86 49l100 -24q10 -113 -44 -168.5t-134 -55.5q-45 0 -121.5 28t-106.5 28q-54 0 -73 -50l-102 25q-14 119 35.5 170t117.5 51z" glyph-name="atilde" horiz-adv-x="980" unicode="ã"/><glyph d="M375 -29q-135 0 -232.5 80t-97.5 206t93 207t233 81q88 0 161.5 -32t110.5 -69v35q0 80 -59.5 133.5t-161.5 53.5t-199 -50l-65 195q130 70 316 67t300.5 -115.5t116.5 -307.5l-2 -455h-146l-90 92q-84 -121 -278 -121zM303 266q0 -45 41.5 -75.5t105.5 -30.5t120.5 35 t72.5 88v12q-74 82 -205 80q-61 0 -98 -32t-37 -77zM193 1121q0 54 36.5 92t89.5 38t91.5 -37.5t38.5 -91.5t-37.5 -90.5t-91.5 -36.5t-90.5 36t-36.5 90zM524 1121q0 54 37 92t90 38t91 -37.5t38 -91.5t-37 -90.5t-91 -36.5t-91 36t-37 90z" glyph-name="adieresis" horiz-adv-x="980" unicode="ä"/><glyph d="M242 1020q0 94 76.5 170t186.5 76t186.5 -76t76.5 -183t-78 -180q199 -104 201 -362l-2 -465h-146l-90 86q-33 -41 -103 -78t-192 -37t-215.5 79t-93.5 203t90.5 201.5t236.5 77.5t267 -65v31q0 70 -62.5 120t-160.5 50t-213 -45l-55 194q61 29 137 45q-47 64 -47 158z M389 1009q0 -48 34 -83t82 -35t82 33.5t34 83t-34 84t-82 34.5t-82 -34.5t-34 -82.5zM307 258q0 -43 40.5 -70.5t102.5 -27.5t126.5 41t66.5 90v8q-86 61 -207 59q-59 0 -94 -28.5t-35 -71.5z" glyph-name="aring" horiz-adv-x="978" unicode="å"/><glyph d="M1188 176q119 0 239 74l95 -170q-133 -106 -372 -106t-386 157q-137 -160 -389 -160q-135 0 -232.5 80t-97.5 206t93 207t233 81q88 0 161.5 -32t110.5 -69v35q0 80 -59.5 133.5t-161.5 53.5t-199 -50l-65 195q130 70 320 67t304 -124q131 127 322 127t312.5 -141.5 t113.5 -364.5h-623q8 -82 85 -140.5t196 -58.5zM303 266q0 -45 41.5 -75.5t105.5 -30.5t120.5 35t72.5 88v12q-74 82 -205 80q-61 0 -98 -32t-37 -77zM1098 680q-68 0 -118 -45t-58 -98h344q-6 61 -53 102t-115 41z" glyph-name="ae" horiz-adv-x="1583" unicode="æ"/><glyph d="M549 182q100 0 196 92l134 -147q-106 -121 -267 -147q70 -66 70 -150q0 -115 -91 -176.5t-220 -61.5q-29 0 -82 9q0 135 2 204q25 -6 63 -6t76.5 27t38.5 75t-35 76q-168 27 -276.5 155t-108.5 308t137.5 310.5t345.5 130.5t351 -170l-148 -154q-27 39 -81 76t-113 37 q-96 0 -163 -66.5t-67 -178.5t69 -177.5t169 -65.5z" glyph-name="ccedilla" horiz-adv-x="913" unicode="ç"/><glyph d="M584 176q118 0 239 74l95 -170q-132 -106 -360 -106t-369.5 129.5t-141.5 325.5t131 324t322 128t312.5 -141.5t113.5 -364.5h-623q8 -82 85.5 -140.5t195.5 -58.5zM494 680q-68 0 -118.5 -45t-58.5 -98h345q-6 61 -53 102t-115 41zM195 1260h315l129 -287h-205l-239 252 v35z" glyph-name="egrave" horiz-adv-x="978" unicode="è"/><glyph d="M584 176q118 0 239 74l95 -170q-132 -106 -360 -106t-369.5 129.5t-141.5 325.5t131 324t322 128t312.5 -141.5t113.5 -364.5h-623q8 -82 85.5 -140.5t195.5 -58.5zM494 680q-68 0 -118.5 -45t-58.5 -98h345q-6 61 -53 102t-115 41zM791 1260v-35l-240 -252h-205l129 287 h316z" glyph-name="eacute" horiz-adv-x="978" unicode="é"/><glyph d="M584 176q118 0 239 74l95 -170q-132 -106 -360 -106t-369.5 129.5t-141.5 325.5t131 324t322 128t312.5 -141.5t113.5 -364.5h-623q8 -82 85.5 -140.5t195.5 -58.5zM494 680q-68 0 -118.5 -45t-58.5 -98h345q-6 61 -53 102t-115 41zM199 973l172 287h252l172 -287h-193 l-106 108l-107 -108h-190z" glyph-name="ecircumflex" horiz-adv-x="978" unicode="ê"/><glyph d="M584 176q118 0 239 74l95 -170q-132 -106 -360 -106t-369.5 129.5t-141.5 325.5t131 324t322 128t312.5 -141.5t113.5 -364.5h-623q8 -82 85.5 -140.5t195.5 -58.5zM494 680q-68 0 -118.5 -45t-58.5 -98h345q-6 61 -53 102t-115 41zM195 1121q0 54 36.5 92t89.5 38 t91.5 -37.5t38.5 -91.5t-37.5 -90.5t-91.5 -36.5t-90.5 36t-36.5 90zM526 1121q0 54 37 92t90 38t91 -37.5t38 -91.5t-37 -90.5t-91 -36.5t-91 36t-37 90z" glyph-name="edieresis" horiz-adv-x="978" unicode="ë"/><glyph d="M-80 1260h316l129 -287h-205l-240 252v35zM111 0v852h254v-852h-254z" glyph-name="igrave" horiz-adv-x="475" unicode="ì"/><glyph d="M555 1260v-35l-240 -252h-204l129 287h315zM111 0v852h254v-852h-254z" glyph-name="iacute" horiz-adv-x="475" unicode="í"/><glyph d="M111 0v852h254v-852h-254zM-59 973l172 287h252l172 -287h-193l-106 108l-107 -108h-190z" glyph-name="icircumflex" horiz-adv-x="475" unicode="î"/><glyph d="M-55 1121q0 54 36.5 92t90.5 38t91.5 -37.5t37.5 -91.5t-38 -90.5t-91 -36.5t-90 36t-37 90zM276 1121q0 54 37 92t91 38t91 -37.5t37 -91.5t-37.5 -90.5t-90.5 -36.5t-90.5 36t-37.5 90zM111 0v852h254v-852h-254z" glyph-name="idieresis" horiz-adv-x="475" unicode="ï"/><glyph d="M529 -27q-208 0 -345 127t-137 327t132 327t337 127q127 0 195 -66q-38 162 -183 283l-88 -123q-105 70 -155 100l86 115q-121 59 -234 74l-24 30q49 111 71 168q164 -25 312 -98l86 117l155 -109q-53 -70 -82 -104q350 -270 351 -770q0 -256 -134.5 -390.5 t-342.5 -134.5zM524 180q86 0 149.5 66.5t63.5 179.5t-62.5 180.5t-152.5 67.5t-150.5 -66.5t-60.5 -180.5t63.5 -180.5t149.5 -66.5z" glyph-name="eth" horiz-adv-x="1054" unicode="ð"/><glyph d="M608 881q160 0 256.5 -96.5t96.5 -256.5v-528h-263v492q0 76 -46 126t-118 50t-122 -49.5t-50 -124.5v-494h-260v852h144l102 -86q100 115 260 115zM410 1247q68 0 140.5 -26.5t100.5 -26.5q61 0 86 49l101 -24q10 -113 -44.5 -168.5t-134.5 -55.5q-45 0 -120.5 28 t-106.5 28q-55 0 -74 -50l-102 25q-14 119 36 170t118 51z" glyph-name="ntilde" horiz-adv-x="1046" unicode="ñ"/><glyph d="M524 -29q-197 0 -336 129t-139 328t140.5 326t337 127t335.5 -127t139 -327t-140 -328t-337 -128zM523 180q87 0 149.5 67.5t62.5 181.5t-63.5 179.5t-150.5 65.5t-148.5 -65.5t-61.5 -179.5t62.5 -181.5t149.5 -67.5zM203 1260h315l129 -287h-205l-239 252v35z" glyph-name="ograve" horiz-adv-x="1050" unicode="ò"/><glyph d="M524 -29q-197 0 -336 129t-139 328t140.5 326t337 127t335.5 -127t139 -327t-140 -328t-337 -128zM523 180q87 0 149.5 67.5t62.5 181.5t-63.5 179.5t-150.5 65.5t-148.5 -65.5t-61.5 -179.5t62.5 -181.5t149.5 -67.5zM815 1260v-35l-240 -252h-204l129 287h315z" glyph-name="oacute" horiz-adv-x="1050" unicode="ó"/><glyph d="M524 -29q-197 0 -336 129t-139 328t140.5 326t337 127t335.5 -127t139 -327t-140 -328t-337 -128zM523 180q87 0 149.5 67.5t62.5 181.5t-63.5 179.5t-150.5 65.5t-148.5 -65.5t-61.5 -179.5t62.5 -181.5t149.5 -67.5zM225 973q87 143 172 287h252l172 -287h-192 l-107 108l-106 -108h-191z" glyph-name="ocircumflex" horiz-adv-x="1050" unicode="ô"/><glyph d="M524 -29q-197 0 -336 129t-139 328t140.5 326t337 127t335.5 -127t139 -327t-140 -328t-337 -128zM523 180q87 0 149.5 67.5t62.5 181.5t-63.5 179.5t-150.5 65.5t-148.5 -65.5t-61.5 -179.5t62.5 -181.5t149.5 -67.5zM386 1247q68 0 141 -26.5t102 -26.5q61 0 86 49 l100 -24q10 -113 -44 -168.5t-134 -55.5q-47 0 -123 28t-106 28q-54 0 -72 -50l-103 25q-14 119 35.5 170t117.5 51z" glyph-name="otilde" horiz-adv-x="1050" unicode="õ"/><glyph d="M524 -29q-197 0 -336 129t-139 328t140.5 326t337 127t335.5 -127t139 -327t-140 -328t-337 -128zM523 180q87 0 149.5 67.5t62.5 181.5t-63.5 179.5t-150.5 65.5t-148.5 -65.5t-61.5 -179.5t62.5 -181.5t149.5 -67.5zM217 1121q0 54 37 92t90 38t91 -37.5t38 -91.5 t-38 -90.5t-91 -36.5t-90 36t-37 90zM549 1121q0 54 37 92t90 38t91 -37.5t38 -91.5t-38 -90.5t-91 -36.5t-90 36t-37 90z" glyph-name="odieresis" horiz-adv-x="1050" unicode="ö"/><glyph d="M375 1045q0 53 38 91t89 38t88 -37t37 -91t-36 -89t-89 -35t-90 35t-37 88zM928 588h-856v229h856v-229zM375 363q0 53 38 89.5t89 36.5t88 -36.5t37 -89.5t-36 -88t-89 -35t-90 35t-37 88z" glyph-name="divide" horiz-adv-x="999" unicode="÷"/><glyph d="M522 -29q-68 0 -145 21l-90 -170l-123 65l86 164q-92 61 -146.5 158.5t-54.5 218.5q0 199 140.5 326t336.5 127q76 0 154 -23l80 150l127 -62l-80 -149q195 -133 194 -369q0 -201 -140 -329t-339 -128zM311 434q0 -110 51 -174l216 406q-37 8 -56 8q-88 0 -149.5 -65 t-61.5 -175zM522 180q88 0 150.5 67t62.5 169t-43 166l-213 -398q14 -4 43 -4z" glyph-name="oslash" horiz-adv-x="1050" unicode="ø"/><glyph d="M444 -29q-159 0 -255.5 96.5t-96.5 256.5v528h262v-492q0 -76 46 -126t118 -50t122 49.5t50 124.5v494h260v-852h-159l-86 88q-102 -117 -261 -117zM201 1260h315l129 -287h-205l-239 252v35z" glyph-name="ugrave" horiz-adv-x="1052" unicode="ù"/><glyph d="M444 -29q-159 0 -255.5 96.5t-96.5 256.5v528h262v-492q0 -76 46 -126t118 -50t122 49.5t50 124.5v494h260v-852h-159l-86 88q-102 -117 -261 -117zM829 1260v-35l-241 -252h-205l129 287h317z" glyph-name="uacute" horiz-adv-x="1052" unicode="ú"/><glyph d="M444 -27q-162 0 -257 95.5t-95 255.5v528h262v-492q0 -33 23 -55q12 -51 47.5 -86t99.5 -35t114 49.5t50 124.5v494h262v-852h-159l-86 86q-99 -113 -261 -113zM629 973q-92 92 -109 108l-104 -108h-193l172 287h252q33 -53 92.5 -153.5t79.5 -133.5h-190z" glyph-name="ucircumflex" horiz-adv-x="1052" unicode="û"/><glyph d="M444 -29q-159 0 -255.5 96.5t-96.5 256.5v528h262v-492q0 -76 46 -126t118 -50t122 49.5t50 124.5v494h260v-852h-159l-86 88q-102 -117 -261 -117zM209 1121q0 54 37 92t90 38t91 -37.5t38 -91.5t-38 -90.5t-91 -36.5t-90 36t-37 90zM541 1121q0 54 36.5 92t90.5 38 t91.5 -37.5t37.5 -91.5t-37 -90.5t-91 -36.5t-91 36t-37 90z" glyph-name="udieresis" horiz-adv-x="1052" unicode="ü"/><glyph d="M729 852h270l-639 -1364h-249l-23 20l287 594l-371 750h291l217 -455zM827 1260v-35l-239 -252h-205l129 287h315z" glyph-name="yacute" horiz-adv-x="1011" unicode="ý"/><glyph d="M629 -27q-82 0 -158 33t-109 86v-571l-237 -27h-23v1944l236 24h24v-704q41 55 116 89t155 34q178 0 298 -129t120 -327t-123 -325t-299 -127zM573 180q86 0 148.5 64.5t62.5 179.5t-60 181.5t-148 66.5t-148.5 -62.5t-62.5 -179.5v-8q0 -109 61 -175.5t147 -66.5z" glyph-name="thorn" horiz-adv-x="1099" unicode="þ"/><glyph d="M729 852h270l-639 -1364h-249l-23 20l287 594l-371 750h291l217 -455zM215 1121q0 54 37 92t90 38t91 -37.5t38 -91.5t-38 -90.5t-91 -36.5t-90 36t-37 90zM547 1121q0 54 37 92t90 38t91 -37.5t38 -91.5t-38 -90.5t-91 -36.5t-90 36t-37 90z" glyph-name="ydieresis" horiz-adv-x="1011" unicode="ÿ"/><glyph d="M305 0h-307l682 1452h49l676 -1452h-305l-107 233h-581zM702 909l-194 -448h387zM999 1602h-596v182h596v-182z" glyph-name="Amacron" horiz-adv-x="1402" unicode="Ā"/><glyph d="M375 -29q-135 0 -232.5 80t-97.5 206t93 207t233 81q88 0 161.5 -32t110.5 -69v35q0 80 -59.5 133.5t-161.5 53.5t-199 -50l-65 195q130 70 316 67t300.5 -115.5t116.5 -307.5l-2 -455h-146l-90 92q-84 -121 -278 -121zM303 266q0 -45 41.5 -75.5t105.5 -30.5t120.5 35 t72.5 88v12q-74 82 -205 80q-61 0 -98 -32t-37 -77zM799 1030h-596v182h596v-182z" glyph-name="amacron" horiz-adv-x="980" unicode="ā"/><glyph d="M305 0h-307l682 1452h49l676 -1452h-305l-107 233h-581zM702 909l-194 -448h387zM698 1544q-119 0 -188.5 86t-44.5 201h172q-10 -39 4 -84t54 -45t54.5 43t6.5 86h174q25 -111 -44 -199t-188 -88z" glyph-name="Abreve" horiz-adv-x="1402" unicode="Ă"/><glyph d="M375 -29q-135 0 -232.5 80t-97.5 206t93 207t233 81q88 0 161.5 -32t110.5 -69v35q0 80 -59.5 133.5t-161.5 53.5t-199 -50l-65 195q130 70 316 67t300.5 -115.5t116.5 -307.5l-2 -455h-146l-90 92q-84 -121 -278 -121zM303 266q0 -45 41.5 -75.5t105.5 -30.5t120.5 35 t72.5 88v12q-74 82 -205 80q-61 0 -98 -32t-37 -77zM485 973q-119 0 -188.5 86t-44.5 201h172q-10 -39 4 -84.5t54 -45.5t54.5 43.5t6.5 86.5h174q25 -111 -44 -199t-188 -88z" glyph-name="abreve" horiz-adv-x="980" unicode="ă"/><glyph d="M1111 -174q38 -27 77 -27t63 6q2 -70 2 -204q-53 -8 -84 -9q-127 0 -218 61.5t-91 176.5q0 80 62.5 141.5t152.5 79.5l-82 182h-581l-107 -233h-307l682 1452h49l676 -1452h-270q-2 -2 -11.5 -9t-11.5 -9t-9 -8.5t-9 -9.5t-11.5 -15t-9.5 -54t38 -69zM702 909l-194 -448 h387z" glyph-name="Aogonek" horiz-adv-x="1402" unicode="Ą"/><glyph d="M831 -104q0 -55 54.5 -81t124.5 -12l2 -204q-147 -25 -271.5 34.5t-124.5 185.5t117 193l-80 74q-90 -115 -270 -115q-143 0 -240.5 81t-97.5 207t93 206t250 80t255 -78v35q0 70 -59.5 118t-159.5 48t-207 -54l-59 193q136 74 320 72t297.5 -108.5t115.5 -299.5v-471 q-2 -2 -11.5 -10t-10.5 -9t-9 -8.5t-9 -10.5t-6 -9t-6 -11t-4.5 -20t-3.5 -26zM303 265q0 -44 41.5 -74.5t105.5 -30.5t127.5 41t65.5 90v8q-76 76 -205 74q-59 0 -97 -32t-38 -76z" glyph-name="aogonek" horiz-adv-x="980" unicode="ą"/><glyph d="M59 726q0 325 226.5 532.5t541.5 207.5t551 -215l-168 -200q-168 168 -376 168t-343 -144.5t-135 -351.5t133.5 -353.5t348.5 -146.5q113 0 213 45.5t168 108.5l163 -184q-213 -221 -571 -222q-319 0 -535.5 215t-216.5 540zM1161 1831v-35l-239 -252h-205l129 287h315z " glyph-name="Cacute" horiz-adv-x="1441" unicode="Ć"/><glyph d="M549 182q100 0 196 92l134 -147q-137 -156 -349 -156t-346.5 134.5t-134.5 324.5t137.5 320.5t345.5 130.5t351 -170l-148 -154q-27 39 -81 76t-113 37q-96 0 -163 -66.5t-67 -178.5t69 -177.5t169 -65.5zM836 1260v-35l-240 -252h-205l129 287h316z" glyph-name="cacute" horiz-adv-x="913" unicode="ć"/><glyph d="M59 726q0 325 226.5 532.5t541.5 207.5t551 -215l-168 -200q-168 168 -376 168t-343 -144.5t-135 -351.5t133.5 -353.5t348.5 -146.5q113 0 213 45.5t168 108.5l163 -184q-213 -221 -571 -222q-319 0 -535.5 215t-216.5 540zM524 1544l172 287h252l172 -287h-192 l-107 109l-106 -109h-191z" glyph-name="Ccircumflex" horiz-adv-x="1441" unicode="Ĉ"/><glyph d="M549 182q100 0 196 92l134 -147q-137 -156 -349 -156t-346.5 134.5t-134.5 324.5t137.5 320.5t345.5 130.5t351 -170l-148 -154q-27 39 -81 76t-113 37q-96 0 -163 -66.5t-67 -178.5t69 -177.5t169 -65.5zM211 973l172 287h252l172 -287h-193l-106 108l-107 -108h-190z " glyph-name="ccircumflex" horiz-adv-x="913" unicode="ĉ"/><glyph d="M59 726q0 325 226.5 532.5t541.5 207.5t551 -215l-168 -200q-168 168 -376 168t-343 -144.5t-135 -351.5t133.5 -353.5t348.5 -146.5q113 0 213 45.5t168 108.5l163 -184q-213 -221 -571 -222q-319 0 -535.5 215t-216.5 540zM694 1693q0 54 37 92t90 38t91 -38t38 -92 t-38 -90t-91 -36t-90 36t-37 90z" glyph-name="Cdotaccent" horiz-adv-x="1441" unicode="Ċ"/><glyph d="M549 182q100 0 196 92l134 -147q-137 -156 -349 -156t-346.5 134.5t-134.5 324.5t137.5 320.5t345.5 130.5t351 -170l-148 -154q-27 39 -81 76t-113 37q-96 0 -163 -66.5t-67 -178.5t69 -177.5t169 -65.5zM381 1121q0 54 37 92t90 38t91 -37.5t38 -91.5t-38 -90.5 t-91 -36.5t-90 36t-37 90z" glyph-name="cdotaccent" horiz-adv-x="913" unicode="ċ"/><glyph d="M59 726q0 325 226.5 532.5t541.5 207.5t551 -215l-168 -200q-168 168 -376 168t-343 -144.5t-135 -351.5t133.5 -353.5t348.5 -146.5q113 0 213 45.5t168 108.5l163 -184q-213 -221 -571 -222q-319 0 -535.5 215t-216.5 540zM1126 1831v-35l-170 -252h-251l-170 252v35 h167l127 -113q124 108 129 113h168z" glyph-name="Ccaron" horiz-adv-x="1441" unicode="Č"/><glyph d="M549 182q100 0 196 92l134 -147q-137 -156 -349 -156t-346.5 134.5t-134.5 324.5t137.5 320.5t345.5 130.5t351 -170l-148 -154q-27 39 -81 76t-113 37q-96 0 -163 -66.5t-67 -178.5t69 -177.5t169 -65.5zM805 1260v-35l-170 -252h-252l-170 252v35h168q15 -15 127 -113 q123 107 129 113h168z" glyph-name="ccaron" horiz-adv-x="913" unicode="č"/><glyph d="M1354 713q0 -86 -22.5 -175t-101.5 -230.5t-336.5 -252t-739.5 -55.5v1430q358 61 617.5 -3.5t392.5 -211.5t161.5 -281.5t28.5 -220.5zM1059 721q0 242 -170 375t-457 100v-950q230 -21 371 58t198.5 180.5t57.5 236.5zM823 1831v-35l-170 -252h-252l-170 252v35h168 l127 -113l129 113h168z" glyph-name="Dcaron" horiz-adv-x="1427" unicode="Ď"/><glyph d="M465 -27q-178 0 -298 128t-120 326t123 326t299 128q82 0 157.5 -34t108.5 -87v678l238 24h24v-1462h-145l-100 106q-41 -59 -120 -96t-167 -37zM521 180q87 0 149.5 66.5t62.5 179.5v8q-2 113 -61.5 175.5t-145.5 62.5t-149.5 -65.5t-63.5 -179.5t60.5 -180.5 t147.5 -66.5zM1204 801l72 637h301l2 -37l-285 -623z" glyph-name="dcaron" horiz-adv-x="1662" unicode="ď"/><glyph d="M205 598h-185v229h185v603q358 61 617.5 -3.5t392.5 -211.5t161.5 -281.5t28.5 -220.5t-22.5 -175t-102 -230t-336 -252t-739.5 -56v598zM483 827h348v-229h-348v-352q230 -21 371 58t198.5 180.5t57.5 236.5q0 242 -170 374t-457 99v-367z" glyph-name="Dcroat" horiz-adv-x="1478" unicode="Đ"/><glyph d="M735 1030h-258v182h258v226l238 24h24v-250h93v-182h-93v-1030h-145l-100 106q-41 -59 -120 -96t-167 -37q-178 0 -298 128t-120 326t123 326t299 128q82 0 157.5 -34t108.5 -87v270zM521 180q87 0 149.5 66.5t62.5 179.5v8q-2 113 -61.5 175.5t-145.5 62.5t-149.5 -65.5 t-63.5 -179.5t60.5 -180.5t147.5 -66.5z" glyph-name="dcroat" horiz-adv-x="1099" unicode="đ"/><glyph d="M430 233h576v-233h-852v1438h829v-234h-553v-289h447v-233h-447v-449zM868 1604h-596v182h596v-182z" glyph-name="Emacron" horiz-adv-x="1112" unicode="Ē"/><glyph d="M584 176q118 0 239 74l95 -170q-132 -106 -360 -106t-369.5 129.5t-141.5 325.5t131 324t322 128t312.5 -141.5t113.5 -364.5h-623q8 -82 85.5 -140.5t195.5 -58.5zM494 680q-68 0 -118.5 -45t-58.5 -98h345q-6 61 -53 102t-115 41zM805 1030h-596v182h596v-182z" glyph-name="emacron" horiz-adv-x="978" unicode="ē"/><glyph d="M430 233h576v-233h-852v1438h829v-234h-553v-289h447v-233h-447v-449zM569 1544q-119 0 -188.5 86t-44.5 201h172q-10 -39 4 -84t54 -45t54.5 43t6.5 86h174q25 -111 -44 -199t-188 -88z" glyph-name="Ebreve" horiz-adv-x="1112" unicode="Ĕ"/><glyph d="M584 176q118 0 239 74l95 -170q-132 -106 -360 -106t-369.5 129.5t-141.5 325.5t131 324t322 128t312.5 -141.5t113.5 -364.5h-623q8 -82 85.5 -140.5t195.5 -58.5zM494 680q-68 0 -118.5 -45t-58.5 -98h345q-6 61 -53 102t-115 41zM496 973q-119 0 -188.5 86t-45.5 201 h172q-10 -39 4.5 -84.5t54.5 -45.5t54 43.5t6 86.5h174q25 -111 -43.5 -199t-187.5 -88z" glyph-name="ebreve" horiz-adv-x="978" unicode="ĕ"/><glyph d="M430 233h576v-233h-852v1438h829v-234h-553v-289h447v-233h-447v-449zM434 1693q0 54 37 92t90 38t91 -38t38 -92t-38 -90t-91 -36t-90 36t-37 90z" glyph-name="Edotaccent" horiz-adv-x="1112" unicode="Ė"/><glyph d="M584 176q118 0 239 74l95 -170q-132 -106 -360 -106t-369.5 129.5t-141.5 325.5t131 324t322 128t312.5 -141.5t113.5 -364.5h-623q8 -82 85.5 -140.5t195.5 -58.5zM494 680q-68 0 -118.5 -45t-58.5 -98h345q-6 61 -53 102t-115 41zM367 1121q0 54 36.5 92t89.5 38 t91.5 -37.5t38.5 -91.5t-37.5 -90.5t-91.5 -36.5t-90.5 36t-36.5 90z" glyph-name="edotaccent" horiz-adv-x="978" unicode="ė"/><glyph d="M430 233h576v-233h-332q-46 -42 -54 -62t-8 -42q0 -55 54.5 -81t124.5 -12l2 -204q-92 -16 -180.5 2t-151 77.5t-62.5 155.5t95 166h-340v1438h829v-234h-553v-289h447v-233h-447v-449z" glyph-name="Eogonek" horiz-adv-x="1112" unicode="Ę"/><glyph d="M584 176q118 0 239 74l95 -170q-76 -57 -181 -84q-47 -42 -51 -60t-4 -50t38 -59.5t77 -27.5t63 6q2 -70 2 -204q-53 -8 -84 -9q-127 0 -218 61.5t-91 176.5q0 80 63 143q-209 4 -347 133.5t-138 323.5t131 322.5t322 128.5t312.5 -141.5t113.5 -364.5h-623 q8 -82 85.5 -140.5t195.5 -58.5zM494 680q-68 0 -118.5 -45t-58.5 -98h345q-6 61 -53 102t-115 41z" glyph-name="eogonek" horiz-adv-x="978" unicode="ę"/><glyph d="M430 233h576v-233h-852v1438h829v-234h-553v-289h447v-233h-447v-449zM858 1831v-35l-170 -252h-252l-170 252v35h168l127 -113q124 108 129 113h168z" glyph-name="Ecaron" horiz-adv-x="1112" unicode="Ě"/><glyph d="M584 176q118 0 239 74l95 -170q-132 -106 -360 -106t-369.5 129.5t-141.5 325.5t131 324t322 128t312.5 -141.5t113.5 -364.5h-623q8 -82 85.5 -140.5t195.5 -58.5zM494 680q-68 0 -118.5 -45t-58.5 -98h345q-6 61 -53 102t-115 41zM793 1260v-35l-170 -252h-252 l-170 252v35h168q48 -48 127 -113q123 107 129 113h168z" glyph-name="ecaron" horiz-adv-x="978" unicode="ě"/><glyph d="M832 1219q-202 0 -339 -142.5t-137 -359.5t137.5 -357.5t360.5 -140.5q84 0 175 31t140 72v163h-223v232h492v-500q-240 -246 -593 -246t-570.5 215t-217.5 536.5t224.5 532.5t542.5 211t552 -217q-92 -110 -172 -194q-170 164 -372 164zM526 1544l172 287h252l172 -287 h-192l-107 109l-106 -109h-191z" glyph-name="Gcircumflex" horiz-adv-x="1531" unicode="Ĝ"/><glyph d="M492 -541q-222 0 -357 85t-135 229q0 98 62.5 162.5t144.5 76.5q-39 6 -72 43t-31 92t44 91t106 32q-82 49 -122 124t-40 153q0 127 97.5 230.5t287.5 103.5q84 0 166 -31t127 -72l176 74h41v-223h-139q12 -16 12 -62q0 -145 -100.5 -243.5t-294.5 -104.5 q-96 0 -96 -57.5t125 -61.5q264 -16 381.5 -99t117.5 -229t-139.5 -229.5t-361.5 -83.5zM496 -338q236 0 235 115q0 55 -92 88t-180 33t-145.5 -32t-57.5 -89.5t68 -86t172 -28.5zM477.5 406q61.5 0 102.5 41t41 99t-41 98t-105 40t-103.5 -40t-39.5 -98t42 -99t103.5 -41z M182 973q87 143 172 287h252l172 -287h-192l-107 108l-106 -108h-191z" glyph-name="gcircumflex" horiz-adv-x="1017" unicode="ĝ"/><glyph d="M832 1219q-202 0 -339 -142.5t-137 -359.5t137.5 -357.5t360.5 -140.5q84 0 175 31t140 72v163h-223v232h492v-500q-240 -246 -593 -246t-570.5 215t-217.5 536.5t224.5 532.5t542.5 211t552 -217q-92 -110 -172 -194q-170 164 -372 164zM823 1544q-119 0 -188.5 86 t-44.5 201h172q-10 -39 4 -84t54 -45t54.5 43t6.5 86h174q25 -111 -44 -199t-188 -88z" glyph-name="Gbreve" horiz-adv-x="1531" unicode="Ğ"/><glyph d="M492 -541q-222 0 -357 85t-135 229q0 98 62.5 162.5t144.5 76.5q-39 6 -72 43t-31 92t44 91t106 32q-82 49 -122 124t-40 153q0 127 97.5 230.5t287.5 103.5q84 0 166 -31t127 -72l176 74h41v-223h-139q12 -16 12 -62q0 -145 -100.5 -243.5t-294.5 -104.5 q-96 0 -96 -57.5t125 -61.5q264 -16 381.5 -99t117.5 -229t-139.5 -229.5t-361.5 -83.5zM496 -338q236 0 235 115q0 55 -92 88t-180 33t-145.5 -32t-57.5 -89.5t68 -86t172 -28.5zM477.5 406q61.5 0 102.5 41t41 99t-41 98t-105 40t-103.5 -40t-39.5 -98t42 -99t103.5 -41z M471 973q-119 0 -188.5 86t-44.5 201h172q-10 -39 4 -84.5t54 -45.5t54.5 43.5t5.5 86.5h174q25 -111 -43.5 -199t-187.5 -88z" glyph-name="gbreve" horiz-adv-x="1017" unicode="ğ"/><glyph d="M832 1219q-202 0 -339 -142.5t-137 -359.5t137.5 -357.5t360.5 -140.5q84 0 175 31t140 72v163h-223v232h492v-500q-240 -246 -593 -246t-570.5 215t-217.5 536.5t224.5 532.5t542.5 211t552 -217q-92 -110 -172 -194q-170 164 -372 164zM688 1693q0 54 37 92t90 38 t91 -38t38 -92t-38 -90t-91 -36t-90 36t-37 90z" glyph-name="Gdotaccent" horiz-adv-x="1531" unicode="Ġ"/><glyph d="M492 -541q-222 0 -357 85t-135 229q0 98 62.5 162.5t144.5 76.5q-39 6 -72 43t-31 92t44 91t106 32q-82 49 -122 124t-40 153q0 127 97.5 230.5t287.5 103.5q84 0 166 -31t127 -72l176 74h41v-223h-139q12 -16 12 -62q0 -145 -100.5 -243.5t-294.5 -104.5 q-96 0 -96 -57.5t125 -61.5q264 -16 381.5 -99t117.5 -229t-139.5 -229.5t-361.5 -83.5zM496 -338q236 0 235 115q0 55 -92 88t-180 33t-145.5 -32t-57.5 -89.5t68 -86t172 -28.5zM477.5 406q61.5 0 102.5 41t41 99t-41 98t-105 40t-103.5 -40t-39.5 -98t42 -99t103.5 -41z M342 1121q0 54 37 92t90 38t91 -37.5t38 -91.5t-38 -90.5t-91 -36.5t-90 36t-37 90z" glyph-name="gdotaccent" horiz-adv-x="1017" unicode="ġ"/><glyph d="M832 1219q-202 0 -339 -142.5t-137 -359.5t137.5 -357.5t360.5 -140.5q84 0 175 31t140 72v163h-223v232h492v-500q-240 -246 -593 -246t-570.5 215t-217.5 536.5t224.5 532.5t542.5 211t552 -217q-92 -110 -172 -194q-170 164 -372 164zM629 -510l41 391h299l2 -35 l-252 -370z" glyph-name="Gcommaaccent" horiz-adv-x="1531" unicode="Ģ"/><glyph d="M492 -541q-222 0 -357 85t-135 229q0 98 62.5 162.5t144.5 76.5q-39 6 -72 43t-31 92t44 91t106 32q-82 49 -122 124t-40 153q0 127 97.5 230.5t287.5 103.5q84 0 166 -31t127 -72l176 74h41v-223h-139q12 -16 12 -62q0 -145 -100.5 -243.5t-294.5 -104.5 q-96 0 -96 -57.5t125 -61.5q264 -16 381.5 -99t117.5 -229t-139.5 -229.5t-361.5 -83.5zM496 -338q236 0 235 115q0 55 -92 88t-180 33t-145.5 -32t-57.5 -89.5t68 -86t172 -28.5zM477.5 406q61.5 0 102.5 41t41 99t-41 98t-105 40t-103.5 -40t-39.5 -98t42 -99t103.5 -41z M676 1384l-41 -391h-299l-2 35l252 371z" glyph-name="gcommaaccent" horiz-adv-x="1017" unicode="ģ"/><glyph d="M936 0v682h-506v-682h-276v1438h276v-523h506v523h276v-1438h-276zM383 1544l172 287h252l172 -287h-193q-46 46 -106 109l-107 -109h-190z" glyph-name="Hcircumflex" horiz-adv-x="1366" unicode="Ĥ"/><glyph d="M362 1462v-688q98 106 249 106t250.5 -97t99.5 -255v-528h-265v492q0 66 -46 121t-120 55q-168 0 -168 -258v-410h-260v1438l236 24h24zM-68 1569l172 286h252l172 -286h-192l-107 108l-106 -108h-191z" glyph-name="hcircumflex" horiz-adv-x="1046" unicode="ĥ"/><glyph d="M936 0v682h-506v-682h-276v1077h-131v185h131v176h276v-176h506v176h276v-176h131v-185h-131v-1077h-276zM430 915h506v162h-506v-162z" glyph-name="Hbar" horiz-adv-x="1366" unicode="Ħ"/><glyph d="M362 1462v-250h259v-182h-259v-256q98 106 249 106t250.5 -97t99.5 -255v-528h-265v416q0 181 -56 216.5t-110 35.5q-168 0 -168 -240v-428h-260v1030h-92v182h92v226l236 24h24z" glyph-name="hbar" horiz-adv-x="1046" unicode="ħ"/><glyph d="M154 0v1438h276v-1438h-276zM158 1819q68 0 140.5 -27t100.5 -27q61 0 86 50l101 -25q10 -113 -44.5 -168t-133.5 -55q-45 0 -122 27.5t-107 27.5q-55 0 -73 -49l-102 24q-14 119 36 170.5t118 51.5z" glyph-name="Itilde" horiz-adv-x="583" unicode="Ĩ"/><glyph d="M104 1247q68 0 140.5 -26.5t101.5 -26.5q61 0 86 49l100 -24q10 -113 -44 -168.5t-134 -55.5q-47 0 -122.5 28t-105.5 28q-54 0 -73 -50l-102 25q-14 119 35.5 170t117.5 51zM111 0v852h254v-852h-254z" glyph-name="itilde" horiz-adv-x="475" unicode="ĩ"/><glyph d="M154 0v1438h276v-1438h-276zM590 1602h-596v182h596v-182z" glyph-name="Imacron" horiz-adv-x="583" unicode="Ī"/><glyph d="M537 1030h-596v182h596v-182zM111 0v852h254v-852h-254z" glyph-name="imacron" horiz-adv-x="475" unicode="ī"/><glyph d="M154 0v1438h276v-1438h-276zM293 1544q-119 0 -188.5 86t-45.5 201h172q-10 -39 4.5 -84t54.5 -45t54 43t6 86h174q25 -111 -43.5 -199t-187.5 -88z" glyph-name="Ibreve" horiz-adv-x="583" unicode="Ĭ"/><glyph d="M238 973q-119 0 -188.5 86t-45.5 201h172q-10 -39 4.5 -84.5t54.5 -45.5t54 43.5t6 86.5h174q25 -111 -43.5 -199t-187.5 -88zM111 0v852h254v-852h-254z" glyph-name="ibreve" horiz-adv-x="475" unicode="ĭ"/><glyph d="M154 1438h276v-1438h-78q-55 -35 -55 -89q0 -110 129 -110q29 0 45 4q0 -137 2 -204q-53 -8 -84 -9q-127 0 -219 61.5t-92 176.5q0 87 76 150v1458z" glyph-name="Iogonek" horiz-adv-x="583" unicode="Į"/><glyph d="M113 852h260v-852h-56q-55 -35 -55 -89q0 -110 129 -110q29 0 45 4q0 -137 2 -204q-53 -8 -84 -9q-127 0 -219 61.5t-92 176.5q0 80 70 141v881zM68 1205q0 71 52 123t122 52t121 -51t51 -124t-50 -122t-122 -49t-123 50t-51 121z" glyph-name="iogonek" horiz-adv-x="483" unicode="į"/><glyph d="M154 0v1438h276v-1438h-276zM162 1693q0 54 37 92t90 38t91 -38t38 -92t-38 -90t-91 -36t-90 36t-37 90z" glyph-name="Idotaccent" horiz-adv-x="583" unicode="İ"/><glyph d="M111 0v852h254v-852h-254z" glyph-name="dotlessi" horiz-adv-x="475" unicode="ı"/><glyph d="M154 0v1438h276v-1438h-276zM1018 504v934h276v-942q0 -270 -161.5 -402.5t-452.5 -97.5v231q338 -24 338 277z" glyph-name="IJ" horiz-adv-x="1466" unicode="Ĳ"/><glyph d="M113 0v852h260v-852h-260zM70 1205q0 71 51 123t120.5 52t122 -51t52.5 -122.5t-52 -121t-122 -49.5t-121 49t-51 120zM631 -129v981h260v-1012q0 -104 -36 -180t-90 -112.5t-147.5 -61t-205.5 7.5l30 211q72 -16 130.5 29t58.5 137zM586 1205q0 73 51 124t122.5 51 t123 -51t51.5 -124t-51.5 -122t-123 -49t-122.5 49t-51 122z" glyph-name="ij" horiz-adv-x="1003" unicode="ĳ"/><glyph d="M434 504v934h277v-942q0 -270 -162 -402.5t-453 -97.5v231q338 -24 338 277zM274 1544l172 287h252l172 -287h-192l-107 109l-106 -109h-191z" glyph-name="Jcircumflex" horiz-adv-x="882" unicode="Ĵ"/><glyph d="M115 -129v981h262v-1010q0 -102 -33 -176t-111.5 -130t-212.5 -56q-70 0 -122 16l32 209q20 -4 33 -4q63 0 107.5 45t44.5 125zM-53 973l170 287h254q20 -33 79.5 -133.5t92.5 -153.5h-193l-106 108l-107 -108h-190z" glyph-name="jcircumflex" horiz-adv-x="487" unicode="ĵ"/><glyph d="M154 0v1438h278v-594l492 594h319l-541 -668l594 -770h-352l-512 678v-678h-278zM479 -510l41 391h299l2 -35l-252 -370z" glyph-name="Kcommaaccent" horiz-adv-x="1314" unicode="Ķ"/><glyph d="M362 1462v-923l300 313h309l-369 -391l399 -461h-327l-312 365v-365h-260v1438l238 24h22zM309 -510l41 391h299l2 -35l-252 -370z" glyph-name="kcommaaccent" horiz-adv-x="1013" unicode="ķ"/><glyph d="M102 852h260v-313l300 313h309l-369 -391l399 -461h-327l-312 365v-365h-260v852z" glyph-name="kgreenlandic" horiz-adv-x="1013" unicode="ĸ"/><glyph d="M975 233v-233h-821v1438h276v-1205h545zM670 1831v-35l-240 -252h-205l129 287h316z" glyph-name="Lacute" horiz-adv-x="1034" unicode="Ĺ"/><glyph d="M362 1462v-1462h-260v1438l238 24h22zM553 1855v-34l-240 -252h-204l129 286h315z" glyph-name="lacute" horiz-adv-x="464" unicode="ĺ"/><glyph d="M975 233v-233h-821v1438h276v-1205h545zM375 -510l41 391h299l2 -35l-252 -370z" glyph-name="Lcommaaccent" horiz-adv-x="1034" unicode="Ļ"/><glyph d="M362 1462v-1462h-260v1438l238 24h22zM39 -510l41 391h299l2 -35l-252 -370z" glyph-name="lcommaaccent" horiz-adv-x="464" unicode="ļ"/><glyph d="M975 233v-233h-821v1438h276v-1205h545zM725 801l72 637h301l2 -37l-285 -623z" glyph-name="Lcaron" horiz-adv-x="1181" unicode="Ľ"/><glyph d="M362 1462v-1462h-260v1438l238 24h22zM569 801l72 637h301l2 -37l-285 -623z" glyph-name="lcaron" horiz-adv-x="1028" unicode="ľ"/><glyph d="M975 233v-233h-821v1438h276v-1205h545zM631 563q0 72 51 123t122 51t122 -51t51 -123t-50 -121t-123 -49t-123 49t-50 121z" glyph-name="Ldot" horiz-adv-x="1081" unicode="Ŀ"/><glyph d="M362 1462v-1462h-260v1438l238 24h22zM578 563q0 72 51 123t122 51t122 -51t51 -123t-51 -121t-123 -49t-122 49t-50 121z" glyph-name="ldot" horiz-adv-x="1036" unicode="ŀ"/><glyph d="M489 233h549v-233h-823v535l-135 -62l-64 162l199 90v713h274v-588l187 86l61 -166l-248 -113v-424z" glyph-name="Lslash" horiz-adv-x="1095" unicode="Ł"/><glyph d="M430 0h-246v555l-135 -59l-61 161q66 31 196 88v693l222 24h24v-604l133 62q35 -84 64 -166q-131 -57 -197 -88v-666z" glyph-name="lslash" horiz-adv-x="616" unicode="ł"/><glyph d="M975 1438h272v-1438h-272v580l-553 372v-952h-268v1440l36 12l785 -545v531zM981 1833v-35l-240 -252h-204l129 287h315z" glyph-name="Nacute" horiz-adv-x="1400" unicode="Ń"/><glyph d="M608 881q160 0 256.5 -96.5t96.5 -256.5v-528h-263v492q0 76 -46 126t-118 50t-122 -49.5t-50 -124.5v-494h-260v852h144l102 -86q100 115 260 115zM842 1260v-35l-240 -252h-205l129 287h316z" glyph-name="nacute" horiz-adv-x="1046" unicode="ń"/><glyph d="M975 1438h272v-1438h-272v580l-553 372v-952h-268v1440l36 12l785 -545v531zM508 -510l41 391h299l2 -35l-252 -370z" glyph-name="Ncommaaccent" horiz-adv-x="1400" unicode="Ņ"/><glyph d="M608 881q160 0 256.5 -96.5t96.5 -256.5v-528h-263v492q0 76 -46 126t-118 50t-122 -49.5t-50 -124.5v-494h-260v852h144l102 -86q100 115 260 115zM332 -510l41 391h299l2 -35l-252 -370z" glyph-name="ncommaaccent" horiz-adv-x="1046" unicode="ņ"/><glyph d="M975 1438h272v-1438h-272v580l-553 372v-952h-268v1440l36 12l785 -545v531zM979 1831v-35l-170 -252h-252l-170 252v35h168l127 -113l129 113h168z" glyph-name="Ncaron" horiz-adv-x="1400" unicode="Ň"/><glyph d="M608 881q160 0 256.5 -96.5t96.5 -256.5v-528h-263v492q0 76 -46 126t-118 50t-122 -49.5t-50 -124.5v-494h-260v852h144l102 -86q100 115 260 115zM819 1260v-35l-170 -252h-252l-170 252v35h168q15 -15 127 -113q124 108 129 113h168z" glyph-name="ncaron" horiz-adv-x="1046" unicode="ň"/><glyph d="M997 881q160 0 256.5 -96.5t96.5 -256.5v-528h-263v492q0 76 -45.5 126t-117.5 50t-122 -49.5t-50 -124.5v-494h-260v852h143l102 -86q100 115 260 115zM104 801l72 637h301l2 -37l-284 -623z" glyph-name="napostrophe" horiz-adv-x="1437" unicode="ŉ"/><glyph d="M975 1438h272v-1598q0 -104 -36.5 -180t-92 -112.5t-151.5 -61t-209 7.5l30 221q74 -14 131.5 26t55.5 130v709l-553 372v-952h-268v1440l36 12l785 -545v531z" glyph-name="Eng" horiz-adv-x="1400" unicode="Ŋ"/><glyph d="M698 -129v621q0 76 -46 126t-118 50t-122 -49.5t-50 -124.5v-494h-260v852h144l102 -86q100 115 260 115t256.5 -96.5t96.5 -256.5v-688q0 -104 -36 -180t-90.5 -112.5t-149 -61t-206.5 7.5l31 211q72 -14 130 30t58 136z" glyph-name="eng" horiz-adv-x="1046" unicode="ŋ"/><glyph d="M59 719q0 313 215 530t546 217t548 -217t217 -530t-217 -530.5t-548 -217.5t-546 217.5t-215 530.5zM356 719q0 -221 136.5 -358.5t327.5 -137.5t329.5 137.5t138.5 358.5t-138 360.5t-328.5 139.5t-328 -139.5t-137.5 -360.5zM1118 1604h-596v182h596v-182z" glyph-name="Omacron" horiz-adv-x="1642" unicode="Ō"/><glyph d="M524 -29q-197 0 -336 129t-139 328t140.5 326t337 127t335.5 -127t139 -327t-140 -328t-337 -128zM523 180q87 0 149.5 67.5t62.5 181.5t-63.5 179.5t-150.5 65.5t-148.5 -65.5t-61.5 -179.5t62.5 -181.5t149.5 -67.5zM823 1030h-596v182h596v-182z" glyph-name="omacron" horiz-adv-x="1050" unicode="ō"/><glyph d="M59 719q0 313 215 530t546 217t548 -217t217 -530t-217 -530.5t-548 -217.5t-546 217.5t-215 530.5zM356 719q0 -221 136.5 -358.5t327.5 -137.5t329.5 137.5t138.5 358.5t-138 360.5t-328.5 139.5t-328 -139.5t-137.5 -360.5zM819 1544q-119 0 -188.5 86t-44.5 201h172 q-10 -39 4 -84t54 -45t54.5 43t6.5 86h174q25 -111 -44 -199t-188 -88z" glyph-name="Obreve" horiz-adv-x="1642" unicode="Ŏ"/><glyph d="M524 -29q-197 0 -336 129t-139 328t140.5 326t337 127t335.5 -127t139 -327t-140 -328t-337 -128zM523 180q87 0 149.5 67.5t62.5 181.5t-63.5 179.5t-150.5 65.5t-148.5 -65.5t-61.5 -179.5t62.5 -181.5t149.5 -67.5zM522 973q-119 0 -188.5 86t-44.5 201h172 q-10 -39 4 -84.5t54 -45.5t54.5 43.5t6.5 86.5h174q25 -111 -44 -199t-188 -88z" glyph-name="obreve" horiz-adv-x="1050" unicode="ŏ"/><glyph d="M59 719q0 313 215 530t546 217t548 -217t217 -530t-217 -530.5t-548 -217.5t-546 217.5t-215 530.5zM356 719q0 -221 136.5 -358.5t327.5 -137.5t329.5 137.5t138.5 358.5t-138 360.5t-328.5 139.5t-328 -139.5t-137.5 -360.5zM924 1831v-35l-205 -252h-127l86 287h246z M1235 1831v-35l-205 -252h-129l86 287h248z" glyph-name="Ohungarumlaut" horiz-adv-x="1642" unicode="Ő"/><glyph d="M524 -29q-197 0 -336 129t-139 328t140.5 326t337 127t335.5 -127t139 -327t-140 -328t-337 -128zM523 180q87 0 149.5 67.5t62.5 181.5t-63.5 179.5t-150.5 65.5t-148.5 -65.5t-61.5 -179.5t62.5 -181.5t149.5 -67.5zM627 1260v-35l-205 -252h-127l86 287h246zM938 1260 v-35l-205 -252h-129l86 287h248z" glyph-name="ohungarumlaut" horiz-adv-x="1050" unicode="ő"/><glyph d="M1821 1438v-236h-559v-287h450v-235h-450v-447h579v-233h-706q-129 -20 -285 -20t-306.5 52t-239.5 132t-147.5 183.5t-79 194.5t-20.5 179t21.5 180t81 194.5t148.5 180.5t239.5 129t301.5 51t286 -18h686zM864 1214q-229 0 -367.5 -144t-138.5 -366t148.5 -353.5 t372.5 -131.5q57 0 106 8v977q-68 10 -121 10z" glyph-name="OE" horiz-adv-x="1949" unicode="Œ"/><glyph d="M1277 176q118 0 239 74l94 -170q-134 -106 -362 -106t-376 137q-139 -139 -342 -139t-342 128.5t-139 327.5t140.5 326t340.5 127t336 -131q131 131 324 131t314.5 -141.5t113.5 -364.5h-623q14 -88 89 -143.5t193 -55.5zM523 180q87 0 149.5 67.5t62.5 181.5 t-63.5 179.5t-150.5 65.5t-148.5 -65.5t-61.5 -179.5t62.5 -181.5t149.5 -67.5zM1186 680q-68 0 -118 -45t-58 -98h344q-6 61 -53 102t-115 41z" glyph-name="oe" horiz-adv-x="1671" unicode="œ"/><glyph d="M1096 956q0 -121 -61.5 -236.5t-162.5 -178.5l388 -541h-338l-304 444q-90 -14 -188 -6v-438h-276v1425q444 86 693 -49t249 -420zM811 950q0 129 -99.5 202t-281.5 42v-508q176 -25 278.5 55t102.5 209zM838 1831v-35l-240 -252h-205l129 287h316z" glyph-name="Racute" horiz-adv-x="1255" unicode="Ŕ"/><glyph d="M102 0v852h144l100 -86q23 47 73.5 80t114.5 33t115 -35q-16 -93 -27.5 -150t-15.5 -84l-12 -4q-46 23 -114 23t-118 -68v-561h-260zM694 1260v-35l-239 -252h-205l129 287h315z" glyph-name="racute" horiz-adv-x="677" unicode="ŕ"/><glyph d="M1096 956q0 -121 -61.5 -236.5t-162.5 -178.5l388 -541h-338l-304 444q-90 -14 -188 -6v-438h-276v1425q444 86 693 -49t249 -420zM811 950q0 129 -99.5 202t-281.5 42v-508q176 -25 278.5 55t102.5 209zM457 -510l41 391h299l2 -35l-252 -370z" glyph-name="Rcommaaccent" horiz-adv-x="1255" unicode="Ŗ"/><glyph d="M102 0v852h144l100 -86q23 47 73.5 80t114.5 33t115 -35q-16 -93 -27.5 -150t-15.5 -84l-12 -4q-46 23 -114 23t-118 -68v-561h-260zM53 -510l41 391h299l2 -35l-252 -370z" glyph-name="rcommaaccent" horiz-adv-x="677" unicode="ŗ"/><glyph d="M1096 956q0 -121 -61.5 -236.5t-162.5 -178.5l388 -541h-338l-304 444q-90 -14 -188 -6v-438h-276v1425q444 86 693 -49t249 -420zM811 950q0 129 -99.5 202t-281.5 42v-508q176 -25 278.5 55t102.5 209zM834 1831v-35l-170 -252h-252l-170 252v35h168q8 -8 127 -113 l129 113h168z" glyph-name="Rcaron" horiz-adv-x="1255" unicode="Ř"/><glyph d="M102 0v852h144l100 -86q23 47 73.5 80t114.5 33t115 -35q-16 -93 -27.5 -150t-15.5 -84l-12 -4q-46 23 -114 23t-118 -68v-561h-260zM664 1260v-35l-170 -252h-252l-170 252v35h168q48 -48 127 -113q123 107 129 113h168z" glyph-name="rcaron" horiz-adv-x="677" unicode="ř"/><glyph d="M601 1217q-111 0 -165.5 -42t-54.5 -107t54 -109t183 -109q227 -119 310.5 -231.5t79.5 -256.5q-4 -186 -138.5 -289.5t-347.5 -101.5q-147 2 -271 40t-188 89l107 222q188 -104 314 -104t185.5 41.5t59.5 99.5t-23.5 87t-39 44.5t-47 36t-50 31.5t-60.5 35.5t-63 37.5 q-178 104 -261 205.5t-83 247.5t121 264t335 118t386 -86l-76 -237q-156 74 -267 74zM860 1831v-35l-239 -252h-205l129 287h315z" glyph-name="Sacute" horiz-adv-x="1083" unicode="Ś"/><glyph d="M313 596q0 -37 142 -59q336 -39 336 -287q0 -135 -110 -207t-288 -72t-332 80l82 201q131 -70 267 -70q55 0 99 15.5t44 46.5t-32.5 44t-72.5 20t-47 7q-326 51 -325 281q0 135 107 209.5t263 74.5t312 -63l-72 -207q-137 57 -252 58q-51 0 -86 -17.5t-35 -54.5z M729 1260v-35l-240 -252h-204l129 287h315z" glyph-name="sacute" horiz-adv-x="851" unicode="ś"/><glyph d="M601 1217q-111 0 -165.5 -42t-54.5 -107t54 -109t183 -109q227 -119 310.5 -231.5t79.5 -256.5q-4 -186 -138.5 -289.5t-347.5 -101.5q-147 2 -271 40t-188 89l107 222q188 -104 314 -104t185.5 41.5t59.5 99.5t-23.5 87t-39 44.5t-47 36t-50 31.5t-60.5 35.5t-63 37.5 q-178 104 -261 205.5t-83 247.5t121 264t335 118t386 -86l-76 -237q-156 74 -267 74zM244 1544l172 287h252l172 -287h-193q-46 46 -106 109l-107 -109h-190z" glyph-name="Scircumflex" horiz-adv-x="1083" unicode="Ŝ"/><glyph d="M313 596q0 -37 142 -59q336 -39 336 -287q0 -135 -110 -207t-288 -72t-332 80l82 201q131 -70 267 -70q55 0 99 15.5t44 46.5t-32.5 44t-72.5 20t-47 7q-326 51 -325 281q0 135 107 209.5t263 74.5t312 -63l-72 -207q-137 57 -252 58q-51 0 -86 -17.5t-35 -54.5zM127 973 l172 287h252l172 -287h-193l-106 108l-107 -108h-190z" glyph-name="scircumflex" horiz-adv-x="851" unicode="ŝ"/><glyph d="M601 1217q-111 0 -165.5 -42t-54.5 -107t54 -109t183 -109q227 -119 310.5 -231.5t79.5 -263.5t-99.5 -249t-257.5 -124q72 -66 72 -152q0 -115 -91 -176.5t-220 -61.5q-29 0 -82 9q0 135 2 204q26 -6 64 -6t76 27t38 73t-29 74q-135 6 -247.5 42t-170.5 85l107 222 q188 -104 314 -104t185.5 41.5t59.5 99.5t-23.5 87t-39 44.5t-47 36t-50 31.5t-60.5 35.5t-63 37.5q-178 104 -261 205.5t-83 247.5t121 264t335 118t386 -86l-76 -237q-156 74 -267 74z" glyph-name="Scedilla" horiz-adv-x="1083" unicode="Ş"/><glyph d="M791 243q0 -107 -70 -171t-182 -86q78 -72 77 -156q0 -137 -123.5 -196.5t-271.5 -34.5l2 204q70 -14 124 11.5t54 77.5t-30 81q-195 6 -310 70l62 219q41 -23 129 -51.5t158 -28.5q133 0 133 64q0 33 -29 48t-102 28q-336 53 -336 282q0 135 106.5 205.5t266.5 70.5 t301 -57l-58 -209q-127 54 -248 54t-120 -68q0 -51 120 -70q182 -20 264.5 -100t82.5 -187z" glyph-name="scedilla" horiz-adv-x="851" unicode="ş"/><glyph d="M601 1217q-111 0 -165.5 -42t-54.5 -107t54 -109t183 -109q227 -119 310.5 -231.5t79.5 -256.5q-4 -186 -138.5 -289.5t-347.5 -101.5q-147 2 -271 40t-188 89l107 222q188 -104 314 -104t185.5 41.5t59.5 99.5t-23.5 87t-39 44.5t-47 36t-50 31.5t-60.5 35.5t-63 37.5 q-178 104 -261 205.5t-83 247.5t121 264t335 118t386 -86l-76 -237q-156 74 -267 74zM858 1831v-35l-170 -252h-252l-170 252v35h168l127 -113q124 108 129 113h168z" glyph-name="Scaron" horiz-adv-x="1083" unicode="Š"/><glyph d="M313 596q0 -37 142 -59q336 -39 336 -287q0 -135 -110 -207t-288 -72t-332 80l82 201q131 -70 267 -70q55 0 99 15.5t44 46.5t-32.5 44t-72.5 20t-47 7q-326 51 -325 281q0 135 107 209.5t263 74.5t312 -63l-72 -207q-137 57 -252 58q-51 0 -86 -17.5t-35 -54.5z M721 1260v-35l-170 -252h-252l-170 252v35h168q15 -15 127 -113l129 113h168z" glyph-name="scaron" horiz-adv-x="851" unicode="š"/><glyph d="M1044 1438v-236h-360v-1202h-66q102 -68 102 -176t-91.5 -170t-218.5 -62q-31 0 -84 9q0 33 1 101.5t1 102.5q14 -4 60 -4t80 30t34 79t-56 90h-38v1202h-357v236h993z" glyph-name="Tcommaaccent" horiz-adv-x="1095" unicode="Ţ"/><glyph d="M627 647h-201v-338q0 -111 133 -110q10 0 51 10q29 -168 35 -209q-74 -16 -145 -16q76 -76 75 -154q0 -115 -91 -176.5t-220 -61.5q-31 0 -84 9q2 68 2 204q26 -6 64 -6t76 27t38 70t-23.5 77.5t-60 71.5t-53.5 61q-57 88 -57 240v301h-135v27l24 178h111v285l237 28h23 v-313h201v-205z" glyph-name="tcommaaccent" horiz-adv-x="708" unicode="ţ"/><glyph d="M1044 1438v-234h-358v-1204h-276v1204h-359v234h993zM842 1831v-35l-170 -252h-252l-170 252v35h168q8 -8 127 -113q110 96 129 113h168z" glyph-name="Tcaron" horiz-adv-x="1095" unicode="Ť"/><glyph d="M627 647h-201v-334q0 -59 34 -86.5t75 -27.5t75 10q29 -168 35 -209q-66 -16 -139 -16q-340 0 -340 342v321h-135v27l24 178h111v285l237 28h23v-313h201v-205zM793 801l71 637h301l2 -37l-284 -623z" glyph-name="tcaron" horiz-adv-x="1253" unicode="ť"/><glyph d="M846 639h-160v-639h-276v639h-160v182h160v383h-359v234h993v-234h-358v-383h160v-182z" glyph-name="Tbar" horiz-adv-x="1095" unicode="Ŧ"/><glyph d="M627 647h-201v-125h102v-168h-102v-41q0 -59 34 -86.5t75 -27.5t75 10q29 -168 35 -209q-66 -16 -139 -16q-340 0 -340 342v28h-103v168h103v125h-135v27l24 178h111v285l237 28h23v-313h201v-205z" glyph-name="tbar" horiz-adv-x="708" unicode="ŧ"/><glyph d="M131 506v932h277v-920q0 -129 79.5 -216t196.5 -87t198 87t81 216v920h278v-932q0 -225 -146.5 -380t-411.5 -155t-408.5 155t-143.5 380zM550 1819q68 0 141 -27t102 -27q61 0 86 50l100 -25q10 -113 -43.5 -168t-117.5 -55t-140 27.5t-106 27.5q-54 0 -72 -49l-103 24 q-14 119 35.5 170.5t117.5 51.5z" glyph-name="Utilde" horiz-adv-x="1370" unicode="Ũ"/><glyph d="M446 -29q-161 0 -257.5 96.5t-96.5 256.5v528h262v-492q0 -76 46 -126t118 -50t122 49.5t50 124.5v494h260v-852h-159l-86 88q-98 -117 -259 -117zM391 1247q67 0 140 -26.5t102 -26.5q61 0 86 49l100 -24q10 -113 -44 -168.5t-134 -55.5q-47 0 -123 28t-106 28 q-54 0 -72 -50l-102 25q-14 119 36 170t117 51z" glyph-name="utilde" horiz-adv-x="1052" unicode="ũ"/><glyph d="M131 506v932h277v-920q0 -129 79.5 -216t196.5 -87t198 87t81 216v920h278v-932q0 -225 -146.5 -380t-411.5 -155t-408.5 155t-143.5 380zM983 1602h-596v182h596v-182z" glyph-name="Umacron" horiz-adv-x="1370" unicode="Ū"/><glyph d="M446 -29q-161 0 -257.5 96.5t-96.5 256.5v528h262v-492q0 -76 46 -126t118 -50t122 49.5t50 124.5v494h260v-852h-159l-86 88q-98 -117 -259 -117zM823 1030h-596v182h596v-182z" glyph-name="umacron" horiz-adv-x="1052" unicode="ū"/><glyph d="M131 506v932h277v-920q0 -129 79.5 -216t196.5 -87t198 87t81 216v920h278v-932q0 -225 -146.5 -380t-411.5 -155t-408.5 155t-143.5 380zM684 1544q-119 0 -188.5 86t-44.5 201h172q-10 -39 4 -84t54 -45t54.5 43t5.5 86h174q25 -111 -43.5 -199t-187.5 -88z" glyph-name="Ubreve" horiz-adv-x="1370" unicode="Ŭ"/><glyph d="M446 -29q-161 0 -257.5 96.5t-96.5 256.5v528h262v-492q0 -76 46 -126t118 -50t122 49.5t50 124.5v494h260v-852h-159l-86 88q-98 -117 -259 -117zM524 973q-119 0 -188.5 86t-44.5 201h172q-10 -39 4 -84.5t54 -45.5t54.5 43.5t6.5 86.5h174q25 -111 -44 -199t-188 -88z " glyph-name="ubreve" horiz-adv-x="1052" unicode="ŭ"/><glyph d="M467 1630q0 86 60.5 146.5t149.5 60.5t150.5 -60.5t61.5 -146.5t-61.5 -147.5t-149.5 -61.5t-149.5 61.5t-61.5 147.5zM604 1630.5q0 -28.5 22.5 -51.5t51.5 -23t51.5 23t22.5 51.5t-22.5 52t-51.5 23.5t-51.5 -23.5t-22.5 -52zM131 506v932h277v-920q0 -129 79.5 -216 t196.5 -87t198 87t81 216v920h278v-932q0 -225 -146.5 -380t-411.5 -155t-408.5 155t-143.5 380z" glyph-name="Uring" horiz-adv-x="1370" unicode="Ů"/><glyph d="M311 1057q0 86 61.5 147.5t149.5 61.5t149.5 -61.5t61.5 -147.5t-61.5 -146.5t-149.5 -60.5t-149.5 60.5t-61.5 146.5zM451 1058.5q0 -28.5 22.5 -52t50.5 -23.5t50 23.5t22 52t-22.5 52.5t-50.5 24t-50 -24t-22 -52.5zM446 -29q-161 0 -257.5 96.5t-96.5 256.5v528h262 v-492q0 -76 46 -126t118 -50t122 49.5t50 124.5v494h260v-852h-159l-86 88q-98 -117 -259 -117z" glyph-name="uring" horiz-adv-x="1052" unicode="ů"/><glyph d="M131 506v932h277v-920q0 -129 79.5 -216t196.5 -87t198 87t81 216v920h278v-932q0 -225 -146.5 -380t-411.5 -155t-408.5 155t-143.5 380zM768 1831v-35l-205 -252h-127l86 287h246zM1079 1831v-35l-205 -252h-129l86 287h248z" glyph-name="Uhungarumlaut" horiz-adv-x="1370" unicode="Ű"/><glyph d="M446 -29q-161 0 -257.5 96.5t-96.5 256.5v528h262v-492q0 -76 46 -126t118 -50t122 49.5t50 124.5v494h260v-852h-159l-86 88q-98 -117 -259 -117zM592 1260v-35l-205 -252h-127l86 287h246zM903 1260v-35l-205 -252h-129l86 287h248z" glyph-name="uhungarumlaut" horiz-adv-x="1052" unicode="ű"/><glyph d="M131 506v932h277v-920q0 -129 79.5 -216t196.5 -87t198 87t81 216v920h278v-932q0 -182 -99.5 -323.5t-281.5 -188.5q-2 -2 -10 -10.5t-10 -10.5t-8.5 -9t-8.5 -11t-8 -15.5t-6 -41.5q0 -55 54.5 -81t123.5 -12l2 -204q-147 -25 -271 34.5t-124 196.5q0 76 63 143 q-254 8 -390 161t-136 372z" glyph-name="Uogonek" horiz-adv-x="1370" unicode="Ų"/><glyph d="M950 852v-852q-2 -2 -11 -10t-10 -9t-9.5 -8.5t-9.5 -10.5t-6 -9t-6 -11t-4 -17.5t-3 -28.5q0 -55 54 -81t124 -12l2 -204q-147 -25 -271 34.5t-124 196.5q0 113 110 178l-81 80q-98 -117 -259 -117t-257.5 96.5t-96.5 256.5v528h262v-492q0 -76 46 -126t118 -50 t122 49.5t50 124.5v494h260z" glyph-name="uogonek" horiz-adv-x="1052" unicode="ų"/><glyph d="M1700 1438h285l-596 -1452h-54l-346 876l-344 -876h-53l-580 1452h303l314 -803l342 817h49l348 -829zM698 1544l172 287h252l172 -287h-192l-107 109l-106 -109h-191z" glyph-name="Wcircumflex" horiz-adv-x="1996" unicode="Ŵ"/><glyph d="M1143 852h258l-422 -866h-47l-236 463l-235 -463h-47l-416 866h274l185 -387l223 403h49l223 -403zM403 973q87 143 172 287h252l172 -287h-192l-107 108l-106 -108h-191z" glyph-name="wcircumflex" horiz-adv-x="1396" unicode="ŵ"/><glyph d="M778 0h-278v649l-496 789h326l315 -496l316 496h313l-496 -789v-649zM340 1544l172 287h252l172 -287h-193q-46 46 -106 109l-107 -109h-190z" glyph-name="Ycircumflex" horiz-adv-x="1280" unicode="Ŷ"/><glyph d="M729 852h270l-639 -1364h-249l-23 20l287 594l-371 750h291l217 -455zM207 973l172 287h252l172 -287h-193l-106 108l-107 -108h-190z" glyph-name="ycircumflex" horiz-adv-x="1011" unicode="ŷ"/><glyph d="M778 0h-278v649l-496 789h326l315 -496l316 496h313l-496 -789v-649zM338 1693q0 54 37 92t90 38t91 -38t38 -92t-38 -90t-91 -36t-90 36t-37 90zM670 1693q0 54 36 92t90 38t92 -38t38 -92t-38 -90t-91 -36t-90 36t-37 90z" glyph-name="Ydieresis" horiz-adv-x="1280" unicode="Ÿ"/><glyph d="M1073 233v-233h-1014l-20 39l645 1165h-573v234h979l20 -39l-643 -1166h606zM883 1831v-35l-240 -252h-205l129 287h316z" glyph-name="Zacute" horiz-adv-x="1146" unicode="Ź"/><glyph d="M862 207v-207h-790l-21 45l447 604h-408l-2 203h784l15 -47l-416 -598h391zM766 1260v-35l-240 -252h-204l129 287h315z" glyph-name="zacute" horiz-adv-x="937" unicode="ź"/><glyph d="M1073 233v-233h-1014l-20 39l645 1165h-573v234h979l20 -39l-643 -1166h606zM465 1693q0 54 37 92t90 38t91 -38t38 -92t-38 -90t-91 -36t-90 36t-37 90z" glyph-name="Zdotaccent" horiz-adv-x="1146" unicode="Ż"/><glyph d="M862 207v-207h-790l-21 45l447 604h-408l-2 203h784l15 -47l-416 -598h391zM340 1121q0 54 37 92t90 38t91 -37.5t38 -91.5t-38 -90.5t-91 -36.5t-90 36t-37 90z" glyph-name="zdotaccent" horiz-adv-x="937" unicode="ż"/><glyph d="M1073 233v-233h-1014l-20 39l645 1165h-573v234h979l20 -39l-643 -1166h606zM909 1831v-35l-170 -252h-252l-170 252v35h168l127 -113q124 108 129 113h168z" glyph-name="Zcaron" horiz-adv-x="1146" unicode="Ž"/><glyph d="M862 207v-207h-790l-21 45l447 604h-408l-2 203h784l15 -47l-416 -598h391zM793 1260v-35l-170 -252h-252l-170 252v35h168q48 -48 127 -113q123 107 129 113h168z" glyph-name="zcaron" horiz-adv-x="937" unicode="ž"/><glyph d="M821 647h-264l-123 -606q-25 -121 -87 -201t-139 -107.5t-151.5 -27.5t-138.5 27l62 213q156 -41 188 123l119 579h-195v27l25 180h213l57 272q23 106 75 179t112.5 106t155.5 49t208 -22l-45 -203q-47 10 -94 11t-89 -32.5t-55 -95.5l-55 -264h221v-207z" glyph-name="florin" horiz-adv-x="870" unicode="ƒ"/><glyph d="M440 1592q0 93 77 169t185 76q68 0 129 -33l74 152h295v-35l-270 -209q37 -63 37 -138t-46.5 -141.5t-119.5 -95.5l604 -1337h-305l-107 233h-581l-107 -233h-307l608 1337q-74 29 -120 95.5t-46 159.5zM702 909l-194 -448h387zM588 1581q0 -47 33.5 -83t81.5 -36t82 35 t34 84t-33.5 83t-81.5 34t-82 -35t-34 -82z" glyph-name="Aringacute" horiz-adv-x="1402" unicode="Ǻ"/><glyph d="M242 1019q0 93 76.5 169t185.5 76q68 0 127 -33l71 149h297v-34l-274 -211q43 -61 43 -129q0 -106 -78 -181q197 -100 201 -360l-2 -467h-146l-90 86q-33 -41 -103 -77t-192 -36t-215.5 79t-93.5 203t90.5 200.5t238.5 76.5t265 -63v29q0 70 -62.5 120t-164.5 50 t-209 -45l-55 196q80 33 137 45q-47 64 -47 157zM389 1008q0 -47 34 -83t82 -36t82 34.5t34 84t-34 83t-82 33.5t-82 -34.5t-34 -81.5zM307 258q0 -43 40.5 -70.5t102.5 -27.5t126.5 41t66.5 90v8q-84 59 -207 57q-59 0 -94 -27.5t-35 -70.5z" glyph-name="aringacute" horiz-adv-x="978" unicode="ǻ"/><glyph d="M1276 233h575v-233h-852v231h-542l-162 -231h-346l1020 1438h862v-234h-555v-284h446v-236h-446v-451zM999 467v567l-385 -567h385zM1483 1831v-35l-240 -252h-205l129 287h316z" glyph-name="AEacute" horiz-adv-x="1959" unicode="Ǽ"/><glyph d="M1188 176q119 0 239 74l95 -170q-133 -106 -372 -106t-386 157q-137 -160 -389 -160q-135 0 -232.5 80t-97.5 206t93 207t233 81q88 0 161.5 -32t110.5 -69v35q0 80 -59.5 133.5t-161.5 53.5t-199 -50l-65 195q130 70 320 67t304 -124q131 127 322 127t312.5 -141.5 t113.5 -364.5h-623q8 -82 85 -140.5t196 -58.5zM303 266q0 -45 41.5 -75.5t105.5 -30.5t120.5 35t72.5 88v12q-74 82 -205 80q-61 0 -98 -32t-37 -77zM1098 680q-68 0 -118 -45t-58 -98h344q-6 61 -53 102t-115 41zM1124 1260v-35l-239 -252h-205l129 287h315z" glyph-name="aeacute" horiz-adv-x="1581" unicode="ǽ"/><glyph d="M1124 1831v-35l-239 -252h-205l129 287h315zM59 719q0 313 215 530t547 217q143 0 281 -49l106 193l178 -99l-104 -188q143 -104 223 -262t80 -342q0 -313 -217 -530.5t-547 -217.5q-133 0 -266 43l-129 -235l-174 98l125 225q-150 102 -234 264.5t-84 352.5zM356 712 q0 -228 154 -368l467 846q-76 29 -156 29q-190 0 -327.5 -139.5t-137.5 -367.5zM1288 717q0 219 -141 364l-463 -837q61 -20 137 -21q190 0 328.5 137.5t138.5 356.5z" glyph-name="Oslashacute" horiz-adv-x="1642" unicode="Ǿ"/><glyph d="M815 1260v-35l-240 -252h-204l129 287h315zM522 -29q-68 0 -145 21l-90 -170l-123 65l86 164q-92 61 -146.5 158.5t-54.5 218.5q0 199 140.5 326t336.5 127q76 0 154 -23l80 150l127 -62l-80 -149q195 -133 194 -369q0 -201 -140 -329t-339 -128zM311 434q0 -110 51 -174 l216 406q-37 8 -56 8q-88 0 -149.5 -65t-61.5 -175zM522 180q88 0 150.5 67t62.5 169t-43 166l-213 -398q14 -4 43 -4z" glyph-name="oslashacute" horiz-adv-x="1050" unicode="ǿ"/><glyph d="M601 1217q-111 0 -165.5 -42t-54.5 -107t54 -109t183 -109q227 -119 310.5 -231.5t79.5 -256.5q-4 -186 -138.5 -289.5t-347.5 -101.5q-147 2 -271 40t-188 89l107 222q188 -104 314 -104t185.5 41.5t59.5 99.5t-23.5 87t-39 44.5t-47 36t-50 31.5t-60.5 35.5t-63 37.5 q-178 104 -261 205.5t-83 247.5t121 264t335 118t386 -86l-76 -237q-156 74 -267 74zM350 -510l41 391h299l2 -35l-252 -370z" glyph-name="Scommaaccent" horiz-adv-x="1083" unicode="Ș"/><glyph d="M313 596q0 -37 142 -59q336 -39 336 -287q0 -135 -110 -207t-288 -72t-332 80l82 201q131 -70 267 -70q55 0 99 15.5t44 46.5t-32.5 44t-72.5 20t-47 7q-326 51 -325 281q0 135 107 209.5t263 74.5t312 -63l-72 -207q-137 57 -252 58q-51 0 -86 -17.5t-35 -54.5z M238 -510l41 391h299l2 -35l-252 -370z" glyph-name="scommaaccent" horiz-adv-x="851" unicode="ș"/><glyph d="M1044 1438v-234h-358v-1204h-276v1204h-359v234h993zM360 -510l41 391h299l2 -35l-251 -370z" glyph-name="uni021A" horiz-adv-x="1095" unicode="Ț"/><glyph d="M627 647h-201v-334q0 -59 34 -86.5t75 -27.5t75 10q29 -168 35 -209q-66 -16 -139 -16q-340 0 -340 342v321h-135v27l24 178h111v285l237 28h23v-313h201v-205zM217 -510l41 391h299l2 -35l-252 -370z" glyph-name="uni021B" horiz-adv-x="708" unicode="ț"/><glyph d="M61 973q87 143 172 287h252l172 -287h-192l-107 108l-106 -108h-191z" glyph-name="circumflex" horiz-adv-x="718" unicode="ˆ"/><glyph d="M666 1260v-35l-170 -252h-252l-170 252v35h168q48 -48 127 -113l129 113h168z" glyph-name="caron" horiz-adv-x="739" unicode="ˇ"/><glyph d="M299 973q-119 0 -188.5 86t-44.5 201h172q-10 -39 4 -84.5t54 -45.5t54.5 43.5t5.5 86.5h174q25 -111 -43.5 -199t-187.5 -88z" glyph-name="breve" horiz-adv-x="595" unicode="˘"/><glyph d="M61 1121q0 54 37 92t90 38t91 -37.5t38 -91.5t-37.5 -90.5t-91.5 -36.5t-90.5 36t-36.5 90z" glyph-name="dotaccent" horiz-adv-x="378" unicode="˙"/><glyph d="M61 1008q0 106 76 182t186 76t186.5 -76t76.5 -183t-77 -183t-187 -76t-185.5 77t-75.5 183zM209 1009q0 -48 33.5 -83t81.5 -35t82 35t34 83t-33.5 82.5t-81.5 34.5t-82 -34.5t-34 -82.5z" glyph-name="ring" horiz-adv-x="647" unicode="˚"/><glyph d="M274 -102q0 -45 38 -72t77 -27t64 6q2 -70 2 -204q-53 -8 -84 -9q-127 0 -218.5 61.5t-91.5 176.5q0 80 62.5 141.5t152.5 79.5l60 -26v-25q-2 -2 -11.5 -9t-11.5 -9t-9 -8.5t-9 -9.5t-7 -10t-6 -11t-4.5 -16t-3.5 -29z" glyph-name="ogonek" horiz-adv-x="518" unicode="˛"/><glyph d="M219 1247q67 0 140 -26.5t102 -26.5q61 0 86 49l100 -24q10 -113 -44 -168.5t-134 -55.5q-47 0 -123 28t-106 28q-54 0 -72 -50l-102 25q-14 119 36 170t117 51z" glyph-name="tilde" horiz-adv-x="712" unicode="˜"/><glyph d="M393 1260v-35l-205 -252h-127l86 287h246zM705 1260v-35l-205 -252h-129l86 287h248z" glyph-name="hungarumlaut" horiz-adv-x="765" unicode="˝"/><glyph d="M115 -510l41 391h299l2 -35l-252 -370z" glyph-name="uni0326" horiz-adv-x="571" unicode="̦"/><glyph d="M1479 0h-580l-16 33q285 385 284 723q0 217 -116.5 339t-279.5 122t-277.5 -122t-114.5 -339q0 -334 285 -723l-19 -33h-579v233h266q-106 80 -180 232.5t-74 314.5t60.5 297t213.5 262t421 127t421.5 -127t213.5 -262t60 -298t-69.5 -309t-184.5 -237h265v-233z" glyph-name="Omega" horiz-adv-x="1546" unicode="Ω"/><glyph d="M1024 649h-139l49 -649h-252l-43 649h-215l-43 -649h-252l47 649h-135v203h983v-203z" glyph-name="pi" horiz-adv-x="1064" unicode="π"/><glyph d="M1700 1438h285l-596 -1452h-54l-346 876l-344 -876h-53l-580 1452h303l314 -803l342 817h49l348 -829zM659 1831h316l129 -287h-205l-240 252v35z" glyph-name="Wgrave" horiz-adv-x="1996" unicode="Ẁ"/><glyph d="M1143 852h258l-422 -866h-47l-236 463l-235 -463h-47l-416 866h274l185 -387l223 403h49l223 -403zM375 1260h315l129 -287h-205l-239 252v35z" glyph-name="wgrave" horiz-adv-x="1396" unicode="ẁ"/><glyph d="M1700 1438h285l-596 -1452h-54l-346 876l-344 -876h-53l-580 1452h303l314 -803l342 817h49l348 -829zM1333 1831v-35l-239 -252h-205l129 287h315z" glyph-name="Wacute" horiz-adv-x="1996" unicode="Ẃ"/><glyph d="M1143 852h258l-422 -866h-47l-236 463l-235 -463h-47l-416 866h274l185 -387l223 403h49l223 -403zM1044 1260v-35l-239 -252h-205l129 287h315z" glyph-name="wacute" horiz-adv-x="1396" unicode="ẃ"/><glyph d="M1700 1438h285l-596 -1452h-54l-346 876l-344 -876h-53l-580 1452h303l314 -803l342 817h49l348 -829zM698 1693q0 54 37 92t90 38t91 -38t38 -92t-37 -90t-91 -36t-91 36t-37 90zM1030 1693q0 54 37 92t90 38t91 -38t38 -92t-38 -90t-91 -36t-90 36t-37 90z" glyph-name="Wdieresis" horiz-adv-x="1996" unicode="Ẅ"/><glyph d="M1143 852h258l-422 -866h-47l-236 463l-235 -463h-47l-416 866h274l185 -387l223 403h49l223 -403zM403 1121q0 54 37 92t90 38t91 -37.5t38 -91.5t-37.5 -90.5t-91.5 -36.5t-90.5 36t-36.5 90zM735 1121q0 54 37 92t90 38t91 -37.5t38 -91.5t-38 -90.5t-91 -36.5t-90 36 t-37 90z" glyph-name="wdieresis" horiz-adv-x="1396" unicode="ẅ"/><glyph d="M154 0v1438l1020 -2l16 -33l-275 -518q141 -8 255 -120t114 -300q0 -260 -221 -396.5t-522 -58.5l37 223l34 11q127 -41 255 21.5t128 201.5t-112.5 213t-282.5 31l-31 39l219 452h-358v-1202h-276z" glyph-name="uni1E9E" horiz-adv-x="1357" unicode="ẞ"/><glyph d="M778 0h-278v649l-496 789h326l315 -496l316 496h313l-496 -789v-649zM317 1833h316l129 -287h-205l-240 252v35z" glyph-name="Ygrave" horiz-adv-x="1280" unicode="Ỳ"/><glyph d="M729 852h270l-639 -1364h-249l-23 20l287 594l-371 750h291l217 -455zM184 1260h316l129 -287h-205l-240 252v35z" glyph-name="ygrave" horiz-adv-x="1011" unicode="ỳ"/><glyph glyph-name="uni2009" horiz-adv-x="102" unicode=" "/><glyph d="M936 391h-864v230h864v-230z" glyph-name="endash" horiz-adv-x="1007" unicode="–"/><glyph d="M1507 391h-1435v230h1435v-230z" glyph-name="emdash" horiz-adv-x="1579" unicode="—"/><glyph d="M453 1436l-72 -637h-301l-2 37l284 622z" glyph-name="quoteleft" horiz-adv-x="571" unicode="‘"/><glyph d="M111 801l71 637h301l2 -37l-284 -623z" glyph-name="quoteright" horiz-adv-x="571" unicode="’"/><glyph d="M84 -324l72 637h301l2 -37l-285 -622z" glyph-name="quotesinglbase" horiz-adv-x="571" unicode="‚"/><glyph d="M453 1436l-72 -637h-301l-2 37l284 622zM872 1436l-71 -637h-301l-2 37l284 622z" glyph-name="quotedblleft" horiz-adv-x="989" unicode="“"/><glyph d="M111 801l71 637h301l2 -37l-284 -623zM530 801l72 637h301l2 -37l-284 -623z" glyph-name="quotedblright" horiz-adv-x="989" unicode="”"/><glyph d="M84 -324l72 637h301l2 -37l-285 -622zM510 -324l72 637h301l2 -37l-285 -622z" glyph-name="quotedblbase" horiz-adv-x="997" unicode="„"/><glyph d="M952 903h-309v-1171h-240v1171h-311v205h311v330h240v-330h309v-205z" glyph-name="dagger" horiz-adv-x="1044" unicode="†"/><glyph d="M958 338h-313v-606h-239v606h-314v207h314v358h-312v205h312v330h239v-330h309v-205h-309v-358h313v-207z" glyph-name="daggerdbl" horiz-adv-x="1050" unicode="‡"/><glyph d="M133 498q0 106 71.5 181t175.5 75t179.5 -76t75.5 -180t-74.5 -176t-180.5 -72t-176.5 71t-70.5 177z" glyph-name="bullet" horiz-adv-x="768" unicode="•"/><glyph d="M113 150q0 72 51 123t122 51t122 -51t51 -123t-50.5 -121t-122.5 -49t-122.5 49t-50.5 121zM684 150q0 72 51 123t122 51t122 -51t51 -123t-50 -121t-123 -49t-123 49t-50 121zM1257 150q0 72 51.5 123t122.5 51t122 -51t51 -123t-51 -121t-123 -49t-122.5 49t-50.5 121z " glyph-name="ellipsis" horiz-adv-x="1716" unicode="…"/><glyph d="M1134 -20q-132 0 -229.5 91t-97.5 228t98.5 228t230.5 91t227 -91t95 -228t-96 -228t-228 -91zM1136.5 154q53.5 0 81 39.5t27.5 105.5q0 147 -110 147q-51 0 -82 -41t-31 -105t30.5 -105t84 -41zM380 719q-132 0 -229.5 92t-97.5 229.5t98.5 227.5t230.5 90t227.5 -90 t95.5 -227.5t-96.5 -229.5t-228.5 -92zM383 893q53 0 82 41.5t29 107.5t-29 105t-82 39t-83 -40t-30 -105.5t30 -106.5t83 -41zM133 94l1065 1270l160 -135l-1063 -1262zM1839 -20q-131 0 -228.5 91t-97.5 228t98.5 228t230.5 91t226.5 -90t94.5 -228t-96.5 -229t-227.5 -91 zM1843 154q53 0 81 39.5t28 105.5q0 147 -111 147q-51 0 -81.5 -41t-30.5 -105t30.5 -105t83.5 -41z" glyph-name="perthousand" horiz-adv-x="2217" unicode="‰"/><glyph d="M467 -31l-412 447v43l416 459l174 -130l-303 -346l303 -340z" glyph-name="guilsinglleft" horiz-adv-x="716" unicode="‹"/><glyph d="M250 918l412 -447v-43l-416 -459l-174 129l303 346l-303 340z" glyph-name="guilsinglright" horiz-adv-x="716" unicode="›"/><glyph d="M-385 57l1061 1368l119 -94l-1059 -1360z" glyph-name="fraction" horiz-adv-x="411" unicode="⁄"/><glyph d="M389 842q-145 0 -242.5 107.5t-97.5 280.5t98.5 280.5t244 107.5t243.5 -107.5t98 -279.5t-99.5 -280.5t-244.5 -108.5zM391.5 999q69.5 0 114.5 63.5t45 167.5t-45 169t-116 65t-116 -63.5t-45 -170.5t46.5 -169t116 -62z" glyph-name="uni2070" horiz-adv-x="782" unicode="⁰"/><glyph d="M717 1110v-143h-99v-105h-172v105h-393l-41 63l535 596l69 -27l2 -489h99zM446 1110v184l-161 -184h161z" glyph-name="uni2074" horiz-adv-x="784" unicode="⁴"/><glyph d="M590 1599v-143h-328l-10 -131q78 37 170 19t153.5 -75t63.5 -173t-95.5 -185t-202.5 -69t-188 28.5t-118 61.5l51 123l25 -2q25 -18 88 -38t111 -20t98.5 30t50.5 86t-50.5 87t-124.5 31t-147 -55l-59 26l39 399h473z" glyph-name="uni2075" horiz-adv-x="704" unicode="⁵"/><glyph d="M367 842q-123 0 -215.5 79.5t-92.5 227.5q0 205 146.5 336t367.5 131l33 -125l-14 -23q-111 -2 -202 -53t-116 -129q25 20 89.5 32.5t130.5 -0.5t121 -73.5t55 -162.5t-90 -171t-213 -69zM369 989q51 0 90 32t39 79t-41 77.5t-89 30.5t-87 -33.5t-39 -78.5t38 -76t89 -31 z" glyph-name="uni2076" horiz-adv-x="718" unicode="⁶"/><glyph d="M51 1456v143h574l22 -36l-313 -701h-209l281 594h-355z" glyph-name="uni2077" horiz-adv-x="661" unicode="⁷"/><glyph d="M361 844q-153 0 -236.5 65.5t-83.5 167.5q0 68 38 117t89 66q-76 41 -76 151q0 78 70.5 142.5t198.5 64.5t198 -64.5t70 -142.5q0 -109 -78 -151q51 -16 89 -65.5t38 -117.5q0 -102 -82 -167.5t-235 -65.5zM496 1096q0 41 -35 68.5t-102 27.5t-102.5 -27.5t-35.5 -68.5 t39 -69t101 -26t98.5 28t36.5 67zM362 1311q98 0 99 75q0 31 -23.5 54.5t-75.5 23.5t-78 -23.5t-26 -54t24.5 -53t79.5 -22.5z" glyph-name="uni2078" horiz-adv-x="718" unicode="⁸"/><glyph d="M352 1618q123 0 215 -80t92 -225q0 -205 -146 -334t-368 -129l-32 125l14 22q113 4 203 52.5t114 126.5q-25 -23 -88.5 -35.5t-129.5 1.5t-121.5 75t-55.5 163t90 170t213 68zM350 1470q-51 0 -90 -30.5t-39 -78.5t41 -79t89 -31t87 34t39 79t-38 75.5t-89 30.5z" glyph-name="uni2079" horiz-adv-x="718" unicode="⁹"/><glyph d="M389 -227q-145 0 -242.5 107.5t-97.5 280.5t98.5 280.5t244 107.5t243.5 -107.5t98 -279.5t-99.5 -280.5t-244.5 -108.5zM391.5 -70q69.5 0 114.5 64t45 168t-45 168.5t-116 64.5t-116 -63.5t-45 -170.5t46.5 -169t116 -62z" glyph-name="uni2080" horiz-adv-x="782" unicode="₀"/><glyph d="M217 -207v531l-106 -43l-50 131l297 137h33v-756h-174z" glyph-name="uni2081" horiz-adv-x="546" unicode="₁"/><glyph d="M635 -55v-152h-596l-16 35q258 215 329.5 301t71.5 141t-36 84t-83 29t-88 -22.5t-61 -53.5h-25l-84 111q41 57 120 94t161 37q117 -4 197.5 -73.5t80.5 -192.5t-73 -205.5t-79 -88.5l-44 -44h225z" glyph-name="uni2082" horiz-adv-x="710" unicode="₂"/><glyph d="M78 530h538l17 -34l-182 -244q57 -2 122.5 -65.5t65.5 -162.5t-93 -175t-241 -76t-270 84l57 127h27q20 -18 78.5 -37t109.5 -19t100.5 31t49.5 87t-64.5 92t-175.5 7l-29 29l170 213h-280v143z" glyph-name="uni2083" horiz-adv-x="704" unicode="₃"/><glyph d="M717 41v-143h-99v-105h-172v105h-393l-41 63l535 596l69 -27l2 -489h99zM446 41v184l-161 -184h161z" glyph-name="uni2084" horiz-adv-x="784" unicode="₄"/><glyph d="M590 530v-143h-328l-10 -131q78 38 170 20t153.5 -75t63.5 -173t-95.5 -185.5t-202.5 -69.5t-188 28.5t-118 61.5l51 123l25 -2q25 -18 88 -38t111 -20t98.5 30t50.5 86t-50.5 87t-124.5 31t-147 -56l-59 27l39 399h473z" glyph-name="uni2085" horiz-adv-x="704" unicode="₅"/><glyph d="M367 -227q-123 0 -215.5 79.5t-92.5 227.5q0 205 146.5 336t367.5 131l33 -125l-14 -23q-111 -2 -202 -53t-116 -129q25 20 89.5 32.5t130.5 -0.5t121 -73t55 -162t-90 -171.5t-213 -69.5zM369 -80q51 0 90 32t39 79t-41 77.5t-89 30.5t-87 -33.5t-39 -78.5t38 -76 t89 -31z" glyph-name="uni2086" horiz-adv-x="718" unicode="₆"/><glyph d="M51 387v143h574l22 -36l-313 -701h-209l281 594h-355z" glyph-name="uni2087" horiz-adv-x="661" unicode="₇"/><glyph d="M361 -227q-153 0 -236.5 65.5t-83.5 167.5q0 68 38 117t89 65q-76 41 -76 152q0 78 70.5 142.5t198.5 64.5t198 -64.5t70 -142.5q0 -109 -78 -152q51 -16 89 -65t38 -117q0 -102 -82 -167.5t-235 -65.5zM496 25q0 41 -35 68.5t-102 27.5t-102.5 -27.5t-35.5 -68.5t39 -69 t101 -26t98.5 28t36.5 67zM362 240q98 0 99 75q0 31 -23.5 54.5t-75.5 23.5t-78 -23.5t-26 -54t24.5 -53t79.5 -22.5z" glyph-name="uni2088" horiz-adv-x="718" unicode="₈"/><glyph d="M352 541q123 0 215 -80t92 -225q0 -205 -146 -334t-368 -129l-32 125l14 22q113 4 203 52t114 126q-25 -23 -88.5 -35t-129.5 1t-121.5 74.5t-55.5 163.5t90 170.5t213 68.5zM350 393q-51 0 -90 -30.5t-39 -78.5t41 -79t89 -31t87 34t39 79t-38 75.5t-89 30.5z" glyph-name="uni2089" horiz-adv-x="718" unicode="₉"/><glyph d="M182 666q0 16 4 61h-145v25l16 143h160q72 213 254 340t422 127q297 0 516 -199l-168 -178q-158 145 -332 145q-123 0 -225 -63t-154 -172h549v-27l-18 -141h-586q-4 -45 -4 -65t6 -64h561v-25l-18 -141h-485q51 -104 154.5 -165.5t232.5 -61.5q190 0 340 125 q94 -107 151 -164q-199 -195 -514 -195q-242 0 -422 127t-254 334h-223v27l16 139h170q-4 52 -4 68z" glyph-name="Euro" horiz-adv-x="1468" unicode="€"/><glyph d="M586 -29q-170 0 -271.5 114t-103.5 271v21q-27 -20 -109 -82l-98 139q119 86 207 158v393q0 258 101.5 384t258.5 126t237.5 -93t80.5 -250t-108.5 -303.5t-327.5 -338.5l2 -125q-2 -94 51 -153.5t131 -59.5t129 49t74 119l153 -37q-68 -332 -407 -332zM453 1008v-244 q84 88 128 138t85 126t41 137q0 158 -111 158q-143 0 -143 -315z" glyph-name="afii61289" horiz-adv-x="1011" unicode="ℓ"/><glyph d="M946 1335h260v-1335h-260v539l-534 344v-883h-258v1337l28 19l764 -510v489zM1741 530q-180 0 -302 120t-122 298t122 296t302 118t302 -118t122 -297t-122 -298t-302 -119zM1740 745q73 0 120 56.5t47 146.5t-47.5 145.5t-119.5 55.5t-119.5 -55.5t-47.5 -145.5 t47 -146.5t120 -56.5zM1565 220q0 73 51 124t123 51t123 -51t51 -124t-51.5 -122t-123.5 -49t-122.5 49t-50.5 122z" glyph-name="afii61352" horiz-adv-x="2207" unicode="№"/><glyph d="M760 1102q168 0 260 -80t92 -206t-102.5 -195.5t-241.5 -69.5l-31 2v-191h-180l-2 713q109 27 205 27zM794 711q48 0 90 29.5t42 79.5t-38 81t-104 31q-14 0 -47 -4v-215q9 -2 57 -2zM51 718q0 308 213 524t523 216t524.5 -216t214.5 -524t-214 -523t-524 -215 t-523.5 215t-213.5 523zM203 717q0 -256 170 -433.5t417.5 -177.5t419.5 177.5t172 433.5t-171 432t-419 176t-418.5 -176t-170.5 -432z" glyph-name="uni2117" horiz-adv-x="1576" unicode="℗"/><glyph d="M406 1292q-47 0 -79 -19t-32 -53t29.5 -51.5t94.5 -34.5q121 -32 209.5 -87.5t88.5 -175.5t-95.5 -177t-257.5 -57t-278 65l37 152q39 -18 121 -39.5t137 -21.5t90 19t35 50q0 66 -111 96q-225 59 -263 131t-38 136q0 111 89 170t235 59t268 -55l-45 -156 q-125 49 -235 49zM1032 645h-180v793l33 8l342 -348l364 348l33 -8v-793h-180v430l-203 -201h-16l-193 189v-418z" glyph-name="uni2120" horiz-adv-x="1722" unicode="℠"/><glyph d="M713 1438v-162h-236v-631h-182v631h-234v162h652zM985 645h-180v793l35 8l340 -348l364 348l35 -8v-793h-180v430l-203 -201h-16l-195 189v-418z" glyph-name="trademark" horiz-adv-x="1675" unicode="™"/><glyph d="M848 76q193 0 350.5 78.5t247.5 201.5l82 -67q-109 -152 -284 -234t-396 -82q-338 0 -567.5 210.5t-229.5 526.5t219.5 536t539.5 220t539.5 -222t219.5 -523l-1159 -2v-483q78 -72 198.5 -116t239.5 -44zM814 1358q-108 0 -219.5 -38t-184.5 -103v-396h813v387 q-76 70 -188.5 110t-220.5 40z" glyph-name="estimated" horiz-adv-x="1622" unicode="℮"/><glyph d="M2015 805v-182h-1630l182 -181l-104 -114l-361 360v43l361 369l104 -111l-182 -184h1630z" glyph-name="arrowleft" horiz-adv-x="2117" unicode="←"/><glyph d="M606 -268h-184v1630l-180 -182l-115 102l362 363h43l367 -363l-111 -102l-182 182v-1630z" glyph-name="arrowup" horiz-adv-x="1028" unicode="↑"/><glyph d="M102 623v182h1631l-183 180l103 115l362 -361v-43l-362 -368l-103 110l183 185h-1631z" glyph-name="arrowright" horiz-adv-x="2117" unicode="→"/><glyph d="M422 1440h184v-1630l180 182l113 -105l-360 -360h-43l-369 360l113 105l182 -182v1630z" glyph-name="arrowdown" horiz-adv-x="1028" unicode="↓"/><glyph d="M529 -27q-208 0 -345 127t-137 327t132 327t337 127q94 0 162 -62q-37 143 -185.5 264t-355.5 166l-24 29q49 123 71 184q385 -86 603.5 -339t218.5 -625q0 -256 -134.5 -390.5t-342.5 -134.5zM524 180q86 0 149.5 66.5t63.5 179.5t-62.5 180.5t-152.5 67.5t-150.5 -66.5 t-60.5 -180.5t63.5 -180.5t149.5 -66.5z" glyph-name="partialdiff" horiz-adv-x="1054" unicode="∂"/><glyph d="M1399 2h-1376l669 1458h45zM702 938l-296 -688h587z" glyph-name="uni2206" horiz-adv-x="1421" unicode="∆"/><glyph d="M936 -319v1538h-504v-1538h-278v1757h1058v-1757h-276z" glyph-name="product" horiz-adv-x="1366" unicode="∏"/><glyph d="M1120 -100v-219h-1038l-16 32l569 846l-569 844l16 35h1001v-219h-606l457 -648v-24l-432 -647h618z" glyph-name="summation" horiz-adv-x="1183" unicode="∑"/><glyph d="M928 588h-856v229h856v-229z" glyph-name="minus" horiz-adv-x="999" unicode="−"/><glyph d="M1313 1626l-676 -2132h-49l-324 873l-155 -58l-80 215l360 135l205 -559l498 1604z" glyph-name="radical" horiz-adv-x="1312" unicode="√"/><glyph d="M1190 999q133 0 231.5 -87t98.5 -221t-97.5 -221t-234.5 -87q-96 0 -184.5 40t-202.5 124q-219 -164 -410 -164q-135 0 -232.5 87t-97.5 221t97.5 221t247.5 87t374 -168q224 168 410 168zM1202 793q-28 0 -42.5 -2.5t-32 -10.5t-29 -13t-31.5 -19.5t-29.5 -20.5 t-35 -25.5t-33.5 -25.5q131 -96 221 -96q49 0 88 25.5t39 82.5t-43.5 81t-71.5 24zM376 590q30 0 41 1t23.5 6t21.5 8t24.5 12.5t22.5 13.5t24.5 16t24.5 17.5t26.5 19.5t27.5 21q-135 98 -221 98q-51 0 -89 -25.5t-38 -83t41 -81t71 -23.5z" glyph-name="infinity" horiz-adv-x="1581" unicode="∞"/><glyph d="M199 1335q0 106 34.5 179t87 106t140.5 49t203 -22l-33 -189q-72 23 -130.5 -8t-56.5 -123v-1530q0 -106 -34.5 -179t-87 -105.5t-140 -49t-202.5 22.5l30 188q70 -25 130.5 7t58.5 124v1530z" glyph-name="integral" horiz-adv-x="643" unicode="∫"/><glyph d="M328 670q66 0 195.5 -44t178.5 -44q100 0 148 69l96 -6q29 -150 -54 -227.5t-192 -77.5q-68 0 -195.5 42t-174.5 42q-113 0 -154 -68l-94 6q-25 162 55 235t191 73zM338 1051q56 0 185.5 -44t178.5 -44q100 0 148 71l96 -6q29 -150 -54 -228.5t-192 -78.5 q-68 0 -195.5 43t-176.5 43t-91.5 -19.5t-60.5 -48.5l-94 4q-33 234 83.5 271t172.5 37z" glyph-name="approxequal" horiz-adv-x="1028" unicode="≈"/><glyph d="M72 399v228h299l59 149h-358v230h456l117 284l195 -86l-80 -198h180v-230h-278l-62 -149h340v-228h-436l-131 -319l-195 86l94 233h-200z" glyph-name="notequal" horiz-adv-x="1011" unicode="≠"/><glyph d="M987 217h-874v227h874v-227zM985 496l-897 270v139l897 271v-220l-418 -118l418 -123v-219z" glyph-name="lessequal" horiz-adv-x="1091" unicode="≤"/><glyph d="M977 217h-873v227h873v-227zM1004 766l-898 -270v217l416 123l-416 120v220l898 -271v-139z" glyph-name="greaterequal" horiz-adv-x="1091" unicode="≥"/><glyph d="M563 -29l-528 742l538 753h43l529 -743l-537 -752h-45zM319 723l269 -383l272 371l-272 393z" glyph-name="lozenge" horiz-adv-x="1181" unicode="◊"/><glyph d="M612 1360q254 0 405.5 -192.5t151.5 -497.5t-152.5 -502t-404.5 -197t-405.5 197t-153.5 502t152.5 497.5t406.5 192.5zM611 203q124 0 195 121.5t71 345t-70 342t-195 118.5t-196.5 -118.5t-71.5 -340.5t71.5 -345t195.5 -123z" glyph-name="zero.oldstyle.lnum" horiz-adv-x="1222"/><glyph d="M819 1348v-1119h297v-229h-913v229h346v770l-303 -125l-88 211q238 102 618 263h43z" glyph-name="one.oldstyle.lnum" horiz-adv-x="1222"/><glyph d="M595 1360q165 0 307 -122t142 -345q2 -160 -85 -291t-324 -369h444v-233h-991l-18 41q63 63 162.5 157.5t152.5 146.5t138.5 136t165 194.5t79.5 214.5q0 105 -68.5 167.5t-153.5 62.5t-152.5 -35.5t-102.5 -80.5h-33l-127 165q59 80 179 135.5t285 55.5z" glyph-name="two.oldstyle.lnum" horiz-adv-x="1222"/><glyph d="M184 1333h858l17 -35l-346 -493q129 -2 245.5 -107.5t116.5 -279.5q0 -207 -145.5 -327t-361.5 -120t-292.5 29t-144.5 61l72 209l33 2q139 -78 265 -78t216 59.5t90 176.5t-121 180.5t-313 18.5l-33 45l303 426h-459v233z" glyph-name="three.oldstyle.lnum" horiz-adv-x="1222"/><glyph d="M965 410h168v-222h-168v-188h-277v188h-645l-55 66l880 1096l97 -21v-919zM412 410h276l-2 352z" glyph-name="four.oldstyle.lnum" horiz-adv-x="1222"/><glyph d="M1006 1333v-233h-508l-25 -269q57 18 153 20.5t198 -32.5t176.5 -132t76.5 -270t-137 -309.5t-401 -136.5t-412 95l72 206h32q115 -76 283 -75q119 0 205 63.5t86 176t-81 169t-207 56.5t-263 -99l-61 19l73 751h740z" glyph-name="five.oldstyle.lnum" horiz-adv-x="1222"/><glyph d="M617 -29q-223 0 -363.5 140.5t-142.5 380.5q0 184 58 336.5t147.5 247.5t248 187t371.5 97l55 -207l-24 -31q-195 -6 -347.5 -116.5t-187.5 -270.5q86 105 264 105t296 -119t118 -305t-135 -315.5t-358 -129.5zM617 197q93 0 157 62.5t64 155.5t-65 157.5t-159 64.5 t-158.5 -64.5t-64.5 -156.5t66.5 -155.5t159.5 -63.5z" glyph-name="six.oldstyle.lnum" horiz-adv-x="1222"/><glyph d="M141 1100v233h979l23 -37l-572 -1296h-311l510 1100h-629z" glyph-name="seven.oldstyle.lnum" horiz-adv-x="1222"/><glyph d="M612 -29q-231 0 -373.5 122t-142.5 308q0 117 71 212.5t161 121.5q-138 106 -138 261t117 259.5t305 104.5t304 -104.5t116 -258.5t-137 -260q90 -27 160.5 -123t70.5 -213q0 -186 -141.5 -308t-372.5 -122zM614.5 201q98.5 0 166 56t67.5 152.5t-69 151.5t-169 55 t-167.5 -55t-67.5 -151.5t70.5 -152.5t169 -56zM613 805q71 0 122 46t51 121t-53 119t-124 44t-122 -44t-51 -119t53 -121t124 -46z" glyph-name="eight.oldstyle.lnum" horiz-adv-x="1222"/><glyph d="M606 1360q223 0 363.5 -140.5t142.5 -379.5q0 -184 -58.5 -337t-147.5 -248t-249 -187.5t-370 -96.5l-56 207l25 31q195 6 347.5 116.5t187.5 270.5q-85 -104 -263 -104t-296.5 118t-118.5 304t135 316t358 130zM605 1135q-93 0 -156.5 -62.5t-63.5 -155.5t65.5 -158 t158.5 -65t157.5 65t64.5 157t-66.5 155.5t-159.5 63.5z" glyph-name="nine.oldstyle.lnum" horiz-adv-x="1222"/><glyph d="M584 -29q-223 0 -374 151.5t-151 375t150.5 372t374.5 148.5t375 -149.5t151 -371.5t-151.5 -374t-374.5 -152zM585.5 195q112.5 0 185.5 87t73 215t-75 213t-189 85t-186 -85t-72 -212t75.5 -215t188 -88z" glyph-name="zero.oldstyle.pnum" horiz-adv-x="1167"/><glyph d="M279 0v678l-132 -45l-73 213l426 160h43v-1006h-264z" glyph-name="one.oldstyle.pnum" horiz-adv-x="741"/><glyph d="M517 1018q169 0 294 -98.5t125 -270.5q4 -153 -88 -253t-211 -185h334v-211h-897l-25 68q63 47 219 150.5t277 205.5t121 191t-56.5 133.5t-128.5 46.5t-134 -41t-97 -103l-33 -2l-139 156q47 78 158.5 145.5t280.5 67.5z" glyph-name="two.oldstyle.pnum" horiz-adv-x="1073"/><glyph d="M102 993h838l18 -35l-333 -450q113 -4 225.5 -104.5t112.5 -272.5q0 -203 -148.5 -313.5t-369.5 -110.5t-386 96l58 199h35q53 -25 106.5 -46.5t168.5 -21.5q114 0 190.5 50.5t76.5 164.5t-110.5 181t-280.5 16l-31 45l283 389h-453v213z" glyph-name="three.oldstyle.pnum" horiz-adv-x="1075"/><glyph d="M948 203h182v-203h-182v-266h-262v266h-629l-53 76l821 934l123 -23v-784zM686 203v319l-274 -319h274z" glyph-name="four.oldstyle.pnum" horiz-adv-x="1198"/><glyph d="M920 993v-211h-500l-35 -258q57 25 162.5 26t191.5 -34q242 -104 244 -375q2 -180 -134 -307t-370 -127q-115 0 -168 11.5t-79.5 18.5t-56.5 20.5t-42 18.5t-37.5 20.5t-29.5 17.5l65 198h37q106 -78 250 -78q296 0 297 220q0 98 -76 159.5t-178 61.5t-153.5 -29t-80 -45 t-43.5 -31l-61 19l90 704h707z" glyph-name="five.oldstyle.pnum" horiz-adv-x="1079"/><glyph d="M550 -29q-212 0 -352.5 141.5t-140.5 335.5t51.5 336t133.5 233t235 179t397 88q8 0 28 -97t20 -100l-17 -26q-399 -10 -526 -309q96 84 259 84t280.5 -114t117.5 -306t-137 -318.5t-349 -126.5zM545 195q94 0 159.5 63.5t65.5 157.5t-62.5 154.5t-161.5 60.5t-163 -62.5 t-64 -153.5t66 -155.5t160 -64.5z" glyph-name="six.oldstyle.pnum" horiz-adv-x="1095"/><glyph d="M74 782v211h878l21 -37l-561 -1222h-285l508 1048h-561z" glyph-name="seven.oldstyle.pnum" horiz-adv-x="1009"/><glyph d="M545 -29q-221 0 -352.5 116t-131.5 290q0 119 70 207t152 108q-53 37 -94.5 102.5t-41.5 153.5q0 143 113 240.5t285 97.5t284.5 -97t112.5 -254t-127 -241q80 -20 146.5 -109t66.5 -208q0 -174 -131 -290t-352 -116zM548 195q87 0 150.5 54t63.5 139t-67.5 139.5 t-152.5 54.5t-149.5 -54.5t-64.5 -138.5t66.5 -139t153.5 -55zM546.5 774q65.5 0 113 40t47.5 105.5t-51.5 106.5t-113.5 41t-109.5 -41t-47.5 -106.5t48 -105.5t113.5 -40z" glyph-name="eight.oldstyle.pnum" horiz-adv-x="1089"/><glyph d="M545 1020q211 0 351 -141.5t140 -354.5q0 -176 -51 -318.5t-134 -233.5t-238 -178t-400 -87l-41 199l16 26q397 4 527 306q-95 -84 -259 -84t-281.5 113t-117.5 305t138.5 320t349.5 128zM549 797q-94 0 -159.5 -63.5t-65.5 -158t62.5 -155t161.5 -60.5t162.5 62.5 t63.5 153.5t-65.5 156t-159.5 65z" glyph-name="nine.oldstyle.pnum" horiz-adv-x="1095"/><glyph d="M553 -29q-217 0 -358.5 149.5t-141.5 377t141.5 374t359.5 146.5t358.5 -146.5t140.5 -374t-141.5 -377t-358.5 -149.5zM555.5 195q106.5 0 169.5 86t63 216t-65 214t-173 84t-170.5 -84t-62.5 -213t66 -216t172.5 -87z" glyph-name="zero.oldstyle"/><glyph d="M168 0v211h303v487l-260 -84l-66 217l547 175h43v-795h248v-211h-815z" glyph-name="one.oldstyle"/><glyph d="M536 1018q168 0 295 -98.5t127 -270.5q4 -157 -77.5 -243.5t-115.5 -116t-101 -78.5h323v-211h-889l-26 68q63 47 212 146.5t275.5 204t126.5 194.5q0 91 -58 135.5t-130 46.5t-134.5 -42t-99.5 -104h-33l-141 156q53 78 165.5 145.5t280.5 67.5z" glyph-name="two.oldstyle"/><glyph d="M439 -66q123 0 199.5 50.5t76.5 164.5t-110.5 181t-280.5 16l-33 45l282 389h-450v213h838l18 -35l-334 -450q113 -4 225.5 -104.5t112.5 -272.5q0 -203 -148.5 -313.5t-368.5 -110.5t-388 96l57 199h37q144 -68 267 -68z" glyph-name="three.oldstyle"/><glyph d="M897 209h150v-209h-150v-266h-262v266h-596l-51 90l803 920l106 -23v-778zM635 209v301l-258 -301h258z" glyph-name="four.oldstyle"/><glyph d="M936 993v-211h-500l-35 -258q55 25 162 26t191 -34q242 -102 243 -375q2 -180 -134 -307t-369 -127q-119 0 -170.5 12.5t-87.5 19.5t-125 58l-29 17l63 198h37q110 -78 254 -78q294 0 295 220q0 98 -76.5 159.5t-177.5 61.5t-180 -44t-96 -61l-64 19l90 704h709z" glyph-name="five.oldstyle"/><glyph d="M558 -29q-212 0 -352 141.5t-140 335.5t51 336t133 233t235 179t398 88q7 0 27 -97t20 -100l-17 -26q-399 -10 -526 -309q96 84 259 84t280.5 -114t117.5 -306t-137 -318.5t-349 -126.5zM553 195q94 0 159.5 63.5t65.5 157.5t-62.5 154.5t-161.5 60.5t-162.5 -62.5 t-63.5 -153.5t65.5 -155.5t159.5 -64.5z" glyph-name="six.oldstyle"/><glyph d="M106 782v211h904l22 -37l-579 -1222h-287l520 1048h-580z" glyph-name="seven.oldstyle"/><glyph d="M553 -29q-221 0 -352 116t-131 290q0 119 69.5 207t151.5 108q-53 37 -94 102.5t-41 153.5q0 143 112.5 240.5t284.5 97.5t284.5 -97t112.5 -254t-127 -241q80 -20 146.5 -109t66.5 -208q0 -174 -131 -290t-352 -116zM556 195q87 0 150.5 54t63.5 139t-67.5 139.5 t-152.5 54.5t-149.5 -54.5t-64.5 -138.5t66.5 -139t153.5 -55zM555 774q66 0 113 40t47 105.5t-51.5 106.5t-113.5 41t-109.5 -41t-47.5 -106.5t48 -105.5t114 -40z" glyph-name="eight.oldstyle"/><glyph d="M550 1020q212 0 351 -141.5t139 -354.5q0 -176 -51 -318.5t-134 -233.5t-238 -178t-400 -87l-41 199l17 26q397 4 526 306q-96 -84 -259 -84t-280 113t-117 305t137.5 320t349.5 128zM554 797q-95 0 -160.5 -63.5t-65.5 -159.5t62.5 -155t162.5 -59t163.5 62.5 t63.5 153.5t-65.5 156t-160.5 65z" glyph-name="nine.oldstyle"/><glyph d="M389 637q-145 0 -242.5 107.5t-97.5 280.5t98.5 280.5t244 107.5t243.5 -107.5t98 -279.5t-99.5 -280.5t-244.5 -108.5zM391.5 795q69.5 0 114.5 63.5t45 167.5t-45 169t-116 65t-116 -63t-45 -171t46.5 -169.5t116 -61.5z" glyph-name="zero.numr" horiz-adv-x="782"/><glyph d="M217 657v531l-106 -43l-50 131l297 137h33v-756h-174z" glyph-name="one.numr" horiz-adv-x="546"/><glyph d="M635 809v-152h-596l-16 35q258 215 329.5 300.5t71.5 141.5t-36 84.5t-83 28.5t-88 -22.5t-61 -53.5h-25l-84 111q41 57 120 94t161 37q117 -4 197.5 -73.5t80.5 -191.5t-65.5 -196.5t-74.5 -85t-14 -16.5l-42 -41h225z" glyph-name="two.numr" horiz-adv-x="710"/><glyph d="M78 1395h538l17 -35l-182 -244q57 -2 122.5 -65.5t65.5 -162.5t-93 -175t-241 -76t-270 84l57 127h27q20 -18 78.5 -36.5t109.5 -18.5t100.5 30.5t49.5 86.5t-64.5 92t-175.5 8l-29 28l170 213h-280v144z" glyph-name="three.numr" horiz-adv-x="704"/><glyph d="M717 905v-143h-99v-105h-172v105h-393l-41 63l535 596l69 -26l2 -490h99zM446 905v185l-161 -185h161z" glyph-name="four.numr" horiz-adv-x="784"/><glyph d="M590 1395v-144h-328l-10 -131q78 37 170 20t153.5 -74.5t63.5 -173.5t-95.5 -185.5t-202.5 -69.5t-188 28.5t-118 61.5l51 123l25 -2q25 -18 88 -37.5t111 -19.5t98.5 29.5t50.5 85.5t-50.5 87t-124.5 31t-147 -55l-59 26l39 400h473z" glyph-name="five.numr" horiz-adv-x="704"/><glyph d="M367 637q-123 0 -215.5 80t-92.5 227q0 205 146.5 336t367.5 131l33 -125l-14 -22q-111 -2 -202 -53.5t-116 -129.5q25 20 89.5 32.5t130.5 -0.5t121 -73t55 -162t-90 -171.5t-213 -69.5zM369 784q51 0 90 32t39 79t-41 78t-89 31t-87 -34t-39 -79t38 -76t89 -31z" glyph-name="six.numr" horiz-adv-x="718"/><glyph d="M51 1251v144h574l22 -37l-313 -701h-209l281 594h-355z" glyph-name="seven.numr" horiz-adv-x="661"/><glyph d="M361 639q-153 0 -236.5 65.5t-83.5 167.5q0 68 38 117t89 66q-76 41 -76 151q0 78 70.5 142.5t198.5 64.5t198 -64.5t70 -142.5q0 -109 -78 -151q51 -16 89 -65.5t38 -117.5q0 -102 -82 -167.5t-235 -65.5zM496 891q0 41 -35 68.5t-102 27.5t-102.5 -27.5t-35.5 -68.5 t39 -68.5t101 -25.5t98.5 27.5t36.5 66.5zM362 1106q98 0 99 76q0 31 -23.5 54.5t-75.5 23.5t-78 -24t-26 -54.5t24.5 -53t79.5 -22.5z" glyph-name="eight.numr" horiz-adv-x="718"/><glyph d="M352 1413q123 0 215 -80t92 -225q0 -205 -146 -334t-368 -129l-32 125l14 23q113 4 203 52t114 126q-25 -23 -88.5 -35t-129.5 1t-121.5 74t-55.5 163t90 170.5t213 68.5zM350 1266q-51 0 -90 -31t-39 -79t41 -78.5t89 -30.5t87 33.5t39 78.5t-38 76t-89 31z" glyph-name="nine.numr" horiz-adv-x="718"/><glyph d="M389 -20q-145 0 -242.5 107.5t-97.5 280.5t98.5 280.5t244 107.5t243.5 -107.5t98 -279.5t-99.5 -280.5t-244.5 -108.5zM391.5 137q69.5 0 114.5 63.5t45 167.5t-45 169t-116 65t-116 -63.5t-45 -170.5t46.5 -169t116 -62z" glyph-name="zero.dnom" horiz-adv-x="782"/><glyph d="M217 0v530l-106 -43l-50 131l297 138h33v-756h-174z" glyph-name="one.dnom" horiz-adv-x="546"/><glyph d="M635 152v-152h-596l-16 35q258 215 329.5 301t71.5 141t-36 84t-83 29t-88 -22.5t-61 -53.5h-25l-84 111q41 57 120 94t161 37q117 -4 197.5 -74t80.5 -192t-73 -205t-79 -89l-44 -44h225z" glyph-name="two.dnom" horiz-adv-x="710"/><glyph d="M78 737h538l17 -35l-182 -243q57 -2 122.5 -65.5t65.5 -162.5t-93 -175t-241 -76t-270 83l57 127h27q20 -18 78.5 -36.5t109.5 -18.5t100.5 31t49.5 86t-64.5 92t-175.5 8l-29 29l170 213h-280v143z" glyph-name="three.dnom" horiz-adv-x="704"/><glyph d="M717 248v-144h-99v-104h-172v104h-393l-41 64l535 596l69 -27l2 -489h99zM446 248v184l-161 -184h161z" glyph-name="four.dnom" horiz-adv-x="784"/><glyph d="M590 737v-143h-328l-10 -131q78 37 170 19t153.5 -75t63.5 -173t-95.5 -185t-202.5 -69t-188 28.5t-118 61.5l51 123l25 -3q25 -18 88 -37.5t111 -19.5t98.5 30t50.5 86t-50.5 87t-124.5 31t-147 -56l-59 27l39 399h473z" glyph-name="five.dnom" horiz-adv-x="704"/><glyph d="M367 -20q-123 0 -215.5 79.5t-92.5 227.5q0 205 146.5 336t367.5 131l33 -125l-14 -23q-111 -2 -202 -53t-116 -129q25 20 89.5 32.5t130.5 -0.5t121 -73.5t55 -162.5t-90 -171t-213 -69zM369 127q51 0 90 31.5t39 79t-41 78t-89 30.5t-87 -33.5t-39 -79t38 -76t89 -30.5 z" glyph-name="six.dnom" horiz-adv-x="718"/><glyph d="M51 594v143h574l22 -37l-313 -700h-209l281 594h-355z" glyph-name="seven.dnom" horiz-adv-x="661"/><glyph d="M361 -18q-153 0 -236.5 65.5t-83.5 167.5q0 68 38 117t89 65q-76 41 -76 152q0 78 70.5 142.5t198.5 64.5t198 -64.5t70 -142.5q0 -109 -78 -152q51 -16 89 -65t38 -117q0 -102 -82 -167.5t-235 -65.5zM496 234q0 40 -35 68t-102 28t-102.5 -28t-35.5 -69t39 -68.5 t101 -25.5t98.5 28.5t36.5 66.5zM362 449q98 0 99 75q0 31 -23.5 54.5t-75.5 23.5t-78 -23.5t-26 -54t24.5 -53t79.5 -22.5z" glyph-name="eight.dnom" horiz-adv-x="718"/><glyph d="M352 756q123 0 215 -80t92 -225q0 -205 -146 -334t-368 -129l-32 125l14 22q113 4 203 52.5t114 125.5q-25 -23 -88.5 -35t-129.5 2t-121.5 75t-55.5 163t90 170t213 68zM350 608q-51 0 -90 -30.5t-39 -78.5t41 -79t89 -31t87 34t39 79t-38 75.5t-89 30.5z" glyph-name="nine.dnom" horiz-adv-x="718"/><glyph d="M674 1462q266 0 435 -215t169 -526t-169 -530.5t-435 -219.5t-435 219.5t-169 530.5t169 526t435 215zM674 221q137 0 220 132t83 367.5t-83 368t-220 132.5t-222 -132.5t-85 -366.5t85 -367.5t222 -133.5z" glyph-name="zero.case" horiz-adv-x="1345"/><glyph d="M324 0v1065l-146 -74l-104 211l477 252h43v-1454h-270z" glyph-name="one.case" horiz-adv-x="794"/><glyph d="M532 1462q201 0 344.5 -134t143.5 -359q2 -78 -22.5 -153t-95.5 -175t-133 -176t-200 -232h484v-233h-1010l-18 33q61 66 162.5 171t153.5 160.5t220 239t168 372.5q0 110 -66.5 175.5t-182.5 67.5t-224 -117h-35l-143 147q59 84 176 148.5t278 64.5z" glyph-name="two.case" horiz-adv-x="1165"/><glyph d="M465 221q131 0 221 64.5t90 188.5t-108.5 196.5t-307.5 36.5l-32 45l309 448h-510v238h920l16 -35l-371 -543q131 -10 252 -117.5t121 -291.5q0 -217 -153.5 -348.5t-412.5 -131.5t-440 115l91 209l32 2q152 -76 283 -76z" glyph-name="three.case" horiz-adv-x="1161"/><glyph d="M1032 424h180v-236h-180v-188h-276v188h-725l-33 82l932 1184l102 -45v-985zM756 424v428l-310 -428h310z" glyph-name="four.case" horiz-adv-x="1306"/><glyph d="M1001 1438v-236h-548l-31 -309q150 49 338 0q127 -41 212 -156t87 -295t-142.5 -325.5t-394.5 -145.5q-307 0 -471 119l99 213h32q39 -33 117.5 -57.5t186.5 -24.5t196 68.5t88 184.5t-86 184.5t-222 68.5t-259 -100l-62 18l78 793h782z" glyph-name="five.case" horiz-adv-x="1150"/><glyph d="M604 -29q-234 0 -381 154t-149 397q0 190 59.5 350t150.5 263.5t254.5 208t399.5 122.5l61 -211l-24 -28q-168 -18 -334 -128t-221 -296q92 98 276 98t308 -126.5t124 -328.5t-145 -338.5t-379 -136.5zM608 211q96 0 164 65.5t68 166t-70 170t-165 69.5t-164.5 -69 t-69.5 -169t70.5 -166.5t166.5 -66.5z" glyph-name="six.case" horiz-adv-x="1202"/><glyph d="M82 1202v236h969l20 -37l-569 -1401h-324l516 1202h-612z" glyph-name="seven.case" horiz-adv-x="1103"/><glyph d="M604 -29q-244 0 -391 135.5t-147 335.5q0 135 72.5 234.5t156.5 128.5q-133 102 -133 267t123 279.5t321 114.5t320.5 -114.5t122.5 -276.5t-134 -268q84 -25 156 -126t72 -239q0 -203 -147.5 -337t-391.5 -134zM606.5 221q102.5 0 174 62.5t71.5 161.5t-73 163t-177 64 t-175 -63t-71 -163t74 -162.5t176.5 -62.5zM606 881q78 0 130 48t52 121t-55 122t-131 49t-129 -50.5t-53 -122t54 -119.5t132 -48z" glyph-name="eight.case" horiz-adv-x="1210"/><glyph d="M598 1466q234 0 381 -154.5t149 -398.5q0 -190 -59 -348.5t-150.5 -262t-254 -207.5t-400.5 -124l-61 209l24 31q238 23 377 160t178 264q-94 -100 -278 -100t-307 128.5t-123 328.5t145 337t379 137zM594 1225q-96 0 -164 -65.5t-68 -165.5t70 -169t165 -69t164.5 69.5 t69.5 167.5t-70.5 165t-166.5 67z" glyph-name="nine.case" horiz-adv-x="1202"/><glyph d="M632 1462q263 0 419.5 -213t156.5 -528t-156.5 -532.5t-419.5 -217.5t-422 217.5t-159 532.5t159 528t422 213zM631 221q133 0 205.5 130t72.5 371t-72.5 370t-205.5 129t-207 -130t-74 -370t74 -370t207 -130z" glyph-name="zero.oldstyle.lnum.case" horiz-adv-x="1261"/><glyph d="M188 233h361v859l-309 -129l-97 217q211 90 633 274h43v-1221h314v-233h-945v233z" glyph-name="one.oldstyle.lnum.case" horiz-adv-x="1261"/><glyph d="M567 1462q199 0 344.5 -133t145.5 -354q2 -164 -97.5 -333t-328.5 -409h463v-233h-1018l-19 33q260 250 312.5 305t133.5 139t113.5 132t90 139.5t57.5 211.5t-69.5 188.5t-182.5 70.5t-225 -117h-33l-145 147q61 84 179 148.5t279 64.5z" glyph-name="two.oldstyle.lnum.case" horiz-adv-x="1261"/><glyph d="M164 1438h919l19 -35l-373 -543q135 -4 255 -110t120 -308t-147.5 -336.5t-389.5 -134.5q-287 0 -471 115l92 209l33 2q59 -27 120 -51.5t182 -24.5q120 0 206 68.5t86 188.5t-109.5 192.5t-308.5 36.5l-30 45l309 448h-512v238z" glyph-name="three.oldstyle.lnum.case" horiz-adv-x="1261"/><glyph d="M997 424h181v-236h-181v-188h-276v188h-672l-49 97l895 1169l102 -31v-999zM721 424v428l-301 -428h301z" glyph-name="four.oldstyle.lnum.case" horiz-adv-x="1261"/><glyph d="M1069 1438v-236h-549l-31 -309q152 50 345 -2q129 -41 209.5 -151t82.5 -290t-142 -329.5t-394 -149.5q-307 0 -471 119l98 213h33q120 -82 266 -82t234 68.5t88 184.5t-86 184.5t-222 68.5t-260 -100l-61 18l78 793h782z" glyph-name="five.oldstyle.lnum.case" horiz-adv-x="1261"/><glyph d="M634 -29q-234 0 -381 154t-149 397q0 190 59.5 350t151 263.5t255.5 208t399 122.5l59 -196l-20 -43q-172 -18 -337 -128t-222 -296q93 98 277 98t307.5 -126.5t123.5 -328.5t-144.5 -338.5t-378.5 -136.5zM638 211q95 0 163.5 65.5t68.5 166t-69.5 170t-164.5 69.5 t-166 -69t-71 -169t72 -166.5t167 -66.5z" glyph-name="six.oldstyle.lnum.case" horiz-adv-x="1261"/><glyph d="M133 1200v238h1041l20 -37l-608 -1401h-326l549 1200h-676z" glyph-name="seven.oldstyle.lnum.case" horiz-adv-x="1261"/><glyph d="M631 -29q-244 0 -391.5 135.5t-147.5 335.5q0 135 73 234.5t157 128.5q-134 102 -134 267t123 279.5t321 114.5t320.5 -114.5t122.5 -276.5t-133 -268q84 -25 155.5 -126t71.5 -239q0 -203 -147 -337t-391 -134zM632.5 221q102.5 0 174.5 62.5t72 161.5t-74 163t-177 64 t-174 -63t-71 -163t73.5 -162.5t176 -62.5zM633 881q78 0 130 48t52 121t-55 122t-131 49t-129.5 -50.5t-53.5 -122t54.5 -119.5t132.5 -48z" glyph-name="eight.oldstyle.lnum.case" horiz-adv-x="1261"/><glyph d="M628 1466q234 0 380.5 -153.5t148.5 -399.5q0 -190 -59.5 -348.5t-150.5 -262t-253.5 -207t-400.5 -124.5l-60 197l21 43q170 18 337 128t222 296q-95 -100 -279 -100t-307 127.5t-123 329.5t145 338t379 136zM624 1227q-95 0 -164 -66.5t-69 -166.5t69.5 -169t165.5 -69 t166 69.5t70 167.5t-71.5 166t-166.5 68z" glyph-name="nine.oldstyle.lnum.case" horiz-adv-x="1261"/><glyph d="M113 150q0 72 51 123t122 51t122 -51t51 -123t-50.5 -121t-122.5 -49t-122.5 49t-50.5 121zM113 1026q0 72 51 123t122 51t122 -51t51 -123t-50.5 -121t-122.5 -49t-122.5 49t-50.5 121z" glyph-name="colon.case" horiz-adv-x="571"/><glyph d="M80 -324l72 637h301l2 -37l-285 -622zM121 1026q0 72 51 123t122 51t122 -51t51 -123t-50 -121t-123 -49t-123 49t-50 121z" glyph-name="semicolon.case" horiz-adv-x="579"/><glyph d="M655 600l-583 -90v240l583 90v-240z" glyph-name="hyphen.case" horiz-adv-x="727"/><glyph d="M936 598h-864v229h864v-229z" glyph-name="endash.case" horiz-adv-x="1007"/><glyph d="M1507 598h-1435v229h1435v-229z" glyph-name="emdash.case" horiz-adv-x="1579"/><glyph d="M133 724q0 106 71.5 181.5t175.5 75.5t179.5 -76t75.5 -180t-74.5 -176t-180.5 -72t-176.5 70.5t-70.5 176.5z" glyph-name="bullet.case" horiz-adv-x="768"/><glyph d="M285 455l-125 983h389l-123 -983h-141zM180 149q0 73 51 124t123 51t123 -52t51 -124t-51 -121.5t-124 -49.5t-123 49.5t-50 122.5z" glyph-name="exclam.case" horiz-adv-x="708"/><glyph d="M160 0l125 983h141l123 -983h-389zM180 1289q0 73 51 122t123 49t123 -49t51 -122t-51 -124t-123 -51t-123 51t-51 124z" glyph-name="exclamdown.case" horiz-adv-x="708"/><glyph d="M500 455h-215q-31 158 32.5 252t133 179t69.5 155q0 69 -48 118t-116 49q-102 0 -180 -84l-125 193q35 51 133.5 98t223.5 47q172 0 289.5 -106.5t117.5 -266.5t-79 -248.5t-157.5 -173t-78.5 -212.5zM219 149q0 73 51.5 124t123.5 51t122.5 -52t50.5 -124t-51 -121.5 t-124 -49.5t-123 49.5t-50 122.5z" glyph-name="question.case" horiz-adv-x="913"/><glyph d="M377 985h215q30 -156 -33 -251t-133 -180.5t-70 -155.5q0 -69 48.5 -118t115.5 -49q102 0 180 84l125 -192q-35 -51 -133 -98.5t-223 -47.5q-172 0 -290 106.5t-118 266.5t79 249t158 173t79 213zM657 1291q0 -73 -51 -124t-123 -51t-123 52t-51 124t51.5 121t123.5 49 t122.5 -49t50.5 -122z" glyph-name="questiondown.case" horiz-adv-x="913"/><glyph d="M684 1229q-117 0 -131 -121q-4 -65 23.5 -109.5t60.5 -95.5l307 -430l227 203l148 -184l-232 -211l201 -279l-330 -2l-81 115l-72 -56q-70 -55 -187.5 -74.5t-242.5 16.5t-197 128q-113 154 -78 335t183 288l100 75l-27 47l-38 76q-38 76 -29 185q12 147 115.5 237 t255.5 90t251 -78t136 -213l-218 -77q-10 51 -52 93t-93 42zM387 281q47 -63 135 -66.5t162 53.5l47 35l-231 328l-82 -72q-63 -55 -71.5 -137t40.5 -141z" glyph-name="ampersand.case" horiz-adv-x="1398"/><glyph d="M51 297v260h230q53 225 77 338h-188v260h244l61 281h221l-59 -281h221l62 281h219l-60 -281h187v-260h-238l-76 -338h193v-260h-248l-61 -297h-234l66 297h-213l-64 -297h-231q14 70 65 297h-174zM584 895l-76 -338h215l80 338h-219z" glyph-name="numbersign.case" horiz-adv-x="1316"/><glyph d="M467 279l-412 446v43l416 459l174 -129l-303 -346l303 -340z" glyph-name="guilsinglleft.case" horiz-adv-x="716"/><glyph d="M250 1139l412 -447v-43l-416 -459l-174 129l303 347l-303 340z" glyph-name="guilsinglright.case" horiz-adv-x="716"/><glyph d="M467 279l-412 446v43l416 459l174 -129l-303 -346l303 -340zM958 279l-411 446v43l416 459l174 -129l-303 -346l303 -340z" glyph-name="guillemotleft.case" horiz-adv-x="1208"/><glyph d="M250 1139l412 -447v-43l-416 -459l-174 129l303 347l-303 340zM741 1139l412 -447v-43l-416 -459l-174 129l303 347l-303 340z" glyph-name="guillemotright.case" horiz-adv-x="1208"/><glyph d="M133 731q0 274 139.5 515t386.5 388l140 -168q-373 -301 -373 -733q0 -246 107.5 -444.5t265.5 -325.5l-140 -168q-248 158 -387 410t-139 526z" glyph-name="parenleft.case" horiz-adv-x="913"/><glyph d="M487 733q0 432 -372 733l139 168q248 -147 387 -387.5t139 -514.5t-139 -526.5t-387 -410.5l-139 168q158 127 265 325.5t107 444.5z" glyph-name="parenright.case" horiz-adv-x="913"/><glyph d="M446 76h291v-221h-569v1706h569v-222l-291 -2v-1261z" glyph-name="bracketleft.case" horiz-adv-x="815"/><glyph d="M369 1339h-291v222h569v-1706h-569v221l291 2v1261z" glyph-name="bracketright.case" horiz-adv-x="815"/><glyph d="M588 999q0 -111 -55.5 -190.5t-135.5 -103.5q80 -25 136.5 -116t56.5 -214v-133q10 -168 160 -168q29 0 65 6q10 -61 41 -225q-88 -23 -174 -23q-184 0 -277.5 109.5t-93.5 275.5v145q0 174 -62.5 206t-125.5 32h-51v211h49q128 0 158 71.5t30 166.5v147 q0 168 93.5 277.5t275.5 109.5q80 0 176 -24q-31 -164 -41 -226q-33 6 -63 6q-162 0 -162 -190v-150z" glyph-name="braceleft.case" horiz-adv-x="948"/><glyph d="M391 416q0 111 55.5 190.5t135.5 104.5q-80 25 -136.5 116t-56.5 213v134q-10 168 -160 167q-29 0 -65 -6q-10 61 -41 226q88 23 174 22q184 0 277.5 -109.5t93.5 -275.5v-145q0 -174 62.5 -206t125.5 -32h51v-211h-49q-128 0 -158 -71.5t-30 -165.5v-148 q0 -168 -93.5 -277.5t-275.5 -109.5q-80 0 -176 25q31 164 41 225q33 -6 63 -6q162 0 162 190v150z" glyph-name="braceright.case" horiz-adv-x="948"/><glyph d="M570 1219q-96 0 -144.5 -47.5t-48.5 -111t41.5 -103t161.5 -105.5q199 -115 276.5 -231.5t73.5 -258.5t-89 -245t-218 -137v-256h-217v247q-180 18 -324 115l106 217q16 -8 54.5 -27.5t82.5 -39t137 -19.5t141 43.5t48 97.5t-13 85.5t-58 72t-151 105.5 q-105 65 -165.5 116t-112 145t-51.5 208t79 223.5t218 136.5v266h217v-264q166 -23 252 -72l-80 -221q-120 60 -216 60z" glyph-name="dollar.case" horiz-adv-x="1013"/><glyph d="M797 453h-197q14 -92 -27 -172q84 -72 212 -72t219 110l145 -178q-121 -170 -385 -170q-217 0 -318 109q-90 -93 -286 -84l-84 4l-15 211q168 -8 231.5 71.5t31.5 170.5h-195v229h137q-10 25 -62 118t-52 255q0 161 128 284t296 123t289.5 -71.5t170.5 -229.5l-213 -84 q-29 59 -86 100.5t-126 41.5t-127 -55.5t-58 -134.5t14.5 -129t55.5 -120.5t53 -97.5h248v-229z" glyph-name="sterling.case" horiz-adv-x="1169"/><glyph d="M965 1466q336 0 555 -209l-172 -190q-158 152 -369 152q-137 0 -249 -71t-171 -190h584v-24l-19 -143h-622q-4 -45 -4 -76t6 -72h598v-27l-19 -139h-518q57 -117 169 -187.5t259 -70.5q213 0 373 133l158 -178q-211 -203 -555 -203q-262 0 -459 138.5t-270 367.5h-240v25 l16 141h187q-2 25 -2 75t4 73h-164v26l16 141h179q74 233 273.5 370.5t455.5 137.5z" glyph-name="Euro.case" horiz-adv-x="1591"/><glyph d="M1163 666h-354v-146h354v-211h-354v-309h-279v309h-358v211h358v146h-358v215h215l-352 557h330l311 -488l311 488h318q-43 -68 -355 -557h213v-215z" glyph-name="yen.case" horiz-adv-x="1341"/><glyph d="M1160 -20q-132 0 -228 91t-96 229t97 228t229 90t227.5 -90t95.5 -228t-96.5 -229t-228.5 -91zM1165.5 152q53.5 0 80 40.5t26.5 106.5q0 147 -109 147q-51 0 -81.5 -41t-30.5 -105t30.5 -106t84 -42zM380 825q-132 0 -229.5 91.5t-97.5 229.5t98.5 228t230.5 90 t227.5 -90t95.5 -228t-96.5 -229.5t-228.5 -91.5zM383 997q53 0 81 41t28 107q0 147 -111 147q-51 0 -81 -40t-30 -106t30 -107.5t83 -41.5zM133 102l1100 1364l164 -133l-1102 -1366z" glyph-name="percent.case" horiz-adv-x="1538"/><glyph d="M-4 -143l772 1798l203 -94l-772 -1799z" glyph-name="slash.case" horiz-adv-x="966"/><glyph d="M469 1243q-57 0 -90 -26.5t-33 -65.5q0 -80 119 -109q401 -86 401 -352q0 -61 -35.5 -119.5t-91.5 -91.5q49 -31 76 -93t27 -124q0 -150 -113 -224.5t-285 -74.5q-111 0 -220 27.5t-156 62.5l61 228q31 -20 135.5 -54t173.5 -34q147 0 148 88q0 72 -148 108 q-375 78 -375 326q0 68 35 131t99 94q-43 33 -74 95.5t-31 117.5q0 154 110 233.5t284 79.5t317 -73l-60 -219q-53 31 -135 50t-139 19zM332 727q0 -80 123 -115q57 -10 99 14.5t42 73.5q0 76 -137 115q-49 6 -88 -14.5t-39 -73.5z" glyph-name="section.case" horiz-adv-x="927"/><glyph d="M113 791q0 72 51 123t122 51t122 -51.5t51 -123.5t-50.5 -120.5t-122.5 -48.5t-122.5 49t-50.5 121z" glyph-name="periodcentered.case" horiz-adv-x="571"/><glyph d="M1803 614q-183 0 -310 120t-127 306.5t128 304t311 117.5t311.5 -117.5t128.5 -304t-129.5 -306.5t-312.5 -120zM1803 829q75 0 125 56.5t50 155t-50 152.5t-125 54t-124 -54t-49 -152.5t49 -155t124 -56.5zM973 1438h270v-1438h-270v580l-551 372v-952h-268v1442l28 18 l791 -553v531zM1628 232q0 73 51 124.5t123 51.5t123 -51.5t51 -124.5t-51 -122t-123 -49t-123 49t-51 122z" glyph-name="afii61352.case" horiz-adv-x="2287"/><glyph d="M268 0h-278l512 1006h55l514 -1006h-297l-59 121h-387zM518 545l-117 -246h236z" glyph-name="A.c2sc" horiz-adv-x="1060"/><glyph d="M846 726q0 -101 -82 -183q55 -18 106.5 -83.5t51.5 -177.5t-73 -183.5t-255.5 -102.5t-491.5 6v983q265 46 436 14t239.5 -102t68.5 -171zM360 596h162q29 6 48.5 31.5t19.5 60.5q0 70 -66 94t-164 6v-192zM360 416v-211q68 -8 134.5 -9t115.5 28.5t49 86.5q0 80 -88 105 h-211z" glyph-name="B.c2sc" horiz-adv-x="960"/><glyph d="M616 195q125 0 236 84l135 -160q-137 -147 -386 -147t-400.5 153.5t-151.5 371.5t150.5 370.5t388.5 152.5t397 -164l-149 -172q-102 113 -226 113t-209.5 -83t-85.5 -215t88 -218t213 -86z" glyph-name="C.c2sc" horiz-adv-x="1036"/><glyph d="M781 89.5q-208 -152.5 -679 -83.5v981q468 69 677.5 -80.5t209.5 -407.5q0 -257 -208 -409.5zM725 496q0 156 -108 230.5t-255 51.5v-567q145 -16 254 56.5t109 228.5z" glyph-name="D.c2sc" horiz-adv-x="1038"/><glyph d="M827 211v-211h-725v993h701v-213h-441v-166h336v-211h-336v-192h465z" glyph-name="E.c2sc" horiz-adv-x="892"/><glyph d="M362 0h-260v993h695v-213h-435v-166h328v-211h-328v-403z" glyph-name="F.c2sc" horiz-adv-x="860"/><glyph d="M655 356v193h373l-2 -412q-152 -166 -409 -166t-414.5 154t-157.5 372t150.5 370.5t388.5 152.5t399 -166l-152 -166q-100 117 -222 117t-209 -85t-87 -220t90.5 -223.5t208.5 -88.5t195 60v108h-152z" glyph-name="G.c2sc" horiz-adv-x="1103"/><glyph d="M999 0h-262v403h-375v-403h-260v993h260v-379h375v379h262v-993z" glyph-name="H.c2sc" horiz-adv-x="1101"/><glyph d="M102 0v993h263v-993h-263z" glyph-name="I.c2sc" horiz-adv-x="466"/><glyph d="M610 993v-561q0 -502 -557 -442l8 213q150 -10 218.5 48t68.5 195l-2 547h264z" glyph-name="J.c2sc" horiz-adv-x="733"/><glyph d="M362 993v-403l343 403h307l-394 -473l429 -520h-338l-347 426v-426h-260v993h260z" glyph-name="K.c2sc" horiz-adv-x="1062"/><glyph d="M762 211v-211h-660v993h260v-782h400z" glyph-name="L.c2sc" horiz-adv-x="804"/><glyph d="M362 0h-260v995l50 13l456 -410l455 410l49 -13v-995h-260v508l-229 -213h-31l-230 213v-508z" glyph-name="M.c2sc" horiz-adv-x="1214"/><glyph d="M729 993h256v-993h-256v348l-375 240v-588h-252v993q4 2 43 15l584 -361v346z" glyph-name="N.c2sc" horiz-adv-x="1087"/><glyph d="M581 -29q-224 0 -378 150.5t-154 376t153.5 374t379 148.5t379 -148.5t153.5 -374t-154.5 -376t-378.5 -150.5zM584 195q115 0 189.5 88t74.5 216t-77 213t-193.5 85t-190.5 -85t-74 -212t78 -216t193 -89z" glyph-name="O.c2sc" horiz-adv-x="1163"/><glyph d="M883 640q0 -154 -110.5 -290t-407.5 -123v-227h-261l-2 981q215 37 388.5 21.5t283 -112t109.5 -250.5zM618 623q0 102 -81.5 138.5t-171.5 18.5v-334q130 -15 191.5 44t61.5 133z" glyph-name="P.c2sc" horiz-adv-x="913"/><glyph d="M578 -29q-221 0 -375 150.5t-154 376t153.5 374t379 148.5t379 -148.5t153.5 -365.5t-139 -361l92 -100l-154 -147l-106 120q-114 -47 -229 -47zM582 195q29 0 55 10l-100 117l153 143l105 -119q53 68 53 152q0 129 -77 214t-193.5 85t-190.5 -85t-74 -212t78 -216 t191 -89z" glyph-name="Q.c2sc" horiz-adv-x="1163"/><glyph d="M874 631q0 -180 -167 -295q147 -172 290 -336h-321l-207 256q-68 -8 -104 -2v-254h-261l-2 981q240 56 425.5 16.5t266 -130.5t80.5 -236zM610 624q0 92 -74.5 131t-170.5 21v-311q100 -14 172.5 26.5t72.5 132.5z" glyph-name="R.c2sc" horiz-adv-x="987"/><glyph d="M305 722q0 -32 28 -51.5t128 -43.5q209 -43 287.5 -127t78.5 -207q0 -156 -116.5 -239t-298.5 -83q-104 0 -203.5 23.5t-151.5 54.5l80 219q41 -23 135 -47t160 -24t109 21.5t43 59.5t-46 54.5t-86 26.5t-46 12q-174 41 -260.5 119.5t-86.5 217.5t114 225.5t290 86.5 t313 -62l-59 -213q-141 57 -275 58q-57 0 -97 -24.5t-40 -56.5z" glyph-name="S.c2sc" horiz-adv-x="884"/><glyph d="M815 782h-258v-782h-262v782h-256v211h776v-211z" glyph-name="T.c2sc" horiz-adv-x="854"/><glyph d="M546 -29q-216 0 -330 127t-114 322v573h263v-581q0 -96 51 -155.5t132 -59.5t135 60t54 155v581h269v-577q0 -190 -122 -317.5t-338 -127.5z" glyph-name="U.c2sc"/><glyph d="M821 993h271l-521 -1007h-55l-526 1007h293l266 -526z" glyph-name="V.c2sc" horiz-adv-x="1081"/><glyph d="M1223 993h270l-430 -1007h-55l-271 530l-268 -530h-57l-422 1007h303l194 -463l242 478h57l238 -478z" glyph-name="W.c2sc" horiz-adv-x="1482"/><glyph d="M1106 993l-375 -493l375 -500h-334l-211 276l-209 -276h-321l370 489l-370 504h334l208 -280l213 280h320z" glyph-name="X.c2sc" horiz-adv-x="1136"/><glyph d="M367 0v412q-244 356 -394 581h312l221 -321l221 321h295l-393 -581v-412h-262z" glyph-name="Y.c2sc" horiz-adv-x="995"/><glyph d="M965 211v-211h-879l-20 45l507 735h-462v213h856l16 -47l-491 -735h473z" glyph-name="Z.c2sc" horiz-adv-x="1048"/><glyph d="M236 426l-127 567h378l-125 -567h-126zM129 150q0 72 51 123t122 51t122 -51t51 -123t-50 -121t-122 -49t-123 49t-51 121z" glyph-name="exclam.c2sc" horiz-adv-x="598"/><glyph d="M109 0l127 567h126l125 -567h-378zM129 844q0 72 51 121t123 49t122 -49t50 -121t-51 -123t-122 -51t-122 51t-51 123z" glyph-name="exclamdown.c2sc" horiz-adv-x="598"/><glyph d="M369 707q0 88 -138 88q-53 0 -125 -33l-55 209q129 49 271 49t233.5 -66.5t91.5 -183.5q0 -70 -37 -129t-80 -91t-81.5 -65.5t-40.5 -58.5h-185q-20 55 15.5 109.5t83 100.5t47.5 71zM141 149q0 73 51.5 124t121.5 51t121.5 -52t51.5 -124t-50 -120t-123 -48t-123 48 t-50 121z" glyph-name="question.c2sc" horiz-adv-x="714"/><glyph d="M330 287q0 -88 137 -88q53 0 125 32l55 -208q-129 -49 -271 -49t-233.5 66t-91.5 183q0 70 37 129.5t80 91t82 65t41 58.5h184q20 -55 -15.5 -109.5t-82.5 -100.5t-47 -70zM557 845q0 -73 -51 -124t-122 -51t-122 51t-51 124t50 121t123 48t123 -48t50 -121z" glyph-name="questiondown.c2sc" horiz-adv-x="714"/><glyph d="M571 807q-66 0 -77 -76q-2 -43 61 -117l182 -213l195 170l137 -163l-190 -168l206 -240h-297l-83 96l-84 -63q-55 -43 -148.5 -56.5t-186.5 14t-139 97.5q-72 104 -49 230t129 204l80 66l-14 24q-37 74 -33 172t84 167t201 69q221 0 303 -184l-168 -113q-49 84 -109 84z M417 178q46 0 83 31l59 49l-127 150l-67 -56q-31 -23 -38.5 -61.5t17.5 -77.5q27 -35 73 -35z" glyph-name="ampersand.c2sc" horiz-adv-x="1153"/><glyph d="M20 213v186h193l47 183h-158v188h207l56 223h215l-56 -223h166l58 223h213q-4 -18 -56 -223h139v-188h-186l-47 -183h154v-186h-201l-53 -213h-213l53 213h-170l-57 -213h-211l53 213h-146zM475 582l-47 -183h170q10 41 45 183h-168z" glyph-name="numbersign.oldstyle" horiz-adv-x="1067"/><glyph d="M344 1260h186v-248q143 -16 240 -60l-57 -213q-151 63 -269 63t-118 -79q0 -39 26.5 -59.5t89.5 -36.5q377 -84 377 -357q0 -131 -82 -205.5t-207 -93.5v-239h-186v235q-195 20 -278 80l59 221q41 -25 140.5 -54.5t162.5 -29.5q152 0 152 86q0 37 -37 58.5t-115 42.5 q-172 43 -265 129t-93 211t78.5 202.5t195.5 98.5v248z" glyph-name="dollar.oldstyle" horiz-adv-x="886"/><glyph d="M193 694q0 141 104 233.5t291 92.5q240 0 377 -184q-45 -49 -140 -148q-121 125 -225 125q-72 0 -121 -36t-49 -111q0 -36 7 -50t16.5 -29.5t15.5 -27.5h258v-213h-213l2 -24q0 -29 -20 -62q78 -82 208 -82t228 109l135 -144q-115 -172 -379 -172q-194 0 -332 92 q-123 -66 -247 -65l-35 2q0 141 -2 211q104 6 156.5 29.5t52.5 85.5l-2 20h-138v213h92q-40 80 -40 135z" glyph-name="sterling.oldstyle" horiz-adv-x="1155"/><glyph d="M41 535v26l18 111h95q53 156 187 252t316 96q244 0 404 -164l-150 -172q-102 113 -231 113q-160 0 -234 -125h334v-25l-18 -112h-371q-4 -8 -4 -34t6 -48h346v-25l-18 -111h-266q77 -122 239 -122q121 0 236 84l135 -160q-139 -147 -406 -148q-180 0 -315 96.5 t-188 249.5h-156v27l18 109h105l-2 45q0 33 2 37h-82z" glyph-name="Euro.oldstyle" horiz-adv-x="1114"/><glyph d="M367 0v162h-273v137h273v82h-273v137h197l-318 475h312q160 -242 221 -327l221 327h295l-322 -475h199v-137h-270v-82h270v-137h-270v-162h-262z" glyph-name="yen.oldstyle" horiz-adv-x="995"/><glyph d="M974 -23q-105 0 -184 67t-79 181.5t79.5 181t185.5 66.5t183.5 -66.5t77.5 -181t-79 -181.5t-184 -67zM978 119q38 0 61.5 28.5t23.5 77.5q0 106 -86 107q-39 0 -63.5 -29t-24.5 -77t25.5 -77.5t63.5 -29.5zM143 82l826 946l131 -121l-828 -940zM278.5 524 q-104.5 0 -184.5 67.5t-80 181.5t81 180.5t185.5 66.5t182.5 -65.5t78 -180.5t-79 -182.5t-183.5 -67.5zM283 668q39 0 62.5 28.5t23.5 77.5q0 106 -88 107q-37 0 -62.5 -30t-25.5 -78t25.5 -76.5t64.5 -28.5z" glyph-name="percent.oldstyle" horiz-adv-x="1251"/><glyph d="M289 781q0 -24 20.5 -34t54.5 -16t42 -8q313 -51 313 -240q0 -86 -84 -143q78 -46 78 -154t-94.5 -161.5t-266.5 -53.5t-291 82l70 180q35 -23 103.5 -47t136.5 -24q133 0 133 45q0 23 -22 33t-54 17t-39 9q-156 29 -235.5 81t-79.5 154t84 138q-31 16 -54.5 55t-23.5 90 q0 115 91 174.5t224 59.5t285 -68q-61 -160 -66 -174q-104 57 -219 58q-43 0 -74.5 -14.5t-31.5 -38.5zM274 510q0 -25 55.5 -45.5t135.5 -28.5q49 8 51 39q0 33 -59 52.5t-121 19.5t-62 -37z" glyph-name="section.oldstyle" horiz-adv-x="780"/><glyph d="M866 1393v-35l-239 -252h-205l129 287h315zM268 0h-278l512 1006h55l514 -1006h-297l-59 121h-387zM518 545l-117 -246h236z" glyph-name="Aacute.c2sc" horiz-adv-x="1060"/><glyph d="M184 1393h316l129 -287h-205l-240 252v35zM268 0h-278l512 1006h55l514 -1006h-297l-59 121h-387zM518 545l-117 -246h236z" glyph-name="Agrave.c2sc" horiz-adv-x="1060"/><glyph d="M268 0h-278l512 1006h55l514 -1006h-297l-59 121h-387zM518 545l-117 -246h236zM233 1106l173 287h251l172 -287h-192l-107 108l-106 -108h-191z" glyph-name="Acircumflex.c2sc" horiz-adv-x="1060"/><glyph d="M268 0h-278l512 1006h55l514 -1006h-297l-59 121h-387zM518 545l-117 -246h236zM223 1254q0 54 37 92t90 38t91 -38t38 -92t-38 -90t-91 -36t-90 36t-37 90zM555 1254q0 54 37 92t90 38t91 -38t38 -92t-38 -90t-91 -36t-90 36t-37 90z" glyph-name="Adieresis.c2sc" horiz-adv-x="1060"/><glyph d="M400 1380q68 0 140 -26.5t101 -26.5q61 0 86 49l100 -24q10 -113 -44 -168.5t-134 -55.5q-47 0 -122.5 28t-105.5 28q-55 0 -73 -49l-102 24q-14 119 36 170t118 51zM268 0h-278l512 1006h55l514 -1006h-297l-59 121h-387zM518 545l-117 -246h236z" glyph-name="Atilde.c2sc" horiz-adv-x="1060"/><glyph d="M264 1152q0 96 77 171.5t187 75.5t186.5 -76t76.5 -170t-46.5 -159.5t-119.5 -94.5l446 -899h-297l-59 121h-387l-60 -121h-278l442 897q-76 29 -122 94t-46 161zM412 1142q0 -48 33.5 -83t81.5 -35t82 34t34 83t-34 84t-82 35t-81.5 -35t-33.5 -83zM518 549l-117 -250 h236z" glyph-name="Aring.c2sc" horiz-adv-x="1060"/><glyph d="M268 0h-278l512 1006h55l514 -1006h-297l-59 121h-387zM518 545l-117 -246h236zM827 1163h-596v183h596v-183z" glyph-name="Amacron.c2sc" horiz-adv-x="1060"/><glyph d="M528 1106q-119 0 -188.5 86t-44.5 201h172q-10 -39 4 -84t54 -45t54.5 43t6.5 86h174q25 -111 -44 -199t-188 -88zM268 0h-278l512 1006h55l514 -1006h-297l-59 121h-387zM518 545l-117 -246h236z" glyph-name="Abreve.c2sc" horiz-adv-x="1060"/><glyph d="M785 -174q37 -27 77 -27t64 6q2 -70 2 -204q-53 -8 -84 -9q-127 0 -218 61.5t-91 176.5q0 80 62 141.5t151 79.5l-33 70h-387l-60 -121h-278l512 1006h55l514 -1006h-262q-2 -2 -11.5 -9t-11.5 -9t-9 -8.5t-9 -9.5t-11 -15.5t-9 -54.5q0 -41 37 -68zM518 541l-117 -242 h236z" glyph-name="Aogonek.c2sc" horiz-adv-x="1060"/><glyph d="M264 1152q0 96 77 171.5t185 75.5q68 0 129 -33l74 152h295v-35l-272 -209q39 -61 39 -138t-46.5 -142.5t-119.5 -94.5l446 -899h-297l-59 121h-387l-60 -121h-278l442 897q-76 29 -122 94t-46 161zM412 1142q0 -48 33.5 -83t81.5 -35t82 34t34 83t-34 84t-82 35 t-81.5 -35t-33.5 -83zM518 549l-117 -250h236z" glyph-name="Aringacute.c2sc" horiz-adv-x="1060"/><glyph d="M1497 211v-211h-735v121h-393l-105 -121h-305l809 993h705v-213h-449v-166h342v-211h-342v-192h473zM762 301v322l-258 -322h258z" glyph-name="AE.c2sc" horiz-adv-x="1560"/><glyph d="M1284 1393v-35l-240 -252h-204l129 287h315zM1497 211v-211h-735v121h-393l-105 -121h-305l809 993h705v-213h-449v-166h342v-211h-342v-192h473zM762 301v322l-258 -322h258z" glyph-name="AEacute.c2sc" horiz-adv-x="1560"/><glyph d="M618 195q126 0 236 84l133 -160q-104 -115 -299 -142q72 -68 72 -147q0 -137 -124 -196.5t-271 -34.5l2 204q70 -14 124 11.5t54 79.5t-31 79q-207 23 -336 171.5t-129 358.5t150.5 362.5t388.5 152.5t397 -164l-151 -172q-98 113 -226 113t-210.5 -82t-82.5 -215 t88.5 -218t214.5 -85z" glyph-name="Ccedilla.c2sc" horiz-adv-x="1044"/><glyph d="M905 1393v-35l-239 -252h-205l129 287h315zM616 195q125 0 236 84l135 -160q-137 -147 -386 -147t-400.5 153.5t-151.5 371.5t150.5 370.5t388.5 152.5t397 -164l-149 -172q-102 113 -226 113t-209.5 -83t-85.5 -215t88 -218t213 -86z" glyph-name="Cacute.c2sc" horiz-adv-x="1036"/><glyph d="M616 195q125 0 236 84l135 -160q-137 -147 -386 -147t-400.5 153.5t-151.5 371.5t150.5 370.5t388.5 152.5t397 -164l-149 -172q-102 113 -226 113t-209.5 -83t-85.5 -215t88 -218t213 -86zM287 1106l172 287h252l172 -287h-193l-106 108l-107 -108h-190z" glyph-name="Ccircumflex.c2sc" horiz-adv-x="1036"/><glyph d="M616 195q125 0 236 84l135 -160q-137 -147 -386 -147t-400.5 153.5t-151.5 371.5t150.5 370.5t388.5 152.5t397 -164l-149 -172q-102 113 -226 113t-209.5 -83t-85.5 -215t88 -218t213 -86zM446 1254q0 54 37 92t90 38t91 -38t38 -92t-37 -90t-91 -36t-91 36t-37 90z" glyph-name="Cdotaccent.c2sc" horiz-adv-x="1036"/><glyph d="M872 1393v-35l-170 -252h-251l-170 252v35h168q22 -22 126 -113l130 113h167zM616 195q125 0 236 84l135 -160q-137 -147 -386 -147t-400.5 153.5t-151.5 371.5t150.5 370.5t388.5 152.5t397 -164l-149 -172q-102 113 -226 113t-209.5 -83t-85.5 -215t88 -218t213 -86z " glyph-name="Ccaron.c2sc" horiz-adv-x="1036"/><glyph d="M178 391h-158v230h158v366q147 23 258 23q317 0 476 -143.5t159 -365.5t-158.5 -369.5t-478.5 -147.5q-129 -1 -256 22v385zM438 621h172v-230h-172v-182q33 -4 54 -4q131 0 223 74.5t92 214.5t-89 214t-216 74q-23 0 -64 -4v-157z" glyph-name="Eth.c2sc" horiz-adv-x="1120"/><glyph d="M711 1393v-35l-170 -252h-252l-170 252v35h168q48 -48 127 -113q106 92 129 113h168zM781 89.5q-208 -152.5 -679 -83.5v981q468 69 677.5 -80.5t209.5 -407.5q0 -257 -208 -409.5zM725 496q0 156 -108 230.5t-255 51.5v-567q145 -16 254 56.5t109 228.5z" glyph-name="Dcaron.c2sc" horiz-adv-x="1038"/><glyph d="M178 391h-158v230h158v366q147 23 258 23q317 0 476 -143.5t159 -365.5t-158.5 -369.5t-478.5 -147.5q-129 -1 -256 22v385zM438 621h172v-230h-172v-182q33 -4 54 -4q131 0 223 74.5t92 214.5t-89 214t-216 74q-23 0 -64 -4v-157z" glyph-name="Dcroat.c2sc" horiz-adv-x="1120"/><glyph d="M754 1393v-35l-240 -252h-205l129 287h316zM827 211v-211h-725v993h701v-213h-441v-166h336v-211h-336v-192h465z" glyph-name="Eacute.c2sc" horiz-adv-x="899"/><glyph d="M209 1393h315l129 -287h-204l-240 252v35zM827 211v-211h-725v993h701v-213h-441v-166h336v-211h-336v-192h465z" glyph-name="Egrave.c2sc" horiz-adv-x="899"/><glyph d="M827 211v-211h-725v993h701v-213h-441v-166h336v-211h-336v-192h465zM174 1106l172 287h252l172 -287h-192l-107 108l-106 -108h-191z" glyph-name="Ecircumflex.c2sc" horiz-adv-x="899"/><glyph d="M827 211v-211h-725v993h701v-213h-441v-166h336v-211h-336v-192h465zM172 1254q0 54 37 92t90 38t91 -38t38 -92t-38 -90t-91 -36t-90 36t-37 90zM504 1254q0 54 37 92t90 38t91 -38t38 -92t-38 -90t-91 -36t-90 36t-37 90z" glyph-name="Edieresis.c2sc" horiz-adv-x="899"/><glyph d="M827 211v-211h-725v993h701v-213h-441v-166h336v-211h-336v-192h465zM750 1163h-596v183h596v-183z" glyph-name="Emacron.c2sc" horiz-adv-x="892"/><glyph d="M453 1106q-119 0 -188.5 86t-45.5 201h172q-10 -39 4.5 -84t54.5 -45t54 43t6 86h174q25 -111 -43.5 -199t-187.5 -88zM827 211v-211h-725v993h701v-213h-441v-166h336v-211h-336v-192h465z" glyph-name="Ebreve.c2sc" horiz-adv-x="892"/><glyph d="M827 211v-211h-725v993h701v-213h-441v-166h336v-211h-336v-192h465zM330 1254q0 54 36 92t90 38t92 -38t38 -92t-38 -90t-91 -36t-90 36t-37 90z" glyph-name="Edotaccent.c2sc" horiz-adv-x="892"/><glyph d="M827 211v-211h-286q-2 -2 -11.5 -10t-10.5 -9t-9 -8.5t-9 -10.5t-6.5 -9t-6.5 -11t-4 -17.5t-3 -28.5q0 -55 54.5 -81t123.5 -12l3 -204q-147 -25 -271.5 34.5t-124.5 196.5q0 100 94 170h-258v993h701v-213h-441v-166h336v-211h-336v-192h465z" glyph-name="Eogonek.c2sc" horiz-adv-x="892"/><glyph d="M750 1393v-35l-170 -252h-252l-170 252v35h168q48 -48 127 -113q106 92 129 113h168zM827 211v-211h-725v993h701v-213h-441v-166h336v-211h-336v-192h465z" glyph-name="Ecaron.c2sc" horiz-adv-x="892"/><glyph d="M655 356v193h373l-2 -412q-152 -166 -409 -166t-414.5 154t-157.5 372t150.5 370.5t388.5 152.5t399 -166l-152 -166q-100 117 -222 117t-209 -85t-87 -220t90.5 -223.5t208.5 -88.5t195 60v108h-152zM289 1106l172 287h252l172 -287h-193l-106 108l-107 -108h-190z" glyph-name="Gcircumflex.c2sc" horiz-adv-x="1103"/><glyph d="M588 1106q-119 0 -188.5 86t-45.5 201h172q-10 -39 4.5 -84t54.5 -45t54 43t6 86h174q25 -111 -43.5 -199t-187.5 -88zM655 356v193h373l-2 -412q-152 -166 -409 -166t-414.5 154t-157.5 372t150.5 370.5t388.5 152.5t399 -166l-152 -166q-100 117 -222 117t-209 -85 t-87 -220t90.5 -223.5t208.5 -88.5t195 60v108h-152z" glyph-name="Gbreve.c2sc" horiz-adv-x="1103"/><glyph d="M655 356v193h373l-2 -412q-152 -166 -409 -166t-414.5 154t-157.5 372t150.5 370.5t388.5 152.5t399 -166l-152 -166q-100 117 -222 117t-209 -85t-87 -220t90.5 -223.5t208.5 -88.5t195 60v108h-152zM451 1254q0 54 36.5 92t89.5 38t91.5 -38t38.5 -92t-37.5 -90 t-91.5 -36t-90.5 36t-36.5 90z" glyph-name="Gdotaccent.c2sc" horiz-adv-x="1103"/><glyph d="M655 356v193h373l-2 -412q-152 -166 -409 -166t-414.5 154t-157.5 372t150.5 370.5t388.5 152.5t399 -166l-152 -166q-100 117 -222 117t-209 -85t-87 -220t90.5 -223.5t208.5 -88.5t195 60v108h-152zM412 -510l41 391h299l2 -35l-252 -370z" glyph-name="Gcommaaccent.c2sc" horiz-adv-x="1103"/><glyph d="M999 0h-262v403h-375v-403h-260v993h260v-379h375v379h262v-993zM256 1106l172 287h252l172 -287h-193l-106 108l-107 -108h-190z" glyph-name="Hcircumflex.c2sc" horiz-adv-x="1101"/><glyph d="M999 0h-262v403h-375v-403h-260v711h-92v182h92v100h260v-100h375v100h262v-100h93v-182h-93v-711zM362 614h375v97h-375v-97z" glyph-name="Hbar.c2sc" horiz-adv-x="1101"/><glyph d="M547 1393v-35l-240 -252h-205l129 287h316zM102 0v993h263v-993h-263z" glyph-name="Iacute.c2sc" horiz-adv-x="466"/><glyph d="M102 0v993h263v-993h-263zM-63 1106l172 287h251l172 -287h-192l-107 108l-106 -108h-190z" glyph-name="Icircumflex.c2sc" horiz-adv-x="466"/><glyph d="M102 0v993h263v-993h-263zM-59 1254q0 54 36.5 92t89.5 38t91.5 -38t38.5 -92t-37.5 -90t-91.5 -36t-90.5 36t-36.5 90zM272 1254q0 54 37 92t90 38t91 -38t38 -92t-37 -90t-91 -36t-91 36t-37 90z" glyph-name="Idieresis.c2sc" horiz-adv-x="466"/><glyph d="M-80 1393h316l129 -287h-205l-240 252v35zM102 0v993h263v-993h-263z" glyph-name="Igrave.c2sc" horiz-adv-x="466"/><glyph d="M98 1380q68 0 140.5 -26.5t101.5 -26.5q61 0 86 49l100 -24q10 -113 -44 -168.5t-134 -55.5q-45 0 -120.5 28t-106.5 28q-56 0 -74 -49l-102 24q-14 119 35.5 170t117.5 51zM102 0v993h263v-993h-263z" glyph-name="Itilde.c2sc" horiz-adv-x="466"/><glyph d="M102 0v993h263v-993h-263zM532 1163h-595v183h595v-183z" glyph-name="Imacron.c2sc" horiz-adv-x="466"/><glyph d="M233 1106q-119 0 -188.5 86t-44.5 201h172q-10 -39 4 -84t54 -45t54.5 43t6.5 86h174q25 -111 -44 -199t-188 -88zM102 0v993h263v-993h-263z" glyph-name="Ibreve.c2sc" horiz-adv-x="466"/><glyph d="M102 993h263v-993h-56q-53 -37 -53 -89t34 -81t78 -29t60 4l2 -204q-53 -8 -84 -9q-129 0 -220 61.5t-91 176.5q-1 78 67 137v1026z" glyph-name="Iogonek.c2sc" horiz-adv-x="466"/><glyph d="M102 0v993h263v-993h-263zM106 1254q0 54 37 92t90 38t91 -38t38 -92t-37 -90t-91 -36t-91 36t-37 90z" glyph-name="Idotaccent.c2sc" horiz-adv-x="466"/><glyph d="M102 0v993h263v-993h-263zM1077 993v-561q0 -502 -557 -442l8 213q150 -10 218.5 48t68.5 195l-2 547h264z" glyph-name="IJ.c2sc" horiz-adv-x="1200"/><glyph d="M610 993v-561q0 -502 -557 -442l8 213q150 -10 218.5 48t68.5 195l-2 547h264zM180 1106l172 287h252l172 -287h-192l-107 108l-106 -108h-191z" glyph-name="Jcircumflex.c2sc" horiz-adv-x="733"/><glyph d="M362 993v-403l343 403h307l-394 -473l429 -520h-338l-347 426v-426h-260v993h260zM334 -510l41 391h299l2 -35l-252 -370z" glyph-name="Kcommaaccent.c2sc" horiz-adv-x="1062"/><glyph d="M424 211h410v-211h-670v334l-101 -47l-63 159l164 78v469h260v-348q95 42 164 78q41 -111 63 -166l-227 -104v-242z" glyph-name="Lslash.c2sc" horiz-adv-x="876"/><glyph d="M557 1393v-35l-240 -252h-204l129 287h315zM762 211v-211h-660v993h260v-782h400z" glyph-name="Lacute.c2sc" horiz-adv-x="804"/><glyph d="M762 211v-211h-660v993h260v-782h400zM221 -510l41 391h299l2 -35l-252 -370z" glyph-name="Lcommaaccent.c2sc" horiz-adv-x="804"/><glyph d="M547 479l80 514h301l2 -37l-293 -507zM762 211v-211h-660v993h260v-782h400z" glyph-name="Lcaron.c2sc" horiz-adv-x="956"/><glyph d="M762 211v-211h-660v993h260v-782h400zM557 563q0 72 51 123t122 51t122 -51t51 -123t-50 -121t-123 -49t-123 49t-50 121z" glyph-name="Ldot.c2sc" horiz-adv-x="962"/><glyph d="M400 1380q68 0 140 -26.5t101 -26.5q61 0 86 49l100 -24q10 -113 -44 -168.5t-134 -55.5q-47 0 -122.5 28t-105.5 28q-55 0 -73 -49l-102 24q-14 119 36 170t118 51zM729 993h256v-993h-256v348l-375 240v-588h-252v993q4 2 43 15l584 -361v346z" glyph-name="Ntilde.c2sc" horiz-adv-x="1087"/><glyph d="M813 1393v-35l-240 -252h-204l129 287h315zM729 993h256v-993h-256v348l-375 240v-588h-252v993q4 2 43 15l584 -361v346z" glyph-name="Nacute.c2sc" horiz-adv-x="1087"/><glyph d="M729 993h256v-993h-256v348l-375 240v-588h-252v993q4 2 43 15l584 -361v346zM350 -510l41 391h299l2 -35l-252 -370z" glyph-name="Ncommaaccent.c2sc" horiz-adv-x="1087"/><glyph d="M825 1393v-35l-170 -252h-252l-170 252v35h168q15 -15 127 -113l129 113h168zM729 993h256v-993h-256v348l-375 240v-588h-252v993q4 2 43 15l584 -361v346z" glyph-name="Ncaron.c2sc" horiz-adv-x="1087"/><glyph d="M729 -129v477l-375 240v-588h-252v993l35 21l592 -367v346h256v-1151q0 -193 -110.5 -277.5t-258.5 -84.5q-72 0 -124 16l30 209q25 -6 51 -6q68 0 112 41t44 131z" glyph-name="Eng.c2sc" horiz-adv-x="1087"/><glyph d="M883 1393v-35l-240 -252h-205l129 287h316zM581 -29q-224 0 -378 150.5t-154 376t153.5 374t379 148.5t379 -148.5t153.5 -374t-154.5 -376t-378.5 -150.5zM584 195q115 0 189.5 88t74.5 216t-77 213t-193.5 85t-190.5 -85t-74 -212t78 -216t193 -89z" glyph-name="Oacute.c2sc" horiz-adv-x="1163"/><glyph d="M272 1393h316l129 -287h-205l-240 252v35zM581 -29q-224 0 -378 150.5t-154 376t153.5 374t379 148.5t379 -148.5t153.5 -374t-154.5 -376t-378.5 -150.5zM584 195q115 0 189.5 88t74.5 216t-77 213t-193.5 85t-190.5 -85t-74 -212t78 -216t193 -89z" glyph-name="Ograve.c2sc" horiz-adv-x="1163"/><glyph d="M581 -29q-224 0 -378 150.5t-154 376t153.5 374t379 148.5t379 -148.5t153.5 -374t-154.5 -376t-378.5 -150.5zM584 195q115 0 189.5 88t74.5 216t-77 213t-193.5 85t-190.5 -85t-74 -212t78 -216t193 -89zM281 1106l172 287h252l172 -287h-193l-106 108l-107 -108h-190z " glyph-name="Ocircumflex.c2sc" horiz-adv-x="1163"/><glyph d="M581 -29q-224 0 -378 150.5t-154 376t153.5 374t379 148.5t379 -148.5t153.5 -374t-154.5 -376t-378.5 -150.5zM584 195q115 0 189.5 88t74.5 216t-77 213t-193.5 85t-190.5 -85t-74 -212t78 -216t193 -89zM268 1254q0 54 37 92t90 38t91 -38t38 -92t-37 -90t-91 -36 t-91 36t-37 90zM600 1254q0 54 37 92t90 38t91 -38t38 -92t-38 -90t-91 -36t-90 36t-37 90z" glyph-name="Odieresis.c2sc" horiz-adv-x="1163"/><glyph d="M446 1380q68 0 140.5 -26.5t101.5 -26.5q61 0 86 49l100 -24q10 -113 -44 -168.5t-134 -55.5q-45 0 -121.5 28t-106.5 28q-55 0 -73 -49l-102 24q-14 119 35.5 170t117.5 51zM581 -29q-224 0 -378 150.5t-154 376t153.5 374t379 148.5t379 -148.5t153.5 -374t-154.5 -376 t-378.5 -150.5zM584 195q115 0 189.5 88t74.5 216t-77 213t-193.5 85t-190.5 -85t-74 -212t78 -216t193 -89z" glyph-name="Otilde.c2sc" horiz-adv-x="1163"/><glyph d="M578 -29q-100 0 -203 43l-109 -166l-119 74l105 158q-203 154 -203 418q0 225 153.5 373.5t379.5 148.5q127 0 237 -55l96 147l123 -72l-100 -151q176 -150 176 -383t-154.5 -384t-381.5 -151zM313 502q0 -125 68 -211l319 477q-57 37 -122 37q-117 0 -191 -89t-74 -214z M582 188q117 0 191.5 92t74.5 202t-45 184l-307 -457q35 -21 86 -21z" glyph-name="Oslash.c2sc" horiz-adv-x="1163"/><glyph d="M883 1393v-35l-240 -252h-205l129 287h316zM578 -29q-100 0 -203 43l-109 -166l-119 74l105 158q-203 154 -203 418q0 225 153.5 373.5t379.5 148.5q127 0 237 -55l96 147l123 -72l-100 -151q176 -150 176 -383t-154.5 -384t-381.5 -151zM313 502q0 -125 68 -211l319 477 q-57 37 -122 37q-117 0 -191 -89t-74 -214zM582 188q117 0 191.5 92t74.5 202t-45 184l-307 -457q35 -21 86 -21z" glyph-name="Oslashacute.c2sc" horiz-adv-x="1163"/><glyph d="M877 1163h-596v183h596v-183zM581 -29q-224 0 -378 150.5t-154 376t153.5 374t379 148.5t379 -148.5t153.5 -374t-154.5 -376t-378.5 -150.5zM584 195q115 0 189.5 88t74.5 216t-77 213t-193.5 85t-190.5 -85t-74 -212t78 -216t193 -89z" glyph-name="Omacron.c2sc" horiz-adv-x="1163"/><glyph d="M573 1106q-119 0 -188.5 86t-44.5 201h172q-10 -39 4 -84t54 -45t54.5 43t6.5 86h174q25 -111 -44 -199t-188 -88zM581 -29q-224 0 -378 150.5t-154 376t153.5 374t379 148.5t379 -148.5t153.5 -374t-154.5 -376t-378.5 -150.5zM584 195q115 0 189.5 88t74.5 216t-77 213 t-193.5 85t-190.5 -85t-74 -212t78 -216t193 -89z" glyph-name="Obreve.c2sc" horiz-adv-x="1163"/><glyph d="M581 -29q-224 0 -378 150.5t-154 376t153.5 374t379 148.5t379 -148.5t153.5 -374t-154.5 -376t-378.5 -150.5zM584 195q115 0 189.5 88t74.5 216t-77 213t-193.5 85t-190.5 -85t-74 -212t78 -216t193 -89zM682 1393v-35l-205 -252h-127l86 287h246zM993 1393v-35 l-205 -252h-129l86 287h248z" glyph-name="Ohungarumlaut.c2sc" horiz-adv-x="1163"/><glyph d="M1448 211v-211h-633q-340 -66 -553 83t-213 413t214 413.5t552 83.5h608v-213h-448v-166h342v-211h-342v-192h473zM315 492q0 -92 43 -158t148 -113t207 -16v579q-147 35 -272.5 -46t-125.5 -246z" glyph-name="OE.c2sc" horiz-adv-x="1511"/><glyph d="M735 1393v-35l-239 -252h-205l129 287h315zM874 631q0 -180 -167 -295q147 -172 290 -336h-321l-207 256q-68 -8 -104 -2v-254h-261l-2 981q240 56 425.5 16.5t266 -130.5t80.5 -236zM610 624q0 92 -74.5 131t-170.5 21v-311q100 -14 172.5 26.5t72.5 132.5z" glyph-name="Racute.c2sc" horiz-adv-x="987"/><glyph d="M874 631q0 -180 -167 -295q147 -172 290 -336h-321l-207 256q-68 -8 -104 -2v-254h-261l-2 981q240 56 425.5 16.5t266 -130.5t80.5 -236zM610 624q0 92 -74.5 131t-170.5 21v-311q100 -14 172.5 26.5t72.5 132.5zM334 -510l41 391h299l2 -35l-252 -370z" glyph-name="Rcommaaccent.c2sc" horiz-adv-x="987"/><glyph d="M711 1393v-35l-170 -252h-252l-170 252v35h168q48 -48 127 -113q106 92 129 113h168zM874 631q0 -180 -167 -295q147 -172 290 -336h-321l-207 256q-68 -8 -104 -2v-254h-261l-2 981q240 56 425.5 16.5t266 -130.5t80.5 -236zM610 624q0 92 -74.5 131t-170.5 21v-311 q100 -14 172.5 26.5t72.5 132.5z" glyph-name="Rcaron.c2sc" horiz-adv-x="987"/><glyph d="M362 0h-260v993h844l19 -41l-189 -346q72 4 157 -74.5t85 -209.5q0 -92 -38 -162t-127 -122t-215 -52t-214 26l29 205h26q57 -18 113 -18t107 38.5t51 114.5t-79 116t-188 -3l-32 35l157 280h-246v-780z" glyph-name="uni1E9E.c2sc" horiz-adv-x="1052"/><glyph d="M729 1393v-35l-170 -252h-252l-170 252v35h168q15 -15 127 -113q119 103 129 113h168zM305 722q0 -32 28 -51.5t128 -43.5q209 -43 287.5 -127t78.5 -207q0 -156 -116.5 -239t-298.5 -83q-104 0 -203.5 23.5t-151.5 54.5l80 219q41 -23 135 -47t160 -24t109 21.5t43 59.5 t-46 54.5t-86 26.5t-46 12q-174 41 -260.5 119.5t-86.5 217.5t114 225.5t290 86.5t313 -62l-59 -213q-141 57 -275 58q-57 0 -97 -24.5t-40 -56.5z" glyph-name="Scaron.c2sc" horiz-adv-x="884"/><glyph d="M733 1393v-35l-239 -252h-205l129 287h315zM305 722q0 -32 28 -51.5t128 -43.5q209 -43 287.5 -127t78.5 -207q0 -156 -116.5 -239t-298.5 -83q-104 0 -203.5 23.5t-151.5 54.5l80 219q41 -23 135 -47t160 -24t109 21.5t43 59.5t-46 54.5t-86 26.5t-46 12 q-174 41 -260.5 119.5t-86.5 217.5t114 225.5t290 86.5t313 -62l-59 -213q-141 57 -275 58q-57 0 -97 -24.5t-40 -56.5z" glyph-name="Sacute.c2sc" horiz-adv-x="884"/><glyph d="M305 722q0 -32 28 -51.5t128 -43.5q209 -43 287.5 -127t78.5 -207q0 -156 -116.5 -239t-298.5 -83q-104 0 -203.5 23.5t-151.5 54.5l80 219q41 -23 135 -47t160 -24t109 21.5t43 59.5t-46 54.5t-86 26.5t-46 12q-174 41 -260.5 119.5t-86.5 217.5t114 225.5t290 86.5 t313 -62l-59 -213q-141 57 -275 58q-57 0 -97 -24.5t-40 -56.5zM139 1106q87 143 172 287h252l172 -287h-192l-107 108l-106 -108h-191z" glyph-name="Scircumflex.c2sc" horiz-adv-x="884"/><glyph d="M305 722q0 -32 28 -51.5t128 -43.5q209 -43 287.5 -127t78.5 -208t-75.5 -202t-202.5 -104q76 -66 76 -168t-91.5 -164t-220.5 -62q-29 0 -82 9q0 135 2 204q25 -6 64 -6t77 27t38 74t-29 71q-207 6 -326 78l80 219q41 -23 135 -47t160 -24t109 21.5t43 59.5t-46 54.5 t-86 26.5t-46 12q-174 41 -260.5 119.5t-86.5 217.5t114 225.5t290 86.5t313 -62l-59 -213q-141 57 -275 58q-57 0 -97 -24.5t-40 -56.5z" glyph-name="Scedilla.c2sc" horiz-adv-x="884"/><glyph d="M307 722q0 -32 28 -51.5t128 -43.5q209 -43 287.5 -127t78.5 -207q0 -156 -116.5 -239t-298.5 -83q-104 0 -203.5 23.5t-151.5 54.5l80 219q41 -23 135 -47t160 -24t109 21.5t43 59.5t-46 54.5t-86 26.5t-46 12q-174 41 -260.5 119.5t-86.5 217.5t114 225.5t290 86.5 t313 -62l-59 -213q-141 57 -275 58q-57 0 -97 -24.5t-40 -56.5zM254 -510l41 391h299l2 -35l-252 -370z" glyph-name="Scommaaccent.c2sc" horiz-adv-x="888"/><glyph d="M102 0v993h263v-127q23 2 65 2q221 0 352 -100t131 -275t-132 -274.5t-335 -99.5q-53 0 -81 4v-123h-263zM442 342q207 0 207 154q0 82 -62.5 115.5t-121.5 33.5t-100 -4v-293q31 -6 77 -6z" glyph-name="Thorn.c2sc" horiz-adv-x="962"/><glyph d="M815 782h-258v-782h-57q104 -66 104 -176t-91 -171t-220 -61q-31 0 -84 9q0 33 1 101.5t1 102.5q14 -4 59 -4t79 29t34 80t-53 90h-35v782h-258v209h778v-209z" glyph-name="tcommaaccent.sc" horiz-adv-x="854"/><glyph d="M815 782h-258v-782h-262v782h-256v211h776v-211zM240 -510l41 391h299l2 -35l-252 -370z" glyph-name="uni021A.c2sc" horiz-adv-x="854"/><glyph d="M723 1393v-35l-170 -252h-252l-170 252v35h168q15 -15 127 -113q119 103 129 113h168zM815 782h-258v-782h-262v782h-256v211h776v-211z" glyph-name="Tcaron.c2sc" horiz-adv-x="854"/><glyph d="M815 782h-258v-186h168v-184h-168v-412h-262v412h-166v184h166v186h-256v211h776v-211z" glyph-name="Tbar.c2sc" horiz-adv-x="854"/><glyph d="M846 1393v-35l-240 -252h-205l129 287h316zM546 -29q-216 0 -330 127t-114 322v573h263v-581q0 -96 51 -155.5t132 -59.5t135 60t54 155v581h269v-577q0 -190 -122 -317.5t-338 -127.5z" glyph-name="Uacute.c2sc"/><glyph d="M250 1393h315l129 -287h-205l-239 252v35zM546 -29q-216 0 -330 127t-114 322v573h263v-581q0 -96 51 -155.5t132 -59.5t135 60t54 155v581h269v-577q0 -190 -122 -317.5t-338 -127.5z" glyph-name="Ugrave.c2sc"/><glyph d="M546 -29q-216 0 -330 127t-114 322v573h263v-581q0 -96 51 -155.5t132 -59.5t135 60t54 155v581h269v-577q0 -190 -122 -317.5t-338 -127.5zM250 1106l172 287h252l172 -287h-193l-106 108l-107 -108h-190z" glyph-name="Ucircumflex.c2sc"/><glyph d="M546 -29q-216 0 -330 127t-114 322v573h263v-581q0 -96 51 -155.5t132 -59.5t135 60t54 155v581h269v-577q0 -190 -122 -317.5t-338 -127.5zM240 1254q0 54 36.5 92t89.5 38t91.5 -38t38.5 -92t-38 -90t-92 -36t-90 36t-36 90zM571 1254q0 54 37 92t90 38t91 -38t38 -92 t-37.5 -90t-91.5 -36t-90.5 36t-36.5 90z" glyph-name="Udieresis.c2sc"/><glyph d="M410 1380q68 0 140.5 -26.5t100.5 -26.5q61 0 86 49l101 -24q10 -113 -44.5 -168.5t-134.5 -55.5q-45 0 -120.5 28t-106.5 28q-56 0 -74 -49l-102 24q-14 119 36 170t118 51zM546 -29q-216 0 -330 127t-114 322v573h263v-581q0 -96 51 -155.5t132 -59.5t135 60t54 155 v581h269v-577q0 -190 -122 -317.5t-338 -127.5z" glyph-name="Utilde.c2sc"/><glyph d="M846 1163h-596v183h596v-183zM546 -29q-216 0 -330 127t-114 322v573h263v-581q0 -96 51 -155.5t132 -59.5t135 60t54 155v581h269v-577q0 -190 -122 -317.5t-338 -127.5z" glyph-name="Umacron.c2sc"/><glyph d="M545 1106q-119 0 -188.5 86t-45.5 201h172q-10 -39 4.5 -84t54.5 -45t54 43t6 86h174q25 -111 -43.5 -199t-187.5 -88zM546 -29q-216 0 -330 127t-114 322v573h263v-581q0 -96 51 -155.5t132 -59.5t135 60t54 155v581h269v-577q0 -190 -122 -317.5t-338 -127.5z" glyph-name="Ubreve.c2sc"/><glyph d="M336 1191q0 85 61.5 146.5t149.5 61.5t150.5 -61.5t62.5 -146.5t-62.5 -146.5t-150.5 -61.5t-149.5 61.5t-61.5 146.5zM475 1192q0 -29 22.5 -52.5t51.5 -23.5t51.5 23.5t22.5 52.5t-22.5 52.5t-51.5 23.5t-51.5 -23.5t-22.5 -52.5zM546 -29q-216 0 -330 127t-114 322 v573h263v-587q0 -98 51 -158t132 -60t135 60.5t54 157.5v587h269v-577q0 -190 -122 -317.5t-338 -127.5z" glyph-name="Uring.c2sc"/><glyph d="M546 -29q-216 0 -330 127t-114 322v573h263v-581q0 -96 51 -155.5t132 -59.5t135 60t54 155v581h269v-577q0 -190 -122 -317.5t-338 -127.5zM639 1393v-35l-205 -252h-127l86 287h246zM950 1393v-35l-205 -252h-129l86 287h248z" glyph-name="Uhungarumlaut.c2sc"/><glyph d="M102 420v573h263v-581q0 -96 52 -155.5t131 -59.5t134 60t55 155v581h269v-577q0 -152 -79 -265.5t-225 -154.5q-47 -37 -47 -88t34 -79t79 -28t61 4q0 -137 2 -204q-53 -8 -83 -9q-129 0 -220.5 61.5t-91.5 176.5q1 82 64 145q-193 12 -295.5 136.5t-102.5 308.5z" glyph-name="Uogonek.c2sc"/><glyph d="M1092 1393v-35l-240 -252h-205l129 287h316zM1223 993h270l-430 -1007h-55l-271 530l-268 -530h-57l-422 1007h303l194 -463l242 478h57l238 -478z" glyph-name="Wacute.c2sc" horiz-adv-x="1482"/><glyph d="M416 1393h315l129 -287h-205l-239 252v35zM1223 993h270l-430 -1007h-55l-271 530l-268 -530h-57l-422 1007h303l194 -463l242 478h57l238 -478z" glyph-name="Wgrave.c2sc" horiz-adv-x="1482"/><glyph d="M1223 993h270l-430 -1007h-55l-271 530l-268 -530h-57l-422 1007h303l194 -463l242 478h57l238 -478zM457 1106l172 287h252l172 -287h-193l-106 108l-107 -108h-190z" glyph-name="Wcircumflex.c2sc" horiz-adv-x="1482"/><glyph d="M1223 993h270l-430 -1007h-55l-271 530l-268 -530h-57l-422 1007h303l194 -463l242 478h57l238 -478zM463 1254q0 54 37 92t90 38t91 -38t38 -92t-38 -90t-91 -36t-90 36t-37 90zM795 1254q0 54 36.5 92t90.5 38t91.5 -38t37.5 -92t-38 -90t-91 -36t-90 36t-37 90z" glyph-name="Wdieresis.c2sc" horiz-adv-x="1482"/><glyph d="M805 1393v-35l-240 -252h-205l129 287h316zM367 0v412q-244 356 -394 581h312l221 -321l221 321h295l-393 -581v-412h-262z" glyph-name="Yacute.c2sc" horiz-adv-x="995"/><glyph d="M190 1393h316l129 -287h-205l-240 252v35zM367 0v412q-244 356 -394 581h312l221 -321l221 321h295l-393 -581v-412h-262z" glyph-name="Ygrave.c2sc" horiz-adv-x="995"/><glyph d="M367 0v412q-244 356 -394 581h312l221 -321l221 321h295l-393 -581v-412h-262zM205 1106l172 287h252l172 -287h-193l-106 108l-107 -108h-190z" glyph-name="Ycircumflex.c2sc" horiz-adv-x="995"/><glyph d="M367 0v412q-244 356 -394 581h312l221 -321l221 321h295l-393 -581v-412h-262zM207 1254q0 54 37 92t90 38t91 -38t38 -92t-38 -90t-91 -36t-90 36t-37 90zM539 1254q0 54 36.5 92t90.5 38t91.5 -38t37.5 -92t-38 -90t-91 -36t-90 36t-37 90z" glyph-name="Ydieresis.c2sc" horiz-adv-x="995"/><glyph d="M834 1393v-35l-170 -252h-252l-170 252v35h168q48 -48 127 -113q37 37 129 113h168zM965 211v-211h-879l-20 45l507 735h-462v213h856l16 -47l-491 -735h473z" glyph-name="Zcaron.c2sc" horiz-adv-x="1048"/><glyph d="M815 1393v-35l-240 -252h-204l129 287h315zM965 211v-211h-879l-20 45l507 735h-462v213h856l16 -47l-491 -735h473z" glyph-name="Zacute.c2sc" horiz-adv-x="1048"/><glyph d="M965 211v-211h-879l-20 45l507 735h-462v213h856l16 -47l-491 -735h473zM401 1254q0 54 37 92t90 38t91 -38t38 -92t-37.5 -90t-91.5 -36t-90.5 36t-36.5 90z" glyph-name="Zdotaccent.c2sc" horiz-adv-x="1048"/><glyph d="M614 389v-313h-229v313h-313v229h313v314h229v-314h312v-229h-312z" glyph-name="plus.oldstyle" horiz-adv-x="997"/><glyph d="M928 389h-856v229h856v-229z" glyph-name="minus.oldstyle" horiz-adv-x="999"/><glyph d="M375 467l-262 260l157 160l258 -262l254 262l150 -148l-104 -105q-105 -104 -152 -155l262 -258l-158 -160l-260 261l-252 -261l-147 150z" glyph-name="multiply.oldstyle" horiz-adv-x="1052"/><glyph d="M375 847q0 54 38 91t89 37t88 -37t37 -91t-36 -89t-89 -35t-90 35t-37 89zM928 389h-856v229h856v-229zM375 164q0 53 38 90t89 37t88 -37t37 -90t-36 -88t-89 -35t-90 35t-37 88z" glyph-name="divide.oldstyle" horiz-adv-x="999"/><glyph d="M72 201v227h299l59 150h-358v229h456l117 285l195 -86l-80 -199h180v-229h-278l-62 -150h340v-227h-436l-131 -320l-195 86l94 234h-200z" glyph-name="notequal.oldstyle" horiz-adv-x="1011"/><glyph d="M987 4l-928 467v49l928 467v-272l-436 -217l436 -222v-272z" glyph-name="less.oldstyle" horiz-adv-x="1091"/><glyph d="M1032 471l-928 -467v272l437 222l-437 217v272l928 -467v-49z" glyph-name="greater.oldstyle" horiz-adv-x="1091"/><glyph d="M987 18h-874v228h874v-228zM985 297l-897 270v140l897 270v-219l-418 -119l418 -123v-219z" glyph-name="lessequal.oldstyle" horiz-adv-x="1091"/><glyph d="M977 18h-873v228h873v-228zM1004 567l-898 -270v217l416 123l-416 121v219l898 -270v-140z" glyph-name="greaterequal.oldstyle" horiz-adv-x="1091"/><glyph d="M328 471q66 0 195.5 -44t178.5 -44q100 0 148 70l96 -7q29 -150 -54 -227.5t-192 -77.5q-68 0 -195.5 42t-174.5 42q-113 1 -154 -67l-94 6q-25 162 55 234.5t191 72.5zM338 852q56 0 185.5 -44t178.5 -44q100 0 148 72l96 -7q29 -150 -54 -228.5t-192 -78.5 q-68 0 -195.5 43t-176.5 43t-91.5 -19t-60.5 -48l-94 4q-24 175 61 241t195 66z" glyph-name="approxequal.oldstyle" horiz-adv-x="1028"/><glyph d="M940 201h-868v227h868v-227zM940 578h-868v229h868v-229z" glyph-name="equal.oldstyle" horiz-adv-x="1011"/><glyph d="M1276 233h575v-233h-852v231h-542l-162 -231h-346l1020 1438h862v-234h-555v-356h446v-236h-446v-379zM999 467v567l-385 -567h385z" glyph-name="AE.salt" horiz-adv-x="1959"/><glyph d="M1483 1831v-35l-240 -252h-205l129 287h316zM1276 233h575v-233h-852v231h-542l-162 -231h-346l1020 1438h862v-234h-555v-356h446v-236h-446v-379zM999 467v567l-385 -567h385z" glyph-name="AEacute.salt" horiz-adv-x="1959"/><glyph d="M430 233h576v-233h-852v1438h829v-234h-553v-358h447v-234h-447v-379z" glyph-name="E.salt" horiz-adv-x="1112"/><glyph d="M430 233h576v-233h-852v1438h829v-234h-553v-358h447v-234h-447v-379zM850 1831v-35l-240 -252h-204l129 287h315z" glyph-name="Eacute.salt" horiz-adv-x="1112"/><glyph d="M430 233h576v-233h-852v1438h829v-234h-553v-358h447v-234h-447v-379zM322 1831h315l129 -287h-205l-239 252v35z" glyph-name="Egrave.salt" horiz-adv-x="1112"/><glyph d="M430 233h576v-233h-852v1438h829v-234h-553v-358h447v-234h-447v-379zM276 1693q0 54 37 92t90 38t91 -38t38 -92t-37 -90t-91 -36t-91 36t-37 90zM608 1693q0 54 37 92t90 38t91 -38t38 -92t-38 -90t-91 -36t-90 36t-37 90z" glyph-name="Edieresis.salt" horiz-adv-x="1112"/><glyph d="M430 233h576v-233h-852v1438h829v-234h-553v-358h447v-234h-447v-379zM291 1544l172 287h252l172 -287h-193q-46 46 -106 109l-107 -109h-190z" glyph-name="Ecircumflex.salt" horiz-adv-x="1112"/><glyph d="M430 233h576v-233h-852v1438h829v-234h-553v-358h447v-234h-447v-379zM868 1604h-596v182h596v-182z" glyph-name="Emacron.salt" horiz-adv-x="1112"/><glyph d="M430 233h576v-233h-852v1438h829v-234h-553v-358h447v-234h-447v-379zM569 1544q-119 0 -188.5 86t-44.5 201h172q-10 -39 4 -84t54 -45t54.5 43t6.5 86h174q25 -111 -44 -199t-188 -88z" glyph-name="Ebreve.salt" horiz-adv-x="1112"/><glyph d="M430 233h576v-233h-852v1438h829v-234h-553v-358h447v-234h-447v-379zM434 1693q0 54 37 92t90 38t91 -38t38 -92t-38 -90t-91 -36t-90 36t-37 90z" glyph-name="Edotaccent.salt" horiz-adv-x="1112"/><glyph d="M430 233h576v-233h-332q-46 -42 -54 -62t-8 -42q0 -55 54.5 -81t124.5 -12l2 -204q-92 -16 -180.5 2t-151 77.5t-62.5 155.5t95 166h-340v1438h829v-234h-553v-358h447v-234h-447v-379z" glyph-name="Eogonek.salt" horiz-adv-x="1112"/><glyph d="M430 233h576v-233h-852v1438h829v-234h-553v-358h447v-234h-447v-379zM858 1831v-35l-170 -252h-252l-170 252v35h168l127 -113q124 108 129 113h168z" glyph-name="Ecaron.salt" horiz-adv-x="1112"/><glyph d="M430 0h-276v1438h815v-234h-539v-358h430v-234h-430v-612z" glyph-name="F.salt" horiz-adv-x="1062"/><glyph d="M936 0v612h-506v-612h-276v1438h276v-592h506v592h276v-1438h-276z" glyph-name="H.salt" horiz-adv-x="1366"/><glyph d="M936 0v612h-506v-612h-276v1438h276v-592h506v592h276v-1438h-276zM383 1544l172 287h252l172 -287h-193q-46 46 -106 109l-107 -109h-190z" glyph-name="Hcircumflex.salt" horiz-adv-x="1366"/><glyph d="M936 0v612h-506v-612h-276v1077h-131v185h131v176h276v-176h506v176h276v-176h131v-185h-131v-1077h-276zM430 846h506v231h-506v-231z" glyph-name="Hbar.salt" horiz-adv-x="1366"/><glyph d="M428 0h-274v1440l69 12l627 -864l627 864l67 -12v-1440h-272v737l-410 -590h-24l-410 590v-737z" glyph-name="M.salt" horiz-adv-x="1697"/><glyph d="M1071 1438h275v-1440l-58 -12l-862 870v-856h-272v1440l57 12l860 -862v848z" glyph-name="N.salt" horiz-adv-x="1499"/><glyph d="M1071 1438h275v-1440l-58 -12l-862 870v-856h-272v1440l57 12l860 -862v848zM596 1819q68 0 140.5 -27t101.5 -27q61 0 86 50l100 -25q10 -113 -44 -168t-118 -55t-139 27.5t-105 27.5q-54 0 -73 -49l-103 24q-14 119 36 170.5t118 51.5z" glyph-name="Ntilde.salt" horiz-adv-x="1499"/><glyph d="M1071 1438h275v-1440l-58 -12l-862 870v-856h-272v1440l57 12l860 -862v848zM1018 1843v-35l-240 -252h-205l129 287h316z" glyph-name="Nacute.salt" horiz-adv-x="1499"/><glyph d="M1071 1438h275v-1440l-58 -12l-862 870v-856h-272v1440l57 12l860 -862v848zM590 -510l41 391h299l2 -35l-252 -370z" glyph-name="Ncommaaccent.salt" horiz-adv-x="1499"/><glyph d="M1071 1438h275v-1440l-58 -12l-862 870v-856h-272v1440l57 12l860 -862v848zM1032 1841v-35l-170 -252h-252l-170 252v35h168q7 -7 127 -112l129 112h168z" glyph-name="Ncaron.salt" horiz-adv-x="1499"/><glyph d="M1073 1438h273v-1598q0 -104 -37 -180t-92.5 -112.5t-151.5 -61t-209 7.5l31 221q74 -14 131 26t55 130v313l-647 672v-856h-272v1440l57 12l862 -864v850z" glyph-name="Eng.salt" horiz-adv-x="1499"/><glyph d="M1821 1438v-236h-559v-356h450v-234h-450v-379h579v-233h-706q-129 -20 -285 -20t-306.5 52t-239.5 132t-147.5 183.5t-79 194.5t-20.5 179t21.5 180t81 194.5t148.5 180.5t239.5 129t301.5 51t286 -18h686zM864 1214q-229 0 -367.5 -144t-138.5 -366t148.5 -353.5 t372.5 -131.5q57 0 106 8v977q-68 10 -121 10z" glyph-name="OE.salt" horiz-adv-x="1949"/><glyph d="M362 0h-260v995l68 13l473 -572l473 572l68 -13v-995h-260v416l-267 -338h-28l-267 338v-416z" glyph-name="M.c2sc.salt" horiz-adv-x="1286"/><glyph d="M354 0h-252v993l48 13l610 -523v510h256v-993l-47 -14l-615 518v-504z" glyph-name="N.c2sc.salt" horiz-adv-x="1118"/><glyph d="M418 1380q68 0 140.5 -26.5t100.5 -26.5q61 0 86 49l101 -24q10 -113 -44 -168.5t-134 -55.5q-45 0 -121.5 28t-106.5 28q-54 0 -73 -49l-103 24q-14 119 36 170t118 51zM354 0h-252v993l48 13l610 -523v510h256v-993l-47 -14l-615 518v-504z" glyph-name="Ntilde.c2sc.salt" horiz-adv-x="1118"/><glyph d="M829 1393v-35l-239 -252h-205l129 287h315zM354 0h-252v993l48 13l610 -523v510h256v-993l-47 -14l-615 518v-504z" glyph-name="Nacute.c2sc.salt" horiz-adv-x="1118"/><glyph d="M393 -510l41 391h299l2 -35l-252 -370zM354 0h-252v993l48 13l610 -523v510h256v-993l-47 -14l-615 518v-504z" glyph-name="Ncommaaccent.c2sc.salt" horiz-adv-x="1118"/><glyph d="M836 1393v-35l-170 -252h-252l-170 252v35h168q48 -48 127 -113q106 92 129 113h168zM354 0h-252v993l48 13l610 -523v510h256v-993l-47 -14l-615 518v-504z" glyph-name="Ncaron.c2sc.salt" horiz-adv-x="1118"/><glyph d="M1016 -160q0 -104 -37 -180t-93.5 -112.5t-153 -61t-210.5 7.5l31 211q80 -18 144.5 19.5t62.5 146.5v270l-406 363v-504h-252v993l48 13l610 -523v510h256v-1153z" glyph-name="Eng.c2sc.salt" horiz-adv-x="1118"/></font>
</defs>
</svg>
